<svg width="26" height="26" viewBox="0 0 26 26" fill="none" xmlns="http://www.w3.org/2000/svg">
<path d="M23.0175 4.32961C22.857 4.32961 22.7027 4.30117 22.5605 4.24836V14.9165H21.5215V15.9321H23.0683C23.3486 15.9321 23.5761 15.7046 23.5761 15.4243V4.2057C23.4065 4.28594 23.2176 4.32961 23.0175 4.32961Z" fill="#EF6D7A"/>
<path d="M23.6575 4.07703C23.6135 4.04899 23.558 4.04574 23.5109 4.06799C23.2346 4.1988 22.9009 4.21241 22.6135 4.10556C22.5668 4.0882 22.5144 4.0948 22.4734 4.12334C22.4325 4.15177 22.4081 4.19849 22.4081 4.24846V14.7642H21.5215C21.4373 14.7642 21.3691 14.8324 21.3691 14.9166V15.9322C21.3691 16.0164 21.4373 16.0846 21.5215 16.0846H23.0683C23.4323 16.0846 23.7284 15.7884 23.7284 15.4244V4.2057C23.7284 4.1535 23.7017 4.10495 23.6575 4.07703ZM23.4238 15.4243C23.4238 15.6203 23.2643 15.7798 23.0683 15.7798H21.6738V15.0688H22.5605C22.6447 15.0688 22.7128 15.0007 22.7128 14.9165V4.45057C22.9463 4.49963 23.1968 4.49079 23.4238 4.42559V15.4243Z" fill="#3A312A"/>
<path d="M4.82578 2.6718C4.72686 3.84627 3.50293 4.03162 3.50293 4.03162C4.5538 4.08108 4.81563 5.45949 4.81563 5.45949C4.83807 4.47667 6.16854 4.0171 6.16854 4.0171C5.17191 3.95758 4.82578 2.6718 4.82578 2.6718Z" fill="#D6DF58"/>
<path d="M6.17748 3.86506C5.30364 3.81286 4.9759 2.64388 4.97265 2.6321C4.95325 2.5607 4.8852 2.51357 4.81187 2.52017C4.73824 2.52688 4.68004 2.58538 4.67385 2.65901C4.58651 3.69647 3.52477 3.874 3.48008 3.88101C3.40259 3.89269 3.34673 3.96124 3.35079 4.03945C3.35486 4.11765 3.41752 4.18001 3.49583 4.18377C4.41273 4.22693 4.66369 5.47544 4.66603 5.48803C4.67994 5.56024 4.74312 5.61163 4.81553 5.61163C4.81979 5.61163 4.82406 5.61153 4.82833 5.61113C4.90592 5.60463 4.96615 5.54074 4.96797 5.46284C4.98768 4.59875 6.20612 4.16518 6.21851 4.16092C6.28707 4.13705 6.32942 4.06799 6.31947 3.99608C6.30931 3.92438 6.25 3.86943 6.17748 3.86506ZM4.79979 4.91583C4.66197 4.59794 4.42309 4.21434 4.02923 4.01426C4.32691 3.87167 4.68015 3.61685 4.86225 3.17413C5.01977 3.48603 5.28871 3.87288 5.70867 4.05996C5.40317 4.22652 5.00555 4.50745 4.79979 4.91583Z" fill="#3A312A"/>
<path d="M2.62212 4.39644C2.55214 5.22712 1.68652 5.35834 1.68652 5.35834C2.42976 5.39327 2.61501 6.36828 2.61501 6.36828C2.63085 5.67318 3.57193 5.34808 3.57193 5.34808C2.86698 5.30583 2.62212 4.39644 2.62212 4.39644Z" fill="#D6DF58"/>
<path d="M3.58097 5.19594C2.99536 5.1609 2.77132 4.36465 2.76908 4.35662C2.74979 4.28533 2.68215 4.2383 2.60841 4.2447C2.53468 4.2513 2.47648 4.30991 2.47029 4.38364C2.41148 5.08137 1.69374 5.20284 1.66368 5.20762C1.58618 5.2193 1.53033 5.28785 1.53439 5.36605C1.53845 5.44426 1.60111 5.50662 1.67932 5.51037C2.29235 5.53922 2.46379 6.38828 2.46531 6.39661C2.47902 6.46902 2.5424 6.52052 2.61481 6.52052C2.61908 6.52052 2.62324 6.52041 2.6275 6.52001C2.7052 6.51361 2.76543 6.44952 2.76725 6.37162C2.78046 5.7918 3.61347 5.49473 3.6217 5.49189C3.69046 5.46812 3.73281 5.39916 3.72286 5.32716C3.7129 5.25525 3.65359 5.2003 3.58097 5.19594ZM2.6075 5.88605C2.51365 5.69451 2.36984 5.48519 2.15585 5.3498C2.34425 5.24408 2.53133 5.0828 2.65056 4.85052C2.75791 5.04085 2.92011 5.2522 3.15238 5.38109C2.96459 5.4928 2.74725 5.65937 2.6075 5.88605Z" fill="#3A312A"/>
<path d="M2.62212 1.68898C2.55214 2.51966 1.68652 2.65088 1.68652 2.65088C2.42976 2.68582 2.61501 3.66082 2.61501 3.66082C2.63085 2.96573 3.57193 2.64062 3.57193 2.64062C2.86698 2.59837 2.62212 1.68898 2.62212 1.68898Z" fill="#D6DF58"/>
<path d="M3.58098 2.48849C2.99527 2.45345 2.77122 1.6572 2.76909 1.64907C2.7498 1.57777 2.68215 1.53065 2.60842 1.53715C2.53469 1.54375 2.47649 1.60235 2.4703 1.67609C2.41149 2.37392 1.69375 2.49539 1.66369 2.50017C1.58619 2.51185 1.53023 2.5804 1.5344 2.6586C1.53846 2.73681 1.60112 2.79917 1.67943 2.80292C2.29236 2.83177 2.4638 3.68083 2.46542 3.68916C2.47913 3.76157 2.54251 3.81306 2.61492 3.81306C2.61919 3.81306 2.62335 3.81286 2.62762 3.81256C2.70531 3.80616 2.76554 3.74207 2.76737 3.66417C2.78057 3.08435 3.61348 2.78728 3.62181 2.78444C3.69047 2.76067 3.73292 2.69171 3.72297 2.6197C3.71291 2.5479 3.6536 2.49285 3.58098 2.48849ZM2.60751 3.1786C2.51366 2.98716 2.36985 2.77774 2.15586 2.64235C2.34436 2.53663 2.53133 2.37524 2.65057 2.14307C2.75792 2.3333 2.92022 2.54465 3.15239 2.67363C2.9646 2.78545 2.74726 2.95192 2.60751 3.1786Z" fill="#3A312A"/>
<path d="M19.5015 6.53758H3.68145C3.08832 6.53758 2.60742 7.01838 2.60742 7.6116V23.237C2.60742 23.8301 3.08822 24.311 3.68145 24.311H19.5015C20.0947 24.311 20.5756 23.8302 20.5756 23.237V7.6115C20.5756 7.01838 20.0947 6.53758 19.5015 6.53758Z" fill="#87796F"/>
<path d="M19.5014 6.38523H3.68145C3.00524 6.38523 2.45508 6.9354 2.45508 7.6116V8.68715C2.45508 8.77134 2.52323 8.83949 2.60742 8.83949C2.69162 8.83949 2.75977 8.77134 2.75977 8.68715V7.6116C2.75977 7.10338 3.17323 6.68992 3.68145 6.68992H19.5015C20.0098 6.68992 20.4232 7.10338 20.4232 7.6116V23.2371C20.4232 23.7453 20.0098 24.1588 19.5015 24.1588H3.68145C3.17323 24.1588 2.75977 23.7453 2.75977 23.2371V10.1358C2.75977 10.0516 2.69162 9.98349 2.60742 9.98349C2.52323 9.98349 2.45508 10.0516 2.45508 10.1358V23.237C2.45508 23.9132 3.00524 24.4634 3.68145 24.4634H19.5015C20.1777 24.4634 20.7279 23.9132 20.7279 23.237V7.6115C20.7278 6.9353 20.1776 6.38523 19.5014 6.38523Z" fill="#3A312A"/>
<path d="M20.4463 11.5206H2.73613C2.14301 11.5206 1.66211 12.0014 1.66211 12.5947V18.2539C1.66211 18.8471 2.14301 19.328 2.73613 19.328H20.4463C21.0394 19.328 21.5203 18.8472 21.5203 18.2539V12.5947C21.5203 12.0014 21.0395 11.5206 20.4463 11.5206Z" fill="#FAE6CA"/>
<path d="M20.4463 11.3683H17.4384C17.3542 11.3683 17.2861 11.4364 17.2861 11.5206C17.2861 11.6048 17.3542 11.673 17.4384 11.673H20.4463C20.9545 11.673 21.368 12.0864 21.368 12.5947V18.2539C21.368 18.7621 20.9545 19.1756 20.4463 19.1756H2.73613C2.22791 19.1756 1.81445 18.7621 1.81445 18.2539V12.5947C1.81445 12.0864 2.22791 11.673 2.73613 11.673H16.0429C16.127 11.673 16.1952 11.6048 16.1952 11.5206C16.1952 11.4364 16.127 11.3683 16.0429 11.3683H2.73613C2.05993 11.3683 1.50977 11.9185 1.50977 12.5947V18.2539C1.50977 18.9301 2.05993 19.4803 2.73613 19.4803H20.4463C21.1225 19.4803 21.6727 18.9301 21.6727 18.2539V12.5947C21.6727 11.9185 21.1226 11.3683 20.4463 11.3683Z" fill="#3A312A"/>
<path d="M2.88184 13.1433V14.2851H5.28491C4.79141 14.898 4.43077 15.4734 4.20286 16.011C3.97495 16.5487 3.80788 17.2147 3.70165 18.0091H5.04928C5.09346 17.4382 5.17979 16.9437 5.30816 16.5254C5.46965 15.9878 5.68984 15.4999 5.96863 15.0617C6.19877 14.7011 6.48527 14.3658 6.82825 14.056V13.1433H2.88184Z" fill="#EF6D7A"/>
<path d="M6.82825 12.991H2.88184C2.79764 12.991 2.72949 13.0591 2.72949 13.1433V14.2851C2.72949 14.3693 2.79764 14.4374 2.88184 14.4374H4.9723C4.5693 14.9684 4.2638 15.4767 4.0625 15.9515C3.83033 16.4991 3.65808 17.1846 3.55063 17.9889C3.54484 18.0324 3.55804 18.0763 3.58698 18.1093C3.61593 18.1424 3.65767 18.1613 3.70165 18.1613H5.04918C5.12881 18.1613 5.19492 18.1001 5.20112 18.0207C5.24428 17.4637 5.32929 16.9756 5.45401 16.5692C5.61072 16.0475 5.82705 15.5678 6.097 15.1436C6.31861 14.7962 6.59892 14.4683 6.93032 14.169C6.96231 14.14 6.98059 14.099 6.98059 14.0559V13.1432C6.98059 13.0591 6.91234 12.991 6.82825 12.991ZM6.67591 13.9889C6.34613 14.2941 6.06511 14.6272 5.84015 14.98C5.55506 15.4278 5.32706 15.9331 5.16263 16.4807C5.04227 16.8728 4.95727 17.3351 4.90943 17.8567H3.87705C3.98166 17.1541 4.13816 16.5538 4.34312 16.0704C4.56452 15.5481 4.92131 14.9795 5.40363 14.3806C5.4404 14.3349 5.44771 14.2722 5.42242 14.2194C5.39703 14.1664 5.34371 14.1327 5.28501 14.1327H3.03418V13.2956H6.67591V13.9889Z" fill="#3A312A"/>
<path d="M9.61816 13.1433V14.2851H12.0211C11.5277 14.898 11.167 15.4734 10.9392 16.011C10.7113 16.5487 10.5442 17.2147 10.438 18.0091H11.7855C11.8298 17.4382 11.916 16.9437 12.0444 16.5254C12.206 15.9878 12.4262 15.4999 12.705 15.0617C12.9351 14.7011 13.2216 14.3658 13.5646 14.056V13.1433H9.61816Z" fill="#EF6D7A"/>
<path d="M13.5645 12.991H9.61816C9.53397 12.991 9.46582 13.0591 9.46582 13.1433V14.2851C9.46582 14.3693 9.53397 14.4374 9.61816 14.4374H11.7086C11.3055 14.9687 11 15.4769 10.7989 15.9515C10.5668 16.4991 10.3945 17.1846 10.287 17.9889C10.2812 18.0324 10.2944 18.0763 10.3233 18.1093C10.3523 18.1424 10.394 18.1613 10.438 18.1613H11.7855C11.8651 18.1613 11.9312 18.1001 11.9374 18.0207C11.9806 17.4637 12.0656 16.9756 12.1903 16.5692C12.3471 16.0474 12.5636 15.5677 12.8334 15.1436C13.055 14.7962 13.3353 14.4683 13.6667 14.169C13.6987 14.14 13.717 14.099 13.717 14.0559V13.1432C13.7168 13.0591 13.6487 12.991 13.5645 12.991ZM13.4121 13.9889C13.0824 14.2941 12.8013 14.6272 12.5764 14.98C12.2914 15.4277 12.0633 15.9329 11.8987 16.4807C11.7784 16.8728 11.6934 17.3351 11.6456 17.8567H10.6134C10.718 17.1541 10.8745 16.5538 11.0794 16.0704C11.3006 15.5484 11.6573 14.9799 12.1398 14.3805C12.1765 14.3348 12.1838 14.2722 12.1585 14.2193C12.1332 14.1663 12.0798 14.1327 12.0211 14.1327H9.77051V13.2956H13.4121V13.9889Z" fill="#3A312A"/>
<path d="M16.3555 13.1433V14.2851H18.7585C18.265 14.898 17.9044 15.4734 17.6765 16.011C17.4486 16.5487 17.2815 17.2147 17.1753 18.0091H18.5229C18.5671 17.4382 18.6534 16.9437 18.7818 16.5254C18.9433 15.9878 19.1635 15.4999 19.4423 15.0617C19.6724 14.7011 19.9589 14.3658 20.3019 14.056V13.1433H16.3555Z" fill="#EF6D7A"/>
<path d="M20.3019 12.991H16.3555C16.2713 12.991 16.2031 13.0591 16.2031 13.1433V14.2851C16.2031 14.3693 16.2713 14.4374 16.3555 14.4374H18.4459C18.0429 14.9684 17.7374 15.4767 17.5361 15.9515C17.304 16.4991 17.1317 17.1846 17.0243 17.9889C17.0185 18.0324 17.0317 18.0763 17.0606 18.1093C17.0896 18.1424 17.1313 18.1613 17.1753 18.1613H18.5229C18.6025 18.1613 18.6687 18.1001 18.6749 18.0207C18.718 17.4637 18.803 16.9756 18.9277 16.5692C19.0845 16.0475 19.3008 15.5678 19.5707 15.1436C19.7923 14.7962 20.0727 14.4683 20.4041 14.169C20.436 14.14 20.4543 14.099 20.4543 14.0559V13.1432C20.4542 13.0591 20.386 12.991 20.3019 12.991ZM20.1495 13.9889C19.8198 14.2941 19.5387 14.6272 19.3138 14.98C19.0287 15.4278 18.8007 15.9331 18.6363 16.4807C18.5159 16.8728 18.4309 17.3351 18.3831 17.8567H17.3508C17.4554 17.1541 17.6119 16.5538 17.8169 16.0704C18.0383 15.5481 18.395 14.9795 18.8774 14.3806C18.9141 14.3349 18.9214 14.2722 18.8962 14.2194C18.8709 14.1664 18.8174 14.1327 18.7587 14.1327H16.508V13.2956H20.1497V13.9889H20.1495Z" fill="#3A312A"/>
<path d="M15.4031 6.08583C15.7826 5.71594 15.5733 5.07152 15.0488 4.99525L13.3889 4.75404C13.1807 4.72377 13.0007 4.59296 12.9075 4.40426L12.1652 2.90022C11.9307 2.42501 11.2531 2.42501 11.0186 2.90022L10.2763 4.40426C10.1831 4.59296 10.0031 4.72377 9.79485 4.75404L8.13501 4.99525C7.61065 5.07142 7.40123 5.71594 7.78066 6.08583L8.98174 7.25654C9.13246 7.4034 9.20122 7.61506 9.16557 7.82245L8.88201 9.47558C8.79243 9.99791 9.34066 10.3961 9.80968 10.1495L11.2942 9.36904C11.4805 9.27113 11.703 9.27113 11.8893 9.36904L13.3738 10.1495C13.8428 10.3961 14.3911 9.99791 14.3015 9.47558L14.0179 7.82245C13.9824 7.61506 14.0511 7.4034 14.2018 7.25654L15.4031 6.08583Z" fill="#D6DF58"/>
<path d="M15.5093 6.19501C15.7267 5.98315 15.8034 5.67206 15.7096 5.38332C15.6158 5.09468 15.3709 4.8882 15.0706 4.84453L13.4108 4.60332C13.2521 4.58027 13.1151 4.48074 13.0441 4.33692L12.3018 2.83288C12.1674 2.5607 11.8955 2.39159 11.5919 2.39159C11.2883 2.39159 11.0163 2.5607 10.882 2.83288L10.1396 4.33692C10.0686 4.48074 9.93164 4.58027 9.7729 4.60332L8.11306 4.84453C7.81264 4.8882 7.56777 5.09458 7.47393 5.38332C7.38008 5.67206 7.45687 5.98305 7.67431 6.19501L8.87529 7.36572C8.99005 7.47764 9.04246 7.63872 9.01534 7.79685L8.73178 9.44988C8.68049 9.74909 8.80115 10.0458 9.04673 10.2242C9.18556 10.325 9.34786 10.3762 9.51137 10.3762C9.63721 10.3762 9.76365 10.3459 9.88055 10.2844L11.3651 9.50392C11.5069 9.42927 11.6765 9.42937 11.8183 9.50392L13.3029 10.2844C13.5715 10.4257 13.8911 10.4026 14.1366 10.2242C14.3822 10.0458 14.5029 9.74909 14.4516 9.44988L14.168 7.79685C14.1409 7.63882 14.1933 7.47764 14.3081 7.36572L15.5093 6.19501ZM13.8678 7.84824L14.1514 9.50128C14.1834 9.68815 14.111 9.86619 13.9577 9.9776C13.8042 10.0891 13.6125 10.1029 13.4448 10.0147L11.9603 9.23417C11.8449 9.17353 11.7183 9.14317 11.5918 9.14317C11.4652 9.14317 11.3387 9.17353 11.2234 9.23417L9.73887 10.0147C9.57099 10.1029 9.37944 10.089 9.22598 9.9776C9.07262 9.86619 9.00021 9.68815 9.0322 9.50128L9.31576 7.84824C9.35984 7.59129 9.27463 7.32936 9.08806 7.14746L7.88698 5.97675C7.7513 5.84441 7.70519 5.65774 7.76379 5.47747C7.82239 5.2972 7.96935 5.17329 8.15694 5.14607L9.81667 4.90486C10.0746 4.86749 10.2975 4.70559 10.4128 4.4718L11.1552 2.96776C11.2391 2.79774 11.4023 2.69628 11.5919 2.69628C11.7815 2.69628 11.9447 2.79784 12.0286 2.96776L12.7709 4.4718C12.8863 4.70549 13.1092 4.86749 13.367 4.90486L15.0268 5.14607C15.2144 5.17339 15.3614 5.2972 15.42 5.47747C15.4786 5.65774 15.4325 5.84441 15.2968 5.97675L14.0957 7.14746C13.9089 7.32936 13.8237 7.59129 13.8678 7.84824Z" fill="#3A312A"/>
<path d="M23.0176 4.32961C23.7468 4.32961 24.3379 3.73849 24.3379 3.0093C24.3379 2.28011 23.7468 1.68898 23.0176 1.68898C22.2884 1.68898 21.6973 2.28011 21.6973 3.0093C21.6973 3.73849 22.2884 4.32961 23.0176 4.32961Z" fill="#8AC5DC"/>
<path d="M23.0176 1.53664C22.2056 1.53664 21.5449 2.1973 21.5449 3.0093C21.5449 3.82129 22.2056 4.48195 23.0176 4.48195C23.8296 4.48195 24.4902 3.82129 24.4902 3.0093C24.4902 2.1973 23.8296 1.53664 23.0176 1.53664ZM23.0176 4.17726C22.3736 4.17726 21.8496 3.6533 21.8496 3.0093C21.8496 2.36529 22.3736 1.84133 23.0176 1.84133C23.6616 1.84133 24.1855 2.36529 24.1855 3.0093C24.1855 3.65341 23.6616 4.17726 23.0176 4.17726Z" fill="#3A312A"/>
<path d="M5.28284 22.7992C5.80858 22.6749 6.13403 22.148 6.00975 21.6222C5.88548 21.0965 5.35854 20.771 4.8328 20.8953C4.30706 21.0196 3.9816 21.5465 4.10588 22.0723C4.23016 22.598 4.7571 22.9235 5.28284 22.7992Z" fill="#89C4DB"/>
<path d="M5.05452 20.7232C4.43103 20.7232 3.92383 21.2304 3.92383 21.8539C3.92383 22.4774 4.43103 22.9846 5.05452 22.9846C5.67802 22.9846 6.18522 22.4774 6.18522 21.8539C6.18522 21.2305 5.67802 20.7232 5.05452 20.7232ZM5.05452 22.6799C4.59912 22.6799 4.22852 22.3094 4.22852 21.8539C4.22852 21.3985 4.59902 21.0279 5.05452 21.0279C5.51003 21.0279 5.88053 21.3984 5.88053 21.8539C5.88053 22.3094 5.51003 22.6799 5.05452 22.6799Z" fill="#3A312A"/>
<path d="M10.1005 22.5443C10.4825 22.1623 10.4825 21.5429 10.1005 21.1609C9.71846 20.7789 9.0991 20.7789 8.71709 21.1609C8.33507 21.5429 8.33507 22.1623 8.71708 22.5443C9.0991 22.9263 9.71846 22.9263 10.1005 22.5443Z" fill="#89C4DB"/>
<path d="M9.41195 20.7232C8.78845 20.7232 8.28125 21.2304 8.28125 21.8539C8.28125 22.4774 8.78845 22.9846 9.41195 22.9846C10.0354 22.9846 10.5426 22.4774 10.5426 21.8539C10.5426 21.2305 10.0354 20.7232 9.41195 20.7232ZM9.41195 22.6799C8.95644 22.6799 8.58594 22.3094 8.58594 21.8539C8.58594 21.3985 8.95644 21.0279 9.41195 21.0279C9.86735 21.0279 10.238 21.3984 10.238 21.8539C10.238 22.3094 9.86745 22.6799 9.41195 22.6799Z" fill="#3A312A"/>
<path d="M14.2964 22.6904C14.7562 22.4062 14.8985 21.8031 14.6143 21.3432C14.3301 20.8834 13.727 20.7411 13.2671 21.0253C12.8073 21.3095 12.665 21.9127 12.9492 22.3725C13.2334 22.8323 13.8366 22.9747 14.2964 22.6904Z" fill="#89C4DB"/>
<path d="M13.7703 20.7232C13.1469 20.7232 12.6396 21.2304 12.6396 21.8539C12.6396 22.4774 13.1469 22.9846 13.7703 22.9846C14.3938 22.9846 14.901 22.4774 14.901 21.8539C14.9011 21.2305 14.3939 20.7232 13.7703 20.7232ZM13.7703 22.6799C13.3148 22.6799 12.9443 22.3094 12.9443 21.8539C12.9443 21.3985 13.3148 21.0279 13.7703 21.0279C14.2259 21.0279 14.5964 21.3984 14.5964 21.8539C14.5965 22.3094 14.2259 22.6799 13.7703 22.6799Z" fill="#3A312A"/>
<path d="M18.8163 22.5452C19.1983 22.1632 19.1983 21.5439 18.8163 21.1618C18.4343 20.7798 17.8149 20.7798 17.4329 21.1618C17.0509 21.5439 17.0509 22.1632 17.4329 22.5452C17.8149 22.9272 18.4343 22.9272 18.8163 22.5452Z" fill="#89C4DB"/>
<path d="M18.1287 20.7232C17.5053 20.7232 16.998 21.2304 16.998 21.8539C16.998 22.4774 17.5053 22.9846 18.1287 22.9846C18.7522 22.9846 19.2594 22.4774 19.2594 21.8539C19.2595 21.2305 18.7523 20.7232 18.1287 20.7232ZM18.1287 22.6799C17.6732 22.6799 17.3027 22.3094 17.3027 21.8539C17.3027 21.3985 17.6732 21.0279 18.1287 21.0279C18.5843 21.0279 18.9548 21.3984 18.9548 21.8539C18.9549 22.3094 18.5843 22.6799 18.1287 22.6799Z" fill="#3A312A"/>
<path d="M8.26562 11.3618C8.18143 11.3618 8.11328 11.4299 8.11328 11.5141V19.3345C8.11328 19.4186 8.18143 19.4868 8.26562 19.4868C8.34982 19.4868 8.41797 19.4186 8.41797 19.3345V11.5141C8.41797 11.4299 8.34972 11.3618 8.26562 11.3618Z" fill="#3A312A"/>
<path d="M14.918 11.3618C14.8338 11.3618 14.7656 11.4299 14.7656 11.5141V19.3345C14.7656 19.4186 14.8338 19.4868 14.918 19.4868C15.0022 19.4868 15.0703 19.4186 15.0703 19.3345V11.5141C15.0703 11.4299 15.0021 11.3618 14.918 11.3618Z" fill="#3A312A"/>
<path d="M19.502 6.68992H17.9785C18.4863 6.68992 18.8997 7.10328 18.8997 7.61109V11.3679H20.4231V7.61109C20.4231 7.10328 20.0098 6.68992 19.502 6.68992Z" fill="#695B51"/>
<path d="M18.8997 19.4807V21.0275C19.1211 21.2347 19.2592 21.5282 19.2592 21.8542C19.2592 22.1802 19.1211 22.4738 18.8997 22.6809V23.2365C18.8997 23.7453 18.4863 24.1587 17.9785 24.1587H19.502C20.0098 24.1587 20.4231 23.7453 20.4231 23.2365V19.4807H18.8997Z" fill="#695B51"/>
<path d="M20.4463 11.6726H18.9229C19.4307 11.6726 19.845 12.0859 19.845 12.5948V12.9909H20.3011C20.3854 12.9909 20.4534 13.0589 20.4534 13.1432V14.0563C20.4534 14.0989 20.4351 14.1405 20.4036 14.169C20.1975 14.3559 20.0106 14.5539 19.845 14.7611V18.2538C19.845 18.7616 19.4307 19.176 18.9229 19.176H20.4463C20.9541 19.176 21.3685 18.7616 21.3685 18.2538V12.5948C21.3685 12.0859 20.9541 11.6726 20.4463 11.6726Z" fill="#DDC9AC"/>
</svg>
