<svg width="163" height="66" viewBox="0 0 163 66" fill="none" xmlns="http://www.w3.org/2000/svg">
<path d="M84.641 13H83.482V53H84.641V45.2946H99.309V40.6298H88.023V35.2663H97.675V30.5637H88.023V25.3702H99.309V20.6676H84.641V13ZM38.984 35.7762L34.823 29.0718L29.484 20.762L29.427 20.6865H25V45.2946H29.921V30.1671L33.588 36.0595L39.478 45.2946H43.943V20.6865H39.003V35.7762H38.984ZM46.698 45.2946H62.924V40.6298H51.638V35.2663H61.29V30.5637H51.638V25.3702H62.924V20.6676H46.698V45.2946ZM64.919 25.4268H70.6V45.3135H75.54V25.4268H81.183V20.6865H64.919V25.4268ZM115.782 35.814L111.621 29.1095L106.282 20.7998L106.225 20.7054H101.798V45.3135H106.7V30.186L110.367 36.0784L116.257 45.3135H120.722V20.7243H115.782V35.814ZM122.736 20.7243V25.4646H128.417V45.3513H133.357V25.4646H139V20.7243H122.736Z" fill="white"/>
<rect x="1" y="1" width="161" height="64" rx="2" stroke="#8E98AC" stroke-width="2"/>
</svg>
