<svg width="37" height="38" viewBox="0 0 37 38" fill="none" xmlns="http://www.w3.org/2000/svg">
<g clip-path="url(#clip0)">
<path d="M26.208 14.2515H10.7923C10.3668 14.2515 10.0215 14.6061 10.0215 15.0431V27.709C10.0215 29.6215 11.3473 31.219 13.1046 31.5879V35.6251C13.1046 36.9345 14.1421 38 15.417 38C16.6919 38 17.7293 36.9345 17.7293 35.6251V31.6671H19.2709V35.6251C19.2709 36.9345 20.3083 38 21.5832 38C22.8581 38 23.8956 36.9345 23.8956 35.6251V31.5879C25.653 31.2206 26.9787 29.6215 26.9787 27.709V15.0431C26.9787 14.6046 26.6335 14.2515 26.208 14.2515Z" fill="#A6BF4F"/>
<path d="M22.5343 4.21873L23.8339 1.10449C24.0019 0.702326 23.82 0.23849 23.4284 0.0658686C23.0414 -0.108311 22.5836 0.0785592 22.4171 0.482282L21.1176 3.59808C20.2929 3.32259 19.4142 3.16905 18.5015 3.16905C17.5889 3.16905 16.7102 3.32259 15.8855 3.59808L14.583 0.482282C14.4165 0.0785592 13.9586 -0.10987 13.5717 0.0658686C13.1801 0.238416 12.9997 0.703885 13.1678 1.10449L14.4673 4.21873C11.8205 5.69432 10.0215 8.57419 10.0215 11.8768C10.0215 12.3137 10.3668 12.6684 10.7923 12.6684H26.2079C26.6334 12.6684 26.9787 12.3137 26.9787 11.8768C26.9787 8.57419 25.1796 5.69432 22.5343 4.21873ZM15.4169 9.50193C14.9914 9.50193 14.6461 9.14726 14.6461 8.71029C14.6461 8.27332 14.9914 7.91865 15.4169 7.91865C15.8424 7.91865 16.1877 8.27332 16.1877 8.71029C16.1877 9.14726 15.8424 9.50193 15.4169 9.50193ZM21.5832 9.50193C21.1577 9.50193 20.8124 9.14726 20.8124 8.71029C20.8124 8.27332 21.1577 7.91865 21.5832 7.91865C22.0087 7.91865 22.354 8.27332 22.354 8.71029C22.354 9.14726 22.0087 9.50193 21.5832 9.50193Z" fill="#A6BF4F"/>
<path d="M30.8319 14.2515C29.557 14.2515 28.5195 15.317 28.5195 16.6263V24.5425C28.5195 25.8518 29.557 26.9173 30.8319 26.9173C32.1068 26.9173 33.1442 25.8518 33.1442 24.5425V16.6263C33.1442 15.317 32.1068 14.2515 30.8319 14.2515Z" fill="#A6BF4F"/>
<path d="M6.16684 14.2515C4.89194 14.2515 3.85449 15.317 3.85449 16.6263V24.5425C3.85449 25.8518 4.89194 26.9173 6.16684 26.9173C7.44174 26.9173 8.47919 25.8518 8.47919 24.5425V16.6263C8.47919 15.317 7.44174 14.2515 6.16684 14.2515Z" fill="#A6BF4F"/>
</g>
<defs>
<clipPath id="clip0">
<rect width="37" height="38" fill="white"/>
</clipPath>
</defs>
</svg>
