<svg width="29" height="35" viewBox="0 0 29 35" fill="none" xmlns="http://www.w3.org/2000/svg">
<path d="M9.66437 34.9999C4.45531 34.9699 0.146484 24.3365 0.146484 18.9211C0.146484 10.0752 6.78247 8.13854 9.33993 8.13854C10.4925 8.13854 11.7231 8.59114 12.8086 8.99166C13.5677 9.27104 14.3527 9.55945 14.7893 9.55945C15.0507 9.55945 15.6665 9.31411 16.2103 9.09885C17.3698 8.63722 18.8128 8.06348 20.493 8.06348C20.496 8.06348 20.5001 8.06348 20.503 8.06348C21.7577 8.06348 25.5619 8.33883 27.849 11.7735L28.3847 12.5785L27.6137 13.1604C26.5122 13.9915 24.5025 15.5075 24.5025 18.5106C24.5025 22.0674 26.7785 23.4353 27.872 24.0932C28.3547 24.3836 28.8543 24.683 28.8543 25.3379C28.8543 25.7655 25.4417 34.9469 20.486 34.9469C19.2734 34.9469 18.4162 34.5824 17.6602 34.261C16.8951 33.9355 16.2352 33.6552 15.1447 33.6552C14.592 33.6552 13.893 33.9165 13.153 34.1939C12.1418 34.5713 10.9972 34.9999 9.69841 34.9999H9.66437Z" fill="white"/>
<path d="M21.0178 0C21.1469 4.65363 17.8188 7.88211 14.4946 7.67963C13.9468 3.96587 17.8184 0 21.0178 0Z" fill="white"/>
</svg>
