<svg width="56" height="56" viewBox="0 0 56 56" fill="none" xmlns="http://www.w3.org/2000/svg">
<path d="M10.3687 5.75464C10.1557 8.28426 7.51953 8.68348 7.51953 8.68348C9.78294 8.79023 10.3471 11.7591 10.3471 11.7591C10.3954 9.64226 13.2611 8.65242 13.2611 8.65242C11.1145 8.52401 10.3687 5.75464 10.3687 5.75464Z" fill="#D5DE58"/>
<path d="M13.2801 8.3248C11.398 8.21236 10.6921 5.69455 10.6851 5.66917C10.6433 5.51539 10.4969 5.41411 10.3388 5.42833C10.1802 5.44277 10.0549 5.56877 10.0415 5.72736C9.85338 7.96189 7.56679 8.34427 7.47032 8.35936C7.30342 8.38452 7.1831 8.53217 7.19185 8.70083C7.2006 8.86927 7.33557 9.00358 7.50423 9.01167C9.4791 9.10464 10.0196 11.794 10.0247 11.8211C10.0546 11.9766 10.1907 12.0873 10.3467 12.0873C10.3559 12.0873 10.365 12.0871 10.3742 12.0862C10.5414 12.0722 10.6711 11.9346 10.675 11.7668C10.7174 9.90549 13.3418 8.97186 13.3685 8.96267C13.5161 8.91127 13.6074 8.76252 13.5859 8.60764C13.564 8.45255 13.4363 8.3342 13.2801 8.3248ZM10.3128 10.588C10.0159 9.90308 9.50142 9.07686 8.6531 8.64614C9.29426 8.33902 10.0551 7.79017 10.4473 6.83642C10.7866 7.5082 11.3658 8.34142 12.2704 8.74436C11.6124 9.10333 10.7559 9.70817 10.3128 10.588Z" fill="#3A312A"/>
<path d="M5.62255 9.46924C5.47183 11.2584 3.60742 11.5408 3.60742 11.5408C5.20823 11.6161 5.60723 13.7161 5.60723 13.7161C5.64136 12.2187 7.66829 11.5187 7.66829 11.5187C6.14973 11.4279 5.62255 9.46924 5.62255 9.46924Z" fill="#D5DE58"/>
<path d="M7.6868 11.1912C6.42549 11.1157 5.94293 9.40071 5.93811 9.38343C5.89655 9.22987 5.75218 9.12858 5.59205 9.14237C5.43324 9.15658 5.30789 9.2828 5.29455 9.44162C5.16789 10.9444 3.62199 11.2061 3.55724 11.2163C3.39033 11.2415 3.27002 11.3891 3.27877 11.5576C3.28752 11.726 3.42249 11.8603 3.59092 11.8684C4.9113 11.9306 5.28055 13.7593 5.28383 13.7772C5.31336 13.9332 5.44986 14.0441 5.60583 14.0441C5.61502 14.0441 5.62399 14.0439 5.63318 14.043C5.80052 14.029 5.93024 13.8912 5.93418 13.7234C5.96261 12.4746 7.7568 11.8347 7.77452 11.8286C7.92261 11.7774 8.01383 11.6289 7.9924 11.4738C7.97096 11.3189 7.84321 11.2006 7.6868 11.1912ZM5.5903 12.6776C5.38818 12.265 5.07843 11.8142 4.61752 11.5226C5.0233 11.2949 5.42624 10.9475 5.68305 10.4472C5.91427 10.8569 6.26361 11.3124 6.76389 11.59C6.35921 11.8306 5.8913 12.1893 5.5903 12.6776Z" fill="#3A312A"/>
<path d="M5.62255 3.6377C5.47183 5.42685 3.60742 5.70948 3.60742 5.70948C5.20823 5.78473 5.60723 7.88472 5.60723 7.88472C5.64136 6.3876 7.66829 5.68738 7.66829 5.68738C6.14973 5.59638 5.62255 3.6377 5.62255 3.6377Z" fill="#D5DE58"/>
<path d="M7.6878 5.35985C6.42627 5.28439 5.9437 3.56938 5.93911 3.55188C5.89755 3.39832 5.75317 3.29704 5.59305 3.31082C5.43423 3.32504 5.30889 3.45126 5.29555 3.61007C5.16889 5.1131 3.62298 5.37473 3.55823 5.38501C3.39133 5.41017 3.2708 5.55782 3.27977 5.72648C3.28852 5.89492 3.42349 6.02923 3.59214 6.03732C4.9123 6.09945 5.28155 7.9282 5.28505 7.94614C5.31458 8.10211 5.45108 8.21301 5.60705 8.21301C5.61623 8.21301 5.6252 8.21257 5.63439 8.21192C5.80173 8.19814 5.93145 8.0601 5.93539 7.89232C5.96383 6.64326 7.7578 6.00364 7.77573 5.99751C7.92361 5.94632 8.01505 5.79779 7.99361 5.6427C7.97173 5.48782 7.84398 5.36926 7.6878 5.35985ZM5.59108 6.84626C5.38895 6.43392 5.0792 5.98285 4.6183 5.69126C5.0243 5.46354 5.42702 5.11595 5.68383 4.61589C5.91505 5.02582 6.26461 5.48082 6.76467 5.75864C6.35998 5.99948 5.89208 6.35801 5.59108 6.84626Z" fill="#3A312A"/>
<path d="M3.60742 32.5443C3.60742 40.6512 10.1787 47.2246 18.2877 47.2246H18.4846V43.9106C12.3946 43.694 7.52523 38.6868 7.52523 32.5443C7.52523 26.4018 12.3946 21.3946 18.4846 21.1781V17.864H18.2877C10.1787 17.864 3.60742 24.4375 3.60742 32.5443ZM48.0924 22.1646C45.4368 19.5068 41.7662 17.864 37.7127 17.864H37.5159V21.1781C40.493 21.2831 43.1771 22.5343 45.1437 24.5009C47.2021 26.5593 48.4752 29.4031 48.4752 32.5443C48.4752 38.6868 43.6059 43.694 37.5159 43.9106V47.2246H37.7127C45.8196 47.2246 52.393 40.6512 52.393 32.5443C52.393 28.4909 50.7502 24.8203 48.0924 22.1646Z" fill="#F16C7A"/>
<path d="M18.4846 17.5359H18.2877C10.012 17.5359 3.2793 24.2686 3.2793 32.5443C3.2793 40.8201 10.012 47.5528 18.2877 47.5528H18.4846C18.666 47.5528 18.8127 47.406 18.8127 47.2246V43.9106C18.8127 43.7338 18.6727 43.589 18.4962 43.5827C12.5283 43.3705 7.85336 38.5219 7.85336 32.5443C7.85336 26.567 12.5283 21.7182 18.4962 21.506C18.6727 21.4996 18.8127 21.3548 18.8127 21.1781V17.864C18.8127 17.6827 18.6657 17.5359 18.4846 17.5359ZM18.1565 20.8655C11.9853 21.2472 7.19711 26.3176 7.19711 32.5443C7.19711 38.771 11.9853 43.8417 18.1565 44.2232V46.8961C10.3031 46.8252 3.93555 40.4143 3.93555 32.5445C3.93555 24.6748 10.3029 18.2637 18.1565 18.1928V20.8655ZM48.3245 21.9328C45.4917 19.0973 41.7231 17.5359 37.7127 17.5359H37.5159C37.3345 17.5359 37.1877 17.6827 37.1877 17.864V21.1781C37.1877 21.3548 37.3277 21.4999 37.5043 21.506C40.2986 21.6046 42.9293 22.7507 44.9116 24.7328C46.998 26.8192 48.1471 29.5934 48.1471 32.5441C48.1471 38.5217 43.4722 43.3703 37.5043 43.5824C37.3277 43.5888 37.1877 43.7336 37.1877 43.9104V47.2244C37.1877 47.4058 37.3345 47.5525 37.5159 47.5525H37.7127C45.9883 47.5525 52.7212 40.8199 52.7212 32.5441C52.7212 28.534 51.1595 24.7654 48.3245 21.9328ZM37.844 46.8959V44.223C44.0151 43.8415 48.8034 38.771 48.8034 32.5441C48.8034 29.4179 47.586 26.479 45.3758 24.2686C43.3508 22.2434 40.6866 21.0422 37.844 20.8653V18.1926C41.6297 18.2263 45.1824 19.7162 47.8603 22.3965C47.8603 22.3965 47.8603 22.3967 47.8605 22.3967C50.5717 25.1057 52.0649 28.7094 52.0649 32.5443C52.0649 40.4141 45.6973 46.825 37.844 46.8959Z" fill="#3A312A"/>
<path d="M12.0312 41.2834C11.8499 41.2834 11.7031 41.4302 11.7031 41.6116V45.8269C11.7031 46.0082 11.8499 46.155 12.0312 46.155C12.2126 46.155 12.3594 46.0082 12.3594 45.8269V41.6116C12.3594 41.4302 12.2124 41.2834 12.0312 41.2834Z" fill="#3A312A"/>
<path d="M12.0312 18.9336C11.8499 18.9336 11.7031 19.0804 11.7031 19.2617V23.477C11.7031 23.6584 11.8499 23.8052 12.0312 23.8052C12.2126 23.8052 12.3594 23.6584 12.3594 23.477V19.2617C12.3594 19.0804 12.2124 18.9336 12.0312 18.9336Z" fill="#3A312A"/>
<path d="M43.9688 41.2834C43.7874 41.2834 43.6406 41.4302 43.6406 41.6116V45.8269C43.6406 46.0082 43.7874 46.155 43.9688 46.155C44.1501 46.155 44.2969 46.0082 44.2969 45.8269V41.6116C44.2969 41.4302 44.1499 41.2834 43.9688 41.2834Z" fill="#3A312A"/>
<path d="M43.9688 18.9336C43.7874 18.9336 43.6406 19.0804 43.6406 19.2617V23.477C43.6406 23.6584 43.7874 23.8052 43.9688 23.8052C44.1501 23.8052 44.2969 23.6584 44.2969 23.477V19.2617C44.2969 19.0804 44.1499 18.9336 43.9688 18.9336Z" fill="#3A312A"/>
<path d="M7.52719 32.4348H3.60938C3.42803 32.4348 3.28125 32.5816 3.28125 32.7629C3.28125 32.9443 3.42803 33.0911 3.60938 33.0911H7.52719C7.70853 33.0911 7.85531 32.9443 7.85531 32.7629C7.85531 32.5816 7.70831 32.4348 7.52719 32.4348Z" fill="#3A312A"/>
<path d="M52.3905 32.4348H48.4727C48.2913 32.4348 48.1445 32.5816 48.1445 32.7629C48.1445 32.9443 48.2913 33.0911 48.4727 33.0911H52.3905C52.5718 33.0911 52.7186 32.9443 52.7186 32.7629C52.7186 32.5816 52.5716 32.4348 52.3905 32.4348Z" fill="#3A312A"/>
<path d="M31.722 20.3662H29.7001V19.0522C29.1408 19.4398 28.5622 19.6686 28.0007 19.6686C27.4621 19.6686 26.8936 19.4376 26.3366 19.0452H26.3023V20.3662H24.2791C22.5888 20.3662 21.2188 21.7362 21.2188 23.4265V26.1998H34.7823V23.4265C34.7823 21.7362 33.4123 20.3662 31.722 20.3662Z" fill="#F8E4C8"/>
<path d="M31.722 20.0381H30.0282V19.0522C30.0282 18.9301 29.9604 18.8181 29.8524 18.7614C29.7443 18.705 29.6137 18.7129 29.5133 18.7824C28.9791 19.1528 28.4703 19.3405 28.0007 19.3405C27.5527 19.3405 27.0565 19.1508 26.5256 18.777C26.4703 18.738 26.4042 18.717 26.3366 18.717H26.3023C26.1209 18.717 25.9742 18.8638 25.9742 19.0452V20.0381H24.2791C22.4107 20.0381 20.8906 21.5582 20.8906 23.4265V26.1998C20.8906 26.3812 21.0374 26.5279 21.2187 26.5279H34.7823C34.9637 26.5279 35.1105 26.3812 35.1105 26.1998V23.4265C35.1105 21.5582 33.5904 20.0381 31.722 20.0381ZM34.4542 25.8717H21.5469V23.4265C21.5469 21.92 22.7725 20.6943 24.2791 20.6943H26.3023C26.4836 20.6943 26.6304 20.5475 26.6304 20.3662V19.6137C27.5822 20.1258 28.4417 20.1129 29.372 19.6334V20.3662C29.372 20.5475 29.5188 20.6943 29.7001 20.6943H31.722C33.2286 20.6943 34.4542 21.92 34.4542 23.4265V25.8717Z" fill="#3A312A"/>
<path d="M31.7213 20.3657H31.177L31.1882 20.3738L29.0855 23.164L28.0001 22.3456L26.9147 23.164L24.8121 20.3738L24.8232 20.3657H24.279C22.5885 20.3657 21.2178 21.7364 21.2178 23.4269V26.1998H34.7822V23.4269C34.7822 21.7364 33.4115 20.3657 31.7213 20.3657Z" fill="#8AC6DD"/>
<path d="M31.722 20.0376H31.1778C31.0494 20.0376 30.9387 20.1157 30.886 20.2305L29.0218 22.7044L28.1984 22.0836C28.0816 21.9954 27.9204 21.9954 27.8033 22.0836L26.9802 22.7044L25.1318 20.2518C25.0843 20.1236 24.9618 20.0376 24.8242 20.0376H24.2799C22.4112 20.0376 20.8906 21.5581 20.8906 23.4269V26.1996C20.8906 26.3809 21.0374 26.5277 21.2188 26.5277H34.7832C34.9646 26.5277 35.1113 26.3809 35.1113 26.1996V23.4269C35.1111 21.5579 33.5908 20.0376 31.722 20.0376ZM34.4549 25.8714H21.5467V23.4269C21.5467 21.9199 22.7725 20.6938 24.2797 20.6938H24.6431L26.6534 23.3615C26.7057 23.4311 26.7835 23.4768 26.8697 23.489C26.9555 23.5008 27.0434 23.4785 27.113 23.426L28.0007 22.7564L28.8886 23.426C28.9579 23.4783 29.045 23.5006 29.1316 23.489C29.2178 23.477 29.2957 23.4311 29.3479 23.3615L31.3585 20.6938H31.7218C33.2288 20.6938 34.4549 21.9199 34.4549 23.4269V25.8714Z" fill="#3A312A"/>
<path d="M23.6973 23.6802C23.5159 23.6802 23.3691 23.827 23.3691 24.0083V26.2004C23.3691 26.3817 23.5159 26.5285 23.6973 26.5285C23.8786 26.5285 24.0254 26.3817 24.0254 26.2004V24.0083C24.0254 23.827 23.8786 23.6802 23.6973 23.6802Z" fill="#3A312A"/>
<path d="M32.3037 23.6802C32.1224 23.6802 31.9756 23.827 31.9756 24.0083V26.2004C31.9756 26.3817 32.1224 26.5285 32.3037 26.5285C32.4851 26.5285 32.6318 26.3817 32.6318 26.2004V24.0083C32.6318 23.827 32.4851 23.6802 32.3037 23.6802Z" fill="#3A312A"/>
<path d="M28.5217 24.1501H27.4794L27.1631 26.2005H28.838L28.5217 24.1501Z" fill="#F16C7A"/>
<path d="M29.1622 26.1504L28.8458 24.1003C28.8211 23.9404 28.6835 23.8223 28.5217 23.8223H27.4793C27.3174 23.8223 27.1796 23.9404 27.1551 24.1003L26.8388 26.1504C26.8242 26.2451 26.8517 26.3414 26.9141 26.414C26.9764 26.4866 27.0674 26.5284 27.1632 26.5284H28.8382C28.934 26.5284 29.025 26.4866 29.0873 26.414C29.1492 26.3412 29.1766 26.2451 29.1622 26.1504ZM27.5454 25.8722L27.7604 24.4783H28.2401L28.4552 25.8722H27.5454Z" fill="#3A312A"/>
<path d="M27.124 22.3447L27.4764 24.1499H28.5166L28.8773 22.3447H27.124Z" fill="#F16C7A"/>
<path d="M29.131 22.1365C29.0687 22.0605 28.9755 22.0164 28.8773 22.0164H27.124C27.026 22.0164 26.933 22.0601 26.8707 22.1358C26.8083 22.2115 26.7832 22.311 26.802 22.4073L27.1544 24.2124C27.1844 24.3664 27.3193 24.4775 27.4764 24.4775H28.5166C28.673 24.4775 28.8077 24.367 28.8383 24.2137L29.1991 22.4086C29.2183 22.3125 29.1934 22.2126 29.131 22.1365ZM28.2475 23.8217H27.7466L27.5223 22.6728H28.477L28.2475 23.8217Z" fill="#3A312A"/>
<path d="M24.8252 20.3787L25.9157 19.5571L28.0187 22.3483L26.9282 23.1699L24.8252 20.3787Z" fill="#8AC6DD"/>
<path d="M28.2669 22.145L26.1645 19.3553C26.0553 19.2105 25.8499 19.1816 25.7049 19.2908L24.6151 20.1122C24.5455 20.1645 24.4998 20.2423 24.4875 20.3285C24.4755 20.4147 24.498 20.502 24.5505 20.5716L26.6532 23.3613C26.7055 23.4308 26.7833 23.4766 26.8695 23.4888C26.8846 23.491 26.8999 23.4921 26.915 23.4921C26.9859 23.4921 27.0552 23.4691 27.1125 23.426L28.2024 22.6046C28.347 22.4955 28.3758 22.2898 28.2669 22.145ZM26.9795 22.7046L25.272 20.4388L25.8379 20.0124L27.5455 22.2783L26.9795 22.7046Z" fill="#3A312A"/>
<path d="M28.0078 22.3347L30.1107 19.5436L31.2012 20.3652L29.0983 23.1563L28.0078 22.3347Z" fill="#8AC6DD"/>
<path d="M31.5133 20.3285C31.5012 20.2423 31.4553 20.1645 31.386 20.1122L30.2961 19.2908C30.1513 19.1816 29.9457 19.2105 29.8366 19.3553L27.7341 22.145C27.625 22.2898 27.6539 22.4955 27.7987 22.6046L28.8885 23.426C28.9458 23.4691 29.0151 23.4921 29.086 23.4921C29.1011 23.4921 29.1164 23.491 29.1315 23.4888C29.2177 23.4768 29.2956 23.4308 29.3479 23.3613L31.4505 20.5716C31.503 20.5022 31.5255 20.4147 31.5133 20.3285ZM29.0215 22.7046L28.4556 22.2783L30.1631 20.0124L30.7291 20.4388L29.0215 22.7046Z" fill="#3A312A"/>
<path fill-rule="evenodd" clip-rule="evenodd" d="M22.7452 11.5757C22.0802 11.5757 21.541 12.1149 21.541 12.7799C21.541 13.4449 22.0802 13.9841 22.7452 13.9841C23.4102 13.9841 23.9495 13.4449 23.9495 12.7799C23.9495 12.1149 23.4102 11.5757 22.7452 11.5757Z" fill="#F8E4C8"/>
<path d="M22.7452 11.2476C21.9004 11.2476 21.2129 11.9351 21.2129 12.7799C21.2129 13.6247 21.9004 14.3122 22.7452 14.3122C23.59 14.3122 24.2776 13.6247 24.2776 12.7799C24.2776 11.9351 23.59 11.2476 22.7452 11.2476ZM22.7452 13.656C22.2622 13.656 21.8691 13.2631 21.8691 12.7799C21.8691 12.2967 22.262 11.9038 22.7452 11.9038C23.2285 11.9038 23.6213 12.2967 23.6213 12.7799C23.6213 13.2631 23.2282 13.656 22.7452 13.656Z" fill="#3A312A"/>
<path fill-rule="evenodd" clip-rule="evenodd" d="M33.256 11.5757C32.591 11.5757 32.0518 12.1149 32.0518 12.7799C32.0518 13.4449 32.591 13.9841 33.256 13.9841C33.921 13.9841 34.4602 13.4449 34.4602 12.7799C34.4602 12.1149 33.921 11.5757 33.256 11.5757Z" fill="#F8E4C8"/>
<path d="M33.256 11.2476C32.4112 11.2476 31.7236 11.9351 31.7236 12.7799C31.7236 13.6247 32.4112 14.3122 33.256 14.3122C34.101 14.3122 34.7883 13.6247 34.7883 12.7799C34.7883 11.9351 34.101 11.2476 33.256 11.2476ZM33.256 13.656C32.7728 13.656 32.3799 13.2631 32.3799 12.7799C32.3799 12.2967 32.7728 11.9038 33.256 11.9038C33.739 11.9038 34.1321 12.2967 34.1321 12.7799C34.1321 13.2631 33.7392 13.656 33.256 13.656Z" fill="#3A312A"/>
<path d="M33.5873 9.36177C33.5873 7.9423 33.0015 6.65386 32.0482 5.70361C32.106 5.86921 32.1366 6.03655 32.1366 6.20214C32.1366 6.76258 31.7507 7.27424 31.1152 7.66208C31.2471 7.88149 31.4116 8.08252 31.6046 8.25905C32.5712 9.14236 33.2098 10.377 33.3215 11.7599C33.3358 11.7407 33.3673 11.7304 33.3915 11.7214C33.6197 11.6381 33.5873 9.54465 33.5873 9.36177Z" fill="#87796F"/>
<path d="M33.9158 9.42531L33.9154 9.36187C33.9154 7.90434 33.3344 6.52271 32.2798 5.47118C32.1713 5.36312 32.0029 5.34452 31.8734 5.4259C31.7439 5.50727 31.6879 5.66762 31.7384 5.81199C31.7848 5.94456 31.8084 6.07581 31.8084 6.20202C31.8084 6.6229 31.5015 7.04181 30.9443 7.38196C30.7903 7.47602 30.7411 7.67662 30.8341 7.83127C30.9826 8.07824 31.1673 8.30377 31.3832 8.50131C32.3203 9.35749 32.8925 10.5241 32.9943 11.7863C33.0052 11.9226 33.0997 12.0378 33.2312 12.0755C33.2609 12.084 33.2913 12.0882 33.3213 12.0882C33.39 12.0882 33.4573 12.0665 33.5129 12.0265C33.7398 11.9433 33.9333 11.8405 33.9158 9.42531ZM33.2585 10.0776C32.9453 9.29996 32.4594 8.59603 31.8261 8.01743C31.7345 7.93343 31.65 7.84331 31.5735 7.74749C32.0018 7.4244 32.2851 7.04377 32.4028 6.63624C32.9597 7.43993 33.2594 8.38187 33.2594 9.36187L33.2598 9.43012C33.2613 9.67271 33.2607 9.88753 33.2585 10.0776Z" fill="#3A312A"/>
<path d="M31.604 8.25833C31.411 8.08267 31.2465 7.88164 31.1146 7.66333C30.3715 8.11811 29.285 8.40555 28.0749 8.40555C27.7876 8.40555 27.5074 8.38936 27.2362 8.35786C25.2908 8.13649 23.4258 9.29696 22.8093 11.1561C22.7494 11.3348 22.7078 11.5063 22.6886 11.6658C22.6855 11.6881 22.6835 11.7104 22.6814 11.7327C22.6691 11.885 22.6621 12.0394 22.6621 12.1958C22.6621 15.1433 25.6146 19.6694 28.0007 19.6694C30.4995 19.6694 33.3382 15.1433 33.3382 12.1958C33.338 10.6361 32.6699 9.23396 31.604 8.25833Z" fill="#F8E4C8"/>
<path d="M31.8249 8.01559C31.6569 7.86268 31.5125 7.68724 31.3955 7.49365C31.3504 7.41884 31.2774 7.36524 31.1923 7.34446C31.1074 7.3239 31.0179 7.3379 30.9433 7.3834C30.2228 7.8244 29.1771 8.07727 28.0749 8.07727C27.8038 8.07727 27.5343 8.06196 27.2731 8.03177C25.167 7.79115 23.1578 9.06231 22.4983 11.0516C22.4298 11.2561 22.3843 11.4495 22.3635 11.6206C22.3596 11.6479 22.3572 11.6755 22.3543 11.7066C22.3405 11.8772 22.334 12.0373 22.334 12.1957C22.334 15.2761 25.3733 19.9974 28.0005 19.9974C30.6817 19.9974 33.6661 15.347 33.6661 12.1957C33.6663 10.6102 32.9954 9.08681 31.8249 8.01559ZM28.0007 19.3411C25.7894 19.3411 22.9905 14.9108 22.9905 12.1957C22.9905 12.0548 22.9964 11.912 23.0084 11.7623C23.0099 11.7451 23.0115 11.728 23.0145 11.705C23.0305 11.5722 23.0661 11.4226 23.121 11.2592C23.638 9.69996 25.1276 8.65893 26.7619 8.65893C26.9065 8.65893 27.0522 8.66702 27.1985 8.68365C27.4838 8.71668 27.7787 8.73352 28.0749 8.73352C29.1651 8.73352 30.2158 8.5034 31.0127 8.09609C31.1231 8.24156 31.247 8.37696 31.3826 8.50034C32.4168 9.44709 33.0101 10.7939 33.0101 12.1957C33.0101 14.9521 30.2748 19.3411 28.0007 19.3411Z" fill="#3A312A"/>
<path d="M26.1158 11.6138C25.8281 11.6138 25.5947 11.8472 25.5947 12.1348C25.5947 12.4225 25.8279 12.6559 26.1158 12.6559C26.4037 12.6559 26.6369 12.4227 26.6369 12.1348C26.6369 11.847 26.4034 11.6138 26.1158 11.6138Z" fill="#3A312A"/>
<path d="M29.8853 11.6138C29.5977 11.6138 29.3643 11.8472 29.3643 12.1348C29.3643 12.4225 29.5974 12.6559 29.8853 12.6559C30.1732 12.6559 30.4064 12.4227 30.4064 12.1348C30.4064 11.847 30.1732 11.6138 29.8853 11.6138Z" fill="#3A312A"/>
<path d="M25.0743 13.0129C24.5786 13.0129 24.1768 13.3133 24.1768 13.6838C24.1768 14.0544 24.5786 14.355 25.0743 14.355C25.57 14.355 25.9718 14.0546 25.9718 13.6838C25.9718 13.3133 25.57 13.0129 25.0743 13.0129Z" fill="#F59689"/>
<path d="M30.9268 13.0129C30.4311 13.0129 30.0293 13.3133 30.0293 13.6838C30.0293 14.0544 30.4311 14.355 30.9268 14.355C31.4225 14.355 31.8244 14.0546 31.8244 13.6838C31.8244 13.3133 31.4225 13.0129 30.9268 13.0129Z" fill="#F59689"/>
<path d="M29.5907 15.2997C29.4214 15.2363 29.232 15.322 29.1683 15.4918C29.0622 15.7753 28.6634 16.197 28.0006 16.197C27.4338 16.197 27.0591 15.9647 26.8218 15.466C26.7441 15.3023 26.5483 15.233 26.3845 15.3107C26.2209 15.3885 26.1513 15.5843 26.2292 15.7479C26.5783 16.4812 27.1742 16.8533 28.0006 16.8533C28.934 16.8533 29.5789 16.2668 29.783 15.7221C29.8464 15.5526 29.7604 15.3634 29.5907 15.2997Z" fill="#3A312A"/>
<path d="M28.5054 3.55963C26.6998 3.44675 25.1025 4.28172 24.3214 5.03641C23.1425 6.00503 22.5361 7.75875 22.5361 9.36153C22.5361 9.65444 22.5878 11.3207 22.6814 11.733C22.6967 11.5549 22.742 11.3605 22.8096 11.1557C23.4254 9.29722 25.2911 8.13631 27.2364 8.35791C27.5068 8.38875 27.7872 8.40494 28.0747 8.40494C30.3175 8.40494 32.1358 7.41881 32.1358 6.20234C32.1355 4.98588 30.4743 3.68278 28.5054 3.55963Z" fill="#87796F"/>
<path d="M28.5259 3.23215C26.7079 3.11818 24.9984 3.93193 24.1028 4.79118C22.9336 5.75828 22.208 7.50784 22.208 9.36131C22.208 9.57481 22.255 11.3375 22.3614 11.8052C22.3955 11.9555 22.5291 12.0607 22.6812 12.0607C22.6888 12.0607 22.6963 12.0605 22.7039 12.06C22.8654 12.0489 22.9944 11.9218 23.0084 11.7608C23.0209 11.616 23.0587 11.4471 23.1213 11.2587C23.6837 9.56146 25.3976 8.47953 27.1994 8.68384C27.4849 8.71643 27.7793 8.73306 28.0749 8.73306C30.536 8.73306 32.4639 7.62137 32.4639 6.20234C32.4637 4.75115 30.6235 3.36318 28.5259 3.23215ZM28.0747 8.07681C27.8041 8.07681 27.5346 8.06171 27.2736 8.03196C25.4864 7.82787 23.771 8.71053 22.8883 10.1969C22.8728 9.82221 22.8643 9.49124 22.8643 9.36153C22.8643 7.71937 23.5179 6.12096 24.5296 5.29015C24.5364 5.28446 24.5429 5.27877 24.5493 5.27243C25.2887 4.55821 26.6718 3.87768 28.1779 3.87768C28.2796 3.87768 28.3822 3.88074 28.4848 3.88709C30.356 4.00412 31.8074 5.22759 31.8074 6.20212C31.8074 7.21843 30.0981 8.07681 28.0747 8.07681Z" fill="#3A312A"/>
<path d="M28.5056 3.55963C26.7001 3.44675 25.1028 4.28172 24.3216 5.03641C23.1428 6.00503 22.6388 4.82575 22.1623 5.38181C21.5531 6.09253 23.076 8.35791 27.2367 8.35791C27.5088 8.35791 27.7875 8.40494 28.0749 8.40494C30.3178 8.40494 32.136 7.41882 32.136 6.20235C32.1358 4.98588 30.4746 3.68278 28.5056 3.55963Z" fill="#87796F"/>
<path d="M28.526 3.23214C26.7101 3.11971 24.9991 3.9317 24.1033 4.79074C23.5682 5.22627 23.2598 5.11733 22.9334 5.00205C22.6648 4.90733 22.2592 4.76405 21.9127 5.16808C21.6588 5.46427 21.6356 5.90046 21.8491 6.36486C22.3804 7.52008 24.2523 8.6858 27.2362 8.6858C27.3568 8.6858 27.4828 8.6963 27.6164 8.70767C27.7632 8.71992 27.915 8.73283 28.0745 8.73283C30.5356 8.73283 32.4635 7.62114 32.4635 6.20211C32.4637 4.75114 30.6236 3.36317 28.526 3.23214ZM28.0747 8.0768C27.9428 8.0768 27.8111 8.06564 27.6718 8.05383C27.5305 8.04202 27.3846 8.02977 27.2365 8.02977C24.1523 8.02977 22.7541 6.76146 22.4456 6.09077C22.3467 5.87574 22.3336 5.68608 22.4113 5.5953C22.4336 5.56927 22.4467 5.55396 22.4797 5.55396C22.5176 5.55396 22.5817 5.57386 22.7151 5.62111C23.0846 5.75149 23.7028 5.96936 24.5296 5.29014C24.5364 5.28446 24.543 5.27877 24.5493 5.27242C25.3388 4.50986 26.8624 3.78471 28.4851 3.8873C30.3563 4.00433 31.8077 5.2278 31.8077 6.20233C31.8075 7.21842 30.0981 8.0768 28.0747 8.0768Z" fill="#3A312A"/>
<path d="M20.1064 28.4976H17.1907H15.4219V36.8101H23.7344V28.4976H20.1064Z" fill="#D5DE58"/>
<path d="M23.7344 28.1692H20.1066C19.9253 28.1692 19.7785 28.316 19.7785 28.4973C19.7785 28.6787 19.9253 28.8254 20.1066 28.8254H23.4063V36.4817H15.75V28.8254H17.1909C17.3722 28.8254 17.519 28.6787 17.519 28.4973C17.519 28.316 17.3722 28.1692 17.1909 28.1692H15.4219C15.2405 28.1692 15.0938 28.316 15.0938 28.4973V36.8098C15.0938 36.9912 15.2405 37.1379 15.4219 37.1379H23.7344C23.9157 37.1379 24.0625 36.9912 24.0625 36.8098V28.4973C24.0623 28.3162 23.9155 28.1692 23.7344 28.1692Z" fill="#3A312A"/>
<path d="M23.7344 28.4976V36.8101H32.0469V34.2113V31.0858V28.4976H23.7344Z" fill="#D5DE58"/>
<path d="M32.0469 31.4137C32.2282 31.4137 32.375 31.2669 32.375 31.0856V28.4973C32.375 28.316 32.2282 28.1692 32.0469 28.1692H23.7344C23.553 28.1692 23.4062 28.316 23.4062 28.4973V36.8098C23.4062 36.9912 23.553 37.1379 23.7344 37.1379H32.0469C32.2282 37.1379 32.375 36.9912 32.375 36.8098V34.2113C32.375 34.0299 32.2282 33.8832 32.0469 33.8832C31.8655 33.8832 31.7188 34.0299 31.7188 34.2113V36.4817H24.0625V28.8254H31.7188V31.0856C31.7188 31.2669 31.8655 31.4137 32.0469 31.4137Z" fill="#3A312A"/>
<path d="M32.0469 28.4976V31.0858V34.2113V36.8101H40.3594V28.4976H32.0469Z" fill="#D5DE58"/>
<path d="M40.3594 28.1692H32.0469C31.8655 28.1692 31.7188 28.316 31.7188 28.4973V31.0856C31.7188 31.2669 31.8655 31.4137 32.0469 31.4137C32.2282 31.4137 32.375 31.2669 32.375 31.0856V28.8254H40.0312V36.4817H32.375V34.2113C32.375 34.0299 32.2282 33.8832 32.0469 33.8832C31.8655 33.8832 31.7188 34.0299 31.7188 34.2113V36.8098C31.7188 36.9912 31.8655 37.1379 32.0469 37.1379H40.3594C40.5407 37.1379 40.6875 36.9912 40.6875 36.8098V28.4973C40.6875 28.3162 40.5405 28.1692 40.3594 28.1692Z" fill="#3A312A"/>
<path d="M28 52.4507C31.7452 52.4507 34.7813 49.4146 34.7813 45.6694C34.7813 41.9243 31.7452 38.8882 28 38.8882C24.2548 38.8882 21.2188 41.9243 21.2188 45.6694C21.2188 49.4146 24.2548 52.4507 28 52.4507Z" fill="#F8E4C8"/>
<path d="M28 38.5598C24.08 38.5598 20.8906 41.7492 20.8906 45.6692C20.8906 49.5892 24.08 52.7786 28 52.7786C31.92 52.7786 35.1094 49.5892 35.1094 45.6692C35.1094 41.7492 31.9202 38.5598 28 38.5598ZM28 52.1223C24.4418 52.1223 21.5469 49.2274 21.5469 45.6692C21.5469 42.111 24.4418 39.2161 28 39.2161C31.5582 39.2161 34.4531 42.111 34.4531 45.6692C34.4531 49.2274 31.5584 52.1223 28 52.1223Z" fill="#3A312A"/>
<path d="M31.9751 45.9713C31.9751 44.8898 31.213 43.9872 30.1967 43.7689C30.2328 43.609 30.2533 43.4432 30.2533 43.2724C30.2533 42.0279 29.2444 41.0188 27.9998 41.0188C26.7553 41.0188 25.7462 42.0277 25.7462 43.2724C25.7462 43.4432 25.7668 43.609 25.8029 43.7689C24.7865 43.9872 24.0244 44.8898 24.0244 45.9713C24.0244 47.2158 25.0333 48.2249 26.278 48.2249C26.7247 48.2249 27.1396 48.0932 27.4899 47.8692L26.0748 50.3201H29.9245L28.5094 47.8692C28.8597 48.0934 29.2746 48.2249 29.7213 48.2249C30.9662 48.2246 31.9751 47.2158 31.9751 45.9713Z" fill="#87796F"/>
<path d="M32.304 45.9711C32.304 44.8681 31.5904 43.8884 30.5684 43.5327C30.5776 43.4452 30.5822 43.3583 30.5822 43.2724C30.5822 41.8487 29.4241 40.6907 28.0005 40.6907C26.5769 40.6907 25.419 41.8487 25.419 43.2724C25.419 43.3583 25.4236 43.4454 25.4328 43.5327C24.4108 43.8884 23.6973 44.8684 23.6973 45.9711C23.6973 47.3945 24.8553 48.5526 26.2789 48.5526C26.4347 48.5526 26.5896 48.5386 26.7414 48.5108L25.7918 50.1558C25.7332 50.2573 25.7332 50.3824 25.7918 50.4839C25.8504 50.5854 25.9587 50.648 26.076 50.648H29.9257C30.043 50.648 30.1513 50.5854 30.2099 50.4839C30.2685 50.3824 30.2685 50.2573 30.2099 50.1558L29.2603 48.5108C29.4121 48.5386 29.5668 48.5526 29.7227 48.5526C31.1459 48.5526 32.304 47.3945 32.304 45.9711ZM28.2263 48.0328L29.357 49.9915H26.644L27.7748 48.0328C27.8504 47.9018 27.8266 47.736 27.7172 47.6314C27.6076 47.5268 27.4412 47.5106 27.3136 47.5925C27.0032 47.7913 26.6454 47.8963 26.2787 47.8963C25.2169 47.8963 24.3533 47.0327 24.3533 45.9711C24.3533 45.0698 24.9923 44.2786 25.8725 44.0896C25.9583 44.0712 26.0329 44.0194 26.0801 43.9455C26.1274 43.8715 26.1431 43.7821 26.1239 43.6967C26.0917 43.5532 26.0753 43.4104 26.0753 43.2721C26.0753 42.2103 26.9389 41.3467 28.0005 41.3467C29.0623 41.3467 29.9259 42.2105 29.9259 43.2721C29.9259 43.4104 29.9095 43.5532 29.8774 43.6967C29.8581 43.7823 29.8739 43.8717 29.9211 43.9455C29.9684 44.0192 30.043 44.071 30.1287 44.0896C31.009 44.2786 31.6479 45.0698 31.6479 45.9711C31.6479 47.0327 30.7841 47.8963 29.7225 47.8963C29.3561 47.8963 28.998 47.7913 28.6876 47.5925C28.5605 47.5109 28.3936 47.527 28.284 47.6316C28.1744 47.736 28.1506 47.9018 28.2263 48.0328Z" fill="#3A312A"/>
<path d="M36.75 28.8247H40.0312V36.481H36.75V28.8247Z" fill="#B9C239"/>
</svg>
