<svg width="56" height="56" viewBox="0 0 56 56" fill="none" xmlns="http://www.w3.org/2000/svg">
<path d="M51.7889 25.9678L35.3503 9.50775C34.6969 8.85347 33.6371 8.85281 32.9828 9.50622L10.3183 32.1425C9.66402 32.7959 9.66336 33.8557 10.3168 34.51L20.7713 44.9781L22.9787 47.1883L26.7554 50.9698C27.4088 51.6241 28.4686 51.6248 29.1229 50.9714L51.7874 28.3353C52.4417 27.6819 52.4423 26.6221 51.7889 25.9678Z" fill="#F4E0C4"/>
<path d="M52.0212 25.7359L35.5826 9.27582C35.2046 8.89738 34.7019 8.6887 34.167 8.68848H34.1657C33.6315 8.68848 33.1288 8.89651 32.7508 9.27407L10.0864 31.9101C9.70793 32.2881 9.49924 32.7908 9.49902 33.3256C9.49859 33.8603 9.70662 34.3634 10.0846 34.7418L20.5391 45.2099C20.6673 45.3383 20.8749 45.3383 21.0033 45.2103C21.1315 45.0821 21.1317 44.8745 21.0037 44.7461L10.5492 34.2779C10.2951 34.0235 10.1553 33.6855 10.1555 33.3259C10.1557 32.9665 10.2959 32.6285 10.5503 32.3745L33.2146 9.73848C33.4688 9.48451 33.8065 9.34473 34.1657 9.34473H34.1666C34.5262 9.34495 34.864 9.48516 35.1181 9.73957L51.557 26.1996C52.0813 26.7246 52.0807 27.5786 51.5559 28.103L28.8912 50.7392C28.637 50.9932 28.2993 51.1328 27.9401 51.1328H27.9392C27.5796 51.1326 27.2416 50.9923 26.9876 50.7379L23.2109 46.9564C23.083 46.8282 22.8751 46.828 22.7467 46.9562C22.6186 47.0841 22.6183 47.292 22.7465 47.4201L26.5232 51.2017C26.9012 51.5801 27.4039 51.7888 27.9388 51.789H27.9401C28.4743 51.789 28.9767 51.581 29.355 51.2034L52.0194 28.5674C52.8004 27.7873 52.8012 26.517 52.0212 25.7359Z" fill="#3A312A"/>
<path d="M37.7864 24.3187C37.667 23.9398 37.3603 23.6329 36.9817 23.5128C33.0026 22.2519 27.3061 21.8873 24.9255 24.2649C22.6225 26.565 22.811 30.7003 27.0524 32.5395L21.6963 33.7265L27.5535 39.5911L28.747 34.2366C30.5808 38.4801 34.7159 38.6741 37.0189 36.374C39.3997 33.9964 39.0423 28.2995 37.7864 24.3187Z" fill="#87796F"/>
<path d="M38.0992 24.2201C37.9483 23.7424 37.5583 23.3517 37.0807 23.2003C32.7226 21.8191 27.0679 21.6618 24.6936 24.0331C23.4537 25.2716 22.9009 26.9982 23.2153 28.6518C23.5101 30.2038 24.516 31.5167 26.0807 32.4191L21.6252 33.4065C21.5084 33.4323 21.4147 33.52 21.3813 33.6349C21.3478 33.75 21.3795 33.874 21.464 33.9586L27.3212 39.8233C27.3838 39.8859 27.4676 39.9196 27.5535 39.9196C27.5841 39.9196 27.615 39.9152 27.6452 39.9065C27.7602 39.873 27.8477 39.7796 27.8738 39.6628L28.8667 35.2086C29.7673 36.7746 31.0789 37.782 32.6305 38.0788C34.2845 38.3949 36.0111 37.8447 37.2509 36.6064C39.625 34.2349 39.4747 28.5802 38.0992 24.2201ZM36.7867 36.142C35.7007 37.2268 34.1932 37.71 32.7534 37.4344C31.1594 37.1294 29.8434 35.9475 29.048 34.1067C28.9916 33.9761 28.8575 33.8956 28.716 33.9103C28.5744 33.9236 28.4574 34.0267 28.4266 34.1656L27.363 38.9367L22.3506 33.9177L27.123 32.8601C27.2619 32.8292 27.365 32.7126 27.3785 32.5711C27.3921 32.4296 27.3129 32.2953 27.1825 32.2388C25.3428 31.4408 24.1627 30.1235 23.8597 28.529C23.5861 27.089 24.071 25.5818 25.1571 24.4973C26.8141 22.8422 31.3736 22.0803 36.8823 23.8257C37.1593 23.9136 37.3859 24.1403 37.4732 24.4174C39.2118 29.9284 38.444 34.4871 36.7867 36.142Z" fill="#3A312A"/>
<path d="M35.2867 13.5757L30.7061 15.6496L31.7554 16.7005L32.4672 16.314L33.6338 17.4823L33.2506 18.1976L34.3268 19.2754L36.4076 14.6983L35.2867 13.5757ZM34.1411 16.5494L33.4107 15.8179L34.9712 14.9862L34.1411 16.5494Z" fill="#3A312A"/>
<path d="M30.3326 6.21294C30.3326 5.2885 29.583 4.53906 28.6585 4.53906L5.39555 4.54103C4.4709 4.54103 3.72146 5.29069 3.72168 6.21534L3.72277 17.1181L3.72299 20.2153L3.72474 38.2476C3.72496 39.1722 4.4744 39.9214 5.39905 39.9214L28.662 39.9195C29.5867 39.9195 30.3361 39.1698 30.3359 38.2452L30.3326 6.21294Z" fill="#F4E0C4"/>
<path d="M30.6607 6.21294C30.6607 5.10891 29.7623 4.21094 28.6585 4.21094L5.39555 4.21291C4.29152 4.21291 3.39334 5.11131 3.39355 6.21534L3.39465 17.1181C3.39465 17.2994 3.54165 17.4462 3.72277 17.4462C3.90412 17.4462 4.0509 17.2992 4.0509 17.1181L4.0498 6.21534C4.04959 5.47312 4.65355 4.86938 5.39555 4.86916L28.6585 4.86719C29.4007 4.86719 30.0045 5.47072 30.0045 6.21294L30.0078 38.2454C30.0078 38.605 29.8678 38.943 29.6136 39.1972C29.3594 39.4513 29.0214 39.5916 28.6618 39.5916L5.39905 39.5933C4.65684 39.5933 4.05309 38.9898 4.05309 38.2476L4.05112 20.2151C4.05112 20.0338 3.90412 19.887 3.72299 19.887C3.54165 19.887 3.39487 20.034 3.39487 20.2151L3.39684 38.2476C3.39684 39.3516 4.29524 40.2496 5.39905 40.2496L28.662 40.2476C29.1969 40.2476 29.6998 40.0391 30.0778 39.6609C30.456 39.2827 30.6642 38.78 30.664 38.2452L30.6607 6.21294Z" fill="#3A312A"/>
<path d="M25.5856 22.3438C25.5851 18.979 21.3014 15.2065 17.5971 13.2823C17.2446 13.0992 16.8109 13.0992 16.4582 13.2823C12.7544 15.2071 8.47124 18.9803 8.47168 22.3452C8.47212 25.5999 11.5316 28.3886 15.8298 26.6869L12.8852 31.3157L21.1738 31.315L18.2281 26.6869C22.527 28.3879 25.586 25.5986 25.5856 22.3438Z" fill="#87796F"/>
<path d="M17.7484 12.9913C17.3039 12.7603 16.7514 12.7605 16.3071 12.9913C12.2501 15.0994 8.14334 18.9894 8.14355 22.345C8.14377 24.0977 8.97502 25.7085 10.3674 26.6548C11.674 27.5428 13.3139 27.7589 15.0578 27.2892L12.6082 31.1397C12.5439 31.2407 12.5398 31.3687 12.5975 31.4737C12.6553 31.5785 12.7655 31.6439 12.8852 31.6439L21.1738 31.6432C21.2935 31.6432 21.404 31.578 21.4615 31.473C21.5192 31.368 21.5151 31.2401 21.4508 31.139L19.0003 27.289C20.7449 27.7582 22.3842 27.5421 23.6908 26.6538C25.0829 25.7074 25.9139 24.0963 25.9137 22.3439C25.9133 18.9879 21.8058 15.0985 17.7484 12.9913ZM23.322 26.1108C21.9797 27.0232 20.2135 27.1195 18.3491 26.3816C18.217 26.3293 18.0661 26.3681 17.9755 26.4779C17.8849 26.5875 17.8753 26.743 17.9516 26.8629L20.5764 30.9868L13.4832 30.9874L16.1071 26.8631C16.1835 26.7432 16.1739 26.5877 16.0833 26.4779C16.0196 26.4009 15.9262 26.3589 15.8302 26.3589C15.7897 26.3589 15.7488 26.3663 15.7095 26.3818C13.8453 27.1199 12.0789 27.0241 10.7366 26.1119C9.5243 25.2881 8.80024 23.8798 8.80024 22.345C8.80002 20.0029 11.4826 16.238 16.6101 13.5736C16.8677 13.4395 17.1884 13.4395 17.4463 13.5736C22.5743 16.2371 25.2577 20.0018 25.2579 22.3437C25.2575 23.8787 24.5341 25.2868 23.322 26.1108Z" fill="#3A312A"/>
<path d="M49.3863 6.65601C49.1733 9.18563 46.5371 9.58485 46.5371 9.58485C48.8005 9.69138 49.3645 12.6603 49.3645 12.6603C49.4128 10.5434 52.2784 9.55357 52.2784 9.55357C50.132 9.42516 49.3863 6.65601 49.3863 6.65601Z" fill="#D5DE58"/>
<path d="M52.2981 9.22593C50.416 9.11349 49.7101 6.59568 49.7031 6.5703C49.6613 6.41652 49.5143 6.31481 49.3566 6.32924C49.198 6.34368 49.0727 6.46968 49.0593 6.62827C48.8712 8.8628 46.5844 9.24518 46.4879 9.26027C46.321 9.28543 46.2007 9.43309 46.2094 9.60152C46.2182 9.76996 46.3531 9.90427 46.5218 9.91237C48.4967 10.0053 49.037 12.6944 49.0422 12.7216C49.0722 12.8771 49.2083 12.9878 49.3642 12.9878C49.3732 12.9878 49.3826 12.9873 49.3918 12.9867C49.5589 12.9727 49.6887 12.8351 49.6926 12.6675C49.7352 10.8064 52.3596 9.87255 52.3861 9.86337C52.5337 9.81196 52.6249 9.66343 52.6035 9.50855C52.5818 9.35368 52.4543 9.23534 52.2981 9.22593ZM49.3306 11.4891C49.0339 10.8042 48.5192 9.97799 47.6709 9.54727C48.3121 9.24015 49.0729 8.6913 49.4651 7.73777C49.8044 8.40955 50.3836 9.24277 51.2881 9.64571C50.6304 10.0045 49.7737 10.6095 49.3306 11.4891Z" fill="#3A312A"/>
<path d="M44.628 10.354C44.476 12.1432 42.6113 12.4243 42.6113 12.4243C44.2121 12.5008 44.6096 14.601 44.6096 14.601C44.6448 13.1039 46.6722 12.4052 46.6722 12.4052C45.1539 12.3131 44.628 10.354 44.628 10.354Z" fill="#D5DE58"/>
<path d="M46.6921 12.0776C45.4308 12.001 44.9495 10.2858 44.9447 10.2683C44.9032 10.1145 44.7573 10.0124 44.5989 10.027C44.4401 10.041 44.3145 10.1672 44.3009 10.3261C44.1734 11.8289 42.6271 12.0894 42.5623 12.0995C42.3954 12.1246 42.2751 12.2721 42.2836 12.4407C42.2922 12.6094 42.4271 12.7437 42.5956 12.7518C43.9157 12.815 44.2837 14.644 44.2872 14.6619C44.3167 14.8179 44.453 14.929 44.6094 14.929C44.6183 14.929 44.6273 14.9288 44.6365 14.9279C44.8038 14.9141 44.9338 14.7765 44.9377 14.6085C44.967 13.3597 46.7617 12.7214 46.7794 12.715C46.9275 12.6641 47.0187 12.5155 46.9975 12.3604C46.976 12.2056 46.8483 12.087 46.6921 12.0776ZM44.5943 13.5625C44.3926 13.1499 44.0831 12.6986 43.6224 12.4068C44.0286 12.1793 44.4315 11.8322 44.6888 11.3321C44.9198 11.742 45.2687 12.1975 45.769 12.4755C45.3638 12.7159 44.8957 13.0744 44.5943 13.5625Z" fill="#3A312A"/>
<path d="M44.6401 4.53906C44.4894 6.32822 42.625 6.61084 42.625 6.61084C44.2258 6.68609 44.6248 8.78609 44.6248 8.78609C44.6589 7.28875 46.6859 6.58875 46.6859 6.58875C45.1675 6.49775 44.6401 4.53906 44.6401 4.53906Z" fill="#D5DE58"/>
<path d="M46.7054 6.26098C45.4438 6.18551 44.9613 4.47029 44.9567 4.45301C44.9151 4.29945 44.7692 4.19816 44.6106 4.21195C44.4518 4.22616 44.3265 4.35238 44.3131 4.5112C44.1865 6.01423 42.6405 6.27585 42.5758 6.28613C42.4089 6.31129 42.2886 6.45894 42.2973 6.62738C42.3061 6.79582 42.441 6.93013 42.6097 6.93823C43.9299 7.00035 44.2991 8.8291 44.3026 8.84704C44.3321 9.00301 44.4686 9.11391 44.6246 9.11391C44.6338 9.11391 44.6428 9.11369 44.652 9.11282C44.8193 9.09904 44.949 8.96101 44.953 8.79323C44.9814 7.54438 46.7756 6.90454 46.7933 6.89841C46.9412 6.84723 47.0326 6.69869 47.0112 6.5436C46.9895 6.38873 46.8615 6.27038 46.7054 6.26098ZM44.6086 7.74738C44.4065 7.33482 44.0968 6.88398 43.6359 6.59238C44.0419 6.36466 44.4446 6.01707 44.7014 5.51701C44.9326 5.92673 45.2822 6.38194 45.7825 6.65976C45.3775 6.90038 44.9096 7.25913 44.6086 7.74738Z" fill="#3A312A"/>
<path d="M8.88902 7.46069V10.3604C8.88902 10.647 8.85096 10.8507 8.77505 10.9714C8.69915 11.0924 8.57971 11.1528 8.41718 11.1528C8.31458 11.1528 8.23518 11.1324 8.17962 11.0917C8.09824 11.0296 8.04049 10.9484 8.00615 10.8478C7.97202 10.7472 7.95365 10.5932 7.95168 10.3856L6.56152 10.575C6.58712 10.939 6.67112 11.2444 6.81352 11.4918C6.95571 11.739 7.15762 11.9267 7.41859 12.0553C7.67977 12.1837 8.04793 12.248 8.52305 12.248C8.97258 12.248 9.34118 12.1507 9.62905 11.9562C9.91693 11.7615 10.1086 11.5242 10.2039 11.244C10.2991 10.9638 10.3468 10.5551 10.3468 10.0183V7.46113H8.88902V7.46069Z" fill="#3A312A"/>
<path d="M51.5577 26.1997L35.1186 9.73872C34.8648 9.48497 34.5258 9.34497 34.167 9.34497C33.8061 9.34497 33.4692 9.48497 33.2155 9.73872L32.5264 10.4278L48.2764 26.1997C48.5302 26.4534 48.6702 26.7925 48.6702 27.1512C48.6702 27.5122 48.5301 27.849 48.2742 28.1028L26.3008 50.05L26.9877 50.7368C27.2414 50.9928 27.5805 51.1328 27.9392 51.1328H27.9414C28.3002 51.1328 28.637 50.9928 28.893 50.739L51.5555 28.1028C51.8114 27.849 51.9514 27.5122 51.9514 27.1512C51.9514 26.7925 51.8114 26.4534 51.5577 26.1997Z" fill="#DDC9AC"/>
</svg>
