<svg width="100" height="93" viewBox="0 0 100 93" fill="none" xmlns="http://www.w3.org/2000/svg">
<g opacity="0.2" clip-path="url(#clip0)">
<path d="M14.8024 20.1543C15.4559 24.9979 10.5124 26.8957 10.5124 26.8957C14.9467 26.1103 17.2922 31.4405 17.2922 31.4405C16.4934 27.4439 21.6333 24.3372 21.6333 24.3372C17.4163 25.0307 14.8024 20.1543 14.8024 20.1543Z" fill="#D6DF58"/>
<path d="M21.5326 23.7138C17.8351 24.3217 15.4046 19.9009 15.3802 19.8558C15.2349 19.5855 14.9132 19.4627 14.607 19.5539C14.3056 19.6501 14.1156 19.9413 14.1566 20.2449C14.734 24.5234 10.4608 26.2371 10.28 26.3071C9.96702 26.4274 9.79596 26.7571 9.88395 27.0696C9.97204 27.3826 10.2904 27.576 10.6204 27.5175C14.4896 26.8326 16.6717 31.6476 16.6934 31.6966C16.8171 31.9757 17.1276 32.1243 17.4301 32.0564C17.4479 32.0524 17.4655 32.0476 17.4831 32.0423C17.8013 31.9433 17.9948 31.6284 17.9317 31.3116C17.2292 27.7974 21.9249 24.9013 21.9728 24.8724C22.2375 24.712 22.3517 24.3929 22.2448 24.1114C22.137 23.8297 21.8394 23.663 21.5326 23.7138ZM16.7323 29.2562C15.8679 28.0991 14.5217 26.7715 12.695 26.3319C13.8089 25.4759 15.0529 24.1139 15.4115 22.1524C16.3527 23.2663 17.8278 24.5788 19.7515 24.9422C18.6265 25.9016 17.2208 27.4109 16.7323 29.2562Z" fill="#3A312A"/>
<path d="M7.16379 29.1971C7.62591 32.6228 4.12944 33.9654 4.12944 33.9654C7.26563 33.4097 8.92489 37.1799 8.92489 37.1799C8.35979 34.3534 11.9954 32.1558 11.9954 32.1558C9.01206 32.6461 7.16379 29.1971 7.16379 29.1971Z" fill="#D6DF58"/>
<path d="M11.8943 31.5321C9.41645 31.9395 7.75738 28.9284 7.74076 28.898C7.59541 28.6277 7.27239 28.5009 6.968 28.5959C6.66601 28.6918 6.47624 28.9838 6.51724 29.2875C6.90528 32.165 4.01753 33.329 3.8963 33.3765C3.58331 33.4969 3.41225 33.8266 3.50024 34.1391C3.58833 34.452 3.90671 34.6455 4.23668 34.587C6.82348 34.1287 8.31076 37.4029 8.32469 37.4351C8.44763 37.7148 8.7592 37.864 9.06167 37.7961C9.07949 37.7921 9.0967 37.7874 9.11424 37.7822C9.43296 37.6834 9.62641 37.3681 9.56321 37.0509C9.09187 34.6935 12.3015 32.7107 12.3333 32.6914C12.5989 32.5308 12.7132 32.2122 12.6062 31.9302C12.4993 31.6483 12.2015 31.4812 11.8943 31.5321ZM8.45483 35.2362C7.88898 34.5498 7.09809 33.8375 6.08139 33.491C6.7723 32.8866 7.40716 32.0584 7.69391 31.0075C8.31517 31.6767 9.18451 32.3791 10.2718 32.683C9.58934 33.311 8.8332 34.1884 8.45483 35.2362Z" fill="#3A312A"/>
<path d="M4.68813 18.2497C5.16411 21.6736 1.6728 23.0293 1.6728 23.0293C4.80683 22.462 6.48147 26.2253 6.48147 26.2253C5.90483 23.4009 9.53201 21.1896 9.53201 21.1896C6.55033 21.6912 4.68813 18.2497 4.68813 18.2497Z" fill="#D6DF58"/>
<path d="M9.43006 20.5662C6.96457 20.9812 5.29743 18.0055 5.26605 17.9491C5.11943 17.6791 4.79223 17.5476 4.49163 17.6496C4.19025 17.7462 4.001 18.0385 4.04345 18.3427C4.44313 21.2185 1.55975 22.394 1.43861 22.4419C1.12633 22.5634 0.9563 22.8937 1.04547 23.2056C1.1344 23.5183 1.45378 23.7103 1.78399 23.6508C4.36909 23.183 5.86921 26.4508 5.88356 26.483C6.00759 26.7615 6.31795 26.9094 6.61957 26.8416C6.63781 26.8375 6.65629 26.8325 6.67459 26.8267C6.99303 26.7267 7.18545 26.4108 7.12055 26.0939C6.63969 23.7378 9.84142 21.7434 9.8732 21.7242C10.1382 21.5628 10.251 21.2436 10.1432 20.9619C10.0355 20.6805 9.73665 20.5146 9.43006 20.5662ZM6.00551 24.2833C5.43655 23.5989 4.64282 22.8898 3.62465 22.5467C4.31364 21.9397 4.94445 21.1094 5.22735 20.0572C5.85112 20.7237 6.72381 21.4232 7.81235 21.7225C7.13152 22.354 6.37909 23.2341 6.00551 24.2833Z" fill="#3A312A"/>
<path d="M67.7826 27.1529L69.8474 12.5385L69.8363 12.541C69.895 11.8814 69.8543 11.2039 69.7022 10.5265C68.8871 6.89601 65.1873 4.6356 61.4389 5.47719C57.6904 6.31877 55.312 9.94385 56.1271 13.5743C55.312 9.94385 51.6122 7.68344 47.8638 8.52503C44.1153 9.36662 41.7369 12.9917 42.552 16.6222C41.7369 12.9917 38.0371 10.7313 34.2887 11.5729C30.5402 12.4145 28.1618 16.0395 28.9769 19.67C29.1291 20.3479 29.3823 20.9776 29.7168 21.5485L29.7058 21.551L37.8198 33.8801C27.4453 41.887 22.0256 55.1635 25.0095 68.4537C29.1602 86.9413 45.099 85.5278 64.1894 81.2416C83.2799 76.9555 98.2932 71.4202 94.1424 52.9322C91.1589 39.6419 80.5842 29.9565 67.7826 27.1529Z" fill="#87796F"/>
<path d="M68.5069 26.666L70.4921 12.6162C70.4988 12.5668 70.4997 12.517 70.4942 12.4686C70.5447 11.7707 70.4925 11.0699 70.3384 10.3834C69.4484 6.41938 65.3937 3.94176 61.3003 4.86078C58.2765 5.53969 56.0644 7.88504 55.4732 10.6622C53.7515 8.40432 50.7491 7.22972 47.7252 7.90863C44.7014 8.58753 42.4893 10.9329 41.8981 13.7101C40.1764 11.4522 37.174 10.2776 34.1501 10.9565C30.0568 11.8755 27.4504 15.8486 28.3404 19.8127C28.4942 20.4976 28.7454 21.1519 29.0882 21.7602C29.1047 21.8078 29.1274 21.8532 29.1559 21.8969L36.9567 33.7496C26.4273 42.1543 21.4928 55.7663 24.3733 68.5959C26.3412 77.3609 31.0778 82.4015 38.8535 84.0062C46.136 85.5088 55.4006 83.8611 64.3279 81.8568C73.2552 79.8525 82.3349 77.3815 88.2762 72.9099C94.6199 68.1352 96.7468 61.5536 94.7789 52.7887C91.8984 39.959 81.619 29.7628 68.5069 26.666ZM64.0513 80.6247C46.1707 84.6392 29.7789 86.7181 25.646 68.3102C22.8291 55.764 27.7651 42.4425 38.2209 34.3729C38.4848 34.169 38.5494 33.8059 38.3702 33.5337L30.3211 21.303C30.3105 21.2778 30.2982 21.2529 30.284 21.2293C29.9742 20.7008 29.7485 20.1283 29.6135 19.5269C28.8761 16.2423 31.0356 12.9503 34.4273 12.1889C37.8189 11.4274 41.1785 13.4802 41.9159 16.7648C41.9923 17.1049 42.3389 17.3171 42.6906 17.2381C43.0423 17.1592 43.265 16.8192 43.1886 16.479C42.4512 13.1945 44.6107 9.90249 48.0024 9.14101C51.394 8.37952 54.7536 10.4324 55.491 13.7169C55.5674 14.0571 55.914 14.2693 56.2657 14.1903C56.6174 14.1113 56.8401 13.7714 56.7637 13.4312C56.0263 10.1466 58.1858 6.85465 61.5775 6.09316C64.9691 5.33168 68.3287 7.38453 69.0661 10.6691C69.2012 11.2705 69.2419 11.8845 69.1877 12.4948C69.1854 12.5221 69.1847 12.549 69.1863 12.5758L67.1377 27.0753C67.0921 27.3984 67.3057 27.6987 67.6314 27.7701C80.5333 30.5956 90.6903 40.5284 93.5071 53.0746C97.6391 71.4823 81.9318 76.6103 64.0513 80.6247Z" fill="#3A312A"/>
<path d="M61.8736 70.9201C70.7767 68.9212 76.4248 60.3113 74.4891 51.6894C72.5533 43.0675 63.7667 37.6984 54.8636 39.6973C45.9605 41.6962 40.3124 50.3061 42.2482 58.928C44.184 67.5499 52.9706 72.919 61.8736 70.9201Z" fill="#D7E057"/>
<path d="M54.7255 39.0811C45.486 41.1555 39.6032 50.1231 41.6121 59.0709C43.6211 68.0186 52.7727 73.6107 62.0123 71.5363C71.2518 69.4619 77.1346 60.4943 75.1257 51.5465C73.1167 42.5987 63.9651 37.0066 54.7255 39.0811ZM61.7356 70.3038C53.1977 72.2207 44.7412 67.0534 42.8848 58.7851C41.0284 50.5169 46.4643 42.2305 55.0022 40.3136C63.5401 38.3967 71.9966 43.564 73.853 51.8322C75.7094 60.1005 70.2734 68.3869 61.7356 70.3038Z" fill="#3A312A"/>
<path d="M59.8882 53.1132C57.3484 52.7845 56.2551 52.4401 56.0569 51.5572C55.8888 50.8087 56.3005 49.9291 58.0962 49.526C60.0846 49.0796 61.4936 49.4092 62.2775 49.5426L62.3999 46.3403C61.3921 46.117 60.0649 46.0209 58.1966 46.3567L57.6681 44.0027L54.9611 44.6104L55.5316 47.1514C52.7022 48.377 51.4044 50.6068 51.9329 52.9608C52.5155 55.5556 54.8321 56.4405 58.0034 56.7396C60.1974 56.9496 61.2257 57.3932 61.4538 58.4092C61.6941 59.4794 60.7486 60.3096 59.1747 60.6629C57.379 61.0661 55.6239 60.8703 54.3256 60.5157L54.1997 63.831C55.3813 64.1837 57.2847 64.2621 59.1531 63.9267L59.7236 66.4677L62.4306 65.8599L61.818 63.1317C64.8746 61.884 66.1583 59.4601 65.6238 57.0794C65.0833 54.6723 63.4268 53.4985 59.8882 53.1132Z" fill="#87796F"/>
<path d="M59.9826 52.4862C57.7228 52.1939 56.8007 51.8934 56.6931 51.4144C56.5209 50.6474 57.585 50.2881 58.2345 50.1423C59.9165 49.7646 61.1284 49.9823 61.9307 50.1259L62.1571 50.1657C62.3435 50.198 62.536 50.1488 62.684 50.0318C62.8324 49.9148 62.9214 49.7416 62.9286 49.5574L63.0511 46.3556C63.0624 46.0548 62.8543 45.7909 62.5536 45.7237C61.3929 45.4661 60.1284 45.4367 58.7035 45.6362L58.3047 43.8598C58.2283 43.5196 57.8817 43.3074 57.53 43.3864L54.8235 43.9941C54.4718 44.073 54.2491 44.413 54.3255 44.7532L54.7855 46.802C52.054 48.1739 50.7238 50.5491 51.2973 53.1036C52.0371 56.3988 55.2319 57.1142 57.9316 57.369C60.2855 57.5944 60.7101 58.0704 60.8182 58.5519C61.0409 59.5441 59.3735 59.9711 59.0367 60.0467C57.1205 60.4769 55.3778 60.1437 54.51 59.9065C54.317 59.8528 54.1086 59.8913 53.9456 60.0069C53.7824 60.1234 53.6825 60.3055 53.675 60.5005L53.5491 63.8158C53.5383 64.0991 53.7231 64.3528 54.0011 64.4358C55.2171 64.7985 56.9514 64.8721 58.6463 64.6452L59.0875 66.6102C59.1639 66.9503 59.5105 67.1625 59.8622 67.0835L62.5692 66.4758C62.9208 66.3968 63.1435 66.0568 63.0671 65.7167L62.5673 63.4904C65.4176 62.1259 66.8588 59.6019 66.2603 56.9361C65.6524 54.2305 63.7711 52.8987 59.9826 52.4862ZM61.5726 62.549C61.2791 62.6689 61.1143 62.9747 61.1816 63.2746L61.6559 65.3871L60.2216 65.7091L59.7894 63.7844C59.7155 63.4549 59.3868 63.2435 59.0434 63.3055C57.5916 63.5654 56.0172 63.5749 54.8692 63.3425L54.9462 61.3116C56.0287 61.5204 57.6064 61.6625 59.313 61.2793C61.3102 60.8309 62.4006 59.6479 62.0904 58.2663C61.733 56.6743 59.9501 56.2892 58.0757 56.1098C54.6619 55.7879 53.0152 54.8031 52.5696 52.8179C52.0962 50.7096 53.3003 48.8067 55.7903 47.7286C56.0762 47.6048 56.2344 47.3031 56.1682 47.0085L55.736 45.0834L57.1699 44.7614L57.56 46.4992C57.6341 46.8291 57.9627 47.0402 58.3061 46.9782C59.5865 46.7485 60.7118 46.7095 61.7285 46.8614L61.6547 48.7914C60.7882 48.6575 59.5456 48.5533 57.9578 48.9098C55.737 49.4084 55.191 50.678 55.4205 51.7002C55.7364 53.1072 57.5091 53.445 59.8069 53.7421C63.5494 54.1503 64.5846 55.4287 64.9875 57.2232C65.4862 59.4445 64.1781 61.4855 61.5726 62.549Z" fill="#3A312A"/>
<path d="M69.1306 21.8745L47.5792 26.7132L41.7547 28.0209L34.7686 29.5894C33.0115 29.9839 31.8966 31.6833 32.2787 33.3849C32.6607 35.0865 34.395 36.1463 36.1521 35.7518L70.5141 28.0369C72.2712 27.6424 73.3861 25.943 73.004 24.2414C72.622 22.5397 70.8877 21.48 69.1306 21.8745Z" fill="#F16C7A"/>
<path d="M68.9925 21.2583L47.4411 26.0969C47.0895 26.1759 46.8668 26.5158 46.9432 26.856C47.0195 27.1962 47.3662 27.4083 47.7179 27.3294L69.2692 22.4907C70.6729 22.1756 72.0627 23.0248 72.3679 24.3842C72.6731 25.7436 71.7798 27.1055 70.376 27.4206L36.0141 35.1355C34.6103 35.4507 33.2205 34.6014 32.9153 33.242C32.6101 31.8826 33.5035 30.5208 34.9072 30.2056L41.8933 28.6371C42.245 28.5581 42.4676 28.2182 42.3913 27.878C42.3149 27.5378 41.9683 27.3257 41.6166 27.4046L34.6305 28.9731C32.5255 29.4457 31.1849 31.4888 31.6426 33.5278C32.1004 35.5667 34.1858 36.8406 36.2908 36.368L70.6527 28.6531C72.7577 28.1805 74.0984 26.1374 73.6406 24.0985C73.1828 22.0596 71.0975 20.7857 68.9925 21.2583Z" fill="#3A312A"/>
</g>
<defs>
<clipPath id="clip0">
<rect width="85" height="76" fill="white" transform="translate(0 18.6204) rotate(-12.6541)"/>
</clipPath>
</defs>
</svg>
