<svg width="80" height="82" viewBox="0 0 80 82" fill="none" xmlns="http://www.w3.org/2000/svg">
<path d="M65.6814 15.0179C63.033 11.6372 58.1556 11.0226 54.7687 13.6672C54.6323 13.7726 45.5878 20.6391 34.0009 23.1685L30.0832 23.8312C25.143 24.4197 19.8947 24.0781 14.7738 22.042C10.7806 20.4544 6.25672 22.4042 4.66886 26.3974C3.5372 29.2442 4.20299 32.3605 6.1259 34.4907C6.8998 35.3483 7.87853 36.0466 9.02452 36.502C36.3955 47.3844 63.2008 26.8259 64.3286 25.9454C67.7152 23.3012 68.3257 18.4052 65.6814 15.0179Z" fill="#D5DE58"/>
<path d="M66.0282 14.7469C63.2333 11.1794 58.0607 10.5397 54.5007 13.3192C54.412 13.3875 45.4939 20.2075 33.9079 22.739C33.6745 22.7964 33.5208 23.025 33.5722 23.2621C33.6238 23.4991 33.8582 23.6495 34.0951 23.5975C34.8127 23.441 35.5181 23.2687 36.2142 23.0822C46.9446 20.2064 54.9536 14.0798 55.04 14.013C58.2212 11.5291 62.8397 12.102 65.3358 15.2882C67.8267 18.4788 67.2539 23.1042 64.0586 25.5991C62.9392 26.4735 36.3306 46.8855 9.18736 36.0934C8.1293 35.673 7.20942 35.0347 6.45268 34.196C4.56417 32.1036 4.03724 29.1772 5.07801 26.5595C6.57355 22.7979 10.8506 20.9545 14.6122 22.4498C19.3203 24.3217 24.5432 24.9331 30.136 24.2671C30.3768 24.2387 30.5493 24.0199 30.5204 23.7786C30.4917 23.5379 30.273 23.3657 30.032 23.3945C24.5861 24.0429 19.5071 23.4503 14.9365 21.6329C10.725 19.9585 5.93606 22.0227 4.26083 26.2343C3.09571 29.1656 3.68545 32.4419 5.79997 34.7846C6.64802 35.7241 7.6782 36.439 8.86261 36.9099C19.9599 41.3222 30.9542 40.6155 40.2137 38.1338C53.9892 34.4418 63.92 26.8215 64.5992 26.2913C68.1767 23.499 68.8178 18.32 66.0282 14.7469Z" fill="#3A312A"/>
<path d="M63.3651 12.9812C59.622 10.8758 54.8824 12.1804 52.7698 15.9221C52.6397 16.1495 39.51 38.689 19.0519 39.0061C14.7552 39.0724 11.3263 42.6096 11.3927 46.9063C11.4403 49.9694 13.2511 52.5912 15.8444 53.8205C16.8884 54.3154 18.0597 54.5845 19.2929 54.5653C48.7443 54.109 65.6065 24.8372 66.3097 23.5915C68.4226 19.8495 67.1071 15.094 63.3651 12.9812Z" fill="#D5DE58"/>
<path d="M63.5805 12.5981C59.6307 10.3765 54.609 11.7703 52.3885 15.7038C52.2593 15.9292 39.2431 38.2535 19.0453 38.5664C14.5126 38.6362 10.8834 42.3812 10.9534 46.9132C11.0022 50.0666 12.8044 52.8657 15.6558 54.2176C16.7993 54.7598 18.0252 55.0246 19.2995 55.0046C23.1712 54.9448 26.8249 54.3916 30.2567 53.4721C53.1477 47.3384 66.076 24.8987 66.6923 23.8076C68.9236 19.8555 67.528 14.827 63.5805 12.5981ZM65.9272 23.3754C65.2286 24.6126 48.4854 53.6741 19.2861 54.1259C18.1477 54.1437 17.0532 53.9074 16.0325 53.4239C13.4854 52.2165 11.8759 49.7163 11.8321 46.8997C11.7697 42.8522 15.0115 39.5074 19.0589 39.4456C39.752 39.1262 53.0197 16.3708 53.1525 16.1384C55.1365 12.6241 59.6211 11.3797 63.1491 13.364C66.6738 15.354 67.92 19.8454 65.9272 23.3754Z" fill="#3A312A"/>
<path d="M61.1058 12.1356C56.8981 11.2767 52.7849 13.969 51.9187 18.1777C51.8643 18.4343 46.2624 43.9103 26.883 50.4727C22.8128 51.8509 20.6308 56.2678 22.0089 60.3379C22.9918 63.2396 25.5181 65.1814 28.3627 65.558C29.508 65.7098 30.7056 65.6073 31.8738 65.2117C59.7725 55.7642 66.8674 22.7366 67.1558 21.3351C68.0224 17.1266 65.3149 13.002 61.1058 12.1356Z" fill="#D5DE58"/>
<path d="M61.1936 11.7047C56.7536 10.7983 52.3992 13.6623 51.4891 18.0866C51.4353 18.3406 45.8862 43.5735 26.7423 50.0564C22.4494 51.51 20.1394 56.1856 21.5927 60.4786C22.6046 63.4662 25.1768 65.5792 28.3051 65.9936C29.379 66.1356 30.448 66.066 31.4908 65.7866C31.6662 65.7396 31.8409 65.6864 32.015 65.6276C60.1508 56.1005 67.2964 22.8352 67.5867 21.4238C68.5014 16.9785 65.6341 12.6186 61.1936 11.7047ZM66.7258 21.2468C66.4395 22.6381 59.397 55.4278 31.7332 64.7954C30.6556 65.1599 29.5406 65.2707 28.4207 65.1221C25.6262 64.7524 23.3289 62.8651 22.4256 60.1969C21.1273 56.3625 23.1905 52.187 27.0245 50.8888C46.6372 44.2472 52.2942 18.5275 52.3494 18.2659C52.9263 15.4631 55.049 13.362 57.6494 12.6653C58.7163 12.3794 59.8638 12.3303 61.0172 12.5654C64.982 13.3817 67.5429 17.276 66.7258 21.2468Z" fill="#3A312A"/>
<path d="M63.0617 12.6711C62.091 12.1669 61.3909 11.2613 61.1078 10.2047L58.9531 2.16332L53.1751 3.71154L54.945 10.3167C55.3105 11.681 54.9153 13.1287 53.9269 14.1375C52.3062 15.792 51.439 18.1472 51.7776 20.6221C51.8043 20.827 53.7872 36.951 46.7476 49.9587L44.5578 53.4703C43.0052 55.6345 41.1413 57.6477 38.9037 59.4041C35.5233 62.0572 34.934 66.9482 37.5871 70.3285C39.4787 72.7382 42.5069 73.7297 45.3153 73.1391C46.4457 72.9015 47.5415 72.4067 48.5115 71.6452C71.682 53.4592 67.3922 19.9517 67.1983 18.5341C66.8416 15.9282 65.2324 13.7986 63.0617 12.6711Z" fill="#D5DE58"/>
<path d="M63.2649 12.2809C62.4198 11.8422 61.7885 11.0438 61.5331 10.0907L59.3785 2.04939C59.3157 1.81508 59.0748 1.67579 58.8402 1.73865L53.0622 3.28687C52.8276 3.34973 52.6887 3.59077 52.7515 3.82508L54.5213 10.4303C54.8423 11.6281 54.4947 12.9309 53.614 13.8299C51.8248 15.6559 50.9972 18.1534 51.3424 20.679C51.3635 20.839 53.3635 36.8119 46.3621 49.7491C46.2467 49.9626 46.3261 50.2295 46.5393 50.3449C46.7532 50.4605 47.0197 50.3809 47.135 50.1674C54.2704 36.982 52.2354 20.7267 52.2137 20.562C51.905 18.305 52.6442 16.0754 54.2415 14.4446C55.3385 13.3247 55.771 11.6993 55.3699 10.2026L53.7139 4.02216L58.643 2.70143L60.6839 10.3183C61.003 11.5091 61.7959 12.5089 62.8595 13.061C64.9806 14.1627 66.4398 16.2309 66.7632 18.5934C66.9556 20.001 71.2118 53.2698 48.2407 71.2989C47.3444 72.0019 46.3281 72.4762 45.2254 72.7086C42.467 73.2888 39.6727 72.2726 37.9334 70.0568C35.4344 66.8723 35.9915 62.2481 39.1757 59.7489C41.3308 58.0574 43.2622 56.031 44.9156 53.7256C45.0572 53.5285 45.0118 53.2537 44.8147 53.1124C44.6176 52.9711 44.3428 53.0162 44.2015 53.2133C42.5964 55.4511 40.7228 57.4172 38.6331 59.0575C35.0678 61.856 34.444 67.0337 37.2423 70.5993C39.1897 73.0802 42.318 74.218 45.4064 73.5688C45.5548 73.5375 45.7016 73.5024 45.8471 73.4635C46.9148 73.1774 47.9009 72.6829 48.7833 71.9903C72.1465 53.6532 67.8293 19.9019 67.6341 18.4741C67.2724 15.8291 65.639 13.514 63.2649 12.2809Z" fill="#3A312A"/>
</svg>
