<svg width="22" height="22" viewBox="0 0 22 22" fill="none" xmlns="http://www.w3.org/2000/svg">
<path d="M13.6125 0C8.98758 0 5.225 3.76258 5.225 8.3875C5.225 9.68813 5.52257 10.9206 6.05321 12.0203L4.83667 13.2368C4.51079 13.5627 4.51079 14.093 4.83667 14.4189L4.86375 14.446L0.556253 18.7535C-0.185418 19.4952 -0.185418 20.702 0.556253 21.4437C0.927132 21.8146 1.41425 22 1.9014 22C2.38856 22 2.87567 21.8146 3.24655 21.4437L7.554 17.1363L7.58107 17.1634C7.74406 17.3263 7.95805 17.4078 8.17213 17.4078C8.38621 17.4078 8.60025 17.3263 8.76323 17.1634L9.97973 15.9468C11.0795 16.4775 12.3119 16.775 13.6125 16.775C18.2375 16.775 22 13.0125 22 8.38754C22 3.76263 18.2374 0 13.6125 0V0ZM2.63882 20.8361C2.23228 21.2427 1.57062 21.2427 1.16399 20.8361C0.757355 20.4294 0.757355 19.7678 1.16399 19.3612L5.47144 15.0537L6.94627 16.5286L2.63882 20.8361ZM8.17213 16.539L5.46099 13.8279L6.48498 12.8039C7.16804 13.9023 8.09766 14.832 9.19608 15.515L8.17213 16.539ZM13.6125 15.9156C9.46146 15.9156 6.08441 12.5385 6.08441 8.38754C6.08441 4.23655 9.46146 0.85941 13.6125 0.85941C17.7635 0.85941 21.1406 4.23651 21.1406 8.3875C21.1406 12.5385 17.7635 15.9156 13.6125 15.9156Z" fill="white"/>
<path d="M19.6308 8.18875C18.4554 5.93644 16.1493 4.53723 13.6125 4.53723C11.0757 4.53723 8.76957 5.93644 7.59411 8.18875C7.5291 8.31332 7.5291 8.46178 7.59411 8.5864C8.76953 10.8387 11.0756 12.2379 13.6125 12.2379C16.1493 12.2379 18.4554 10.8387 19.6308 8.5864C19.6958 8.46183 19.6958 8.31336 19.6308 8.18875ZM13.6125 11.3785C11.4726 11.3785 9.52052 10.2383 8.46461 8.38757C9.52052 6.53687 11.4726 5.39664 13.6125 5.39664C15.7525 5.39664 17.7046 6.53683 18.7604 8.38757C17.7045 10.2383 15.7525 11.3785 13.6125 11.3785Z" fill="white"/>
<path d="M13.6125 10.433C14.7422 10.433 15.658 9.51716 15.658 8.38744C15.658 7.25773 14.7422 6.34192 13.6125 6.34192C12.4828 6.34192 11.567 7.25773 11.567 8.38744C11.567 9.51716 12.4828 10.433 13.6125 10.433Z" fill="white"/>
</svg>
