<svg width="21" height="18" viewBox="0 0 21 18" fill="none" xmlns="http://www.w3.org/2000/svg">
<path d="M8.95144 17.9029C13.8952 17.9029 17.9029 13.8952 17.9029 8.95144C17.9029 4.00769 13.8952 0 8.95144 0C4.0077 0 0 4.00769 0 8.95144C0 13.8952 4.0077 17.9029 8.95144 17.9029Z" fill="url(#paint0_linear)"/>
<path d="M16.1799 3.66974L9.33096 10.5187C9.2486 10.601 9.0157 10.7573 8.95137 10.7573C8.88704 10.7573 8.79311 10.74 8.71066 10.6575L5.47066 7.41761C4.79317 6.7402 3.7642 6.7402 3.08671 7.41761C2.40922 8.0951 2.33978 9.05464 3.01727 9.73212L10.9599 17.6746C14.9366 16.763 17.9029 13.2028 17.9029 8.94957C17.9028 6.9749 17.2629 5.15 16.1799 3.66974Z" fill="url(#paint1_linear)"/>
<path d="M8.95143 14.0898C7.93373 14.0898 6.9769 13.6935 6.25732 12.9738L3.01739 9.73391C2.3399 9.05642 2.3399 7.95801 3.01739 7.28059C3.69481 6.60317 4.79322 6.60317 5.47071 7.28059L8.71072 10.5205C8.79316 10.603 8.88717 10.6202 8.95143 10.6202C9.01568 10.6202 9.10969 10.603 9.19214 10.5205L17.7834 1.9292C18.4609 1.25179 19.5593 1.25179 20.2368 1.9292C20.9143 2.60669 20.9143 3.70511 20.2368 4.38252L11.6455 12.9738C10.926 13.6935 9.96913 14.0898 8.95143 14.0898Z" fill="url(#paint2_linear)"/>
<defs>
<linearGradient id="paint0_linear" x1="4.78797" y1="4.78797" x2="13.416" y2="13.4159" gradientUnits="userSpaceOnUse">
<stop stop-color="#B9DD39"/>
<stop offset="1" stop-color="#90CC1C"/>
</linearGradient>
<linearGradient id="paint1_linear" x1="17.0877" y1="14.19" x2="13.8794" y2="10.9817" gradientUnits="userSpaceOnUse">
<stop stop-color="#66BB00" stop-opacity="0"/>
<stop offset="1" stop-color="#66BB00"/>
</linearGradient>
<linearGradient id="paint2_linear" x1="8.16361" y1="2.36809" x2="17.0999" y2="11.3043" gradientUnits="userSpaceOnUse">
<stop stop-color="#1CAFDF"/>
<stop offset="1" stop-color="#117A9D"/>
</linearGradient>
</defs>
</svg>
