<svg width="27" height="27" viewBox="0 0 27 27" fill="none" xmlns="http://www.w3.org/2000/svg">
<path d="M14.7217 25.7783C21.5028 25.1036 26.453 19.0594 25.7783 12.2783C25.1036 5.49717 19.0595 0.546929 12.2783 1.22163C5.4972 1.89634 0.546957 7.9405 1.22166 14.7216C1.89637 21.5028 7.94053 26.453 14.7217 25.7783Z" fill="#D7E057"/>
<path d="M13.4798 0.74231C6.42625 0.74231 0.6875 6.48075 0.6875 13.5346C0.6875 20.5884 6.42625 26.3268 13.4798 26.3268C20.5333 26.3268 26.272 20.5884 26.272 13.5346C26.272 6.48075 20.5336 0.74231 13.4798 0.74231ZM13.4798 25.4224C6.9249 25.4224 1.59195 20.0897 1.59195 13.5346C1.59195 6.97941 6.9249 1.64676 13.4798 1.64676C20.0346 1.64676 25.3676 6.97941 25.3676 13.5346C25.3676 20.0897 20.0346 25.4224 13.4798 25.4224Z" fill="#3A312A"/>
<path d="M21.4359 8.13231C20.8781 7.51397 19.9248 7.46483 19.3068 8.02257L10.8278 15.6715L7.87542 11.5029C7.39395 10.8234 6.45302 10.663 5.77408 11.1438C5.09453 11.625 4.93384 12.5659 5.41531 13.2452L9.34817 18.7982C9.59689 19.1497 9.9843 19.378 10.4121 19.4253C10.4679 19.4313 10.5231 19.4343 10.5782 19.4343C10.9494 19.4343 11.3096 19.2972 11.5882 19.046L21.3267 10.2608C21.9445 9.70365 21.9936 8.75036 21.4359 8.13231Z" fill="#87796F"/>
<path d="M21.7707 7.82932C21.4201 7.44071 20.9392 7.21158 20.4161 7.18475C19.8949 7.15912 19.3914 7.3361 19.0025 7.68702L10.9013 14.995L8.24313 11.2412C7.94044 10.814 7.48972 10.5303 6.97358 10.4423C6.45865 10.3533 5.93829 10.4724 5.51139 10.7748C5.08418 11.0775 4.80018 11.5282 4.71215 12.0444C4.62382 12.5602 4.742 13.08 5.04469 13.5069L8.97724 19.0599C9.30043 19.5166 9.80451 19.8136 10.3629 19.8754C10.4343 19.883 10.5058 19.8872 10.5763 19.8872C11.0617 19.8872 11.5281 19.7078 11.8893 19.3825L21.6278 10.5969C22.0164 10.2466 22.2452 9.76545 22.2721 9.24268C22.2995 8.71991 22.1213 8.21794 21.7707 7.82932ZM21.0224 9.92524L11.2842 18.7105C11.0605 18.9122 10.7479 19.0068 10.4608 18.9761C10.1615 18.9432 9.89014 18.7828 9.71618 18.5371L5.78333 12.9838C5.62052 12.7538 5.55691 12.4743 5.60424 12.1966C5.65157 11.9187 5.80443 11.676 6.03476 11.5129C6.21505 11.3853 6.42549 11.3184 6.64225 11.3184C6.70195 11.3184 6.76224 11.3238 6.82194 11.3338C7.0999 11.3811 7.3426 11.5343 7.5057 11.7643L10.4581 15.9332C10.5326 16.0387 10.649 16.1069 10.7774 16.1213C10.9058 16.1352 11.034 16.0939 11.1301 16.0077L19.6091 8.35843C19.8183 8.1697 20.0884 8.07473 20.3703 8.0883C20.6519 8.10277 20.9106 8.22608 21.0996 8.43531C21.2883 8.64424 21.3842 8.91467 21.3697 9.19595C21.355 9.47784 21.2317 9.73651 21.0224 9.92524Z" fill="#3A312A"/>
<path d="M13.4815 1.64648C13.1318 1.64648 12.7851 1.66156 12.4414 1.69171C15.4864 2.58711 18.043 4.62514 19.6137 7.30835C19.867 7.21188 20.1383 7.16967 20.4157 7.18474C20.9402 7.21187 21.4196 7.441 21.7723 7.82992C22.4959 8.63186 22.4296 9.87398 21.6276 10.5975L21.0608 11.1101C21.2176 11.8939 21.299 12.7049 21.299 13.534C21.299 19.1416 17.5606 23.8719 12.4414 25.3763C12.7851 25.4064 13.1318 25.4215 13.4815 25.4215C20.0358 25.4215 25.369 20.0882 25.369 13.534C25.369 6.97973 20.0358 1.64648 13.4815 1.64648Z" fill="#B9C239"/>
</svg>
