<svg width="18" height="18" viewBox="0 0 18 18" fill="none" xmlns="http://www.w3.org/2000/svg">
<path d="M8.99996 17.9999C13.9705 17.9999 17.9999 13.9705 17.9999 8.99997C17.9999 4.02942 13.9705 0 8.99996 0C4.02942 0 0 4.02942 0 8.99997C0 13.9705 4.02942 17.9999 8.99996 17.9999Z" fill="url(#paint0_linear)"/>
<path d="M11.6241 4.23719L8.99995 6.86135L6.37579 4.23712C5.69357 3.55497 4.81445 3.6306 4.13222 4.31275C3.45 4.99497 3.52564 5.94973 4.20786 6.63195L6.75646 9.18056L4.20786 11.6535C3.52564 12.3357 3.37444 13.3661 4.05667 14.0483L7.95686 17.9393C8.29922 17.9789 8.64717 17.9999 9.00003 17.9999C13.9706 17.9999 18 13.9705 18 8.9999C18 8.72365 17.9868 8.45051 17.9625 8.18061L13.9434 4.16148C13.2611 3.47941 12.3063 3.55497 11.6241 4.23719Z" fill="url(#paint1_linear)"/>
<path d="M11.4703 9.10499L13.9433 6.63203C14.6255 5.94981 14.6255 4.84385 13.9433 4.16163C13.2611 3.47949 12.1551 3.47949 11.4729 4.16163L8.99995 6.6346L6.52698 4.16163C5.84476 3.47949 4.73881 3.47949 4.05659 4.16163C3.37437 4.84385 3.37437 5.94981 4.05659 6.63203L6.52955 9.10499L4.05659 11.578C3.37437 12.2602 3.37437 13.3661 4.05659 14.0483C4.39766 14.3894 4.84474 14.56 5.29175 14.56C5.73875 14.56 6.18584 14.3894 6.52691 14.0483L8.99995 11.5754L11.4729 14.0483C11.814 14.3894 12.2611 14.56 12.7081 14.56C13.1551 14.56 13.6022 14.3894 13.9433 14.0483C14.6255 13.3661 14.6255 12.2602 13.9433 11.578L11.4703 9.10499Z" fill="url(#paint2_linear)"/>
<defs>
<linearGradient id="paint0_linear" x1="4.81393" y1="4.81393" x2="13.4887" y2="13.4887" gradientUnits="userSpaceOnUse">
<stop stop-color="#FF637B"/>
<stop offset="1" stop-color="#E63950"/>
</linearGradient>
<linearGradient id="paint1_linear" x1="15.0296" y1="15.1346" x2="8.5979" y2="8.70288" gradientUnits="userSpaceOnUse">
<stop stop-color="#E63950" stop-opacity="0"/>
<stop offset="0.0467" stop-color="#E4354B" stop-opacity="0.047"/>
<stop offset="0.4669" stop-color="#D31822" stop-opacity="0.467"/>
<stop offset="0.7991" stop-color="#C90709" stop-opacity="0.799"/>
<stop offset="1" stop-color="#C50000"/>
</linearGradient>
<linearGradient id="paint2_linear" x1="6.94823" y1="7.05327" x2="10.7534" y2="10.8585" gradientUnits="userSpaceOnUse">
<stop stop-color="#EDF5FF"/>
<stop offset="1" stop-color="#D5E8FE"/>
</linearGradient>
</defs>
</svg>
