<svg width="27" height="27" viewBox="0 0 27 27" fill="none" xmlns="http://www.w3.org/2000/svg">
<path d="M14.7217 25.7783C21.5028 25.1036 26.453 19.0594 25.7783 12.2783C25.1036 5.49717 19.0595 0.546929 12.2783 1.22163C5.4972 1.89634 0.546957 7.9405 1.22166 14.7216C1.89637 21.5028 7.94053 26.453 14.7217 25.7783Z" fill="#E09B57"/>
<path d="M13.4798 0.742126C6.42625 0.742126 0.6875 6.48057 0.6875 13.5344C0.6875 20.5882 6.42625 26.3267 13.4798 26.3267C20.5333 26.3267 26.272 20.5882 26.272 13.5344C26.272 6.48057 20.5336 0.742126 13.4798 0.742126ZM13.4798 25.4222C6.9249 25.4222 1.59195 20.0896 1.59195 13.5344C1.59195 6.97922 6.9249 1.64658 13.4798 1.64658C20.0346 1.64658 25.3676 6.97922 25.3676 13.5344C25.3676 20.0896 20.0346 25.4222 13.4798 25.4222Z" fill="#3A312A"/>
<path d="M13.4815 1.64642C13.1318 1.64642 12.7851 1.6615 12.4414 1.69164C15.4864 2.58705 18.043 4.62508 19.6137 7.30829C19.867 7.21181 20.1383 7.16961 20.4157 7.18468C20.9402 7.21181 21.4196 7.44094 21.7723 7.82986C22.4959 8.6318 22.4296 9.87392 21.6276 10.5975L21.0608 11.11C21.2176 11.8939 21.299 12.7048 21.299 13.5339C21.299 19.1415 17.5606 23.8718 12.4414 25.3762C12.7851 25.4064 13.1318 25.4214 13.4815 25.4214C20.0358 25.4214 25.369 20.0882 25.369 13.5339C25.369 6.97967 20.0358 1.64642 13.4815 1.64642Z" fill="#B6793D"/>
<path d="M14.3245 13.5001L17.829 9.99547C18.057 9.76751 18.057 9.39893 17.829 9.17097C17.601 8.94301 17.2324 8.94301 17.0045 9.17097L13.4999 12.6756L9.99553 9.17097C9.76747 8.94301 9.399 8.94301 9.17105 9.17097C8.94298 9.39893 8.94298 9.76751 9.17105 9.99547L12.6755 13.5001L9.17105 17.0047C8.94298 17.2326 8.94298 17.6012 9.17105 17.8292C9.28465 17.9429 9.43402 18 9.58329 18C9.73255 18 9.88182 17.9429 9.99553 17.8292L13.4999 14.3246L17.0045 17.8292C17.1182 17.9429 17.2674 18 17.4167 18C17.566 18 17.7152 17.9429 17.829 17.8292C18.057 17.6012 18.057 17.2326 17.829 17.0047L14.3245 13.5001Z" fill="#3A312A"/>
</svg>
