<svg width="27" height="27" viewBox="0 0 27 27" fill="none" xmlns="http://www.w3.org/2000/svg">
<path d="M24.0469 0.79375H24.0469L2.95312 0.79375L2.95307 0.79375C2.38059 0.794436 1.83176 1.02215 1.42696 1.42696C1.02215 1.83176 0.794436 2.38059 0.79375 2.95307V2.95312L0.79375 18.9844L0.79375 18.9844C0.794436 19.5569 1.02215 20.1057 1.42696 20.5105C1.83176 20.9153 2.38059 21.1431 2.95307 21.1437H2.95312H9.86596L8.95424 23.575H8.01562C7.6667 23.575 7.33207 23.7136 7.08534 23.9603C6.83861 24.2071 6.7 24.5417 6.7 24.8906V25.7344C6.7 25.8595 6.74971 25.9795 6.83821 26.068C6.9267 26.1565 7.04673 26.2062 7.17188 26.2062H19.8281C19.9533 26.2062 20.0733 26.1565 20.1618 26.068C20.2503 25.9795 20.3 25.8595 20.3 25.7344V24.8906C20.3 24.5417 20.1614 24.2071 19.9147 23.9603C19.6679 23.7136 19.3333 23.575 18.9844 23.575H18.0458L17.134 21.1437H24.0469H24.0469C24.6194 21.1431 25.1682 20.9153 25.573 20.5105C25.9778 20.1057 26.2056 19.5569 26.2062 18.9844V18.9844V2.95312V2.95307C26.2056 2.38059 25.9778 1.83176 25.573 1.42696C25.1682 1.02215 24.6194 0.794436 24.0469 0.79375ZM2.95312 1.7375H24.0469C24.3693 1.7375 24.6785 1.86557 24.9065 2.09355C25.1344 2.32152 25.2625 2.63072 25.2625 2.95312V15.9812H1.7375V2.95312C1.7375 2.63072 1.86557 2.32152 2.09355 2.09355C2.32152 1.86557 2.63072 1.7375 2.95312 1.7375ZM19.3563 24.8906V25.2625H7.64375V24.8906C7.64375 24.792 7.68293 24.6974 7.75267 24.6277C7.82241 24.5579 7.917 24.5187 8.01562 24.5187H18.9844C19.083 24.5187 19.1776 24.5579 19.2473 24.6277C19.3171 24.6974 19.3563 24.792 19.3563 24.8906ZM16.1261 21.1437L17.0378 23.575H9.96217L10.8739 21.1437H16.1261ZM24.0469 20.2H2.95312C2.63072 20.2 2.32152 20.0719 2.09355 19.844C1.86557 19.616 1.7375 19.3068 1.7375 18.9844V16.925H25.2625V18.9844C25.2625 19.3068 25.1344 19.616 24.9065 19.844C24.6785 20.0719 24.3693 20.2 24.0469 20.2Z" fill="white" stroke="white" stroke-width="0.1"/>
<path d="M13.5 17.2969C13.2497 17.2969 13.005 17.3711 12.7969 17.5102C12.5887 17.6492 12.4265 17.8469 12.3307 18.0782C12.2349 18.3094 12.2099 18.5639 12.2587 18.8094C12.3075 19.0549 12.4281 19.2804 12.6051 19.4574C12.7821 19.6344 13.0076 19.755 13.2531 19.8038C13.4986 19.8526 13.7531 19.8276 13.9843 19.7318C14.2156 19.636 14.4133 19.4738 14.5523 19.2656C14.6914 19.0575 14.7656 18.8128 14.7656 18.5625C14.7656 18.2268 14.6323 17.9049 14.3949 17.6676C14.1576 17.4302 13.8357 17.2969 13.5 17.2969ZM13.5 18.9844C13.4166 18.9844 13.335 18.9596 13.2656 18.9133C13.1962 18.8669 13.1422 18.801 13.1102 18.7239C13.0783 18.6469 13.07 18.562 13.0862 18.4802C13.1025 18.3984 13.1427 18.3232 13.2017 18.2642C13.2607 18.2052 13.3359 18.165 13.4177 18.1487C13.4995 18.1325 13.5844 18.1408 13.6614 18.1727C13.7385 18.2047 13.8044 18.2587 13.8508 18.3281C13.8971 18.3975 13.9219 18.4791 13.9219 18.5625C13.9219 18.6744 13.8774 18.7817 13.7983 18.8608C13.7192 18.9399 13.6119 18.9844 13.5 18.9844Z" fill="white"/>
</svg>
