<svg width="26" height="26" viewBox="0 0 26 26" fill="none" xmlns="http://www.w3.org/2000/svg">
<g clip-path="url(#clip0)">
<path d="M26 -9.15527e-05H0V25.9999H26V-9.15527e-05Z" fill="#F0F0F0"/>
<path d="M0 15.4374H10.5625V25.9999H15.4375V15.4374H26V10.5624H15.4375V-9.15527e-05H10.5625V10.5624H0V15.4374Z" fill="#D80027"/>
<path d="M20.6641 16.9565L26.0002 22.2925V16.9565H20.6641Z" fill="#0052B4"/>
<path d="M16.957 16.9565L26.0005 25.9999V23.4426L19.5144 16.9565H16.957Z" fill="#0052B4"/>
<path d="M23.5917 25.9999L16.957 19.3647V25.9999H23.5917Z" fill="#0052B4"/>
<path d="M16.957 16.9565L26.0005 25.9999V23.4426L19.5144 16.9565H16.957Z" fill="#F0F0F0"/>
<path d="M16.957 16.9565L26.0005 25.9999V23.4426L19.5144 16.9565H16.957Z" fill="#D80027"/>
<path d="M4.07784 16.9565L0 21.0343V16.9565H4.07784Z" fill="#0052B4"/>
<path d="M9.04507 18.1064V25.9997H1.15234L9.04507 18.1064Z" fill="#0052B4"/>
<path d="M6.48598 16.9566L0 23.4427V26L9.04333 16.9566H6.48598Z" fill="#D80027"/>
<path d="M5.33609 9.04334L0 3.70724V9.04334H5.33609Z" fill="#0052B4"/>
<path d="M9.04348 9.04339L0 -9.15527e-05V2.55725L6.48614 9.04339H9.04348Z" fill="#0052B4"/>
<path d="M2.41016 -9.15527e-05L9.04478 6.63514V-9.15527e-05H2.41016Z" fill="#0052B4"/>
<path d="M9.04348 9.04339L0 -9.15527e-05V2.55725L6.48614 9.04339H9.04348Z" fill="#F0F0F0"/>
<path d="M9.04348 9.04339L0 -9.15527e-05V2.55725L6.48614 9.04339H9.04348Z" fill="#D80027"/>
<path d="M21.9229 9.04332L26.0007 4.96548V9.04332H21.9229Z" fill="#0052B4"/>
<path d="M16.957 7.89336V2.28882e-05H24.8498L16.957 7.89336Z" fill="#0052B4"/>
<path d="M19.5144 9.04324L26.0004 2.5572V-9.15527e-05L16.957 9.04324H19.5144Z" fill="#D80027"/>
</g>
<defs>
<clipPath id="clip0">
<rect width="26" height="26" fill="white"/>
</clipPath>
</defs>
</svg>
