<svg width="23" height="23" viewBox="0 0 23 23" fill="none" xmlns="http://www.w3.org/2000/svg">
<g opacity="1">
<g opacity="1">
<path fill-rule="evenodd" clip-rule="evenodd" d="M11.5 21.6061C17.0814 21.6061 21.6061 17.0814 21.6061 11.5C21.6061 5.91858 17.0814 1.39394 11.5 1.39394C5.91858 1.39394 1.39394 5.91858 1.39394 11.5C1.39394 17.0814 5.91858 21.6061 11.5 21.6061ZM11.5 23C17.8513 23 23 17.8513 23 11.5C23 5.14873 17.8513 0 11.5 0C5.14873 0 0 5.14873 0 11.5C0 17.8513 5.14873 23 11.5 23Z" fill="white"/>
</g>
<circle opacity="1" cx="5.75028" cy="11.5" r="1.64286" fill="white"/>
<circle opacity="1" cx="11.5003" cy="11.5" r="1.64286" fill="white"/>
<circle opacity="1" cx="17.2503" cy="11.5" r="1.64286" fill="white"/>
</g>
</svg>
