<svg width="24" height="24" viewBox="0 0 24 24" fill="none" xmlns="http://www.w3.org/2000/svg">
<path d="M13.3458 9.36907V18.8572H10.655V9.36907H13.3458ZM13.7147 6.60401C13.7147 6.8013 13.6677 6.98625 13.5737 7.15887C13.4796 7.3315 13.353 7.48254 13.1939 7.61201C13.042 7.74148 12.8612 7.84628 12.6514 7.92643C12.4416 8.00041 12.2174 8.0374 11.9787 8.0374C11.7473 8.0374 11.5266 8.00041 11.3169 7.92643C11.1143 7.84628 10.9371 7.74148 10.7852 7.61201C10.6333 7.48254 10.5104 7.3315 10.4163 7.15887C10.3295 6.98625 10.2861 6.8013 10.2861 6.60401C10.2861 6.40057 10.3295 6.20945 10.4163 6.03066C10.5104 5.85187 10.6333 5.69774 10.7852 5.56828C10.9371 5.43881 11.1143 5.33708 11.3169 5.2631C11.5266 5.18296 11.7473 5.14288 11.9787 5.14288C12.2174 5.14288 12.4416 5.18296 12.6514 5.2631C12.8612 5.33708 13.042 5.43881 13.1939 5.56828C13.353 5.69774 13.4796 5.85187 13.5737 6.03066C13.6677 6.20945 13.7147 6.40057 13.7147 6.60401Z" fill="white"/>
<path fill-rule="evenodd" clip-rule="evenodd" d="M12 22.5455C17.8241 22.5455 22.5455 17.8241 22.5455 12C22.5455 6.17591 17.8241 1.45455 12 1.45455C6.17591 1.45455 1.45455 6.17591 1.45455 12C1.45455 17.8241 6.17591 22.5455 12 22.5455ZM12 24C18.6274 24 24 18.6274 24 12C24 5.37258 18.6274 0 12 0C5.37258 0 0 5.37258 0 12C0 18.6274 5.37258 24 12 24Z" fill="white"/>
</svg>
