<svg width="21" height="21" viewBox="0 0 21 21" fill="none" xmlns="http://www.w3.org/2000/svg">
<g clip-path="url(#clip0)">
<path d="M21 -6.10352e-05H0V20.9999H21V-6.10352e-05Z" fill="#F0F0F0"/>
<path d="M0 12.4687H8.53125V20.9999H12.4688V12.4687H21V8.53119H12.4688V-6.10352e-05H8.53125V8.53119H0V12.4687Z" fill="#D80027"/>
<path d="M16.6895 13.6956L20.9994 18.0055V13.6956H16.6895Z" fill="#0052B4"/>
<path d="M13.6953 13.6956L20.9997 20.9999V18.9344L15.7609 13.6956H13.6953Z" fill="#0052B4"/>
<path d="M19.054 21L13.6953 15.6407V21H19.054Z" fill="#0052B4"/>
<path d="M13.6953 13.6956L20.9997 20.9999V18.9344L15.7609 13.6956H13.6953Z" fill="#F0F0F0"/>
<path d="M13.6953 13.6956L20.9997 20.9999V18.9344L15.7609 13.6956H13.6953Z" fill="#D80027"/>
<path d="M3.29364 13.6956L0 16.9892V13.6956H3.29364Z" fill="#0052B4"/>
<path d="M7.30556 14.6244V20.9998H0.930664L7.30556 14.6244Z" fill="#0052B4"/>
<path d="M5.23868 13.6958L0 18.9345V21L7.30423 13.6958H5.23868Z" fill="#D80027"/>
<path d="M4.30992 7.30425L0 2.99432V7.30425H4.30992Z" fill="#0052B4"/>
<path d="M7.30435 7.30429L0 -6.10352e-05V2.06549L5.2388 7.30429H7.30435Z" fill="#0052B4"/>
<path d="M1.94629 -6.10352e-05L7.30502 5.35916V-6.10352e-05H1.94629Z" fill="#0052B4"/>
<path d="M7.30435 7.30429L0 -6.10352e-05V2.06549L5.2388 7.30429H7.30435Z" fill="#F0F0F0"/>
<path d="M7.30435 7.30429L0 -6.10352e-05V2.06549L5.2388 7.30429H7.30435Z" fill="#D80027"/>
<path d="M17.7061 7.30424L20.9997 4.0106V7.30424H17.7061Z" fill="#0052B4"/>
<path d="M13.6953 6.37542V3.05176e-05H20.0702L13.6953 6.37542Z" fill="#0052B4"/>
<path d="M15.7609 7.30417L20.9995 2.06544V-6.10352e-05L13.6953 7.30417H15.7609Z" fill="#D80027"/>
</g>
<defs>
<clipPath id="clip0">
<rect width="21" height="21" fill="white"/>
</clipPath>
</defs>
</svg>
