<svg width="44" height="32" viewBox="0 0 44 32" fill="none" xmlns="http://www.w3.org/2000/svg">
<path d="M5.5 28.375H3.4375C3.25516 28.375 3.0803 28.4474 2.95136 28.5764C2.82243 28.7053 2.75 28.8802 2.75 29.0625C2.75 29.2448 2.82243 29.4197 2.95136 29.5486C3.0803 29.6776 3.25516 29.75 3.4375 29.75H5.5C5.68234 29.75 5.8572 29.6776 5.98614 29.5486C6.11507 29.4197 6.1875 29.2448 6.1875 29.0625C6.1875 28.8802 6.11507 28.7053 5.98614 28.5764C5.8572 28.4474 5.68234 28.375 5.5 28.375Z" fill="#50B14C"/>
<path d="M8.25 28.375H7.5625C7.38016 28.375 7.2053 28.4474 7.07636 28.5764C6.94743 28.7053 6.875 28.8802 6.875 29.0625C6.875 29.2448 6.94743 29.4197 7.07636 29.5486C7.2053 29.6776 7.38016 29.75 7.5625 29.75H8.25C8.43234 29.75 8.6072 29.6776 8.73614 29.5486C8.86507 29.4197 8.9375 29.2448 8.9375 29.0625C8.9375 28.8802 8.86507 28.7053 8.73614 28.5764C8.6072 28.4474 8.43234 28.375 8.25 28.375Z" fill="#50B14C"/>
<path d="M40.5625 8.4375H39.1875V2.9375C39.1865 2.20845 38.8965 1.50953 38.381 0.994011C37.8655 0.478493 37.1666 0.188455 36.4375 0.1875H7.5625C6.83341 0.188319 6.13441 0.478313 5.61886 0.993861C5.10331 1.50941 4.81332 2.20841 4.8125 2.9375V15.3125H3.4375C2.70841 15.3133 2.00941 15.6033 1.49386 16.1189C0.978313 16.6344 0.688319 17.3334 0.6875 18.0625V29.0625C0.688319 29.7916 0.978313 30.4906 1.49386 31.0061C2.00941 31.5217 2.70841 31.8117 3.4375 31.8125H10.3125C11.0416 31.8115 11.7405 31.5215 12.256 31.006C12.7715 30.4905 13.0615 29.7916 13.0625 29.0625V27H19.0566L18.7129 28.375H16.5C16.3177 28.375 16.1428 28.4474 16.0139 28.5764C15.8849 28.7053 15.8125 28.8802 15.8125 29.0625V31.125C15.8125 31.3073 15.8849 31.4822 16.0139 31.6111C16.1428 31.7401 16.3177 31.8125 16.5 31.8125H40.5625C41.2916 31.8115 41.9905 31.5215 42.506 31.006C43.0215 30.4905 43.3115 29.7916 43.3125 29.0625V11.1875C43.3115 10.4584 43.0215 9.75953 42.506 9.24401C41.9905 8.72849 41.2916 8.43845 40.5625 8.4375ZM11.6875 29.0625C11.687 29.427 11.542 29.7765 11.2842 30.0342C11.0265 30.292 10.677 30.437 10.3125 30.4375H3.4375C3.07297 30.437 2.72351 30.292 2.46576 30.0342C2.208 29.7765 2.06298 29.427 2.0625 29.0625V18.0625C2.06298 17.698 2.208 17.3485 2.46576 17.0908C2.72351 16.833 3.07297 16.688 3.4375 16.6875H4.31664L4.84773 18.2799C4.89337 18.4168 4.98092 18.5359 5.09799 18.6202C5.21505 18.7046 5.3557 18.75 5.5 18.75H8.25C8.3943 18.75 8.53495 18.7046 8.65201 18.6202C8.76908 18.5359 8.85663 18.4168 8.90227 18.2799L9.43336 16.6875H10.3125C10.677 16.688 11.0265 16.833 11.2842 17.0908C11.542 17.3485 11.687 17.698 11.6875 18.0625V29.0625ZM5.76641 16.6875H7.98359L7.75414 17.375H5.99586L5.76641 16.6875ZM13.0625 25.625V23.5625H25.4375V25.625H13.0625ZM25.4375 27V28.375H25.2871L24.9434 27H25.4375ZM23.8691 28.375H20.1309L20.4746 27H23.5254L23.8691 28.375ZM17.1875 30.4375V29.75H25.5243C25.5872 29.991 25.6826 30.2222 25.8079 30.4375H17.1875ZM25.4375 11.1875V22.1875H13.0625V18.0625C13.0615 17.3334 12.7715 16.6345 12.256 16.119C11.7405 15.6035 11.0416 15.3135 10.3125 15.3125H6.1875V2.9375C6.18798 2.57297 6.333 2.22351 6.59076 1.96576C6.84851 1.708 7.19797 1.56298 7.5625 1.5625H36.4375C36.802 1.56298 37.1515 1.708 37.4092 1.96576C37.667 2.22351 37.812 2.57297 37.8125 2.9375V8.4375H28.1875C27.4584 8.43845 26.7595 8.72849 26.244 9.24401C25.7285 9.75953 25.4385 10.4584 25.4375 11.1875ZM41.9375 29.0625C41.937 29.427 41.792 29.7765 41.5342 30.0342C41.2765 30.292 40.927 30.437 40.5625 30.4375H28.1875C27.823 30.437 27.4735 30.292 27.2158 30.0342C26.958 29.7765 26.813 29.427 26.8125 29.0625V11.1875C26.813 10.823 26.958 10.4735 27.2158 10.2158C27.4735 9.958 27.823 9.81298 28.1875 9.8125H40.5625C40.927 9.81298 41.2765 9.958 41.5342 10.2158C41.792 10.4735 41.937 10.823 41.9375 11.1875V29.0625Z" fill="#50B14C"/>
<path d="M40.5625 10.5H28.1875C28.0052 10.5 27.8303 10.5724 27.7014 10.7014C27.5724 10.8303 27.5 11.0052 27.5 11.1875V27C27.5 27.1823 27.5724 27.3572 27.7014 27.4861C27.8303 27.6151 28.0052 27.6875 28.1875 27.6875H40.5625C40.7448 27.6875 40.9197 27.6151 41.0486 27.4861C41.1776 27.3572 41.25 27.1823 41.25 27V11.1875C41.25 11.0052 41.1776 10.8303 41.0486 10.7014C40.9197 10.5724 40.7448 10.5 40.5625 10.5ZM39.875 26.3125H28.875V11.875H39.875V26.3125Z" fill="#50B14C"/>
<path d="M33.6875 29.75C34.0672 29.75 34.375 29.4422 34.375 29.0625C34.375 28.6828 34.0672 28.375 33.6875 28.375C33.3078 28.375 33 28.6828 33 29.0625C33 29.4422 33.3078 29.75 33.6875 29.75Z" fill="#50B14C"/>
</svg>
