<svg width="25" height="25" viewBox="0 0 25 25" fill="none" xmlns="http://www.w3.org/2000/svg">
<g clip-path="url(#clip0)">
<path d="M20.4816 0H4.51774C3.68742 0 3.01172 0.675697 3.01172 1.50602V23.4942C3.01172 24.3246 3.68742 25.0003 4.51774 25.0003H20.4816C21.3119 25.0003 21.9876 24.3246 21.9876 23.4942V1.50602C21.9876 0.67544 21.3119 0 20.4816 0ZM12.4997 0.865969C12.6243 0.865969 12.7256 0.967259 12.7256 1.09188C12.7256 1.21651 12.6243 1.31754 12.4997 1.31754C12.3751 1.31754 12.2738 1.21625 12.2738 1.09163C12.2738 0.967002 12.3751 0.865969 12.4997 0.865969ZM12.4997 24.1715C12.2502 24.1715 12.0478 23.9694 12.0478 23.7196C12.0478 23.4699 12.2502 23.2676 12.4997 23.2676C12.7492 23.2676 12.9515 23.4699 12.9515 23.7196C12.9515 23.9694 12.7492 24.1715 12.4997 24.1715ZM20.7829 22.7783H4.21643V2.22121H20.7829V22.7783Z" fill="white"/>
</g>
<defs>
<clipPath id="clip0">
<rect width="25" height="25" fill="white"/>
</clipPath>
</defs>
</svg>
