<svg width="55" height="34" viewBox="0 0 55 34" fill="none" xmlns="http://www.w3.org/2000/svg">
<rect x="0.5" y="0.5" width="54" height="33" rx="2.5" fill="white" stroke="#8E98AC"/>
<path d="M28.4498 10H28.033V24H28.4498V21.3031H33.7252V19.6704H29.6662V17.7932H33.1375V16.1473H29.6662V14.3296H33.7252V12.6837H28.4498V10ZM12.0293 17.9717L10.5328 15.6251L8.61267 12.7167L8.59217 12.6903H7V21.3031H8.76983V16.0085L10.0887 18.0708L12.207 21.3031H13.8128V12.6903H12.0362V17.9717H12.0293ZM14.8037 21.3031H20.6393V19.6704H16.5803V17.7932H20.0517V16.1473H16.5803V14.3296H20.6393V12.6837H14.8037V21.3031ZM21.3568 14.3494H23.4V21.3097H25.1767V14.3494H27.2062V12.6903H21.3568V14.3494ZM39.6497 17.9849L38.1532 15.6383L36.233 12.7299L36.2125 12.6969H34.6203V21.3097H36.3833V16.0151L37.7022 18.0774L39.8205 21.3097H41.4263V12.7035H39.6497V17.9849ZM42.1507 12.7035V14.3626H44.1938V21.3229H45.9705V14.3626H48V12.7035H42.1507Z" fill="#50B14C"/>
</svg>
