<svg width="43" height="43" viewBox="0 0 43 43" fill="none" xmlns="http://www.w3.org/2000/svg">
<path d="M9.06458 24.1431C8.90097 26.0855 6.87695 26.3922 6.87695 26.3922C8.61492 26.474 9.04795 28.7536 9.04795 28.7536C9.08507 27.1282 11.2855 26.3681 11.2855 26.3681C9.63701 26.2696 9.06458 24.1431 9.06458 24.1431Z" fill="#D6DF58"/>
<path d="M11.3004 26.1166C9.85521 26.0301 9.31301 24.0969 9.30764 24.0773C9.27555 23.9592 9.16285 23.8809 9.04174 23.8922C8.91996 23.9033 8.82372 24 8.81347 24.1218C8.66902 25.8376 6.91324 26.1314 6.83917 26.1428C6.71101 26.1623 6.61863 26.2757 6.62534 26.405C6.63206 26.5345 6.7357 26.6376 6.8652 26.6437C8.38146 26.7151 8.79651 28.7799 8.80054 28.8009C8.82355 28.9203 8.92803 29.0053 9.04779 29.0053C9.05484 29.0053 9.0619 29.005 9.06895 29.0045C9.19728 28.9937 9.29689 28.8881 9.29991 28.7592C9.33266 27.33 11.3478 26.6131 11.3681 26.6061C11.4815 26.5668 11.5515 26.4525 11.5351 26.3336C11.5184 26.2145 11.4203 26.1237 11.3004 26.1166ZM9.02192 27.8544C8.79399 27.3285 8.39909 26.6942 7.74754 26.3633C8.23986 26.1275 8.82405 25.7061 9.12522 24.9739C9.38574 25.4897 9.83052 26.1295 10.5251 26.4391C10.0198 26.7144 9.36223 27.179 9.02192 27.8544Z" fill="#3A312A"/>
<path d="M5.4194 26.9951C5.30367 28.3689 3.87207 28.5858 3.87207 28.5858C5.10127 28.6436 5.40764 30.2561 5.40764 30.2561C5.43384 29.1065 6.99024 28.5688 6.99024 28.5688C5.8242 28.4991 5.4194 26.9951 5.4194 26.9951Z" fill="#D6DF58"/>
<path d="M7.00503 28.3176C6.03653 28.2596 5.66599 26.9426 5.66246 26.9293C5.63038 26.8114 5.51885 26.7331 5.39673 26.7442C5.27495 26.7551 5.17854 26.8522 5.16829 26.974C5.07104 28.1279 3.88384 28.3288 3.83429 28.3367C3.70613 28.3562 3.61374 28.4696 3.62046 28.5989C3.62718 28.7284 3.73082 28.8316 3.86032 28.8376C4.87401 28.8853 5.15754 30.2897 5.16023 30.3035C5.18291 30.4232 5.28772 30.5084 5.40748 30.5084C5.41454 30.5084 5.42142 30.5081 5.42848 30.5076C5.55697 30.497 5.65658 30.3911 5.6596 30.2621C5.68144 29.3032 7.05912 28.8119 7.07256 28.8072C7.18627 28.7679 7.25632 28.6538 7.23985 28.5348C7.22323 28.4157 7.12496 28.3246 7.00503 28.3176ZM5.39522 29.4589C5.24002 29.1421 5.00217 28.7959 4.64826 28.572C4.96001 28.3972 5.26924 28.1305 5.46644 27.7463C5.64398 28.0611 5.91223 28.4105 6.29637 28.6238C5.98546 28.8085 5.62635 29.0838 5.39522 29.4589Z" fill="#3A312A"/>
<path d="M5.41318 22.5176C5.30283 23.8919 3.87207 24.1145 3.87207 24.1145C5.1016 24.1675 5.41419 25.7787 5.41419 25.7787C5.43603 24.6289 6.99024 24.0852 6.99024 24.0852C5.82387 24.0201 5.41318 22.5176 5.41318 22.5176Z" fill="#D6DF58"/>
<path d="M7.00425 23.8342C6.03893 23.7803 5.66251 22.474 5.65613 22.4515C5.62388 22.3338 5.51167 22.2548 5.38973 22.2674C5.26795 22.2787 5.17187 22.3759 5.16213 22.4981C5.06941 23.6525 3.88305 23.8581 3.83333 23.8662C3.70534 23.8861 3.61329 23.9999 3.62051 24.129C3.62774 24.2585 3.73188 24.3613 3.86121 24.3669C4.87507 24.4105 5.16415 25.8136 5.16683 25.8274C5.19001 25.9466 5.29449 26.0313 5.41392 26.0313C5.42114 26.0313 5.42853 26.0309 5.43592 26.0303C5.56442 26.0192 5.66369 25.913 5.66604 25.784C5.68418 24.8251 7.05967 24.3284 7.07328 24.3237C7.18666 24.2841 7.25637 24.1697 7.23957 24.0506C7.22277 23.9317 7.12417 23.841 7.00425 23.8342ZM5.3988 24.982C5.24225 24.6657 5.00323 24.3205 4.64832 24.098C4.95923 23.9218 5.26762 23.6537 5.46313 23.2689C5.64185 23.583 5.91144 23.9313 6.29659 24.143C5.98669 24.3293 5.62841 24.6061 5.3988 24.982Z" fill="#3A312A"/>
<path d="M26.5696 30.5829H23.2245V28.4089C22.2991 29.0504 21.3419 29.4288 20.4128 29.4288C19.5218 29.4288 18.5813 29.0467 17.66 28.3975H17.6032V30.5827H14.2563C11.4599 30.5827 9.19336 32.8493 9.19336 35.6456V40.2337H31.6325V35.6456C31.6325 32.8495 29.3659 30.5829 26.5696 30.5829Z" fill="#F7E3C7"/>
<path d="M26.5696 30.3311H23.4764V28.4092C23.4764 28.3155 23.4245 28.2295 23.3414 28.186C23.2584 28.1426 23.1583 28.1487 23.081 28.2023C22.1478 28.8491 21.2502 29.1772 20.413 29.1772C19.6108 29.1772 18.7333 28.8456 17.8053 28.1919C17.7628 28.162 17.7121 28.146 17.6602 28.146H17.6034C17.4641 28.146 17.3514 28.2589 17.3514 28.3979V30.3314H14.2563C11.3257 30.3314 8.94141 32.7156 8.94141 35.6465V40.2345C8.94141 40.3736 9.05411 40.4865 9.19336 40.4865H12.5353C12.6745 40.4865 12.7872 40.3736 12.7872 40.2345C12.7872 40.0955 12.6745 39.9826 12.5353 39.9826H9.44531V35.6465C9.44531 32.9936 11.6035 30.8353 14.2563 30.8353H17.6032C17.7425 30.8353 17.8552 30.7225 17.8552 30.5834V28.8313C18.7478 29.3955 19.6066 29.6812 20.4128 29.6812C21.2323 29.6812 22.0915 29.41 22.9725 28.874V30.5834C22.9725 30.7225 23.0852 30.8353 23.2245 30.8353H26.5696C29.2223 30.8353 31.3805 32.9936 31.3805 35.6465V39.9826H14.8532C14.714 39.9826 14.6013 40.0955 14.6013 40.2345C14.6013 40.3736 14.714 40.4865 14.8532 40.4865H31.6325C31.7717 40.4865 31.8844 40.3736 31.8844 40.2345V35.6465C31.8844 32.7154 29.5001 30.3311 26.5696 30.3311Z" fill="#3A312A"/>
<path d="M26.5688 30.582H25.6684L25.6869 30.5955L20.4127 33.8574L15.1385 30.5955L15.157 30.582H14.2566C11.46 30.582 9.19238 32.8496 9.19238 35.6463V40.2335H31.633V35.6463C31.633 32.8496 29.3654 30.582 26.5688 30.582Z" fill="#EF6D7A"/>
<path d="M26.5688 30.3301H25.6684C25.5841 30.3301 25.5072 30.3721 25.461 30.4389L20.4127 33.5611L15.3644 30.4389C15.3182 30.3721 15.2413 30.3301 15.157 30.3301H14.2566C11.3252 30.3301 8.94043 32.7149 8.94043 35.6463V40.2335C8.94043 40.3726 9.05314 40.4855 9.19238 40.4855H12.535C12.6742 40.4855 12.7869 40.3726 12.7869 40.2335C12.7869 40.0944 12.6742 39.9816 12.535 39.9816H9.44434V35.6463C9.44434 32.9927 11.6031 30.834 14.2566 30.834H15.0451L20.2802 34.0716C20.3613 34.1218 20.4641 34.1218 20.5452 34.0716L25.7803 30.834H26.5688C29.2223 30.834 31.3811 32.9929 31.3811 35.6463V39.9816H14.8529C14.7137 39.9816 14.601 40.0944 14.601 40.2335C14.601 40.3726 14.7137 40.4855 14.8529 40.4855H31.633C31.7723 40.4855 31.885 40.3726 31.885 40.2335V35.6463C31.885 32.7151 29.5 30.3301 26.5688 30.3301Z" fill="#3A312A"/>
<path fill-rule="evenodd" clip-rule="evenodd" d="M11.7188 16.04C10.6186 16.04 9.72656 16.932 9.72656 18.0323C9.72656 19.1327 10.6185 20.0244 11.7188 20.0244C12.819 20.0244 13.711 19.1325 13.711 18.0323C13.711 16.9321 12.8192 16.04 11.7188 16.04Z" fill="#F7E3C7"/>
<path d="M11.7187 15.7881C10.4812 15.7881 9.47461 16.7949 9.47461 18.0323C9.47461 19.2697 10.4814 20.2764 11.7187 20.2764C12.9559 20.2764 13.9627 19.2696 13.9627 18.0323C13.9627 16.7949 12.9561 15.7881 11.7187 15.7881ZM11.7187 19.7725C10.7591 19.7725 9.97852 18.9919 9.97852 18.0323C9.97852 17.0727 10.7592 16.292 11.7187 16.292C12.6781 16.292 13.4588 17.0727 13.4588 18.0323C13.4588 18.9919 12.6783 19.7725 11.7187 19.7725Z" fill="#3A312A"/>
<path fill-rule="evenodd" clip-rule="evenodd" d="M29.1064 16.04C28.0062 16.04 27.1143 16.932 27.1143 18.0323C27.1143 19.1327 28.0062 20.0244 29.1064 20.0244C30.2066 20.0244 31.0985 19.1325 31.0985 18.0323C31.0985 16.9321 30.2066 16.04 29.1064 16.04Z" fill="#F7E3C7"/>
<path d="M29.1064 15.7881C27.8689 15.7881 26.8623 16.7949 26.8623 18.0323C26.8623 19.2697 27.8691 20.2764 29.1064 20.2764C30.3436 20.2764 31.3504 19.2696 31.3504 18.0323C31.3504 16.7949 30.3436 15.7881 29.1064 15.7881ZM29.1064 19.7725C28.1468 19.7725 27.3662 18.9919 27.3662 18.0323C27.3662 17.0727 28.1468 16.292 29.1064 16.292C30.066 16.292 30.8465 17.0727 30.8465 18.0323C30.8465 18.9919 30.066 19.7725 29.1064 19.7725Z" fill="#3A312A"/>
<path d="M29.6545 12.3776C29.6545 10.0294 28.6853 7.89787 27.1081 6.32568C27.2038 6.59947 27.2542 6.87662 27.2542 7.15041C27.2542 8.0776 26.6159 8.92416 25.5645 9.5658C25.7828 9.92862 26.0549 10.2612 26.3741 10.5535C27.9731 12.0148 29.0297 14.0573 29.2144 16.345C29.2379 16.3131 29.29 16.2963 29.3303 16.2812C29.7083 16.1435 29.6545 12.6799 29.6545 12.3776Z" fill="#87796F"/>
<path d="M29.9081 12.4849L29.9074 12.3779C29.9074 10.0447 28.9768 7.83204 27.2869 6.14765C27.2036 6.06484 27.0741 6.05039 26.9748 6.11288C26.8754 6.17553 26.8324 6.29831 26.8712 6.40934C26.9587 6.65978 27.0032 6.90922 27.0032 7.15092C27.0032 7.9523 26.4461 8.73386 25.4342 9.35132C25.316 9.42354 25.2782 9.57757 25.3496 9.69632C25.581 10.081 25.8687 10.432 26.205 10.7401C27.8098 12.2064 28.7896 14.2044 28.9642 16.3659C28.9726 16.4707 29.0454 16.5592 29.1465 16.5879C29.1693 16.5945 29.1923 16.5975 29.2154 16.5975C29.279 16.5975 29.3408 16.5733 29.3877 16.5293C29.3941 16.5268 29.4006 16.5248 29.4068 16.5224C29.4072 16.5224 29.4144 16.5196 29.4179 16.5184C29.6365 16.4384 29.9358 16.3277 29.9081 12.4849ZM29.3276 15.3142C28.9575 13.4177 27.9909 11.6891 26.5452 10.368C26.306 10.149 26.0943 9.90561 25.9138 9.64224C26.9436 8.94937 27.5071 8.07173 27.5071 7.15076V7.13732C28.7356 8.62871 29.4035 10.4606 29.4035 12.3779L29.4042 12.4886C29.4144 13.9268 29.3759 14.793 29.3276 15.3142Z" fill="#3A312A"/>
<path d="M26.375 10.5517C26.0559 10.2611 25.7838 9.92852 25.5654 9.56738C24.3359 10.3199 22.5386 10.7952 20.5364 10.7952C20.0611 10.7952 19.5975 10.7684 19.149 10.7163C15.9307 10.3501 12.8452 12.27 11.8256 15.3455C11.7265 15.6411 11.6576 15.925 11.6257 16.1887C11.6207 16.2257 11.6173 16.2626 11.6139 16.2996C11.5938 16.5515 11.582 16.8068 11.582 17.0655C11.582 21.9416 16.4666 29.4297 20.4138 29.4297C24.5475 29.4297 29.2439 21.9416 29.2439 17.0655C29.2438 14.4855 28.1387 12.1659 26.375 10.5517Z" fill="#F7E3C7"/>
<path d="M26.5437 10.3655C26.2451 10.0933 25.9881 9.78109 25.7801 9.43709C25.7454 9.37965 25.6893 9.33849 25.6241 9.32254C25.5591 9.30675 25.4901 9.3175 25.4329 9.35244C24.1965 10.1091 22.4114 10.5432 20.5355 10.5432C20.0759 10.5432 19.6189 10.5171 19.1766 10.4659C15.8273 10.0838 12.6341 12.1036 11.5858 15.2654C11.4788 15.5847 11.4077 15.8852 11.3751 16.1548C11.3696 16.1955 11.3659 16.236 11.3619 16.2795C11.3399 16.5543 11.3291 16.8114 11.3291 17.0656C11.3291 19.4344 12.4711 22.5586 14.3094 25.2194C16.24 28.0136 18.5215 29.6815 20.4127 29.6815C22.4033 29.6815 24.6534 28.0546 26.586 25.2181C28.3803 22.5848 29.4948 19.4611 29.4948 17.0656C29.4949 14.5242 28.4196 12.0823 26.5437 10.3655ZM26.17 24.9344C24.3596 27.5913 22.2074 29.1778 20.413 29.1778C18.6873 29.1778 16.5607 27.591 14.7243 24.933C12.9411 22.3522 11.8333 19.3375 11.8333 17.0657C11.8333 16.8252 11.8436 16.5813 11.8642 16.3226C11.8673 16.2894 11.8703 16.2561 11.8752 16.2192C11.9041 15.9798 11.9676 15.7129 12.0641 15.425C12.9589 12.7259 15.5367 10.924 18.3648 10.924C18.6148 10.924 18.8665 10.9381 19.1193 10.9668C19.5802 11.0202 20.0568 11.0474 20.5358 11.0474C22.3981 11.0474 24.1839 10.6339 25.4835 9.90707C25.6899 10.2108 25.9316 10.4894 26.2044 10.7377C27.9757 12.3587 28.9915 14.6653 28.9915 17.0657C28.991 19.3654 27.9101 22.3804 26.17 24.9344Z" fill="#3A312A"/>
<path d="M17.2946 16.103C16.8186 16.103 16.4326 16.489 16.4326 16.965C16.4326 17.4411 16.8186 17.8271 17.2946 17.8271C17.7707 17.8271 18.1566 17.4411 18.1566 16.965C18.1566 16.489 17.7708 16.103 17.2946 16.103Z" fill="#3A312A"/>
<path d="M23.53 16.103C23.054 16.103 22.668 16.489 22.668 16.965C22.668 17.4411 23.0538 17.8271 23.53 17.8271C24.0062 17.8271 24.392 17.4411 24.392 16.965C24.392 16.489 24.0062 16.103 23.53 16.103Z" fill="#3A312A"/>
<path d="M15.5718 18.418C14.7517 18.418 14.0869 18.915 14.0869 19.5281C14.0869 20.1412 14.7517 20.6382 15.5718 20.6382C16.3919 20.6382 17.0568 20.1412 17.0568 19.5281C17.0568 18.915 16.3919 18.418 15.5718 18.418Z" fill="#F59689"/>
<path d="M25.2544 20.6382C26.0744 20.6382 26.7392 20.1412 26.7392 19.5281C26.7392 18.915 26.0744 18.418 25.2544 18.418C24.4343 18.418 23.7695 18.915 23.7695 19.5281C23.7695 20.1412 24.4343 20.6382 25.2544 20.6382Z" fill="#F59689"/>
<path d="M22.9418 22.4736C22.812 22.4248 22.6662 22.4908 22.6175 22.6211C22.4419 23.0899 21.7551 23.9765 20.413 23.9765C19.3646 23.9765 18.6406 23.5266 18.2002 22.6011C18.1404 22.4755 17.9903 22.4226 17.8645 22.4819C17.7388 22.5417 17.6854 22.692 17.7452 22.8176C18.2703 23.9209 19.1679 24.4802 20.413 24.4802C21.8188 24.4802 22.7856 23.6081 23.0893 22.7977C23.1382 22.6676 23.0722 22.5224 22.9418 22.4736Z" fill="#3A312A"/>
<path d="M21.2492 2.77875C18.2622 2.59214 15.6196 3.97335 14.3274 5.22186C12.377 6.82411 11.374 9.72561 11.374 12.377C11.374 12.8616 11.4595 15.6181 11.6142 16.3001C11.6394 16.0056 11.7143 15.6838 11.8265 15.3452C12.8453 12.2705 15.9317 10.3498 19.15 10.7166C19.5974 10.7677 20.0614 10.7944 20.5369 10.7944C24.2473 10.7944 27.2553 9.16308 27.2553 7.15064C27.2553 5.13821 24.5065 2.9825 21.2492 2.77875Z" fill="#87796F"/>
<path d="M21.2641 2.52731C18.3414 2.34506 15.5921 3.65337 14.1586 5.03357C12.2848 6.57837 11.1211 9.39101 11.1211 12.3772C11.1211 12.8656 11.2039 15.6342 11.3675 16.356C11.3937 16.4716 11.4963 16.5522 11.6131 16.5522C11.619 16.5522 11.6247 16.552 11.6305 16.5517C11.7545 16.5431 11.8536 16.4455 11.8644 16.3219C11.8867 16.0602 11.9542 15.7585 12.0647 15.4246C13.0381 12.4868 16.0048 10.6116 19.1204 10.9671C19.5829 11.0198 20.059 11.0465 20.5357 11.0465C24.4444 11.0465 27.5061 9.33525 27.5061 7.15081C27.5061 4.93531 24.5309 2.73156 21.2641 2.52731ZM20.5357 10.5426C20.078 10.5426 19.6212 10.5169 19.1775 10.4663C15.9609 10.0988 12.8896 11.9458 11.7219 14.8928C11.6604 13.907 11.625 12.7317 11.625 12.377C11.625 9.57662 12.7482 6.84444 14.4865 5.41654C14.4917 5.41217 14.4968 5.4078 14.5016 5.40293C15.7679 4.17945 18.1343 3.01391 20.7089 3.01391C20.8824 3.01391 21.0575 3.01912 21.2326 3.0302C24.5349 3.23664 27.0022 5.37589 27.0022 7.15064C27.0022 9.02114 24.1014 10.5426 20.5357 10.5426Z" fill="#3A312A"/>
<path d="M20.4131 37.0532C20.8537 37.0532 21.2109 36.696 21.2109 36.2554C21.2109 35.8147 20.8537 35.4575 20.4131 35.4575C19.9724 35.4575 19.6152 35.8147 19.6152 36.2554C19.6152 36.696 19.9724 37.0532 20.4131 37.0532Z" fill="#3A312A"/>
<path d="M20.4131 39.4741C20.8537 39.4741 21.2109 39.1169 21.2109 38.6763C21.2109 38.2356 20.8537 37.8784 20.4131 37.8784C19.9724 37.8784 19.6152 38.2356 19.6152 38.6763C19.6152 39.1169 19.9724 39.4741 20.4131 39.4741Z" fill="#3A312A"/>
<path d="M25.6154 2.76807H15.3787C13.1961 2.76807 11.4268 4.53745 11.4268 6.72003V11.3363H29.5674V6.72003C29.5674 4.53745 27.798 2.76807 25.6154 2.76807Z" fill="#EF6D7A"/>
<path d="M25.6153 2.51611H15.3787C13.0606 2.51611 11.1748 4.40207 11.1748 6.72003V11.3363C11.1748 11.4756 11.2875 11.5883 11.4268 11.5883H22.0002C22.1395 11.5883 22.2522 11.4756 22.2522 11.3363C22.2522 11.1971 22.1395 11.0844 22.0002 11.0844H11.6785V6.72003C11.6785 4.67989 13.3384 3.02002 15.3786 3.02002H25.6153C27.6554 3.02002 29.3153 4.67989 29.3153 6.72003V11.0844H24.313C24.1737 11.0844 24.061 11.1971 24.061 11.3363C24.061 11.4756 24.1737 11.5883 24.313 11.5883H29.5672C29.7065 11.5883 29.8192 11.4756 29.8192 11.3363V6.72003C29.8192 4.40207 27.9334 2.51611 25.6153 2.51611Z" fill="#3A312A"/>
<path d="M20.4131 33.6055C20.2738 33.6055 20.1611 33.7183 20.1611 33.8574V34.442L17.3322 35.1049C17.2183 35.1315 17.1377 35.2333 17.1377 35.3502V40.2339C17.1377 40.3729 17.2504 40.4858 17.3896 40.4858C17.5289 40.4858 17.6416 40.3729 17.6416 40.2339V35.5499L20.4705 34.8869C20.5844 34.8604 20.665 34.7586 20.665 34.6417V33.8573C20.665 33.7183 20.5523 33.6055 20.4131 33.6055Z" fill="#3A312A"/>
<path d="M32.9452 40.1845C36.7232 39.8086 39.4812 36.4411 39.1053 32.6631C38.7294 28.885 35.362 26.127 31.5839 26.503C27.8059 26.8789 25.0479 30.2463 25.4238 34.0243C25.7997 37.8024 29.1672 40.5604 32.9452 40.1845Z" fill="#D7E057"/>
<path d="M32.2531 26.2358C28.3233 26.2358 25.126 29.433 25.126 33.3629C25.126 37.2929 28.3233 40.49 32.2531 40.49C36.1829 40.49 39.3801 37.2929 39.3801 33.3629C39.3801 29.433 36.183 26.2358 32.2531 26.2358ZM32.2531 39.9861C28.6011 39.9861 25.6299 37.0151 25.6299 33.3629C25.6299 29.7108 28.6011 26.7397 32.2531 26.7397C35.905 26.7397 38.8762 29.7108 38.8762 33.3629C38.8762 37.0151 35.905 39.9861 32.2531 39.9861Z" fill="#3A312A"/>
<path d="M36.6849 30.3531C36.3741 30.0086 35.843 29.9812 35.4987 30.292L30.7747 34.5535L29.1298 32.231C28.8615 31.8524 28.3373 31.763 27.959 32.0309C27.5804 32.299 27.4909 32.8232 27.7592 33.2017L29.9503 36.2955C30.0889 36.4913 30.3047 36.6185 30.5431 36.6449C30.5742 36.6482 30.6049 36.6499 30.6356 36.6499C30.8424 36.6499 31.0431 36.5735 31.1983 36.4335L36.624 31.5389C36.9682 31.2285 36.9956 30.6974 36.6849 30.3531Z" fill="#87796F"/>
<path d="M36.8715 30.1842C36.6761 29.9677 36.4082 29.84 36.1168 29.8251C35.8264 29.8108 35.5459 29.9094 35.3292 30.1049L30.8157 34.1765L29.3347 32.0851C29.1661 31.8471 28.915 31.689 28.6274 31.64C28.3405 31.5904 28.0506 31.6568 27.8128 31.8253C27.5747 31.9939 27.4165 32.245 27.3675 32.5326C27.3183 32.82 27.3841 33.1095 27.5527 33.3474L29.7437 36.4412C29.9238 36.6957 30.2046 36.8611 30.5157 36.8956C30.5555 36.8998 30.5953 36.9021 30.6346 36.9021C30.9051 36.9021 31.1649 36.8022 31.3661 36.6209L36.7919 31.7262C37.0084 31.531 37.1359 31.2629 37.1508 30.9716C37.1661 30.6804 37.0668 30.4007 36.8715 30.1842ZM36.4546 31.3519L31.029 36.2465C30.9044 36.3589 30.7302 36.4116 30.5703 36.3945C30.4035 36.3762 30.2523 36.2868 30.1554 36.15L27.9643 33.056C27.8736 32.9278 27.8381 32.7721 27.8645 32.6174C27.8909 32.4625 27.976 32.3273 28.1044 32.2364C28.2048 32.1654 28.322 32.1281 28.4428 32.1281C28.4761 32.1281 28.5097 32.1311 28.5429 32.1367C28.6978 32.163 28.833 32.2484 28.9239 32.3765L30.5688 34.6992C30.6103 34.758 30.6751 34.796 30.7467 34.804C30.8182 34.8117 30.8896 34.7887 30.9432 34.7407L35.6671 30.479C35.7837 30.3738 35.9342 30.3209 36.0913 30.3285C36.2481 30.3366 36.3923 30.4053 36.4976 30.5218C36.6027 30.6382 36.6561 30.7889 36.6481 30.9456C36.6398 31.1027 36.5711 31.2468 36.4546 31.3519Z" fill="#3A312A"/>
<path d="M32.2543 26.7393C32.0595 26.7393 31.8663 26.7477 31.6748 26.7645C33.3713 27.2633 34.7957 28.3988 35.6708 29.8937C35.8119 29.84 35.963 29.8164 36.1176 29.8248C36.4098 29.84 36.6769 29.9676 36.8734 30.1843C37.2766 30.6311 37.2396 31.3231 36.7928 31.7263L36.477 32.0118C36.5644 32.4485 36.6097 32.9004 36.6097 33.3623C36.6097 36.4865 34.5269 39.1219 31.6748 39.9601C31.8663 39.9769 32.0595 39.9853 32.2543 39.9853C35.9059 39.9853 38.8773 37.0139 38.8773 33.3623C38.8773 29.7106 35.9059 26.7393 32.2543 26.7393Z" fill="#B9C239"/>
</svg>
