<svg width="57" height="57" viewBox="0 0 57 57" fill="none" xmlns="http://www.w3.org/2000/svg">
<path d="M14.4955 51.7782C18.8522 50.3275 21.2079 45.6197 19.7572 41.263C18.3065 36.9063 13.5987 34.5505 9.24201 36.0012C4.88531 37.4519 2.52954 42.1597 3.98024 46.5164C5.43094 50.8731 10.1388 53.2289 14.4955 51.7782Z" fill="#8AC3DA"/>
<path d="M11.8749 35.2266C7.10741 35.2266 3.22852 39.1052 3.22852 43.873C3.22852 48.6407 7.10741 52.5196 11.8749 52.5196C16.6427 52.5196 20.5216 48.6409 20.5216 43.873C20.5216 39.1052 16.6427 35.2266 11.8749 35.2266ZM11.8749 51.8514C7.47546 51.8514 3.89648 48.2722 3.89648 43.8728C3.89648 39.4735 7.47546 35.8943 11.8749 35.8943C16.2744 35.8943 19.8536 39.4735 19.8536 43.8728C19.8536 48.2724 16.2744 51.8514 11.8749 51.8514Z" fill="#3A312A"/>
<path d="M15.1195 41.0424C14.7897 40.3595 14.3484 39.8612 13.7963 39.5477C13.2443 39.2342 12.5113 39.0776 11.598 39.0776C10.8383 39.0776 10.207 39.2052 9.70472 39.4606C9.20241 39.716 8.80808 40.0927 8.52175 40.591C8.23519 41.0891 8.0918 41.6415 8.0918 42.2476C8.0918 43.136 8.37323 43.871 8.93566 44.4521C9.49809 45.0335 10.1886 45.324 11.0064 45.324C11.4259 45.324 11.7952 45.2514 12.115 45.1061C12.4347 44.9609 12.746 44.7324 13.049 44.4209C12.966 45.4009 12.8413 46.0423 12.6754 46.3454C12.4472 46.7564 12.1294 46.9619 11.7227 46.9619C11.4944 46.9619 11.3012 46.8893 11.1433 46.7439C10.9857 46.5987 10.8734 46.3496 10.8071 45.9967L8.28484 46.3142C8.43446 46.8 8.64822 47.2048 8.92631 47.5286C9.20441 47.8525 9.55309 48.0986 9.97257 48.2664C10.3918 48.4345 10.9647 48.5187 11.6915 48.5187C12.9201 48.5187 13.8813 48.1357 14.5747 47.3698C15.268 46.6039 15.6147 45.3966 15.6147 43.7485C15.6147 42.6272 15.4497 41.7252 15.1195 41.0424ZM12.6006 43.362C12.3639 43.6236 12.0671 43.7543 11.7102 43.7543C11.3655 43.7543 11.0781 43.6194 10.8476 43.3495C10.6172 43.0797 10.5018 42.6893 10.5018 42.1788C10.5018 41.6722 10.6129 41.2924 10.8351 41.039C11.0571 40.7859 11.3363 40.6592 11.6728 40.6592C12.0299 40.6592 12.333 40.7992 12.5819 41.0795C12.831 41.3599 12.9557 41.7468 12.9557 42.2409C12.9557 42.7267 12.8373 43.1004 12.6006 43.362Z" fill="#87796F"/>
<path d="M15.4205 40.8969C15.0623 40.155 14.5713 39.6033 13.9612 39.2571C13.361 38.9162 12.5659 38.7434 11.5982 38.7434C10.7888 38.7434 10.1008 38.8844 9.55354 39.1627C8.99445 39.4468 8.55002 39.8714 8.23229 40.424C7.91746 40.9713 7.75781 41.5845 7.75781 42.2471C7.75781 43.221 8.07332 44.0408 8.69564 44.6839C9.32086 45.33 10.0984 45.6576 11.0064 45.6576C11.4719 45.6576 11.8914 45.5741 12.253 45.4097C12.3788 45.3525 12.5037 45.2839 12.6271 45.204C12.5449 45.7814 12.4539 46.0548 12.3835 46.1828C12.1622 46.5814 11.9003 46.6274 11.7227 46.6274C11.5779 46.6274 11.4657 46.5863 11.3697 46.4979C11.2989 46.4326 11.2007 46.2819 11.1355 45.9345C11.1028 45.7609 10.9405 45.644 10.7655 45.6649L8.2432 45.9824C8.14546 45.9947 8.05795 46.0497 8.00452 46.1325C7.95108 46.2153 7.93661 46.3177 7.96577 46.4119C8.12831 46.9398 8.36633 47.3885 8.67315 47.7456C8.98509 48.1092 9.38075 48.3887 9.84833 48.5759C10.3117 48.7618 10.9146 48.8522 11.6915 48.8522C13.0129 48.8522 14.0661 48.4287 14.8225 47.5936C15.5697 46.7679 15.9489 45.4741 15.9489 43.7481C15.9489 42.5818 15.771 41.6224 15.4205 40.8969ZM14.3273 47.1453C13.6943 47.8447 12.8321 48.1845 11.6917 48.1845C11.011 48.1845 10.4747 48.1077 10.097 47.9563C9.7301 47.8091 9.4215 47.592 9.17992 47.3108C9.0078 47.1102 8.86107 46.8699 8.74218 46.5932L10.5542 46.3652C10.6383 46.6372 10.7583 46.843 10.9175 46.9897C11.1382 47.193 11.4092 47.2961 11.7229 47.2961C12.0909 47.2961 12.6057 47.1594 12.9686 46.5059C13.1617 46.1534 13.293 45.4999 13.3821 44.4494C13.3939 44.3089 13.3162 44.176 13.188 44.1174C13.0595 44.0591 12.9083 44.0872 12.8099 44.1882C12.5371 44.4683 12.257 44.675 11.9769 44.8023C11.7026 44.927 11.3762 44.9903 11.0068 44.9903C10.2765 44.9903 9.67756 44.7384 9.17613 44.2201C8.67137 43.6986 8.42623 43.0536 8.42623 42.2478C8.42623 41.7036 8.55581 41.2024 8.81165 40.7578C9.06725 40.3129 9.40903 39.9863 9.85635 39.7587C10.3088 39.5287 10.895 39.412 11.5982 39.412C12.449 39.412 13.1332 39.5557 13.6317 39.8387C14.1213 40.1165 14.5208 40.5707 14.8191 41.1882C15.1255 41.8223 15.2809 42.6838 15.2809 43.7487C15.2809 45.3033 14.9599 46.4462 14.3273 47.1453ZM11.673 40.3252C11.2379 40.3252 10.8714 40.4913 10.5842 40.8188C10.3081 41.1336 10.1681 41.5912 10.1681 42.1788C10.1681 42.7688 10.3112 43.2357 10.5938 43.5664C10.8895 43.9126 11.2653 44.0883 11.7104 44.0883C12.1642 44.0883 12.5471 43.9193 12.8484 43.5862C13.1412 43.2624 13.2897 42.81 13.2897 42.2409C13.2897 41.6649 13.1356 41.1995 12.8315 40.8575C12.5178 40.5044 12.1279 40.3252 11.673 40.3252ZM12.353 43.138C12.1787 43.3308 11.9745 43.4203 11.7102 43.4203C11.4626 43.4203 11.2693 43.3288 11.1017 43.1326C10.9253 42.9262 10.836 42.6052 10.836 42.1788C10.836 41.758 10.9202 41.4487 11.0865 41.2592C11.2457 41.0777 11.4321 40.9931 11.673 40.9931C11.9362 40.9931 12.1457 41.0911 12.3325 41.3013C12.5244 41.5173 12.622 41.8334 12.622 42.2409C12.622 42.639 12.5313 42.9409 12.353 43.138Z" fill="#3A312A"/>
<path d="M28.4999 35.5605C23.909 35.5605 20.1875 39.2822 20.1875 43.873C20.1875 47.9627 23.1417 51.36 27.0322 52.0536L30.0772 52.034C33.9136 51.297 36.8126 47.9242 36.8126 43.8728C36.8124 39.2822 33.0909 35.5605 28.4999 35.5605Z" fill="#F16C7A"/>
<path d="M28.4999 35.2266C23.7324 35.2266 19.8535 39.1052 19.8535 43.873C19.8535 48.0683 22.8478 51.647 26.9734 52.3825C26.9934 52.386 27.013 52.3878 27.0326 52.3878C27.1914 52.3876 27.3323 52.274 27.361 52.1124C27.3935 51.9309 27.2726 51.7572 27.091 51.7249C23.2844 51.0463 20.5217 47.7441 20.5217 43.873C20.5217 39.4737 24.1007 35.8945 28.5001 35.8945C32.8996 35.8945 36.4786 39.4737 36.4786 43.873C36.4786 47.6922 33.76 50.9866 30.0142 51.7062C29.8332 51.741 29.7145 51.916 29.7495 52.0972C29.784 52.2782 29.9583 52.3967 30.1405 52.3622C34.2001 51.5822 37.1468 48.0119 37.1468 43.873C37.1463 39.1052 33.2674 35.2266 28.4999 35.2266Z" fill="#3A312A"/>
<path d="M31.4891 43.144C30.9267 42.5629 30.2385 42.2723 29.4249 42.2723C29.0054 42.2723 28.636 42.346 28.3165 42.4934C27.9965 42.6408 27.6853 42.8682 27.3825 43.1754C27.4613 42.1957 27.5837 41.5563 27.7498 41.2572C27.9781 40.8422 28.298 40.6345 28.709 40.6345C28.9373 40.6345 29.1294 40.7071 29.285 40.8525C29.4407 40.9978 29.5518 41.2468 29.6184 41.5997L32.1404 41.2884C31.9952 40.7986 31.7833 40.3918 31.5052 40.0678C31.2268 39.7441 30.8773 39.498 30.4558 39.3299C30.0343 39.1618 29.4603 39.0779 28.734 39.0779C27.5051 39.0779 26.5439 39.4609 25.8506 40.2268C25.1572 40.9927 24.8105 42.2 24.8105 43.8481C24.8105 44.9732 24.9755 45.8774 25.3057 46.5602C25.6357 47.2431 26.077 47.7403 26.629 48.0518C27.1809 48.3631 27.9142 48.519 28.8273 48.519C29.587 48.519 30.2193 48.3914 30.7236 48.136C31.2282 47.8806 31.6225 47.5039 31.9068 47.0058C32.1912 46.5075 32.3334 45.9575 32.3334 45.3555C32.333 44.4622 32.0516 43.7254 31.4891 43.144ZM29.5928 46.5567C29.3685 46.8101 29.0904 46.9365 28.7582 46.9365C28.3971 46.9365 28.0921 46.7965 27.8429 46.5162C27.5938 46.2358 27.4693 45.8489 27.4693 45.3548C27.4693 44.869 27.5884 44.4953 27.8273 44.2337C28.0658 43.9723 28.3617 43.8414 28.7146 43.8414C29.0591 43.8414 29.3476 43.9763 29.5803 44.2462C29.8127 44.516 29.929 44.9086 29.929 45.4231C29.9292 45.9257 29.817 46.3035 29.5928 46.5567Z" fill="#87796F"/>
<path d="M31.7296 42.9118C31.1041 42.2659 30.3291 41.9381 29.4251 41.9381C28.9591 41.9381 28.5394 42.0227 28.1769 42.1897C28.0506 42.248 27.9248 42.3175 27.801 42.3981C27.8868 41.7829 27.9832 41.5249 28.0426 41.418C28.2644 41.0147 28.5293 40.9682 28.709 40.9682C28.8531 40.9682 28.9635 41.009 29.0573 41.0962C29.1272 41.1617 29.2245 41.3129 29.2904 41.6613C29.3229 41.8346 29.4843 41.9524 29.6593 41.931L32.1814 41.6197C32.2789 41.6077 32.3662 41.5534 32.4198 41.4712C32.4735 41.389 32.4886 41.2873 32.4608 41.1933C32.3027 40.6603 32.0665 40.2085 31.7588 39.8498C31.4461 39.4862 31.0494 39.2068 30.5798 39.0195C30.1144 38.8338 29.5106 38.7437 28.7342 38.7437C27.4125 38.7437 26.3591 39.1671 25.603 40.0023C24.8555 40.8279 24.4766 42.1218 24.4766 43.8478C24.4766 45.0186 24.6545 45.98 25.0049 46.7052C25.3636 47.4473 25.8548 47.9981 26.4649 48.3421C27.0652 48.6806 27.86 48.8522 28.8273 48.8522C29.6366 48.8522 30.3255 48.7113 30.8744 48.4332C31.4357 48.1491 31.8808 47.7243 32.1967 47.1705C32.5089 46.6235 32.6672 46.0125 32.6672 45.3545C32.6674 44.3769 32.3519 43.5548 31.7296 42.9118ZM31.6167 46.8397C31.3631 47.2839 31.0215 47.6103 30.5727 47.8374C30.118 48.0676 29.5309 48.1845 28.8273 48.1845C27.9763 48.1845 27.2918 48.0418 26.7931 47.7606C26.3039 47.4847 25.9047 47.032 25.6063 46.4146C25.2999 45.7807 25.1445 44.917 25.1445 43.8478C25.1445 42.2928 25.4654 41.1497 26.0982 40.4508C26.7312 39.7514 27.5933 39.4116 28.734 39.4116C29.4146 39.4116 29.9523 39.4884 30.3322 39.6398C30.7007 39.787 31.0104 40.0041 31.252 40.2851C31.4245 40.4862 31.5704 40.7282 31.6871 41.0076L29.8722 41.2318C29.7885 40.9602 29.6698 40.7547 29.513 40.6084C29.2944 40.4042 29.0239 40.3005 28.7093 40.3005C28.3379 40.3005 27.8193 40.4385 27.4582 41.0951C27.2642 41.4445 27.1344 42.0971 27.05 43.1487C27.0387 43.2887 27.1164 43.4208 27.244 43.4791C27.3715 43.5377 27.5223 43.5098 27.6207 43.4101C27.8939 43.1331 28.1751 42.9267 28.4568 42.7969C28.7309 42.6706 29.0566 42.6065 29.4255 42.6065C30.1516 42.6065 30.7483 42.8583 31.2498 43.3765C31.7545 43.8979 31.9997 44.5452 31.9997 45.355C31.9994 45.8951 31.8708 46.3948 31.6167 46.8397ZM28.7153 43.5076C28.2659 43.5076 27.8845 43.6762 27.5813 44.0086C27.2856 44.3323 27.1357 44.7852 27.1357 45.3548C27.1357 45.9308 27.2898 46.3963 27.5937 46.7381C27.9079 47.0915 28.2998 47.2707 28.7587 47.2707C29.1893 47.2707 29.554 47.1051 29.8432 46.7782C30.1222 46.4631 30.2636 46.0076 30.2636 45.4233C30.2636 44.8288 30.1191 44.3595 29.8337 44.0282C29.5358 43.6828 29.1597 43.5076 28.7153 43.5076ZM29.3432 46.3353C29.1815 46.5177 28.9958 46.6027 28.7587 46.6027C28.4915 46.6027 28.28 46.5048 28.0929 46.2944C27.8983 46.0755 27.8037 45.7682 27.8037 45.3548C27.8037 44.9571 27.8948 44.6556 28.0747 44.4588C28.251 44.2655 28.4545 44.1756 28.7153 44.1756C28.9633 44.1756 29.1579 44.2673 29.3278 44.4641C29.5057 44.6705 29.5957 44.9932 29.5957 45.4233C29.5957 45.8393 29.5106 46.1461 29.3432 46.3353Z" fill="#3A312A"/>
<path d="M36.7906 15.6658C37.0752 11.0842 33.5918 7.13931 29.0101 6.85468C24.4285 6.57005 20.4836 10.0535 20.199 14.6351C19.9143 19.2168 23.3977 23.1616 27.9794 23.4463C32.561 23.7309 36.5059 20.2475 36.7906 15.6658Z" fill="#F16C7A"/>
<path d="M28.4999 6.50391C23.7324 6.50391 19.8535 10.3826 19.8535 15.1503C19.8535 19.9181 23.7324 23.7967 28.4999 23.7967C33.2674 23.7967 37.1463 19.9181 37.1463 15.1503C37.1463 10.3826 33.2674 6.50391 28.4999 6.50391ZM28.4999 23.1288C24.1005 23.1288 20.5215 19.5496 20.5215 15.1503C20.5215 10.7511 24.1005 7.17187 28.4999 7.17187C32.8994 7.17187 36.4784 10.7511 36.4784 15.1503C36.4784 19.5498 32.8994 23.1288 28.4999 23.1288Z" fill="#3A312A"/>
<path d="M31.3679 15.9659V10.355H29.1569L24.5361 15.8477V17.934H29.1569V19.6404H31.3679V17.934H32.5137V15.9661H31.3679V15.9659ZM29.1569 15.9659H26.7153L29.1569 13.0928V15.9659Z" fill="#87796F"/>
<path d="M32.5137 15.6319H31.7019V10.355C31.7019 10.1704 31.5523 10.021 31.3679 10.021H29.1569C29.0585 10.021 28.9648 10.0646 28.9015 10.1399L24.2807 15.6326C24.23 15.6927 24.2021 15.7689 24.2021 15.8477V17.934C24.2021 18.1186 24.3518 18.268 24.5361 18.268H28.8229V19.6404C28.8229 19.825 28.9726 19.9744 29.1569 19.9744H31.3679C31.5523 19.9744 31.7019 19.825 31.7019 19.6404V18.268H32.5137C32.698 18.268 32.8477 18.1186 32.8477 17.934V15.9661C32.8477 15.7813 32.698 15.6319 32.5137 15.6319ZM32.1797 17.5998H31.3679C31.1835 17.5998 31.0339 17.7492 31.0339 17.9338V19.3062H29.4909V17.9338C29.4909 17.7492 29.3413 17.5998 29.1569 17.5998H24.8701V15.9693L29.3123 10.6887H31.0337V15.9657C31.0337 16.1503 31.1833 16.2997 31.3677 16.2997H32.1795V17.5998H32.1797ZM29.2723 12.7793C29.1411 12.7307 28.9933 12.7697 28.9026 12.8766L26.461 15.7497C26.3766 15.8488 26.3577 15.988 26.4122 16.1062C26.4668 16.2242 26.585 16.2999 26.7153 16.2999H29.1569C29.3413 16.2999 29.4909 16.1505 29.4909 15.9659V13.0928C29.4909 12.9527 29.4036 12.8276 29.2723 12.7793ZM28.8229 15.6319H27.4373L28.8229 14.0016V15.6319Z" fill="#3A312A"/>
<path d="M47.8927 51.7366C52.2265 50.2171 54.5078 45.472 52.9882 41.1383C51.4687 36.8046 46.7236 34.5232 42.3899 36.0428C38.0562 37.5623 35.7748 42.3074 37.2944 46.6411C38.8139 50.9749 43.559 53.2562 47.8927 51.7366Z" fill="#F5E1C5"/>
<path d="M45.1252 35.2266C40.3574 35.2266 36.4785 39.1052 36.4785 43.873C36.4785 48.6407 40.3574 52.5196 45.1252 52.5196C49.8927 52.5196 53.7716 48.6409 53.7716 43.873C53.7716 39.1052 49.8927 35.2266 45.1252 35.2266ZM45.1252 51.8514C40.7257 51.8514 37.1465 48.2722 37.1465 43.8728C37.1465 39.4735 40.7257 35.8943 45.1252 35.8943C49.5246 35.8943 53.1036 39.4735 53.1036 43.8728C53.1036 48.2724 49.5246 51.8514 45.1252 51.8514Z" fill="#3A312A"/>
<path d="M48.5194 44.3958C48.2764 44.0057 47.9079 43.692 47.4139 43.4553C47.7877 43.2061 48.0616 42.949 48.2359 42.6831C48.4684 42.3262 48.5846 41.9421 48.5846 41.5311C48.5846 40.8255 48.2927 40.2399 47.7096 39.775C47.1262 39.3101 46.2242 39.0776 45.0036 39.0776C44.0818 39.0776 43.3408 39.2644 42.7804 39.6381C42.0621 40.1239 41.7032 40.7487 41.7032 41.5126C41.7032 41.9775 41.8276 42.3885 42.0768 42.7457C42.2594 43.0073 42.5502 43.244 42.9487 43.4555C42.4297 43.659 42.0456 43.9467 41.7965 44.3181C41.5475 44.6897 41.4229 45.1432 41.4229 45.6787C41.4229 46.2267 41.5558 46.723 41.8214 47.1672C42.087 47.6116 42.4753 47.9478 42.9859 48.176C43.4964 48.4043 44.2354 48.5185 45.2029 48.5185C45.7177 48.5185 46.2024 48.4677 46.6568 48.366C47.1115 48.2642 47.4913 48.1055 47.7966 47.8895C48.1016 47.6735 48.359 47.3673 48.5688 46.971C48.7783 46.5745 48.8832 46.1481 48.8832 45.6912C48.8836 45.2178 48.7623 44.7861 48.5194 44.3958ZM44.3782 40.9114C44.5712 40.7184 44.8213 40.6218 45.1285 40.6218C45.4316 40.6218 45.6805 40.7204 45.8758 40.9177C46.0708 41.1149 46.1683 41.3714 46.1683 41.6867C46.1683 41.9898 46.0748 42.2369 45.888 42.4279C45.7012 42.619 45.4625 42.7145 45.1719 42.7145C44.8437 42.7145 44.5812 42.6181 44.384 42.4248C44.1867 42.2318 44.0883 41.9775 44.0883 41.662C44.0885 41.3547 44.1849 41.1045 44.3782 40.9114ZM45.9753 46.5722C45.7346 46.8316 45.4625 46.9614 45.1595 46.9614C44.844 46.9614 44.5636 46.8336 44.3189 46.5785C44.0738 46.3231 43.9516 45.9942 43.9516 45.5914C43.9516 45.1679 44.0687 44.8315 44.3034 44.5826C44.538 44.3334 44.813 44.209 45.1285 44.209C45.4483 44.209 45.7295 44.3377 45.9724 44.5951C46.2153 44.8524 46.3367 45.1826 46.3367 45.5852C46.3364 45.9838 46.216 46.3129 45.9753 46.5722Z" fill="#87796F"/>
<path d="M45.1283 43.875C44.7186 43.875 44.3592 44.0359 44.06 44.3537C43.7663 44.6654 43.6174 45.082 43.6174 45.5916C43.6174 46.0817 43.7721 46.4916 44.0776 46.8098C44.3869 47.1322 44.7507 47.2956 45.1592 47.2956C45.5578 47.2956 45.9147 47.1286 46.22 46.7996C46.5188 46.4774 46.6702 46.069 46.6702 45.5854C46.6702 45.0965 46.517 44.6861 46.2149 44.3659C45.9078 44.04 45.542 43.875 45.1283 43.875ZM45.7304 46.3453C45.554 46.5353 45.3672 46.6277 45.1595 46.6277C44.9368 46.6277 44.7407 46.5359 44.5599 46.3473C44.3753 46.155 44.2855 45.9076 44.2855 45.5914C44.2855 45.253 44.371 44.998 44.5465 44.8115C44.7191 44.6282 44.9041 44.5427 45.1285 44.5427C45.3543 44.5427 45.5507 44.6349 45.7295 44.8241C45.9132 45.019 46.0027 45.2679 46.0027 45.5852C46.0022 45.8994 45.9134 46.1478 45.7304 46.3453ZM45.1719 43.0482C45.5545 43.0482 45.8758 42.918 46.1267 42.6613C46.3758 42.4066 46.5023 42.0786 46.5023 41.6867C46.5023 41.2817 46.3714 40.9439 46.1129 40.6825C45.8535 40.4207 45.5222 40.2878 45.1283 40.2878C44.7309 40.2878 44.3989 40.418 44.1417 40.6752C43.8845 40.9323 43.7543 41.2643 43.7543 41.6618C43.7543 42.0692 43.8877 42.4061 44.1502 42.6633C44.4111 42.9189 44.7549 43.0482 45.1719 43.0482ZM44.614 41.1477C44.7431 41.0185 44.9112 40.9559 45.1283 40.9559C45.3432 40.9559 45.5053 41.0185 45.6382 41.1526C45.7702 41.2861 45.8343 41.4607 45.8343 41.6867C45.8343 41.9009 45.774 42.067 45.6493 42.1944C45.5251 42.3213 45.3737 42.3803 45.1719 42.3803C44.9326 42.3803 44.7511 42.3166 44.6175 42.1859C44.4862 42.0572 44.4223 41.8858 44.4223 41.6618C44.4223 41.4449 44.485 41.2766 44.614 41.1477ZM48.8028 44.2194C48.61 43.9093 48.347 43.641 48.0184 43.4174C48.2254 43.2391 48.392 43.0545 48.5158 42.8654C48.7832 42.4551 48.9188 42.006 48.9188 41.5311C48.9188 40.7219 48.5821 40.0433 47.918 39.5138C47.2767 39.0028 46.2961 38.7434 45.0038 38.7434C44.0192 38.7434 43.2088 38.9509 42.5934 39.3613C41.7813 39.9106 41.3694 40.6344 41.3694 41.5126C41.3694 42.0454 41.5153 42.5243 41.8031 42.9367C41.9223 43.1075 42.0797 43.2689 42.2732 43.4192C41.9588 43.6145 41.7063 43.8531 41.519 44.1321C41.2336 44.5581 41.0889 45.0784 41.0889 45.6787C41.0889 46.2854 41.2389 46.8439 41.5348 47.3386C41.8352 47.8409 42.2776 48.2252 42.8496 48.4811C43.4092 48.7309 44.1789 48.8524 45.2029 48.8524C45.7397 48.8524 46.2534 48.7983 46.7296 48.6919C47.2257 48.5808 47.6494 48.4027 47.9894 48.1622C48.3366 47.9166 48.6307 47.5684 48.864 47.1273C49.0985 46.684 49.2172 46.2008 49.2172 45.6914C49.2174 45.1566 49.0778 44.6614 48.8028 44.2194ZM48.2738 46.8147C48.0901 47.1625 47.8645 47.4323 47.604 47.6167C47.3366 47.806 46.9935 47.9482 46.5842 48.0398C46.1556 48.1357 45.691 48.1843 45.2031 48.1843C44.2878 48.1843 43.5875 48.0787 43.1224 47.8708C42.6717 47.6692 42.3397 47.3831 42.108 46.9953C41.8748 46.6056 41.7568 46.1625 41.7568 45.6783C41.7568 45.2127 41.8635 44.8175 42.0739 44.5035C42.2832 44.1914 42.6185 43.9431 43.0707 43.7659C43.1921 43.7182 43.2747 43.6042 43.282 43.474C43.2896 43.3437 43.2206 43.221 43.1052 43.1598C42.7559 42.9741 42.5018 42.7701 42.3507 42.5537C42.1398 42.2516 42.0372 41.9107 42.0372 41.5119C42.0372 40.8602 42.3415 40.3374 42.9656 39.9152C43.4677 39.5806 44.1533 39.4109 45.0036 39.4109C46.1409 39.4109 46.9815 39.6211 47.5014 40.0355C48.0057 40.4374 48.2506 40.9263 48.2506 41.5304C48.2506 41.8784 48.1542 42.1957 47.9567 42.4994C47.808 42.7261 47.5628 42.9541 47.2284 43.1769C47.1286 43.2435 47.0721 43.3586 47.0806 43.4784C47.089 43.5982 47.1609 43.7042 47.2694 43.7561C47.7029 43.9638 48.028 44.2383 48.2357 44.5719C48.4468 44.9112 48.5494 45.277 48.5494 45.6907C48.5494 46.0906 48.4566 46.4687 48.2738 46.8147Z" fill="#3A312A"/>
<path d="M20.1603 21.1777C18.3913 21.1777 16.7526 21.7321 15.4048 22.674L13.1916 24.9607C12.3428 26.2639 11.8477 27.8189 11.8477 29.4902C11.8477 34.0811 15.5694 37.8026 20.1601 37.8026C24.751 37.8026 28.4725 34.0809 28.4725 29.4902C28.4727 24.8994 24.751 21.1777 20.1603 21.1777Z" fill="#F5E1C5"/>
<path d="M20.1601 20.8438C18.3808 20.8438 16.6702 21.3819 15.2133 22.4003C15.0621 22.5061 15.0252 22.7143 15.1309 22.8655C15.2369 23.0169 15.4453 23.0534 15.5961 22.9479C16.9402 22.0085 18.5184 21.5117 20.1601 21.5117C24.5595 21.5117 28.1385 25.0909 28.1385 29.4902C28.1385 33.8896 24.5595 37.4686 20.1601 37.4686C15.7606 37.4686 12.1814 33.8894 12.1814 29.4902C12.1814 27.9416 12.6274 26.4384 13.4713 25.143C13.5719 24.9885 13.5283 24.7814 13.3737 24.6808C13.2201 24.5804 13.0121 24.6236 12.9117 24.7783C11.9971 26.1826 11.5137 27.8118 11.5137 29.4902C11.5137 34.2579 15.3926 38.1366 20.1603 38.1366C24.9278 38.1366 28.8067 34.2579 28.8067 29.4902C28.8065 24.7226 24.9276 20.8438 20.1601 20.8438Z" fill="#3A312A"/>
<path d="M16.502 24.8503V26.9925H21.0107C20.0849 28.1425 19.4083 29.222 18.9806 30.2308C18.5528 31.2397 18.2396 32.4895 18.0403 33.9797H20.5685C20.6514 32.9085 20.8135 31.9807 21.0544 31.196C21.3572 30.1872 21.7704 29.2716 22.2935 28.4498C22.7252 27.7732 23.2627 27.1441 23.9064 26.5628V24.8503H16.502Z" fill="#87796F"/>
<path d="M23.9066 24.5164H16.502C16.3176 24.5164 16.168 24.6658 16.168 24.8503V26.9925C16.168 27.1771 16.3176 27.3265 16.502 27.3265H20.3279C19.598 28.2982 19.0425 29.2291 18.6731 30.1006C18.2358 31.1319 17.9116 32.4222 17.7094 33.9356C17.6965 34.0311 17.7257 34.1273 17.7889 34.1997C17.8524 34.2723 17.9439 34.3137 18.0403 34.3137H20.5685C20.7429 34.3137 20.8883 34.1794 20.9014 34.0055C20.982 32.9642 21.1408 32.0519 21.3741 31.292C21.6667 30.3174 22.0708 29.4215 22.5749 28.6295C22.9886 27.9809 23.5121 27.369 24.1302 26.8108C24.2001 26.7474 24.2401 26.6574 24.2401 26.563V24.8506C24.2406 24.666 24.091 24.5164 23.9066 24.5164ZM23.5726 26.4161C22.9576 26.9872 22.4333 27.6104 22.0118 28.2708C21.4745 29.1151 21.0448 30.067 20.7353 31.0983C20.5118 31.8266 20.3528 32.6823 20.2622 33.6462H18.4253C18.6208 32.3556 18.9106 31.2522 19.2881 30.3615C19.7015 29.3859 20.3688 28.3229 21.2708 27.202C21.3514 27.1018 21.3677 26.9645 21.312 26.8485C21.2566 26.7325 21.1394 26.6588 21.011 26.6588H16.8362V25.1845H23.5728V26.4161H23.5726Z" fill="#3A312A"/>
<path d="M43.3141 34.5977C46.1375 30.9801 45.4936 25.7587 41.876 22.9353C38.2585 20.112 33.0371 20.7558 30.2137 24.3734C27.3903 27.991 28.0342 33.2124 31.6518 36.0357C35.2693 38.8591 40.4907 38.2152 43.3141 34.5977Z" fill="#8AC3DA"/>
<path d="M36.7853 20.8438C32.0176 20.8438 28.1387 24.7224 28.1387 29.4902C28.1387 34.2579 32.0176 38.1366 36.7853 38.1366C41.5528 38.1366 45.4317 34.2579 45.4317 29.4902C45.4317 24.7226 41.5528 20.8438 36.7853 20.8438ZM36.7853 37.4688C32.3858 37.4688 28.8066 33.8896 28.8066 29.4904C28.8066 25.0909 32.3858 21.5119 36.7853 21.5119C41.1848 21.5119 44.7637 25.0911 44.7637 29.4904C44.7637 33.8898 41.1848 37.4688 36.7853 37.4688Z" fill="#3A312A"/>
<path d="M39.7158 28.674C39.1469 28.122 38.4059 27.8457 37.4926 27.8457C37.2227 27.8457 36.9497 27.8789 36.6736 27.9452C36.3975 28.0118 36.1183 28.1113 35.836 28.2443L36.054 26.874H40.133V24.8501H34.1111L33.3077 29.7572L35.4686 30.0685C35.6719 29.8403 35.8589 29.6824 36.0293 29.5953C36.2575 29.4749 36.4942 29.4148 36.7391 29.4148C37.1252 29.4148 37.4344 29.5415 37.6669 29.7946C37.8994 30.048 38.0156 30.4466 38.0156 30.9903C38.0156 31.5218 37.9002 31.9214 37.67 32.1891C37.4396 32.4569 37.1477 32.5907 36.795 32.5907C36.4793 32.5907 36.2074 32.4839 35.9792 32.2701C35.7507 32.0564 35.6053 31.744 35.5432 31.3327L32.9775 31.6131C33.1022 32.0408 33.2579 32.3977 33.4447 32.684C33.6315 32.9706 33.8755 33.2269 34.1763 33.4533C34.4774 33.6797 34.8427 33.8499 35.2725 33.9641C35.7022 34.0783 36.2179 34.1353 36.8199 34.1353C37.6587 34.1353 38.3467 33.9921 38.8844 33.7056C39.4219 33.419 39.8371 33.004 40.1299 32.46C40.4225 31.9163 40.569 31.3494 40.569 30.7601C40.569 29.9218 40.2847 29.2264 39.7158 28.674Z" fill="#87796F"/>
<path d="M39.9487 28.4344C39.3179 27.8221 38.4917 27.5117 37.4928 27.5117C37.1985 27.5117 36.8965 27.5485 36.5957 27.6206C36.4842 27.6476 36.3715 27.6796 36.2584 27.7168L36.3392 27.2083H40.1333C40.3177 27.2083 40.4673 27.0589 40.4673 26.8743V24.8503C40.4673 24.6658 40.3177 24.5164 40.1333 24.5164H34.1113C33.9477 24.5164 33.8083 24.6348 33.7818 24.7965L32.9785 29.7038C32.9642 29.7922 32.9856 29.8828 33.0388 29.9552C33.0918 30.0275 33.172 30.0754 33.2606 30.0883L35.4215 30.3996C35.5319 30.4152 35.6437 30.3749 35.7185 30.2912C35.9362 30.0467 36.0908 29.9396 36.1854 29.8913C36.3666 29.7955 36.5481 29.7492 36.7396 29.7492C37.0306 29.7492 37.2537 29.8381 37.4213 30.0209C37.5944 30.2094 37.6823 30.5359 37.6823 30.9907C37.6823 31.4374 37.5932 31.7676 37.4178 31.9718C37.2501 32.1666 37.0524 32.2572 36.7959 32.2572C36.5661 32.2572 36.3738 32.182 36.2081 32.0265C36.0369 31.8665 35.9249 31.6164 35.8743 31.2833C35.8476 31.1063 35.6866 30.9825 35.5078 31.0012L32.9422 31.2815C32.8442 31.2922 32.7556 31.3459 32.7008 31.428C32.646 31.5102 32.6302 31.6122 32.6578 31.707C32.7912 32.1644 32.962 32.5547 33.1657 32.8673C33.373 33.185 33.6458 33.4723 33.9766 33.721C34.3104 33.9721 34.7179 34.1627 35.1877 34.2874C35.6432 34.4083 36.1927 34.4698 36.8208 34.4698C37.711 34.4698 38.4583 34.3121 39.0425 34.0008C39.637 33.684 40.1024 33.2191 40.4252 32.6188C40.7429 32.0283 40.9039 31.4031 40.9039 30.7605C40.9032 29.832 40.5822 29.0494 39.9487 28.4344ZM39.8361 32.3022C39.5731 32.7911 39.2104 33.1539 38.7277 33.4112C38.2412 33.6704 37.5997 33.8016 36.8202 33.8016C36.2497 33.8016 35.7581 33.7477 35.3584 33.6415C34.9724 33.5388 34.6422 33.3859 34.3774 33.1866C34.1091 32.9846 33.8896 32.7544 33.7248 32.5019C33.6139 32.3323 33.514 32.1308 33.4258 31.9003L35.2801 31.6977C35.3745 32.0355 35.5323 32.3091 35.7512 32.5139C36.0422 32.7867 36.3936 32.925 36.7952 32.925C37.2481 32.925 37.6275 32.7508 37.9234 32.4071C38.2062 32.0782 38.3496 31.6015 38.3496 30.9905C38.3496 30.3631 38.2026 29.8848 37.913 29.5691C37.6155 29.2451 37.2207 29.081 36.7391 29.081C36.4405 29.081 36.1493 29.1547 35.877 29.2983C35.7053 29.3863 35.5297 29.5228 35.3435 29.7134L33.6925 29.4756L34.395 25.1843H39.7991V26.5403H36.054C35.8899 26.5403 35.7501 26.6596 35.7243 26.822L35.5063 28.192C35.4869 28.3142 35.5366 28.4371 35.6354 28.5115C35.7341 28.5856 35.8665 28.5996 35.9783 28.5467C36.2386 28.4242 36.4987 28.3313 36.7518 28.2703C37.0014 28.2104 37.2506 28.1799 37.4926 28.1799C38.3231 28.1799 38.9744 28.42 39.4831 28.9138C39.989 29.4052 40.2351 30.0091 40.2351 30.7605C40.2353 31.2913 40.101 31.8101 39.8361 32.3022Z" fill="#3A312A"/>
<path d="M10.5524 6.96924C10.3356 9.54404 7.65234 9.95061 7.65234 9.95061C9.95617 10.059 10.5302 13.0809 10.5302 13.0809C10.5794 10.9263 13.4962 9.91877 13.4962 9.91877C11.3113 9.78784 10.5524 6.96924 10.5524 6.96924Z" fill="#D5DE58"/>
<path d="M13.516 9.5848C11.6003 9.47036 10.8815 6.90758 10.8746 6.88176C10.8323 6.72545 10.6852 6.62325 10.5219 6.63639C10.3605 6.65108 10.2329 6.77933 10.2194 6.94076C10.0281 9.21519 7.70067 9.60462 7.60226 9.61998C7.43237 9.64559 7.30991 9.79588 7.31882 9.96732C7.32772 10.1388 7.4651 10.2755 7.63677 10.2837C9.64691 10.3783 10.1971 13.1155 10.2022 13.1431C10.2329 13.3014 10.3714 13.414 10.5302 13.414C10.5395 13.414 10.5489 13.4136 10.5582 13.4129C10.7286 13.3987 10.8604 13.2586 10.8644 13.0881C10.9074 11.1937 13.5786 10.2432 13.6057 10.2338C13.7563 10.1815 13.8489 10.0301 13.8271 9.87247C13.8048 9.71483 13.675 9.59438 13.516 9.5848ZM10.4957 11.8884C10.1935 11.1915 9.66984 10.3505 8.80638 9.91211C9.45899 9.59927 10.2332 9.04085 10.6324 8.07007C10.9777 8.75385 11.5675 9.60195 12.488 10.0121C11.8185 10.3772 10.9468 10.9931 10.4957 11.8884Z" fill="#3A312A"/>
<path d="M5.72103 10.7498C5.56762 12.5709 3.66992 12.8585 3.66992 12.8585C5.29932 12.9351 5.70545 15.0726 5.70545 15.0726C5.74018 13.5488 7.80331 12.836 7.80331 12.836C6.25786 12.7434 5.72103 10.7498 5.72103 10.7498Z" fill="#D5DE58"/>
<path d="M7.82314 12.5027C6.53908 12.4258 6.04812 10.6802 6.04345 10.6626C6.00114 10.5063 5.85196 10.4034 5.69121 10.4173C5.52978 10.4317 5.40175 10.5602 5.38817 10.7218C5.25947 12.2515 3.68574 12.5178 3.61983 12.5283C3.44995 12.5539 3.32749 12.7042 3.33639 12.8756C3.3453 13.047 3.48268 13.1838 3.65435 13.192C4.99808 13.2552 5.37414 15.1166 5.37748 15.1349C5.40776 15.2936 5.54648 15.4065 5.70545 15.4065C5.71458 15.4065 5.72394 15.4063 5.73329 15.4054C5.90362 15.3914 6.03565 15.2509 6.03966 15.0801C6.06861 13.809 7.89461 13.1577 7.91264 13.1515C8.06316 13.0994 8.15601 12.9482 8.13441 12.7903C8.11237 12.6327 7.98211 12.5122 7.82314 12.5027ZM5.68898 14.0156C5.48324 13.5957 5.16796 13.1368 4.69883 12.84C5.11208 12.608 5.52199 12.2544 5.78338 11.7454C6.01873 12.1624 6.37431 12.6258 6.88353 12.9083C6.47139 13.1537 5.99535 13.5186 5.68898 14.0156Z" fill="#3A312A"/>
<path d="M5.72103 4.81421C5.56762 6.63531 3.66992 6.92299 3.66992 6.92299C5.29932 6.99958 5.70545 9.13708 5.70545 9.13708C5.74018 7.613 7.80331 6.9005 7.80331 6.9005C6.25786 6.8081 5.72103 4.81421 5.72103 4.81421Z" fill="#D5DE58"/>
<path d="M7.82314 6.56726C6.53908 6.49044 6.04812 4.74482 6.04345 4.727C6.00114 4.5707 5.85196 4.46828 5.69121 4.48164C5.52978 4.49611 5.40175 4.6248 5.38817 4.78623C5.25947 6.3161 3.68574 6.5824 3.61983 6.59286C3.44995 6.61847 3.32749 6.76876 3.33639 6.94021C3.3453 7.11165 3.48268 7.24836 3.65435 7.2566C4.99808 7.31984 5.37414 9.18124 5.37748 9.1995C5.40776 9.35825 5.54648 9.47114 5.70545 9.47114C5.71458 9.47114 5.72394 9.47092 5.73329 9.47003C5.90362 9.456 6.03565 9.3155 6.03966 9.14473C6.06861 7.87336 7.89461 7.22231 7.91264 7.21608C8.06316 7.16398 8.15601 7.01279 8.13441 6.85493C8.11237 6.69729 7.98211 6.57683 7.82314 6.56726ZM5.68898 8.08021C5.48324 7.6605 5.16796 7.20138 4.69883 6.90458C5.1123 6.6728 5.52199 6.31922 5.78338 5.81C6.01873 6.22726 6.37431 6.69039 6.88353 6.97316C6.47161 7.21808 5.99535 7.58302 5.68898 8.08021Z" fill="#3A312A"/>
<path d="M45.126 35.8948C44.5538 35.8948 43.9949 35.9549 43.4561 36.0707C47.0564 36.8411 49.7639 40.0451 49.7639 43.8726C49.7639 47.7 47.0564 50.9063 43.4561 51.6767C43.9949 51.7924 44.5538 51.8526 45.126 51.8526C49.5257 51.8526 53.1038 48.2722 53.1038 43.8726C53.1038 39.4729 49.5257 35.8948 45.126 35.8948Z" fill="#DECAAD"/>
</svg>
