<svg width="164" height="156" viewBox="0 0 164 156" fill="none" xmlns="http://www.w3.org/2000/svg">
<path d="M155.296 87.255C157.117 87.255 158.593 85.779 158.593 83.9582C158.593 82.1374 157.117 80.6614 155.296 80.6614C153.475 80.6614 151.999 82.1374 151.999 83.9582C151.999 85.779 153.475 87.255 155.296 87.255Z" fill="#DCDDDE"/>
<path d="M79.5648 20.5602L74.3705 26.3948H73.1609C66.8519 27.8654 63.0807 35.7398 60.78 41.6456L49.1107 54.8566L49.1819 54.7854C48.9447 55.0226 48.7312 55.2835 48.5178 55.5444C47.5927 54.0502 46.0985 53.0066 44.3908 52.6271C48.2331 48.5238 50.3915 44.136 50.6287 39.843V39.3924C50.6524 38.0641 50.3203 36.7596 49.6799 35.6212L48.0671 33.1071V33.1545C47.8062 32.7276 47.5216 32.3244 47.1895 31.9686C45.8376 30.5218 43.9402 29.7154 41.9478 29.7391C41.3074 29.7391 40.6671 29.7865 40.0504 29.8814C38.6036 30.1186 37.2279 30.5929 35.9234 31.2333C29.7093 34.459 25.0131 40.0327 22.8785 46.7213C22.1906 45.7488 21.0759 45.1559 19.89 45.1321L18.5855 45.3219C15.2175 46.2943 11.138 51.7732 11.138 56.7066V57.0861C11.1617 58.2245 11.47 59.3393 12.0156 60.3354C12.4425 61.047 13.8181 63.2528 14.3162 63.8932C15.1226 64.7945 16.1899 65.4111 17.3521 65.6957L13.6995 79.1676C12.6322 79.3811 11.5649 79.6657 10.545 79.9978C4.37832 82.1087 0.630859 86.2831 0.630859 90.9792V91.4536C0.654577 92.1889 0.844323 92.9241 1.17638 93.5882C1.88792 94.869 2.67062 96.0786 3.54819 97.2408C4.73409 98.5453 6.41808 99.2569 8.1495 99.2331C9.43028 99.2331 10.7111 99.0197 11.897 98.569C14.3874 97.5966 16.6643 96.1261 18.5855 94.2761L23.756 100.443L21.9297 105.969L20.0086 111.946L26.0093 110.096C31.3933 108.436 34.8324 107.487 38.7933 106.609L39.8844 116.452L43.4421 115.694C49.1581 114.436 55.0877 113.44 61.0172 112.729L79.5648 133.601L82.0077 136.352L84.4507 133.601L102.951 112.705C108.88 113.417 114.81 114.389 120.597 115.67L124.155 116.429L125.222 106.799C125.222 106.799 134.591 109.171 138.125 110.072C140.354 110.665 144.126 111.922 144.126 111.922L142.204 105.993L140.425 100.466L146.806 92.7344C146.948 92.9716 147.09 93.2087 147.256 93.4222L147.185 93.3036C148.371 95.3671 149.77 97.312 151.36 99.0671L151.431 99.1383C151.881 99.5889 152.427 99.9447 153.02 100.182C153.494 100.372 154.016 100.49 154.514 100.49C156.506 100.561 158.214 99.0671 158.404 97.0985V96.6953C158.38 95.9363 158.19 95.2011 157.858 94.537L157.787 94.3947C156.957 92.7107 154.633 87.8722 154.301 83.2709C157.194 82.1798 161.962 79.5946 162.46 74.424V73.9496C162.436 73.0958 162.246 72.2657 161.89 71.5067C161.274 70.2733 160.586 69.0874 159.827 67.9252C159.329 67.2611 158.712 66.6919 158.024 66.2413C160.989 62.1855 162.887 57.4656 163.574 52.4848C163.622 52.0341 163.646 51.5835 163.646 51.1328C163.669 49.852 163.361 48.5713 162.744 47.4328C162.056 46.1995 161.25 44.9898 160.372 43.8751C159.922 43.4482 159.4 43.0924 158.831 42.8552C158.285 42.6417 157.692 42.4994 157.099 42.4994C151.265 42.3808 143.865 51.9867 140.354 61.047V61.1893C139.05 59.529 137.271 58.3431 135.255 57.7502C134.093 57.3944 132.907 57.2047 131.697 57.1809C129.918 57.1572 128.139 57.513 126.503 58.2008C126.242 57.7976 125.815 57.0149 125.649 56.754C124.985 55.5444 123.823 54.6668 122.495 54.3822L121.309 54.2399C119.459 54.2636 117.68 54.9277 116.304 56.1373L115.83 55.5918C120.336 53.5995 126.432 49.6623 127.262 42.6655C127.286 42.3334 127.286 42.0014 127.262 41.6693C127.262 40.436 126.977 39.2263 126.456 38.1116C125.697 36.7596 124.89 35.4552 123.989 34.1981C122.566 32.3481 120.526 31.091 118.249 30.6404C117.419 30.4743 116.565 30.3795 115.711 30.3558L113.956 30.4506C108.501 31.0673 103.591 34.1032 100.603 38.7045L82.0077 17.8089L79.5648 20.5602ZM128.211 84.5042C128.495 84.5991 128.804 84.7414 129.088 84.8125C130.345 85.1446 131.626 85.3343 132.907 85.3581C133.761 85.3581 134.615 85.3106 135.468 85.192C136.038 86.3305 137.057 87.1843 138.267 87.5638C138.813 87.7299 139.382 87.8485 139.951 87.8485C141.303 87.8485 142.631 87.4215 143.746 86.6626C144.339 88.3228 145.074 89.9119 145.952 91.4062L142.75 90.5286C136.963 88.9158 131.602 87.5401 126.456 86.3779L128.211 84.5042Z" fill="#DCDDDE"/>
<path d="M156.292 82.037C155.676 81.6338 154.893 81.5627 154.229 81.8473L154.039 81.9422L150.979 81.5864L152.996 83.1044L152.924 83.5787C152.806 84.7883 153.683 85.8794 154.893 86.0217C155.699 86.1166 156.506 85.7371 156.956 85.0492C157.597 84.0531 157.336 82.7249 156.34 82.0845C156.316 82.0608 156.316 82.037 156.292 82.037Z" fill="#261C02"/>
<path d="M155.106 82.6778C155.747 82.4881 156.387 82.8439 156.577 83.4842C156.767 84.1246 156.411 84.765 155.771 84.9548C155.557 85.0259 155.32 85.0259 155.106 84.9548C154.466 85.1445 153.826 84.7887 153.636 84.1484C153.446 83.508 153.802 82.8676 154.442 82.6778C154.656 82.6067 154.893 82.6067 155.106 82.6778ZM156.079 83.8637C156.103 83.3419 155.699 82.915 155.201 82.8913C155.178 82.8913 155.154 82.8913 155.106 82.8913C154.585 82.8913 154.158 83.3182 154.158 83.8637C154.158 84.3855 154.585 84.8125 155.106 84.8125C155.628 84.8362 156.055 84.4567 156.079 83.9349C156.079 83.8874 156.079 83.8637 156.079 83.8637ZM155.391 83.8637L155.51 84.0535C155.628 84.2432 155.723 84.2669 155.794 84.2669V84.3381H155.652C155.486 84.3381 155.344 84.2669 155.249 84.1246L155.106 83.9349H154.988V84.2432H155.13V84.3144H154.513V84.2432H154.656V83.4368H154.513V83.3182H155.201C155.51 83.3182 155.676 83.4368 155.676 83.6266C155.676 83.8163 155.51 83.7926 155.391 83.8637ZM155.012 83.7926H155.106C155.201 83.7926 155.296 83.6977 155.296 83.6028C155.296 83.508 155.201 83.4131 155.106 83.4131H155.012V83.7926Z" fill="white"/>
<path d="M20.9095 90.4333L22.5223 90.5756L23.2339 90.6467L21.4076 91.1448L20.0557 91.5243C20.2928 91.1685 20.6012 90.789 20.9095 90.4333Z" fill="#DCDDDE"/>
<path d="M161.723 48.073C161.059 46.9345 160.348 45.8198 159.541 44.7762C159.233 44.4678 158.853 44.2307 158.474 44.0646C158.071 43.8986 157.644 43.8275 157.241 43.8275C152.734 43.7326 145.524 51.9865 141.824 61.5212L140.756 64.2488L140.472 63.9404C139.476 61.5449 137.436 59.7186 134.946 59.0545C133.902 58.7462 132.811 58.5801 131.72 58.5564C129.751 58.509 127.783 59.007 126.075 59.9558C125.956 59.7423 125.814 59.5526 125.648 59.3865C125.221 58.7462 124.818 58.082 124.462 57.3942C123.988 56.5641 123.158 55.9711 122.233 55.7814C121.948 55.7102 121.64 55.6865 121.355 55.6865C119.363 55.734 117.513 56.659 116.279 58.2006L114.05 55.7102C113.955 55.4493 113.836 55.2122 113.67 54.9987C119.6 52.7692 125.174 48.7134 125.909 42.4992C126.075 41.1947 125.862 39.8903 125.292 38.7043C124.557 37.4236 123.774 36.1902 122.92 35.0043C121.711 33.4389 119.956 32.3953 118.035 32.0396C117.276 31.8735 116.517 31.8024 115.734 31.7787C115.212 31.7549 114.714 31.8024 114.216 31.8498C108.571 32.5376 103.614 35.953 100.981 41.005L83.501 21.319L82.1253 19.7536L80.7259 21.319L74.9862 27.7703C74.5355 27.5568 74.0374 27.5094 73.5631 27.628C68.2739 28.8139 64.7162 35.3838 62.0598 42.2858L50.2007 55.6154C49.5129 56.2795 48.8725 57.0147 48.2796 57.7737C48.1373 57.6314 47.5917 56.5166 47.3783 56.1609C46.2635 54.4532 44.3186 53.4807 42.2789 53.5993C41.9231 53.5756 41.5436 53.5756 41.1878 53.5993C45.6231 49.6147 48.9437 44.7762 49.2283 39.5345C49.2994 38.3486 49.0385 37.1864 48.4456 36.1665C48.2558 35.8345 46.8565 33.6998 46.8565 33.6998C46.6667 33.3678 46.4296 33.0357 46.1687 32.7511C45.0539 31.5889 43.5359 30.9485 41.9231 30.9722C41.3776 30.9722 40.8321 30.996 40.2866 31.0908C38.9821 31.3043 37.725 31.7075 36.5628 32.2767C27.5262 36.9492 24.7038 44.8473 23.2332 49.7807C23.1384 49.6621 23.0198 49.5198 22.9012 49.4249C22.5217 48.832 22.1659 48.239 21.8813 47.5986C21.4544 46.8634 20.6717 46.4127 19.8178 46.4127C19.5332 46.4127 19.2249 46.4602 18.964 46.5313C16.355 47.2903 12.3466 52.3423 12.5364 56.8961C12.5601 57.8211 12.7973 58.7224 13.2242 59.5289C13.2242 59.5289 14.9319 62.3276 15.4063 62.8731C16.355 63.893 17.7069 64.4385 19.0826 64.3911C17.612 69.7276 16.1652 75.0642 14.7896 80.3059C13.4614 80.5431 12.1806 80.8752 10.8998 81.2784C5.13632 83.247 1.69719 87.113 1.93437 91.3586C1.95809 91.9041 2.1004 92.4496 2.33758 92.9477C3.00169 94.1336 3.76067 95.2958 4.5908 96.3868C5.51581 97.3592 6.79659 97.9285 8.14852 97.881C9.26327 97.881 10.378 97.6913 11.3979 97.2881C15.2165 95.7227 18.5133 93.09 20.8851 89.722L22.8775 89.9117C24.3243 90.0541 25.9134 90.2201 27.5262 90.3387C25.6762 90.813 23.8262 91.3348 21.8813 91.8566L19.0826 92.5919L20.9326 94.7977L25.3916 100.111L23.3281 106.396L21.9999 109.835L25.4153 108.791C31.3448 106.965 34.9737 105.969 39.8834 104.925L40.9981 114.768L42.9667 114.341C49.0623 112.989 55.229 111.97 61.4431 111.258L80.5362 132.747L81.9356 134.336L83.3349 132.77L102.428 111.258C108.666 111.97 114.856 113.013 120.976 114.365L122.944 114.792L124.13 104.996C124.13 104.996 126.502 105.518 127.19 105.613C130.747 106.443 133.973 107.368 138.598 108.791L142.014 109.835L140.899 106.42L138.859 100.134L143.318 94.8214L145.168 92.6156L142.488 91.8092C135.823 89.9592 129.68 88.3938 123.893 87.0656L127.806 82.654C128.352 82.8912 128.921 83.1047 129.49 83.247C130.629 83.5553 131.791 83.7213 132.977 83.745C134.163 83.7688 135.325 83.6502 136.464 83.413C136.653 84.6463 137.531 85.6662 138.74 85.9983C139.167 86.1406 139.594 86.2117 140.021 86.2117C141.776 86.2354 143.437 85.429 144.504 84.0297C145.31 87.113 146.686 90.0303 148.536 92.6156C149.674 94.6079 151.003 96.458 152.544 98.1419C152.876 98.474 153.28 98.7349 153.73 98.9009C154.039 99.0432 154.371 99.1144 154.703 99.1144C155.96 99.1618 157.027 98.2368 157.146 97.0035C157.169 96.3394 157.027 95.699 156.742 95.106C155.794 93.1849 153.066 87.5874 153.042 82.3694C155.604 81.5393 160.822 79.286 161.344 74.3527C161.391 73.5937 161.249 72.8347 160.941 72.1706C160.656 71.5302 159.185 69.2533 158.806 68.7315C158.142 67.8302 157.264 67.1186 156.221 66.6917H156.126C159.446 62.5173 161.557 57.5128 162.293 52.2474C162.577 50.848 162.364 49.3775 161.723 48.073Z" fill="#261C02"/>
<path d="M46.3588 94.2755L44.4377 91.9036L41.7812 95.2242C43.2992 94.8921 44.8172 94.5601 46.3588 94.2755Z" fill="#002B5C"/>
<path d="M159.305 49.5434C159.352 49.2114 159.376 48.8556 159.376 48.5236C159.376 46.9345 158.854 45.796 157.905 45.4165C157.146 45.1793 156.316 45.2505 155.629 45.63C152.071 47.1716 146.378 53.7178 143.129 62.0429L138.267 74.6847C136.037 76.1315 133.334 76.5821 130.748 75.9654C128.234 75.4199 126.526 73.0718 126.764 70.5103C126.93 67.8776 128.163 65.4583 130.179 63.7743C130.962 63.1576 131.982 62.9442 132.93 63.2051C133.76 63.4897 134.259 64.3436 134.116 65.1974C134.164 65.648 133.998 66.075 133.689 66.3833C133.5 66.5019 133.262 66.5256 133.049 66.4307L132.741 66.3359C132.385 66.2173 131.982 66.2647 131.673 66.4782C131.365 66.6917 131.175 67.0474 131.151 67.4269C131.27 68.8737 132.314 70.0833 133.737 70.368C134.994 70.7474 136.369 70.534 137.46 69.7987C138.599 69.016 139.31 67.759 139.382 66.3833C139.571 63.8692 137.484 61.3076 134.496 60.4538C131.578 59.5288 128.376 60.0031 125.862 61.7583C123.111 63.7269 121.403 66.834 121.214 70.2019V71.0321C119.245 72.384 117.822 72.9058 117.3 72.7872C117.063 72.7872 117.039 72.4314 117.039 72.1705C117.134 70.4391 121.356 62.8493 122.732 60.3115L122.85 60.098C123.087 59.7185 123.23 59.2679 123.301 58.841C123.324 57.9634 122.684 57.2044 121.807 57.0858C119.696 56.8723 117.656 57.9397 116.683 59.8134C112.889 66.3122 108.501 70.9135 107.125 70.7C106.84 70.7 106.674 70.1308 106.722 69.3006C106.84 66.6205 108.738 63.5846 110.588 60.6672L112.319 57.8211C112.556 57.489 112.675 57.1095 112.675 56.7063C112.675 55.7813 111.987 55.0223 110.825 54.8326C108.643 54.5243 106.437 55.0698 104.682 56.398C104.184 56.73 103.828 57.2756 103.71 57.8685C103.71 58.4852 104.184 58.9595 104.896 59.0544H105.441L105.204 59.5288C102.737 63.6794 101.504 66.8814 101.385 69.3006V69.6564C101.385 72.2891 102.571 74.0205 104.729 74.3289C106.888 74.6372 109.473 73.3802 111.94 70.9609C111.869 71.293 111.821 71.6487 111.797 71.9808V72.2891C111.679 74.234 113.102 75.918 115.047 76.1077C116.849 76.4635 119.364 75.7045 121.996 74.068C123.23 76.6295 125.554 78.527 128.305 79.2385C131.08 79.9264 134.021 79.7603 136.678 78.7405L136.535 79.1437L136.322 80.0449C136.203 80.9462 136.773 81.8001 137.65 81.9898C139.5 82.4879 141.445 81.5392 142.204 79.7603L143.011 77.602C143.793 75.5385 147.92 71.6725 151.146 71.3167C151.312 71.2692 151.478 71.2692 151.644 71.3167C151.715 71.3167 151.976 71.4353 151.929 71.9096C151.834 73.0955 149.557 74.7558 146.9 75.6808C145.857 75.9892 145.169 76.9616 145.169 78.0526V79.4046C145.643 85.0732 148.062 90.4335 152 94.5367L152.83 95.0348C153.138 95.1771 153.518 95.1771 153.826 95.0348C154.063 94.8925 154.229 94.6316 154.229 94.3707V94.2521C154.182 93.8726 154.087 93.5168 153.921 93.1848C152.925 91.145 150.079 85.3104 150.079 79.7366V78.693C151.454 78.361 157.811 76.5584 158.285 71.6487C158.285 71.5776 158.285 71.5064 158.285 71.459C158.143 69.8936 157.099 68.5417 155.629 67.9961C154.182 67.3795 151.193 67 146.45 70.2019C151.336 66.3596 158.095 59.2916 159.305 49.5434ZM147.636 63.5846C150.268 55.5441 152.616 51.8204 153.304 51.5595C153.375 51.7967 153.399 52.0338 153.375 52.271V52.9351C153.067 56.4929 150.861 60.6672 147.256 64.7942L147.636 63.5846ZM46.6201 75.3488C46.1457 75.4911 45.6951 75.7757 45.363 76.1315C43.7265 77.7917 40.6194 79.1437 36.5162 79.9738C31.3456 80.8514 26.1039 81.2546 20.8622 81.1597C21.6924 79.4283 22.3802 77.602 22.8783 75.752L28.2386 56.7775C36.5399 52.6268 45.5765 45.2505 46.0271 36.878V36.5934C46.0271 35.4074 45.5528 34.2927 44.6989 33.51C43.4893 32.5376 41.9002 32.2055 40.406 32.5613C39.2438 32.751 38.129 33.1305 37.0854 33.6523C27.8354 38.3959 25.4398 46.9107 24.1353 51.4409L23.3289 54.3108C22.4276 54.714 21.384 54.714 20.4827 54.3108C20.0558 53.9313 19.8424 53.3621 19.8898 52.7928C19.9135 52.105 20.0558 51.4172 20.2693 50.7768C20.4827 50.1838 20.6013 49.5672 20.6013 48.9268C20.6013 48.571 20.459 48.2152 20.1744 48.0018C19.8898 47.812 19.5103 47.7646 19.202 47.8832C17.2808 48.4761 13.6519 52.864 13.818 56.8249C13.7705 57.9634 14.2686 59.0544 15.1699 59.766C16.2372 60.5487 17.8975 60.6198 20.0558 60.0031H20.2456L21.8347 59.5051C19.7712 66.8814 17.7077 74.3052 15.8577 81.5629C14.316 81.8001 12.7744 82.1559 11.2801 82.6302C7.36662 83.9584 3.28711 86.8283 3.28711 90.9316V91.2636C3.31083 92.07 3.71404 92.829 4.40186 93.2797C5.8961 94.0149 7.65124 94.0149 9.14548 93.2797C12.8692 91.6668 16.0712 89.0341 18.3481 85.6661L21.1943 85.927C25.7956 86.4014 31.0136 86.9232 35.5437 85.9745C41.9476 84.6463 45.9797 81.6815 47.5451 77.1751L47.6874 76.4398C47.6874 76.1315 47.5688 75.8231 47.3554 75.6097L46.6201 75.3488ZM30.4443 49.496C32.5078 42.7363 34.4053 37.4946 38.129 36.7831C38.6982 36.6171 39.3149 36.7119 39.7893 37.044C40.3111 37.5895 40.5483 38.3011 40.4771 39.0363V39.1312C40.4771 40.6729 39.8367 47.2902 29.6854 51.9627L30.4443 49.496ZM10.284 88.8681C9.59613 89.1053 9.33523 89.0104 9.24036 88.963C9.09805 88.8207 9.02689 88.6309 9.05061 88.4412V88.37C9.05061 87.611 9.61984 86.6386 11.2801 86.0693C12.2051 85.7847 13.1538 85.6424 14.1026 85.595C13.2013 87.0418 11.8731 88.204 10.3314 88.8918H10.284V88.8681ZM120.621 78.2898C120.146 78.2424 119.672 78.361 119.269 78.6219C117.561 79.6417 114.406 79.8078 110.374 79.0962C105.085 77.9578 99.9147 76.3924 94.8865 74.4238C95.4557 73.4276 95.9063 72.3603 96.2621 71.2692L96.9736 69.609L103.662 52.9351C110.872 52.1524 121.688 48.0492 122.637 39.7716C122.66 39.5581 122.66 39.3447 122.637 39.1312C122.542 36.2376 120.383 33.8421 117.514 33.4388C116.423 33.2017 115.284 33.1542 114.169 33.2728C104.611 34.5536 101.575 42.096 99.9384 46.128L98.966 48.571C96.5942 48.239 95.5743 47.3851 95.5743 45.7248V45.5588C95.6454 44.9184 95.8115 44.3017 96.0961 43.7325C96.3333 43.2344 96.4993 42.6889 96.5467 42.1434V42.0722C96.5942 41.3844 96.0486 40.7677 95.3608 40.7203C94.0089 40.7677 92.7518 41.337 91.8031 42.3094C90.214 43.6376 89.2653 45.5588 89.123 47.5986V47.7883C89.123 50.7768 91.2101 52.6031 95.0525 52.9826H95.2897L97.0685 53.1012C94.0089 60.8333 92.4198 64.9602 89.4313 72.7872C87.9133 72.4314 86.3479 72.1943 84.8063 72.0994H83.312L83.9998 70.2731C85.6127 65.0314 87.7236 59.9557 90.2851 55.0935C90.4986 54.7614 90.6172 54.4057 90.6172 54.0262C90.5935 53.1249 89.8345 52.3896 88.9332 52.4133C88.8858 52.4133 88.8621 52.4133 88.8146 52.4133C87.2255 52.3185 85.755 53.1723 84.4268 54.9749C83.9761 55.5916 83.5729 56.2557 83.2409 56.9435L82.8614 57.7025C79.4697 64.0827 75.8171 68.3756 74.56 68.3756C74.4652 68.3756 74.394 68.3519 74.3466 68.3045C74.2517 68.2096 74.0857 67.925 74.1094 67.0474C74.1094 64.2487 76.0543 60.8096 77.8806 57.489L79.4697 54.7377C79.6357 54.3819 79.7069 54.0262 79.7306 53.6467C79.778 53.2198 79.6357 52.7928 79.3511 52.4845C78.9242 52.105 78.3786 51.8915 77.8094 51.939C75.8171 51.9864 73.9196 52.698 72.378 53.9313C71.5715 54.3582 71.0023 55.1409 70.8126 56.0422C70.8126 56.3268 70.9312 56.5877 71.1209 56.7775C71.3818 57.0147 71.7139 57.157 72.0696 57.1332L72.4728 57.0621L72.3305 57.3941L71.8325 58.4852C70.694 60.7621 69.769 63.1576 69.1049 65.6006C67.326 67.4032 66.069 68.3045 65.2151 68.3519C65.0491 68.3519 64.9068 68.3045 64.7882 68.1859C64.385 67.8301 63.8869 66.7391 63.7446 63.7743C70.9549 53.1012 75.319 41.7165 75.7459 32.4901V32.1581C75.8408 31.0908 75.485 30.0472 74.7735 29.2882C74.5126 29.051 74.1568 28.9561 73.801 29.0273C67.1363 30.569 63.1279 42.8549 60.4952 50.9665L59.9022 52.7691H58.4554C52.3599 53.2909 45.9797 60.8096 45.9797 67.4269V68.2808C43.9162 70.534 42.6829 71.293 42.3034 71.3404V71.2455C42.3034 70.8186 43.2284 67.6878 43.5842 66.5019L43.7976 65.7666L43.9874 64.5807C44.0111 64.2012 43.8451 63.8218 43.5605 63.5846C43.2996 63.3711 42.9675 63.2762 42.6355 63.3237C44.865 62.8256 46.4304 60.857 46.4541 58.58V58.5089C46.4541 57.5365 46.0271 56.5877 45.2682 55.9711C43.7265 54.9749 41.829 54.6666 40.0502 55.1646C31.9623 56.6352 26.2462 66.3359 26.436 72.1468C26.436 73.7597 27.1475 75.3013 28.4046 76.3212C29.5905 77.2225 31.1085 77.5308 32.5553 77.1513C34.4527 76.6295 36.113 75.4911 37.2989 73.9257C37.4649 74.4 37.7495 74.8032 38.129 75.1116C38.888 75.5859 39.813 75.7283 40.6669 75.4911C42.3746 75.1827 44.6278 73.6648 46.9996 71.2218C48.0906 73.0718 50.1778 74.068 52.2887 73.7596C54.9926 73.2378 57.4356 71.8148 59.2144 69.7276C60.0683 71.7436 61.4914 72.8584 63.3176 72.7398C64.9305 72.6449 66.8754 71.5539 69.0574 69.609C69.3183 71.2218 70.7414 72.4077 72.378 72.3603C74.4652 72.3603 76.9318 70.7 79.3037 67.9724L77.8094 73.2853L75.9594 74.6135C68.844 79.784 67.5395 84.0296 67.2786 85.595C67.2074 86.0693 67.16 86.5437 67.16 86.9944C67.1125 88.2277 67.492 89.4373 68.2747 90.4098C69.4844 91.6431 71.1921 92.2598 72.8998 92.07C76.6947 92.07 79.5646 88.2989 80.9639 81.5866L82.0787 76.843C82.3158 76.1077 82.7665 75.2776 84.5454 75.3488C85.5415 75.4436 86.5377 75.6334 87.4864 75.9417C86.4902 77.0802 85.0672 77.768 83.5492 77.7917H83.2409C82.553 77.6494 81.8889 78.1001 81.7466 78.7879C81.6517 79.2385 81.7703 79.6892 82.055 80.0449C82.6716 80.7802 83.5729 81.2071 84.5454 81.2309C87.4627 81.2546 90.2614 80.0212 92.23 77.8866L94.6018 79.0725C99.132 81.2546 104.279 83.8161 108.833 84.5277C115.284 85.6187 119.506 84.1719 121.38 80.211L121.569 79.4994C121.569 79.4757 121.569 79.4283 121.569 79.4046C121.617 78.8116 121.237 78.2661 120.644 78.1475H120.621V78.2898ZM106.39 46.3889C108.999 40.3171 111.133 36.0478 114.786 36.7357C116.233 36.9491 117.253 38.2773 117.063 39.7241V40.0325C116.992 41.3607 116.043 47.9781 105.417 48.7133L106.413 46.3415L106.39 46.3889ZM64.1715 55.1646C65.4997 46.7684 68.7254 38.0876 69.8401 37.0677C69.8876 37.2575 69.9113 37.4472 69.8876 37.637V38.0164C69.0811 44.9896 67.0414 51.773 63.8394 58.0108C63.9106 57.0858 64.0292 56.0422 64.1715 55.1646ZM37.9156 67.7115C36.9194 70.7474 34.7848 72.9532 33.6937 73.1904C33.3142 73.309 32.911 73.2141 32.6264 72.977C32.0097 72.2891 31.6777 71.3878 31.7488 70.4628C31.654 66.3833 34.9271 59.4576 39.1963 58.6749C39.813 58.4852 40.4771 58.5563 41.0463 58.8647C41.2598 59.0307 41.4021 59.3153 41.3784 59.5762C41.3784 60.3352 40.904 60.9993 40.1925 61.2365C39.7656 61.4974 39.2912 61.782 39.3149 62.4224C39.3149 62.7307 39.4572 63.0153 39.6944 63.2051C40.406 63.5846 41.2124 63.7032 41.9951 63.5371C40.0502 64.2487 38.5559 65.7904 37.9156 67.7115ZM57.6016 59.0544C57.1747 59.2442 56.7003 59.4813 56.7003 60.0506C56.7003 60.4538 56.9612 61.1179 58.3131 61.3314C58.3131 61.9006 58.1945 64.4622 58.1945 64.4622L58.3131 66.7154C56.7003 68.6128 55.0637 69.7987 53.8304 69.941C53.3323 70.0122 52.8342 69.8462 52.4785 69.5378C51.6721 68.5891 51.2926 67.3558 51.4112 66.1224C51.4112 61.8769 53.9253 56.8961 57.6016 56.5403C57.9336 56.4929 58.2894 56.5877 58.5503 56.8012C58.7163 56.9672 58.8112 57.2044 58.7875 57.4179C58.8112 58.2006 58.3131 58.8884 57.6016 59.0544ZM75.3902 83.4604L75.2479 84.1719C74.7023 86.7572 73.8722 88.3226 73.0421 88.3463C72.71 88.3937 72.378 88.2751 72.1171 88.0617C71.785 87.611 71.619 87.0655 71.6901 86.4963V86.4251C71.6901 85.3815 72.1408 83.152 75.0107 80.2821C75.4376 79.8315 75.9357 79.4046 76.4338 78.9776C76.3863 79.0251 75.3902 83.4604 75.3902 83.4604Z" fill="white"/>
<path d="M46.667 75.776C46.2638 75.8946 45.908 76.1318 45.6471 76.4401C44.058 78.053 40.9984 79.4998 36.5868 80.401C31.1791 81.2786 25.6765 81.6818 20.1976 81.587C21.1463 79.6895 21.9053 77.6972 22.4745 75.6574C24.5855 67.9965 25.6528 64.1779 27.8823 56.5643C35.4483 52.8406 45.1491 45.4405 45.6709 36.9257C45.742 34.3167 43.7497 32.3481 40.4529 32.9411C39.3381 33.1308 38.2708 33.4866 37.2509 33.9847C28.5464 38.4911 26.0323 46.1521 24.5143 51.5361L23.613 54.6669C21.2412 55.2836 19.5098 55.1413 19.4386 52.7457C19.4386 51.5598 20.1739 49.9233 20.1502 48.9983C20.1502 48.4765 19.8655 48.1681 19.2726 48.3342C17.5175 48.8322 14.0309 53.0778 14.1969 56.8252C14.3392 60.0509 16.8771 60.4778 19.8893 59.624C20.7194 59.3868 21.5495 59.1496 22.4034 58.865C20.2688 66.5497 18.2053 74.2343 16.1655 81.9427C14.5527 82.1799 12.9636 82.5357 11.4219 83.0338C7.03405 84.5043 3.47633 87.5165 3.68979 91.2402C3.80838 93.3037 6.0616 93.9678 8.97893 92.9479C12.7264 91.3114 15.9283 88.6075 18.1578 85.1921C23.2335 85.619 29.9457 86.7101 35.4721 85.5479C42.0657 84.1722 45.742 81.1363 47.1651 77.0094C47.2362 76.8196 47.2837 76.6061 47.2837 76.4164C47.3074 75.942 46.9753 75.7286 46.667 75.776ZM30.0643 49.354C32.2464 42.2386 34.1201 37.0918 38.0573 36.3091C39.5753 36.0244 40.8561 36.6411 40.9035 38.9892C40.9035 42.2386 38.7689 48.5476 29.0445 52.6746L30.0643 49.354ZM10.4495 89.2479C9.40586 89.6037 8.71803 89.4614 8.64688 88.4415C8.59944 87.4216 9.21611 86.3069 11.161 85.6665C12.3943 85.287 13.6514 85.0972 14.9322 85.0735C13.936 86.8998 12.3706 88.3703 10.4495 89.2479ZM149.746 78.4087C149.746 78.4087 157.431 76.7959 157.929 71.6491C157.881 70.1785 156.932 68.8978 155.557 68.4234C153.398 67.5221 149.698 67.9253 144.362 72.3843L144.789 71.0798C151.904 65.7907 157.834 58.2246 158.901 49.4963C159.138 47.4329 158.616 46.1521 157.715 45.7963C155.035 44.7053 147.54 51.8207 143.484 62.1855C141.516 67.2612 140.52 69.8228 138.575 74.9696C136.227 76.535 133.357 77.0331 130.629 76.369C127.925 75.776 126.075 73.2619 126.312 70.5106C126.573 66.4311 129.752 61.8772 133.025 62.8259C134.068 63.1343 134.709 64.1779 134.543 65.2452C134.4 67.1189 133.262 66.9054 132.93 66.8106L132.621 66.7157C132.195 66.5734 131.72 66.8106 131.578 67.2375C131.554 67.3086 131.53 67.3798 131.53 67.451C131.673 68.708 132.598 69.7279 133.807 69.9651C135.918 70.6055 138.171 69.3958 138.788 67.2612C138.883 66.9529 138.93 66.6445 138.954 66.3125C139.12 63.9407 137.175 61.5689 134.353 60.7624C127.569 58.7464 121.972 63.9644 121.593 70.2497C121.569 70.6055 121.569 70.9375 121.593 71.2933C119.482 72.7875 117.892 73.3805 117.181 73.2382C116.73 73.1433 116.564 72.7164 116.612 72.1946C116.707 70.3208 121 62.6362 122.541 59.9797C122.731 59.6477 122.873 59.2682 122.921 58.8887C122.944 58.2009 122.423 57.6079 121.735 57.5605C119.814 57.3945 117.964 58.3906 117.062 60.0983C113.505 66.2413 108.903 71.4593 107.077 71.1747C106.579 71.1035 106.271 70.5343 106.318 69.3484C106.484 65.6247 109.876 61.3791 111.987 57.6791C112.176 57.3945 112.295 57.0861 112.295 56.7541C112.295 55.9714 111.655 55.4496 110.801 55.3073C107.599 54.7618 104.207 56.7778 104.16 57.94C104.16 58.3906 104.587 58.6515 105.037 58.7227H105.63C105.796 58.7227 105.939 58.865 105.939 59.031C105.867 59.3156 105.749 59.6003 105.583 59.8374C103.946 62.6125 101.954 66.4311 101.835 69.4196C101.717 72.1471 102.95 73.76 104.824 74.0209C106.935 74.3292 109.852 72.9773 112.769 69.6805C112.485 70.4394 112.295 71.2459 112.248 72.0523C111.987 73.8311 113.22 75.4914 114.999 75.7523C115.046 75.7523 115.094 75.776 115.165 75.776C116.849 76.1081 119.41 75.3965 122.185 73.5702C123.324 76.2504 125.648 78.219 128.447 78.9068C131.436 79.6658 134.59 79.4049 137.412 78.1715L136.962 79.3574C136.843 79.6183 136.772 79.8792 136.772 80.1639C136.654 80.8754 137.104 81.5395 137.792 81.6818C139.429 82.085 141.136 81.2549 141.8 79.7132L142.607 77.5549C143.413 75.3965 147.659 71.4356 151.074 71.0087C151.311 70.985 151.548 71.0087 151.762 71.0798C152.165 71.2459 152.402 71.6728 152.307 72.0997C152.189 73.5702 149.698 75.3016 146.995 76.2267C146.117 76.4876 145.524 77.3177 145.548 78.219C145.548 78.6459 145.572 79.0728 145.619 79.4998C146.093 85.0735 148.465 90.3389 152.355 94.371C152.521 94.537 152.734 94.6556 152.948 94.7505C153.232 94.8691 153.754 94.8217 153.802 94.371C153.778 94.0152 153.683 93.6832 153.517 93.3986C152.355 91.0268 149.153 84.4568 149.698 78.4087H149.746ZM147.232 63.4426C149.675 55.9714 152.473 50.706 153.47 51.1092C153.707 51.204 153.849 51.797 153.754 52.9592C153.375 57.2759 150.315 62.233 146.259 66.4074L147.232 63.4426ZM120.573 78.6933C120.193 78.6696 119.837 78.7645 119.529 78.978C117.869 79.9741 114.785 80.2825 110.35 79.4998C104.895 78.3139 99.5347 76.6773 94.3404 74.6375C95.0045 73.5228 95.5263 72.3132 95.9058 71.0798C96.1667 70.558 96.4039 69.9888 96.6411 69.3958C99.3212 62.5887 100.673 59.2208 103.424 52.4848C110.801 51.7496 121.379 47.5752 122.328 39.6533C122.612 36.7123 120.501 34.1033 117.584 33.7238C116.517 33.5103 115.426 33.4392 114.358 33.5815C105.44 34.7674 102.381 41.4322 100.46 46.1995L99.3687 48.9508C96.9968 48.6899 95.218 47.8835 95.3129 45.4643C95.3129 44.2784 96.2616 42.9264 96.2853 42.0251C96.3565 41.5508 96.0244 41.1001 95.55 41.029C95.5263 41.029 95.4789 41.029 95.4552 41.029C93.6526 40.8629 89.8103 43.7328 89.7154 47.504C89.6205 50.7771 92.1583 52.1765 95.2654 52.4611C96.1193 52.5323 96.9731 52.6271 97.827 52.6508C94.5776 60.8099 92.9885 64.9131 89.8577 73.167C88.2449 72.7875 86.5846 72.5266 84.948 72.4318C84.2602 72.3843 83.5724 72.3843 82.9083 72.4318L83.6198 70.0599C85.2564 64.7945 87.3673 59.6951 89.9288 54.8092C90.1186 54.5483 90.2135 54.24 90.2135 53.9079C90.2135 53.1964 89.6679 52.722 88.8615 52.722C87.4859 52.6508 86.1339 53.3387 84.8295 55.0938C84.2602 55.9477 83.7384 56.849 83.3115 57.774C80.2044 63.7035 76.3384 68.6843 74.6544 68.708C74.0852 68.708 73.7531 68.2099 73.7768 66.9529C73.7768 63.2291 77.0499 58.4381 79.1134 54.406C79.232 54.1688 79.3269 53.9316 79.3506 53.6707C79.3506 52.8169 78.7102 52.4137 77.7852 52.4137C75.8877 52.4611 74.0614 53.1489 72.6146 54.3348C71.6896 54.9989 71.2864 55.663 71.2864 56.1137C71.3338 56.5406 71.6896 56.849 72.1165 56.8252C72.33 56.8015 72.5672 56.7541 72.7807 56.6829C72.8992 56.6592 73.0178 56.7541 73.0416 56.8964C73.0416 56.9201 73.0416 56.9201 73.0416 56.9438C72.9704 57.2522 72.8518 57.5368 72.7095 57.7977C71.3813 60.383 70.314 63.0868 69.5313 65.8856C67.8473 67.617 66.3768 68.7792 65.2857 68.8503C64.1947 68.9215 63.5306 67.5933 63.3646 63.7509C69.4601 54.7855 74.8916 43.1873 75.3659 32.5616C75.4608 30.4744 74.6069 29.3597 73.9428 29.502C66.9223 31.1385 62.8428 45.5117 60.2575 53.2201C59.6883 53.1726 59.119 53.1726 58.5498 53.2201C52.7388 53.7182 46.3824 61.1182 46.4535 67.5933C46.4535 67.9016 46.4773 68.1862 46.501 68.4946C44.6035 70.5817 43.1567 71.6965 42.4689 71.8151C42.0894 71.8625 41.9471 71.6491 41.9471 71.317C41.9471 70.7241 43.2279 66.5734 43.4651 65.6958C43.5599 65.3638 43.6311 65.0317 43.6311 64.6997C43.6311 63.9881 43.1805 63.7272 42.4452 63.8458C40.524 64.4625 39.0061 65.9804 38.3894 67.9253C37.3932 70.985 35.2112 73.3805 33.8592 73.6888C32.199 74.0446 31.4874 72.408 31.3925 70.5817C31.2977 66.5497 34.4759 59.2445 39.1721 58.3669C40.4766 58.1297 41.7811 58.3669 41.8048 59.6477C41.8048 61.7349 39.8125 61.5689 39.8362 62.4701C39.8599 63.3714 41.283 63.3003 42.208 63.158C44.4375 62.8022 46.0741 60.881 46.0741 58.6278C46.0741 56.0188 43.4651 55.0701 40.1445 55.6868C32.4124 57.0861 26.6489 66.3599 26.815 72.2895C26.9098 75.6574 29.4714 77.5549 32.4124 76.9145C34.4759 76.3453 36.2548 75.0407 37.417 73.2619C37.6304 74.7799 38.6029 75.6337 40.5477 75.2779C42.1843 74.9933 44.5087 73.4279 47.0228 70.7715C47.9478 72.7401 50.0824 73.8786 52.2408 73.5228C55.0395 72.9773 57.5773 71.4356 59.3562 69.2061C60.0677 71.2933 61.3485 72.6215 63.3171 72.5029C64.8588 72.408 66.8748 71.317 69.3178 69.0401C69.5787 71.1035 70.7646 72.1471 72.4012 72.1234C74.5358 72.1234 77.4294 70.2497 80.2519 66.4548C79.564 68.8266 78.8525 71.317 78.2121 73.7363L76.2198 75.0407C69.9819 79.5946 68.0608 83.5793 67.705 85.7139C67.1357 89.2716 68.6537 91.7857 72.923 91.7146C76.4807 91.7146 79.232 88.062 80.5839 81.5632C81.1294 78.9068 81.3192 78.1715 81.6987 76.8196C81.9358 75.9183 82.5288 74.9459 84.5448 75.0407C85.8019 75.1356 87.059 75.4202 88.2449 75.8472C87.1538 77.3651 85.4224 78.2901 83.5724 78.3376H83.2403C82.6 78.3376 82.3153 78.5273 82.1967 79.0254C82.007 79.8318 83.0506 80.8517 84.5686 80.9228C87.4859 80.9228 90.2609 79.6895 92.1821 77.5074C97.1866 79.8792 103.519 83.2472 108.856 84.1485C115.473 85.2633 119.268 83.6267 120.976 80.069C121.071 79.903 121.118 79.7132 121.142 79.5235C121.094 79.144 120.881 78.8119 120.573 78.6933ZM106.105 46.2232C108.785 39.9854 111.014 35.5501 114.951 36.3328C116.469 36.6174 117.679 37.7084 117.56 40.0565C117.394 43.3059 114.833 48.7374 104.848 49.188L106.105 46.2232ZM63.7441 55.0938C65.0723 46.8399 68.63 36.6174 69.8159 36.5937C70.0768 36.5937 70.2665 37.1155 70.1954 38.0879C69.6024 45.2034 66.7563 53.2438 63.1985 60.0983C63.2934 58.4381 63.4832 56.7541 63.7441 55.0938ZM58.7395 61.0233C58.6921 62.1381 58.6209 63.3952 58.6209 64.4862C58.6209 65.3163 58.6684 66.099 58.7395 66.858C56.9844 68.9689 55.1818 70.1785 53.8773 70.3446C52.1222 70.5343 51.0074 68.9215 50.9837 66.1227C50.9837 61.5689 53.6639 56.4932 57.5536 56.1374C58.2889 55.9951 59.0004 56.4695 59.1427 57.2047C59.1665 57.2996 59.1665 57.3708 59.1665 57.4656C59.1665 59.5528 57.0555 59.2919 57.0793 60.0746C57.0793 60.8573 57.9805 60.9759 58.7395 61.0233ZM75.6268 84.2671C75.0102 87.1844 74.0614 88.7498 73.0178 88.7735C72.2589 88.7735 71.2153 88.5126 71.239 86.4017C71.239 84.8838 72.0691 82.6068 74.7018 79.9741C75.4371 79.1677 76.2198 78.4087 77.0736 77.7446C76.0775 82.1325 76.2435 81.3972 75.6268 84.2671Z" fill="#FDB913"/>
<path d="M103.425 52.5557C110.801 51.8204 121.379 47.646 122.328 39.7242C122.589 37.2101 121.047 34.8857 118.652 34.1267C120.644 35.0754 121.83 37.1864 121.593 39.3921C120.668 47.314 110.066 51.4884 102.689 52.2236C99.9381 58.9359 98.5861 62.3276 95.9297 69.0872C95.6925 69.6802 95.4553 70.2731 95.1944 70.7712C94.7912 72.0045 94.2694 73.2142 93.629 74.3289L94.4117 74.6135C95.0521 73.4988 95.5502 72.3366 95.9297 71.127C96.1906 70.6052 96.4278 70.0359 96.665 69.443C99.3214 62.6596 100.65 59.2679 103.425 52.5557ZM129.325 75.8469C127.309 74.8744 126.099 72.7398 126.313 70.5103C126.574 66.4782 129.681 61.9955 132.906 62.8019C132.716 62.6596 132.503 62.5647 132.266 62.4936C129.016 61.5449 125.838 66.0513 125.554 70.1783C125.316 72.7161 126.882 75.0642 129.325 75.8469ZM138.931 66.3596C139.097 64.1539 137.365 61.9244 134.804 60.9756C136.843 61.8532 138.172 63.8218 138.172 66.0276C138.053 68.2334 136.179 69.9411 133.974 69.8225C133.665 69.7988 133.333 69.7513 133.025 69.6565C133.262 69.7988 133.523 69.9174 133.808 69.9885C135.942 70.6052 138.148 69.3956 138.765 67.2609C138.859 66.9763 138.931 66.668 138.931 66.3596ZM96.7598 48.3102C95.74 47.7884 95.1233 46.6736 95.2656 45.5351C95.2656 44.3492 96.2143 42.9973 96.238 42.096C96.3092 41.6216 95.9771 41.171 95.5028 41.0998C95.4791 41.0998 95.4316 41.0998 95.4079 41.0998H95.313C95.4553 41.2896 95.5028 41.5268 95.4791 41.7639C95.4791 42.6652 94.5303 43.9697 94.5066 45.2031C94.388 46.6499 95.3368 47.9781 96.7598 48.3102ZM147.232 63.466C149.367 56.9673 151.738 52.1525 152.995 51.2749C152.995 51.014 152.853 50.8717 152.735 50.8243C151.738 50.4211 148.94 55.6628 146.497 63.1577L144.955 67.9013C145.406 67.427 145.856 66.9526 146.283 66.4545L147.232 63.466ZM121.688 57.5365C121.996 57.7737 122.162 58.1532 122.138 58.5327C122.067 58.9121 121.925 59.2916 121.735 59.6237C120.264 62.2801 115.972 69.9648 115.805 71.8385C115.805 72.3603 115.948 72.7873 116.375 72.8821C116.47 72.9058 116.588 72.9058 116.683 72.8821C116.564 72.6687 116.493 72.4078 116.541 72.1469C116.636 70.2731 120.929 62.5885 122.47 59.932C122.66 59.6 122.802 59.2205 122.85 58.841C122.85 58.1769 122.328 57.6314 121.664 57.5839V57.5365H121.688ZM40.5479 58.2006C39.8838 57.7974 39.1011 57.7025 38.3658 57.916C33.6222 58.7936 30.4677 66.0987 30.5863 70.1308C30.5863 71.6725 31.1792 73.0956 32.3651 73.2616C31.6536 72.5026 31.2741 71.4827 31.3453 70.4629C31.2504 66.4308 34.4286 59.1256 39.1248 58.248C39.5992 58.1532 40.0735 58.1532 40.5479 58.248V58.2006ZM78.3071 54.1922C76.2437 58.2243 73.018 63.0154 72.9706 66.7391C72.9706 67.925 73.2789 68.4943 73.8481 68.4943H73.9667C73.7533 68.0673 73.6584 67.5693 73.7058 67.0949C73.7058 63.3712 76.9789 58.5801 79.0424 54.548C79.1847 54.2634 79.2559 53.9788 79.2796 53.6704C79.2796 53.0301 78.7815 52.5083 78.1648 52.4845C78.4257 52.698 78.5443 53.0301 78.5206 53.3621C78.5206 53.6704 78.4494 53.9551 78.3071 54.1922ZM41.046 70.9847C41.046 71.293 41.1883 71.5539 41.5678 71.4827L41.805 71.4116C41.805 71.3879 41.805 71.3404 41.805 71.3167C41.805 70.7238 43.0857 66.5731 43.3229 65.6955C43.4178 65.3635 43.4889 65.0314 43.4889 64.6994C43.5364 64.2724 43.228 63.8692 42.8011 63.8218C42.73 63.8218 42.6588 63.8218 42.5877 63.8218C42.6825 63.9878 42.7537 64.1776 42.73 64.3436C42.7062 64.6757 42.6588 65.0314 42.5639 65.3398C42.3268 66.241 41.0223 70.4154 41.046 70.9847ZM64.3846 68.4706C63.7917 67.8776 63.3647 66.4308 63.1987 63.7269C69.2943 54.7615 74.7257 43.1633 75.2001 32.5376C75.2949 30.4504 74.4411 29.3357 73.777 29.478C74.3225 30.2607 74.5834 31.2331 74.4411 32.2055C73.9667 42.8787 68.5116 54.4294 62.4397 63.3949C62.7243 67.1661 63.4359 68.4943 64.3846 68.4706ZM83.5726 70.1783C85.2091 64.9128 87.32 59.8134 89.8816 54.9275C90.0713 54.6666 90.1662 54.3583 90.1662 54.0262C90.1662 53.4095 89.6681 52.8877 89.0515 52.8403C89.2886 53.0538 89.4309 53.3621 89.4072 53.6704C89.3835 54.0025 89.2886 54.3108 89.1226 54.5717C86.561 59.4577 84.4739 64.5571 82.861 69.8225L82.1495 72.1943H83.0033L83.5726 70.1783ZM76.0776 78.5745L76.3623 77.3886C75.5084 78.0527 74.7257 78.8116 73.9904 79.5943C71.3815 82.2271 70.5513 84.504 70.5276 86.022C70.5276 87.7771 71.2154 88.2515 71.9033 88.3938C71.4052 87.8483 71.168 87.113 71.2866 86.4015C71.2866 84.8835 72.1167 82.6066 74.7494 79.9738C75.1763 79.4758 75.627 79.0014 76.0776 78.5745ZM72.2116 56.7775C72.2116 56.7064 72.2116 56.6352 72.2116 56.5878C72.2353 56.4692 72.1404 56.3506 71.9981 56.3269C71.9744 56.3269 71.9744 56.3269 71.9507 56.3269C71.7372 56.398 71.5238 56.4455 71.334 56.4692C71.5 56.6826 71.7609 56.8012 72.0456 56.8012L72.2116 56.7775ZM97.8034 52.7217L97.8983 52.4371C97.0445 52.4371 95.313 52.2711 94.4592 52.1999C93.6528 52.1288 92.8463 51.9627 92.0874 51.6781C93.0835 52.1762 94.1746 52.4608 95.2656 52.532L97.8034 52.7217ZM80.1334 66.3359C80.3232 65.6718 80.5129 65.0314 80.7027 64.3673C79.8725 65.5532 75.8642 71.6013 71.5238 71.6725C71.2154 71.6725 70.9071 71.6251 70.6225 71.5539C71.1206 71.8622 71.7135 72.0283 72.2827 72.0046C76.1251 71.9571 79.9437 66.5494 80.1334 66.3359ZM103.472 73.6174C103.852 73.8546 104.302 74.0206 104.753 74.068C108.311 74.5898 111.939 70.6052 112.698 69.7276C112.793 69.2058 112.936 68.684 113.102 68.1859C111.394 70.1071 107.646 74.2578 103.994 73.736C103.828 73.7123 103.638 73.6648 103.472 73.6174ZM31.6062 76.4636C30.776 76.6533 29.8985 76.6296 29.092 76.3924C30.0882 76.9379 31.2504 77.0802 32.3651 76.7956C34.4049 76.1789 36.16 74.8744 37.3697 73.143C37.2274 72.8584 37.1325 72.5263 37.0851 72.218C36.2549 73.309 34.2626 75.8706 31.6062 76.4636ZM112.224 56.7538C112.224 56.0423 111.679 55.5679 110.896 55.3544C111.275 55.5916 111.489 55.9948 111.465 56.4217C111.465 56.7538 111.346 57.0859 111.157 57.3468C109.07 61.0468 105.654 65.316 105.488 69.0161C105.488 70.202 105.725 70.7475 106.247 70.8424C106.342 70.8424 106.413 70.8424 106.508 70.8424C106.271 70.3917 106.176 69.8699 106.247 69.3718C106.413 65.6481 109.805 61.4025 111.916 57.7025C112.129 57.4179 112.248 57.1096 112.224 56.7538ZM114.311 75.5385C114.098 75.4911 113.884 75.4437 113.671 75.3725C114.098 75.6097 114.572 75.7994 115.07 75.8706C116.968 76.2501 119.458 75.3014 122.091 73.6648C121.996 73.4751 121.877 73.2616 121.806 73.0481C119.031 74.8507 116.066 75.8706 114.311 75.5385ZM105.132 58.7461C105.132 58.5564 104.99 58.4141 104.824 58.4141H104.302C104.492 58.6038 104.729 58.7224 104.99 58.7461H105.132ZM106.105 46.223C108.785 39.9851 111.014 35.5498 114.952 36.3325L115.355 36.4274C114.999 36.2139 114.596 36.0716 114.169 36.0004C110.255 35.2652 108.002 39.653 105.322 45.8909L103.899 49.2589L104.824 49.1877L106.105 46.223ZM83.786 80.6142C83.5014 80.5905 83.2405 80.5431 82.9796 80.4719C83.454 80.7565 83.9995 80.9226 84.545 80.9463C87.4386 80.9463 90.2136 79.7129 92.1348 77.5546L91.3995 77.1988C89.4784 79.3809 86.7034 80.6142 83.786 80.6142ZM87.3437 75.6097L87.4149 75.5385C86.229 75.1116 84.9719 74.827 83.7149 74.7321C81.7226 74.661 81.1059 75.6097 80.8687 76.511C80.4892 77.8866 80.3232 78.6219 79.7539 81.2546C78.402 87.7534 75.6744 91.3585 72.093 91.406C71.2391 91.4297 70.3853 91.3111 69.5789 91.0502C70.5988 91.572 71.7135 91.8092 72.8283 91.738C76.386 91.738 79.1373 88.0854 80.4892 81.5867C81.0347 78.9302 81.2245 78.195 81.604 76.843C81.8411 75.9418 82.4341 74.9693 84.4501 75.0642C85.4463 75.1353 86.4425 75.3014 87.3912 75.6097H87.3437ZM39.694 74.827C39.196 74.9219 38.6979 74.9219 38.2235 74.827C38.8876 75.2539 39.694 75.3725 40.453 75.1591C42.2793 74.827 44.6037 73.0481 46.9281 70.6526C46.7858 70.4392 46.6435 70.202 46.5249 69.9648C44.1056 72.5263 41.6389 74.4475 39.7415 74.8033L39.694 74.827ZM120.573 78.6931C120.454 78.6693 120.359 78.6693 120.241 78.6931C120.336 78.8591 120.359 79.0251 120.336 79.1911C120.312 79.3809 120.264 79.5706 120.17 79.7367C118.486 83.2944 114.691 84.9546 108.05 83.8162C105.251 83.2469 102.523 82.3694 99.9143 81.1835C102.737 82.5354 105.725 83.5316 108.809 84.1482C115.426 85.263 119.221 83.6264 120.929 80.0687C121.023 79.9027 121.071 79.7129 121.095 79.5232C121.166 79.1674 120.929 78.7879 120.573 78.6931ZM62.4634 72.052C62.0602 72.0757 61.657 72.0283 61.2775 71.9097C61.8705 72.2654 62.5583 72.4315 63.2461 72.384C65.0724 72.2654 66.8987 71.0084 69.2468 68.9212C69.1757 68.6366 69.1045 68.352 69.0808 68.0673C66.4006 70.5577 64.3372 71.9334 62.4634 72.052ZM46.6672 75.7757L46.4537 75.8469C46.4537 75.918 46.4537 76.0129 46.4537 76.0841C46.4537 76.2975 46.4063 76.4873 46.3351 76.677C44.912 80.804 41.2357 83.7925 34.6421 85.2155C29.1395 86.4015 22.4273 85.2155 17.3279 84.8598C15.0984 88.2989 11.9201 90.979 8.19639 92.6156C7.08164 93.09 5.82458 93.1848 4.63867 92.9476C6.01432 93.588 7.60344 93.588 8.97909 92.9476C12.7265 91.3111 15.9285 88.6072 18.158 85.1918C23.2337 85.6188 29.9459 86.7098 35.4722 85.5476C42.0659 84.1719 45.7422 81.136 47.1653 77.0091C47.2364 76.8193 47.2838 76.6059 47.2838 76.4161C47.3076 75.9418 46.9755 75.7283 46.6672 75.7757ZM127.617 78.6456C127.285 78.5508 126.977 78.4559 126.645 78.3373C127.19 78.5982 127.783 78.8354 128.376 78.9777C131.365 79.7129 134.519 79.452 137.342 78.2424L137.602 77.5309C134.543 79.0725 130.985 79.4758 127.617 78.6456ZM157.739 45.796C157.621 45.7486 157.478 45.7249 157.36 45.7012C158 46.2467 158.356 47.4326 158.142 49.164C157.075 57.8923 151.145 65.4584 144.03 70.7475C143.935 71.2456 143.342 72.9058 143.176 73.309C143.579 72.977 143.959 72.6687 144.362 72.384L144.789 71.0795C151.904 65.7904 157.834 58.2243 158.901 49.4961C159.138 47.4563 158.617 46.1518 157.739 45.796ZM155.533 68.4231L155.154 68.2808C156.34 68.85 157.122 70.0122 157.17 71.3404C156.672 76.4873 148.963 78.1001 148.963 78.1001C148.442 84.1482 151.62 90.7419 152.782 93.09C152.948 93.3983 153.043 93.7303 153.067 94.0624C153.019 94.3233 152.782 94.5368 152.497 94.4893C152.64 94.6079 152.806 94.7028 152.972 94.7502C153.256 94.8688 153.778 94.8214 153.826 94.3707C153.802 94.015 153.707 93.6829 153.541 93.3983C152.355 91.0265 149.177 84.4566 149.722 78.4084C149.722 78.4084 157.407 76.7956 157.905 71.6488C157.881 70.202 156.933 68.9212 155.533 68.4231ZM151.383 71.0321C151.288 70.9135 151.169 70.8424 151.051 70.7949C150.837 70.7001 150.576 70.6763 150.363 70.7238C146.947 71.1507 142.702 75.1116 141.895 77.27L141.089 79.4283C140.472 80.9463 138.859 81.8239 137.247 81.4918C137.413 81.6104 137.579 81.7053 137.768 81.7764C139.429 82.2271 141.184 81.3495 141.824 79.7604L142.631 77.602C143.437 75.4437 147.683 71.4827 151.098 71.0558C151.193 71.0084 151.288 71.0084 151.383 71.0321ZM51.4345 73.0719C50.6281 73.1667 49.8217 73.0956 49.0627 72.8584C50.0351 73.3802 51.1262 73.5699 52.2172 73.4039C55.1583 73.0481 57.6012 70.8424 59.3326 69.0872C59.2141 68.85 59.1192 68.5891 59.0243 68.3045C57.1743 70.2731 54.4704 72.6924 51.4345 73.0719ZM63.7442 55.0935C64.9301 47.5512 67.9898 38.4197 69.484 36.8306C69.4366 36.4511 69.2943 36.2613 69.1282 36.2613C67.8475 36.2613 64.3134 46.5076 62.9852 54.7852C62.7243 56.4217 62.3686 61.1179 62.3686 61.9006C62.6769 61.3077 62.9615 60.7147 63.2699 60.0981C63.3647 59.1493 63.6256 55.9474 63.7442 55.0935ZM20.1978 54.548C19.676 54.0974 19.3913 53.4095 19.4388 52.7217C19.4388 51.5358 20.174 49.8993 20.1503 48.9743C20.1503 48.4762 19.8894 48.1916 19.3439 48.3102C19.3913 48.4287 19.3913 48.5473 19.3913 48.6422C19.3913 49.5435 18.6324 51.1563 18.6798 52.3897C18.7272 53.623 19.2965 54.3583 20.1978 54.548ZM43.7736 55.7339C44.6986 56.232 45.2441 57.2044 45.1967 58.248C45.1967 60.4775 43.5601 62.3987 41.3543 62.7545C40.88 62.8256 40.4056 62.8256 39.9312 62.7545C40.3344 63.1814 41.378 63.1577 42.1133 63.0391C44.3428 62.6833 45.9793 60.7622 45.9793 58.5089C45.9793 57.157 45.0306 55.9948 43.7261 55.7102L43.7736 55.7339ZM52.407 70.0359C51.5294 69.4193 51.0076 68.0911 50.9839 66.1699C50.9839 61.616 53.664 56.5403 57.5538 56.1846C57.7198 56.1608 57.8858 56.1608 58.0281 56.1846C57.6961 55.9237 57.2692 55.8051 56.8422 55.8525C52.9525 56.2083 50.2486 61.2602 50.2723 65.8378C50.2249 68.2334 51.055 69.7751 52.407 70.0359ZM19.8894 59.6C20.9093 59.3154 22.1664 58.9121 22.4035 58.841L22.5696 58.2243C22.1426 58.3666 20.4587 58.9121 19.1304 59.2916C17.9683 59.6948 16.7112 59.7897 15.5016 59.5288C16.8772 60.1455 18.4663 60.1692 19.8894 59.6ZM20.1978 81.6104C21.1228 79.7129 21.9055 77.7206 22.4747 75.6809C24.5856 68.0199 25.6529 64.2013 27.8824 56.5878C35.4485 52.864 45.1492 45.464 45.671 36.9492C45.8608 35.2177 44.7934 33.6049 43.1332 33.0831C44.3665 33.8184 45.0781 35.2177 44.912 36.6408C44.4614 45.1794 34.7607 52.5557 27.1234 56.2794C24.9177 63.8692 23.8266 67.6879 21.7157 75.3488C21.099 77.5309 20.2926 79.6181 19.2965 81.6341L20.1978 81.6104ZM30.0408 49.3537C32.2228 42.2383 34.0966 37.0915 38.0338 36.3088C38.437 36.2376 38.8165 36.2376 39.2197 36.3088C38.6505 35.9293 37.9389 35.8107 37.2748 36.0004C33.3613 36.7357 31.4639 41.93 29.2818 49.0454L28.0247 53.2198C28.3568 53.0775 28.6888 52.9115 29.0209 52.7692L30.0408 49.3537ZM8.83678 89.1053C8.71819 88.9156 8.64703 88.6784 8.64703 88.4649C8.64703 87.5636 9.21627 86.3303 11.1612 85.6899C12.3945 85.3341 13.6516 85.1444 14.9323 85.097C15.0035 84.9784 15.0984 84.8361 15.1695 84.6937C13.5567 84.6937 11.9676 84.9309 10.4259 85.3578C8.50472 86.022 7.86434 87.2316 7.91177 88.1329C7.91177 88.8444 8.26754 89.129 8.83678 89.1053Z" fill="#F58426"/>
<path d="M58.7877 51.2985L59.0486 50.5158C59.4281 49.3299 59.8076 48.144 60.2345 46.9581L55.8704 51.8915C56.6294 51.6306 57.4358 51.4408 58.2422 51.3697L58.7877 51.2985ZM77.7385 50.4684C78.9481 50.421 80.0866 51.0139 80.727 52.0101C80.9642 52.4133 81.9129 53.955 82.1975 54.3107C82.3636 54.5716 82.5059 54.8325 82.6007 55.1172C82.8142 54.7377 83.0514 54.3582 83.336 54.0024C84.4745 52.1524 86.4431 50.9665 88.6014 50.8716C88.0085 49.828 87.7239 48.6421 87.795 47.4325C87.9373 42.76 92.4438 39.0837 95.3374 39.1311H95.5746C96.4047 39.2023 97.1399 39.6292 97.6143 40.317C97.8989 40.744 99.0611 42.6889 99.0611 42.6889C99.2746 42.926 99.4169 43.2107 99.5118 43.4953L99.8675 42.6889L81.8892 22.5285L76.1968 28.9086C76.7186 29.6676 77.7385 31.2804 77.8334 31.4939C78.4501 32.5612 78.7347 33.8183 78.6398 35.0516C78.3078 40.4594 77.1218 45.7959 75.0821 50.8242C75.9122 50.5633 76.7898 50.4447 77.6437 50.4447L77.7385 50.4684ZM113.814 88.9155C112.58 88.868 111.371 88.7495 110.161 88.536C105.418 87.7533 100.223 85.2155 95.5983 82.9622L94.1752 82.2744C92.0406 84.2193 89.2655 85.3103 86.3719 85.334H86.1347C85.3758 85.3103 84.6405 85.1206 83.9764 84.7648C83.5732 86.852 82.8854 88.868 81.9366 90.7655H82.1264C93.3213 90.7892 104.493 91.8091 115.498 93.8488L122.4 86.093C120.645 87.7296 118.012 89.0103 113.814 88.9155ZM124.25 83.318C123.965 83.9584 123.609 84.5513 123.206 85.0969L126.124 81.8C124.89 81.0173 123.823 79.9737 122.993 78.7641H122.898C123.254 79.3096 123.657 79.8314 124.084 80.3295C124.44 80.8513 124.629 81.468 124.582 82.1084C124.558 82.5116 124.463 82.9148 124.297 83.2943L124.25 83.318ZM81.9603 110.025C75.8885 110.025 69.8167 110.357 63.7685 110.973L81.9603 131.466L100.176 110.973C94.1515 110.357 88.1033 110.048 82.0552 110.048L81.9603 110.025ZM66.5436 90.5995C65.7134 89.0341 65.4763 87.2078 65.832 85.4763C66.0692 84.0058 67.1602 80.4244 72.0225 75.9891C71.2398 75.6808 70.5756 75.159 70.1013 74.4949C68.6545 75.7045 66.8756 76.4872 65.0019 76.7006H64.5275C62.891 76.7244 61.373 75.9654 60.3769 74.6846C58.598 76.3212 56.3922 77.3885 54.0204 77.768C53.6409 77.7917 53.2851 77.7917 52.9056 77.768C51.9332 77.7442 50.9608 77.5308 50.0595 77.1276C50.4864 77.6019 50.7236 78.2186 50.7236 78.859C50.7236 79.2622 50.6524 79.6654 50.5338 80.0449C49.3005 83.5552 46.6678 86.3776 43.2998 87.8956L48.5415 93.8251C54.6608 92.6867 60.8038 91.8802 66.9942 91.3584L66.5436 90.5995Z" fill="url(#paint0_linear)"/>
<path d="M82.0078 92.6152H80.7033C79.3277 94.7498 77.0033 96.078 74.4654 96.1729H74.0622C72.0225 96.2915 70.0302 95.4851 68.6545 93.9909C68.5359 93.8485 68.3462 93.5639 68.109 93.2319C58.8826 93.9434 49.7274 95.3428 40.7383 97.43C40.7383 98.7345 42.5646 112.515 42.5646 112.515C55.5147 109.645 68.7257 108.222 81.9604 108.222H82.0315C95.2662 108.222 108.477 109.692 121.404 112.562C121.404 112.562 123.254 98.7345 123.254 97.3825C109.734 94.228 95.9066 92.6389 82.0078 92.6389V92.6152Z" fill="#005DAA"/>
<path d="M22.0957 93.6116L27.2188 99.7072L24.847 106.989C30.8714 105.139 34.6189 104.119 39.6471 103.051L38.8407 95.936L42.9439 90.7892L43.0625 90.6469L41.4497 88.8206C35.449 90.0776 28.974 91.6905 22.0957 93.6116ZM141.991 93.6116C135.065 91.6905 128.614 90.0539 122.471 88.7257L120.811 90.5757L120.929 90.718L125.032 95.8411H125.127L124.321 102.957C129.373 104.024 133.144 105.044 139.192 106.918L136.82 99.636L141.991 93.6116Z" fill="url(#paint1_linear)"/>
<path d="M83.5967 99.4941L84.4743 97.9761L84.7826 97.4306L84.8538 96.5056L84.2846 96.221L84.0474 96.1024C82.3634 95.2723 80.4897 94.8928 78.6396 94.9876H78.4025C77.2403 95.7941 75.8646 96.2447 74.4415 96.2684H73.4454C72.6152 96.8377 72.1409 97.7627 72.1409 98.7588C72.1409 98.8063 72.1409 98.83 72.1409 98.8774C72.1409 99.2095 72.212 99.5415 72.3306 99.8499C72.4018 100.609 72.7813 101.297 73.3979 101.724L73.0896 102.198L72.0697 103.763L71.714 104.309L71.9749 104.997C69.1287 101.344 67.6107 99.4941 64.5511 95.9126L64.3376 95.6755H63.2703L63.128 95.9364C60.7562 99.8736 59.5703 101.984 57.5068 105.779L57.4119 105.376L56.9613 104.973L55.6331 103.906L55.1587 103.479L54.7555 103.977L54.5895 104.19C54.0677 104.807 53.2613 105.471 50.9369 105.898C50.4151 105.993 49.8933 106.04 49.3952 106.04C48.826 106.064 48.2805 105.945 47.7824 105.708C47.6638 105.447 47.5926 105.163 47.5452 104.902C47.5452 104.76 47.5452 104.617 47.5452 104.475C47.5452 103.099 48.4939 102.103 51.1029 101.605C51.6959 101.486 52.2651 101.415 52.8581 101.415C53.5459 101.392 54.2337 101.558 54.8267 101.913L55.0401 102.032L55.5382 102.317L55.8465 101.842L56.8901 100.324L57.2459 99.7787L56.7478 98.9011L56.1786 98.5691L55.9651 98.4505C54.8978 97.8575 53.6882 97.5966 52.4548 97.6678C51.6247 97.6678 50.7709 97.7627 49.9644 97.905C46.4067 98.5454 43.4182 100.727 43.3945 104.024C43.3945 104.285 43.4182 104.57 43.442 104.831C43.5843 106.064 44.2247 107.202 45.2208 107.938C46.3593 109.147 47.9721 109.811 49.6087 109.717H49.751C50.4862 109.717 51.2215 109.622 51.9331 109.503C53.617 109.29 55.2299 108.626 56.5818 107.629L56.5106 107.772L57.0087 108.483L58.1946 108.317L60.3293 108.033H60.6376L60.7799 107.772L61.6338 106.206C64.1004 105.898 65.4761 105.756 67.9428 105.566L69.0101 106.918L69.1998 107.155H69.5082L71.714 107.013L72.8999 106.942L72.7338 106.206L72.0934 105.4L72.4255 105.59L72.639 105.708C74.4178 106.61 76.3864 107.013 78.355 106.894H78.8294C80.2525 106.894 81.6518 106.586 82.9326 106.017C84.1422 105.518 84.9487 104.38 84.9724 103.076V103.052V102.909C85.0198 102.696 85.0435 102.483 85.0435 102.293V102.222C85.1147 100.988 84.5455 99.9922 83.5967 99.4941ZM63.9107 101.961L64.4088 101.131L65.0254 101.842L63.9107 101.961ZM78.7108 103.004H78.4262C76.9319 103.076 75.4377 102.767 74.1095 102.103C75.0345 102.435 76.0069 102.601 76.9794 102.577L79.8493 102.649C80.2288 102.649 80.5845 102.672 80.964 102.72C80.2288 102.909 79.4935 103.004 78.7108 103.004ZM102.334 96.1973L101.694 96.1261L101.314 97.0511V97.6678C101.196 99.2095 101.124 100.253 101.03 101.439C98.3968 99.162 96.6417 97.7627 93.5346 95.3434L93.3923 95.2248H92.0878L91.8981 96.1735V96.7902C91.7558 100.561 91.6846 102.435 91.5186 106.206V106.799H92.1115L94.1039 106.918H94.7205L94.9814 106.183V105.542C95.0526 103.929 95.1 102.815 95.1712 101.558C97.875 103.763 99.5116 105.186 102.381 107.795L102.524 107.914H103.14L103.757 107.985L104.208 107.274V106.633L105.014 97.0037V96.4107L104.421 96.3396L102.334 96.1973ZM87.3442 95.1062H86.7275L86.6326 96.055V96.6716C86.5615 100.372 86.5141 102.245 86.4429 105.969V106.562H87.0359L89.0282 106.633H89.6449L89.7872 105.898V105.281C89.882 101.486 89.9295 99.6127 90.0481 95.7941V95.1774H89.4314L87.3442 95.1062ZM113.837 97.7627C113.173 97.6204 112.485 97.5492 111.798 97.5492C109.331 97.5492 106.983 98.4979 106.105 100.609C105.631 101.273 105.346 102.056 105.275 102.862C105.275 103.028 105.275 103.218 105.275 103.384C105.275 106.823 108.477 108.72 111.869 109.313C112.58 109.456 113.316 109.503 114.027 109.503H114.146C115.877 109.598 117.585 108.91 118.747 107.629C119.672 106.894 120.289 105.827 120.431 104.641C120.455 104.38 120.455 104.119 120.431 103.882C120.478 100.538 117.348 98.3793 113.837 97.7627ZM116.399 104.878C116.351 105.139 116.28 105.376 116.185 105.59C115.64 105.851 115.023 105.993 114.43 105.969C113.908 105.969 113.363 105.922 112.865 105.827C110.256 105.329 109.117 104.333 109.117 102.838C109.117 102.743 109.117 102.625 109.117 102.53C109.141 102.34 109.189 102.151 109.236 101.961C109.853 101.51 110.588 101.297 111.347 101.32C111.821 101.32 112.319 101.368 112.77 101.463C115.308 101.937 116.423 103.052 116.423 104.427C116.423 104.57 116.399 104.688 116.399 104.807V104.878Z" fill="#002B5C"/>
<path d="M54.9451 104.522C53.8778 105.661 52.4072 106.348 50.8656 106.443C47.972 106.965 46.3354 106.277 46.0271 104.072C45.7424 101.889 47.1181 100.514 50.0829 100.016C52.3598 99.5888 53.4034 99.8734 54.3284 100.395L54.5419 100.514L55.6092 98.9484L55.3957 98.8298C53.688 97.9997 51.7431 97.8337 49.9406 98.3555C46.2168 99.0433 43.4418 101.344 43.9162 104.57C44.3905 107.795 47.4739 108.72 51.1027 108.056C53.0476 107.866 54.8502 107.036 56.2496 105.684L56.4156 105.495L55.1111 104.309L54.9451 104.522ZM63.6022 96.3632C61.0881 100.538 59.9022 102.648 57.6015 106.918L59.7836 106.633L60.8035 104.688C63.6259 104.332 65.0727 104.19 67.9189 103.953L69.2234 105.589L71.5003 105.447C68.6542 101.747 67.1125 99.9683 64.0054 96.3157L63.6022 96.3632ZM61.8471 102.862C62.6772 101.415 63.1041 100.704 63.958 99.3042C65.0253 100.49 65.5471 101.178 66.567 102.435C64.6695 102.506 63.7208 102.601 61.8233 102.814V102.862H61.8471ZM80.11 99.4465L77.1452 99.3753C76.5286 99.3991 75.9119 99.3279 75.3189 99.1619C74.9632 99.0196 74.8683 98.8773 74.8446 98.5452C74.8209 98.2132 75.0106 97.9285 75.5324 97.6914C76.3625 97.383 77.2401 97.217 78.1177 97.217C79.7542 97.0747 81.3908 97.4067 82.8613 98.142L83.0985 98.2606L84.0472 96.6952L83.81 96.5766C82.0549 95.699 80.0863 95.3433 78.1177 95.5093H77.1927C76.3863 95.8651 75.5087 96.0785 74.6074 96.1023C73.4689 96.458 72.7337 97.5253 72.7574 98.7112C72.7574 100.538 74.4888 101.083 76.9081 101.083L79.8491 101.154C80.5369 101.13 81.201 101.225 81.8414 101.439C82.1735 101.534 82.3632 101.842 82.3395 102.174C82.3395 102.554 82.1498 102.862 81.5805 103.123C80.6555 103.455 79.7068 103.621 78.7344 103.573C77.0267 103.692 75.2952 103.336 73.7773 102.554L73.5638 102.435L72.5439 103.977L72.7811 104.095C74.6311 105.044 76.7183 105.447 78.7818 105.281C81.7703 105.281 84.4267 104.427 84.4741 102.079C84.4741 99.992 82.5767 99.4228 80.11 99.3516V99.4465ZM113.695 98.3555C110.042 97.6914 106.579 98.8536 106.319 102.127C106.058 105.4 108.999 107.416 112.533 108.056C116.067 108.697 119.316 107.866 119.814 104.498C120.312 101.13 117.347 99.0196 113.695 98.3555ZM117.68 104.143C117.395 106.254 115.569 106.941 112.699 106.396C109.829 105.874 108.263 104.546 108.477 102.411C108.69 100.277 110.54 99.4702 113.481 100.039C116.422 100.609 117.988 102.079 117.703 104.119H117.68V104.143ZM101.836 103.004C98.4441 100.063 96.7127 98.6164 93.1313 95.8888H92.6332C92.4909 99.7311 92.396 101.652 92.2537 105.495L94.2934 105.637L94.5781 99.3991C98.1358 102.245 99.8198 103.716 103.14 106.728H103.591C103.899 102.886 104.065 100.941 104.397 97.0984L102.286 96.8375C102.073 99.2805 101.978 100.538 101.836 103.004ZM87.1306 105.21L89.1703 105.281C89.2652 101.486 89.3126 99.6125 89.4312 95.7939L87.3203 95.7228C87.2492 99.5177 87.2017 101.415 87.1306 105.21Z" fill="white"/>
<path d="M117.822 94.2755L119.743 91.9036L122.4 95.2242C120.882 94.8921 119.364 94.5601 117.822 94.2755Z" fill="#002B5C"/>
<defs>
<linearGradient id="paint0_linear" x1="84.6749" y1="22.5885" x2="84.6749" y2="131.479" gradientUnits="userSpaceOnUse">
<stop offset="0.13" stop-color="#E31B23"/>
<stop offset="0.75" stop-color="#470000"/>
</linearGradient>
<linearGradient id="paint1_linear" x1="82.0483" y1="88.7198" x2="82.0483" y2="106.993" gradientUnits="userSpaceOnUse">
<stop stop-color="#005DAA"/>
<stop offset="0.88" stop-color="#002B5C"/>
</linearGradient>
</defs>
</svg>
