<svg width="41" height="41" viewBox="0 0 41 41" fill="none" xmlns="http://www.w3.org/2000/svg">
<path d="M38.5059 15.5679V39.2919H1.87793V15.5679" fill="#FCD462"/>
<path d="M36.6289 15.5674H38.5071V39.1535H36.6289V15.5674Z" fill="#F7BE56"/>
<path d="M24.9828 5.26466L20.1924 1.61621L15.4015 5.26466L6.95665 11.6972L1.87598 15.5678L6.95665 19.4385L20.1924 29.5195L33.4277 19.4385L38.5084 15.5678L33.4277 11.6972L24.9828 5.26466Z" fill="#F7BE56"/>
<path d="M20.1913 29.7966C20.1313 29.7966 20.073 29.7772 20.0251 29.7412L1.70749 15.7907C1.67308 15.7649 1.64516 15.7314 1.62593 15.693C1.60669 15.6545 1.59668 15.6121 1.59668 15.5691C1.59668 15.5261 1.60669 15.4836 1.62593 15.4452C1.64516 15.4067 1.67308 15.3732 1.70749 15.3474L20.024 1.39581C20.0722 1.35918 20.131 1.33936 20.1916 1.33936C20.2521 1.33936 20.311 1.35918 20.3592 1.39581L25.1501 5.04204L38.6734 15.3474C38.7078 15.3732 38.7358 15.4067 38.755 15.4452C38.7742 15.4836 38.7842 15.5261 38.7842 15.5691C38.7842 15.6121 38.7742 15.6545 38.755 15.693C38.7358 15.7314 38.7078 15.7649 38.6734 15.7907L20.3592 29.7401C20.3109 29.7768 20.2519 29.7967 20.1913 29.7966ZM2.33246 15.5691L20.1913 29.1711L38.0507 15.5691L20.1913 1.96427L2.33246 15.5691Z" fill="#323C6B"/>
<path d="M38.5073 39.5692H1.87549C1.81766 39.5693 1.76124 39.5514 1.71412 39.5179C1.667 39.4844 1.63155 39.437 1.61273 39.3823C1.59392 39.3276 1.59268 39.2684 1.6092 39.213C1.62572 39.1576 1.65916 39.1088 1.70484 39.0733L17.1075 27.0786C17.1655 27.0334 17.2391 27.0131 17.312 27.0221C17.3849 27.0312 17.4513 27.0688 17.4965 27.1268C17.5417 27.1847 17.562 27.2583 17.5529 27.3312C17.5439 27.4042 17.5063 27.4705 17.4483 27.5157L2.68219 39.0151H37.7012L22.9356 27.5157C22.9069 27.4934 22.8829 27.4655 22.865 27.4339C22.847 27.4022 22.8355 27.3674 22.831 27.3312C22.8265 27.2951 22.8292 27.2585 22.8389 27.2234C22.8486 27.1883 22.8651 27.1555 22.8874 27.1268C22.9098 27.0981 22.9376 27.0741 22.9693 27.0561C23.0009 27.0381 23.0358 27.0266 23.0719 27.0221C23.108 27.0176 23.1447 27.0203 23.1798 27.03C23.2148 27.0397 23.2477 27.0562 23.2764 27.0786L38.6791 39.0733C38.7248 39.1088 38.7582 39.1576 38.7747 39.213C38.7912 39.2684 38.79 39.3276 38.7712 39.3823C38.7524 39.437 38.7169 39.4844 38.6698 39.5179C38.6227 39.5514 38.5663 39.5693 38.5084 39.5692H38.5073Z" fill="#323C6B"/>
<path d="M33.4271 19.4385V5.26465H6.95605V19.4385L20.1919 29.5195L33.4271 19.4385Z" fill="#EEEFEE"/>
<path d="M33.4268 5.26221V19.4405L31.5929 20.8367V7.06288H6.9541V5.26221H33.4268Z" fill="#E1E6E9"/>
<path d="M29.22 10.2962H11.1628C11.0893 10.2962 11.0188 10.2671 10.9669 10.2151C10.9149 10.1631 10.8857 10.0927 10.8857 10.0192C10.8857 9.94574 10.9149 9.87528 10.9669 9.82333C11.0188 9.77137 11.0893 9.74219 11.1628 9.74219H29.22C29.2934 9.74219 29.3639 9.77137 29.4158 9.82333C29.4678 9.87528 29.497 9.94574 29.497 10.0192C29.497 10.0927 29.4678 10.1631 29.4158 10.2151C29.3639 10.2671 29.2934 10.2962 29.22 10.2962Z" fill="#323C6B"/>
<path d="M29.22 14.6366H11.1628C11.0893 14.6366 11.0188 14.6074 10.9669 14.5554C10.9149 14.5035 10.8857 14.433 10.8857 14.3595C10.8857 14.2861 10.9149 14.2156 10.9669 14.1637C11.0188 14.1117 11.0893 14.0825 11.1628 14.0825H29.22C29.2934 14.0825 29.3639 14.1117 29.4158 14.1637C29.4678 14.2156 29.497 14.2861 29.497 14.3595C29.497 14.433 29.4678 14.5035 29.4158 14.5554C29.3639 14.6074 29.2934 14.6366 29.22 14.6366Z" fill="#323C6B"/>
<path d="M29.22 18.9774H11.1628C11.0893 18.9774 11.0188 18.9482 10.9669 18.8963C10.9149 18.8443 10.8857 18.7738 10.8857 18.7004C10.8857 18.6269 10.9149 18.5564 10.9669 18.5045C11.0188 18.4525 11.0893 18.4233 11.1628 18.4233H29.22C29.2934 18.4233 29.3639 18.4525 29.4158 18.5045C29.4678 18.5564 29.497 18.6269 29.497 18.7004C29.497 18.7738 29.4678 18.8443 29.4158 18.8963C29.3639 18.9482 29.2934 18.9774 29.22 18.9774Z" fill="#323C6B"/>
<path d="M40.1696 31.4431C40.0961 31.4431 40.0257 31.4139 39.9737 31.3619C39.9218 31.31 39.8926 31.2395 39.8926 31.166V30.7272C39.8926 30.6537 39.9218 30.5833 39.9737 30.5313C40.0257 30.4794 40.0961 30.4502 40.1696 30.4502C40.2431 30.4502 40.3135 30.4794 40.3655 30.5313C40.4174 30.5833 40.4466 30.6537 40.4466 30.7272V31.166C40.4466 31.2395 40.4174 31.31 40.3655 31.3619C40.3135 31.4139 40.2431 31.4431 40.1696 31.4431Z" fill="#323C6B"/>
<path d="M40.1696 38.0085C40.0961 38.0085 40.0257 37.9793 39.9737 37.9273C39.9218 37.8754 39.8926 37.8049 39.8926 37.7315V32.5051C39.8926 32.4316 39.9218 32.3611 39.9737 32.3092C40.0257 32.2572 40.0961 32.228 40.1696 32.228C40.2431 32.228 40.3135 32.2572 40.3655 32.3092C40.4174 32.3611 40.4466 32.4316 40.4466 32.5051V37.7315C40.4466 37.8049 40.4174 37.8754 40.3655 37.9273C40.3135 37.9793 40.2431 38.0085 40.1696 38.0085Z" fill="#323C6B"/>
<path d="M5.29363 6.4468C5.22016 6.4468 5.14969 6.41761 5.09774 6.36566C5.04579 6.31371 5.0166 6.24325 5.0166 6.16977V3.60173C5.0166 3.52826 5.04579 3.4578 5.09774 3.40585C5.14969 3.35389 5.22016 3.32471 5.29363 3.32471H8.71214C8.78561 3.32471 8.85608 3.35389 8.90803 3.40585C8.95998 3.4578 8.98917 3.52826 8.98917 3.60173C8.98917 3.67521 8.95998 3.74567 8.90803 3.79762C8.85608 3.84957 8.78561 3.87876 8.71214 3.87876H5.57066V6.16922C5.57073 6.20565 5.56362 6.24173 5.54973 6.2754C5.53584 6.30908 5.51544 6.33968 5.48971 6.36547C5.46398 6.39125 5.43342 6.4117 5.39977 6.42566C5.36612 6.43962 5.33005 6.4468 5.29363 6.4468Z" fill="#323C6B"/>
<path d="M10.5474 3.87876H9.96453C9.89106 3.87876 9.82059 3.84957 9.76864 3.79762C9.71669 3.74567 9.6875 3.67521 9.6875 3.60173C9.6875 3.52826 9.71669 3.4578 9.76864 3.40585C9.82059 3.35389 9.89106 3.32471 9.96453 3.32471H10.5474C10.6209 3.32471 10.6913 3.35389 10.7433 3.40585C10.7952 3.4578 10.8244 3.52826 10.8244 3.60173C10.8244 3.67521 10.7952 3.74567 10.7433 3.79762C10.6913 3.84957 10.6209 3.87876 10.5474 3.87876Z" fill="#323C6B"/>
<path d="M38.5072 39.5695H1.87761C1.80414 39.5695 1.73368 39.5403 1.68173 39.4883C1.62977 39.4364 1.60059 39.3659 1.60059 39.2924V15.5695C1.60059 15.496 1.62977 15.4256 1.68173 15.3736C1.73368 15.3217 1.80414 15.2925 1.87761 15.2925C1.95109 15.2925 2.02155 15.3217 2.0735 15.3736C2.12545 15.4256 2.15464 15.496 2.15464 15.5695V39.0154H38.2302V15.5695C38.2302 15.496 38.2594 15.4256 38.3114 15.3736C38.3633 15.3217 38.4338 15.2925 38.5072 15.2925C38.5807 15.2925 38.6512 15.3217 38.7031 15.3736C38.7551 15.4256 38.7843 15.496 38.7843 15.5695V39.2924C38.7843 39.3659 38.7551 39.4364 38.7031 39.4883C38.6512 39.5403 38.5807 39.5695 38.5072 39.5695Z" fill="#323C6B"/>
<path d="M20.1917 29.7968C20.1317 29.7968 20.0734 29.7774 20.0255 29.7414L6.78855 19.6593C6.75414 19.6335 6.72621 19.6 6.70698 19.5615C6.68775 19.5231 6.67773 19.4807 6.67773 19.4377V5.26384C6.67773 5.19037 6.70692 5.11991 6.75887 5.06796C6.81083 5.016 6.88129 4.98682 6.95476 4.98682H33.4275C33.5009 4.98682 33.5714 5.016 33.6234 5.06796C33.6753 5.11991 33.7045 5.19037 33.7045 5.26384V19.4388C33.7045 19.4818 33.6945 19.5242 33.6752 19.5627C33.656 19.6011 33.6281 19.6346 33.5937 19.6604L20.3595 29.7403C20.3113 29.777 20.2523 29.7968 20.1917 29.7968ZM7.23345 19.3014L20.1917 29.1713L33.1504 19.3014V5.54087H7.23345V19.3014Z" fill="#323C6B"/>
<path d="M10.6384 30.1472C10.563 30.1476 10.4895 30.1243 10.428 30.0807C10.3666 30.0371 10.3204 29.9753 10.2959 29.904C10.2714 29.8327 10.2699 29.7556 10.2916 29.6834C10.3133 29.6112 10.3571 29.5477 10.4168 29.5017L10.7642 29.2341C10.8014 29.2031 10.8445 29.18 10.8909 29.1661C10.9372 29.1522 10.9859 29.1477 11.0341 29.1531C11.0822 29.1584 11.1287 29.1734 11.1709 29.1971C11.2131 29.2208 11.2501 29.2528 11.2797 29.2912C11.3092 29.3295 11.3307 29.3734 11.3429 29.4203C11.3551 29.4671 11.3577 29.516 11.3506 29.5639C11.3435 29.6118 11.3268 29.6577 11.3016 29.699C11.2763 29.7403 11.243 29.7761 11.2035 29.8042L10.8561 30.0718C10.7939 30.1202 10.7173 30.1467 10.6384 30.1472Z" fill="white"/>
<path d="M5.43528 34.158C5.35992 34.1584 5.28634 34.1352 5.22489 34.0915C5.16345 34.0479 5.11723 33.9861 5.09276 33.9148C5.06829 33.8436 5.06679 33.7664 5.08848 33.6942C5.11017 33.6221 5.15395 33.5585 5.21366 33.5126L8.91197 30.6608C8.9492 30.6299 8.99229 30.6068 9.03866 30.5928C9.08503 30.5789 9.13373 30.5745 9.18185 30.5798C9.22997 30.5852 9.27652 30.6001 9.31872 30.6239C9.36092 30.6476 9.3979 30.6796 9.42745 30.7179C9.45701 30.7563 9.47852 30.8002 9.49072 30.8471C9.50291 30.8939 9.50554 30.9427 9.49843 30.9906C9.49133 31.0385 9.47464 31.0845 9.44936 31.1258C9.42409 31.1671 9.39075 31.2028 9.35133 31.231L5.65247 34.0832C5.59026 34.1313 5.51393 34.1576 5.43528 34.158Z" fill="white"/>
</svg>
