<svg width="40" height="36" viewBox="0 0 40 36" fill="none" xmlns="http://www.w3.org/2000/svg">
<g clip-path="url(#clip0)">
<path d="M6.63839 2.24498C6.43911 4.55137 3.97363 4.91556 3.97363 4.91556C6.09067 5.01269 6.61813 7.71957 6.61813 7.71957C6.66335 5.78953 9.34366 4.88704 9.34366 4.88704C7.33588 4.76997 6.63839 2.24498 6.63839 2.24498Z" fill="#D6DF58"/>
<path d="M9.36194 4.58847C7.60153 4.48575 6.94127 2.19033 6.93472 2.16699C6.89585 2.02698 6.76081 1.93683 6.61084 1.94721C6.4625 1.96037 6.34526 2.07525 6.33278 2.21985C6.15682 4.25719 4.0181 4.60582 3.92787 4.61938C3.77176 4.64252 3.65923 4.77714 3.66741 4.93072C3.6756 5.08449 3.80184 5.20695 3.95938 5.21413C5.80654 5.29909 6.31212 7.75088 6.31703 7.77582C6.34506 7.91762 6.47232 8.01854 6.6182 8.01854C6.6268 8.01854 6.63539 8.01814 6.64398 8.01754C6.8003 8.00478 6.92163 7.87933 6.92531 7.72635C6.96501 6.02927 9.41963 5.17803 9.4446 5.16965C9.5827 5.12298 9.66802 4.98736 9.64797 4.84615C9.62751 4.70475 9.50802 4.59685 9.36194 4.58847ZM6.58649 6.65194C6.30884 6.02747 5.82762 5.27416 5.03416 4.88145C5.63386 4.60143 6.34547 4.10102 6.71232 3.23164C7.02966 3.84414 7.57166 4.60383 8.41749 4.9714C7.80204 5.2981 7.00102 5.84977 6.58649 6.65194Z" fill="#3A312A"/>
<path d="M2.19926 5.63177C2.05829 7.26304 0.314453 7.52073 0.314453 7.52073C1.81174 7.58934 2.18494 9.50402 2.18494 9.50402C2.21686 8.13901 4.11271 7.50058 4.11271 7.50058C2.69236 7.41761 2.19926 5.63177 2.19926 5.63177Z" fill="#D6DF58"/>
<path d="M4.13022 7.20181C2.95048 7.133 2.49912 5.56914 2.49462 5.55339C2.45575 5.41338 2.3205 5.32123 2.17094 5.3336C2.0224 5.34656 1.90516 5.46184 1.89268 5.60644C1.77421 6.97663 0.328278 7.21497 0.267716 7.22435C0.111603 7.24748 -0.000929008 7.38211 0.00725513 7.53568C0.0154393 7.68945 0.14168 7.81191 0.299224 7.81909C1.53421 7.87574 1.87958 9.5433 1.88265 9.55966C1.91027 9.70166 2.03795 9.80298 2.18383 9.80298C2.19242 9.80298 2.20081 9.80259 2.2094 9.80199C2.36593 9.78942 2.48725 9.66377 2.49094 9.5106C2.51754 8.37216 4.19569 7.78878 4.21227 7.78319C4.35078 7.73652 4.4361 7.6011 4.41605 7.45969C4.396 7.31829 4.27651 7.21019 4.13022 7.20181ZM2.1691 8.55684C1.98004 8.18089 1.69032 7.76963 1.25922 7.50397C1.63876 7.29635 2.01564 6.97943 2.25564 6.52349C2.47191 6.89725 2.79866 7.3121 3.26659 7.5654C2.88848 7.78479 2.45084 8.11188 2.1691 8.55684Z" fill="#3A312A"/>
<path d="M2.19071 0.315155C2.05629 1.94702 0.313477 2.21129 0.313477 2.21129C1.81097 2.27431 2.19194 4.1874 2.19194 4.1874C2.21834 2.82219 4.11174 2.17658 4.11174 2.17658C2.69097 2.099 2.19071 0.315155 2.19071 0.315155Z" fill="#D6DF58"/>
<path d="M4.12926 1.87781C2.95443 1.81379 2.49571 0.265486 2.48712 0.236168C2.44763 0.0961564 2.31095 0.00141957 2.16241 0.0173752C2.01407 0.0307381 1.89704 0.146217 1.88517 0.291214C1.77223 1.66181 0.327115 1.90593 0.266552 1.9155C0.110644 1.93924 -0.00147814 2.07426 0.00731981 2.22764C0.0159132 2.38141 0.142767 2.50327 0.300517 2.51005C1.53571 2.56211 1.88763 4.22808 1.8909 4.24443C1.91914 4.38604 2.0464 4.48656 2.19187 4.48656C2.20067 4.48656 2.20967 4.48616 2.21868 4.48536C2.3752 4.4722 2.49612 4.34615 2.49898 4.19298C2.52108 3.05414 4.19678 2.46458 4.21336 2.45899C4.35167 2.41192 4.43637 2.2761 4.41591 2.13469C4.39545 1.99349 4.27535 1.88579 4.12926 1.87781ZM2.17366 3.24042C1.98297 2.86506 1.69162 2.455 1.25949 2.19074C1.63842 1.98172 2.01366 1.6634 2.25203 1.20647C2.46972 1.57924 2.79832 1.99309 3.26727 2.24439C2.88957 2.46557 2.45336 2.79426 2.17366 3.24042Z" fill="#3A312A"/>
<path d="M30.243 10.9771L32.6976 4.43691H32.6923C32.7872 4.13814 32.8384 3.82082 32.8384 3.49193C32.8384 1.72943 31.3726 0.300797 29.5647 0.300797C27.7569 0.300797 26.2911 1.72943 26.2911 3.49193C26.2911 1.72943 24.8253 0.300797 23.0174 0.300797C21.2095 0.300797 19.7438 1.72943 19.7438 3.49193C19.7438 1.72943 18.278 0.300797 16.4701 0.300797C14.6622 0.300797 13.1964 1.72943 13.1964 3.49193C13.1964 3.82102 13.2478 4.13834 13.3425 4.43691H13.3372L15.7918 10.9771C10.2029 13.6013 6.3457 19.175 6.3457 25.627C6.3457 34.6023 13.8098 35.6029 23.0172 35.6029C32.2246 35.6029 39.6887 34.6025 39.6887 25.627C39.6889 19.175 35.8319 13.6013 30.243 10.9771Z" fill="#87796F"/>
<path d="M30.6259 10.8273L32.9858 4.53981C32.9939 4.51767 32.9995 4.49474 33.0019 4.4718C33.0971 4.15448 33.1454 3.8252 33.1454 3.49192C33.1454 1.56747 31.539 0.00161743 29.5648 0.00161743C28.1064 0.00161743 26.8489 0.856044 26.2911 2.07825C25.7334 0.856044 24.4759 0.00161743 23.0175 0.00161743C21.5591 0.00161743 20.3016 0.856044 19.7438 2.07825C19.1861 0.856044 17.9286 0.00161743 16.4702 0.00161743C14.4959 0.00161743 12.8896 1.56747 12.8896 3.49192C12.8896 3.8244 12.9375 4.15289 13.0322 4.46961C13.0349 4.49334 13.0406 4.51668 13.0492 4.53981L15.4091 10.8273C9.70801 13.6192 6.03906 19.3983 6.03906 25.6268C6.03906 29.882 7.69431 32.7032 11.0991 34.2517C14.2881 35.7019 18.7118 35.9017 23.0175 35.9017C27.3232 35.9017 31.7469 35.7019 34.9358 34.2517C38.3409 32.7032 39.9959 29.882 39.9959 25.6268C39.9959 19.3983 36.3271 13.6192 30.6259 10.8273ZM23.0175 35.3036C14.3936 35.3036 6.65287 34.5634 6.65287 25.6268C6.65287 19.536 10.2926 13.8912 15.9253 11.2466C16.0675 11.1798 16.1346 11.0186 16.0804 10.8742L13.6454 4.38624C13.6432 4.37347 13.6401 4.36071 13.636 4.34834C13.5482 4.07191 13.5036 3.78391 13.5036 3.49192C13.5036 1.89735 14.8346 0.599955 16.4704 0.599955C18.1062 0.599955 19.4371 1.89735 19.4371 3.49192C19.4371 3.65706 19.5744 3.79109 19.744 3.79109C19.9136 3.79109 20.0509 3.65706 20.0509 3.49192C20.0509 1.89735 21.3819 0.599955 23.0177 0.599955C24.6535 0.599955 25.9844 1.89735 25.9844 3.49192C25.9844 3.65706 26.1217 3.79109 26.2913 3.79109C26.461 3.79109 26.5982 3.65706 26.5982 3.49192C26.5982 1.89735 27.9292 0.599955 29.565 0.599955C31.2008 0.599955 32.5317 1.89735 32.5317 3.49192C32.5317 3.78391 32.4871 4.07191 32.3994 4.34834C32.3955 4.36071 32.3924 4.37307 32.3904 4.38564L29.955 10.8744C29.9007 11.019 29.9679 11.18 30.1101 11.2468C35.7428 13.8914 39.3825 19.5362 39.3825 25.627C39.3821 34.5634 31.6413 35.3036 23.0175 35.3036Z" fill="#3A312A"/>
<path d="M23.0181 30.5923C27.3121 30.5923 30.793 27.199 30.793 23.0133C30.793 18.8276 27.3121 15.4344 23.0181 15.4344C18.7241 15.4344 15.2432 18.8276 15.2432 23.0133C15.2432 27.199 18.7241 30.5923 23.0181 30.5923Z" fill="#D7E057"/>
<path d="M23.0184 15.1352C18.5621 15.1352 14.9365 18.6694 14.9365 23.0133C14.9365 27.3572 18.5621 30.8914 23.0184 30.8914C27.4746 30.8914 31.1002 27.3572 31.1002 23.0133C31.1002 18.6694 27.4746 15.1352 23.0184 15.1352ZM23.0184 30.2931C18.9005 30.2931 15.5503 27.0274 15.5503 23.0133C15.5503 18.9993 18.9005 15.7335 23.0184 15.7335C27.1362 15.7335 30.4864 18.9993 30.4864 23.0133C30.4864 27.0274 27.1362 30.2931 23.0184 30.2931Z" fill="#3A312A"/>
<path d="M23.9424 22.1563C22.8101 21.7408 22.3436 21.4682 22.3436 21.0396C22.3436 20.6762 22.6233 20.3124 23.4894 20.3124C24.4484 20.3124 25.0614 20.611 25.4076 20.754L25.7939 19.2866C25.3542 19.0788 24.7547 18.8967 23.8622 18.858V17.7152H22.5566V18.9488C21.1312 19.2216 20.3054 20.1175 20.3054 21.2604C20.3054 22.5201 21.2779 23.1695 22.7031 23.6368C23.6889 23.9615 24.1153 24.2732 24.1153 24.7664C24.1153 25.286 23.5956 25.5716 22.8365 25.5716C21.9704 25.5716 21.1848 25.2989 20.6252 25.0004L20.2256 26.5195C20.7318 26.8052 21.5977 27.0389 22.4901 27.0778V28.3114H23.7957V26.9868C25.3278 26.7274 26.1671 25.7403 26.1671 24.5845C26.1671 23.416 25.5275 22.7016 23.9424 22.1563Z" fill="#87796F"/>
<path d="M24.0505 21.8763C23.0431 21.5067 22.6506 21.2721 22.6506 21.0396C22.6506 20.6672 23.1763 20.6116 23.4895 20.6116C24.3008 20.6116 24.8348 20.8379 25.1883 20.9875L25.2882 21.0294C25.3704 21.0637 25.4639 21.0609 25.5439 21.0222C25.6241 20.9835 25.6829 20.9127 25.7052 20.8284L26.0914 19.3612C26.1277 19.2234 26.0593 19.0798 25.9282 19.0176C25.4218 18.7781 24.8442 18.6333 24.1694 18.5776V17.7152C24.1694 17.5501 24.0321 17.416 23.8625 17.416H22.5571C22.3875 17.416 22.2502 17.5501 22.2502 17.7152V18.7099C20.8546 19.0605 19.999 20.0202 19.999 21.2604C19.999 22.8601 21.3921 23.5223 22.6054 23.9202C23.663 24.2686 23.8089 24.5327 23.8089 24.7664C23.8089 25.2481 22.9993 25.2724 22.8368 25.2724C21.9126 25.2724 21.1468 24.9376 20.7728 24.7379C20.6897 24.693 20.5901 24.6892 20.5033 24.7257C20.4164 24.7626 20.3517 24.8364 20.3282 24.9258L19.9286 26.445C19.8944 26.5748 19.9531 26.7112 20.0722 26.7785C20.5931 27.0722 21.3819 27.2862 22.1835 27.3572V28.3112C22.1835 28.4763 22.3208 28.6104 22.4904 28.6104H23.796C23.9656 28.6104 24.1029 28.4763 24.1029 28.3112V27.2304C25.5523 26.8955 26.4743 25.8785 26.4743 24.5843C26.4741 23.2708 25.7475 22.46 24.0505 21.8763ZM23.7432 26.6921C23.5961 26.717 23.4889 26.8413 23.4889 26.9869V28.0124H22.7971V27.078C22.7971 26.9181 22.668 26.7862 22.5039 26.7792C21.8105 26.7487 21.0866 26.5898 20.5835 26.3632L20.8282 25.4326C21.3037 25.6414 22.0135 25.8708 22.8366 25.8708C23.7999 25.8708 24.4225 25.4372 24.4225 24.7664C24.4225 23.9936 23.6436 23.6306 22.8014 23.3532C21.2671 22.8502 20.6126 22.2241 20.6126 21.2604C20.6126 20.2368 21.3616 19.4823 22.6161 19.2424C22.7601 19.2149 22.8638 19.0918 22.8638 18.9488V18.0142H23.5554V18.8578C23.5554 19.018 23.6845 19.1496 23.8486 19.1566C24.4601 19.1833 24.9809 19.2821 25.432 19.4578L25.1992 20.3421C24.8151 20.1903 24.2553 20.0132 23.4895 20.0132C22.4184 20.0132 22.0368 20.5434 22.0368 21.0396C22.0368 21.7227 22.8159 22.0627 23.8404 22.4385C25.5167 23.0155 25.8602 23.7138 25.8602 24.5849C25.8602 25.6633 25.0492 26.4709 23.7432 26.6921Z" fill="#3A312A"/>
<path d="M31.4062 8.67751H21.012H18.2028H14.8334C13.9859 8.67751 13.2988 9.34725 13.2988 10.1734C13.2988 10.9995 13.9859 11.6692 14.8334 11.6692H31.4062C32.2537 11.6692 32.9408 10.9995 32.9408 10.1734C32.9408 9.34725 32.2537 8.67751 31.4062 8.67751Z" fill="#F16C7A"/>
<path d="M31.4065 8.37834H21.0122C20.8426 8.37834 20.7053 8.51237 20.7053 8.67751C20.7053 8.84265 20.8426 8.97668 21.0122 8.97668H31.4065C32.0835 8.97668 32.6341 9.51339 32.6341 10.1734C32.6341 10.8333 32.0835 11.37 31.4065 11.37H14.8336C14.1566 11.37 13.606 10.8333 13.606 10.1734C13.606 9.51339 14.1566 8.97668 14.8336 8.97668H18.203C18.3726 8.97668 18.5099 8.84265 18.5099 8.67751C18.5099 8.51237 18.3726 8.37834 18.203 8.37834H14.8336C13.8184 8.37834 12.9922 9.18351 12.9922 10.1734C12.9922 11.1632 13.8184 11.9684 14.8336 11.9684H31.4065C32.4218 11.9684 33.2479 11.1632 33.2479 10.1734C33.2479 9.18351 32.4218 8.37834 31.4065 8.37834Z" fill="#3A312A"/>
</g>
<defs>
<clipPath id="clip0">
<rect width="40" height="36" fill="white"/>
</clipPath>
</defs>
</svg>
