<svg width="43" height="43" viewBox="0 0 43 43" fill="none" xmlns="http://www.w3.org/2000/svg">
<g opacity="1">
<path d="M37.3554 2.70996H5.64459C4.05779 2.70996 2.77148 3.99627 2.77148 5.58323V27.4677C2.77148 29.0545 4.05779 30.3408 5.64459 30.3408H37.3552C38.942 30.3408 40.2283 29.0545 40.2283 27.4677V5.58323C40.2285 3.99643 38.9422 2.70996 37.3554 2.70996Z" fill="#87796F"/>
<path d="M37.3554 2.45801H5.64459C3.92157 2.45801 2.51953 3.85987 2.51953 5.58323V12.7446C2.51953 12.8838 2.63241 12.9965 2.77148 12.9965C2.91056 12.9965 3.02344 12.8838 3.02344 12.7446V5.58323C3.02344 4.13786 4.19939 2.96208 5.64459 2.96208H37.3552C38.8004 2.96208 39.9764 4.13786 39.9764 5.58323V27.4677C39.9764 28.9131 38.8004 30.089 37.3552 30.089H5.64459C4.19939 30.089 3.02344 28.9131 3.02344 27.4677V15.1378C3.02344 14.9986 2.91056 14.8858 2.77148 14.8858C2.63241 14.8858 2.51953 14.9986 2.51953 15.1378V27.4677C2.51953 29.1909 3.92157 30.5929 5.64459 30.5929H37.3552C39.0784 30.5929 40.4803 29.1911 40.4803 27.4677V5.58323C40.4805 3.85987 39.0784 2.45801 37.3554 2.45801Z" fill="#3A312A"/>
<path d="M36.1083 4.81055H6.89184C5.7866 4.81055 4.88965 5.70582 4.88965 6.81273V26.24C4.88965 27.3452 5.7866 28.2422 6.89184 28.2422H36.1083C37.2136 28.2422 38.1105 27.3452 38.1105 26.24V6.81273C38.1105 5.70582 37.2136 4.81055 36.1083 4.81055Z" fill="#8AC5DC"/>
<path d="M33.3844 8H9.61611C8.72352 8 8 8.29207 8 8.65239V24.3476C8 24.7079 8.72352 25 9.61611 25H33.3841C34.2765 25 35 24.7079 35 24.3476V8.65239C35.0002 8.29207 34.2767 8 33.3844 8Z" fill="#FAE6CA"/>
<path d="M36.1083 4.55859H14.5013C14.3622 4.55859 14.2494 4.6713 14.2494 4.81055C14.2494 4.94979 14.3622 5.0625 14.5013 5.0625H36.1083C37.0733 5.0625 37.8586 5.84759 37.8586 6.81273V26.24C37.8586 27.2051 37.0733 27.9902 36.1083 27.9902H6.89184C5.92686 27.9902 5.1416 27.2051 5.1416 26.24V6.81273C5.1416 5.84759 5.92686 5.0625 6.89184 5.0625H12.374C12.5131 5.0625 12.626 4.94979 12.626 4.81055C12.626 4.6713 12.5131 4.55859 12.374 4.55859H6.89184C5.64903 4.55859 4.6377 5.56977 4.6377 6.81273V26.24C4.6377 27.483 5.64903 28.4941 6.89184 28.4941H36.1083C37.3511 28.4941 38.3625 27.483 38.3625 26.24V6.81273C38.3625 5.56977 37.3511 4.55859 36.1083 4.55859Z" fill="#3A312A"/>
<path d="M19.0957 30.3408H23.9038V36.3193H19.0957V30.3408Z" fill="#87796F"/>
<path d="M23.9038 30.0889H19.0957C18.9566 30.0889 18.8438 30.2016 18.8438 30.3408V36.3193C18.8438 36.4586 18.9566 36.5713 19.0957 36.5713H23.9038C24.0429 36.5713 24.1558 36.4586 24.1558 36.3193V30.3408C24.1558 30.2017 24.0429 30.0889 23.9038 30.0889ZM23.6519 36.0674H19.3477V30.5928H23.6519V36.0674Z" fill="#3A312A"/>
<path d="M24.9092 36.3198H18.0908C15.9195 36.3198 14.1592 38.08 14.1592 40.2515H28.8407C28.8408 38.08 27.0807 36.3198 24.9092 36.3198Z" fill="#87796F"/>
<path d="M24.9092 36.0674H18.0907C15.7839 36.0674 13.9072 37.9441 13.9072 40.251C13.9072 40.3902 14.0201 40.5029 14.1592 40.5029H20.4721C20.6112 40.5029 20.7241 40.3902 20.7241 40.251C20.7241 40.1117 20.6112 39.999 20.4721 39.999H14.4197C14.5495 38.0872 16.1464 36.5713 18.0907 36.5713H24.9092C26.8534 36.5713 28.4503 38.087 28.5801 39.999H22.7515C22.6124 39.999 22.4995 40.1117 22.4995 40.251C22.4995 40.3902 22.6124 40.5029 22.7515 40.5029H28.8407C28.9797 40.5029 29.0926 40.3902 29.0926 40.251C29.0926 37.9443 27.2159 36.0674 24.9092 36.0674Z" fill="#3A312A"/>
<path d="M8.00713 34.1763C7.84353 36.1187 5.81934 36.4252 5.81934 36.4252C7.55714 36.507 7.99033 38.7867 7.99033 38.7867C8.02745 37.1612 10.2278 36.4012 10.2278 36.4012C8.57957 36.3028 8.00713 34.1763 8.00713 34.1763Z" fill="#D6DF58"/>
<path d="M10.2428 36.1501C8.7976 36.0637 8.2554 34.1304 8.25019 34.1108C8.21828 33.9928 8.10758 33.9157 7.98413 33.9257C7.86235 33.9367 7.7661 34.0335 7.75586 34.1553C7.61157 35.8711 5.85563 36.1648 5.78155 36.1764C5.65339 36.1958 5.56101 36.3091 5.56773 36.4385C5.57445 36.5678 5.67808 36.6709 5.80759 36.6772C7.32401 36.7485 7.73906 38.8134 7.74292 38.8342C7.7661 38.9536 7.87058 39.0386 7.99034 39.0386C7.9974 39.0386 8.00445 39.0383 8.01151 39.0378C8.14 39.027 8.23944 38.9214 8.24246 38.7927C8.27488 37.3636 10.29 36.6466 10.3105 36.6395C10.424 36.6001 10.4939 36.486 10.4775 36.3669C10.4607 36.2482 10.3627 36.1573 10.2428 36.1501ZM7.96431 37.888C7.73637 37.3623 7.34131 36.7277 6.68976 36.397C7.18208 36.161 7.76627 35.7397 8.06744 35.0074C8.32796 35.5232 8.77291 36.163 9.46729 36.4724C8.96221 36.7479 8.30461 37.2125 7.96431 37.888Z" fill="#3A312A"/>
<path d="M4.36276 37.0288C4.24703 38.4026 2.81543 38.6196 2.81543 38.6196C4.04462 38.6774 4.351 40.2899 4.351 40.2899C4.3772 39.1402 5.9336 38.6027 5.9336 38.6027C4.76773 38.5328 4.36276 37.0288 4.36276 37.0288Z" fill="#D6DF58"/>
<path d="M5.94856 38.3511C4.97988 38.2932 4.60951 36.9761 4.60598 36.9629C4.57407 36.845 4.46052 36.7675 4.34026 36.7778C4.21831 36.7887 4.1219 36.8856 4.11165 37.0075C4.0144 38.1617 2.82736 38.3625 2.77764 38.3704C2.64948 38.3898 2.5571 38.5031 2.56382 38.6325C2.57054 38.7618 2.67418 38.8649 2.80368 38.8712C3.81737 38.9189 4.10107 40.3231 4.10359 40.3369C4.12643 40.4565 4.23108 40.5418 4.35101 40.5418C4.35789 40.5418 4.36495 40.5416 4.372 40.5409C4.5005 40.5304 4.60011 40.4244 4.60313 40.2955C4.62496 39.3366 6.00248 38.8453 6.01608 38.8406C6.12963 38.8013 6.19967 38.6872 6.18338 38.5681C6.16675 38.4492 6.06849 38.3584 5.94856 38.3511ZM4.33858 39.4925C4.18338 39.1757 3.94553 38.8295 3.59162 38.6056C3.90337 38.4307 4.2126 38.1638 4.4098 37.7797C4.58734 38.0945 4.85559 38.444 5.23973 38.6572C4.92916 38.8421 4.5697 39.1174 4.33858 39.4925Z" fill="#3A312A"/>
<path d="M4.36276 32.5508C4.24703 33.9246 2.81543 34.1416 2.81543 34.1416C4.04462 34.1996 4.351 35.8119 4.351 35.8119C4.3772 34.6621 5.9336 34.1246 5.9336 34.1246C4.76773 34.0549 4.36276 32.5508 4.36276 32.5508Z" fill="#D6DF58"/>
<path d="M5.94856 33.8734C4.97988 33.8155 4.60951 32.4986 4.60598 32.4853C4.57407 32.3674 4.46052 32.29 4.34026 32.3002C4.21831 32.3111 4.1219 32.4081 4.11165 32.53C4.0144 33.6841 2.82736 33.8848 2.77764 33.8927C2.64948 33.9121 2.5571 34.0254 2.56382 34.1548C2.57054 34.2841 2.67418 34.3872 2.80368 34.3934C3.81737 34.4412 4.10107 35.8455 4.10359 35.8591C4.12643 35.9789 4.23108 36.0641 4.35101 36.0641C4.35789 36.0641 4.36495 36.0639 4.372 36.0632C4.5005 36.0526 4.60011 35.9467 4.60313 35.8178C4.62496 34.8587 6.00248 34.3676 6.01608 34.3629C6.12963 34.3236 6.19967 34.2095 6.18338 34.0904C6.16675 33.9715 6.06849 33.8806 5.94856 33.8734ZM4.33858 35.0148C4.18338 34.6981 3.94553 34.3518 3.59162 34.1279C3.90337 33.953 4.2126 33.6861 4.4098 33.302C4.58734 33.6166 4.85559 33.9663 5.23973 34.1795C4.92916 34.3646 4.5697 34.6399 4.33858 35.0148Z" fill="#3A312A"/>
<path d="M36.1084 5.0625H33.5889C34.553 5.0625 35.3391 5.84691 35.3391 6.81273V15.1457L35.6801 15.4866C35.9656 15.7722 36.1218 16.1501 36.1218 16.5532C36.1218 16.9564 35.9656 17.336 35.6801 17.6215L35.3391 17.9625V26.24C35.3391 27.2058 34.553 27.9902 33.5889 27.9902H36.1084C37.0725 27.9902 37.8586 27.2058 37.8586 26.24V6.81273C37.8586 5.84691 37.0725 5.0625 36.1084 5.0625Z" fill="#6CA8BF"/>
<line x1="11.25" y1="12.75" x2="20.75" y2="12.75" stroke="#50535C" stroke-width="0.5" stroke-linecap="round"/>
<line x1="11.25" y1="16.75" x2="27.75" y2="16.75" stroke="#50535C" stroke-width="0.5" stroke-linecap="round"/>
<line x1="11.25" y1="20.75" x2="27.75" y2="20.75" stroke="#50535C" stroke-width="0.5" stroke-linecap="round"/>
</g>
</svg>
