<svg width="43" height="43" viewBox="0 0 43 43" fill="none" xmlns="http://www.w3.org/2000/svg">
<path d="M36.0206 4.4043C35.857 6.34669 33.833 6.65323 33.833 6.65323C35.571 6.73503 36.004 9.01471 36.004 9.01471C36.0411 7.38927 38.2415 6.62921 38.2415 6.62921C36.5931 6.53061 36.0206 4.4043 36.0206 4.4043Z" fill="#D6DF58"/>
<path d="M38.2576 6.37764C36.8124 6.29113 36.2702 4.35798 36.265 4.33833C36.2331 4.22041 36.1219 4.14315 35.9989 4.15323C35.8772 4.16431 35.7809 4.26106 35.7707 4.38284C35.6262 6.09864 33.8704 6.39242 33.7962 6.40401C33.668 6.42332 33.5757 6.5367 33.5824 6.66621C33.5891 6.79554 33.6927 6.89867 33.8222 6.90489C35.3387 6.97628 35.7537 9.04112 35.7577 9.06194C35.7809 9.18137 35.8854 9.26636 36.0052 9.26636C36.0122 9.26636 36.0193 9.26619 36.0263 9.26552C36.1548 9.25477 36.2544 9.14912 36.2573 9.02029C36.2897 7.59121 38.305 6.87415 38.3255 6.8671C38.439 6.82762 38.5089 6.71357 38.4924 6.59448C38.4755 6.47573 38.3774 6.38486 38.2576 6.37764ZM35.9788 8.11544C35.7508 7.58953 35.3558 6.95511 34.7044 6.62438C35.1967 6.38855 35.7809 5.96712 36.0821 5.23478C36.3426 5.75061 36.7874 6.3904 37.4819 6.69997C36.9768 6.97544 36.3193 7.43987 35.9788 8.11544Z" fill="#3A312A"/>
<path d="M32.3764 7.25635C32.2607 8.63016 30.8291 8.84701 30.8291 8.84701C32.0583 8.90479 32.3647 10.5173 32.3647 10.5173C32.3909 9.36772 33.9473 8.83005 33.9473 8.83005C32.7814 8.76034 32.3764 7.25635 32.3764 7.25635Z" fill="#D6DF58"/>
<path d="M33.9621 8.57869C32.9936 8.52074 32.623 7.2037 32.6193 7.19043C32.5874 7.07252 32.475 6.99491 32.3538 7.00533C32.2318 7.01625 32.1354 7.11333 32.1252 7.23511C32.0281 8.38922 30.8411 8.59011 30.7913 8.59801C30.6632 8.61732 30.5706 8.7307 30.5775 8.86004C30.5842 8.98938 30.6879 9.09251 30.8174 9.09872C31.8309 9.14643 32.1146 10.5506 32.1171 10.5644C32.14 10.6842 32.2446 10.7693 32.3645 10.7693C32.3714 10.7693 32.3785 10.7692 32.3855 10.7685C32.514 10.7578 32.6136 10.6519 32.6166 10.5231C32.6385 9.564 34.016 9.07286 34.0296 9.06815C34.1431 9.02885 34.2132 8.9148 34.1969 8.79571C34.1803 8.67695 34.082 8.58591 33.9621 8.57869ZM32.3521 9.72004C32.1969 9.40342 31.959 9.05707 31.6053 8.83316C31.9169 8.65831 32.2263 8.39157 32.4233 8.00743C32.601 8.3222 32.8691 8.67158 33.2532 8.88473C32.9427 9.06983 32.5832 9.34513 32.3521 9.72004Z" fill="#3A312A"/>
<path d="M32.3764 2.77881C32.2607 4.15263 30.8291 4.36964 30.8291 4.36964C32.0583 4.42742 32.3647 6.03992 32.3647 6.03992C32.3909 4.89034 33.9473 4.35268 33.9473 4.35268C32.7814 4.2828 32.3764 2.77881 32.3764 2.77881Z" fill="#D6DF58"/>
<path d="M33.9621 4.10113C32.9936 4.04318 32.623 2.72614 32.6193 2.71287C32.5874 2.59478 32.475 2.51752 32.3538 2.52776C32.2318 2.53868 32.1354 2.63577 32.1252 2.75755C32.0281 3.91166 30.8411 4.11255 30.7913 4.12044C30.6632 4.13976 30.5706 4.25314 30.5775 4.38264C30.5842 4.51198 30.6879 4.61511 30.8174 4.62133C31.8309 4.66903 32.1146 6.07325 32.1171 6.08702C32.14 6.20678 32.2446 6.29194 32.3645 6.29194C32.3714 6.29194 32.3785 6.29178 32.3855 6.2911C32.514 6.28052 32.6136 6.17453 32.6166 6.0457C32.6385 5.08677 34.016 4.59546 34.0296 4.59076C34.1431 4.55145 34.2132 4.4374 34.1969 4.31831C34.1803 4.19939 34.082 4.10835 33.9621 4.10113ZM32.3521 5.24248C32.1969 4.92585 31.959 4.5795 31.6053 4.3556C31.9169 4.18075 32.2263 3.91401 32.4233 3.52987C32.601 3.84464 32.8691 4.19401 33.2532 4.40717C32.9427 4.5921 32.5832 4.86757 32.3521 5.24248Z" fill="#3A312A"/>
<path d="M26.8751 2.77002H6.90009C5.71691 2.77002 4.75781 3.72912 4.75781 4.91229V38.0881C4.75781 39.2713 5.71691 40.2304 6.90009 40.2304H26.8751C28.0583 40.2304 29.0174 39.2713 29.0174 38.0881V4.91229C29.0174 3.72912 28.0581 2.77002 26.8751 2.77002Z" fill="#F16C7A"/>
<path d="M26.8751 2.51807H6.90009C5.57985 2.51807 4.50586 3.59206 4.50586 4.91229V19.2625C4.50586 19.4018 4.61857 19.5145 4.75781 19.5145C4.89706 19.5145 5.00977 19.4018 5.00977 19.2625V4.91229C5.00977 3.86988 5.85767 3.02197 6.90009 3.02197H26.8751C27.9173 3.02197 28.7654 3.86988 28.7654 4.91229V38.0881C28.7654 39.1306 27.9173 39.9785 26.8751 39.9785H6.90009C5.85767 39.9785 5.00977 39.1306 5.00977 38.0881V21.8103C5.00977 21.671 4.89706 21.5583 4.75781 21.5583C4.61857 21.5583 4.50586 21.671 4.50586 21.8103V38.0881C4.50586 39.4084 5.57985 40.4824 6.90009 40.4824H26.8751C28.1952 40.4824 29.2693 39.4084 29.2693 38.0881V4.91229C29.2693 3.59206 28.1952 2.51807 26.8751 2.51807Z" fill="#3A312A"/>
<path d="M25.3306 5.25195H8.44592C7.81184 5.25195 7.29785 5.76594 7.29785 6.40002V34.0205C7.29785 34.6545 7.81184 35.1685 8.44592 35.1685H25.3305C25.9644 35.1685 26.4784 34.6545 26.4784 34.0205V6.40002C26.4785 5.76594 25.9646 5.25195 25.3306 5.25195Z" fill="#FAE6CA"/>
<path d="M25.3306 5H21.9031C21.764 5 21.6511 5.11271 21.6511 5.25195C21.6511 5.3912 21.764 5.50391 21.9031 5.50391H25.3306C25.8246 5.50391 26.2266 5.90586 26.2266 6.39985V34.0205C26.2266 34.5145 25.8246 34.9164 25.3306 34.9164H8.44592C7.95192 34.9164 7.5498 34.5145 7.5498 34.0205V6.40002C7.5498 5.90602 7.95175 5.50407 8.44592 5.50407H19.5864C19.7257 5.50407 19.8384 5.39137 19.8384 5.25212C19.8384 5.11287 19.7257 5.00017 19.5864 5.00017H8.44592C7.67393 5.00017 7.0459 5.6282 7.0459 6.40002V34.0205C7.0459 34.7924 7.67393 35.4203 8.44592 35.4203H25.3305C26.1025 35.4203 26.7303 34.7923 26.7303 34.0205V6.40002C26.7305 5.62804 26.1025 5 25.3306 5Z" fill="#3A312A"/>
<path d="M16.8874 36.5903C16.2555 36.5903 15.7432 37.1026 15.7432 37.7345C15.7432 38.3664 16.2555 38.8787 16.8874 38.8787C17.5193 38.8787 18.0316 38.3664 18.0316 37.7345C18.0316 37.1026 17.5193 36.5903 16.8874 36.5903Z" fill="#F16C7A"/>
<path d="M16.8874 36.3384C16.1176 36.3384 15.4912 36.9647 15.4912 37.7347C15.4912 38.5047 16.1176 39.1309 16.8874 39.1309C17.6573 39.1309 18.2835 38.5045 18.2835 37.7347C18.2835 36.9649 17.6573 36.3384 16.8874 36.3384ZM16.8874 38.6268C16.3954 38.6268 15.9951 38.2265 15.9951 37.7345C15.9951 37.2426 16.3954 36.8421 16.8874 36.8421C17.3793 36.8421 17.7796 37.2424 17.7796 37.7345C17.7796 38.2267 17.3795 38.6268 16.8874 38.6268Z" fill="#3A312A"/>
<path d="M25.3301 5.50439H22.8105C23.3044 5.50439 23.7075 5.90584 23.7075 6.39967V19.5063C23.7394 19.7767 23.7562 20.0488 23.7562 20.3243C23.7562 20.3965 23.7545 20.4671 23.7529 20.5376C23.7461 20.7375 23.731 20.9374 23.7075 21.1339V34.0204C23.7075 34.5143 23.3044 34.9157 22.8105 34.9157H25.3301C25.8239 34.9157 26.227 34.5143 26.227 34.0204V6.39967C26.227 5.90584 25.8239 5.50439 25.3301 5.50439Z" fill="#DECAAD"/>
</svg>
