<svg width="56" height="56" viewBox="0 0 56 56" fill="none" xmlns="http://www.w3.org/2000/svg">
<path d="M29.8203 34.7699L15.4101 20.3599C14.7707 19.7205 13.734 19.7205 13.0946 20.3599L9.36647 24.0881L7.16781 26.2868L3.99616 29.4584C3.35675 30.0978 3.35675 31.1345 3.99616 31.7739L18.4061 46.1838C19.0455 46.8232 20.0822 46.8232 20.7216 46.1838L29.82 37.0853C30.4597 36.4459 30.4597 35.4093 29.8203 34.7699Z" fill="#FAE6CA"/>
<path d="M30.0527 34.538L15.6426 20.1278C14.8761 19.3616 13.6292 19.3616 12.8629 20.1278L9.13498 23.856C9.00679 23.984 9.00679 24.192 9.13498 24.32C9.26316 24.4482 9.47076 24.4482 9.59895 24.32L13.3269 20.592C13.8374 20.0817 14.6678 20.0817 15.1784 20.592L29.5885 35.0022C30.0989 35.5125 30.0989 36.3431 29.5885 36.8537L20.4899 45.9522C19.9793 46.4625 19.1489 46.4625 18.6384 45.9522L4.2282 31.5422C3.71785 31.0319 3.71785 30.2013 4.2282 29.6907L7.40007 26.5188C7.52826 26.3909 7.52826 26.1828 7.40007 26.0549C7.27188 25.9267 7.06429 25.9267 6.9361 26.0549L3.76423 29.2267C3.39301 29.598 3.18848 30.0915 3.18848 30.6165C3.18848 31.1415 3.39301 31.635 3.76423 32.0062L18.1744 46.4163C18.5456 46.7876 19.0391 46.9919 19.5641 46.9919C20.0891 46.9919 20.5826 46.7876 20.9538 46.4163L30.0525 37.3179C30.4237 36.9467 30.6283 36.4532 30.6283 35.9282C30.6283 35.4032 30.4239 34.909 30.0527 34.538Z" fill="#3A312A"/>
<path d="M19.4112 34.8324C19.9414 34.7161 20.4465 34.4542 20.8588 34.0417C22.0082 32.8924 22.0082 31.0288 20.8588 29.8793C19.86 28.8805 18.3227 28.7508 17.1825 29.4879C17.0681 29.3068 16.934 29.1347 16.7763 28.9769C15.627 27.8276 13.7635 27.8276 12.6139 28.9769C11.4646 30.1263 11.4646 31.9898 12.6139 33.1391C12.7717 33.2968 12.9438 33.4309 13.1249 33.5453C12.388 34.6855 12.5177 36.2228 13.5165 37.2216C14.6658 38.371 16.5293 38.371 17.6787 37.2216C18.091 36.8091 18.3531 36.3042 18.4694 35.774L19.426 39.3442L22.9812 35.789L19.4112 34.8324Z" fill="#87796F"/>
<path d="M23.2977 35.7042C23.2673 35.5908 23.179 35.5025 23.0656 35.4723L20.4498 34.7714C20.6821 34.6336 20.8972 34.4669 21.0901 34.274C22.3656 32.9984 22.3656 30.9232 21.0901 29.6476C20.083 28.6401 18.525 28.4117 17.2784 29.0537C17.1937 28.9439 17.1032 28.8407 17.0078 28.7453C15.7323 27.4698 13.657 27.47 12.3815 28.7453C11.1059 30.0208 11.1059 32.0961 12.3815 33.3716C12.4768 33.467 12.5801 33.5574 12.6901 33.642C12.0481 34.8891 12.2765 36.4466 13.284 37.4539C13.9018 38.0719 14.7234 38.4121 15.5971 38.4121C16.4708 38.4121 17.2924 38.0717 17.9104 37.4539C18.1033 37.261 18.27 37.0458 18.4078 36.8137L19.1087 39.4295C19.1391 39.5428 19.2275 39.6312 19.3405 39.6616C19.3685 39.6692 19.3972 39.6727 19.4254 39.6727C19.5114 39.6727 19.5952 39.639 19.6575 39.5767L23.2126 36.0216C23.2958 35.9382 23.3281 35.8175 23.2977 35.7042ZM19.5954 38.7104L18.7858 35.6893C18.7473 35.5456 18.6171 35.446 18.469 35.446C18.4664 35.446 18.4638 35.446 18.4614 35.4463C18.3102 35.4498 18.1807 35.5561 18.1484 35.7039C18.041 36.1931 17.7981 36.6378 17.4462 36.99C16.9522 37.4839 16.2955 37.7558 15.5971 37.7558C14.8986 37.7558 14.2419 37.4837 13.748 36.99C12.8826 36.1244 12.7363 34.7509 13.4002 33.7238C13.4476 33.6503 13.4638 33.5606 13.445 33.4751C13.4262 33.3896 13.3739 33.3152 13.3 33.2684C13.1313 33.1616 12.9784 33.0402 12.8454 32.9074C11.8258 31.8879 11.8258 30.2286 12.8454 29.209C13.865 28.1897 15.524 28.1894 16.5438 29.209C16.6768 29.342 16.7982 29.4949 16.9045 29.6634C16.9514 29.7373 17.0257 29.7898 17.1113 29.8086C17.197 29.8272 17.2863 29.8113 17.36 29.7638C18.3868 29.0999 19.7605 29.2462 20.6261 30.1116C21.6457 31.1312 21.6457 32.7904 20.6261 33.81C20.2742 34.162 19.8295 34.4048 19.3401 34.5122C19.1925 34.5446 19.0859 34.6741 19.0824 34.8252C19.0789 34.9764 19.1793 35.1105 19.3255 35.1496L22.3466 35.9592L19.5954 38.7104Z" fill="#3A312A"/>
<path d="M33.9597 36.5183L30.1817 16.4929C30.0141 15.6043 29.1577 15.0198 28.2691 15.1874L15.6252 17.5728C14.7366 17.7404 14.1521 18.5968 14.3197 19.4854L18.0977 39.5108C18.2653 40.3994 19.1217 40.9839 20.0102 40.8163L32.6544 38.4309C33.543 38.2633 34.1275 37.4071 33.9597 36.5183Z" fill="#FAE6CA"/>
<path d="M34.2821 36.4577L30.504 16.4321C30.303 15.3672 29.2722 14.6641 28.2082 14.8652L15.5643 17.2504C14.4992 17.4512 13.7963 18.4811 13.9971 19.5462L17.7752 39.5719C17.953 40.5142 18.7799 41.1731 19.7061 41.1731C19.8264 41.1731 19.9485 41.162 20.0712 41.139L32.7154 38.7535C33.231 38.6562 33.6781 38.3637 33.9743 37.9302C34.27 37.4964 34.3794 36.9733 34.2821 36.4577ZM33.432 37.56C33.2351 37.8488 32.9372 38.0437 32.5935 38.1084L19.9493 40.4939C19.2395 40.6273 18.5539 40.1594 18.4201 39.45L14.642 19.4246C14.5081 18.7152 14.9765 18.0292 15.6859 17.8953L28.3301 15.5098C28.4117 15.4943 28.4931 15.4871 28.5733 15.4871C29.19 15.4871 29.7408 15.9259 29.8594 16.5537L33.6372 36.5792C33.7019 36.9228 33.6291 37.2713 33.432 37.56Z" fill="#3A312A"/>
<path d="M29.2539 27.1147C28.837 24.9043 25.8161 22.9073 23.3696 22.0596C23.1368 21.9789 22.8782 22.0277 22.6908 22.1876C20.7214 23.8685 18.6358 26.8286 19.0527 29.0393C19.4561 31.1776 21.6252 32.6657 23.9766 31.0647L22.7947 34.4365L27.7354 33.5044L25.4061 30.795C28.1794 31.4291 29.6573 29.253 29.2539 27.1147Z" fill="#87796F"/>
<path d="M29.5769 27.0539C29.154 24.8126 26.1887 22.689 23.4777 21.7494C23.1365 21.6313 22.7534 21.7033 22.4785 21.938C20.2962 23.8004 18.3082 26.8588 18.731 29.1001C18.9664 30.3474 19.7695 31.3948 20.8269 31.8334C21.6293 32.1661 22.5145 32.1388 23.3841 31.766L22.4861 34.328C22.4474 34.4387 22.4706 34.5614 22.5469 34.6504C22.6099 34.7235 22.7011 34.7646 22.7959 34.7646C22.816 34.7646 22.8365 34.7629 22.8567 34.7589L27.7974 33.8269C27.9124 33.805 28.0074 33.7236 28.0461 33.6129C28.0848 33.5022 28.0616 33.3795 27.9853 33.2905L26.2156 31.2318C27.1604 31.2622 27.9955 30.9652 28.6212 30.3629C29.4459 29.5693 29.8123 28.3012 29.5769 27.0539ZM25.4801 30.4752C25.3419 30.4434 25.199 30.5043 25.126 30.6257C25.0527 30.7471 25.0658 30.9017 25.1579 31.0091L27.1168 33.2876L23.2931 34.0091L24.2871 31.1734C24.3339 31.0398 24.2897 30.891 24.1773 30.8046C24.1184 30.7593 24.048 30.7366 23.9773 30.7366C23.913 30.7366 23.8485 30.7554 23.7927 30.7934C22.616 31.5947 21.6671 31.4718 21.0782 31.2272C20.2229 30.8724 19.5704 30.0108 19.3757 28.9785C19.0907 27.4676 20.2111 24.7356 22.9041 22.4372C23.0026 22.353 23.1402 22.3269 23.2625 22.3696C26.608 23.529 28.647 25.6649 28.9318 27.1755C29.1265 28.2078 28.8329 29.2482 28.1655 29.8902C27.7068 30.3323 26.8679 30.7928 25.4801 30.4752Z" fill="#3A312A"/>
<path d="M40.4384 17.6249L27.8088 15.1624C26.9214 14.9894 26.0615 15.5687 25.8884 16.4561L21.9886 36.4584C21.8155 37.3459 22.3948 38.2058 23.2823 38.3788L35.9118 40.8413C36.7993 41.0143 37.6592 40.4351 37.8322 39.5476L41.7321 19.5453C41.9051 18.6578 41.3258 17.7979 40.4384 17.6249Z" fill="#FAE6CA"/>
<path d="M41.7549 18.1339C41.4615 17.6984 41.0162 17.4033 40.501 17.3029L27.8717 14.8404C27.3568 14.74 26.8329 14.8461 26.3975 15.1395C25.962 15.4328 25.6669 15.8782 25.5665 16.3933L21.6664 36.3956C21.459 37.4594 22.1558 38.4934 23.2193 38.7008L35.8486 41.1633C35.9751 41.188 36.1011 41.1998 36.2255 41.1998C37.1467 41.1998 37.9714 40.5475 38.154 39.6104L42.0539 19.6081C42.1545 19.0929 42.0484 18.5693 41.7549 18.1339ZM41.4099 19.4825L37.51 39.4848C37.372 40.1936 36.6818 40.658 35.9744 40.5193L23.3451 38.0568C22.6366 37.9186 22.1726 37.2297 22.3106 36.5214L26.2105 16.5193C26.2774 16.1761 26.4741 15.8795 26.7642 15.6842C27.0542 15.4886 27.4031 15.4177 27.7461 15.4849L40.3754 17.9473C40.7187 18.0143 41.0155 18.2109 41.2108 18.501C41.406 18.7906 41.4768 19.1393 41.4099 19.4825Z" fill="#3A312A"/>
<path d="M32.9793 22.0178L27.1094 27.0375L30.7417 33.9859L36.6114 28.9664L32.9793 22.0178Z" fill="#87796F"/>
<path d="M36.9021 28.8144L33.27 21.8658C33.2238 21.7772 33.1396 21.7147 33.0414 21.6956C32.9432 21.6766 32.8419 21.7035 32.766 21.7685L26.8961 26.7879C26.7799 26.8874 26.7478 27.0537 26.8186 27.1893L30.451 34.1379C30.4973 34.2265 30.5813 34.2891 30.6796 34.3081C30.7003 34.3122 30.7209 34.314 30.7417 34.314C30.8191 34.314 30.895 34.2866 30.955 34.2352L36.8247 29.2158C36.9408 29.1163 36.9732 28.95 36.9021 28.8144ZM30.8417 33.4687L27.5213 27.1169L32.8793 22.535L36.1997 28.8868L30.8417 33.4687Z" fill="#3A312A"/>
<path d="M52.0036 29.4584L42.9052 20.3599C42.2657 19.7205 41.2291 19.7205 40.5897 20.3599L26.1797 34.7699C25.5403 35.4093 25.5403 36.4459 26.1797 37.0853L35.2782 46.1838C35.9176 46.8232 36.9543 46.8232 37.5937 46.1838L52.0036 31.7739C52.643 31.1345 52.643 30.0978 52.0036 29.4584Z" fill="#FAE6CA"/>
<path d="M52.2347 29.2263L43.1362 20.1278C42.765 19.7566 42.2715 19.5523 41.7465 19.5523C41.2215 19.5523 40.728 19.7566 40.3568 20.1278L38.4803 22.0043C38.3522 22.1322 38.3522 22.3403 38.4803 22.4682C38.6085 22.5964 38.8161 22.5964 38.9443 22.4682L40.8207 20.5918C41.3311 20.0817 42.1615 20.0815 42.6722 20.5918L51.7707 29.6905C52.0181 29.9377 52.1544 30.2665 52.1544 30.6162C52.1544 30.966 52.0181 31.2948 51.7707 31.542L37.3608 45.9519C36.8504 46.4623 36.0201 46.4625 35.5093 45.9519L26.4108 36.8535C26.1636 36.6063 26.0273 36.2775 26.0273 35.9277C26.0273 35.5779 26.1634 35.2491 26.4108 35.002L36.7839 24.6286C36.9121 24.5006 36.9121 24.2926 36.7839 24.1647C36.6557 24.0365 36.4482 24.0365 36.32 24.1647L25.9468 34.538C25.5756 34.9092 25.3711 35.4027 25.3711 35.9277C25.3711 36.4527 25.5756 36.9462 25.9468 37.3174L35.0453 46.4159C35.4165 46.7871 35.91 46.9914 36.4348 46.9914C36.9598 46.9914 37.4533 46.7871 37.8247 46.4159L52.2347 32.006C52.6059 31.6347 52.8107 31.141 52.8107 30.616C52.8107 30.091 52.6059 29.5975 52.2347 29.2263Z" fill="#3A312A"/>
<path d="M42.2129 30.1503C41.3296 26.3419 38.0167 26.1835 36.1503 28.0499C34.3815 29.8187 34.4412 33.8454 35.1963 36.6238C35.2683 36.8882 35.475 37.0952 35.7395 37.1669C38.518 37.9221 42.5446 37.9818 44.3134 36.213C46.1798 34.3466 46.0212 31.0336 42.2129 30.1503Z" fill="#87796F"/>
<path d="M45.6746 32.599C45.297 31.2804 44.1676 30.3198 42.4843 29.8793C42.0435 28.196 41.0832 27.0666 39.7644 26.6892C38.4608 26.3163 36.9876 26.749 35.9185 27.818C34.1348 29.6017 34.046 33.6413 34.8799 36.71C34.9818 37.0853 35.2783 37.382 35.6536 37.4837C36.8463 37.8079 38.1854 37.9927 39.4822 37.9927C41.5214 37.9927 43.4551 37.5355 44.5456 36.4451C45.6148 35.3758 46.0473 33.9021 45.6746 32.599ZM44.0818 35.9809C42.8649 37.1973 39.6388 37.8866 35.8258 36.8502C35.6744 36.8091 35.5545 36.6894 35.5132 36.5376C34.477 32.7246 35.1663 29.4982 36.3827 28.2817C37.0733 27.5909 37.9555 27.2134 38.8139 27.2134C39.0749 27.2134 39.3337 27.2484 39.5841 27.3199C40.7142 27.6432 41.5343 28.6746 41.8939 30.2242C41.9221 30.3463 42.0173 30.4415 42.1393 30.4699C43.689 30.8293 44.7204 31.6496 45.0437 32.7795C45.3508 33.8535 44.9824 35.0803 44.0818 35.9809Z" fill="#3A312A"/>
<path d="M10.3646 11.4533C10.1516 13.9829 7.51562 14.3824 7.51562 14.3824C9.77903 14.4889 10.343 17.4578 10.343 17.4578C10.3913 15.3409 13.2569 14.3511 13.2569 14.3511C11.1103 14.2227 10.3646 11.4533 10.3646 11.4533Z" fill="#D6DF58"/>
<path d="M13.2776 14.0234C11.3952 13.9108 10.6891 11.3932 10.6823 11.3676C10.6406 11.2138 10.4938 11.1132 10.3361 11.1265C10.1775 11.1409 10.0521 11.2669 10.0388 11.4255C9.85065 13.6601 7.56406 14.0427 7.46759 14.0578C7.30068 14.0829 7.18037 14.2306 7.1889 14.3992C7.19765 14.5677 7.33262 14.702 7.50128 14.7101C9.47615 14.803 10.0165 17.4921 10.0217 17.5193C10.0517 17.6748 10.1877 17.7855 10.3437 17.7855C10.3529 17.7855 10.3621 17.785 10.3713 17.7844C10.5384 17.7704 10.6681 17.6328 10.6721 17.4652C10.7147 15.6039 13.3391 14.6703 13.3655 14.6611C13.5132 14.6097 13.6044 14.4611 13.583 14.306C13.5615 14.1512 13.4338 14.0328 13.2776 14.0234ZM10.31 16.2866C10.0132 15.6019 9.49868 14.7757 8.65037 14.345C9.29153 14.0376 10.0523 13.489 10.4446 12.5353C10.7838 13.207 11.3631 14.0403 12.2676 14.4434C11.6098 14.8022 10.7532 15.407 10.31 16.2866Z" fill="#3A312A"/>
<path d="M5.61864 15.1679C5.46792 16.9571 3.60352 17.2397 3.60352 17.2397C5.20433 17.3149 5.60333 19.4149 5.60333 19.4149C5.63745 17.9178 7.66439 17.2176 7.66439 17.2176C6.14583 17.1266 5.61864 15.1679 5.61864 15.1679Z" fill="#D6DF58"/>
<path d="M7.68387 16.8899C6.42234 16.8144 5.93978 15.0994 5.93518 15.0819C5.89362 14.9284 5.74859 14.8269 5.58912 14.8409C5.43031 14.8551 5.30496 14.9815 5.29162 15.1401C5.16496 16.6432 3.61906 16.9048 3.55431 16.9151C3.3874 16.9402 3.26709 17.0879 3.27584 17.2565C3.28459 17.425 3.41956 17.5593 3.58821 17.5674C4.90837 17.6295 5.27784 19.4582 5.28112 19.4762C5.31065 19.6319 5.44715 19.7431 5.60334 19.7431C5.61231 19.7431 5.62149 19.7428 5.63068 19.742C5.79803 19.7282 5.92774 19.5902 5.93168 19.4224C5.96012 18.1735 7.75409 17.5339 7.77181 17.5278C7.91968 17.4766 8.01112 17.3281 7.98968 17.173C7.96803 17.0177 7.84028 16.8993 7.68387 16.8899ZM5.58715 18.3763C5.38503 17.9637 5.07528 17.5129 4.61437 17.2213C5.02015 16.9936 5.42309 16.6462 5.67968 16.1459C5.9109 16.5559 6.26046 17.0109 6.76053 17.2887C6.35628 17.5293 5.88837 17.8881 5.58715 18.3763Z" fill="#3A312A"/>
<path d="M5.61864 9.33647C5.46792 11.1256 3.60352 11.4083 3.60352 11.4083C5.20433 11.4835 5.60333 13.5835 5.60333 13.5835C5.63745 12.0862 7.66439 11.3862 7.66439 11.3862C6.14583 11.2952 5.61864 9.33647 5.61864 9.33647Z" fill="#D6DF58"/>
<path d="M7.68387 11.0585C6.42234 10.983 5.93978 9.268 5.93518 9.2505C5.89362 9.09693 5.74859 8.99544 5.58912 9.00944C5.43031 9.02365 5.30496 9.15009 5.29162 9.30869C5.16496 10.8117 3.61906 11.0733 3.55431 11.0836C3.3874 11.1088 3.26709 11.2564 3.27584 11.4251C3.28459 11.5935 3.41956 11.7278 3.588 11.7359C4.90837 11.7981 5.27762 13.6268 5.28112 13.6447C5.31065 13.8005 5.44715 13.9116 5.60334 13.9116C5.61231 13.9116 5.6215 13.9112 5.63068 13.9105C5.79803 13.8965 5.92775 13.7587 5.93168 13.5909C5.96012 12.3421 7.75431 11.7022 7.77181 11.6961C7.9199 11.6449 8.01112 11.4964 7.98968 11.3413C7.96803 11.1864 7.84028 11.0679 7.68387 11.0585ZM5.58715 12.5451C5.38503 12.1325 5.07528 11.6817 4.61437 11.3901C5.02015 11.1622 5.42309 10.8148 5.6799 10.3145C5.91112 10.7244 6.26046 11.1797 6.76075 11.4572C6.35628 11.6981 5.88837 12.0568 5.58715 12.5451Z" fill="#3A312A"/>
<path d="M51.7711 29.6909L42.6733 20.5909C42.4261 20.3438 42.0958 20.2081 41.7458 20.2081C41.398 20.2081 41.0677 20.3438 40.8205 20.5909L40.1052 21.3063L48.4899 29.6909C48.7371 29.9381 48.8727 30.2663 48.8727 30.6163C48.8727 30.9663 48.7371 31.2944 48.4899 31.5416L45.7249 34.3066C45.5652 35.0809 45.1605 35.8313 44.5458 36.4459C44.0099 36.9797 43.2727 37.3625 42.4196 37.6119L34.7939 45.2375L35.5093 45.9528C36.0211 46.4625 36.8502 46.4625 37.3599 45.9528L51.7711 31.5416C52.0183 31.2944 52.1539 30.9663 52.1539 30.6163C52.1539 30.2663 52.0183 29.9381 51.7711 29.6909Z" fill="#DDC9AC"/>
</svg>
