<svg width="128" height="20" viewBox="0 0 128 20" fill="none" xmlns="http://www.w3.org/2000/svg">
<g clip-path="url(#clip0)">
<path d="M19.9713 7.70552C19.9024 7.49337 19.7191 7.33876 19.4984 7.30673L13.2983 6.40576L10.5254 0.787538C10.4268 0.587539 10.223 0.460938 10 0.460938C9.77699 0.460938 9.57332 0.587539 9.47461 0.787538L6.70165 6.40576L0.501673 7.30673C0.281009 7.33876 0.0976117 7.49337 0.0287057 7.70548C-0.0402394 7.91763 0.0172604 8.15048 0.176986 8.30614L4.66322 12.6793L3.60432 18.8544C3.56658 19.0743 3.65697 19.2964 3.8374 19.4275C3.93947 19.5016 4.06037 19.5394 4.18185 19.5394C4.27513 19.5394 4.36873 19.5172 4.45443 19.4721L10 16.5565L15.5453 19.472C15.7428 19.5758 15.982 19.5586 16.1624 19.4275C16.3428 19.2964 16.4333 19.0742 16.3956 18.8543L15.3363 12.6793L19.823 8.3061C19.9827 8.15048 20.0403 7.91763 19.9713 7.70552Z" fill="#FFCF24"/>
</g>
<g clip-path="url(#clip1)">
<path d="M46.9713 7.70552C46.9024 7.49337 46.7191 7.33876 46.4984 7.30673L40.2983 6.40576L37.5254 0.787538C37.4268 0.587539 37.223 0.460938 37 0.460938C36.777 0.460938 36.5733 0.587539 36.4746 0.787538L33.7016 6.40576L27.5017 7.30673C27.281 7.33876 27.0976 7.49337 27.0287 7.70548C26.9598 7.91763 27.0173 8.15048 27.177 8.30614L31.6632 12.6793L30.6043 18.8544C30.5666 19.0743 30.657 19.2964 30.8374 19.4275C30.9395 19.5016 31.0604 19.5394 31.1819 19.5394C31.2751 19.5394 31.3687 19.5172 31.4544 19.4721L37 16.5565L42.5453 19.472C42.7428 19.5758 42.982 19.5586 43.1624 19.4275C43.3428 19.2964 43.4333 19.0742 43.3956 18.8543L42.3363 12.6793L46.823 8.3061C46.9827 8.15048 47.0403 7.91763 46.9713 7.70552Z" fill="#FFCF24"/>
</g>
<g clip-path="url(#clip2)">
<path d="M73.9713 7.70552C73.9024 7.49337 73.7191 7.33876 73.4984 7.30673L67.2983 6.40576L64.5254 0.787538C64.4268 0.587539 64.223 0.460938 64 0.460938C63.777 0.460938 63.5733 0.587539 63.4746 0.787538L60.7016 6.40576L54.5017 7.30673C54.281 7.33876 54.0976 7.49337 54.0287 7.70548C53.9598 7.91763 54.0173 8.15048 54.177 8.30614L58.6632 12.6793L57.6043 18.8544C57.5666 19.0743 57.657 19.2964 57.8374 19.4275C57.9395 19.5016 58.0604 19.5394 58.1819 19.5394C58.2751 19.5394 58.3687 19.5172 58.4544 19.4721L64 16.5565L69.5453 19.472C69.7428 19.5758 69.982 19.5586 70.1624 19.4275C70.3428 19.2964 70.4333 19.0742 70.3956 18.8543L69.3363 12.6793L73.823 8.3061C73.9827 8.15048 74.0403 7.91763 73.9713 7.70552Z" fill="#FFCF24"/>
</g>
<g clip-path="url(#clip3)">
<path d="M100.971 7.70552C100.902 7.49337 100.719 7.33876 100.498 7.30673L94.2983 6.40576L91.5254 0.787538C91.4268 0.587539 91.223 0.460938 91 0.460938C90.777 0.460938 90.5733 0.587539 90.4746 0.787538L87.7016 6.40576L81.5017 7.30673C81.281 7.33876 81.0976 7.49337 81.0287 7.70548C80.9598 7.91763 81.0173 8.15048 81.177 8.30614L85.6632 12.6793L84.6043 18.8544C84.5666 19.0743 84.657 19.2964 84.8374 19.4275C84.9395 19.5016 85.0604 19.5394 85.1819 19.5394C85.2751 19.5394 85.3687 19.5172 85.4544 19.4721L91 16.5565L96.5453 19.472C96.7428 19.5758 96.982 19.5586 97.1624 19.4275C97.3428 19.2964 97.4333 19.0742 97.3956 18.8543L96.3363 12.6793L100.823 8.3061C100.983 8.15048 101.04 7.91763 100.971 7.70552Z" fill="#FFCF24"/>
</g>
<g clip-path="url(#clip4)">
<path d="M127.971 7.70552C127.902 7.49337 127.719 7.33876 127.498 7.30673L121.298 6.40576L118.525 0.787538C118.427 0.587539 118.223 0.460938 118 0.460938C117.777 0.460938 117.573 0.587539 117.475 0.787538L114.702 6.40576L108.502 7.30673C108.281 7.33876 108.098 7.49337 108.029 7.70548C107.96 7.91763 108.017 8.15048 108.177 8.30614L112.663 12.6793L111.604 18.8544C111.567 19.0743 111.657 19.2964 111.837 19.4275C111.939 19.5016 112.06 19.5394 112.182 19.5394C112.275 19.5394 112.369 19.5172 112.454 19.4721L118 16.5565L123.545 19.472C123.743 19.5758 123.982 19.5586 124.162 19.4275C124.343 19.2964 124.433 19.0742 124.396 18.8543L123.336 12.6793L127.823 8.3061C127.983 8.15048 128.04 7.91763 127.971 7.70552Z" fill="#FFCF24"/>
</g>
<defs>
<clipPath id="clip0">
<rect width="20" height="20" fill="white"/>
</clipPath>
<clipPath id="clip1">
<rect width="20" height="20" fill="white" transform="translate(27)"/>
</clipPath>
<clipPath id="clip2">
<rect width="20" height="20" fill="white" transform="translate(54)"/>
</clipPath>
<clipPath id="clip3">
<rect width="20" height="20" fill="white" transform="translate(81)"/>
</clipPath>
<clipPath id="clip4">
<rect width="20" height="20" fill="white" transform="translate(108)"/>
</clipPath>
</defs>
</svg>
