<svg width="56" height="56" viewBox="0 0 56 56" fill="none" xmlns="http://www.w3.org/2000/svg">
<path d="M20.5283 7.80466L21.5265 10.4189L22.6202 13.2833L23.4909 15.5631C27.1468 14.0209 31.4074 13.9373 35.3152 15.6854L38.7038 8.11004C32.7042 5.42619 26.1697 5.50648 20.5283 7.80466Z" fill="#F16C7A"/>
<path d="M39.0105 7.99305C38.9795 7.91167 38.9173 7.84605 38.8379 7.81061C32.9385 5.17183 26.3919 5.0618 20.4045 7.50086C20.2394 7.56823 20.1582 7.75505 20.2219 7.92173L21.22 10.536C21.2848 10.7051 21.4744 10.7904 21.6438 10.7255C21.8131 10.6609 21.8979 10.471 21.8332 10.3017L20.9501 7.98933C26.5868 5.7817 32.7118 5.88386 38.2694 8.27742L35.1483 15.2551C31.5046 13.7201 27.3612 13.6757 23.6777 15.1322L22.9269 13.166C22.8624 12.997 22.6734 12.9119 22.5034 12.9766C22.3341 13.0411 22.2493 13.231 22.314 13.4003L23.1846 15.6801C23.2163 15.7633 23.2804 15.83 23.3625 15.8648C23.4441 15.8998 23.5366 15.8998 23.6188 15.8652C27.3133 14.307 31.528 14.3504 35.1818 15.9849C35.2253 16.0043 35.2706 16.0135 35.3154 16.0135C35.4408 16.0135 35.5606 15.9411 35.6151 15.8193L39.0038 8.24395C39.039 8.16455 39.0416 8.0742 39.0105 7.99305Z" fill="#3A312A"/>
<path d="M22.6199 13.283L21.5261 10.4187L20.528 7.80444C15.2036 9.97335 10.6744 14.118 8.14148 19.7806C8.04216 20.0024 7.9481 20.2253 7.85645 20.4484L15.4372 23.8395C15.5249 23.615 15.6175 23.3915 15.717 23.169C17.3143 19.5984 20.1504 16.9718 23.4907 15.5626L22.6199 13.283Z" fill="#87796F"/>
<path d="M23.7976 15.446L22.927 13.1662C22.8624 12.9971 22.6734 12.912 22.5035 12.9767C22.3341 13.0413 22.2493 13.2312 22.314 13.4005L23.0726 15.3872C19.6582 16.9112 16.9472 19.6167 15.4177 23.0355C15.3643 23.1545 15.3123 23.2757 15.2602 23.4011L8.28252 20.2799C8.33415 20.1581 8.38708 20.0365 8.44133 19.9151C10.8056 14.6301 15.024 10.4944 20.3424 8.23775L21.2201 10.5364C21.2848 10.7055 21.4745 10.7908 21.6438 10.7258C21.8131 10.6613 21.898 10.4714 21.8332 10.3021L20.8351 7.68781C20.8036 7.60534 20.7401 7.53906 20.6592 7.50384C20.5782 7.46884 20.4866 7.46775 20.4048 7.501C14.7829 9.79109 10.3215 14.1044 7.84218 19.6469C7.74155 19.8717 7.64596 20.0977 7.55299 20.3241C7.48561 20.4882 7.56086 20.6759 7.72252 20.7483L15.3033 24.1393C15.3457 24.1584 15.3915 24.168 15.4372 24.168C15.4794 24.168 15.5218 24.1599 15.5616 24.1435C15.6448 24.1096 15.7102 24.0429 15.743 23.9593C15.8342 23.7255 15.9237 23.5109 16.0164 23.3035C17.5208 19.9402 20.2206 17.2988 23.6182 15.8653C23.7814 15.7967 23.8606 15.6114 23.7976 15.446Z" fill="#3A312A"/>
<path d="M37.334 37.3086C41.7976 32.845 41.7976 25.6081 37.334 21.1445C32.8704 16.681 25.6335 16.681 21.1699 21.1445C16.7063 25.6081 16.7063 32.845 21.1699 37.3086C25.6335 41.7722 32.8704 41.7722 37.334 37.3086Z" fill="#89C4DB"/>
<path d="M34.0601 18.4921C28.141 15.8446 21.1714 18.5059 18.5236 24.4251C15.8761 30.3442 18.5374 37.3136 24.4566 39.9613C26.0114 40.657 27.6385 40.986 29.2413 40.986C33.7388 40.986 38.0407 38.3927 39.9928 34.0284C42.6406 28.1095 39.9793 21.1399 34.0601 18.4921ZM39.3939 33.7604C36.894 39.3493 30.3129 41.8618 24.7245 39.3622C19.1359 36.8621 16.6227 30.2814 19.1228 24.6926C20.9662 20.5718 25.0275 18.1233 29.2747 18.1233C30.7874 18.1233 32.3246 18.4342 33.7924 19.0908C39.3808 21.5912 41.894 28.1718 39.3939 33.7604Z" fill="#3A312A"/>
<path d="M38.7041 8.11011L35.3154 15.6854C39.2234 17.4335 42.0009 20.6653 43.288 24.4186L51.0464 21.4558C48.9996 15.7185 44.704 10.794 38.7041 8.11011Z" fill="#87796F"/>
<path d="M51.3554 21.3458C49.1828 15.2567 44.7373 10.4496 38.8379 7.81063C38.7582 7.77497 38.6683 7.77256 38.587 7.80363C38.5056 7.83469 38.44 7.89681 38.4045 7.97622L35.0159 15.5515C34.9804 15.6309 34.9778 15.7213 35.0089 15.8024C35.0399 15.8838 35.1021 15.9494 35.1815 15.9849C38.8355 17.6194 41.677 20.7322 42.9777 24.5251C43.0066 24.6093 43.0685 24.6782 43.149 24.7158C43.193 24.7364 43.2404 24.7469 43.2881 24.7469C43.3277 24.7469 43.3673 24.7397 43.4051 24.7252L51.1635 21.7625C51.3298 21.6988 51.4151 21.5138 51.3554 21.3458ZM43.4843 23.9924C42.1154 20.2761 39.3209 17.2169 35.7472 15.5233L38.8687 8.54563C44.3574 11.0932 48.5162 15.5911 50.6274 21.2646L43.4843 23.9924Z" fill="#3A312A"/>
<path d="M51.0467 21.4558L43.2883 24.4186C44.4643 27.8481 44.3967 31.713 42.7996 35.2837C42.7 35.5059 42.5953 35.724 42.4863 35.939L50.0671 39.3301C50.1723 39.1129 50.2758 38.8941 50.3749 38.6723C52.9078 33.0097 52.9787 26.871 51.0467 21.4558Z" fill="#89C4DB"/>
<path d="M51.3557 21.3459C51.326 21.2628 51.2641 21.195 51.184 21.1582C51.1037 21.1215 51.0125 21.1182 50.9296 21.1497L43.1712 24.1124C43.0061 24.1757 42.9205 24.3583 42.9778 24.5254C44.1742 28.0134 44.0044 31.7866 42.4999 35.1499C42.4069 35.3579 42.3067 35.5675 42.1936 35.7909C42.1531 35.8709 42.147 35.9641 42.177 36.0488C42.2072 36.1334 42.2704 36.2021 42.3524 36.2386L49.9332 39.6295C49.9765 39.649 50.022 39.6581 50.0669 39.6581C50.1889 39.6581 50.3057 39.5897 50.3624 39.4731C50.4691 39.2528 50.5739 39.0312 50.6746 38.8061C53.1536 33.2639 53.3956 27.0627 51.3557 21.3459ZM50.0754 38.5384C50.0211 38.6598 49.9656 38.7803 49.9091 38.9L42.9315 35.7788C42.9901 35.6565 43.0456 35.5371 43.099 35.4177C44.6285 31.9988 44.8383 28.1746 43.6984 24.6134L50.848 21.8832C52.7107 27.3519 52.4396 33.2531 50.0754 38.5384Z" fill="#3A312A"/>
<path d="M42.4863 35.9392C40.6816 39.5026 37.6064 42.0426 34.0664 43.2564L37.0292 51.0148C42.5543 49.0434 47.3248 44.9858 50.0671 39.3301L42.4863 35.9392Z" fill="#87796F"/>
<path d="M50.3746 39.2177C50.3442 39.1343 50.2814 39.0667 50.2002 39.0306L42.6195 35.6398C42.4596 35.5683 42.2716 35.6348 42.1929 35.7909C40.481 39.1713 37.5569 41.7123 33.9591 42.946C33.8749 42.9749 33.806 43.0368 33.7684 43.1173C33.7306 43.1978 33.7271 43.2904 33.759 43.3735L36.7217 51.1319C36.7716 51.2625 36.8961 51.343 37.0282 51.343C37.0647 51.343 37.1021 51.3369 37.1385 51.3237C42.9688 49.2434 47.6649 45.0347 50.3615 39.4732C50.4002 39.3931 50.405 39.301 50.3746 39.2177ZM37.2194 50.5957L34.4918 43.4529C38.0073 42.1607 40.8797 39.6604 42.6339 36.3647L49.621 39.4902C47.026 44.6503 42.6413 48.5769 37.2194 50.5957Z" fill="#3A312A"/>
<path d="M15.437 23.8398L7.85627 20.4487C5.46774 26.2627 5.62283 32.5235 7.83592 37.9564L15.5943 34.9936C14.1399 31.5457 13.9835 27.5603 15.437 23.8398Z" fill="#89C4DB"/>
<path d="M15.897 34.8664C14.4189 31.3622 14.3642 27.4886 15.743 23.9593C15.8068 23.7961 15.7312 23.6119 15.5712 23.5404L7.99047 20.1493C7.90931 20.1128 7.817 20.1112 7.73475 20.144C7.65228 20.1771 7.58665 20.242 7.55297 20.3241C5.20425 26.0413 5.19703 32.3472 7.5324 38.0802C7.58425 38.2073 7.70675 38.2848 7.83647 38.2848C7.8754 38.2848 7.915 38.2778 7.9535 38.2631L15.7119 35.3006C15.795 35.2689 15.8617 35.2048 15.8965 35.1227C15.9315 35.0409 15.9317 34.9484 15.897 34.8664ZM8.02109 37.5347C5.91234 32.1475 5.91671 26.2616 8.03378 20.8874L15.0209 24.0129C13.7333 27.5175 13.7838 31.3252 15.1639 34.8071L8.02109 37.5347Z" fill="#3A312A"/>
<path d="M34.066 43.2563C30.6365 44.4323 26.7716 44.3647 23.2012 42.7676L19.8125 50.3429C25.4751 52.8758 31.6138 52.9467 37.0288 51.0147L34.066 43.2563Z" fill="#F16C7A"/>
<path d="M37.3355 50.8977L34.3727 43.1393C34.3097 42.9741 34.1275 42.8883 33.9597 42.9459C30.4713 44.142 26.6981 43.9723 23.335 42.4681C23.1699 42.3942 22.9756 42.4681 22.9017 42.6337L19.513 50.209C19.4774 50.2884 19.475 50.3788 19.506 50.4599C19.5371 50.5413 19.5992 50.6069 19.6786 50.6424C22.7328 52.0087 25.9865 52.6953 29.2498 52.6953C31.9078 52.6953 34.5726 52.2395 37.139 51.3236C37.2222 51.294 37.29 51.2321 37.3267 51.1518C37.3639 51.072 37.3667 50.9801 37.3355 50.8977ZM20.2469 50.1753L23.3681 43.1981C26.7097 44.6077 30.4142 44.7731 33.8716 43.6667L36.602 50.8165C31.2363 52.6435 25.4545 52.4169 20.2469 50.1753Z" fill="#3A312A"/>
<path d="M15.5943 34.9939L7.83594 37.9566C10.0048 43.281 14.1495 47.8102 19.8121 50.3431L23.2007 42.7678C19.6298 41.1705 17.0033 38.3342 15.5943 34.9939Z" fill="#87796F"/>
<path d="M23.3347 42.4681C19.9716 40.9638 17.3302 38.264 15.8967 34.8663C15.8283 34.7036 15.6428 34.6244 15.4774 34.6874L7.71898 37.6499C7.63651 37.6814 7.57023 37.7449 7.53501 37.8258C7.49979 37.9067 7.4987 37.9986 7.53217 38.0802C9.82226 43.7019 14.1358 48.1633 19.6783 50.6426C19.7207 50.6616 19.7664 50.6712 19.8121 50.6712C19.8517 50.6712 19.8915 50.664 19.9292 50.6496C20.0105 50.6185 20.0762 50.5564 20.1116 50.477L23.5003 42.9017C23.5744 42.7363 23.5003 42.5423 23.3347 42.4681ZM19.6476 49.9074C14.5055 47.5193 10.4829 43.3602 8.2687 38.1423L15.4185 35.4123C16.8982 38.7268 19.4908 41.3787 22.7688 42.9301L19.6476 49.9074Z" fill="#3A312A"/>
<path d="M40.4544 19.4971L37.9395 21.7869C38.921 22.9354 39.6595 24.2577 40.125 25.6761L43.3041 24.4623C42.6885 22.651 41.7247 20.9592 40.4544 19.4971Z" fill="#F8E4C8"/>
<path d="M43.6146 24.3568C42.9772 22.4801 41.997 20.7728 40.7022 19.2818C40.644 19.215 40.5618 19.1746 40.4736 19.1693C40.3857 19.1639 40.2986 19.1947 40.2334 19.2544L37.7187 21.5443C37.5874 21.6635 37.5749 21.8654 37.69 21.9999C38.6414 23.1127 39.3554 24.3839 39.8132 25.7782C39.8412 25.8635 39.9027 25.9335 39.9838 25.9722C40.0282 25.9934 40.0766 26.0042 40.1247 26.0042C40.1643 26.0042 40.2039 25.9969 40.2417 25.9825L43.4208 24.7687C43.586 24.7059 43.6715 24.5239 43.6146 24.3568ZM40.3249 25.2486C39.8749 23.9995 39.2263 22.8483 38.3924 21.8184L40.4239 19.9684C41.4888 21.2525 42.3164 22.6964 42.8886 24.2697L40.3249 25.2486Z" fill="#3A312A"/>
<path d="M23.5147 15.5527C21.7699 16.2869 20.163 17.3509 18.7949 18.711L21.0887 21.2278C22.1363 20.1555 23.378 19.3137 24.7287 18.7318L23.5147 15.5527Z" fill="#F8E4C8"/>
<path d="M25.0353 18.6148L23.8212 15.4357C23.7895 15.3526 23.7254 15.2858 23.6436 15.2511C23.562 15.2161 23.4694 15.2158 23.3874 15.2502C21.5733 16.0136 19.9502 17.0997 18.5635 18.4783C18.4391 18.6021 18.434 18.8022 18.5524 18.932L20.8462 21.4485C20.907 21.5152 20.9925 21.5539 21.0831 21.5556H21.0888C21.1769 21.5556 21.2618 21.52 21.3235 21.4568C22.3319 20.4245 23.5213 19.609 24.8587 19.0328C25.0199 18.9635 25.0978 18.7791 25.0353 18.6148ZM21.1004 20.7535L19.2511 18.7248C20.4459 17.5869 21.8157 16.6688 23.3303 15.9902L24.3112 18.5586C23.1175 19.1107 22.0397 19.8472 21.1004 20.7535Z" fill="#3A312A"/>
<path d="M35.3626 15.7075L33.9727 18.8146C35.5474 19.5262 36.8823 20.5548 37.939 21.787L40.454 19.4971C39.0927 17.9272 37.3797 16.6195 35.3626 15.7075Z" fill="#D5DE58"/>
<path d="M40.7021 19.2822C39.263 17.6226 37.5121 16.3192 35.4979 15.4086C35.4182 15.3725 35.3279 15.3699 35.2463 15.4007C35.1647 15.4318 35.0989 15.4939 35.0632 15.5735L33.6733 18.6807C33.5993 18.8456 33.673 19.0392 33.8375 19.1136C35.3292 19.7877 36.6253 20.759 37.6902 22.0006C37.7479 22.068 37.8306 22.1091 37.919 22.1146C37.9258 22.115 37.9328 22.1152 37.9393 22.1152C38.0207 22.1152 38.0997 22.0848 38.1603 22.0297L40.675 19.7398C40.8069 19.6197 40.819 19.4167 40.7021 19.2822ZM37.9649 21.3201C36.9541 20.2062 35.7586 19.3111 34.4041 18.6542L35.5265 16.1456C37.2317 16.9622 38.7321 18.0793 39.994 19.4723L37.9649 21.3201Z" fill="#3A312A"/>
<path d="M23.5146 15.5527L24.7287 18.7318C26.2457 18.078 27.8962 17.7523 29.5727 17.7978L29.732 14.3991C27.5834 14.3319 25.4642 14.7355 23.5146 15.5527Z" fill="#D5DE58"/>
<path d="M29.9728 14.1762C29.9131 14.1117 29.83 14.0738 29.7421 14.071C27.5535 14.0027 25.4172 14.3993 23.3878 15.2503C23.2244 15.3187 23.145 15.5045 23.2082 15.6701L24.4223 18.8491C24.4542 18.9327 24.5188 18.9996 24.6012 19.0344C24.6419 19.0517 24.6854 19.0602 24.7288 19.0602C24.7729 19.0602 24.8171 19.0513 24.8587 19.0333C26.3578 18.3872 27.9426 18.082 29.5638 18.126C29.7504 18.1295 29.8921 17.9919 29.9004 17.8134L30.0597 14.4147C30.0638 14.3267 30.0326 14.2407 29.9728 14.1762ZM29.2599 17.4653H29.2573C27.765 17.4653 26.3073 17.7453 24.9149 18.2994L23.9358 15.7355C25.6862 15.0449 27.5196 14.7076 29.3884 14.72L29.2599 17.4653Z" fill="#3A312A"/>
<path d="M35.3154 15.6861C33.4983 14.8732 31.6063 14.4582 29.7325 14.3989L29.5732 17.7976C31.0338 17.8377 32.5106 18.1579 33.9264 18.7912C33.9423 18.7984 33.9574 18.8074 33.9734 18.8146L35.3633 15.7075L35.3154 15.6861Z" fill="#F8E4C8"/>
<path d="M35.4974 15.4082L35.449 15.3865C33.6371 14.576 31.7171 14.1333 29.7427 14.0709C29.5635 14.0574 29.4126 14.2044 29.4045 14.3835L29.2455 17.7822C29.2413 17.8702 29.2728 17.9564 29.3325 18.0209C29.3925 18.0854 29.476 18.1233 29.5642 18.1257C31.0276 18.1657 32.4502 18.4903 33.7977 19.0934C33.8115 19.1007 33.8255 19.1079 33.8395 19.1142C33.883 19.1335 33.9283 19.1427 33.9729 19.1427C34.0982 19.1427 34.2181 19.0702 34.2726 18.9484L35.6625 15.8413C35.7365 15.6763 35.6625 15.4823 35.4974 15.4082ZM33.8073 18.3821C32.5639 17.8597 31.2578 17.558 29.9166 17.4837L30.045 14.7408C31.729 14.8313 33.3691 15.2124 34.9286 15.8754L33.8073 18.3821Z" fill="#3A312A"/>
<path d="M39.3672 34.5588C38.6259 35.9645 37.6266 37.1591 36.4541 38.1085L38.749 40.6281C40.2597 39.3724 41.5403 37.8003 42.48 35.9514L39.3672 34.5588Z" fill="#D5DE58"/>
<path d="M42.7898 35.8419C42.7598 35.7572 42.6964 35.6883 42.6144 35.6518L39.5011 34.2592C39.3434 34.1884 39.1577 34.2527 39.077 34.4056C38.3704 35.7454 37.4184 36.9052 36.2477 37.8533C36.1777 37.9102 36.1337 37.9933 36.1269 38.0834C36.1201 38.1736 36.1507 38.2624 36.2116 38.3293L38.5065 40.8489C38.5712 40.9197 38.6598 40.9561 38.7493 40.9561C38.8232 40.9561 38.8978 40.9311 38.9588 40.8801C40.5494 39.558 41.8326 37.9498 42.7727 36.0998C42.8139 36.0197 42.8198 35.9266 42.7898 35.8419ZM38.7784 40.1725L36.9277 38.1405C37.969 37.2458 38.8359 36.1856 39.5105 34.9822L42.0281 36.1083C41.1947 37.6577 40.1036 39.0225 38.7784 40.1725Z" fill="#3A312A"/>
<path d="M43.3041 24.4624L40.125 25.6762C40.6235 27.2029 40.8016 28.8354 40.6222 30.4686L44.0257 30.6276C44.225 28.5215 43.9682 26.4224 43.3041 24.4624Z" fill="#D5DE58"/>
<path d="M43.615 24.3569C43.5863 24.2724 43.5247 24.2033 43.4439 24.1653C43.3632 24.1274 43.2707 24.1237 43.1871 24.1556L40.008 25.3695C39.8446 25.4318 39.7589 25.6116 39.8131 25.7779C40.3068 27.2892 40.4692 28.8553 40.2961 30.4324C40.2863 30.5226 40.3141 30.6127 40.3729 30.6814C40.4318 30.7503 40.5164 30.7916 40.6068 30.796L44.0105 30.955C44.0157 30.9553 44.021 30.9553 44.026 30.9553C44.1945 30.9553 44.3364 30.8273 44.3524 30.658C44.555 28.5188 44.3067 26.3987 43.615 24.3569ZM43.7255 30.2848L40.9815 30.1568C41.0978 28.7074 40.9465 27.2691 40.5302 25.8728L43.0992 24.8919C43.6489 26.6457 43.8593 28.4565 43.7255 30.2848Z" fill="#3A312A"/>
<path d="M40.6217 30.4685C40.4962 31.6224 40.1934 32.7763 39.6931 33.8946C39.5912 34.1223 39.4812 34.3415 39.3672 34.5587L42.4802 35.9513C42.5903 35.7321 42.6972 35.5092 42.7981 35.2834C43.4768 33.7657 43.8754 32.1947 44.0252 30.6275L40.6217 30.4685Z" fill="#F8E4C8"/>
<path d="M44.2733 30.4124C44.2144 30.3446 44.1306 30.3039 44.0407 30.2995L40.637 30.1405C40.4585 30.1326 40.3141 30.2606 40.2955 30.4327C40.1704 31.5823 39.867 32.7018 39.3936 33.7601C39.3074 33.9531 39.2066 34.1583 39.0766 34.4061C39.0346 34.4864 39.0274 34.5802 39.0572 34.666C39.0867 34.7515 39.1506 34.8211 39.2333 34.858L42.3465 36.2506C42.3898 36.2701 42.4353 36.2793 42.4802 36.2793C42.6007 36.2793 42.7162 36.2125 42.7737 36.0981C42.8914 35.8634 43.0006 35.6344 43.0977 35.4174C43.0977 35.4174 43.0977 35.4174 43.0977 35.4172C43.7721 33.9093 44.1943 32.3083 44.352 30.6585C44.3605 30.5694 44.3321 30.4804 44.2733 30.4124ZM42.4985 35.1494C42.4445 35.2702 42.3865 35.3951 42.3253 35.5226L39.8164 34.4004C39.8819 34.2687 39.9396 34.1467 39.9925 34.0285C40.4519 33.002 40.7601 31.9207 40.9104 30.8107L43.6616 30.9391C43.488 32.3967 43.0973 33.8113 42.4985 35.1494Z" fill="#3A312A"/>
<path d="M18.7904 33.8232L15.6113 35.0373C16.303 36.6624 17.2843 38.1652 18.522 39.4641L21.0398 37.1732C20.0898 36.1897 19.331 35.0524 18.7904 33.8232Z" fill="#F8E4C8"/>
<path d="M21.2759 36.9451C20.3576 35.9944 19.6223 34.8995 19.0908 33.6909C19.0203 33.531 18.8368 33.454 18.6734 33.5166L15.4943 34.7307C15.411 34.7626 15.3442 34.8267 15.3095 34.9089C15.2745 34.991 15.2745 35.0837 15.3095 35.1657C16.0254 36.8477 17.0264 38.3702 18.2847 39.6906C18.349 39.7582 18.4356 39.7923 18.5222 39.7923C18.601 39.7923 18.6802 39.7641 18.743 39.7068L21.2608 37.4158C21.3264 37.3561 21.3651 37.2723 21.3677 37.1837C21.3706 37.0949 21.3373 37.0087 21.2759 36.9451ZM18.541 39.0031C17.516 37.8789 16.6799 36.6091 16.0504 35.2207L18.6196 34.2396C19.1221 35.3055 19.7776 36.2838 20.5726 37.1546L18.541 39.0031Z" fill="#3A312A"/>
<path d="M24.5904 39.662C23.2166 39.0476 22.0244 38.1931 21.0403 37.1731L18.5225 39.4641C19.8157 40.8214 21.3861 41.9552 23.2013 42.7672L23.2492 42.7886L24.6391 39.6815C24.6232 39.6743 24.6063 39.6693 24.5904 39.662Z" fill="#D5DE58"/>
<path d="M24.7735 39.3823C24.759 39.3757 24.7442 39.37 24.724 39.3626C23.4214 38.7796 22.2613 37.9665 21.2763 36.9452C21.1532 36.8177 20.9508 36.8109 20.8193 36.9303L18.3015 39.2213C18.2363 39.2806 18.1976 39.3639 18.1946 39.4523C18.1913 39.5404 18.2239 39.6262 18.2849 39.6903C19.6477 41.1209 21.2568 42.2567 23.0672 43.0665L23.1151 43.0879C23.1578 43.1069 23.2033 43.1166 23.2492 43.1166C23.2888 43.1166 23.3284 43.1094 23.3662 43.0949C23.4476 43.0639 23.5132 43.0017 23.5489 42.9223L24.9388 39.8152C25.0123 39.6503 24.9384 39.4564 24.7735 39.3823ZM23.0845 42.3527C21.5559 41.6345 20.1823 40.6692 18.9943 39.4781L21.0282 37.6273C21.9571 38.5394 23.0237 39.2843 24.2056 39.846L23.0845 42.3527Z" fill="#3A312A"/>
<path d="M32.8773 40.0688C31.4823 40.5352 29.9968 40.7334 28.502 40.6352L28.3408 44.033C30.3085 44.156 32.2637 43.8779 34.0911 43.2479L32.8773 40.0688Z" fill="#D5DE58"/>
<path d="M34.3977 43.1309L33.1837 39.9518C33.1209 39.7877 32.9395 39.7013 32.7731 39.7577C31.3976 40.2178 29.968 40.4028 28.5236 40.3079C28.4364 40.3018 28.3493 40.3317 28.2834 40.3904C28.2178 40.4492 28.1784 40.5317 28.1743 40.6196L28.0131 44.0175C28.0045 44.1966 28.1415 44.3493 28.3204 44.3605C28.6356 44.3802 28.9504 44.39 29.2643 44.39C30.9378 44.39 32.5935 44.1113 34.1982 43.5581C34.2822 43.5292 34.3509 43.4673 34.3885 43.3868C34.4262 43.3063 34.4294 43.214 34.3977 43.1309ZM28.6842 43.7222L28.8144 40.9799C30.126 41.0282 31.4238 40.86 32.6816 40.4759L33.6623 43.0447C32.042 43.5622 30.3694 43.7897 28.6842 43.7222Z" fill="#3A312A"/>
<path d="M24.639 39.6814L23.249 42.7885C24.9072 43.5231 26.6283 43.9286 28.3404 44.0332L28.5017 40.6354C27.2027 40.5503 25.8977 40.2372 24.639 39.6814Z" fill="#F8E4C8"/>
<path d="M28.523 40.3079C27.2348 40.2235 25.9726 39.9117 24.7713 39.3813C24.6057 39.3084 24.4129 39.3826 24.3392 39.5475L22.9495 42.6546C22.9139 42.7343 22.9114 42.8248 22.9427 42.9062C22.974 42.9876 23.0364 43.0532 23.1162 43.0886C24.7745 43.8232 26.5254 44.2513 28.3205 44.3607C28.3273 44.3611 28.334 44.3613 28.3406 44.3613C28.4213 44.3613 28.4994 44.3316 28.5598 44.2775C28.6252 44.2189 28.6641 44.1365 28.6683 44.049L28.8295 40.6511C28.8378 40.472 28.7015 40.3195 28.523 40.3079ZM28.0284 43.6814C26.5359 43.5559 25.0775 43.1989 23.6843 42.6185L24.8067 40.1095C25.8873 40.5522 27.0119 40.8298 28.1588 40.937L28.0284 43.6814Z" fill="#3A312A"/>
<path d="M18.7951 18.7109C17.5389 19.9607 16.4849 21.4543 15.7175 23.1695C15.6167 23.395 15.5215 23.6234 15.4316 23.8516L18.5447 25.2441C18.6306 25.0142 18.7208 24.7861 18.8227 24.5583C19.3917 23.2863 20.1671 22.1689 21.0892 21.2274L18.7951 18.7109Z" fill="#D5DE58"/>
<path d="M21.3313 21.0067L19.0375 18.49C18.9773 18.4237 18.8924 18.3852 18.803 18.3831C18.7135 18.3778 18.6271 18.4152 18.5636 18.4784C17.24 19.7951 16.1817 21.3283 15.418 23.0356C15.3205 23.2535 15.2251 23.4812 15.1264 23.7313C15.0621 23.8947 15.1376 24.0795 15.2977 24.1513L18.4107 25.5438C18.4532 25.5629 18.4989 25.5725 18.5446 25.5725C18.5877 25.5725 18.6306 25.564 18.6713 25.5471C18.7548 25.5121 18.8202 25.4443 18.852 25.3594C18.9504 25.0967 19.0361 24.8847 19.1221 24.6927C19.6616 23.4867 20.4022 22.3982 21.3234 21.4574C21.445 21.3329 21.4485 21.1351 21.3313 21.0067ZM18.523 24.4247C18.4702 24.5426 18.4177 24.6666 18.3631 24.8036L15.8542 23.6814C15.9085 23.5506 15.9625 23.4255 16.017 23.3036C16.7008 21.7748 17.6316 20.3918 18.7861 19.1885L20.6402 21.2226C19.7633 22.1666 19.0517 23.2421 18.523 24.4247Z" fill="#3A312A"/>
<path d="M36.4546 38.1082C35.3845 38.9737 34.1704 39.6361 32.877 40.0688L34.091 43.2479C35.7804 42.6641 37.3611 41.7823 38.7497 40.6277L36.4546 38.1082Z" fill="#F8E4C8"/>
<path d="M38.9925 40.4069L36.6975 37.8873C36.5801 37.7589 36.3839 37.7436 36.2485 37.8532C35.2107 38.6925 34.0413 39.3335 32.7729 39.7578C32.6881 39.7861 32.6185 39.848 32.5802 39.9287C32.5419 40.0094 32.5387 40.1024 32.5704 40.1859L33.7845 43.365C33.8341 43.4954 33.9586 43.5761 34.0909 43.5761C34.1264 43.5761 34.1627 43.5702 34.1981 43.558C35.947 42.9535 37.5489 42.0525 38.9594 40.88C39.0281 40.8227 39.0708 40.7398 39.0769 40.6505C39.0832 40.5613 39.0526 40.4734 38.9925 40.4069ZM34.2832 42.8308L33.3039 40.2669C34.4258 39.8556 35.4708 39.2812 36.4178 38.5549L38.273 40.5919C37.0723 41.5437 35.7326 42.2953 34.2832 42.8308Z" fill="#3A312A"/>
<path d="M17.8276 29.3976L14.4238 29.2385C14.428 31.2438 14.8379 33.2147 15.6116 35.0371L18.7907 33.8231C18.1826 32.4342 17.8514 30.9299 17.8276 29.3976Z" fill="#D5DE58"/>
<path d="M19.0911 33.6914C18.4935 32.3267 18.1787 30.8803 18.1555 29.3923C18.1526 29.2191 18.0157 29.0778 17.8427 29.0697L14.4389 28.9107C14.3501 28.9072 14.2617 28.9391 14.197 29.0014C14.132 29.0636 14.0955 29.1495 14.0957 29.2392C14.0999 31.2845 14.5083 33.2782 15.3095 35.1654C15.3625 35.2898 15.4837 35.3653 15.6116 35.3653C15.6506 35.3653 15.6902 35.3583 15.7287 35.3437L18.9078 34.1296C18.9915 34.0977 19.0587 34.0327 19.0935 33.9498C19.1278 33.8671 19.127 33.7737 19.0911 33.6914ZM15.793 34.6165C15.1483 33.0041 14.8003 31.3141 14.7565 29.5824L17.5082 29.7111C17.564 31.0638 17.8488 32.3816 18.3565 33.6374L15.793 34.6165Z" fill="#3A312A"/>
<path d="M15.4316 23.8518C14.745 25.6176 14.423 27.4408 14.4238 29.2385L17.8276 29.3976C17.8064 28.0148 18.0376 26.6085 18.5446 25.2444L15.4316 23.8518Z" fill="#F8E4C8"/>
<path d="M18.6785 24.9446L15.5655 23.5521C15.4835 23.5153 15.39 23.514 15.3069 23.5479C15.2238 23.582 15.1584 23.6487 15.1258 23.7325C14.4413 25.4924 14.0948 27.3447 14.0957 29.2385C14.0957 29.4137 14.2335 29.5578 14.4085 29.5661L17.8123 29.7252C17.8173 29.7254 17.8223 29.7254 17.8276 29.7254C17.9127 29.7254 17.9947 29.6924 18.056 29.6329C18.1209 29.5699 18.157 29.4826 18.1557 29.3922C18.1345 28.0159 18.3688 26.6587 18.8522 25.3585C18.9124 25.1964 18.8365 25.0153 18.6785 24.9446ZM17.499 29.0536L14.755 28.9254C14.7878 27.3375 15.077 25.7826 15.616 24.2936L18.1334 25.4197C17.7294 26.5975 17.5167 27.817 17.499 29.0536Z" fill="#3A312A"/>
<path d="M10.3658 5.75195C10.1528 8.28158 7.5166 8.6808 7.5166 8.6808C9.78001 8.78733 10.3439 11.7562 10.3439 11.7562C10.3923 9.63936 13.2579 8.64952 13.2579 8.64952C11.1113 8.52111 10.3658 5.75195 10.3658 5.75195Z" fill="#D5DE58"/>
<path d="M13.2776 8.32213C11.3953 8.20948 10.6894 5.69188 10.6824 5.66629C10.6406 5.51251 10.4936 5.41057 10.3361 5.42523C10.1775 5.43966 10.0521 5.56566 10.0388 5.72426C9.85067 7.95879 7.56386 8.34138 7.46739 8.35648C7.30049 8.38163 7.18017 8.52929 7.18892 8.69795C7.19767 8.86638 7.33264 9.00069 7.5013 9.00879C9.47617 9.10176 10.0167 11.7909 10.022 11.818C10.0519 11.9735 10.188 12.0842 10.344 12.0842C10.3531 12.0842 10.3623 12.084 10.3715 12.0831C10.5386 12.0691 10.6684 11.9315 10.6723 11.7637C10.715 9.90238 13.3393 8.96876 13.3658 8.95957C13.5134 8.90816 13.6046 8.75963 13.5832 8.60454C13.5613 8.44988 13.4338 8.33154 13.2776 8.32213ZM10.3098 10.5853C10.013 9.90063 9.49871 9.07441 8.65017 8.6437C9.29133 8.33635 10.0521 7.78773 10.4444 6.83398C10.7836 7.50576 11.3629 8.33898 12.2674 8.74213C11.6096 9.10045 10.7532 9.70551 10.3098 10.5853Z" fill="#3A312A"/>
<path d="M5.61864 9.46631C5.46792 11.2555 3.60352 11.5381 3.60352 11.5381C5.20433 11.6133 5.60333 13.7133 5.60333 13.7133C5.63745 12.216 7.66439 11.516 7.66439 11.516C6.14605 11.4252 5.61864 9.46631 5.61864 9.46631Z" fill="#D5DE58"/>
<path d="M7.68389 11.1884C6.42258 11.1129 5.94002 9.39789 5.9352 9.38061C5.89364 9.22704 5.74839 9.12511 5.58914 9.13954C5.43033 9.15376 5.30498 9.27998 5.29164 9.43879C5.16498 10.9418 3.61908 11.2034 3.55433 11.2137C3.38742 11.2389 3.26689 11.3865 3.27586 11.555C3.28461 11.7234 3.41958 11.8577 3.58824 11.8658C4.90839 11.9279 5.27764 13.7567 5.28114 13.7746C5.31067 13.9304 5.44717 14.0415 5.60336 14.0415C5.61233 14.0415 5.62152 14.0413 5.6307 14.0404C5.79805 14.0266 5.92777 13.8886 5.9317 13.7208C5.96014 12.472 7.75433 11.8321 7.77205 11.826C7.92014 11.7748 8.01136 11.6263 7.98992 11.4712C7.96805 11.3161 7.8403 11.1978 7.68389 11.1884ZM5.58717 12.6748C5.38505 12.2622 5.0753 11.8114 4.61439 11.5198C5.02017 11.292 5.42311 10.9444 5.67992 10.4442C5.91114 10.8541 6.26048 11.3093 6.76077 11.5869C6.3563 11.8278 5.88817 12.1865 5.58717 12.6748Z" fill="#3A312A"/>
<path d="M5.61864 3.63525C5.46792 5.42441 3.60352 5.70704 3.60352 5.70704C5.20433 5.78228 5.60333 7.88228 5.60333 7.88228C5.63745 6.38494 7.66439 5.68494 7.66439 5.68494C6.14605 5.59394 5.61864 3.63525 5.61864 3.63525Z" fill="#D5DE58"/>
<path d="M7.68389 5.35728C6.42236 5.28181 5.9398 3.56681 5.9352 3.54931C5.89364 3.39574 5.74839 3.29381 5.58914 3.30824C5.43033 3.32246 5.30498 3.44868 5.29164 3.60749C5.16498 5.11053 3.61908 5.37215 3.55433 5.38243C3.38742 5.40759 3.26689 5.55524 3.27586 5.72368C3.28461 5.89212 3.41958 6.02643 3.58824 6.03453C4.90839 6.09665 5.27764 7.9254 5.28114 7.94334C5.31067 8.09931 5.44717 8.21021 5.60314 8.21021C5.61233 8.21021 5.6213 8.20999 5.63048 8.20912C5.79783 8.19534 5.92755 8.05731 5.93148 7.88953C5.95992 6.64046 7.75411 6.00084 7.77183 5.99471C7.9197 5.94353 8.01114 5.79499 7.9897 5.6399C7.96805 5.48503 7.8403 5.36668 7.68389 5.35728ZM5.58717 6.84368C5.38505 6.43112 5.0753 5.98028 4.61439 5.68868C5.02017 5.46096 5.42311 5.11337 5.67992 4.61331C5.91114 5.02324 6.2607 5.47824 6.76077 5.75606C6.3563 5.99668 5.88817 6.35521 5.58717 6.84368Z" fill="#3A312A"/>
<path d="M34.0533 24.4316C33.9252 24.3034 33.7176 24.3034 33.5894 24.4316L24.4633 33.5576C24.3351 33.6856 24.3351 33.8936 24.4633 34.0216C24.5274 34.0857 24.6114 34.1176 24.6954 34.1176C24.7794 34.1176 24.8634 34.0857 24.9275 34.0216L34.0536 24.8956C34.1815 24.7676 34.1815 24.5596 34.0533 24.4316Z" fill="#3A312A"/>
<path d="M36.2961 22.1888C35.6127 21.5054 34.5045 21.5054 33.8211 22.1888C33.1378 22.8722 33.1378 23.9801 33.8211 24.6637C34.5045 25.3471 35.6127 25.3471 36.2961 24.6637C36.9794 23.9801 36.9794 22.8722 36.2961 22.1888Z" fill="#87796F"/>
<path d="M36.528 21.9566C35.7178 21.1461 34.3992 21.1465 33.5891 21.9566C32.7789 22.7668 32.7789 24.0852 33.5891 24.8955C33.9943 25.3006 34.5263 25.5032 35.0585 25.5032C35.5909 25.5032 36.1229 25.3006 36.528 24.8955C36.9207 24.503 37.1368 23.9811 37.1368 23.4261C37.1368 22.8712 36.9207 22.349 36.528 21.9566ZM36.0641 24.4315C35.5095 24.9856 34.6079 24.986 34.0533 24.4315C33.499 23.8772 33.499 22.9751 34.0533 22.4205C34.3307 22.1434 34.6947 22.0049 35.0587 22.0049C35.4229 22.0049 35.7869 22.1434 36.0643 22.4205C36.3327 22.6892 36.4808 23.0462 36.4808 23.4261C36.4808 23.8061 36.3327 24.1629 36.0641 24.4315Z" fill="#3A312A"/>
<path d="M24.6945 33.7896C24.0111 33.1063 22.9029 33.1063 22.2196 33.7896C21.5362 34.473 21.5362 35.581 22.2196 36.2646C22.9029 36.9479 24.0111 36.9479 24.6945 36.2646C25.3779 35.581 25.3779 34.473 24.6945 33.7896Z" fill="#87796F"/>
<path d="M24.9266 33.5576C24.1163 32.7471 22.7979 32.7471 21.9877 33.5576C21.5952 33.95 21.3789 34.4719 21.3789 35.0269C21.3789 35.5819 21.595 36.1038 21.9877 36.4965C22.3928 36.9016 22.925 37.1042 23.457 37.1042C23.989 37.1042 24.5213 36.9016 24.9264 36.4965C25.7368 35.6862 25.7368 34.3678 24.9266 33.5576ZM24.4626 36.0325C23.9083 36.5868 23.0062 36.5868 22.4519 36.0325C22.1833 35.7639 22.0354 35.4069 22.0354 35.0269C22.0354 34.6469 22.1833 34.2901 22.4519 34.0215C22.729 33.7444 23.0933 33.6059 23.4573 33.6059C23.8213 33.6059 24.1855 33.7444 24.4626 34.0215C25.0169 34.5761 25.0169 35.4782 24.4626 36.0325Z" fill="#3A312A"/>
<path d="M34.0533 33.5576L24.9273 24.4316C24.7991 24.3034 24.5915 24.3034 24.4633 24.4316C24.3351 24.5596 24.3351 24.7676 24.4633 24.8956L33.5894 34.0216C33.6534 34.0857 33.7374 34.1176 33.8214 34.1176C33.9054 34.1176 33.9892 34.0857 34.0533 34.0216C34.1815 33.8936 34.1815 33.6858 34.0533 33.5576Z" fill="#3A312A"/>
<path d="M23.457 25.1763C24.4235 25.1763 25.207 24.3928 25.207 23.4263C25.207 22.4598 24.4235 21.6763 23.457 21.6763C22.4905 21.6763 21.707 22.4598 21.707 23.4263C21.707 24.3928 22.4905 25.1763 23.457 25.1763Z" fill="#87796F"/>
<path d="M24.9266 21.9566C24.1163 21.1463 22.7982 21.1463 21.9877 21.9566C21.5952 22.349 21.3789 22.8709 21.3789 23.4261C21.3789 23.9813 21.595 24.503 21.9877 24.8955C22.3928 25.3006 22.925 25.5032 23.457 25.5032C23.989 25.5032 24.5213 25.3006 24.9264 24.8955C25.7368 24.0852 25.7368 22.7668 24.9266 21.9566ZM24.4626 24.4315C23.9083 24.9858 23.0062 24.9858 22.4519 24.4315C22.1833 24.1629 22.0354 23.8059 22.0354 23.4261C22.0354 23.0464 22.1833 22.6892 22.4519 22.4205C22.729 22.1434 23.0933 22.0049 23.4573 22.0049C23.8213 22.0049 24.1855 22.1434 24.4626 22.4205C25.0169 22.9751 25.0169 23.8772 24.4626 24.4315Z" fill="#3A312A"/>
<path d="M36.2961 33.7896C35.6127 33.1063 34.5045 33.1063 33.8211 33.7896C33.1378 34.473 33.1378 35.581 33.8211 36.2646C34.5045 36.9479 35.6127 36.9479 36.2961 36.2646C36.9794 35.581 36.9794 34.473 36.2961 33.7896Z" fill="#87796F"/>
<path d="M36.528 33.5576C35.7182 32.7476 34.3996 32.7472 33.5891 33.5576C32.7789 34.3679 32.7789 35.6863 33.5891 36.4965C33.9943 36.9019 34.5263 37.1042 35.0587 37.1042C35.5907 37.1042 36.1229 36.9017 36.528 36.4965C36.9207 36.1041 37.1368 35.5822 37.1368 35.027C37.1368 34.4718 36.9207 33.9501 36.528 33.5576ZM36.0641 36.0326C35.5095 36.5867 34.6079 36.5871 34.0533 36.0326C33.499 35.478 33.499 34.5759 34.0533 34.0216C34.3307 33.7444 34.6947 33.606 35.0587 33.606C35.4229 33.606 35.7869 33.7444 36.0643 34.0216C36.3327 34.2902 36.4808 34.647 36.4808 35.027C36.4808 35.4069 36.3327 35.7639 36.0641 36.0326Z" fill="#3A312A"/>
<path d="M29.2578 31.7422C30.6472 31.7422 31.7734 30.6159 31.7734 29.2266C31.7734 27.8372 30.6472 26.7109 29.2578 26.7109C27.8685 26.7109 26.7422 27.8372 26.7422 29.2266C26.7422 30.6159 27.8685 31.7422 29.2578 31.7422Z" fill="#87796F"/>
<path d="M29.2578 26.3828C27.6896 26.3828 26.4141 27.6586 26.4141 29.2266C26.4141 30.7946 27.6896 32.0703 29.2578 32.0703C30.8258 32.0703 32.1016 30.7946 32.1016 29.2266C32.1016 27.6586 30.8258 26.3828 29.2578 26.3828ZM29.2578 31.4141C28.0516 31.4141 27.0703 30.4327 27.0703 29.2266C27.0703 28.0204 28.0516 27.0391 29.2578 27.0391C30.464 27.0391 31.4453 28.0204 31.4453 29.2266C31.4453 30.4327 30.464 31.4141 29.2578 31.4141Z" fill="#3A312A"/>
<path d="M40.3064 28.1023C40.3042 28.0914 40.3042 28.0804 40.302 28.0695C40.2845 27.8967 40.2626 27.7239 40.2364 27.5533C40.232 27.5292 40.2298 27.5051 40.2254 27.4811C40.1992 27.3192 40.1686 27.1573 40.1357 26.9976C40.1292 26.967 40.1226 26.9342 40.1161 26.9036C40.0832 26.7461 40.0439 26.5864 40.0023 26.4289C39.9936 26.3983 39.987 26.3676 39.9804 26.337C39.9323 26.1664 39.882 25.9958 39.8273 25.8273C39.7661 25.6392 39.7026 25.4511 39.6304 25.2651C39.5648 25.0923 39.4948 24.9217 39.4204 24.7533C38.9829 23.7558 38.4032 22.8348 37.6901 21.9992C37.2942 21.5376 36.8654 21.1133 36.4061 20.7283C36.3973 20.7195 36.3886 20.7129 36.3798 20.7042C36.2442 20.5926 36.1064 20.4833 35.9642 20.3761C35.9357 20.3542 35.9051 20.3323 35.8745 20.3083C35.752 20.2186 35.6273 20.1311 35.5004 20.0458C35.4589 20.0173 35.4195 19.9889 35.3779 19.9626C35.2554 19.8817 35.1307 19.8029 35.0039 19.7264C34.9623 19.7023 34.9207 19.6761 34.8792 19.652C34.737 19.5689 34.5948 19.4901 34.4504 19.4136C34.422 19.4004 34.3979 19.3851 34.3695 19.372C34.1945 19.2823 34.0173 19.1948 33.8379 19.1139C33.8379 19.1139 33.8379 19.1139 33.8357 19.1139C33.8248 19.1073 33.8139 19.1029 33.8029 19.0964C33.8007 19.0942 33.7986 19.0942 33.7964 19.092C33.7657 19.0789 33.7351 19.0679 33.7067 19.0548C33.5601 18.9914 33.4157 18.9301 33.2692 18.8733C33.1926 18.8448 33.1182 18.8186 33.0417 18.7901C32.9411 18.7529 32.8382 18.7158 32.7376 18.6829C32.6436 18.6523 32.5495 18.6239 32.4554 18.5954C32.3723 18.5714 32.2892 18.5451 32.2061 18.5211C32.0945 18.4904 31.9807 18.462 31.8692 18.4358C31.8036 18.4204 31.7401 18.4029 31.6767 18.3898C31.5432 18.3592 31.4098 18.3329 31.2764 18.3067C31.2348 18.3001 31.1932 18.2914 31.1539 18.2848C30.9986 18.2586 30.8411 18.2345 30.6857 18.2148C30.6682 18.2126 30.6507 18.2083 30.6332 18.2061C30.2811 18.1623 29.9223 18.1361 29.5636 18.1251C28.9073 18.1076 28.2554 18.147 27.6123 18.2433C27.6998 18.2564 27.7873 18.2695 27.8726 18.2848C27.912 18.2914 27.9536 18.3001 27.9951 18.3067C28.1286 18.3329 28.262 18.3592 28.3954 18.3898C28.4589 18.4029 28.5223 18.4204 28.5879 18.4358C28.6995 18.462 28.8132 18.4904 28.9248 18.5211C29.0079 18.5451 29.0911 18.5714 29.1742 18.5954C29.2682 18.6239 29.3623 18.6523 29.4564 18.6829C29.557 18.7158 29.6598 18.7529 29.7604 18.7901C29.837 18.8186 29.9114 18.8448 29.9879 18.8733C30.1345 18.9301 30.2789 18.9914 30.4254 19.0548C30.4539 19.0679 30.4845 19.0789 30.5151 19.092C30.5173 19.0942 30.5195 19.0942 30.5217 19.0964C30.5326 19.1029 30.5436 19.1073 30.5545 19.1139H30.5567C30.7361 19.1948 30.9132 19.2823 31.0882 19.372C31.1167 19.3851 31.1407 19.4004 31.1692 19.4136C31.3136 19.4901 31.4557 19.5689 31.5979 19.652C31.6395 19.6761 31.6811 19.7023 31.7226 19.7264C31.8495 19.8029 31.9742 19.8817 32.0967 19.9626C32.1382 19.9889 32.1776 20.0173 32.2192 20.0458C32.3461 20.1311 32.4707 20.2186 32.5932 20.3083C32.6239 20.3323 32.6545 20.3542 32.6829 20.3761C32.8251 20.4833 32.9629 20.5926 33.0986 20.7042C33.1073 20.7129 33.1161 20.7195 33.1248 20.7283C33.4507 21.0017 33.7614 21.2948 34.0545 21.6076C34.842 21.1701 35.8592 21.2883 36.5286 21.9576C37.3379 22.767 37.3379 24.0861 36.5286 24.8954C36.452 24.972 36.3711 25.042 36.2857 25.1033C36.3076 25.1579 36.3295 25.2104 36.3492 25.2651C36.4214 25.4511 36.4848 25.6392 36.5461 25.8273C36.6007 25.9958 36.6511 26.1664 36.6992 26.337C36.7057 26.3676 36.7123 26.3983 36.7211 26.4289C36.7626 26.5864 36.802 26.7461 36.8348 26.9036C36.8414 26.9342 36.8479 26.967 36.8545 26.9976C36.8873 27.1573 36.9179 27.3192 36.9442 27.4811C36.9486 27.5051 36.9507 27.5292 36.9551 27.5533C36.9814 27.7239 37.0032 27.8967 37.0207 28.0695C37.0229 28.0804 37.0229 28.0914 37.0251 28.1023C37.0623 28.4698 37.082 28.8373 37.082 29.2092C37.082 29.6161 37.0579 30.0229 37.0142 30.432C36.942 31.1036 36.8064 31.762 36.6139 32.4051C36.592 32.4773 36.5701 32.5517 36.5461 32.6261C36.5242 32.6961 36.5001 32.7683 36.4761 32.8383C36.4389 32.9411 36.4017 33.0439 36.3645 33.1445C36.3448 33.1948 36.3273 33.2451 36.3076 33.2933C36.3011 33.3108 36.2923 33.3304 36.2857 33.3479C36.3711 33.4114 36.452 33.4814 36.5286 33.5579C37.3379 34.3673 37.3379 35.6864 36.5286 36.4958C36.1348 36.8895 35.6142 37.1061 35.0586 37.1061C34.6998 37.1061 34.3586 37.0164 34.0523 36.8458C33.9736 36.9311 33.8926 37.012 33.8117 37.0929C33.8095 37.0973 33.8051 37.1017 33.8007 37.1061C33.6848 37.2198 33.5645 37.3314 33.4442 37.4429C33.4026 37.4801 33.3611 37.5173 33.3195 37.5523C33.2364 37.6267 33.1511 37.6989 33.0657 37.7689C33.0154 37.8104 32.9673 37.852 32.917 37.8914C32.8732 37.9286 32.8251 37.9614 32.7792 37.9986C32.6217 38.1211 32.462 38.2392 32.2979 38.3508C32.2848 38.3595 32.2739 38.3683 32.2629 38.377C32.1601 38.4448 32.0595 38.5126 31.9567 38.5783C31.9457 38.5848 31.9348 38.5914 31.9239 38.5979C30.6157 39.4248 29.1457 39.9739 27.6123 40.2058C27.9579 40.2604 28.3036 40.2954 28.6514 40.3129C28.6754 40.3151 28.7017 40.3151 28.7257 40.3173C28.892 40.3239 29.0561 40.3283 29.2223 40.3283H29.3032C31.4011 40.3173 33.4507 39.7092 35.2051 38.5979C35.2161 38.5914 35.227 38.5848 35.2379 38.5783C35.3407 38.5126 35.4414 38.4448 35.5442 38.377C35.5551 38.3683 35.5661 38.3595 35.5792 38.3508C35.7432 38.2392 35.9029 38.1211 36.0604 37.9986C36.1064 37.9614 36.1545 37.9286 36.1982 37.8914C36.2486 37.852 36.2967 37.8104 36.347 37.7689C36.4323 37.6989 36.5176 37.6267 36.6007 37.5523C36.6423 37.5173 36.6839 37.4801 36.7254 37.4429C36.8457 37.3314 36.9661 37.2198 37.082 37.1061C37.0864 37.1017 37.0907 37.0973 37.0929 37.0929C37.2111 36.977 37.327 36.8567 37.4386 36.7342C37.4626 36.7079 37.4845 36.6817 37.5086 36.6554C37.6179 36.5351 37.7229 36.4148 37.8257 36.2879C37.8301 36.2836 37.8345 36.277 37.8411 36.2726C38.3114 35.6973 38.7248 35.0739 39.077 34.4067C39.077 34.4045 39.077 34.4045 39.077 34.4045C39.1404 34.2864 39.1951 34.1792 39.2454 34.0764C39.2957 33.9714 39.3461 33.8664 39.3942 33.7614C39.462 33.6061 39.5276 33.4508 39.5889 33.2933C39.6086 33.2451 39.6261 33.1948 39.6457 33.1445C39.6829 33.0439 39.7201 32.9411 39.7573 32.8383C39.7814 32.7683 39.8054 32.6961 39.8273 32.6261C39.8514 32.5517 39.8732 32.4773 39.8951 32.4051C40.0876 31.762 40.2232 31.1036 40.2954 30.432C40.3392 30.0229 40.3632 29.6161 40.3632 29.2092C40.363 28.8373 40.3433 28.4696 40.3064 28.1023Z" fill="#6CA8BF"/>
<path d="M37.2803 42.0422H52.3963V52.3648H37.2803V42.0422Z" fill="#F16C7A"/>
<path d="M52.3963 41.7141H37.2803C37.0991 41.7141 36.9521 41.8609 36.9521 42.0422V52.3648C36.9521 52.5462 37.0991 52.693 37.2803 52.693H47.1706C47.3517 52.693 47.4987 52.5462 47.4987 52.3648C47.4987 52.1835 47.3517 52.0367 47.1706 52.0367H37.6084V42.3704H52.0682V52.0367H50.1677C49.9866 52.0367 49.8396 52.1835 49.8396 52.3648C49.8396 52.5462 49.9866 52.693 50.1677 52.693H52.3963C52.5775 52.693 52.7245 52.5462 52.7245 52.3648V42.0422C52.7245 41.8609 52.5775 41.7141 52.3963 41.7141Z" fill="#3A312A"/>
<path d="M37.2803 43.7034H52.3963V45.0159H37.2803V43.7034Z" fill="#F8E4C8"/>
<path d="M52.3963 43.3755H37.2803C37.0991 43.3755 36.9521 43.5223 36.9521 43.7036V45.0161C36.9521 45.1975 37.0991 45.3442 37.2803 45.3442H52.3963C52.5775 45.3442 52.7245 45.1975 52.7245 45.0161V43.7036C52.7245 43.5223 52.5775 43.3755 52.3963 43.3755ZM52.0682 44.688H37.6084V44.0317H52.0682V44.688Z" fill="#3A312A"/>
<path d="M37.2803 46.5471H52.3963V47.8596H37.2803V46.5471Z" fill="#F8E4C8"/>
<path d="M52.3963 46.2192H37.2803C37.0991 46.2192 36.9521 46.366 36.9521 46.5474V47.8599C36.9521 48.0412 37.0991 48.188 37.2803 48.188H52.3963C52.5775 48.188 52.7245 48.0412 52.7245 47.8599V46.5474C52.7245 46.366 52.5775 46.2192 52.3963 46.2192ZM52.0682 47.5317H37.6084V46.8755H52.0682V47.5317Z" fill="#3A312A"/>
<path d="M37.2803 49.3909H52.3963V50.7034H37.2803V49.3909Z" fill="#F8E4C8"/>
<path d="M52.3963 49.063H37.2803C37.0991 49.063 36.9521 49.2098 36.9521 49.3911V50.7036C36.9521 50.885 37.0991 51.0317 37.2803 51.0317H52.3963C52.5775 51.0317 52.7245 50.885 52.7245 50.7036V49.3911C52.7245 49.2098 52.5775 49.063 52.3963 49.063ZM52.0682 50.3755H37.6084V49.7192H52.0682V50.3755Z" fill="#3A312A"/>
<path d="M37.2803 42.0422H43.5136V46.5472H37.2803V42.0422Z" fill="#8AC3DA"/>
<path d="M43.5136 41.7141H37.2803C37.0991 41.7141 36.9521 41.8609 36.9521 42.0422V46.5474C36.9521 46.7287 37.0991 46.8755 37.2803 46.8755H43.5136C43.6947 46.8755 43.8417 46.7287 43.8417 46.5474V42.0422C43.8417 41.8609 43.6947 41.7141 43.5136 41.7141ZM43.1854 46.2193H37.6084V42.3704H43.1854V46.2193Z" fill="#3A312A"/>
</svg>
