<svg width="114" height="66" viewBox="0 0 114 66" fill="none" xmlns="http://www.w3.org/2000/svg">
<rect x="1" y="1" width="112" height="64" rx="2" fill="white" stroke="#8E98AC" stroke-width="2"/>
<path d="M59.085 17H58.17V49H59.085V42.8357H70.665V39.1039H61.755V34.813H69.375V31.051H61.755V26.8961H70.665V23.1341H59.085V17ZM23.04 35.221L19.755 29.8574L15.54 23.2096L15.495 23.1492H12V42.8357H15.885V30.7337L18.78 35.4476L23.43 42.8357H26.955V23.1492H23.055V35.221H23.04ZM29.13 42.8357H41.94V39.1039H33.03V34.813H40.65V31.051H33.03V26.8961H41.94V23.1341H29.13V42.8357ZM43.515 26.9415H48V42.8508H51.9V26.9415H56.355V23.1492H43.515V26.9415ZM83.67 35.2512L80.385 29.8876L76.17 23.2398L76.125 23.1643H72.63V42.8508H76.5V30.7488L79.395 35.4627L84.045 42.8508H87.57V23.1794H83.67V35.2512ZM89.16 23.1794V26.9717H93.645V42.881H97.545V26.9717H102V23.1794H89.16Z" fill="#50B14C"/>
</svg>
