<svg width="56" height="56" viewBox="0 0 56 56" fill="none" xmlns="http://www.w3.org/2000/svg">
<path d="M49.5757 9.32522C49.2301 9.32522 48.8976 9.26398 48.5913 9.15023V32.1277H46.3535V34.3152H49.6851C50.2888 34.3152 50.7788 33.8252 50.7788 33.2215V9.05835C50.4135 9.23116 50.0066 9.32522 49.5757 9.32522Z" fill="#EF6D7A"/>
<path d="M50.9543 8.78117C50.8593 8.7208 50.7399 8.7138 50.6384 8.7617C50.0434 9.04345 49.3246 9.07276 48.7055 8.84264C48.6049 8.80523 48.492 8.81945 48.4039 8.88092C48.3157 8.94217 48.2632 9.0428 48.2632 9.15042V31.7998H46.3535C46.1722 31.7998 46.0254 31.9466 46.0254 32.1279V34.3154C46.0254 34.4968 46.1722 34.6436 46.3535 34.6436H49.6851C50.4691 34.6436 51.107 34.0057 51.107 33.2217V9.05833C51.107 8.94589 51.0494 8.84133 50.9543 8.78117ZM50.4507 33.2215C50.4507 33.6436 50.1073 33.9871 49.6851 33.9871H46.6816V32.4558H48.5913C48.7727 32.4558 48.9195 32.3091 48.9195 32.1277V9.58573C49.4224 9.69139 49.9618 9.67236 50.4507 9.53192V33.2215Z" fill="#3A312A"/>
<path d="M10.3941 5.75464C10.1811 8.28426 7.54492 8.68348 7.54492 8.68348C9.80833 8.79001 10.3723 11.7589 10.3723 11.7589C10.4206 9.64205 13.2862 8.6522 13.2862 8.6522C11.1396 8.52401 10.3941 5.75464 10.3941 5.75464Z" fill="#D6DF58"/>
<path d="M13.3055 8.32477C11.4234 8.21233 10.7175 5.69452 10.7105 5.66915C10.6687 5.51536 10.5221 5.41386 10.3642 5.42808C10.2056 5.44252 10.0802 5.56852 10.0669 5.72711C9.87878 7.96165 7.59196 8.34402 7.49571 8.35911C7.32881 8.38427 7.2085 8.53193 7.21725 8.70036C7.226 8.8688 7.36096 9.00311 7.52962 9.01121C9.5045 9.10418 10.045 11.7933 10.0501 11.8204C10.08 11.9759 10.2161 12.0866 10.3721 12.0866C10.3812 12.0866 10.3904 12.0864 10.3996 12.0855C10.5667 12.0715 10.6965 11.9339 10.7004 11.7661C10.7428 9.90502 13.3672 8.97118 13.3939 8.96199C13.5415 8.91058 13.6327 8.76183 13.6113 8.60696C13.5894 8.45252 13.4617 8.33418 13.3055 8.32477ZM10.3382 10.588C10.0413 9.90327 9.52681 9.07705 8.6785 8.64611C9.31965 8.33899 10.0805 7.79015 10.4727 6.83661C10.812 7.5084 11.3912 8.34161 12.2957 8.74455C11.6377 9.1033 10.7813 9.70836 10.3382 10.588Z" fill="#3A312A"/>
<path d="M5.64794 9.46924C5.49722 11.2584 3.63281 11.541 3.63281 11.541C5.23362 11.6163 5.63263 13.7163 5.63263 13.7163C5.66675 12.2191 7.69369 11.5189 7.69369 11.5189C6.17534 11.4279 5.64794 9.46924 5.64794 9.46924Z" fill="#D6DF58"/>
<path d="M7.71317 11.1912C6.45185 11.1157 5.96929 9.40071 5.96448 9.38343C5.92292 9.22987 5.77723 9.12858 5.61842 9.14237C5.4596 9.15658 5.33426 9.2828 5.32092 9.44162C5.19426 10.9444 3.64835 11.2061 3.5836 11.2163C3.4167 11.2415 3.29639 11.3891 3.30514 11.5576C3.31389 11.726 3.44885 11.8603 3.61729 11.8684C4.93767 11.9306 5.30692 13.7593 5.3102 13.7772C5.33973 13.9332 5.47623 14.0441 5.6322 14.0441C5.64139 14.0441 5.65035 14.0439 5.65954 14.043C5.82689 14.0292 5.9566 13.8912 5.96054 13.7234C5.98898 12.4746 7.78317 11.8347 7.80089 11.8286C7.94898 11.7774 8.0402 11.6289 8.01876 11.4738C7.99732 11.3189 7.86957 11.2006 7.71317 11.1912ZM5.61645 12.6776C5.41432 12.265 5.10457 11.8142 4.64367 11.5226C5.04945 11.2949 5.45239 10.9475 5.7092 10.4472C5.94042 10.8571 6.28976 11.3124 6.79004 11.59C6.38557 11.8306 5.91745 12.1893 5.61645 12.6776Z" fill="#3A312A"/>
<path d="M5.64794 3.6377C5.49722 5.42685 3.63281 5.70948 3.63281 5.70948C5.23362 5.78473 5.63263 7.88472 5.63263 7.88472C5.66675 6.3876 7.69369 5.68738 7.69369 5.68738C6.17534 5.59638 5.64794 3.6377 5.64794 3.6377Z" fill="#D6DF58"/>
<path d="M7.71318 5.35989C6.45165 5.28442 5.96909 3.56942 5.9645 3.55192C5.92294 3.39836 5.77725 3.29686 5.61844 3.31086C5.45962 3.32508 5.33428 3.4513 5.32094 3.61011C5.19428 5.11314 3.64838 5.37476 3.58363 5.38505C3.41672 5.4102 3.29619 5.55786 3.30516 5.72629C3.31391 5.89473 3.44888 6.02904 3.61753 6.03714C4.93769 6.09926 5.30694 7.92801 5.31044 7.94595C5.33997 8.10192 5.47647 8.21283 5.63244 8.21283C5.64162 8.21283 5.65059 8.21239 5.65978 8.21173C5.82712 8.19795 5.95684 8.05992 5.96078 7.89214C5.98922 6.64329 7.78318 6.00345 7.80112 5.99733C7.949 5.94614 8.04043 5.79761 8.019 5.64251C7.99734 5.48786 7.86959 5.3693 7.71318 5.35989ZM5.61647 6.8463C5.41434 6.43395 5.10459 5.98289 4.64369 5.69129C5.04969 5.46358 5.45241 5.11598 5.70922 4.61592C5.94044 5.02564 6.29 5.48086 6.79006 5.75867C6.38559 5.99951 5.91747 6.35805 5.61647 6.8463Z" fill="#3A312A"/>
<path d="M42.0035 14.0811H7.92949C6.65199 14.0811 5.61621 15.1166 5.61621 16.3943V50.049C5.61621 51.3265 6.65177 52.3623 7.92949 52.3623H42.0035C43.281 52.3623 44.3168 51.3267 44.3168 50.049V16.3941C44.3168 15.1166 43.281 14.0811 42.0035 14.0811Z" fill="#87796F"/>
<path d="M42.0033 13.7529H7.92949C6.47306 13.7529 5.28809 14.9379 5.28809 16.3943V18.7109C5.28809 18.8922 5.43487 19.039 5.61621 19.039C5.79755 19.039 5.94434 18.8922 5.94434 18.7109V16.3943C5.94434 15.2997 6.83487 14.4092 7.92949 14.4092H42.0035C43.0982 14.4092 43.9887 15.2997 43.9887 16.3943V50.0492C43.9887 51.1439 43.0982 52.0344 42.0035 52.0344H7.92949C6.83487 52.0344 5.94434 51.1439 5.94434 50.0492V21.8311C5.94434 21.6498 5.79755 21.503 5.61621 21.503C5.43487 21.503 5.28809 21.6498 5.28809 21.8311V50.049C5.28809 51.5055 6.47306 52.6904 7.92949 52.6904H42.0035C43.46 52.6904 44.6449 51.5055 44.6449 50.049V16.3941C44.6447 14.9377 43.4597 13.7529 42.0033 13.7529Z" fill="#3A312A"/>
<path d="M44.0383 24.8137H5.89336C4.61586 24.8137 3.58008 25.8493 3.58008 27.127V39.3162C3.58008 40.5937 4.61586 41.6295 5.89336 41.6295H44.0383C45.3158 41.6295 46.3516 40.5939 46.3516 39.3162V27.127C46.3516 25.8493 45.316 24.8137 44.0383 24.8137Z" fill="#FAE6CA"/>
<path d="M44.0383 24.4856H37.5598C37.3785 24.4856 37.2317 24.6324 37.2317 24.8137C37.2317 24.9951 37.3785 25.1418 37.5598 25.1418H44.0383C45.133 25.1418 46.0235 26.0324 46.0235 27.127V39.3162C46.0235 40.4108 45.133 41.3013 44.0383 41.3013H5.89336C4.79873 41.3013 3.9082 40.4108 3.9082 39.3162V27.127C3.9082 26.0324 4.79873 25.1418 5.89336 25.1418H34.554C34.7353 25.1418 34.8821 24.9951 34.8821 24.8137C34.8821 24.6324 34.7353 24.4856 34.554 24.4856H5.89336C4.43692 24.4856 3.25195 25.6706 3.25195 27.127V39.3162C3.25195 40.7726 4.43692 41.9576 5.89336 41.9576H44.0383C45.4948 41.9576 46.6797 40.7726 46.6797 39.3162V27.127C46.6797 25.6706 45.495 24.4856 44.0383 24.4856Z" fill="#3A312A"/>
<path d="M6.20605 28.3086V30.7678H11.3819C10.319 32.0879 9.54221 33.3272 9.05134 34.4852C8.56046 35.6433 8.20062 37.0778 7.97181 38.7887H10.8744C10.9696 37.5591 11.1555 36.494 11.432 35.5932C11.7798 34.4351 12.2541 33.3843 12.8545 32.4406C13.3502 31.6638 13.9673 30.9417 14.706 30.2745V28.3086H6.20605Z" fill="#EF6D7A"/>
<path d="M14.706 27.9805H6.20605C6.02471 27.9805 5.87793 28.1272 5.87793 28.3086V30.7678C5.87793 30.9491 6.02471 31.0959 6.20605 31.0959H10.7086C9.84059 32.2395 9.18259 33.3344 8.74902 34.357C8.24896 35.5365 7.87796 37.0129 7.64652 38.7452C7.63406 38.839 7.66249 38.9335 7.72484 39.0046C7.78718 39.0759 7.87709 39.1166 7.97181 39.1166H10.8742C11.0457 39.1166 11.1881 38.9847 11.2014 38.8139C11.2944 37.614 11.4775 36.5627 11.7461 35.6875C12.0836 34.5638 12.5496 33.5306 13.131 32.6169C13.6083 31.8688 14.2121 31.1624 14.9259 30.5178C14.9948 30.4554 15.0341 30.367 15.0341 30.2743V28.3084C15.0341 28.1273 14.8871 27.9805 14.706 27.9805ZM14.3779 30.1299C13.6676 30.7873 13.0623 31.5048 12.5778 32.2645C11.9638 33.2292 11.4727 34.3174 11.1185 35.4969C10.8593 36.3413 10.6762 37.3371 10.5732 38.4606H8.34959C8.5749 36.9473 8.91199 35.6542 9.35343 34.6132C9.8303 33.4882 10.5988 32.2636 11.6376 30.9736C11.7168 30.8752 11.7326 30.74 11.6781 30.6263C11.6234 30.5123 11.5086 30.4397 11.3821 30.4397H6.53418V28.6367H14.3779V30.1299Z" fill="#3A312A"/>
<path d="M20.7168 28.3086V30.7678H25.8924C24.8297 32.0879 24.0527 33.3272 23.5621 34.4852C23.0712 35.6433 22.7114 37.0778 22.4825 38.7887H25.3849C25.4803 37.5591 25.666 36.494 25.9425 35.5932C26.2906 34.4351 26.7648 33.3843 27.3653 32.4406C27.861 31.6638 28.4781 30.9417 29.2168 30.2745V28.3086H20.7168Z" fill="#EF6D7A"/>
<path d="M29.2165 27.9805H20.7168C20.5355 27.9805 20.3887 28.1272 20.3887 28.3086V30.7678C20.3887 30.9491 20.5355 31.0959 20.7168 31.0959H25.2193C24.3511 32.2402 23.6931 33.3348 23.26 34.357C22.7599 35.5365 22.3889 37.0129 22.1573 38.7452C22.1448 38.839 22.1732 38.9335 22.2356 39.0046C22.2979 39.0759 22.3878 39.1166 22.4825 39.1166H25.3849C25.5564 39.1166 25.6988 38.9847 25.7122 38.8139C25.8051 37.614 25.9882 36.5627 26.2569 35.6875C26.5946 34.5635 27.0608 33.5304 27.642 32.6169C28.1193 31.8688 28.723 31.1624 29.4368 30.5178C29.5057 30.4554 29.5451 30.367 29.5451 30.2743V28.3084C29.5447 28.1273 29.3979 27.9805 29.2165 27.9805ZM28.8884 30.1299C28.1781 30.7873 27.5729 31.5048 27.0883 32.2645C26.4745 33.2289 25.9832 34.317 25.6288 35.4969C25.3696 36.3413 25.1865 37.3371 25.0835 38.4606H22.8603C23.0856 36.9473 23.4227 35.6542 23.8642 34.6132C24.3406 33.4888 25.1089 32.2643 26.1479 30.9734C26.2271 30.875 26.2429 30.74 26.1884 30.626C26.1337 30.5121 26.0189 30.4397 25.8924 30.4397H21.0449V28.6367H28.8884V30.1299Z" fill="#3A312A"/>
<path d="M35.2266 28.3086V30.7678H40.4024C39.3395 32.0879 38.5627 33.3272 38.0718 34.4852C37.581 35.6433 37.2211 37.0778 36.9923 38.7887H39.8949C39.9901 37.5591 40.176 36.494 40.4525 35.5932C40.8003 34.4351 41.2746 33.3843 41.875 32.4406C42.3707 31.6638 42.9878 30.9417 43.7265 30.2745V28.3086H35.2266Z" fill="#EF6D7A"/>
<path d="M43.7265 27.9805H35.2266C35.0452 27.9805 34.8984 28.1272 34.8984 28.3086V30.7678C34.8984 30.9491 35.0452 31.0959 35.2266 31.0959H39.7291C38.8611 32.2395 38.2031 33.3344 37.7695 34.357C37.2695 35.5365 36.8985 37.0129 36.667 38.7452C36.6546 38.839 36.683 38.9335 36.7453 39.0046C36.8077 39.0759 36.8976 39.1166 36.9923 39.1166H39.8949C40.0664 39.1166 40.2088 38.9847 40.2222 38.8139C40.3151 37.614 40.4982 36.5627 40.7668 35.6875C41.1044 34.5638 41.5703 33.5306 42.1518 32.6169C42.6291 31.8688 43.2328 31.1624 43.9466 30.5178C44.0155 30.4554 44.0549 30.367 44.0549 30.2743V28.3084C44.0547 28.1273 43.9077 27.9805 43.7265 27.9805ZM43.3984 30.1299C42.6881 30.7873 42.0828 31.5048 41.5983 32.2645C40.9843 33.2292 40.4932 34.3174 40.139 35.4969C39.8798 36.3413 39.6967 37.3371 39.5937 38.4606H37.3703C37.5956 36.9473 37.9327 35.6542 38.3742 34.6132C38.851 33.4882 39.6195 32.2636 40.6583 30.9736C40.7375 30.8752 40.7533 30.74 40.6988 30.6263C40.6443 30.5123 40.5293 30.4397 40.4028 30.4397H35.5551V28.6367H43.3988V30.1299H43.3984Z" fill="#3A312A"/>
<path d="M33.1748 13.108C33.992 12.3113 33.5412 10.9233 32.4116 10.759L28.8365 10.2395C28.3881 10.1743 28.0002 9.89256 27.7997 9.48612L26.2008 6.24665C25.6957 5.22312 24.2362 5.22312 23.7311 6.24665L22.1323 9.48612C21.9317 9.89256 21.5438 10.1743 21.0954 10.2395L17.5204 10.759C16.391 10.9231 15.9399 12.3113 16.7571 13.108L19.3441 15.6295C19.6687 15.9458 19.8168 16.4017 19.74 16.8484L19.1293 20.409C18.9363 21.534 20.1172 22.3917 21.1273 21.8606L24.3248 20.1795C24.726 19.9686 25.2053 19.9686 25.6065 20.1795L28.8039 21.8606C29.8141 22.3917 30.9949 21.534 30.802 20.409L30.1913 16.8484C30.1147 16.4017 30.2628 15.9458 30.5872 15.6295L33.1748 13.108Z" fill="#D6DF58"/>
<path d="M33.4043 13.3431C33.8727 12.8868 34.0378 12.2168 33.8359 11.5948C33.6338 10.9732 33.1064 10.5284 32.4595 10.4344L28.8845 9.91484C28.5428 9.86519 28.2477 9.65081 28.0948 9.34106L26.496 6.10159C26.2066 5.51534 25.6208 5.15112 24.9669 5.15112C24.3131 5.15112 23.7272 5.51534 23.4378 6.10159L21.839 9.34106C21.6861 9.65081 21.391 9.86519 21.0491 9.91484L17.4741 10.4344C16.827 10.5284 16.2996 10.9729 16.0975 11.5948C15.8953 12.2168 16.0607 12.8866 16.5291 13.3431L19.1158 15.8646C19.363 16.1057 19.4758 16.4526 19.4174 16.7932L18.8067 20.3536C18.6962 20.998 18.9561 21.637 19.485 22.0213C19.7841 22.2386 20.1336 22.3488 20.4858 22.3488C20.7568 22.3488 21.0292 22.2834 21.281 22.1511L24.4784 20.47C24.7838 20.3092 25.1491 20.3094 25.4545 20.47L28.6522 22.1511C29.2308 22.4553 29.919 22.4057 30.4479 22.0213C30.9768 21.637 31.2367 20.998 31.1263 20.3536L30.5155 16.7932C30.4571 16.4528 30.57 16.1057 30.8172 15.8646L33.4043 13.3431ZM29.8689 16.9039L30.4796 20.4643C30.5485 20.8668 30.3928 21.2503 30.0625 21.4902C29.7319 21.7304 29.3189 21.7602 28.9578 21.5701L25.7603 19.889C25.5118 19.7584 25.2393 19.693 24.9667 19.693C24.6941 19.693 24.4216 19.7584 24.1733 19.889L20.9758 21.5701C20.6142 21.7602 20.2017 21.7302 19.8711 21.4902C19.5408 21.2503 19.3848 20.8668 19.4537 20.4643L20.0645 16.9039C20.1594 16.3505 19.9759 15.7863 19.5741 15.3945L16.9871 12.873C16.6949 12.588 16.5956 12.1859 16.7218 11.7976C16.848 11.4093 17.1645 11.1425 17.5686 11.0838L21.1434 10.5643C21.699 10.4838 22.1789 10.1351 22.4274 9.63156L24.0263 6.39209C24.207 6.0259 24.5585 5.80737 24.9669 5.80737C25.3753 5.80737 25.7268 6.02612 25.9075 6.39209L27.5064 9.63156C27.7549 10.1349 28.235 10.4838 28.7902 10.5643L32.3653 11.0838C32.7693 11.1427 33.0858 11.4093 33.212 11.7976C33.3383 12.1859 33.2389 12.588 32.9467 12.873L30.3598 15.3945C29.9575 15.7863 29.7739 16.3505 29.8689 16.9039Z" fill="#3A312A"/>
<path d="M49.5762 9.3252C51.1467 9.3252 52.4199 8.05201 52.4199 6.48145C52.4199 4.91089 51.1467 3.6377 49.5762 3.6377C48.0056 3.6377 46.7324 4.91089 46.7324 6.48145C46.7324 8.05201 48.0056 9.3252 49.5762 9.3252Z" fill="#8AC5DC"/>
<path d="M49.5762 3.30957C47.8273 3.30957 46.4043 4.73254 46.4043 6.48145C46.4043 8.23035 47.8273 9.65332 49.5762 9.65332C51.3251 9.65332 52.748 8.23035 52.748 6.48145C52.748 4.73254 51.3251 3.30957 49.5762 3.30957ZM49.5762 8.99707C48.1891 8.99707 47.0605 7.86854 47.0605 6.48145C47.0605 5.09435 48.1891 3.96582 49.5762 3.96582C50.9633 3.96582 52.0918 5.09435 52.0918 6.48145C52.0918 7.86876 50.9633 8.99707 49.5762 8.99707Z" fill="#3A312A"/>
<path d="M11.38 49.106C12.5124 48.8383 13.2133 47.7034 12.9457 46.571C12.678 45.4386 11.543 44.7377 10.4107 45.0053C9.27831 45.273 8.57734 46.408 8.84501 47.5403C9.11268 48.6727 10.2476 49.3736 11.38 49.106Z" fill="#89C4DB"/>
<path d="M10.8865 44.6345C9.54361 44.6345 8.45117 45.727 8.45117 47.0699C8.45117 48.4128 9.54361 49.5052 10.8865 49.5052C12.2294 49.5052 13.3219 48.4128 13.3219 47.0699C13.3219 45.7272 12.2294 44.6345 10.8865 44.6345ZM10.8865 48.849C9.90564 48.849 9.10742 48.051 9.10742 47.0699C9.10742 46.089 9.90542 45.2908 10.8865 45.2908C11.8676 45.2908 12.6656 46.0888 12.6656 47.0699C12.6656 48.051 11.8676 48.849 10.8865 48.849Z" fill="#3A312A"/>
<path d="M21.7555 48.5569C22.5783 47.7341 22.5783 46.4001 21.7555 45.5773C20.9327 44.7545 19.5987 44.7545 18.7759 45.5773C17.9531 46.4001 17.9531 47.7341 18.7759 48.5569C19.5987 49.3797 20.9327 49.3797 21.7555 48.5569Z" fill="#89C4DB"/>
<path d="M20.2732 44.6345C18.9303 44.6345 17.8379 45.727 17.8379 47.0699C17.8379 48.4128 18.9303 49.5052 20.2732 49.5052C21.6161 49.5052 22.7086 48.4128 22.7086 47.0699C22.7086 45.7272 21.6161 44.6345 20.2732 44.6345ZM20.2732 48.849C19.2921 48.849 18.4941 48.051 18.4941 47.0699C18.4941 46.089 19.2921 45.2908 20.2732 45.2908C21.2541 45.2908 22.0523 46.0888 22.0523 47.0699C22.0523 48.051 21.2543 48.849 20.2732 48.849Z" fill="#3A312A"/>
<path d="M30.7913 48.8716C31.7817 48.2595 32.0883 46.9604 31.4761 45.97C30.864 44.9796 29.5649 44.673 28.5745 45.2852C27.5841 45.8973 27.2775 47.1964 27.8896 48.1868C28.5018 49.1772 29.8009 49.4838 30.7913 48.8716Z" fill="#89C4DB"/>
<path d="M29.66 44.6345C28.317 44.6345 27.2246 45.727 27.2246 47.0699C27.2246 48.4128 28.317 49.5052 29.66 49.5052C31.0029 49.5052 32.0953 48.4128 32.0953 47.0699C32.0955 45.7272 31.0031 44.6345 29.66 44.6345ZM29.66 48.849C28.6789 48.849 27.8809 48.051 27.8809 47.0699C27.8809 46.089 28.6789 45.2908 29.66 45.2908C30.6411 45.2908 31.4391 46.0888 31.4391 47.0699C31.4393 48.051 30.6411 48.849 29.66 48.849Z" fill="#3A312A"/>
<path d="M40.527 48.5589C41.3498 47.7361 41.3498 46.4021 40.527 45.5793C39.7042 44.7565 38.3702 44.7565 37.5474 45.5793C36.7246 46.4021 36.7246 47.7361 37.5474 48.5589C38.3702 49.3817 39.7042 49.3817 40.527 48.5589Z" fill="#89C4DB"/>
<path d="M39.0467 44.6348C37.7038 44.6348 36.6113 45.7272 36.6113 47.0701C36.6113 48.413 37.7038 49.5054 39.0467 49.5054C40.3896 49.5054 41.482 48.413 41.482 47.0701C41.4822 45.7274 40.3898 44.6348 39.0467 44.6348ZM39.0467 48.8492C38.0656 48.8492 37.2676 48.0512 37.2676 47.0701C37.2676 46.0892 38.0656 45.291 39.0467 45.291C40.0278 45.291 40.8258 46.089 40.8258 47.0701C40.826 48.0512 40.0278 48.8492 39.0467 48.8492Z" fill="#3A312A"/>
<path d="M17.8027 24.4717C17.6214 24.4717 17.4746 24.6185 17.4746 24.7998V41.6435C17.4746 41.8249 17.6214 41.9717 17.8027 41.9717C17.9841 41.9717 18.1309 41.8249 18.1309 41.6435V24.7998C18.1309 24.6185 17.9839 24.4717 17.8027 24.4717Z" fill="#3A312A"/>
<path d="M32.1309 24.4717C31.9495 24.4717 31.8027 24.6185 31.8027 24.7998V41.6435C31.8027 41.8249 31.9495 41.9717 32.1309 41.9717C32.3122 41.9717 32.459 41.8249 32.459 41.6435V24.7998C32.459 24.6185 32.312 24.4717 32.1309 24.4717Z" fill="#3A312A"/>
<path d="M42.0039 14.4092H38.7227C39.8164 14.4092 40.7067 15.2995 40.7067 16.3932V24.4848H43.988V16.3932C43.988 15.2995 43.0977 14.4092 42.0039 14.4092Z" fill="#695B51"/>
<path d="M40.7067 41.9585V45.2901C41.1836 45.7363 41.4811 46.3685 41.4811 47.0707C41.4811 47.7729 41.1836 48.4051 40.7067 48.8513V50.0479C40.7067 51.1438 39.8164 52.0341 38.7227 52.0341H42.0039C43.0977 52.0341 43.988 51.1438 43.988 50.0479V41.9585H40.7067Z" fill="#695B51"/>
<path d="M44.0391 25.1409H40.7578C41.8516 25.1409 42.7441 26.0312 42.7441 27.1271V27.9802H43.7263C43.9078 27.9802 44.0544 28.1268 44.0544 28.3084V30.2749C44.0544 30.3668 44.015 30.4565 43.9472 30.5177C43.5031 30.9202 43.1006 31.3468 42.7441 31.7931V39.3159C42.7441 40.4096 41.8516 41.3021 40.7578 41.3021H44.0391C45.1328 41.3021 46.0253 40.4096 46.0253 39.3159V27.1271C46.0253 26.0312 45.1328 25.1409 44.0391 25.1409Z" fill="#DDC9AC"/>
</svg>
