<svg width="15" height="15" viewBox="0 0 15 15" fill="none" xmlns="http://www.w3.org/2000/svg">
<path d="M14.9785 5.77918C14.9268 5.62007 14.7893 5.50412 14.6238 5.48009L9.9737 4.80436L7.89407 0.590699C7.82006 0.4407 7.66728 0.345749 7.50003 0.345749C7.33274 0.345749 7.17999 0.4407 7.10595 0.590699L5.02624 4.80436L0.376254 5.48009C0.210757 5.50412 0.0732087 5.62007 0.0215293 5.77915C-0.0301795 5.93827 0.0129453 6.1129 0.13274 6.22965L3.49741 9.50954L2.70324 14.1409C2.67494 14.3057 2.74273 14.4723 2.87805 14.5707C2.9546 14.6263 3.04528 14.6546 3.13639 14.6546C3.20635 14.6546 3.27655 14.6379 3.34082 14.6041L7.5 12.4174L11.659 14.6041C11.8071 14.6819 11.9865 14.669 12.1218 14.5706C12.2571 14.4723 12.3249 14.3057 12.2967 14.1408L11.5022 9.50954L14.8673 6.22962C14.987 6.1129 15.0302 5.93827 14.9785 5.77918Z" fill="#FFCF24"/>
</svg>
