<svg width="32" height="32" viewBox="0 0 32 32" fill="none" xmlns="http://www.w3.org/2000/svg">
<g clip-path="url(#clip0)">
<path d="M9.97584 2.59123C10.0673 2.6821 10.1868 2.72754 10.3063 2.72754C10.4267 2.72754 10.5471 2.68142 10.6387 2.58923C10.8212 2.4056 10.8203 2.10879 10.6367 1.92635L10.1179 1.41067C9.93434 1.22823 9.63752 1.2291 9.45502 1.41267C9.27252 1.59629 9.2734 1.8931 9.45702 2.07554L9.97584 2.59123Z" fill="white"/>
<path d="M11.3648 1.30041C11.4182 1.51322 11.6092 1.65528 11.8191 1.65528C11.8569 1.65528 11.8952 1.65072 11.9335 1.64103C12.1847 1.57803 12.3372 1.32347 12.2742 1.07235L12.0942 0.354971C12.0312 0.103846 11.7764 -0.0490918 11.5255 0.0143457C11.2744 0.0773457 11.1219 0.331908 11.1849 0.583033L11.3648 1.30041Z" fill="white"/>
<path d="M8.41228 4.05723L9.1309 4.23305C9.16834 4.24217 9.20578 4.24661 9.24265 4.24661C9.45359 4.24661 9.64521 4.10317 9.69759 3.88911C9.75909 3.63767 9.60515 3.38392 9.35365 3.32242L8.63503 3.14661C8.38315 3.08505 8.12984 3.23905 8.06834 3.49055C8.00684 3.74198 8.16084 3.99573 8.41228 4.05723Z" fill="white"/>
<path d="M21.6936 2.72757C21.8131 2.72757 21.9326 2.68213 22.024 2.59125L22.5428 2.07556C22.7265 1.89306 22.7273 1.59625 22.5448 1.41269C22.3623 1.22913 22.0656 1.22819 21.882 1.41069L21.3632 1.92638C21.1795 2.10888 21.1787 2.40569 21.3612 2.58925C21.4528 2.68138 21.5732 2.72757 21.6936 2.72757Z" fill="white"/>
<path d="M20.0664 1.64101C20.1047 1.65064 20.143 1.65526 20.1808 1.65526C20.3907 1.65526 20.5817 1.51326 20.6351 1.30038L20.815 0.582947C20.878 0.331822 20.7255 0.0772598 20.4744 0.0142598C20.2234 -0.0489277 19.9687 0.103822 19.9057 0.354885L19.7257 1.07232C19.6628 1.32345 19.8153 1.57801 20.0664 1.64101Z" fill="white"/>
<path d="M22.3022 3.8891C22.3546 4.10316 22.5463 4.2466 22.7572 4.2466C22.7941 4.2466 22.8315 4.24223 22.8689 4.23304L23.5876 4.05723C23.839 3.99573 23.993 3.74198 23.9315 3.49054C23.87 3.23916 23.6164 3.08504 23.3648 3.1466L22.6462 3.32241C22.3947 3.38391 22.2407 3.63766 22.3022 3.8891Z" fill="white"/>
<path d="M29.359 18.5135L26.5888 14.3973C26.5385 14.3227 26.4697 14.2668 26.3922 14.232C26.3912 14.2315 26.3905 14.2308 26.3895 14.2304L21.3566 12.0038C22.0983 10.9439 22.5343 9.655 22.5343 8.26605C22.5343 5.10847 20.2831 2.40533 17.1814 1.83864C16.9267 1.79214 16.6825 1.96077 16.636 2.21552C16.5895 2.47015 16.7582 2.71433 17.0129 2.7609C19.669 3.24621 21.5967 5.56148 21.5967 8.26605C21.5967 10.7122 20.0192 12.7966 17.8282 13.556V9.41544H18.116C18.7817 9.41544 19.3233 8.87381 19.3233 8.20812V7.88961C19.3233 7.63068 19.1134 7.42086 18.8545 7.42086C18.5957 7.42086 18.3858 7.63068 18.3858 7.88961V8.20812C18.3858 8.35693 18.2647 8.47793 18.116 8.47793H13.8839C13.7351 8.47793 13.6141 8.35687 13.6141 8.20812V7.88961C13.6141 7.63068 13.4042 7.42086 13.1453 7.42086C12.8864 7.42086 12.6766 7.63068 12.6766 7.88961V8.20812C12.6766 8.87381 13.2182 9.41544 13.8839 9.41544H14.1717V13.556C11.9807 12.7966 10.4031 10.7122 10.4031 8.26605C10.4031 5.56973 12.324 3.25578 14.9706 2.76402C15.2251 2.71671 15.3931 2.47202 15.3458 2.21752C15.2985 1.96302 15.0536 1.79489 14.7993 1.84227C11.7087 2.41652 9.46555 5.11816 9.46555 8.26605C9.46555 9.655 9.90149 10.9438 10.6432 12.0037L5.61015 14.2304C5.60915 14.2308 5.6084 14.2316 5.6074 14.232C5.53003 14.2669 5.46128 14.3227 5.41109 14.3973L2.64088 18.5135C2.45738 18.7862 2.40445 19.1237 2.49557 19.4394C2.5867 19.7551 2.81132 20.0124 3.11183 20.1453L5.33109 21.1271V22.8941C5.33109 23.153 5.54096 23.3628 5.79984 23.3628C6.05872 23.3628 6.26859 23.153 6.26859 22.8941V21.5418L12.1244 24.1324C12.2698 24.1967 12.4224 24.2275 12.573 24.2275C12.9322 24.2275 13.2803 24.0522 13.4919 23.7378L15.5313 20.7074V30.8712L6.37009 26.8183C6.30841 26.791 6.26859 26.7298 6.26859 26.6624V25.1063C6.26859 24.8474 6.05872 24.6376 5.79984 24.6376C5.54096 24.6376 5.33109 24.8474 5.33109 25.1063V26.6625C5.33109 27.1007 5.59009 27.4985 5.99084 27.6757L15.5517 31.9054C15.6941 31.9684 15.847 31.9999 15.9999 31.9999C16.1528 31.9999 16.3058 31.9684 16.4482 31.9054L26.009 27.6757C26.4098 27.4985 26.6687 27.1007 26.6687 26.6625V21.1272L28.8882 20.1453C29.1887 20.0124 29.4133 19.755 29.5044 19.4392C29.5954 19.1236 29.5425 18.7861 29.359 18.5135ZM20.7419 12.757L25.0413 14.659L19.0855 17.2938L19.2084 16.469H19.213C19.4719 16.469 19.6818 16.2592 19.6818 16.0002C19.6818 15.7872 19.5397 15.6078 19.3452 15.5507L19.6204 13.7028C20.0289 13.43 20.4052 13.1124 20.7419 12.757ZM16 18.6589L13.9291 17.7427L13.7393 16.469H18.2605L18.0708 17.7427L16 18.6589ZM13.411 14.2651C14.2053 14.6092 15.0806 14.8004 15.9999 14.8004C16.9192 14.8004 17.7945 14.6092 18.5888 14.2651L18.4002 15.5315H13.5996L13.411 14.2651ZM16.8907 9.41537V10.4913H15.1093V9.41537H16.8907ZM15.1093 11.4288H16.8907V13.7917C16.6005 13.8383 16.3031 13.8629 16 13.8629C15.6968 13.8629 15.3995 13.8383 15.1093 13.7917V11.4288ZM12.3794 13.7029L12.6547 15.5507C12.4602 15.6078 12.3181 15.7873 12.3181 16.0003C12.3181 16.2592 12.5279 16.469 12.7868 16.469H12.7914L12.9143 17.2939L6.95847 14.659L11.2579 12.757C11.5947 13.1123 11.9709 13.43 12.3794 13.7029ZM12.7141 23.2145C12.6679 23.283 12.5794 23.3086 12.5037 23.2752L3.49108 19.2879C3.42783 19.26 3.40451 19.2079 3.39633 19.1794C3.38808 19.1509 3.38001 19.0944 3.41864 19.0369L5.96953 15.2466L15.2988 19.3738L12.7141 23.2145ZM28.6035 19.1794C28.5953 19.2079 28.572 19.26 28.5087 19.288L23.1982 21.6374C22.9614 21.7421 22.8544 22.0189 22.9591 22.2557C23.0638 22.4925 23.3408 22.5995 23.5774 22.4947L25.7311 21.5419V26.6625C25.7311 26.73 25.6913 26.7912 25.6296 26.8185L16.4688 30.8712V20.7077L18.508 23.7378C18.7197 24.0523 19.0677 24.2276 19.4269 24.2276C19.5775 24.2276 19.7302 24.1968 19.8755 24.1325L21.5576 23.3883C21.7944 23.2836 21.9014 23.0068 21.7967 22.77C21.6919 22.5332 21.415 22.4263 21.1784 22.531L19.4962 23.2751C19.4205 23.3086 19.3321 23.283 19.2859 23.2144L16.7012 19.3738L26.0304 15.2466L28.5813 19.0369C28.6199 19.0944 28.6118 19.1508 28.6035 19.1794Z" fill="white"/>
</g>
<defs>
<clipPath id="clip0">
<rect width="32" height="32" fill="white"/>
</clipPath>
</defs>
</svg>
