<svg width="32" height="32" viewBox="0 0 32 32" fill="none" xmlns="http://www.w3.org/2000/svg">
<path d="M6.18661 5.25493C6.18661 4.43157 5.51664 3.7616 4.69328 3.7616C3.86992 3.7616 3.19995 4.43157 3.19995 5.25493C3.19995 6.07829 3.86992 6.74826 4.69328 6.74826C5.51664 6.74826 6.18661 6.07818 6.18661 5.25493ZM4.05328 5.25493C4.05328 4.90197 4.34032 4.61493 4.69328 4.61493C5.04624 4.61493 5.33328 4.90197 5.33328 5.25493C5.33328 5.60789 5.04624 5.89493 4.69328 5.89493C4.34032 5.89493 4.05328 5.60778 4.05328 5.25493Z" fill="white"/>
<path d="M27.3066 9.73496C28.1299 9.73496 28.7999 9.06498 28.7999 8.24162C28.7999 7.41826 28.1299 6.74829 27.3066 6.74829C26.4832 6.74829 25.8132 7.41826 25.8132 8.24162C25.8132 9.06498 26.4833 9.73496 27.3066 9.73496ZM27.3066 7.60162C27.6595 7.60162 27.9466 7.88866 27.9466 8.24162C27.9466 8.59458 27.6595 8.88162 27.3066 8.88162C26.9536 8.88162 26.6666 8.59458 26.6666 8.24162C26.6666 7.88866 26.9537 7.60162 27.3066 7.60162Z" fill="white"/>
<path d="M5.54657 11.7113C5.81337 11.7113 6.02966 11.495 6.02966 11.2282C6.02966 10.9614 5.81337 10.7451 5.54657 10.7451C5.27976 10.7451 5.06348 10.9614 5.06348 11.2282C5.06348 11.495 5.27976 11.7113 5.54657 11.7113Z" fill="white"/>
<path d="M25.5999 4.45801C25.8667 4.45801 26.083 4.24172 26.083 3.97491C26.083 3.70811 25.8667 3.49182 25.5999 3.49182C25.3331 3.49182 25.1168 3.70811 25.1168 3.97491C25.1168 4.24172 25.3331 4.45801 25.5999 4.45801Z" fill="white"/>
<path d="M18.7545 5.91364C18.8378 5.99694 18.947 6.03865 19.0561 6.03865C19.1652 6.03865 19.2745 5.99694 19.3578 5.91364L19.8399 5.4315L20.322 5.91364C20.4054 5.99694 20.5146 6.03865 20.6237 6.03865C20.7328 6.03865 20.842 5.99694 20.9254 5.91364C21.092 5.74702 21.092 5.47694 20.9254 5.31033L20.4432 4.8282L20.9254 4.34606C21.092 4.17945 21.092 3.90937 20.9254 3.74276C20.7587 3.57614 20.4887 3.57614 20.322 3.74276L19.8399 4.22489L19.3578 3.74276C19.1912 3.57614 18.9211 3.57614 18.7545 3.74276C18.5879 3.90937 18.5879 4.17945 18.7545 4.34606L19.2366 4.8282L18.7545 5.31033C18.5879 5.47705 18.5879 5.74702 18.7545 5.91364Z" fill="white"/>
<path d="M28.5641 13.1033C28.707 13.0316 28.7982 12.8862 28.7999 12.7262C28.8016 12.5662 28.7136 12.4187 28.572 12.3441L20.4653 8.07744C20.3453 8.01408 20.2028 8.01205 20.0799 8.07115L15.0505 10.5179L14.4987 10.2144C14.3762 10.146 14.2274 10.144 14.1024 10.2065L9.83575 12.3398C9.6958 12.4098 9.60492 12.5515 9.60034 12.7082C9.59564 12.8567 9.6701 12.9943 9.79319 13.0755L4.29324 15.751C4.147 15.8223 4.0541 15.9702 4.05324 16.1323C4.05239 16.2947 4.1437 16.4439 4.28908 16.5165L12.8224 20.7831C12.8824 20.8131 12.9479 20.8282 13.0132 20.8282C13.0786 20.8282 13.1441 20.8131 13.2041 20.7831L18.0785 18.346L18.09 19.9461L13.0132 22.4844L4.67074 18.3132C4.45986 18.2086 4.20407 18.2931 4.09826 18.504C3.99287 18.7149 4.0782 18.9711 4.28908 19.0765L12.8224 23.3431C12.8824 23.3731 12.9479 23.3882 13.0132 23.3882C13.0786 23.3882 13.1441 23.3731 13.2041 23.3431L18.0969 20.8969L18.1084 22.497L13.0132 25.0444L4.67074 20.8732C4.45986 20.7682 4.20407 20.8531 4.09826 21.064C3.99287 21.2749 4.0782 21.5311 4.28908 21.6365L12.8224 25.9031C12.8824 25.9331 12.9479 25.9482 13.0132 25.9482C13.0786 25.9482 13.1441 25.9331 13.2041 25.9031L18.1152 23.4477L18.1267 25.0474L13.0132 27.6044L4.67074 23.4332C4.45986 23.3286 4.20407 23.4131 4.09826 23.624C3.99287 23.8349 4.0782 24.0911 4.28908 24.1965L12.8224 28.4631C12.8824 28.4931 12.9479 28.5082 13.0132 28.5082C13.0786 28.5082 13.1441 28.4931 13.2041 28.4631L18.1393 25.9953C18.1542 26.1251 18.2241 26.2427 18.3371 26.3119C18.405 26.3536 18.4825 26.3748 18.56 26.3748C18.6254 26.3748 18.6905 26.3598 18.7508 26.3298L23.0175 24.1965C23.162 24.1239 23.2534 23.9765 23.2534 23.8148V23.4386L28.5642 20.7831C28.7751 20.6778 28.8604 20.4214 28.755 20.2107C28.6492 19.9998 28.3933 19.9149 28.1825 20.0198L23.2534 22.4844V20.8785L28.5642 18.223C28.7751 18.1177 28.8604 17.8613 28.755 17.6506C28.6492 17.4397 28.3933 17.3551 28.1825 17.4597L23.2534 19.9243V18.3186L28.5642 15.663C28.7751 15.5577 28.8604 15.3013 28.755 15.0906C28.6492 14.8797 28.3933 14.7948 28.1825 14.8997L23.2534 17.3645V15.7584L28.5641 13.1033ZM20.2591 8.93323L27.4387 12.712L23.038 14.9122C23.0358 14.9109 23.0343 14.909 23.032 14.9078L15.9662 11.0215L20.2591 8.93323ZM13.0132 19.9245L5.4445 16.1403L10.6237 13.6207C10.6407 13.6124 10.6515 13.5979 10.6669 13.5876L17.6086 17.627L13.0132 19.9245ZM18.9816 25.2603L18.927 17.6494C18.927 17.6484 18.9266 17.6475 18.9265 17.6465C18.9261 17.6291 18.9219 17.6126 18.9194 17.5952C18.9144 17.5584 18.9049 17.5234 18.8908 17.4897C18.8875 17.482 18.8882 17.4738 18.8844 17.4661C18.8825 17.4623 18.8788 17.4602 18.8769 17.4565C18.8531 17.411 18.8215 17.3707 18.7827 17.3361C18.7798 17.3335 18.7764 17.3315 18.7735 17.329C18.7547 17.3132 18.7366 17.2963 18.7149 17.2837L10.9236 12.75L14.2836 11.07L22.3999 15.5338V18.067C22.4001 18.0756 22.3992 18.0836 22.3999 18.0922V23.5514L18.9816 25.2603Z" fill="white"/>
<path d="M25.3865 12.7291C25.3894 12.5703 25.3037 12.4232 25.164 12.347L20.4707 9.78697C20.3486 9.72031 20.2003 9.71785 20.0757 9.77993L18.369 10.6333C18.1582 10.7387 18.0728 10.995 18.1782 11.2057C18.284 11.4166 18.5403 11.5012 18.7507 11.3966L20.2578 10.6429L24.0386 12.7054L22.6353 13.407C22.4244 13.5124 22.3391 13.7687 22.4445 13.9795C22.5194 14.1291 22.6698 14.2153 22.8265 14.2153C22.8907 14.2153 22.9557 14.2007 23.0169 14.1703L25.1507 13.1032C25.2928 13.032 25.3837 12.8878 25.3865 12.7291Z" fill="white"/>
<path d="M15.1016 17.4378C14.9958 17.2269 14.7395 17.1423 14.5291 17.2469L13.022 18.0006L9.24121 15.9381L10.6445 15.2365C10.8554 15.1311 10.9407 14.8748 10.8353 14.664C10.73 14.4532 10.4732 14.3682 10.2629 14.4732L8.1291 15.5403C7.98702 15.6115 7.89614 15.7557 7.89326 15.9144C7.89038 16.0732 7.97614 16.2203 8.11577 16.2965L12.8091 18.8565C12.8725 18.8911 12.9429 18.9086 13.0133 18.9086C13.0787 18.9086 13.1441 18.8935 13.2041 18.8636L14.9108 18.0102C15.1216 17.9048 15.2071 17.6486 15.1016 17.4378Z" fill="white"/>
<path d="M20.9066 12.8511C21.19 12.8511 21.4197 12.6976 21.4197 12.5082C21.4197 12.3189 21.19 12.1654 20.9066 12.1654C20.6233 12.1654 20.3936 12.3189 20.3936 12.5082C20.3936 12.6976 20.6233 12.8511 20.9066 12.8511Z" fill="white"/>
<path d="M12.3732 16.691C12.6565 16.691 12.8862 16.5375 12.8862 16.3482C12.8862 16.1589 12.6565 16.0054 12.3732 16.0054C12.0898 16.0054 11.8601 16.1589 11.8601 16.3482C11.8601 16.5375 12.0898 16.691 12.3732 16.691Z" fill="white"/>
<path d="M10.1041 7.05693L9.86541 8.44732C9.83789 8.60732 9.9037 8.76903 10.035 8.86439C10.1662 8.9606 10.3417 8.97319 10.4842 8.89692L11.7334 8.24071L12.9825 8.89692C13.0446 8.92988 13.113 8.9461 13.1808 8.9461C13.2691 8.9461 13.3575 8.91858 13.4317 8.86439C13.5629 8.76892 13.6288 8.60732 13.6013 8.44732L13.3626 7.05693L14.373 6.07197C14.4893 5.95869 14.5309 5.78909 14.481 5.63442C14.4305 5.48029 14.2972 5.36775 14.1364 5.34439L12.7406 5.14152L12.1161 3.87656C11.9727 3.58493 11.4944 3.58493 11.3511 3.87656L10.7265 5.14152L9.33069 5.34439C9.16984 5.36775 9.0365 5.48018 8.98616 5.63442C8.93613 5.78898 8.97784 5.95858 9.0941 6.07197L10.1041 7.05693ZM11.0707 5.95357C11.2099 5.93351 11.3299 5.84605 11.392 5.72018L11.7332 5.02898L12.0745 5.72018C12.1366 5.84605 12.2566 5.93351 12.3958 5.95357L13.1582 6.06439L12.6061 6.60274C12.5057 6.70066 12.4599 6.84189 12.4836 6.98023L12.6141 7.73938L11.9316 7.38108C11.8696 7.34812 11.8016 7.33191 11.7334 7.33191C11.6651 7.33191 11.5971 7.34812 11.5351 7.38108L10.8526 7.73938L10.9831 6.98023C11.0068 6.84189 10.961 6.70066 10.8606 6.60274L10.3085 6.06439L11.0707 5.95357Z" fill="white"/>
</svg>
