<svg width="32" height="32" viewBox="0 0 32 32" fill="none" xmlns="http://www.w3.org/2000/svg">
<path d="M20.6313 10.1767C17.5192 5.59829 13.3627 3.16488 11.186 4.65587C10.9463 4.82466 10.738 5.03413 10.5706 5.27477C10.5706 5.29235 5.53148 15.4902 5.53148 15.4902L2.71829 17.3961C2.28642 17.6893 1.91655 18.0646 1.6298 18.5008C1.34304 18.9369 1.14502 19.4253 1.04706 19.938C0.94909 20.4507 0.953093 20.9776 1.05884 21.4888C1.16458 21.9999 1.37 22.4852 1.66334 22.917L1.78994 23.1033C2.38289 23.9671 3.29247 24.5623 4.32138 24.7598C5.3503 24.9572 6.41559 24.7411 7.2862 24.1583L11.8049 30.815C12.4695 31.6343 13.746 32.4502 15.3214 31.4902C15.6005 31.3092 15.8385 31.0718 16.0202 30.7931C16.2019 30.5145 16.3232 30.2009 16.3763 29.8726C16.44 29.546 16.4382 29.21 16.3712 28.8841C16.3042 28.5581 16.1733 28.2487 15.986 27.9737L12.0053 22.1011C12.0053 22.1011 21.4154 21.3521 21.4506 21.3381C21.7444 21.2766 22.023 21.157 22.2699 20.9864C23.3882 20.2269 23.7891 18.6339 23.4023 16.4994C23.0541 14.5337 22.066 12.3077 20.6313 10.1767ZM2.81323 22.4106L2.68664 22.2242C2.48425 21.9263 2.3426 21.5913 2.26982 21.2385C2.19704 20.8857 2.19454 20.5221 2.26248 20.1683C2.33042 19.8146 2.46746 19.4777 2.66575 19.177C2.86404 18.8763 3.11969 18.6177 3.41807 18.4159L5.84796 16.7631L9.05499 21.4858L6.6251 23.1385C6.32707 23.3412 5.99202 23.4831 5.6391 23.5562C5.28619 23.6293 4.92233 23.6321 4.56832 23.5645C4.21431 23.4969 3.87709 23.3602 3.57594 23.1622C3.27479 22.9642 3.01562 22.7088 2.81323 22.4106ZM14.9732 28.6664C15.1654 28.9524 15.2363 29.3029 15.1704 29.6411C15.1045 29.9793 14.9071 30.2775 14.6216 30.4704C14.3351 30.6628 13.984 30.7338 13.6452 30.6679C13.3065 30.6019 13.0076 30.4045 12.8141 30.1187L8.3095 23.4831L10.1205 22.2524L10.5987 22.2137L14.9732 28.6664ZM10.2189 21.0075L6.72356 15.8594L10.0572 9.06202C10.3807 10.9715 11.3266 13.2396 12.8387 15.4655C14.3508 17.6915 16.1091 19.4075 17.7618 20.4132L10.2189 21.0075ZM20.5926 20.1882C18.9117 20.0792 16.1759 18.1838 13.8585 14.7693C11.5411 11.3548 10.7886 8.12312 11.3055 6.51609C11.3989 6.21444 11.5852 5.95001 11.8378 5.76055C12.0904 5.57109 12.3964 5.4663 12.7121 5.46114C14.379 5.46114 17.2168 7.36708 19.6009 10.88C20.9442 12.8563 21.9218 14.924 22.1891 16.7315C22.713 20.1882 20.5926 20.1882 20.5926 20.1882Z" fill="white"/>
<path d="M16.2356 10.3068C15.8049 10.2222 15.3616 10.2244 14.9317 10.3131C14.5018 10.4019 14.0939 10.5755 13.7319 10.8237C13.6651 10.8699 13.6082 10.9288 13.5642 10.997C13.5202 11.0652 13.4901 11.1414 13.4756 11.2212C13.461 11.3011 13.4624 11.383 13.4795 11.4623C13.4966 11.5416 13.5292 11.6168 13.5754 11.6835C13.6216 11.7502 13.6804 11.8072 13.7486 11.8512C13.8168 11.8952 13.893 11.9253 13.9729 11.9398C14.0527 11.9544 14.1346 11.953 14.2139 11.9359C14.2933 11.9188 14.3684 11.8862 14.4352 11.84C14.6644 11.6844 14.9221 11.5754 15.1935 11.5194C15.4649 11.4634 15.7447 11.4613 16.0168 11.5134C16.289 11.5655 16.5482 11.6707 16.7798 11.8229C17.0113 11.9752 17.2105 12.1716 17.3662 12.4009C17.5218 12.6302 17.6307 12.8878 17.6868 13.1592C17.7428 13.4306 17.7448 13.7104 17.6927 13.9825C17.6407 14.2547 17.5355 14.5139 17.3832 14.7455C17.2309 14.977 17.0346 15.1762 16.8053 15.3319C16.6972 15.4065 16.6158 15.5138 16.573 15.6381C16.5303 15.7623 16.5285 15.897 16.5678 16.0223C16.6071 16.1477 16.6854 16.2572 16.7915 16.3348C16.8975 16.4124 17.0255 16.454 17.1569 16.4536C17.2823 16.456 17.4052 16.4191 17.5086 16.3481C18.0555 15.9776 18.4802 15.4531 18.7288 14.841C18.9774 14.229 19.0387 13.5569 18.9051 12.9099C18.7714 12.263 18.4487 11.6702 17.9778 11.2068C17.507 10.7434 16.9092 10.4302 16.2602 10.3068H16.2356Z" fill="white"/>
<path d="M21.3908 5.89716H21.4506C21.6028 5.8971 21.7496 5.84063 21.8626 5.73867C21.9756 5.6367 22.0468 5.49648 22.0624 5.34508L22.5372 0.731449C22.548 0.649868 22.5423 0.566948 22.5205 0.487597C22.4987 0.408245 22.4612 0.334073 22.4102 0.269469C22.3592 0.204865 22.2958 0.151142 22.2237 0.111477C22.1516 0.0718127 22.0723 0.0470129 21.9904 0.038545C21.9086 0.030077 21.8259 0.0381131 21.7472 0.0621777C21.6685 0.0862423 21.5954 0.125847 21.5323 0.178647C21.4691 0.231448 21.4173 0.296373 21.3797 0.36958C21.3421 0.442788 21.3196 0.52279 21.3134 0.604855L20.8422 5.222C20.8255 5.38426 20.8739 5.54653 20.9768 5.67313C21.0796 5.79973 21.2286 5.88031 21.3908 5.89716Z" fill="white"/>
<path d="M29.3451 4.94767C29.2548 4.81147 29.1142 4.71654 28.9541 4.6836C28.794 4.65066 28.6274 4.68238 28.4906 4.77185L24.204 7.58503C24.0927 7.65853 24.0083 7.7662 23.9635 7.89183C23.9187 8.01747 23.9159 8.15425 23.9556 8.2816C23.9953 8.40895 24.0752 8.51996 24.1835 8.59791C24.2917 8.67587 24.4223 8.71655 24.5557 8.71383C24.6801 8.71669 24.8025 8.68241 24.9073 8.61536L29.1939 5.80218C29.3269 5.70861 29.4175 5.56622 29.4458 5.40611C29.4741 5.246 29.4379 5.08119 29.3451 4.94767Z" fill="white"/>
<path d="M30.6568 12.4589L25.6704 11.5622C25.5095 11.5333 25.3437 11.5695 25.2095 11.6628C25.0753 11.7561 24.9837 11.8989 24.9548 12.0598C24.9259 12.2207 24.9621 12.3864 25.0554 12.5206C25.1487 12.6548 25.2915 12.7465 25.4524 12.7754L30.4352 13.6721H30.5442C30.701 13.6767 30.8537 13.6212 30.9709 13.517C31.0882 13.4129 31.1613 13.2678 31.1752 13.1116C31.1891 12.9553 31.1428 12.7997 31.0458 12.6764C30.9488 12.5531 30.8084 12.4716 30.6532 12.4484L30.6568 12.4589Z" fill="white"/>
</svg>
