<svg width="37" height="38" viewBox="0 0 37 38" fill="none" xmlns="http://www.w3.org/2000/svg">
<g clip-path="url(#clip0)">
<path d="M26.2081 14.2515H10.7924C10.3669 14.2515 10.0216 14.6061 10.0216 15.0431V27.709C10.0216 29.6215 11.3474 31.219 13.1048 31.5879V35.6251C13.1048 36.9345 14.1422 38 15.4171 38C16.692 38 17.7295 36.9345 17.7295 35.6251V31.6671H19.271V35.6251C19.271 36.9345 20.3085 38 21.5833 38C22.8582 38 23.8957 36.9345 23.8957 35.6251V31.5879C25.6531 31.2206 26.9789 29.6215 26.9789 27.709V15.0431C26.9789 14.6046 26.6336 14.2515 26.2081 14.2515Z" fill="#A6BF4F"/>
<path d="M22.5345 4.21873L23.834 1.10449C24.002 0.702326 23.8202 0.23849 23.4286 0.0658686C23.0416 -0.108311 22.5838 0.0785592 22.4173 0.482282L21.1178 3.59808C20.293 3.32259 19.4144 3.16905 18.5017 3.16905C17.5891 3.16905 16.7104 3.32259 15.8856 3.59808L14.5831 0.482282C14.4166 0.0785592 13.9588 -0.10987 13.5718 0.0658686C13.1803 0.238416 12.9999 0.703885 13.168 1.10449L14.4675 4.21873C11.8207 5.69432 10.0217 8.57419 10.0217 11.8768C10.0217 12.3137 10.367 12.6684 10.7925 12.6684H26.2081C26.6336 12.6684 26.9789 12.3137 26.9789 11.8768C26.9788 8.57419 25.1798 5.69432 22.5345 4.21873ZM15.4171 9.50193C14.9916 9.50193 14.6463 9.14726 14.6463 8.71029C14.6463 8.27332 14.9916 7.91865 15.4171 7.91865C15.8426 7.91865 16.1879 8.27332 16.1879 8.71029C16.1879 9.14726 15.8426 9.50193 15.4171 9.50193ZM21.5834 9.50193C21.1579 9.50193 20.8126 9.14726 20.8126 8.71029C20.8126 8.27332 21.1579 7.91865 21.5834 7.91865C22.0089 7.91865 22.3542 8.27332 22.3542 8.71029C22.3542 9.14726 22.0089 9.50193 21.5834 9.50193Z" fill="#A6BF4F"/>
<path d="M30.8323 14.2515C29.5574 14.2515 28.52 15.317 28.52 16.6263V24.5425C28.52 25.8518 29.5574 26.9173 30.8323 26.9173C32.1072 26.9173 33.1447 25.8518 33.1447 24.5425V16.6263C33.1447 15.317 32.1072 14.2515 30.8323 14.2515Z" fill="#A6BF4F"/>
<path d="M6.16721 14.2515C4.89231 14.2515 3.85486 15.317 3.85486 16.6263V24.5425C3.85486 25.8518 4.89231 26.9173 6.16721 26.9173C7.4421 26.9173 8.47955 25.8518 8.47955 24.5425V16.6263C8.47955 15.317 7.4421 14.2515 6.16721 14.2515Z" fill="#A6BF4F"/>
</g>
<defs>
<clipPath id="clip0">
<rect width="37" height="38" fill="white"/>
</clipPath>
</defs>
</svg>
