<svg width="29" height="35" viewBox="0 0 29 35" fill="none" xmlns="http://www.w3.org/2000/svg">
<path d="M9.66412 34.9999C4.45507 34.9699 0.14624 24.3365 0.14624 18.9211C0.14624 10.0752 6.78223 8.13854 9.33969 8.13854C10.4922 8.13854 11.7229 8.59114 12.8084 8.99166C13.5674 9.27104 14.3525 9.55945 14.7891 9.55945C15.0504 9.55945 15.6663 9.31411 16.21 9.09885C17.3696 8.63722 18.8125 8.06348 20.4928 8.06348C20.4958 8.06348 20.4998 8.06348 20.5028 8.06348C21.7574 8.06348 25.5616 8.33883 27.8487 11.7735L28.3845 12.5785L27.6135 13.1604C26.512 13.9915 24.5022 15.5075 24.5022 18.5106C24.5022 22.0674 26.7783 23.4353 27.8718 24.0932C28.3545 24.3836 28.8541 24.683 28.8541 25.3379C28.8541 25.7655 25.4415 34.9469 20.4858 34.9469C19.2731 34.9469 18.416 34.5824 17.6599 34.261C16.8949 33.9355 16.235 33.6552 15.1445 33.6552C14.5917 33.6552 13.8928 33.9165 13.1528 34.1939C12.1415 34.5713 10.9969 34.9999 9.69816 34.9999H9.66412Z" fill="white"/>
<path d="M21.0175 0C21.1466 4.65363 17.8185 7.88211 14.4943 7.67963C13.9466 3.96587 17.8181 0 21.0175 0Z" fill="white"/>
</svg>
