<svg width="15" height="15" viewBox="0 0 15 15" fill="none" xmlns="http://www.w3.org/2000/svg">
<path d="M14.0786 14.2936H14.0723V5.61677C14.0723 5.60429 14.0723 5.5918 14.0702 5.57947C14.0702 5.57741 14.0702 5.5752 14.0702 5.57315C14.0681 5.56493 14.0681 5.55449 14.0661 5.54627C14.0661 5.54216 14.064 5.53584 14.062 5.53173C14.0599 5.52557 14.0599 5.5194 14.0579 5.51308C14.0558 5.50692 14.0536 5.50075 14.0516 5.49443C14.0495 5.49032 14.0495 5.48621 14.0474 5.4821C14.0454 5.47578 14.0413 5.46961 14.0392 5.46345C14.0372 5.45918 14.035 5.45507 14.0329 5.45096C14.0288 5.4448 14.0267 5.43847 14.0226 5.43436C14.0206 5.43025 14.0185 5.42614 14.0163 5.42203C14.0122 5.41777 14.0101 5.4116 14.006 5.40749C14.0019 5.40338 13.9999 5.39911 13.9956 5.395C13.9915 5.39089 13.9894 5.38678 13.9853 5.38267C13.9812 5.37841 13.9769 5.37224 13.9728 5.36813C13.9708 5.36402 13.9667 5.36181 13.9626 5.35976C13.9583 5.35565 13.9521 5.34948 13.948 5.34537C13.946 5.34316 13.9419 5.3411 13.9376 5.33699C13.9314 5.33288 13.9253 5.32877 13.9211 5.32466C13.9169 5.32245 13.9128 5.3204 13.9107 5.31834C13.9045 5.31423 13.8982 5.31012 13.8941 5.30807C13.888 5.30601 13.8838 5.30174 13.8775 5.29969C13.8734 5.29763 13.8672 5.29558 13.8631 5.29352C13.8548 5.28941 13.8465 5.28736 13.8382 5.28515C13.8361 5.28515 13.8341 5.28309 13.8299 5.28309C13.8195 5.27898 13.8072 5.27693 13.7967 5.27487H13.7947L12.0646 4.91227V1.34879C12.0646 1.3363 12.0646 1.32397 12.0626 1.31149C12.0626 1.30943 12.0626 1.30738 12.0605 1.30311C12.0585 1.29489 12.0585 1.28446 12.0564 1.27624C12.0544 1.27007 12.0544 1.26581 12.0523 1.2617C12.0503 1.25553 12.0503 1.24937 12.0482 1.2451C12.0461 1.23893 12.0439 1.23277 12.0419 1.22645C12.0398 1.22234 12.0398 1.21823 12.0378 1.21412C12.0357 1.20779 12.0316 1.20163 12.0296 1.19341C12.0275 1.1893 12.0253 1.18503 12.0232 1.18298C12.0191 1.17681 12.0171 1.17065 12.013 1.16433C12.0109 1.16022 12.0088 1.15611 12.0066 1.15405C12.0025 1.14978 12.0005 1.14362 11.9964 1.13951C11.9922 1.1354 11.9902 1.13129 11.9859 1.12702C11.9818 1.12291 11.9798 1.1188 11.9757 1.11469C11.9715 1.11042 11.9673 1.10631 11.9632 1.10015C11.9591 1.09604 11.957 1.09399 11.9529 1.09177C11.9486 1.08766 11.9425 1.0815 11.9383 1.07739C11.9342 1.07533 11.9322 1.07328 11.9279 1.06901C11.9218 1.0649 11.9176 1.06079 11.9115 1.05668C11.9072 1.05463 11.9031 1.05241 11.899 1.05036C11.8928 1.04625 11.8886 1.04419 11.8824 1.04008C11.8762 1.03803 11.8721 1.03376 11.8658 1.03171C11.8617 1.02965 11.8576 1.0276 11.8513 1.02554C11.843 1.02143 11.8326 1.01938 11.8244 1.01527C11.8223 1.01527 11.8203 1.01305 11.8182 1.01305C11.8057 1.00895 11.7932 1.00689 11.7809 1.00278L7.00537 0.00410974C6.99494 0.00205488 6.98467 0 6.97629 0C6.97423 0 6.97218 0 6.97013 0C6.96396 0 6.95764 0 6.95147 0C6.94531 0 6.93899 0 6.93488 0C6.93488 0 6.93488 0 6.93282 0C6.92666 0 6.92239 0 6.91622 0C6.91006 0 6.90374 0 6.89963 0C6.89141 0 6.88508 0.00205488 6.87686 0.00410974C6.87276 0.00410974 6.86865 0.00410974 6.86659 0.00616465H6.86438H6.86232L2.93213 0.774847C2.9217 0.776902 2.91348 0.778957 2.90305 0.781012C2.90099 0.781012 2.89894 0.781012 2.89688 0.783225C2.88866 0.78528 2.88028 0.789389 2.87207 0.791444C2.87001 0.791444 2.86796 0.793499 2.86369 0.793499C2.85752 0.795554 2.85136 0.799664 2.84725 0.801719C2.80157 0.824638 2.76221 0.853565 2.73123 0.890869C2.73123 0.892924 2.72901 0.892924 2.72901 0.894979C2.72696 0.899246 2.7249 0.901301 2.72079 0.905411C2.69803 0.936392 2.67938 0.971641 2.66689 1.00895C2.66689 1.011 2.66484 1.01305 2.66484 1.01305C2.66278 1.01732 2.66278 1.02143 2.66073 1.02554C2.65867 1.03171 2.65662 1.04008 2.65456 1.04625V1.05241C2.65235 1.06285 2.6503 1.07107 2.6503 1.0815V1.08561C2.6503 1.09604 2.64824 1.10631 2.64824 1.11675V3.85985L1.27874 4.1292C1.26847 4.13125 1.25804 4.13331 1.24776 4.13742C1.24571 4.13742 1.24571 4.13742 1.24365 4.13947C1.23322 4.14153 1.225 4.1458 1.21457 4.14991C1.21251 4.14991 1.21046 4.15196 1.2084 4.15196C1.20208 4.15402 1.19592 4.15813 1.18975 4.16018C1.14834 4.18089 1.11103 4.20997 1.07989 4.24317C1.07784 4.24522 1.07579 4.24933 1.07168 4.25139C1.06962 4.25344 1.06741 4.25755 1.06535 4.26182C1.03848 4.29691 1.01777 4.33832 1.00529 4.38195C1.00323 4.39017 1.00118 4.39633 0.999122 4.40471V4.40882C0.997067 4.41925 0.995013 4.42953 0.995013 4.43996V4.44201C0.992958 4.45229 0.992958 4.46478 0.992958 4.47521V14.2956H0.986635C0.791896 14.2956 0.63446 14.4531 0.63446 14.6478C0.63446 14.8425 0.791896 15 0.986635 15H14.0806C14.2754 15 14.4328 14.8425 14.4328 14.6478C14.4308 14.451 14.2733 14.2936 14.0786 14.2936ZM6.81474 4.52279C6.84162 4.53322 6.87276 4.53938 6.90168 4.54144L13.3679 5.89845V7.07526L5.2837 5.37841V4.20159L6.81474 4.52279ZM13.3679 8.90679L5.2837 7.20994V5.971L13.3679 7.66786V8.90679ZM13.3679 9.49939V10.7258L5.2837 9.04146V7.80253L13.3679 9.49939ZM5.2837 9.6339L13.3679 11.3205V12.5594L5.2837 10.875V9.6339ZM13.3679 13.152V14.2936H5.2837V11.4654L13.3679 13.152ZM7.28294 3.90127V0.781012L11.3582 1.63252V4.75689L7.28294 3.90127ZM3.34848 1.4068L6.57859 0.774847V3.7541L5.00392 3.42469C4.99981 3.42469 4.99365 3.42264 4.98938 3.42264C4.98527 3.42264 4.97911 3.42058 4.975 3.42058C4.96662 3.41853 4.9584 3.41853 4.95002 3.41853C4.94591 3.41853 4.9418 3.41853 4.93769 3.41853C4.92726 3.41853 4.91699 3.41853 4.90655 3.41853C4.9045 3.41853 4.90244 3.41853 4.90039 3.41853C4.8879 3.42058 4.87336 3.42058 4.86103 3.42469L3.34848 3.72107V1.4068ZM1.69525 4.76305L3.0129 4.50414C3.04815 4.50208 3.0834 4.49592 3.11438 4.48343L4.57919 4.19543V5.37635L2.20692 5.86747C2.04948 5.9005 1.95006 6.05383 1.9812 6.20921C2.01012 6.34594 2.13025 6.44125 2.26493 6.44125C2.28358 6.44125 2.30429 6.4392 2.32294 6.43509L4.57714 5.96895V7.20788L2.20486 7.69884C2.04743 7.73203 1.948 7.88536 1.97914 8.04074C2.00807 8.17747 2.1282 8.27278 2.26287 8.27278C2.28152 8.27278 2.30223 8.27073 2.32088 8.26662L4.57509 7.80048V9.04146L2.20281 9.53242C2.04537 9.56562 1.94595 9.71894 1.97709 9.87432C2.00601 10.0111 2.12614 10.1064 2.26082 10.1064C2.27947 10.1064 2.30018 10.1043 2.31883 10.1002L4.57303 9.6339V10.873L2.20075 11.364C2.04332 11.3971 1.94389 11.5505 1.97487 11.7059C2.00396 11.8426 2.12409 11.9379 2.25876 11.9379C2.27741 11.9379 2.29812 11.9358 2.31677 11.9316L4.57919 11.4654V14.2936H1.69525V4.76305Z" fill="white"/>
<path d="M10.6273 2.74112L8.14106 2.22929C7.98363 2.19626 7.8303 2.29774 7.79932 2.45517C7.76613 2.61261 7.86761 2.76593 8.02504 2.79707L10.5113 3.30874C10.532 3.31285 10.5506 3.31506 10.5693 3.31506C10.704 3.31506 10.8241 3.21975 10.8532 3.08302C10.8862 2.92748 10.7847 2.77431 10.6273 2.74112Z" fill="white"/>
</svg>
