<svg width="40" height="40" viewBox="0 0 40 40" fill="none" xmlns="http://www.w3.org/2000/svg">
<g opacity="1" clip-path="url(#clip0)">
<path d="M38.7325 17.2793H1.26739C0.567321 17.2793 0 17.8466 0 18.5467V32.0925C0 32.7923 0.567321 33.3596 1.26739 33.3596C1.89941 33.3596 2.4121 33.8723 2.4121 34.5046V37.1868C2.4121 37.6287 2.94677 37.8502 3.25927 37.5374L6.92778 33.8692C7.25401 33.543 7.69652 33.3596 8.15764 33.3596H38.7328C39.4326 33.3596 39.9999 32.7923 39.9999 32.0922V18.5464C39.9999 17.8466 39.4326 17.2793 38.7325 17.2793Z" fill="url(#paint0_linear)"/>
<path d="M39.9999 30.9701V18.5467C39.9999 17.8466 39.4326 17.2793 38.7325 17.2793H26.0049L39.1516 30.426C39.443 30.6201 39.7274 30.8019 39.9999 30.9701Z" fill="url(#paint1_linear)"/>
<path d="M3.51746 19.7419H36.4825V21.2492H3.51746V19.7419Z" fill="url(#paint2_linear)"/>
<path d="M36.4825 26.1396H3.51746V24.6321H36.4825V26.1396Z" fill="url(#paint3_linear)"/>
<path d="M3.51746 29.5227H26.0233V31.0303H3.51746V29.5227Z" fill="url(#paint4_linear)"/>
<path d="M1.2674 2.34375H17.0242C17.7243 2.34375 18.2916 2.91107 18.2916 3.61114V9.68048C18.2916 10.3806 17.7243 10.9479 17.0242 10.9479C16.3919 10.9479 15.8795 11.4603 15.8795 12.0926V14.7748C15.8795 15.2167 15.3448 15.4382 15.0323 15.1257L11.3638 11.4572C11.0376 11.131 10.5951 10.9476 10.1337 10.9476H1.2674C0.567322 10.9476 0 10.3802 0 9.68048V3.61114C0 2.91107 0.567322 2.34375 1.2674 2.34375Z" fill="url(#paint5_linear)"/>
<path d="M14.502 6.52551C14.502 7.1731 13.9771 7.698 13.3295 7.698C12.6819 7.698 12.157 7.1731 12.157 6.52551C12.157 5.87793 12.6819 5.35303 13.3295 5.35303C13.9771 5.35303 14.502 5.87793 14.502 6.52551Z" fill="white"/>
<path d="M10.3183 6.52551C10.3183 7.1731 9.7934 7.698 9.14581 7.698C8.49823 7.698 7.97333 7.1731 7.97333 6.52551C7.97333 5.87793 8.49823 5.35303 9.14581 5.35303C9.7934 5.35303 10.3183 5.87793 10.3183 6.52551Z" fill="white"/>
<path d="M6.13464 6.52551C6.13464 7.1731 5.60974 7.698 4.96216 7.698C4.31458 7.698 3.78937 7.1731 3.78937 6.52551C3.78937 5.87793 4.31458 5.35303 4.96216 5.35303C5.60974 5.35303 6.13464 5.87793 6.13464 6.52551Z" fill="white"/>
<path d="M35.0803 2.35036C32.1259 2.20631 29.6787 4.52687 29.6161 7.43458C29.6158 7.44099 29.6137 7.44099 29.6137 7.43458C29.5508 4.52687 27.1039 2.20631 24.1495 2.35036C20.9048 2.50844 18.7512 5.68196 19.321 8.8802C20.2792 14.2592 26.8991 17.9625 28.9862 19.0068C29.3823 19.2052 29.8474 19.2052 30.2435 19.0068C32.3306 17.9625 38.9505 14.2592 39.9088 8.8802C40.4785 5.68196 38.3249 2.50844 35.0803 2.35036Z" fill="url(#paint6_linear)"/>
</g>
<defs>
<linearGradient id="paint0_linear" x1="16.3569" y1="11.2745" x2="23.9951" y2="40.7217" gradientUnits="userSpaceOnUse">
<stop stop-color="#FFFCF8"/>
<stop offset="0.1875" stop-color="#FAF8F6"/>
<stop offset="0.4041" stop-color="#ECEEF2"/>
<stop offset="0.6353" stop-color="#D5DCEA"/>
<stop offset="0.875" stop-color="#B5C4DF"/>
<stop offset="1" stop-color="#A1B5D8"/>
</linearGradient>
<linearGradient id="paint1_linear" x1="35.4018" y1="23.7665" x2="29.9485" y2="10.1828" gradientUnits="userSpaceOnUse">
<stop stop-color="#A1B5D8" stop-opacity="0"/>
<stop offset="0.6299" stop-color="#8393A8" stop-opacity="0.631373"/>
<stop offset="1" stop-color="#748290"/>
</linearGradient>
<linearGradient id="paint2_linear" x1="3.51759" y1="20.4956" x2="36.4824" y2="20.4956" gradientUnits="userSpaceOnUse">
<stop stop-color="#445EA0"/>
<stop offset="0.3216" stop-color="#415A9B"/>
<stop offset="0.6926" stop-color="#364D8D"/>
<stop offset="1" stop-color="#2A3D7C"/>
</linearGradient>
<linearGradient id="paint3_linear" x1="3.51759" y1="25.3859" x2="36.4824" y2="25.3859" gradientUnits="userSpaceOnUse">
<stop stop-color="#445EA0"/>
<stop offset="0.3216" stop-color="#415A9B"/>
<stop offset="0.6926" stop-color="#364D8D"/>
<stop offset="1" stop-color="#2A3D7C"/>
</linearGradient>
<linearGradient id="paint4_linear" x1="3.51759" y1="30.2765" x2="26.0234" y2="30.2765" gradientUnits="userSpaceOnUse">
<stop stop-color="#445EA0"/>
<stop offset="0.3216" stop-color="#415A9B"/>
<stop offset="0.6926" stop-color="#364D8D"/>
<stop offset="1" stop-color="#2A3D7C"/>
</linearGradient>
<linearGradient id="paint5_linear" x1="9.33348" y1="5.54271" x2="8.1275" y2="12.6278" gradientUnits="userSpaceOnUse">
<stop stop-color="#00E7B2"/>
<stop offset="0.2459" stop-color="#05E5B1"/>
<stop offset="0.5301" stop-color="#13DDAC"/>
<stop offset="0.8322" stop-color="#2AD1A5"/>
<stop offset="1" stop-color="#3AC9A0"/>
</linearGradient>
<linearGradient id="paint6_linear" x1="25.0731" y1="3.76426" x2="35.1887" y2="13.8799" gradientUnits="userSpaceOnUse">
<stop stop-color="#FF4974"/>
<stop offset="0.3262" stop-color="#FE4672"/>
<stop offset="0.5324" stop-color="#FB3E6C"/>
<stop offset="0.7054" stop-color="#F52F60"/>
<stop offset="0.8591" stop-color="#EE1A51"/>
<stop offset="1" stop-color="#E4003D"/>
</linearGradient>
<clipPath id="clip0">
<rect width="40" height="40" fill="white"/>
</clipPath>
</defs>
</svg>
