<svg width="36" height="40" viewBox="0 0 36 40" fill="none" xmlns="http://www.w3.org/2000/svg">
<path d="M22.6213 40H8.03082C5.58533 40 3.48478 38.5964 2.54893 36.3371C1.61301 34.0778 2.10595 31.6 3.83513 29.8709C3.84062 29.8653 3.84627 29.8598 3.85184 29.8544L14.3403 19.7189C14.8854 19.1919 15.7543 19.207 16.2811 19.752C16.8079 20.2971 16.793 21.1661 16.2479 21.6928L5.7687 31.8194C4.66564 32.9289 4.69184 34.3372 5.08509 35.2865C5.47913 36.2381 6.45999 37.2549 8.03082 37.2549H22.6213C23.343 37.2549 23.6269 36.7048 23.6967 36.5363C23.7666 36.3677 23.9547 35.7781 23.4444 35.2677L22.1667 33.9901C21.6307 33.4541 21.6307 32.5851 22.1667 32.0491C22.7027 31.5131 23.5718 31.5131 24.1078 32.0491L25.3854 33.3267C26.5246 34.4659 26.8494 36.0983 26.2329 37.5868C25.6162 39.0753 24.2324 40 22.6213 40Z" fill="url(#paint0_linear)"/>
<path d="M24.1078 32.049C23.5718 31.513 22.7028 31.513 22.1668 32.049C21.6307 32.585 21.6307 33.454 22.1668 33.99L23.4444 35.2676C23.9547 35.778 23.7665 36.3676 23.6967 36.5362C23.6269 36.7047 23.343 37.2548 22.6213 37.2548H18.7451V39.9999H22.6213C24.2324 39.9999 25.6163 39.0752 26.2329 37.5867C26.8494 36.0982 26.5247 34.4658 25.3854 33.3266L24.1078 32.049Z" fill="url(#paint1_linear)"/>
<path d="M9.51709 24.3798L11.4584 26.3211L16.2479 21.6928C16.793 21.1661 16.8079 20.2971 16.2811 19.752C15.7543 19.207 14.8854 19.1919 14.3403 19.7189L9.51709 24.3798Z" fill="url(#paint2_linear)"/>
<path d="M5.29413 35.7254L5.30299 35.7165C5.21719 35.5742 5.1444 35.4296 5.08511 35.2866C4.69177 34.3372 4.66558 32.9289 5.76872 31.8194L10.2419 27.4968L8.30056 25.5554L3.85193 29.8544C3.84636 29.8598 3.84072 29.8653 3.83523 29.8709C3.03021 30.6759 2.4935 31.6432 2.24377 32.6751L5.29413 35.7254Z" fill="url(#paint3_linear)"/>
<path d="M23.7675 25.2177C22.6938 24.4446 21.1993 24.67 20.4014 25.7254C18.8007 27.8424 15.7857 28.2667 13.6699 26.6646C12.928 26.1029 9.78339 22.9582 9.22167 22.2163C7.61955 20.1005 8.04394 17.0855 10.1609 15.4849C11.2163 14.6869 11.4417 13.1924 10.6686 12.1188L6.92339 6.91711C6.01327 5.65311 4.167 5.55679 3.12943 6.71836C3.10606 6.74448 3.08284 6.77052 3.05978 6.79648C0.319705 9.8775 -0.678256 14.1446 0.466842 18.1055C0.863155 19.4763 1.40872 20.7881 2.01539 21.9969C4.5881 27.1233 8.76276 31.298 13.8893 33.8707C15.0981 34.4774 16.4098 35.023 17.7806 35.4193C21.7417 36.5645 26.0086 35.5664 29.0897 32.8264C29.1156 32.8033 29.1417 32.7801 29.1678 32.7567C30.3294 31.7192 30.233 29.8729 28.969 28.9628L23.7675 25.2177Z" fill="url(#paint4_linear)"/>
<path d="M20.4014 25.7253C18.8008 27.8423 15.7858 28.2667 13.6699 26.6645C13.4529 26.5002 13.0295 26.114 12.5259 25.6322H4.22046C6.72203 29.0991 10.0369 31.9373 13.8893 33.8707C15.0981 34.4773 16.4099 35.0229 17.7807 35.4192C21.7416 36.5644 26.0087 35.5664 29.0897 32.8263C29.1157 32.8032 29.1417 32.78 29.1678 32.7566C30.3294 31.7191 30.233 29.8728 28.9691 28.9627L24.3431 25.6321H20.4754C20.4503 25.6625 20.4255 25.6935 20.4014 25.7253Z" fill="url(#paint5_linear)"/>
<path d="M28.9692 28.9629L23.7676 25.2178C22.6938 24.4447 21.1994 24.6701 20.4015 25.7255C19.3544 27.1103 17.702 27.7705 16.092 27.6132L24.0006 35.5218C25.86 35.0535 27.6116 34.1412 29.0898 32.8265C29.1158 32.8034 29.1418 32.7802 29.168 32.7568C30.3295 31.7193 30.2331 29.8729 28.9692 28.9629Z" fill="url(#paint6_linear)"/>
<path d="M8.27313 19.7943C8.11587 18.1843 8.77603 16.5319 10.1609 15.4849C11.2163 14.6869 11.4417 13.1924 10.6686 12.1188L6.9234 6.91711C6.01329 5.65311 4.16693 5.55679 3.12944 6.71836C3.10607 6.74448 3.08286 6.77052 3.0598 6.79648C1.74513 8.27468 0.832816 10.0263 0.364502 11.8857L8.27313 19.7943Z" fill="url(#paint7_linear)"/>
<path d="M12.6237 14.7248L11.4388 15.5505C10.4523 16.2379 9.09521 15.9955 8.40776 15.009L3.77576 8.36183C3.08831 7.37532 3.33074 6.01823 4.31725 5.33078L5.50211 4.50513C6.48862 3.81768 7.84572 4.06011 8.53317 5.04662L13.1653 11.6938C13.8527 12.6803 13.6102 14.0374 12.6237 14.7248Z" fill="url(#paint8_linear)"/>
<path d="M4.97129 4.875L4.31725 5.33077C3.33074 6.01822 3.08831 7.37524 3.77576 8.36182L8.40784 15.009C9.09529 15.9955 10.4524 16.2379 11.4389 15.5505L11.9943 15.1634L4.97129 4.875Z" fill="url(#paint9_linear)"/>
<path d="M21.3892 23.4905L20.5636 24.6753C19.8761 25.6618 20.1186 27.0189 21.1051 27.7064L27.7522 32.3385C28.7387 33.0259 30.0958 32.7835 30.7833 31.797L31.6089 30.6121C32.2964 29.6256 32.054 28.2685 31.0674 27.5811L24.4203 22.949C23.4338 22.2615 22.0768 22.504 21.3892 23.4905Z" fill="url(#paint10_linear)"/>
<path d="M30.7833 31.7969L31.4603 30.8253L21.1004 23.905L20.5636 24.6753C19.8761 25.6618 20.1186 27.0189 21.1051 27.7064L27.7522 32.3384C28.7387 33.0259 30.0958 32.7835 30.7833 31.7969Z" fill="url(#paint11_linear)"/>
<path d="M32.7622 19.1344C32.422 18.7942 32.2103 18.3253 32.2067 17.8062C32.1811 14.0744 30.7135 10.5658 28.0741 7.9264C25.4347 5.28703 21.9261 3.81942 18.1943 3.79377C17.1468 3.78656 16.3033 2.93142 16.3105 1.88389C16.3177 0.83628 17.1727 -0.00709229 18.2204 4.49683e-05C22.9556 0.032594 27.4078 1.89487 30.7567 5.24381C34.1056 8.59275 35.9679 13.0449 36.0004 17.7801C36.0076 18.8277 35.1642 19.6828 34.1166 19.69C33.5881 19.6936 33.1086 19.4808 32.7622 19.1344Z" fill="url(#paint12_linear)"/>
<path d="M16.8656 9.31717C16.5173 8.96893 16.3042 8.48635 16.3101 7.95505C16.3215 6.90744 17.18 6.06752 18.2276 6.07897C21.3361 6.11301 24.2591 7.34274 26.4582 9.54188C28.6573 11.741 29.8871 14.6641 29.9211 17.7725C29.9326 18.8201 29.0926 19.6786 28.045 19.69C26.9974 19.7014 26.1389 18.8615 26.1275 17.814C26.1044 15.7031 25.2692 13.7182 23.7755 12.2245C22.282 10.731 20.2969 9.89568 18.1861 9.87262C17.6698 9.86689 17.2039 9.65552 16.8656 9.31717Z" fill="url(#paint13_linear)"/>
<path d="M20.8453 19.1344C20.5142 18.8032 20.3043 18.3497 20.2906 17.8447C20.2754 17.2814 20.0472 16.7513 19.648 16.3522C19.2488 15.9531 18.7188 15.7248 18.1555 15.7096C17.1081 15.6812 16.2822 14.8093 16.3107 13.7621C16.339 12.7149 17.211 11.8889 18.2582 11.9172C19.7959 11.9589 21.2423 12.5812 22.3306 13.6696C23.419 14.758 24.0414 16.2043 24.083 17.742C24.1114 18.7893 23.2854 19.6612 22.2382 19.6895C21.696 19.7041 21.2008 19.4898 20.8453 19.1344Z" fill="url(#paint14_linear)"/>
<defs>
<linearGradient id="paint0_linear" x1="12.7163" y1="31.6758" x2="22.1576" y2="41.1171" gradientUnits="userSpaceOnUse">
<stop stop-color="#5A5A5A"/>
<stop offset="1" stop-color="#464646"/>
</linearGradient>
<linearGradient id="paint1_linear" x1="20.7548" y1="38.4802" x2="24.3269" y2="34.9081" gradientUnits="userSpaceOnUse">
<stop stop-color="#464646" stop-opacity="0"/>
<stop offset="1" stop-color="#202020"/>
</linearGradient>
<linearGradient id="paint2_linear" x1="13.9007" y1="22.0183" x2="11.4149" y2="24.504" gradientUnits="userSpaceOnUse">
<stop stop-color="#464646" stop-opacity="0"/>
<stop offset="1" stop-color="#202020"/>
</linearGradient>
<linearGradient id="paint3_linear" x1="4.97554" y1="32.3872" x2="7.37138" y2="29.9913" gradientUnits="userSpaceOnUse">
<stop stop-color="#464646" stop-opacity="0"/>
<stop offset="1" stop-color="#202020"/>
</linearGradient>
<linearGradient id="paint4_linear" x1="14.9908" y1="10.3559" x2="14.9908" y2="31.3007" gradientUnits="userSpaceOnUse">
<stop stop-color="#BCE097"/>
<stop offset="1" stop-color="#7DC03A"/>
</linearGradient>
<linearGradient id="paint5_linear" x1="16.8381" y1="29.4054" x2="15.086" y2="35.7569" gradientUnits="userSpaceOnUse">
<stop stop-color="#8CC951" stop-opacity="0"/>
<stop offset="1" stop-color="#3E6E66"/>
</linearGradient>
<linearGradient id="paint6_linear" x1="21.2558" y1="31.6314" x2="24.5437" y2="28.1844" gradientUnits="userSpaceOnUse">
<stop stop-color="#8CC951" stop-opacity="0"/>
<stop offset="1" stop-color="#3E6E66"/>
</linearGradient>
<linearGradient id="paint7_linear" x1="4.45321" y1="13.9556" x2="7.95995" y2="11.8165" gradientUnits="userSpaceOnUse">
<stop stop-color="#8CC951" stop-opacity="0"/>
<stop offset="1" stop-color="#3E6E66"/>
</linearGradient>
<linearGradient id="paint8_linear" x1="4.07066" y1="5.62795" x2="12.5287" y2="14.086" gradientUnits="userSpaceOnUse">
<stop stop-color="#BCE097"/>
<stop offset="1" stop-color="#7DC03A"/>
</linearGradient>
<linearGradient id="paint9_linear" x1="8.01066" y1="10.358" x2="5.00572" y2="12.6952" gradientUnits="userSpaceOnUse">
<stop stop-color="#8CC951" stop-opacity="0"/>
<stop offset="1" stop-color="#3E6E66"/>
</linearGradient>
<linearGradient id="paint10_linear" x1="21.7484" y1="23.3058" x2="30.5481" y2="32.1054" gradientUnits="userSpaceOnUse">
<stop stop-color="#BCE097"/>
<stop offset="1" stop-color="#7DC03A"/>
</linearGradient>
<linearGradient id="paint11_linear" x1="25.925" y1="27.8748" x2="23.6664" y2="30.8315" gradientUnits="userSpaceOnUse">
<stop stop-color="#8CC951" stop-opacity="0"/>
<stop offset="1" stop-color="#3E6E66"/>
</linearGradient>
<linearGradient id="paint12_linear" x1="27.2354" y1="3.09523" x2="25.5457" y2="13.6359" gradientUnits="userSpaceOnUse">
<stop stop-color="#EEF4FF"/>
<stop offset="1" stop-color="#CFE7FD"/>
</linearGradient>
<linearGradient id="paint13_linear" x1="24.747" y1="2.69645" x2="23.0573" y2="13.2371" gradientUnits="userSpaceOnUse">
<stop stop-color="#EEF4FF"/>
<stop offset="1" stop-color="#CFE7FD"/>
</linearGradient>
<linearGradient id="paint14_linear" x1="22.358" y1="2.31355" x2="20.6683" y2="12.8542" gradientUnits="userSpaceOnUse">
<stop stop-color="#EEF4FF"/>
<stop offset="1" stop-color="#CFE7FD"/>
</linearGradient>
</defs>
</svg>
