<svg width="38" height="38" viewBox="0 0 38 38" fill="none" xmlns="http://www.w3.org/2000/svg">
<g clip-path="url(#clip0)">
<path d="M18.0171 0.478803L0.026001 15.0162V17.7254H19H37.9739V15.0162L19.9828 0.478803C19.4095 0.0155293 18.5904 0.0155293 18.0171 0.478803Z" fill="#FF9102"/>
<path d="M34.8464 32.7505H3.15363C2.29002 32.7505 1.58984 32.0503 1.58984 31.1867V1.56379C1.58984 0.70018 2.28995 0 3.15363 0H34.8464C35.71 0 36.4102 0.70018 36.4102 1.56379V31.1868C36.4102 32.0505 35.7101 32.7505 34.8464 32.7505Z" fill="url(#paint0_linear)"/>
<path d="M36.4102 30.3157V30.9244C36.4102 31.9325 35.592 32.7506 34.584 32.7506H3.41619C2.40808 32.7506 1.58997 31.9324 1.58997 30.9244V30.3157H36.4102Z" fill="url(#paint1_linear)"/>
<path d="M29.0605 4.9519H8.93945V6.09873H29.0605V4.9519Z" fill="#C2CECE"/>
<path d="M29.0605 9.53882H8.93945V10.6856H29.0605V9.53882Z" fill="#C2CECE"/>
<path d="M29.0605 14.2302H8.93945V15.3771H29.0605V14.2302Z" fill="#C2CECE"/>
<path d="M29.0605 18.9216H8.93945V20.0685H29.0605V18.9216Z" fill="#C2CECE"/>
<path d="M31.5625 15.4815C30.0025 15.4815 28.5731 14.9239 27.4616 13.9979L27.0275 14.0741L36.4102 23.4569V13.2634C35.2346 14.6213 33.4995 15.4815 31.5625 15.4815Z" fill="url(#paint2_linear)"/>
<path d="M37.9739 15.051V36.4364C37.9739 37.2996 37.2734 38.0001 36.4101 38.0001H1.58979C0.726552 38.0001 0.026001 37.2996 0.026001 36.4364V15.051L19.2085 30.1813L37.9739 15.051Z" fill="url(#paint3_linear)"/>
<path d="M37.763 37.2181L20.19 23.0493C19.6172 22.5874 18.7997 22.5874 18.2269 23.0493L0.385986 37.4341C0.672916 37.7797 1.10554 38 1.58981 38H36.4101C36.9886 38 37.4925 37.6851 37.763 37.2181Z" fill="url(#paint4_linear)"/>
<path d="M31.5622 16.0025C35.1032 16.0025 37.9737 13.132 37.9737 9.59098C37.9737 6.04999 35.1032 3.17944 31.5622 3.17944C28.0212 3.17944 25.1506 6.04999 25.1506 9.59098C25.1506 13.132 28.0212 16.0025 31.5622 16.0025Z" fill="url(#paint5_linear)"/>
<path d="M30.1166 7.02329C30.1166 6.81533 30.2006 6.65131 30.3685 6.5313L31.6166 5.33125C31.7046 5.2433 31.8126 5.19922 31.9407 5.19922C32.0846 5.19922 32.2146 5.23729 32.3306 5.31322C32.4465 5.38929 32.5046 5.49134 32.5046 5.61922V13.5634C32.5046 13.6915 32.4405 13.7935 32.3126 13.8695C32.1845 13.9455 32.0367 13.9835 31.8687 13.9835C31.6926 13.9835 31.5425 13.9455 31.4187 13.8695C31.2945 13.7935 31.2326 13.6915 31.2326 13.5634V6.89118L30.8126 7.41925C30.7326 7.49926 30.6446 7.53926 30.5486 7.53926C30.4286 7.53926 30.3266 7.4853 30.2425 7.37732C30.1586 7.26925 30.1166 7.15132 30.1166 7.02329Z" fill="white"/>
<path d="M2.07739 31.6743V2.05126C2.07739 1.18765 2.77757 0.487469 3.64118 0.487469H35.3339C35.6408 0.487469 35.9262 0.577199 36.1677 0.729941C35.8906 0.291828 35.4031 0 34.8464 0H3.15363C2.29002 0 1.58984 0.70018 1.58984 1.56379V31.1868C1.58984 31.7436 1.88167 32.2311 2.31986 32.5082C2.16712 32.2666 2.07739 31.9812 2.07739 31.6743Z" fill="url(#paint6_linear)"/>
</g>
<defs>
<linearGradient id="paint0_linear" x1="5.10714" y1="2.48081" x2="41.5732" y2="38.9476" gradientUnits="userSpaceOnUse">
<stop stop-color="white"/>
<stop offset="1" stop-color="#E8EFEE"/>
</linearGradient>
<linearGradient id="paint1_linear" x1="36.7144" y1="30.0363" x2="-0.0747181" y2="32.998" gradientUnits="userSpaceOnUse">
<stop stop-color="#C2CECE" stop-opacity="0"/>
<stop offset="0.179" stop-color="#AFBCBC" stop-opacity="0.179"/>
<stop offset="1" stop-color="#5B6A6A"/>
</linearGradient>
<linearGradient id="paint2_linear" x1="36.7892" y1="18.7373" x2="28.2381" y2="10.1862" gradientUnits="userSpaceOnUse">
<stop stop-color="#C2CECE" stop-opacity="0"/>
<stop offset="0.179" stop-color="#AFBCBC" stop-opacity="0.179"/>
<stop offset="1" stop-color="#5B6A6A"/>
</linearGradient>
<linearGradient id="paint3_linear" x1="19.0005" y1="22.3491" x2="19.0005" y2="36.4341" gradientUnits="userSpaceOnUse">
<stop stop-color="#FFC200"/>
<stop offset="0.268" stop-color="#FFBB00"/>
<stop offset="0.659" stop-color="#FFA801"/>
<stop offset="1" stop-color="#FF9102"/>
</linearGradient>
<linearGradient id="paint4_linear" x1="19.0751" y1="33.1001" x2="19.0751" y2="37.9864" gradientUnits="userSpaceOnUse">
<stop stop-color="#FFC200"/>
<stop offset="0.268" stop-color="#FFBB00"/>
<stop offset="0.659" stop-color="#FFA801"/>
<stop offset="1" stop-color="#FF9102"/>
</linearGradient>
<linearGradient id="paint5_linear" x1="28.8909" y1="3.22321" x2="34.2071" y2="15.8896" gradientUnits="userSpaceOnUse">
<stop stop-color="#D63305"/>
<stop offset="0.366" stop-color="#CF3004"/>
<stop offset="0.899" stop-color="#BC2602"/>
<stop offset="1" stop-color="#B72401"/>
</linearGradient>
<linearGradient id="paint6_linear" x1="10.161" y1="7.53519" x2="-16.5269" y2="-19.1519" gradientUnits="userSpaceOnUse">
<stop stop-color="#C2CECE" stop-opacity="0"/>
<stop offset="0.179" stop-color="#AFBCBC" stop-opacity="0.179"/>
<stop offset="1" stop-color="#5B6A6A"/>
</linearGradient>
<clipPath id="clip0">
<rect width="38" height="38" fill="white"/>
</clipPath>
</defs>
</svg>
