<svg width="15" height="15" viewBox="0 0 15 15" fill="none" xmlns="http://www.w3.org/2000/svg">
<g clip-path="url(#clip0)">
<path d="M14.8179 5.84994C14.6302 5.01393 14.2992 4.21667 13.8398 3.49342C13.2436 2.55288 12.4466 1.75594 11.5061 1.15975C10.7827 0.700463 9.98528 0.369842 9.14912 0.18252C8.06292 -0.0588869 6.93696 -0.0588869 5.85076 0.18252C5.0146 0.369912 4.21718 0.70057 3.49377 1.15986C2.55329 1.75578 1.75634 2.55244 1.1601 3.49272C0.700538 4.21626 0.369567 5.01384 0.181815 5.85018C-0.0606864 6.93661 -0.0606864 8.06315 0.181815 9.14959C0.368987 9.9863 0.699996 10.7842 1.1601 11.5076C1.75598 12.4474 2.55234 13.2438 3.49213 13.8397C4.2157 14.2999 5.01369 14.6309 5.85053 14.8181C6.9366 15.0606 8.06281 15.0606 9.14889 14.8181C9.98583 14.6311 10.784 14.3003 11.5078 13.8404C12.4476 13.2445 13.2439 12.4481 13.8398 11.5083C14.3001 10.7847 14.6312 9.98672 14.8184 9.14983C15.061 8.06332 15.061 6.93668 14.8184 5.85018L14.8179 5.84994ZM13.3593 8.54936V6.451L14.4595 6.15147C14.6338 7.04212 14.6338 7.95812 14.4595 8.84877L13.3593 8.54936ZM13.3751 3.53643L12.3854 4.10268L10.9013 2.61897L11.4681 1.62815C12.2191 2.13734 12.8662 2.78499 13.3748 3.53643H13.3751ZM7.49994 0.410684C7.95256 0.411445 8.40409 0.455236 8.84842 0.541465L8.54912 1.64115H6.45076L6.15146 0.541348C6.59581 0.45521 7.04733 0.411459 7.49994 0.410684ZM3.53619 1.62533L4.1015 2.61299L2.61779 4.09658L1.62885 3.5308C2.13776 2.78021 2.7851 2.13351 3.53619 1.62533ZM0.54076 8.84819C0.366619 7.95759 0.366619 7.04171 0.54076 6.15111L1.6415 6.45065V8.5483L0.54076 8.84819ZM1.62885 11.4696L2.61615 10.9046L4.09986 12.3883L3.53525 13.3747C2.78462 12.8664 2.13763 12.2198 1.62885 11.4696ZM6.15228 14.4595L6.45158 13.3587H8.54912L8.84853 14.4595C7.95753 14.6293 7.04247 14.6293 6.15146 14.4595H6.15228ZM11.4693 13.3716L10.9033 12.3822L12.3867 10.899L13.3748 11.4643C12.8665 12.2153 12.2198 12.8626 11.4693 13.3716ZM13.5964 11.1179L12.4547 10.4654C12.4157 10.4429 12.3703 10.434 12.3257 10.44C12.2811 10.4459 12.2396 10.4664 12.2078 10.4983L10.5025 12.203C10.4707 12.2348 10.4502 12.2762 10.4442 12.3208C10.4382 12.3654 10.4471 12.4108 10.4695 12.4498L11.1235 13.5931C10.54 13.9423 9.90873 14.2045 9.24955 14.3715L8.90361 13.0999C8.89183 13.0564 8.86607 13.0181 8.83032 12.9907C8.79457 12.9634 8.75081 12.9486 8.7058 12.9486H6.29408C6.24906 12.9486 6.20528 12.9634 6.16951 12.9907C6.13374 13.0181 6.10796 13.0564 6.09615 13.0999L5.75033 14.3715C5.09286 14.205 4.4631 13.9437 3.88084 13.5959L4.53334 12.4559C4.55571 12.4169 4.56459 12.3715 4.55862 12.3269C4.55264 12.2823 4.53215 12.2409 4.50029 12.2091L2.79498 10.5037C2.76317 10.4719 2.72177 10.4514 2.67716 10.4454C2.63255 10.4395 2.58722 10.4484 2.54818 10.4708L1.40713 11.1238C1.05796 10.5403 0.795788 9.90899 0.628885 9.24979L1.90037 8.90397C1.9438 8.89214 1.98212 8.86635 2.00944 8.83058C2.03676 8.79481 2.05156 8.75105 2.05154 8.70604V6.29432C2.05155 6.24932 2.03675 6.20558 2.00943 6.16983C1.98211 6.13408 1.94379 6.10831 1.90037 6.09651L0.629003 5.75068C0.796359 5.09157 1.05863 4.46028 1.4076 3.87662L2.55017 4.53041C2.58921 4.55283 2.63454 4.56176 2.67916 4.55581C2.72378 4.54985 2.76519 4.52935 2.79697 4.49748L4.50228 2.79217C4.53414 2.76038 4.55464 2.71898 4.56061 2.67437C4.56658 2.62976 4.5577 2.58443 4.53533 2.54537L3.88213 1.4042C4.46418 1.05712 5.09345 0.796204 5.75033 0.62959L6.09615 1.90014C6.10798 1.94356 6.13377 1.98189 6.16954 2.00921C6.20531 2.03653 6.24907 2.05132 6.29408 2.05131H8.7058C8.7508 2.05134 8.79455 2.03655 8.83031 2.00922C8.86606 1.9819 8.89182 1.94356 8.90361 1.90014L9.24955 0.62959C9.90812 0.796576 10.5389 1.05837 11.1222 1.40678L10.4675 2.55123C10.4451 2.59029 10.4362 2.63562 10.4422 2.68023C10.4482 2.72484 10.4687 2.76623 10.5005 2.79803L12.2058 4.50334C12.2377 4.53519 12.2791 4.55568 12.3237 4.56165C12.3683 4.56762 12.4137 4.55875 12.4528 4.53639L13.596 3.88248C13.9431 4.46446 14.2041 5.0936 14.3709 5.75033L13.1001 6.09639C13.0567 6.10819 13.0183 6.13395 12.991 6.1697C12.9636 6.20545 12.9488 6.2492 12.9488 6.2942V8.70592C12.9488 8.75094 12.9636 8.7947 12.991 8.83047C13.0183 8.86624 13.0567 8.89202 13.1001 8.90385L14.371 9.24967C14.2047 9.90665 13.9437 10.536 13.5964 11.1179Z" fill="white"/>
<path d="M7.49994 2.92969C6.59602 2.92969 5.7124 3.19773 4.96081 3.69992C4.20923 4.20212 3.62344 4.9159 3.27752 5.75102C2.93161 6.58613 2.8411 7.50507 3.01745 8.39162C3.19379 9.27818 3.62907 10.0925 4.26824 10.7317C4.90741 11.3709 5.72176 11.8061 6.60832 11.9825C7.49487 12.1588 8.41381 12.0683 9.24892 11.7224C10.084 11.3765 10.7978 10.7907 11.3 10.0391C11.8022 9.28755 12.0703 8.40392 12.0703 7.5C12.0689 6.2883 11.5869 5.12661 10.7301 4.26981C9.87333 3.413 8.71164 2.93105 7.49994 2.92969ZM7.49994 11.6602C6.67714 11.6602 5.87282 11.4162 5.18868 10.959C4.50455 10.5019 3.97133 9.85219 3.65646 9.09202C3.34159 8.33185 3.2592 7.49539 3.41972 6.68839C3.58024 5.8814 3.97646 5.14013 4.55827 4.55833C5.14007 3.97652 5.88134 3.5803 6.68833 3.41978C7.49533 3.25926 8.33179 3.34164 9.09196 3.65652C9.85213 3.97139 10.5019 4.50461 10.959 5.18874C11.4161 5.87288 11.6601 6.6772 11.6601 7.5C11.6589 8.60296 11.2202 9.66039 10.4402 10.4403C9.66033 11.2202 8.6029 11.6589 7.49994 11.6602Z" fill="white"/>
<path d="M7.64507 4.82128C7.62604 4.80223 7.60345 4.78711 7.57858 4.77679C7.5537 4.76648 7.52704 4.76117 7.50011 4.76117C7.47318 4.76117 7.44652 4.76648 7.42164 4.77679C7.39677 4.78711 7.37417 4.80223 7.35515 4.82128L5.61503 6.56128C5.4095 6.76658 5.27113 7.02942 5.21821 7.31506C5.1653 7.6007 5.20035 7.89567 5.31871 8.16096C5.43707 8.42625 5.63318 8.64936 5.88109 8.80079C6.129 8.95221 6.41704 9.02481 6.7071 9.00898C6.637 9.33352 6.5117 9.64361 6.33667 9.92574C6.31727 9.95678 6.30654 9.99245 6.30558 10.029C6.30463 10.0656 6.3135 10.1018 6.33126 10.1338C6.34902 10.1658 6.37503 10.1925 6.40659 10.2111C6.43814 10.2296 6.47409 10.2394 6.5107 10.2393H8.48952C8.52613 10.2394 8.56208 10.2296 8.59363 10.2111C8.62519 10.1925 8.6512 10.1658 8.66896 10.1338C8.68672 10.1018 8.69559 10.0656 8.69464 10.029C8.69368 9.99245 8.68295 9.95678 8.66355 9.92574C8.48858 9.64378 8.36328 9.3339 8.29312 9.00957C8.5833 9.02553 8.8715 8.95298 9.11954 8.80153C9.36759 8.65009 9.56379 8.42688 9.68218 8.16147C9.80057 7.89605 9.83557 7.60093 9.78254 7.31519C9.7295 7.02944 9.59094 6.76654 9.38519 6.56128L7.64507 4.82128ZM9.09527 8.30176C8.96683 8.42939 8.80701 8.5209 8.63192 8.56705C8.45683 8.6132 8.27266 8.61235 8.098 8.56461C8.06558 8.5557 8.03147 8.5549 7.99867 8.56228C7.96587 8.56967 7.9354 8.58501 7.90992 8.60695C7.88445 8.62889 7.86477 8.65676 7.8526 8.6881C7.84044 8.71944 7.83618 8.7533 7.84019 8.78668C7.88375 9.14828 7.9862 9.50032 8.14347 9.82883H6.85675C7.01412 9.50026 7.11665 9.14814 7.16027 8.78644C7.16424 8.75307 7.15996 8.71923 7.14779 8.6879C7.13562 8.65657 7.11594 8.62872 7.09047 8.60678C7.06501 8.58485 7.03454 8.56951 7.00175 8.56211C6.96897 8.55472 6.93487 8.55549 6.90245 8.56437C6.68429 8.62461 6.45231 8.61094 6.24273 8.52549C6.03315 8.44005 5.85775 8.28763 5.74389 8.09202C5.63003 7.89642 5.58411 7.66863 5.61331 7.44419C5.64252 7.21975 5.74518 7.01128 5.9053 6.85132L7.50011 5.25617L9.09527 6.85132C9.28724 7.04381 9.39505 7.30457 9.39505 7.57642C9.39505 7.84828 9.28724 8.10904 9.09527 8.30152V8.30176Z" fill="white"/>
</g>
<defs>
<clipPath id="clip0">
<rect width="15" height="15" fill="white"/>
</clipPath>
</defs>
</svg>
