<svg width="71" height="71" viewBox="0 0 71 71" fill="none" xmlns="http://www.w3.org/2000/svg">
<g clip-path="url(#clip0)" filter="url(#filter0_d)">
<path d="M51.3178 45.7164L49.1618 47.8725L34.6282 33.3389L36.7843 31.1829L51.3178 45.7164Z" fill="url(#paint0_linear)"/>
<path d="M43.0449 24.3224L27.768 39.5992L20.7017 32.5328L35.9785 17.2561L43.0449 24.3224Z" fill="url(#paint1_linear)"/>
<path d="M38.5478 37.2585L40.7039 35.1024L36.7843 31.1829L34.6282 33.3389L38.5478 37.2585Z" fill="url(#paint2_linear)"/>
<path d="M39.9412 30.0507L33.4964 36.4955C32.6 37.3919 31.1466 37.3919 30.2503 36.4955L23.8055 30.0507C22.9091 29.1543 22.9091 27.701 23.8055 26.8046L30.2503 20.3598C31.1467 19.4634 32.6001 19.4634 33.4964 20.3598L39.9412 26.8046C40.8376 27.7009 40.8376 29.1542 39.9412 30.0507Z" fill="url(#paint3_linear)"/>
<path d="M29.4303 40.5617L29.1827 40.8093C27.7879 42.2041 25.5265 42.2041 24.1316 40.8093L19.4917 36.1694C18.0969 34.7746 18.0969 32.5132 19.4917 31.1183L19.7393 30.8707C20.4012 30.2088 21.4744 30.2088 22.1362 30.8707L29.4303 38.1648C30.0922 38.8266 30.0922 39.8998 29.4303 40.5617Z" fill="url(#paint4_linear)"/>
<path d="M34.3163 16.2937L34.5639 16.0461C35.9587 14.6513 38.2201 14.6513 39.615 16.0461L44.2549 20.686C45.6497 22.0808 45.6497 24.3422 44.2549 25.7371L44.0073 25.9847C43.3453 26.6466 42.2721 26.6466 41.6103 25.9847L34.3162 18.6906C33.6544 18.0288 33.6544 16.9556 34.3163 16.2937Z" fill="url(#paint5_linear)"/>
<path d="M55.1419 50.8361L54.2816 51.6963C53.5048 52.4732 52.2454 52.4732 51.4686 51.6963L44.9386 45.1663C44.1617 44.3895 44.1617 43.1301 44.9386 42.3533L45.7989 41.493C46.5757 40.7162 47.8351 40.7162 48.6118 41.493L55.1419 48.0231C55.9187 48.7998 55.9187 50.0592 55.1419 50.8361Z" fill="url(#paint6_linear)"/>
<path d="M34.1492 51.5913V51.4557C34.1492 51.0557 34.4669 50.73 34.8638 50.717C34.8718 50.7167 34.8662 50.6978 34.8745 50.6978L34.8751 50.6925L34.8884 50.7074V49.0059H16.8129V50.7076L16.8184 50.705H16.8182C16.8719 50.6958 16.8289 50.7167 16.8368 50.717C17.2338 50.7297 17.5518 51.0555 17.5518 51.4557V51.5913C17.5518 51.9995 17.2209 52.3305 16.8127 52.3305C16.0955 52.3305 15.5142 52.9118 15.5142 53.629V55.2681C15.5142 55.6724 15.8418 56 16.246 56H35.455C35.8592 56 36.1868 55.6723 36.1868 55.2681V53.629C36.1868 52.9118 35.6054 52.3305 34.8883 52.3305C34.4801 52.3305 34.1492 51.9995 34.1492 51.5913Z" fill="url(#paint7_linear)"/>
<path d="M36.1869 55.2683V53.6768C36.1869 52.9638 35.6045 52.3276 34.8915 52.3305C34.4819 52.3321 34.1492 52.0006 34.1492 51.5913V51.4557C34.1492 51.0604 34.4595 50.7376 34.8497 50.7176C34.8712 50.7165 34.8883 50.6997 34.8883 50.6782V49.0059H16.8129V50.5144C16.8129 50.5144 17.0833 50.7399 17.1787 50.8111C17.1814 50.8131 17.1843 50.8169 17.1892 50.8196C17.2104 50.8317 17.2424 50.854 17.2424 50.854C17.3087 50.9014 17.3685 50.9616 17.4152 51.0274L22.3872 56.0001H35.455C35.8593 56.0001 36.1869 55.6724 36.1869 55.2683Z" fill="url(#paint8_linear)"/>
<path d="M34.0139 50.8711H17.6874C17.5173 50.8711 17.3514 50.8535 17.1912 50.82C16.0973 50.5912 15.2756 49.6213 15.2756 48.4592C15.2756 47.1272 16.3554 46.0474 17.6874 46.0474H34.0139C35.346 46.0474 36.4258 47.1272 36.4258 48.4592C36.4258 49.7913 35.346 50.8711 34.0139 50.8711Z" fill="url(#paint9_linear)"/>
</g>
<defs>
<filter id="filter0_d" x="0" y="0" width="71" height="71" filterUnits="userSpaceOnUse" color-interpolation-filters="sRGB">
<feFlood flood-opacity="0" result="BackgroundImageFix"/>
<feColorMatrix in="SourceAlpha" type="matrix" values="0 0 0 0 0 0 0 0 0 0 0 0 0 0 0 0 0 0 127 0" result="hardAlpha"/>
<feOffset/>
<feGaussianBlur stdDeviation="7.5"/>
<feColorMatrix type="matrix" values="0 0 0 0 1 0 0 0 0 0.823529 0 0 0 0 0 0 0 0 0.2 0"/>
<feBlend mode="normal" in2="BackgroundImageFix" result="effect1_dropShadow"/>
<feBlend mode="normal" in="SourceGraphic" in2="effect1_dropShadow" result="shape"/>
</filter>
<linearGradient id="paint0_linear" x1="41.1752" y1="41.325" x2="45.9729" y2="36.5281" gradientUnits="userSpaceOnUse">
<stop stop-color="#816965"/>
<stop offset="1" stop-color="#654E48"/>
</linearGradient>
<linearGradient id="paint1_linear" x1="27.8013" y1="24.3566" x2="41.1936" y2="37.7489" gradientUnits="userSpaceOnUse">
<stop stop-color="#FF931E"/>
<stop offset="1" stop-color="#FF5D00"/>
</linearGradient>
<linearGradient id="paint2_linear" x1="39.5503" y1="36.1059" x2="36.4987" y2="33.0543" gradientUnits="userSpaceOnUse">
<stop stop-color="#654E48" stop-opacity="0"/>
<stop offset="0.526" stop-color="#57403D" stop-opacity="0.526"/>
<stop offset="1" stop-color="#503837"/>
</linearGradient>
<linearGradient id="paint3_linear" x1="28.5393" y1="25.0946" x2="36.1466" y2="32.7019" gradientUnits="userSpaceOnUse">
<stop stop-color="#FFE569"/>
<stop offset="0.966" stop-color="#FFD200"/>
</linearGradient>
<linearGradient id="paint4_linear" x1="21.8115" y1="38.4903" x2="25.7832" y2="34.5177" gradientUnits="userSpaceOnUse">
<stop stop-color="#FFE7A5"/>
<stop offset="0.966" stop-color="#FFD201"/>
</linearGradient>
<linearGradient id="paint5_linear" x1="41.9344" y1="18.3668" x2="37.9628" y2="22.3384" gradientUnits="userSpaceOnUse">
<stop stop-color="#FFE7A5"/>
<stop offset="0.966" stop-color="#FFD201"/>
</linearGradient>
<linearGradient id="paint6_linear" x1="49.56" y1="47.0744" x2="51.819" y2="44.8154" gradientUnits="userSpaceOnUse">
<stop stop-color="#654E48"/>
<stop offset="1" stop-color="#503837"/>
</linearGradient>
<linearGradient id="paint7_linear" x1="25.8502" y1="50.4635" x2="25.8502" y2="61.235" gradientUnits="userSpaceOnUse">
<stop stop-color="#4975AD"/>
<stop offset="1" stop-color="#114F77"/>
</linearGradient>
<linearGradient id="paint8_linear" x1="26.4996" y1="55.2991" x2="26.4996" y2="50.2835" gradientUnits="userSpaceOnUse">
<stop stop-color="#4975AD" stop-opacity="0"/>
<stop offset="1" stop-color="#114F77"/>
</linearGradient>
<linearGradient id="paint9_linear" x1="25.8504" y1="47.0533" x2="25.8504" y2="54.4813" gradientUnits="userSpaceOnUse">
<stop stop-color="#7ECCFD"/>
<stop offset="1" stop-color="#3FA9F5"/>
</linearGradient>
<clipPath id="clip0">
<rect width="41" height="41" fill="white" transform="translate(15 15)"/>
</clipPath>
</defs>
</svg>
