<svg width="16" height="16" viewBox="0 0 16 16" fill="none" xmlns="http://www.w3.org/2000/svg">
<path d="M15 2.5H1C0.449 2.5 0 2.949 0 3.5V12.5C0 13.051 0.449 13.5 1 13.5H15C15.551 13.5 16 13.051 16 12.5V3.5C16 2.949 15.551 2.5 15 2.5ZM15 13V12.5H1V3.5H15V12.5C15 12.5 15 12.5 15.001 12.5L15 13Z" fill="white"/>
<path d="M5.5 9.5H2.5C2.224 9.5 2 9.724 2 10C2 10.276 2.224 10.5 2.5 10.5H5.5C5.776 10.5 6 10.276 6 10C6 9.724 5.776 9.5 5.5 9.5Z" fill="white"/>
<path d="M12 4.5C11.635 4.5 11.297 4.605 11.002 4.777C10.701 4.599 10.357 4.5 10 4.5C8.897 4.5 8 5.397 8 6.5C8 7.603 8.897 8.5 10 8.5C10.357 8.5 10.701 8.401 11.002 8.223C11.297 8.395 11.635 8.5 12 8.5C13.103 8.5 14 7.603 14 6.5C14 5.397 13.103 4.5 12 4.5ZM10.253 7.453C10.17 7.475 10.088 7.5 10 7.5C9.449 7.5 9 7.051 9 6.5C9 5.949 9.449 5.5 10 5.5C10.088 5.5 10.17 5.525 10.253 5.547C10.097 5.832 10 6.153 10 6.5C10 6.847 10.097 7.168 10.253 7.453ZM12 7.5C11.449 7.5 11 7.051 11 6.5C11 5.949 11.449 5.5 12 5.5C12.551 5.5 13 5.949 13 6.5C13 7.051 12.551 7.5 12 7.5Z" fill="white"/>
</svg>
