<svg width="15" height="15" viewBox="0 0 15 15" fill="none" xmlns="http://www.w3.org/2000/svg">
<path d="M7.5 11.3086C7.33828 11.3086 7.20703 11.4398 7.20703 11.6016C7.20703 11.7633 7.33828 11.8945 7.5 11.8945C7.66172 11.8945 7.79297 11.7633 7.79297 11.6016C7.79297 11.4398 7.66172 11.3086 7.5 11.3086Z" fill="white"/>
<path d="M13.7428 1.79795C13.0218 1.50759 12.0845 1.34766 11.1035 1.34766C10.1225 1.34766 9.18519 1.50759 8.46425 1.79795C8.03821 1.96954 7.71293 2.17925 7.5 2.41456C7.28707 2.17925 6.96179 1.96957 6.53575 1.79798C5.81481 1.50759 4.87749 1.34766 3.89648 1.34766C2.91548 1.34766 1.97815 1.50759 1.25722 1.79795C0.446484 2.12449 0 2.58885 0 3.10547V10.1367C0 10.6533 0.446484 11.1177 1.25722 11.4442C1.92773 11.7143 2.78549 11.8713 3.69141 11.892V11.8945C3.69141 12.8967 5.32875 13.6523 7.5 13.6523C9.67125 13.6523 11.3086 12.8967 11.3086 11.8945V11.892C12.2145 11.8713 13.0723 11.7143 13.7428 11.4442C14.5535 11.1177 15 10.6533 15 10.1367V3.10547C15 2.58885 14.5535 2.12449 13.7428 1.79795ZM14.4141 8.37891C14.4141 8.62901 14.073 8.92175 13.5239 9.14291C12.9296 9.38227 12.1317 9.52708 11.3086 9.54788V8.37891C11.3086 8.37806 11.3085 8.37721 11.3085 8.37639C12.2145 8.35573 13.0722 8.1987 13.7428 7.92861C14.006 7.82262 14.2305 7.70203 14.4141 7.5699L14.4141 8.37891ZM7.20703 4.86328C7.20703 5.11339 6.86593 5.40612 6.31685 5.62729C5.67328 5.8865 4.79109 6.03516 3.89648 6.03516C3.00187 6.03516 2.11969 5.8865 1.47612 5.62729C0.927041 5.40612 0.585938 5.11339 0.585938 4.86328V4.05428C0.769541 4.18641 0.994043 4.30699 1.25722 4.41299C1.97815 4.70335 2.91548 4.86328 3.89648 4.86328C4.87749 4.86328 5.81481 4.70335 6.53575 4.41299C6.79893 4.30699 7.02343 4.18641 7.20703 4.05428V4.86328ZM1.25722 6.1708C1.97815 6.46116 2.91548 6.62109 3.89648 6.62109C4.87749 6.62109 5.81481 6.46116 6.53575 6.1708C6.79893 6.06481 7.02343 5.94422 7.20703 5.81209V6.62628C6.44912 6.65194 5.72227 6.77634 5.13437 6.98338C4.54471 7.19106 4.1204 7.46801 3.88966 7.79288C2.99739 7.79212 2.11805 7.64364 1.47612 7.3851C0.927041 7.16394 0.585938 6.8712 0.585938 6.62109V5.81209C0.769541 5.94422 0.994043 6.06481 1.25722 6.1708ZM0.585938 7.5699C0.769541 7.70203 0.994043 7.82262 1.25722 7.92861C1.92776 8.19867 2.78555 8.3557 3.69149 8.37639C3.69149 8.37724 3.69144 8.37809 3.69144 8.37891V9.54788C2.86828 9.52708 2.07044 9.38227 1.47615 9.14291C0.927041 8.92175 0.585938 8.62901 0.585938 8.37891V7.5699ZM4.30834 8.23497C4.52546 7.72969 5.77863 7.20703 7.5 7.20703C9.22137 7.20703 10.4745 7.72969 10.6914 8.23438C10.7125 8.28363 10.7227 8.33089 10.7227 8.37891C10.7227 8.63648 10.4051 8.9226 9.87319 9.14423C9.24401 9.40641 8.4012 9.55078 7.5 9.55078C6.5988 9.55078 5.75599 9.40641 5.12681 9.14423C4.59489 8.9226 4.27734 8.63648 4.27734 8.37891C4.27734 8.33089 4.28757 8.28363 4.30834 8.23497ZM14.4141 6.62109C14.4141 6.8712 14.073 7.16394 13.5239 7.3851C12.882 7.64364 12.0027 7.79212 11.1104 7.79288C10.8799 7.46818 10.4555 7.19112 9.86563 6.98338C9.27773 6.77631 8.55088 6.65194 7.79297 6.62628V5.81209C7.97657 5.94422 8.20107 6.06481 8.46425 6.1708C9.18519 6.46116 10.1225 6.62109 11.1035 6.62109C12.0845 6.62109 13.0218 6.46116 13.7428 6.1708C14.006 6.06481 14.2305 5.94422 14.4141 5.81209V6.62109ZM14.4141 4.86328C14.4141 5.11339 14.073 5.40612 13.5239 5.62729C12.8803 5.8865 11.9981 6.03516 11.1035 6.03516C10.2089 6.03516 9.32672 5.8865 8.68316 5.62729C8.13407 5.40612 7.79297 5.11339 7.79297 4.86328V4.05428C7.97657 4.18641 8.20107 4.30699 8.46425 4.41299C9.18519 4.70335 10.1225 4.86328 11.1035 4.86328C12.0845 4.86328 13.0218 4.70335 13.7428 4.41299C14.006 4.30699 14.2305 4.18641 14.4141 4.05428V4.86328ZM8.68316 2.34146C9.32672 2.08225 10.2089 1.93359 11.1035 1.93359C11.9981 1.93359 12.8803 2.08225 13.5239 2.34146C14.073 2.56263 14.4141 2.85536 14.4141 3.10547C14.4141 3.35558 14.073 3.64831 13.5239 3.86947C12.8803 4.12869 11.9981 4.27734 11.1035 4.27734C10.2089 4.27734 9.32672 4.12869 8.68316 3.86947C8.13407 3.64831 7.79297 3.35558 7.79297 3.10547C7.79297 2.85536 8.13407 2.56263 8.68316 2.34146ZM1.47612 2.34146C2.11969 2.08225 3.00187 1.93359 3.89648 1.93359C4.79109 1.93359 5.67328 2.08225 6.31685 2.34146C6.86593 2.56263 7.20703 2.85536 7.20703 3.10547C7.20703 3.35558 6.86593 3.64831 6.31685 3.86947C5.67328 4.12869 4.79109 4.27734 3.89648 4.27734C3.00187 4.27734 2.11969 4.12869 1.47612 3.86947C0.927041 3.64831 0.585938 3.35558 0.585938 3.10547C0.585938 2.85536 0.927041 2.56263 1.47612 2.34146ZM1.47612 10.9007C0.927041 10.6796 0.585938 10.3868 0.585938 10.1367V9.32771C0.769541 9.45984 0.994043 9.58043 1.25722 9.68643C1.92773 9.95648 2.78549 10.1135 3.69141 10.1342V11.3057C2.86825 11.2849 2.07041 11.1401 1.47612 10.9007ZM9.87319 12.6599C9.24401 12.922 8.4012 13.0664 7.5 13.0664C6.5988 13.0664 5.75599 12.922 5.12681 12.6599C4.59489 12.4382 4.27734 12.1521 4.27734 11.8945V11.1026C4.3437 11.1506 4.41703 11.1983 4.49836 11.2454C4.95331 11.5087 5.57232 11.7034 6.28852 11.8085C6.30296 11.8106 6.31726 11.8117 6.33144 11.8117C6.4744 11.8117 6.59953 11.7069 6.62092 11.5612C6.64441 11.4011 6.53367 11.2523 6.37362 11.2288C5.01205 11.0289 4.27734 10.517 4.27734 10.1367V9.34219C4.94045 9.8274 6.11095 10.1367 7.5 10.1367C8.88905 10.1367 10.0596 9.8274 10.7227 9.34219V10.1367C10.7227 10.517 9.98795 11.0289 8.62638 11.2288C8.4663 11.2523 8.35556 11.4011 8.37908 11.5612C8.40047 11.7069 8.5256 11.8117 8.66856 11.8117C8.68271 11.8117 8.69707 11.8106 8.71148 11.8085C9.42765 11.7034 10.0467 11.5087 10.5016 11.2454C10.5829 11.1983 10.6563 11.1506 10.7227 11.1026V11.8945C10.7227 12.1521 10.4051 12.4382 9.87319 12.6599ZM13.5239 10.9007C12.9296 11.1401 12.1317 11.2849 11.3086 11.3057V10.1342C12.2145 10.1135 13.0723 9.95646 13.7428 9.6864C14.006 9.5804 14.2305 9.45982 14.4141 9.32769V10.1367C14.4141 10.3868 14.073 10.6796 13.5239 10.9007Z" fill="white"/>
</svg>
