<svg width="62" height="62" viewBox="0 0 62 62" fill="none" xmlns="http://www.w3.org/2000/svg">
<path d="M9.38454 11.16C10.9798 11.16 12.2779 9.86189 12.2779 8.26662C12.2779 6.67136 10.9798 5.37329 9.38454 5.37329C7.78928 5.37329 6.49121 6.67136 6.49121 8.26662C6.49121 9.86189 7.78928 11.16 9.38454 11.16ZM9.38454 7.02662C10.0684 7.02662 10.6245 7.58276 10.6245 8.26662C10.6245 8.95048 10.0684 9.50662 9.38454 9.50662C8.70068 9.50662 8.14454 8.95048 8.14454 8.26662C8.14454 7.58276 8.70068 7.02662 9.38454 7.02662Z" fill="white"/>
<path d="M49.8912 50.84C48.2959 50.84 46.9979 52.138 46.9979 53.7333C46.9979 55.3286 48.2959 56.6266 49.8912 56.6266C51.4865 56.6266 52.7845 55.3286 52.7845 53.7333C52.7845 52.138 51.4865 50.84 49.8912 50.84ZM49.8912 54.9733C49.2073 54.9733 48.6512 54.4172 48.6512 53.7333C48.6512 53.0494 49.2073 52.4933 49.8912 52.4933C50.5751 52.4933 51.1312 53.0494 51.1312 53.7333C51.1312 54.4172 50.5751 54.9733 49.8912 54.9733Z" fill="white"/>
<path d="M48.6149 9.95637C48.7763 10.1178 48.9879 10.1986 49.1994 10.1986C49.4108 10.1986 49.6224 10.1178 49.7838 9.95637L50.718 9.02223L51.6521 9.95637C51.8135 10.1178 52.0251 10.1986 52.2365 10.1986C52.448 10.1986 52.6596 10.1178 52.821 9.95637C53.1438 9.63355 53.1438 9.11027 52.821 8.78746L51.8869 7.85333L52.821 6.91919C53.1438 6.59638 53.1438 6.0731 52.821 5.75029C52.4982 5.42748 51.9749 5.42748 51.6521 5.75029L50.718 6.68442L49.7838 5.75029C49.461 5.42748 48.9377 5.42748 48.6149 5.75029C48.2921 6.0731 48.2921 6.59638 48.6149 6.91919L49.549 7.85333L48.6149 8.78746C48.2921 9.11027 48.2921 9.63335 48.6149 9.95637Z" fill="white"/>
<path d="M10.661 50.3903C10.3381 50.0675 9.81486 50.0675 9.49205 50.3903L8.55792 51.3244L7.62378 50.3903C7.30097 50.0675 6.77769 50.0675 6.45488 50.3903C6.13207 50.7131 6.13207 51.2364 6.45488 51.5592L7.38901 52.4933L6.45488 53.4275C6.13207 53.7503 6.13207 54.2736 6.45488 54.5964C6.61628 54.7578 6.82791 54.8386 7.03933 54.8386C7.25075 54.8386 7.46238 54.7578 7.62378 54.5964L8.55792 53.6622L9.49205 54.5964C9.65346 54.7578 9.86508 54.8386 10.0765 54.8386C10.2879 54.8386 10.4995 54.7578 10.661 54.5964C10.9838 54.2736 10.9838 53.7503 10.661 53.4275L9.72682 52.4933L10.661 51.5592C10.9838 51.2364 10.9838 50.7133 10.661 50.3903Z" fill="white"/>
<path d="M19.3045 9.20264C19.8214 9.20264 20.2408 8.78352 20.2408 8.26664C20.2408 7.74956 19.8216 7.33044 19.3045 7.33044C18.7875 7.33044 18.3683 7.74956 18.3683 8.26664C18.3686 8.78352 18.7877 9.20264 19.3045 9.20264Z" fill="white"/>
<path d="M54.8512 43.7039C54.3344 43.7039 53.915 44.123 53.915 44.6401C53.915 45.1569 54.3342 45.5761 54.8512 45.5761C55.3683 45.5761 55.7874 45.1569 55.7874 44.6401C55.7874 44.123 55.3683 43.7039 54.8512 43.7039Z" fill="white"/>
<path d="M7.31779 30.2826C7.83466 30.2826 8.25399 29.8635 8.25399 29.3466C8.25399 28.8295 7.83487 28.4104 7.31779 28.4104C6.80071 28.4104 6.38159 28.8295 6.38159 29.3466C6.3818 29.8635 6.80092 30.2826 7.31779 30.2826Z" fill="white"/>
<path d="M55.7868 25.5496C55.7868 23.9095 54.4523 22.5755 52.8118 22.5755C51.1721 22.5755 49.8377 23.9095 49.8377 25.5496C49.8377 26.9008 50.7491 28.0315 51.9851 28.3926V35.1334H48.651V25.2134C48.651 25.1134 48.6266 25.02 48.5941 24.9313C48.6266 24.8424 48.651 24.7492 48.651 24.6492V21.9557C48.651 16.4588 44.1793 11.9869 38.6826 11.9869H20.5929C15.096 11.9869 10.6245 16.459 10.6245 21.9557V24.7999C10.6245 24.8889 10.6491 24.9704 10.6751 25.0508C10.664 25.1051 10.6423 25.1559 10.6423 25.2136V42.4856C10.639 42.5159 10.6245 42.5424 10.6245 42.5736C10.6245 42.6048 10.639 42.6313 10.6423 42.6616V47.564C10.6423 48.0205 11.012 48.3907 11.469 48.3907H13.8622C15.1203 51.8482 18.3714 54.1467 22.0848 54.1467H37.3637C41.0771 54.1467 44.3281 51.8482 45.5863 48.3902H47.8245C48.2815 48.3902 48.6512 48.0201 48.6512 47.5636V40.9201H52.812C53.2689 40.9201 53.6387 40.5499 53.6387 40.0934V35.9601V28.3928C54.8754 28.0319 55.7868 26.901 55.7868 25.5496ZM51.4912 25.5496C51.4912 24.8216 52.0837 24.2288 52.812 24.2288C53.5409 24.2288 54.1336 24.8214 54.1336 25.5496C54.1336 26.2781 53.5411 26.8709 52.812 26.8709C52.0837 26.8709 51.4912 26.2781 51.4912 25.5496ZM37.0778 41.7467V31.0001H42.0378V41.7467H37.0778ZM42.8645 29.3467H36.2512C35.7942 29.3467 35.4245 29.7169 35.4245 30.1734V41.7467H33.7712V30.1734C33.7712 29.7169 33.4015 29.3467 32.9445 29.3467H26.3312C25.8742 29.3467 25.5045 29.7169 25.5045 30.1734V41.7467H23.8512V30.1734C23.8512 29.7169 23.4815 29.3467 23.0245 29.3467H16.4112C15.9542 29.3467 15.5845 29.7169 15.5845 30.1734V41.7467H12.2956V26.0401H46.9978V41.7467H43.6912V30.1734C43.6912 29.7169 43.3215 29.3467 42.8645 29.3467ZM27.1578 41.7467V31.0001H32.1178V41.7467H27.1578ZM17.2378 41.7467V31.0001H22.1978V41.7467H17.2378ZM15.0054 24.3867C15.2654 20.7041 18.3371 17.7856 22.085 17.7856H37.3639C41.1118 17.7856 44.1833 20.7043 44.4434 24.3867H15.0054ZM20.5929 13.6401H38.6826C43.2673 13.6401 46.9976 17.3706 46.9976 21.9555V24.3867H46.0962C45.8331 19.7921 42.0228 16.1323 37.3633 16.1323H22.0844C17.4251 16.1323 13.6148 19.7923 13.3515 24.3867H12.2772V21.9555C12.2778 17.3706 16.0084 13.6401 20.5929 13.6401ZM37.3637 52.4934H22.0848C19.2807 52.4934 16.81 50.8738 15.6564 48.3902H43.7922C42.6384 50.8738 40.1675 52.4934 37.3637 52.4934ZM12.2956 46.7369V43.4001H46.9978V46.7369H12.2956ZM51.9853 39.2667H48.6512V36.7867H51.9853V39.2667Z" fill="white"/>
<path d="M39.5579 32.6533C39.1009 32.6533 38.7312 33.0235 38.7312 33.48V39.2666C38.7312 39.7232 39.1009 40.0933 39.5579 40.0933C40.0148 40.0933 40.3845 39.7232 40.3845 39.2666V33.48C40.3845 33.0235 40.0148 32.6533 39.5579 32.6533Z" fill="white"/>
<path d="M29.6378 32.6533C29.1808 32.6533 28.8111 33.0235 28.8111 33.48V39.2666C28.8111 39.7232 29.1808 40.0933 29.6378 40.0933C30.0947 40.0933 30.4644 39.7232 30.4644 39.2666V33.48C30.4644 33.0235 30.0947 32.6533 29.6378 32.6533Z" fill="white"/>
<path d="M19.7179 32.6533C19.261 32.6533 18.8912 33.0235 18.8912 33.48V39.2666C18.8912 39.7232 19.261 40.0933 19.7179 40.0933C20.1748 40.0933 20.5446 39.7232 20.5446 39.2666V33.48C20.5446 33.0235 20.1748 32.6533 19.7179 32.6533Z" fill="white"/>
<path d="M25.9177 22.3448C26.388 22.3448 26.7692 21.9636 26.7692 21.4933C26.7692 21.0231 26.388 20.6418 25.9177 20.6418C25.4475 20.6418 25.0663 21.0231 25.0663 21.4933C25.0663 21.9636 25.4475 22.3448 25.9177 22.3448Z" fill="white"/>
<path d="M29.2245 22.3448C29.6947 22.3448 30.0759 21.9636 30.0759 21.4933C30.0759 21.0231 29.6947 20.6418 29.2245 20.6418C28.7542 20.6418 28.373 21.0231 28.373 21.4933C28.373 21.9636 28.7542 22.3448 29.2245 22.3448Z" fill="white"/>
<path d="M32.5311 22.3448C33.0014 22.3448 33.3826 21.9636 33.3826 21.4933C33.3826 21.0231 33.0014 20.6418 32.5311 20.6418C32.0609 20.6418 31.6797 21.0231 31.6797 21.4933C31.6797 21.9636 32.0609 22.3448 32.5311 22.3448Z" fill="white"/>
</svg>
