<svg width="25" height="25" viewBox="0 0 25 25" fill="none" xmlns="http://www.w3.org/2000/svg">
<g clip-path="url(#clip0)">
<path d="M20.5464 4.83875C20.2332 4.83875 19.9181 4.91297 19.6364 5.05335L19.3548 5.19432L19.0729 5.05276C18.7915 4.91297 18.4765 4.83875 18.1633 4.83875C17.0416 4.83875 16.129 5.75132 16.129 6.91138C16.129 7.50618 16.3879 8.06908 16.8396 8.45616L19.3548 10.6117L21.8701 8.45537C22.3217 8.06908 22.5806 7.50559 22.5806 6.87299C22.5806 5.75132 21.6681 4.83875 20.5464 4.83875ZM21.346 7.84325L19.3548 9.54968L17.3637 7.84404C17.092 7.61014 16.9355 7.27011 16.9355 6.87299C16.9355 6.19609 17.4864 5.6452 18.1633 5.6452C18.3529 5.6452 18.5427 5.68989 18.7126 5.77455L19.3548 6.09607L19.9967 5.77495C20.167 5.68989 20.3568 5.6452 20.5464 5.6452C21.2233 5.6452 21.7742 6.19609 21.7742 6.91138C21.7742 7.27011 21.6177 7.61014 21.346 7.84325Z" fill="#FFD200"/>
<path d="M23.7903 0H14.9194C14.2525 0 13.7097 0.542819 13.7097 1.20968V7.0911L13.3553 6.73671C12.9178 6.29922 12.3122 6.04839 11.6935 6.04839C11.0749 6.04839 10.4693 6.29922 10.0318 6.73671L9.15606 7.61246C8.71858 8.04995 8.46774 8.65557 8.46774 9.27419C8.46774 9.89281 8.71858 10.4984 9.15606 10.9359L10.3295 12.1092L2.91571 20.2194C2.74599 20.1802 2.58139 20.1613 2.41935 20.1613C1.08505 20.1613 0 21.2463 0 22.5806C0 23.915 1.08505 25 2.41935 25C3.75366 25 4.83871 23.915 4.83871 22.5806C4.83871 22.4186 4.81981 22.254 4.78063 22.0843L12.8908 14.6709L14.0641 15.8443C14.5016 16.2814 15.1072 16.5323 15.7258 16.5323C16.3444 16.5323 16.9501 16.2814 17.3875 15.8439L17.9089 15.3226H23.7903C24.4572 15.3226 25 14.7798 25 14.1129V1.20968C25 0.542819 24.4572 0 23.7903 0V0ZM12.7851 7.30689L17.6931 12.2149C17.9806 12.5024 18.1452 12.9001 18.1452 13.3065C18.1452 13.4911 18.1072 13.6727 18.0432 13.844L11.156 6.95683C11.3273 6.89284 11.5089 6.85484 11.6935 6.85484C12.0999 6.85484 12.4976 7.01944 12.7851 7.30689ZM3.86136 21.8319L3.94267 22.0794C4.00332 22.2617 4.03226 22.4259 4.03226 22.5806C4.03226 23.4702 3.30889 24.1935 2.41935 24.1935C1.52982 24.1935 0.806452 23.4702 0.806452 22.5806C0.806452 21.6911 1.52982 20.9677 2.41935 20.9677C2.57411 20.9677 2.73831 20.9967 2.92063 21.0573L3.16812 21.1386L10.9001 12.6802L12.3198 14.0999L3.86136 21.8319ZM16.8174 15.2738C16.5299 15.5612 16.1322 15.7258 15.7258 15.7258C15.3194 15.7258 14.9217 15.5612 14.6343 15.2738L9.72625 10.3657C9.43879 10.0783 9.27419 9.68057 9.27419 9.27419C9.27419 8.86782 9.43879 8.4701 9.72625 8.18265L10.4839 7.42503L17.575 14.5161L16.8174 15.2738ZM24.1935 14.1129C24.1935 14.3354 24.0128 14.5161 23.7903 14.5161H18.6122C18.8299 14.1529 18.9516 13.7335 18.9516 13.3065C18.9516 12.6878 18.7008 12.0822 18.2633 11.6447L14.5161 7.89756V1.20968C14.5161 0.987194 14.6969 0.806452 14.9194 0.806452H23.7903C24.0128 0.806452 24.1935 0.987194 24.1935 1.20968V14.1129Z" fill="#FFD200"/>
<path d="M15.3226 1.61292H16.1291V2.41937H15.3226V1.61292Z" fill="#FFD200"/>
<path d="M16.9354 1.61292H17.7419V2.41937H16.9354V1.61292Z" fill="#FFD200"/>
<path d="M22.5807 12.9032H23.3871V13.7097H22.5807V12.9032Z" fill="#FFD200"/>
<path d="M20.9678 12.9032H21.7742V13.7097H20.9678V12.9032Z" fill="#FFD200"/>
<path d="M22.5807 5.24194H23.3871V6.04839H22.5807V5.24194Z" fill="#FFD200"/>
<path d="M21.7742 2.41937H22.5806V4.4355H23.3871V1.61292H21.7742V2.41937Z" fill="#FFD200"/>
<path d="M22.7105 20.8242C23.449 20.8242 24.05 20.2232 24.05 19.4846C24.05 18.7461 23.449 18.1451 22.7105 18.1451C21.9719 18.1451 21.371 18.7461 21.371 19.4846C21.371 20.2232 21.9719 20.8242 22.7105 20.8242ZM22.7105 18.9106C23.0271 18.9106 23.2845 19.168 23.2845 19.4846C23.2845 19.8012 23.0271 20.0587 22.7105 20.0587C22.3939 20.0587 22.1364 19.8012 22.1364 19.4846C22.1364 19.168 22.3939 18.9106 22.7105 18.9106Z" fill="#FFD200"/>
<path d="M3.19143 10.5494C3.92998 10.5494 4.53093 9.94841 4.53093 9.20987C4.53093 8.47132 3.92998 7.87036 3.19143 7.87036C2.45289 7.87036 1.85193 8.47132 1.85193 9.20987C1.85193 9.94841 2.45289 10.5494 3.19143 10.5494ZM3.19143 8.63579C3.50803 8.63579 3.7655 8.89327 3.7655 9.20987C3.7655 9.52647 3.50803 9.78394 3.19143 9.78394C2.87483 9.78394 2.61736 9.52647 2.61736 9.20987C2.61736 8.89327 2.87483 8.63579 3.19143 8.63579Z" fill="#FFD200"/>
<path d="M3.35288 3.44826C3.42761 3.52299 3.52558 3.5604 3.62346 3.5604C3.72134 3.5604 3.81932 3.52299 3.89404 3.44826L4.32651 3.01579L4.75898 3.44826C4.8337 3.52299 4.93168 3.5604 5.02956 3.5604C5.12744 3.5604 5.22541 3.52299 5.30014 3.44826C5.44959 3.29881 5.44959 3.05655 5.30014 2.9071L4.86767 2.47463L5.30014 2.04216C5.44959 1.89271 5.44959 1.65045 5.30014 1.501C5.15069 1.35155 4.90843 1.35155 4.75898 1.501L4.32651 1.93347L3.89404 1.501C3.74459 1.35155 3.50233 1.35155 3.35288 1.501C3.20343 1.65045 3.20343 1.89271 3.35288 2.04216L3.78535 2.47463L3.35288 2.9071C3.20334 3.05655 3.20334 3.29872 3.35288 3.44826Z" fill="#FFD200"/>
<path d="M16.7789 24.1919C16.8536 24.2666 16.9516 24.3041 17.0495 24.3041C17.1474 24.3041 17.2453 24.2666 17.3201 24.1919L17.7525 23.7594L18.185 24.1919C18.2597 24.2666 18.3577 24.3041 18.4556 24.3041C18.5535 24.3041 18.6514 24.2666 18.7262 24.1919C18.8756 24.0425 18.8756 23.8002 18.7262 23.6508L18.2937 23.2183L18.7262 22.7858C18.8756 22.6364 18.8756 22.3941 18.7262 22.2447C18.5767 22.0952 18.3345 22.0952 18.185 22.2447L17.7525 22.6771L17.3201 22.2447C17.1706 22.0952 16.9284 22.0952 16.7789 22.2447C16.6295 22.3941 16.6295 22.6364 16.7789 22.7858L17.2114 23.2183L16.7789 23.6508C16.6294 23.8002 16.6294 24.0424 16.7789 24.1919Z" fill="#FFD200"/>
<path d="M10.6186 3.18157C10.8579 3.18157 11.052 2.98754 11.052 2.74824C11.052 2.50886 10.858 2.31482 10.6186 2.31482C10.3792 2.31482 10.1852 2.50886 10.1852 2.74824C10.1852 2.98754 10.3792 3.18157 10.6186 3.18157Z" fill="#FFD200"/>
<path d="M11.7237 23.0441C11.963 23.0441 12.1571 22.8501 12.1571 22.6108C12.1571 22.3714 11.9631 22.1774 11.7237 22.1774C11.4843 22.1774 11.2903 22.3714 11.2903 22.6108C11.2903 22.8501 11.4843 23.0441 11.7237 23.0441Z" fill="#FFD200"/>
</g>
<defs>
<clipPath id="clip0">
<rect width="25" height="25" fill="white"/>
</clipPath>
</defs>
</svg>
