<svg width="13" height="15" viewBox="0 0 13 15" fill="none" xmlns="http://www.w3.org/2000/svg">
<path d="M12.5094 5.61185L11.9792 4.68202L11.9739 3.69694C12.0018 3.28448 11.7907 2.88513 11.4334 2.67655L10.513 2.13865L9.97502 1.21811C9.78106 0.886543 9.42035 0.679642 9.03411 0.678148L7.96963 0.672493L7.05524 0.151021C6.7189 -0.0471207 6.29953 -0.050695 5.95968 0.142231L5.02985 0.672464L4.04477 0.677708C3.63237 0.649934 3.23292 0.860937 3.02438 1.2182L2.48644 2.13862L1.5659 2.67664C1.23434 2.87059 1.02743 3.23131 1.02594 3.61754L1.02029 4.68199L0.498812 5.59647C0.3007 5.93284 0.297184 6.35218 0.490052 6.692L1.02031 7.6218L1.02556 8.60688C0.997638 9.01933 1.20876 9.41872 1.56605 9.62726L2.48647 10.1652L3.02447 11.0857C3.20113 11.3877 3.5162 11.5863 3.86294 11.6205V14.707C3.86294 14.8049 3.9119 14.8964 3.99347 14.9508C4.075 15.0051 4.17834 15.0151 4.26872 14.9774L6.49976 14.0468L8.73079 14.9774C8.82088 15.015 8.92433 15.0052 9.00605 14.9508C9.08758 14.8965 9.13657 14.8049 9.13657 14.707V11.6231C9.48146 11.5883 9.79747 11.39 9.9751 11.0856L10.513 10.1652L11.4336 9.62715C11.7651 9.4332 11.972 9.07251 11.9735 8.68625L11.9792 7.62183L12.5006 6.70747C12.6988 6.37104 12.7024 5.95167 12.5094 5.61185ZM6.61252 13.4588C6.54036 13.4288 6.45912 13.4288 6.38696 13.4588L4.4489 14.2673V11.6282L5.02985 11.6313L5.94436 12.1528C6.2809 12.351 6.70024 12.3543 7.03983 12.1616L7.96966 11.6313L8.55064 11.6282V14.2673L6.61252 13.4588ZM11.9952 6.41101C11.9943 6.41238 11.9935 6.41376 11.9927 6.41517L11.4321 7.39828C11.4072 7.44206 11.3939 7.49148 11.3936 7.54184L11.3876 8.68349C11.3869 8.86382 11.2911 9.03158 11.1378 9.12126L10.151 9.69802C10.1075 9.72342 10.0713 9.75963 10.0459 9.80311L9.46907 10.79C9.37101 10.958 9.18239 11.0568 8.98806 11.0409C8.97974 11.0403 8.97139 11.0399 8.96307 11.04L7.88965 11.0457C7.83929 11.046 7.78983 11.0592 7.74609 11.0842L6.75002 11.6522C6.59222 11.7417 6.39701 11.7399 6.24059 11.6472C6.23921 11.6464 6.23783 11.6456 6.23643 11.6448L5.25331 11.0842C5.20956 11.0592 5.16011 11.046 5.10975 11.0457L3.96807 11.0397C3.78774 11.039 3.61998 10.9432 3.5303 10.7899L2.95354 9.80311C2.92814 9.75963 2.89192 9.72342 2.84845 9.69799L1.86158 9.1212C1.69355 9.02314 1.59505 8.83435 1.61064 8.64022C1.61131 8.6319 1.61163 8.62358 1.61158 8.61523L1.60586 7.54179C1.6056 7.49142 1.59236 7.44197 1.56739 7.3982L0.999396 6.40216C0.909832 6.24436 0.911737 6.04918 1.00438 5.89273C1.0052 5.89135 1.00599 5.88997 1.00681 5.88857L1.56742 4.90545C1.59239 4.86168 1.60563 4.81225 1.60589 4.76189L1.61199 3.62018C1.61266 3.43988 1.70843 3.27212 1.86175 3.18241L2.84853 2.60568C2.89201 2.58025 2.92822 2.54404 2.95365 2.50056L3.53047 1.51366C3.62824 1.34546 3.81885 1.24691 4.01148 1.26273C4.01978 1.2634 4.02801 1.26361 4.03648 1.26367L5.10989 1.25795C5.16026 1.25769 5.20971 1.24445 5.25345 1.21948L6.24949 0.651457C6.40729 0.561894 6.60247 0.563798 6.75893 0.656438C6.7603 0.657258 6.76168 0.658049 6.76309 0.65887L7.74618 1.21948C7.78992 1.24445 7.83937 1.25769 7.88974 1.25795L9.03148 1.26405C9.21177 1.26472 9.37953 1.36049 9.46922 1.51381L10.046 2.50059C10.0714 2.54407 10.1076 2.58028 10.1511 2.60571L11.138 3.1825C11.306 3.28059 11.4045 3.46938 11.3889 3.66351C11.3882 3.67183 11.3879 3.68015 11.388 3.6885L11.3937 4.76195C11.3939 4.81231 11.4072 4.86176 11.4321 4.90551L12.0002 5.90157C12.0897 6.0594 12.0878 6.25458 11.9952 6.41101Z" fill="white"/>
<path d="M6.49939 1.61073C2.81336 1.57959 0.629171 5.91325 2.84764 8.85156C3.41783 9.62151 4.19903 10.1829 5.1068 10.4752C5.26076 10.5247 5.42588 10.4401 5.47546 10.286C5.52503 10.132 5.44036 9.96696 5.28634 9.91739C1.03117 8.47163 2.00597 2.27626 6.49942 2.19669C10.9937 2.27697 11.9671 8.47215 7.71218 9.91742C7.55819 9.96699 7.47352 10.132 7.52309 10.286C7.57231 10.4415 7.74186 10.5247 7.89174 10.4752C12.7793 8.77694 11.6782 1.73566 6.49939 1.61073Z" fill="white"/>
<path d="M9.2099 7.51435V5.66199C9.2099 5.17734 8.81787 4.78305 8.33594 4.78305H7.17704L6.86355 3.70864C6.76399 3.36737 6.45446 3.11966 6.12759 3.11966H5.54177C5.37996 3.11966 5.2488 3.25083 5.2488 3.41264V4.78302H4.22926C4.06745 4.78302 3.93628 4.91419 3.93628 5.076V8.1003C3.93628 8.178 3.96716 8.25254 4.02209 8.30747C4.07703 8.3624 4.15156 8.39328 4.22926 8.39328L8.33594 8.39325C8.81787 8.39325 9.2099 7.99899 9.2099 7.51435ZM5.2488 7.80733H4.52224V5.36898H5.2488V7.80733ZM5.83475 3.70562H6.12759C6.18407 3.70562 6.27405 3.78015 6.30103 3.87273L6.67604 5.15806C6.71252 5.28305 6.82707 5.36898 6.9573 5.36898H8.33594C8.49474 5.36898 8.62394 5.50041 8.62394 5.66196V7.51432C8.62394 7.67587 8.49474 7.80727 8.33594 7.80727H5.83475V3.70562Z" fill="white"/>
<path d="M6.49935 10.1072H6.49915C6.33734 10.1072 6.2063 10.2384 6.2063 10.4002C6.22177 10.7887 6.77697 10.7887 6.79232 10.4002C6.79232 10.2384 6.66116 10.1072 6.49935 10.1072Z" fill="white"/>
</svg>
