<svg width="15" height="15" viewBox="0 0 15 15" fill="none" xmlns="http://www.w3.org/2000/svg">
<path d="M13.125 6.25157V6.09375C13.125 2.99212 10.6016 0.46875 7.5 0.46875C4.39837 0.46875 1.875 2.99212 1.875 6.09375V6.25157C1.48476 6.30838 1.12798 6.50367 0.869797 6.80175C0.611617 7.09984 0.46927 7.48085 0.46875 7.87521V9.28146C0.469239 9.71643 0.642246 10.1334 0.949817 10.441C1.25739 10.7486 1.6744 10.9216 2.10938 10.9221H2.23421C2.42399 11.1344 2.67376 11.284 2.95046 11.3512C3.22716 11.4183 3.51774 11.3999 3.78372 11.2982C4.0497 11.1966 4.27853 11.0165 4.43992 10.782C4.60132 10.5474 4.68765 10.2693 4.6875 9.98458V7.17208C4.68716 6.8828 4.59775 6.60064 4.43144 6.36394C4.26513 6.12725 4.02998 5.9475 3.75794 5.84912C3.82004 4.89892 4.24129 4.00793 4.93623 3.35693C5.63116 2.70594 6.54773 2.34369 7.49996 2.34369C8.45218 2.34369 9.36875 2.70594 10.0637 3.35693C10.7586 4.00793 11.1799 4.89892 11.242 5.84912C10.9699 5.94751 10.7348 6.12727 10.5685 6.36396C10.4022 6.60066 10.3128 6.88281 10.3125 7.17208V9.98458C10.313 10.3168 10.4308 10.6381 10.6453 10.8918C10.8597 11.1454 11.1569 11.3152 11.4844 11.3709V11.8267L10.9871 12.1535C10.7465 12.1075 10.4975 12.1579 10.2937 12.2937L9.51334 12.8133C9.41086 12.8815 9.32282 12.9693 9.25426 13.0715C9.18569 13.1738 9.13793 13.2886 9.11371 13.4093C9.0895 13.53 9.08929 13.6543 9.11311 13.7751C9.13693 13.8958 9.18431 14.0108 9.25254 14.1132C9.32077 14.2157 9.40852 14.3038 9.51077 14.3723C9.61302 14.4409 9.72778 14.4887 9.84849 14.5129C9.9692 14.5371 10.0935 14.5373 10.2143 14.5135C10.3351 14.4897 10.45 14.4423 10.5525 14.374L11.3328 13.8545C11.5348 13.7202 11.6765 13.5125 11.7282 13.2756L12.7801 12.6209C12.8139 12.5999 12.8418 12.5705 12.8611 12.5357C12.8805 12.5009 12.8906 12.4617 12.8906 12.4219V10.9221C13.3256 10.9216 13.7426 10.7486 14.0502 10.441C14.3578 10.1334 14.5308 9.71643 14.5312 9.28146V7.87521C14.5307 7.48085 14.3884 7.09984 14.1302 6.80175C13.872 6.50367 13.5152 6.30838 13.125 6.25157ZM1.95193 10.4424C1.67116 10.404 1.41376 10.2653 1.2273 10.0519C1.04083 9.83852 0.937894 9.56485 0.9375 9.28146V7.87521C0.937887 7.59181 1.04082 7.31813 1.22729 7.10472C1.41375 6.89131 1.67115 6.7526 1.95193 6.7142C1.90098 6.86148 1.87498 7.01624 1.875 7.17208V9.98458C1.87498 10.1404 1.90099 10.2952 1.95193 10.4424ZM11.073 13.4643L10.2927 13.9838C10.1892 14.0517 10.0631 14.076 9.9418 14.0512C9.82053 14.0265 9.71396 13.9547 9.64537 13.8517C9.57677 13.7487 9.5517 13.6227 9.57563 13.5013C9.59957 13.3799 9.67056 13.2728 9.77312 13.2035L10.5535 12.6839C10.6569 12.615 10.7836 12.59 10.9055 12.6145C11.0273 12.6389 11.1345 12.7108 11.2034 12.8143C11.2723 12.9178 11.2973 13.0444 11.2729 13.1663C11.2484 13.2882 11.1765 13.3954 11.073 13.4643ZM4.21875 7.17208V9.98458C4.21875 10.2332 4.11998 10.4717 3.94416 10.6475C3.76835 10.8233 3.52989 10.9221 3.28125 10.9221C3.03261 10.9221 2.79415 10.8233 2.61834 10.6475C2.44252 10.4717 2.34375 10.2332 2.34375 9.98458V7.17208C2.34375 6.92344 2.44252 6.68498 2.61834 6.50917C2.79415 6.33335 3.03261 6.23458 3.28125 6.23458C3.52989 6.23458 3.76835 6.33335 3.94416 6.50917C4.11998 6.68498 4.21875 6.92344 4.21875 7.17208ZM12.4219 12.2917L11.6914 12.7463C11.6428 12.6155 11.5654 12.4972 11.465 12.4004L11.8475 12.149C11.8799 12.1277 11.9066 12.0986 11.925 12.0644C11.9435 12.0302 11.9531 11.992 11.9531 11.9531V11.3709C12.1183 11.3431 12.277 11.2857 12.4219 11.2016V12.2917ZM12.6562 9.98458C12.6562 10.2332 12.5575 10.4717 12.3817 10.6475C12.2058 10.8233 11.9674 10.9221 11.7188 10.9221C11.4701 10.9221 11.2317 10.8233 11.0558 10.6475C10.88 10.4717 10.7812 10.2332 10.7812 9.98458V7.17208C10.7812 6.92344 10.88 6.68498 11.0558 6.50917C11.2317 6.33335 11.4701 6.23458 11.7188 6.23458C11.9674 6.23458 12.2058 6.33335 12.3817 6.50917C12.5575 6.68498 12.6562 6.92344 12.6562 7.17208V9.98458ZM12.6562 6.12504C12.3989 5.89355 12.0649 5.76558 11.7188 5.76583C11.7145 5.76583 11.7103 5.76609 11.706 5.76615C11.6234 4.70731 11.1444 3.71859 10.3648 2.9974C9.58509 2.27622 8.56211 1.87563 7.50004 1.87563C6.43798 1.87563 5.41499 2.27622 4.63533 2.9974C3.85567 3.71859 3.37671 4.70731 3.29408 5.76615C3.28978 5.76615 3.28556 5.76583 3.28125 5.76583C2.93509 5.76558 2.60111 5.89355 2.34375 6.12504V6.09375C2.34375 3.25058 4.65683 0.9375 7.5 0.9375C10.3432 0.9375 12.6562 3.25058 12.6562 6.09375V6.12504ZM14.0625 9.28146C14.0621 9.56485 13.9592 9.83852 13.7727 10.0519C13.5862 10.2653 13.3288 10.404 13.0481 10.4424C13.099 10.2952 13.125 10.1404 13.125 9.98458V7.17208C13.125 7.01624 13.099 6.86148 13.0481 6.7142C13.3288 6.7526 13.5862 6.89131 13.7727 7.10472C13.9592 7.31813 14.0621 7.59181 14.0625 7.87521V9.28146Z" fill="white"/>
<path d="M8.59374 9.84375L9.46875 10.5C9.50357 10.5261 9.54498 10.542 9.58833 10.5459C9.63168 10.5498 9.67526 10.5416 9.71419 10.5221C9.75312 10.5027 9.78586 10.4727 9.80875 10.4357C9.83163 10.3987 9.84375 10.356 9.84375 10.3125V7.35352C9.84352 7.1438 9.7601 6.94273 9.61181 6.79444C9.46352 6.64615 9.26245 6.56273 9.05273 6.5625H5.94727C5.73755 6.56273 5.53648 6.64615 5.38819 6.79444C5.2399 6.94273 5.15648 7.1438 5.15625 7.35352V9.05273C5.15648 9.26245 5.2399 9.46352 5.38819 9.61181C5.53648 9.7601 5.73755 9.84352 5.94727 9.84375H8.59374ZM5.625 9.05273V7.35352C5.6251 7.26808 5.65909 7.18617 5.7195 7.12575C5.77992 7.06534 5.86183 7.03135 5.94727 7.03125H9.05273C9.13817 7.03135 9.22008 7.06534 9.2805 7.12575C9.34091 7.18617 9.3749 7.26808 9.375 7.35352V9.84375L8.8125 9.42187C8.77193 9.39145 8.72259 9.375 8.67188 9.375H5.94727C5.86183 9.3749 5.77992 9.34091 5.7195 9.2805C5.65909 9.22008 5.6251 9.13817 5.625 9.05273Z" fill="white"/>
<path d="M6.5625 8.4375C6.69194 8.4375 6.79688 8.33257 6.79688 8.20312C6.79688 8.07368 6.69194 7.96875 6.5625 7.96875C6.43306 7.96875 6.32812 8.07368 6.32812 8.20312C6.32812 8.33257 6.43306 8.4375 6.5625 8.4375Z" fill="white"/>
<path d="M7.5 8.4375C7.62944 8.4375 7.73438 8.33257 7.73438 8.20312C7.73438 8.07368 7.62944 7.96875 7.5 7.96875C7.37056 7.96875 7.26562 8.07368 7.26562 8.20312C7.26562 8.33257 7.37056 8.4375 7.5 8.4375Z" fill="white"/>
<path d="M8.4375 8.4375C8.56694 8.4375 8.67188 8.33257 8.67188 8.20312C8.67188 8.07368 8.56694 7.96875 8.4375 7.96875C8.30806 7.96875 8.20312 8.07368 8.20312 8.20312C8.20312 8.33257 8.30806 8.4375 8.4375 8.4375Z" fill="white"/>
<path d="M3.04688 7.03125V7.26562C3.04688 7.32779 3.07157 7.3874 3.11552 7.43135C3.15948 7.47531 3.21909 7.5 3.28125 7.5C3.34341 7.5 3.40302 7.47531 3.44698 7.43135C3.49093 7.3874 3.51562 7.32779 3.51562 7.26562V7.03125C3.51562 6.96909 3.49093 6.90948 3.44698 6.86552C3.40302 6.82157 3.34341 6.79688 3.28125 6.79688C3.21909 6.79688 3.15948 6.82157 3.11552 6.86552C3.07157 6.90948 3.04688 6.96909 3.04688 7.03125Z" fill="white"/>
<path d="M3.28125 7.96875C3.21909 7.96875 3.15948 7.99344 3.11552 8.0374C3.07157 8.08135 3.04688 8.14096 3.04688 8.20312V9.60938C3.04688 9.67154 3.07157 9.73115 3.11552 9.7751C3.15948 9.81906 3.21909 9.84375 3.28125 9.84375C3.34341 9.84375 3.40302 9.81906 3.44698 9.7751C3.49093 9.73115 3.51562 9.67154 3.51562 9.60938V8.20312C3.51562 8.14096 3.49093 8.08135 3.44698 8.0374C3.40302 7.99344 3.34341 7.96875 3.28125 7.96875Z" fill="white"/>
</svg>
