<svg width="15" height="15" viewBox="0 0 15 15" fill="none" xmlns="http://www.w3.org/2000/svg">
<path d="M11.4737 6.37905V4.0036C11.4801 2.92877 11.0508 1.89527 10.2844 1.14162C9.54348 0.403858 8.57359 0 7.54645 0C7.53055 0 7.51147 0 7.49557 0C5.30456 0.00317999 3.52377 1.79669 3.52377 4.0036V6.37905C2.69697 6.47763 2.09277 7.17087 2.09277 8.01039V13.3464C2.09277 14.2527 2.81781 15 3.72411 15H11.2766C12.1829 15 12.9079 14.2527 12.9079 13.3464V8.01039C12.9047 7.17405 12.3005 6.47763 11.4737 6.37905ZM4.15658 4.0036H4.15976C4.15976 2.14649 5.65754 0.626458 7.49875 0.626458H7.50193C8.37643 0.623277 9.21594 0.969896 9.83604 1.58681C10.4816 2.22599 10.8409 3.09731 10.8346 4.0036V6.38223H10.135V4.0036C10.1413 3.28175 9.85512 2.58851 9.34314 2.07971C8.85978 1.59635 8.20471 1.32287 7.52101 1.32287H7.50193C6.03914 1.32287 4.85618 2.52491 4.85618 4.00042V6.38223H4.15658V4.0036ZM9.50214 4.0036V6.38223H5.49536V4.0036C5.49536 2.87789 6.39212 1.96205 7.50511 1.96205H7.52419C8.03935 1.96205 8.53543 2.16875 8.90112 2.53445C9.28908 2.92241 9.5085 3.45347 9.50214 4.0036ZM12.3005 13.3559C12.3005 13.9124 11.849 14.364 11.2925 14.364H3.73683C3.18033 14.364 2.72877 13.9124 2.72877 13.3559V8.02629C2.72877 7.46979 3.18033 7.01823 3.73683 7.01823H11.2925C11.849 7.01823 12.3005 7.46979 12.3005 8.02629V13.3559Z" fill="white"/>
<path d="M8.5989 10.494C8.45898 10.0011 8.0106 9.66406 7.49862 9.66406C6.8658 9.66406 6.35065 10.176 6.35065 10.812C6.35065 11.324 6.68773 11.7724 7.18062 11.9123V12.8027C7.18062 12.9776 7.32372 13.1207 7.49862 13.1207C7.67352 13.1207 7.81662 12.9776 7.81662 12.8027V11.9123C8.424 11.7374 8.77698 11.1014 8.5989 10.494ZM7.49862 11.3208C7.2156 11.3208 6.98664 11.0919 6.98664 10.8089C6.98664 10.5258 7.2156 10.2969 7.49862 10.2969C7.78164 10.2969 8.0106 10.5258 8.0106 10.8089C8.0106 11.0919 7.78164 11.3208 7.49862 11.3208Z" fill="white"/>
</svg>
