<svg width="15" height="15" viewBox="0 0 15 15" fill="none" xmlns="http://www.w3.org/2000/svg">
<path d="M13.5417 0.563557C12.7181 0.200157 11.6326 0 10.4853 0C9.33801 0 8.25256 0.200157 7.42887 0.563557C6.49087 0.977406 5.97428 1.57131 5.97428 2.23586V6.02305C5.53931 5.88609 5.07668 5.81205 4.59709 5.81205C2.06395 5.81205 0.00311279 7.87289 0.00311279 10.406C0.00311279 12.9391 2.06395 15 4.59709 15C6.33979 15 7.8589 14.0246 8.63729 12.5911C9.21315 12.7126 9.84462 12.7764 10.4853 12.7764C11.6326 12.7764 12.7181 12.5763 13.5417 12.2129C14.4798 11.7991 14.9963 11.2052 14.9963 10.5406V2.23586C14.9963 1.57131 14.4798 0.977406 13.5417 0.563557ZM7.78366 1.36767C8.49801 1.05249 9.45749 0.87891 10.4853 0.87891C11.5131 0.87891 12.4726 1.05249 13.187 1.36767C13.7609 1.62089 14.1174 1.95358 14.1174 2.23586C14.1174 2.51814 13.7609 2.8508 13.187 3.10405C12.4726 3.41922 11.5131 3.59281 10.4853 3.59281C9.45749 3.59281 8.49801 3.41922 7.78366 3.10405C7.20973 2.8508 6.85319 2.51816 6.85319 2.23586C6.85319 1.95355 7.20973 1.62089 7.78366 1.36767ZM4.59706 14.1211C2.54855 14.1211 0.881993 12.4545 0.881993 10.406C0.881993 8.35752 2.54855 6.69096 4.59706 6.69096C6.64553 6.69096 8.31212 8.35752 8.31212 10.406C8.31212 12.4545 6.64556 14.1211 4.59706 14.1211ZM13.187 11.4088C12.4726 11.724 11.5131 11.8975 10.4853 11.8975C9.96655 11.8975 9.45678 11.8519 8.98601 11.7644C9.09986 11.3974 9.16862 11.0107 9.18625 10.611C9.60359 10.6698 10.0383 10.7003 10.4853 10.7003C11.6326 10.7003 12.7181 10.5001 13.5418 10.1367C13.7562 10.0421 13.9482 9.93804 14.1175 9.82595V10.5406C14.1174 10.8229 13.7609 11.1556 13.187 11.4088ZM13.187 9.33259C12.4726 9.64776 11.5131 9.82135 10.4853 9.82135C10.0176 9.82135 9.5665 9.78516 9.13906 9.71482C9.07229 9.27423 8.9425 8.85408 8.75954 8.46361C9.30001 8.56861 9.88657 8.62407 10.4853 8.62407C11.6326 8.62407 12.7181 8.42394 13.5417 8.06054C13.7561 7.96594 13.9482 7.86185 14.1174 7.74976V8.4644C14.1174 8.7467 13.7609 9.07937 13.187 9.33259ZM13.187 7.25642C12.4726 7.5716 11.5131 7.74519 10.4853 7.74519C9.57661 7.74519 8.70921 7.60667 8.028 7.35463C7.69222 6.97752 7.29546 6.65592 6.85319 6.40552V5.6736C7.02241 5.78569 7.21451 5.88978 7.42887 5.98435C8.25256 6.34775 9.33801 6.54791 10.4853 6.54791C11.6326 6.54791 12.7181 6.34775 13.5417 5.98435C13.7561 5.88975 13.9482 5.78569 14.1174 5.6736V6.38824C14.1174 6.67051 13.7609 7.00318 13.187 7.25642ZM13.187 5.18021C12.4726 5.49538 11.5131 5.66897 10.4853 5.66897C9.45749 5.66897 8.49801 5.49538 7.78366 5.18021C7.20973 4.92699 6.85319 4.59432 6.85319 4.31202V3.59738C7.02241 3.70947 7.21451 3.81356 7.42887 3.90816C8.25256 4.27156 9.33801 4.47169 10.4853 4.47169C11.6326 4.47169 12.7181 4.27156 13.5417 3.90816C13.7561 3.81356 13.9482 3.70947 14.1174 3.59738V4.31202C14.1174 4.59432 13.7609 4.92699 13.187 5.18021Z" fill="white"/>
<path d="M5.18416 9.93312H4.24153C4.02934 9.93312 3.85669 9.76048 3.85669 9.54828C3.85669 9.33608 4.02934 9.16344 4.24153 9.16344H5.83303V8.28453H5.03683V7.69159H4.15792V8.28761C3.49997 8.33085 2.97778 8.87958 2.97778 9.54828C2.97778 10.2451 3.54471 10.812 4.24153 10.812H5.18416C5.41476 10.812 5.60234 10.9996 5.60234 11.2302C5.60234 11.4608 5.41476 11.6484 5.18416 11.6484H3.15292V12.5273H4.15792V13.1203H5.03683V12.5273H5.18416C5.89938 12.5273 6.48125 11.9455 6.48125 11.2302C6.48125 10.515 5.89938 9.93312 5.18416 9.93312Z" fill="white"/>
</svg>
