<svg width="15" height="15" viewBox="0 0 15 15" fill="none" xmlns="http://www.w3.org/2000/svg">
<path d="M7.69557 8.1863C7.66782 8.18029 7.63934 8.17921 7.61123 8.18341C7.32951 8.15062 7.11698 7.91226 7.1165 7.62874C7.1165 7.49286 7.00634 7.38269 6.87046 7.38269C6.73458 7.38269 6.62442 7.49286 6.62442 7.62874C6.62514 8.1022 6.94182 8.51692 7.39835 8.64222V8.88827C7.39835 9.02414 7.50851 9.13431 7.64439 9.13431C7.78027 9.13431 7.89043 9.02414 7.89043 8.88827V8.65712C8.41736 8.54683 8.77549 8.05607 8.72011 7.52061C8.66461 6.98515 8.21349 6.57825 7.67515 6.57813C7.36663 6.57813 7.1165 6.328 7.1165 6.01948C7.1165 5.71097 7.36663 5.46084 7.67515 5.46084C7.98366 5.46084 8.23379 5.71097 8.23379 6.01948C8.23379 6.15536 8.34396 6.26553 8.47983 6.26553C8.61571 6.26553 8.72588 6.15536 8.72588 6.01948C8.72516 5.52235 8.37687 5.09358 7.89043 4.99098V4.76704C7.89043 4.63116 7.78027 4.521 7.64439 4.521C7.50851 4.521 7.39835 4.63116 7.39835 4.76704V5.00599C6.89064 5.14463 6.56387 5.63756 6.63379 6.1592C6.70371 6.68084 7.14882 7.07021 7.67515 7.07009C7.97958 7.07009 8.2279 7.31385 8.23343 7.61816C8.23908 7.92247 7.99976 8.17524 7.69557 8.1863Z" fill="white"/>
<path d="M4.10736 6.84305C4.10736 8.81356 5.70472 10.4109 7.67523 10.4109C9.64574 10.4109 11.2431 8.81356 11.2431 6.84305C11.2431 4.87254 9.64574 3.27518 7.67523 3.27518C5.70568 3.27734 4.10964 4.8735 4.10736 6.84305ZM7.67523 3.76726C9.37399 3.76726 10.751 5.14429 10.751 6.84305C10.751 8.5418 9.37399 9.91883 7.67523 9.91883C5.97647 9.91883 4.59945 8.5418 4.59945 6.84305C4.60137 5.14513 5.97731 3.76919 7.67523 3.76726Z" fill="white"/>
<path d="M12.4563 11.0175L10.5289 11.9282C10.2628 11.4332 9.75231 11.1182 9.19055 11.1024L7.4113 11.0535C7.12957 11.0454 6.85314 10.974 6.60265 10.8447L6.4216 10.7508C5.49461 10.2676 4.3897 10.2688 3.46367 10.754L3.47497 10.3438C3.47869 10.2079 3.37165 10.0948 3.23577 10.091L1.28472 10.0373C1.14885 10.0336 1.0358 10.1406 1.03207 10.2765L0.914218 14.558C0.910494 14.6939 1.01754 14.8071 1.15341 14.8108L3.10446 14.8645H3.11119C3.24454 14.8645 3.35363 14.7584 3.35723 14.6252L3.36288 14.4203L3.86974 14.1489C4.06869 14.0419 4.30128 14.0164 4.51861 14.0779L7.54537 14.9274C7.55066 14.929 7.55595 14.9302 7.56135 14.9314C7.78012 14.9772 8.0031 15.0001 8.22656 15C8.6999 15.0002 9.16772 14.8982 9.59794 14.7007C9.60851 14.6959 9.61872 14.6903 9.62845 14.6839L14.017 11.8453C14.1263 11.7745 14.1616 11.631 14.0976 11.5176C13.7718 10.9394 13.0492 10.7192 12.4563 11.0175ZM1.41291 14.3257L1.51719 10.536L2.97627 10.5761L2.87199 14.3659L1.41291 14.3257ZM9.37628 14.2613C8.84179 14.5025 8.24482 14.5691 7.67032 14.4517L4.65172 13.6044C4.31197 13.5084 3.94831 13.5481 3.63751 13.7152L3.3785 13.854L3.44782 11.3343C4.2686 10.7884 5.32125 10.7323 6.19538 11.1878L6.37643 11.2816C6.69287 11.445 7.04187 11.5351 7.39784 11.5454L9.17721 11.5943C9.67699 11.6087 10.1014 11.9646 10.2028 12.4543L7.55246 12.3811C7.41658 12.3774 7.30353 12.4845 7.29969 12.6203C7.29597 12.7562 7.40313 12.8693 7.53889 12.8731L10.4638 12.9536H10.4706C10.6039 12.9534 10.7128 12.8474 10.7164 12.7142C10.7194 12.6073 10.7115 12.5003 10.6926 12.395L12.6695 11.461C12.6714 11.4601 12.6734 11.4592 12.6753 11.4582C12.9557 11.3163 13.2947 11.3638 13.5254 11.5773L9.37628 14.2613Z" fill="white"/>
<path d="M7.92141 2.58345V0.246043C7.92141 0.110167 7.81124 0 7.67537 0C7.53949 0 7.42932 0.110167 7.42932 0.246043V2.58345C7.42932 2.71933 7.53949 2.8295 7.67537 2.8295C7.81124 2.8295 7.92141 2.71933 7.92141 2.58345Z" fill="white"/>
<path d="M9.76656 2.58349V1.4763C9.76656 1.34042 9.65639 1.23026 9.52052 1.23026C9.38464 1.23026 9.27448 1.34042 9.27448 1.4763V2.58349C9.27448 2.71937 9.38464 2.82954 9.52052 2.82954C9.65639 2.82954 9.76656 2.71937 9.76656 2.58349Z" fill="white"/>
<path d="M6.07644 2.58349V1.4763C6.07644 1.34042 5.96627 1.23026 5.83039 1.23026C5.69452 1.23026 5.58435 1.34042 5.58435 1.4763V2.58349C5.58435 2.71937 5.69452 2.82954 5.83039 2.82954C5.96627 2.82954 6.07644 2.71937 6.07644 2.58349Z" fill="white"/>
</svg>
