<svg width="16" height="16" viewBox="0 0 16 16" fill="none" xmlns="http://www.w3.org/2000/svg">
<path d="M9.10867 16H6.89134C6.35 16 5.88934 15.63 5.77067 15.1007L5.48934 13.852C5.03134 13.658 4.59534 13.4047 4.18667 13.096L2.97201 13.4793C2.45067 13.64 1.88401 13.4193 1.62267 12.954L0.517339 11.042C0.252672 10.5687 0.342005 9.98533 0.732005 9.61866L1.67334 8.75333C1.64467 8.5 1.63001 8.24733 1.63001 8C1.63001 7.75266 1.64401 7.5 1.67267 7.24666L0.736005 6.38533C0.342005 6.01466 0.252005 5.432 0.514005 4.96466L1.62601 3.04133C1.88467 2.58133 2.45067 2.35867 2.97067 2.52067L4.18667 2.904C4.59534 2.59533 5.03201 2.342 5.48934 2.148L5.77067 0.898666C5.88934 0.37 6.35 0 6.89134 0H9.10867C9.65 0 10.1107 0.37 10.2293 0.899333L10.5107 2.148C10.9687 2.342 11.4047 2.59533 11.8133 2.904L13.028 2.52067C13.548 2.358 14.1153 2.58067 14.3773 3.046L15.4827 4.958C15.7473 5.43133 15.658 6.01466 15.268 6.38133L14.3267 7.24666C14.3553 7.5 14.3693 7.75266 14.3693 8C14.3693 8.24733 14.3553 8.5 14.3267 8.75333L15.264 9.61466C15.2653 9.616 15.2667 9.61733 15.268 9.61866C15.658 9.98533 15.748 10.568 15.486 11.0353L14.374 12.9587C14.1147 13.4187 13.5487 13.6413 13.0293 13.4793L11.8127 13.0953C11.404 13.404 10.9673 13.6573 10.51 13.8513L10.2287 15.1007C10.1107 15.63 9.65 16 9.10867 16ZM4.28934 12.0393C4.40401 12.0393 4.51667 12.0787 4.60801 12.1533C5.06467 12.53 5.56467 12.82 6.09334 13.0153C6.25201 13.074 6.37067 13.2093 6.40801 13.3747L6.74734 14.8813C6.76267 14.95 6.824 15 6.89267 15H9.11C9.17867 15 9.23934 14.95 9.25534 14.882L9.59467 13.3753C9.632 13.21 9.75 13.0747 9.90934 13.016C10.438 12.8207 10.938 12.53 11.3947 12.154C11.5253 12.046 11.7007 12.0113 11.8633 12.0627L13.3307 12.526C13.4 12.5473 13.4747 12.5233 13.5073 12.464L14.6193 10.5413C14.6527 10.482 14.6407 10.4007 14.5867 10.3487L13.4613 9.314C13.3387 9.20133 13.2807 9.036 13.306 8.87133C13.35 8.578 13.3727 8.28466 13.3727 8C13.3727 7.71533 13.3507 7.42266 13.306 7.12866C13.2813 6.964 13.3393 6.79866 13.4613 6.686L14.5893 5.64866C14.64 5.60066 14.6533 5.51866 14.616 5.45266L13.5107 3.54133C13.4747 3.478 13.4027 3.45333 13.3293 3.47467L11.864 3.93733C11.7013 3.98867 11.526 3.954 11.3953 3.846C10.9387 3.46933 10.4387 3.17933 9.91 2.984C9.75134 2.92533 9.63267 2.79 9.59534 2.62467L9.256 1.118C9.238 1.05 9.17734 1 9.10867 1H6.89134C6.82267 1 6.762 1.05 6.74601 1.118L6.40667 2.62533C6.37 2.79067 6.25134 2.92533 6.09267 2.98467C5.564 3.18 5.064 3.47 4.60734 3.84667C4.47667 3.95467 4.30134 3.98867 4.13867 3.938L2.67134 3.47467C2.60201 3.45333 2.52734 3.478 2.49467 3.53667L1.38267 5.45866C1.34867 5.51866 1.36201 5.60067 1.41667 5.65266L2.54134 6.686C2.66401 6.79866 2.72201 6.964 2.69667 7.12866C2.65267 7.422 2.63001 7.71533 2.63001 8C2.63001 8.28466 2.65201 8.57733 2.69667 8.87133C2.72134 9.036 2.66334 9.20133 2.54134 9.314L1.41334 10.3513C1.36267 10.3993 1.34934 10.4813 1.38667 10.5473L2.49201 12.4587C2.52867 12.5227 2.60134 12.5487 2.67334 12.5253L4.13867 12.0627C4.18801 12.0467 4.23867 12.0393 4.28934 12.0393Z" fill="white"/>
<path d="M7.50069 10.6667C7.46269 10.6667 7.42535 10.6627 7.38735 10.654C7.11869 10.592 6.95069 10.3233 7.01269 10.0547L8.01269 5.72132C8.07469 5.45132 8.34669 5.28532 8.61202 5.34599C8.88069 5.40799 9.04869 5.67665 8.98669 5.94532L7.98669 10.2787C7.93335 10.5107 7.72802 10.6667 7.50069 10.6667Z" fill="white"/>
<path d="M10.1667 9.99997C10.03 9.99997 9.894 9.94464 9.79467 9.83464C9.61 9.6293 9.62667 9.3133 9.832 9.12797L11.086 7.99997L9.832 6.87197C9.62667 6.6873 9.61 6.3713 9.79467 6.1653C9.98 5.96064 10.296 5.94397 10.5013 6.12797L12.168 7.62797C12.2733 7.7233 12.3333 7.85864 12.3333 7.99997C12.3333 8.1413 12.2733 8.27664 12.168 8.37197L10.5013 9.87197C10.4053 9.95797 10.286 9.99997 10.1667 9.99997Z" fill="white"/>
<path d="M5.83335 9.99998C5.71402 9.99998 5.59468 9.95798 5.49869 9.87198L3.83202 8.37198C3.72669 8.27664 3.66669 8.14131 3.66669 7.99998C3.66669 7.85865 3.72669 7.72331 3.83202 7.62798L5.49869 6.12798C5.70402 5.94331 6.01935 5.95998 6.20535 6.16531C6.39002 6.37065 6.37335 6.68664 6.16802 6.87198L4.91402 7.99998L6.16802 9.12798C6.37335 9.31265 6.39002 9.62865 6.20535 9.83465C6.10602 9.94465 5.97002 9.99998 5.83335 9.99998Z" fill="white"/>
</svg>
