<svg width="15" height="20" viewBox="0 0 15 20" fill="none" xmlns="http://www.w3.org/2000/svg">
<path d="M13.5417 5.56356C12.7181 5.20016 11.6326 5 10.4853 5C9.33801 5 8.25256 5.20016 7.42887 5.56356C6.49087 5.97741 5.97428 6.57131 5.97428 7.23586V11.0231C5.53931 10.8861 5.07668 10.8121 4.59709 10.8121C2.06395 10.8121 0.00311279 12.8729 0.00311279 15.406C0.00311279 17.9391 2.06395 20 4.59709 20C6.33979 20 7.8589 19.0246 8.63729 17.5911C9.21315 17.7126 9.84462 17.7764 10.4853 17.7764C11.6326 17.7764 12.7181 17.5763 13.5417 17.2129C14.4798 16.7991 14.9963 16.2052 14.9963 15.5406V7.23586C14.9963 6.57131 14.4798 5.97741 13.5417 5.56356ZM7.78366 6.36767C8.49801 6.05249 9.45749 5.87891 10.4853 5.87891C11.5131 5.87891 12.4726 6.05249 13.187 6.36767C13.7609 6.62089 14.1174 6.95358 14.1174 7.23586C14.1174 7.51814 13.7609 7.8508 13.187 8.10405C12.4726 8.41922 11.5131 8.59281 10.4853 8.59281C9.45749 8.59281 8.49801 8.41922 7.78366 8.10405C7.20973 7.8508 6.85319 7.51816 6.85319 7.23586C6.85319 6.95355 7.20973 6.62089 7.78366 6.36767ZM4.59706 19.1211C2.54855 19.1211 0.881993 17.4545 0.881993 15.406C0.881993 13.3575 2.54855 11.691 4.59706 11.691C6.64553 11.691 8.31212 13.3575 8.31212 15.406C8.31212 17.4545 6.64556 19.1211 4.59706 19.1211ZM13.187 16.4088C12.4726 16.724 11.5131 16.8975 10.4853 16.8975C9.96655 16.8975 9.45678 16.8519 8.98601 16.7644C9.09986 16.3974 9.16862 16.0107 9.18625 15.611C9.60359 15.6698 10.0383 15.7003 10.4853 15.7003C11.6326 15.7003 12.7181 15.5001 13.5418 15.1367C13.7562 15.0421 13.9482 14.938 14.1175 14.8259V15.5406C14.1174 15.8229 13.7609 16.1556 13.187 16.4088ZM13.187 14.3326C12.4726 14.6478 11.5131 14.8213 10.4853 14.8213C10.0176 14.8213 9.5665 14.7852 9.13906 14.7148C9.07229 14.2742 8.9425 13.8541 8.75954 13.4636C9.30001 13.5686 9.88657 13.6241 10.4853 13.6241C11.6326 13.6241 12.7181 13.4239 13.5417 13.0605C13.7561 12.9659 13.9482 12.8618 14.1174 12.7498V13.4644C14.1174 13.7467 13.7609 14.0794 13.187 14.3326ZM13.187 12.2564C12.4726 12.5716 11.5131 12.7452 10.4853 12.7452C9.57661 12.7452 8.70921 12.6067 8.028 12.3546C7.69222 11.9775 7.29546 11.6559 6.85319 11.4055V10.6736C7.02241 10.7857 7.21451 10.8898 7.42887 10.9843C8.25256 11.3477 9.33801 11.5479 10.4853 11.5479C11.6326 11.5479 12.7181 11.3477 13.5417 10.9843C13.7561 10.8897 13.9482 10.7857 14.1174 10.6736V11.3882C14.1174 11.6705 13.7609 12.0032 13.187 12.2564ZM13.187 10.1802C12.4726 10.4954 11.5131 10.669 10.4853 10.669C9.45749 10.669 8.49801 10.4954 7.78366 10.1802C7.20973 9.92699 6.85319 9.59432 6.85319 9.31202V8.59738C7.02241 8.70947 7.21451 8.81356 7.42887 8.90816C8.25256 9.27156 9.33801 9.47169 10.4853 9.47169C11.6326 9.47169 12.7181 9.27156 13.5417 8.90816C13.7561 8.81356 13.9482 8.70947 14.1174 8.59738V9.31202C14.1174 9.59432 13.7609 9.92699 13.187 10.1802Z" fill="white"/>
<path d="M5.18416 14.9331H4.24153C4.02934 14.9331 3.85669 14.7605 3.85669 14.5483C3.85669 14.3361 4.02934 14.1634 4.24153 14.1634H5.83303V13.2845H5.03683V12.6916H4.15792V13.2876C3.49997 13.3308 2.97778 13.8796 2.97778 14.5483C2.97778 15.2451 3.54471 15.812 4.24153 15.812H5.18416C5.41476 15.812 5.60234 15.9996 5.60234 16.2302C5.60234 16.4608 5.41476 16.6484 5.18416 16.6484H3.15292V17.5273H4.15792V18.1203H5.03683V17.5273H5.18416C5.89938 17.5273 6.48125 16.9455 6.48125 16.2302C6.48125 15.515 5.89938 14.9331 5.18416 14.9331Z" fill="white"/>
<path d="M7.06675 3.64719C7.02267 3.69888 7 3.76123 7 3.82351C7 3.86829 7.01158 3.91344 7.03517 3.95506C7.09167 4.05469 7.20701 4.11763 7.33334 4.11763L8.66672 4.11763L8.66672 8.82347C8.66672 8.98604 8.81598 9.11758 9.00007 9.11758C9.18416 9.11758 9.33341 8.98604 9.33341 8.82347L9.33341 3.82351C9.33341 3.66094 9.18416 3.5294 9.00007 3.5294L8.00003 3.5294L10.3473 0.768102L12.9551 3.52947L11.6668 3.52947C11.4827 3.52947 11.3335 3.66102 11.3335 3.82359L11.3335 9.70589C11.3335 9.86846 11.4827 10 11.6668 10C11.8509 10 12.0002 9.86846 12.0002 9.70589L12.0002 4.1177L13.6669 4.1177C13.7963 4.1177 13.914 4.05167 13.9688 3.94822C14.023 3.84565 14.0059 3.72329 13.9229 3.63513L10.5895 0.105755C10.5242 0.0368585 10.4269 -0.00218501 10.3249 9.43806e-05C10.223 0.00237377 10.1279 0.0457555 10.0668 0.117887L7.06675 3.64719Z" fill="white"/>
</svg>
