<svg width="15" height="15" viewBox="0 0 15 15" fill="none" xmlns="http://www.w3.org/2000/svg">
<g clip-path="url(#clip0)">
<path d="M13.7695 5.27344H9.64909C9.66213 5.1289 9.66923 4.98253 9.66923 4.83456C9.66923 2.16877 7.50034 0 4.83456 0C3.9854 0 3.1501 0.223389 2.41894 0.645904C2.27886 0.726814 2.23091 0.906029 2.31182 1.0461C2.39285 1.18629 2.57206 1.23413 2.71214 1.15322C3.35426 0.782089 4.08817 0.585937 4.83456 0.585937C7.17728 0.585937 9.08329 2.49184 9.08329 4.83456C9.08329 7.17728 7.17728 9.08329 4.83456 9.08329C3.85391 9.08329 2.93266 8.75839 2.17037 8.14384C2.09393 8.08227 1.99265 8.06385 1.90041 8.09212L1.12278 8.29548L1.42742 7.626C1.47125 7.52987 1.45981 7.41772 1.39767 7.33223C0.866661 6.6029 0.585938 5.73921 0.585938 4.83456C0.585938 4.08623 0.783119 3.35049 1.1562 2.70699C1.23734 2.56691 1.18961 2.3877 1.04965 2.30656C0.909691 2.22542 0.730476 2.27303 0.649223 2.4131C0.224533 3.14575 0 3.98312 0 4.83456C0 5.80604 0.284615 6.73633 0.824776 7.5357L0.334282 8.61339C0.287361 8.71628 0.303955 8.8369 0.37674 8.92342C0.449524 9.00993 0.565567 9.04678 0.674973 9.01817L1.92089 8.69247C2.75608 9.32339 3.78479 9.66923 4.83456 9.66923C5.0631 9.66923 5.28774 9.65286 5.50781 9.62208V12.1875C5.50781 12.8659 6.05976 13.418 6.73817 13.418H10.8817L12.7344 14.9337C12.7877 14.9775 12.8535 14.9999 12.9199 14.9999C12.9626 14.9999 13.0054 14.9906 13.0453 14.9717C13.1477 14.9232 13.2129 14.8202 13.2129 14.7069V13.418H13.7695C14.4481 13.418 15 12.8659 15 12.1875V6.50391C15 5.82539 14.4481 5.27344 13.7695 5.27344ZM14.4141 12.1875C14.4141 12.5428 14.125 12.832 13.7695 12.832H12.9199C12.7581 12.832 12.627 12.9632 12.627 13.125V14.0887L11.18 12.9048C11.1002 12.832 11.0304 12.832 10.8735 12.832H6.73817C6.38283 12.832 6.09375 12.5428 6.09375 12.1875V9.50249C7.82673 9.03454 9.1769 7.62531 9.55948 5.85937H13.7695C14.125 5.85937 14.4141 6.14845 14.4141 6.50391V12.1875Z" fill="white"/>
<path d="M11.7115 10.2131C11.8109 10.1663 11.8798 10.0655 11.8798 9.94827C11.8798 9.78656 11.7486 9.6553 11.5868 9.6553H11.4669L10.522 7.50198C10.4752 7.39544 10.3699 7.32666 10.2537 7.32666C10.1374 7.32666 10.0321 7.39544 9.98542 7.50198L9.04059 9.6553H8.92066C8.75884 9.6553 8.62769 9.78656 8.62769 9.94827C8.62769 10.0655 8.69658 10.1663 8.79592 10.2131L8.44401 11.0151C8.37901 11.1633 8.44641 11.3361 8.5945 11.4011C8.7427 11.4661 8.91551 11.3987 8.98051 11.2505L9.4234 10.2412H11.0841L11.5269 11.2505C11.5751 11.3603 11.6826 11.4258 11.7954 11.4258C11.8347 11.4258 11.8746 11.4179 11.913 11.4011C12.061 11.3361 12.1286 11.1633 12.0634 11.0151L11.7115 10.2131ZM9.68043 9.6553L10.2537 8.34884L10.8269 9.6553H9.68043Z" fill="white"/>
<path d="M1.62335 1.9159C1.70037 1.9159 1.7759 1.88454 1.83049 1.83007C1.88496 1.77559 1.91632 1.70006 1.91632 1.62293C1.91632 1.54591 1.88496 1.47038 1.83049 1.41579C1.7759 1.36131 1.70037 1.32996 1.62335 1.32996C1.54599 1.32996 1.47069 1.36131 1.41621 1.41579C1.36174 1.47038 1.33038 1.54591 1.33038 1.62293C1.33038 1.70006 1.36174 1.77559 1.41621 1.83007C1.47069 1.88465 1.54622 1.9159 1.62335 1.9159Z" fill="white"/>
<path d="M3.08591 6.61758C2.94401 6.6954 2.89205 6.87347 2.96987 7.01538C3.0232 7.11254 3.12356 7.16759 3.22702 7.16759C3.27463 7.16759 3.32292 7.15591 3.36767 7.13142C4.02101 6.77311 4.52363 6.21578 4.81763 5.55855C5.11175 6.21578 5.61426 6.77311 6.2676 7.13142C6.31235 7.15591 6.36064 7.16759 6.40825 7.16759C6.5117 7.16759 6.61207 7.11254 6.6654 7.01538C6.74322 6.87347 6.69126 6.6954 6.54935 6.61758C5.78454 6.19816 5.26979 5.44857 5.14196 4.60159H6.44269C6.60451 4.60159 6.73566 4.47044 6.73566 4.30862C6.73566 4.1468 6.60451 4.01566 6.44269 4.01566H5.1106V2.7948C5.1106 2.63298 4.97945 2.50183 4.81763 2.50183C4.65581 2.50183 4.52466 2.63298 4.52466 2.7948V4.01566H3.46631C3.30449 4.01566 3.17335 4.1468 3.17335 4.30862C3.17335 4.47044 3.30449 4.60159 3.46631 4.60159H4.49331C4.36548 5.44857 3.85072 6.19827 3.08591 6.61758Z" fill="white"/>
</g>
<defs>
<clipPath id="clip0">
<rect width="15" height="15" fill="white"/>
</clipPath>
</defs>
</svg>
