<svg width="42" height="26" viewBox="0 0 42 26" fill="none" xmlns="http://www.w3.org/2000/svg">
<rect x="0.5" y="0.5" width="40.1337" height="24.0028" rx="1.5" fill="white" stroke="#808297"/>
<g clip-path="url(#clip0)">
<path d="M16.7435 7.32727L15.0839 17.655H17.7366L19.3952 7.32727H16.7435ZM24.745 11.5342C23.818 11.0764 23.2497 10.7675 23.2497 10.2992C23.2611 9.87355 23.7303 9.43742 24.7781 9.43742C25.6399 9.41577 26.2734 9.61831 26.7539 9.81982L26.9947 9.92727L27.3553 7.76646C26.8314 7.56392 26.0006 7.34076 24.9744 7.34076C22.3548 7.34076 20.5102 8.70275 20.4988 10.6507C20.4771 12.0882 21.8194 12.8859 22.8239 13.3644C23.8501 13.8553 24.1994 14.1735 24.1994 14.6096C24.1881 15.2793 23.3696 15.5882 22.606 15.5882C21.5478 15.5882 20.9794 15.4291 20.1166 15.056L19.7673 14.8968L19.3963 17.1424C20.0195 17.4194 21.1654 17.6632 22.3549 17.6757C25.1389 17.6757 26.9504 16.3343 26.9731 14.2583C26.9822 13.1195 26.2744 12.2472 24.745 11.5342ZM34.156 7.35923H32.1037C31.4712 7.35923 30.9907 7.54114 30.7168 8.19012L26.7765 17.655H29.5604L30.3272 15.6058H33.4419L33.8397 17.6632H36.2951L34.156 7.35923ZM31.0993 13.5378C31.153 13.543 32.1678 10.1927 32.1678 10.1927L32.9759 13.5378C32.9759 13.5378 31.6232 13.5378 31.0993 13.5378ZM12.8673 7.32727L10.2683 14.344L9.98521 12.9602C9.50465 11.3636 7.99803 9.62862 6.31665 8.76679L8.69654 17.6446H11.5033L15.674 7.3284H12.8673V7.32727Z" fill="#2394BC"/>
<path d="M9.11067 8.66268C8.90813 7.8752 8.26222 7.3441 7.38497 7.33276H3.26895L3.22656 7.52385C6.43734 8.31541 9.13232 10.7511 10.0066 13.0421L9.11067 8.66268Z" fill="#EFC75E"/>
</g>
<defs>
<clipPath id="clip0">
<rect width="33.0684" height="10.4851" fill="white" transform="translate(3.22656 7.25891)"/>
</clipPath>
</defs>
</svg>
