<svg width="40" height="40" viewBox="0 0 40 40" fill="none" xmlns="http://www.w3.org/2000/svg">
<path d="M21.3005 24.8355L11.0076 14.5427C10.5508 14.086 9.81037 14.086 9.35365 14.5427L6.69068 17.2057L5.12022 18.7762L2.85475 21.0416C2.39803 21.4984 2.39803 22.2388 2.85475 22.6955L13.1476 32.9884C13.6043 33.4451 14.3447 33.4451 14.8015 32.9884L21.3004 26.4895C21.7572 26.0327 21.7572 25.2923 21.3005 24.8355Z" fill="#FAE6CA"/>
<path d="M21.4661 24.67L11.1731 14.3771C10.6256 13.8297 9.735 13.8297 9.18766 14.3771L6.52484 17.04C6.43328 17.1314 6.43328 17.28 6.52484 17.3714C6.61641 17.463 6.76469 17.463 6.85625 17.3714L9.51906 14.7086C9.88375 14.3441 10.4769 14.3441 10.8416 14.7086L21.1345 25.0016C21.4991 25.3661 21.4991 25.9594 21.1345 26.3241L14.6355 32.823C14.2708 33.1875 13.6777 33.1875 13.313 32.823L3.02 22.5302C2.65547 22.1657 2.65547 21.5724 3.02 21.2077L5.28562 18.9421C5.37719 18.8507 5.37719 18.7021 5.28562 18.6107C5.19406 18.5191 5.04578 18.5191 4.95422 18.6107L2.68859 20.8763C2.42344 21.1414 2.27734 21.4939 2.27734 21.8689C2.27734 22.2439 2.42344 22.5964 2.68859 22.8616L12.9816 33.1546C13.2467 33.4197 13.5992 33.5657 13.9742 33.5657C14.3492 33.5657 14.7017 33.4197 14.9669 33.1546L21.4659 26.6557C21.7311 26.3905 21.8772 26.038 21.8772 25.663C21.8772 25.288 21.7312 24.935 21.4661 24.67Z" fill="#3A312A"/>
<path d="M13.8649 24.8802C14.2437 24.7971 14.6044 24.6101 14.899 24.3154C15.7199 23.4945 15.7199 22.1634 14.899 21.3423C14.1855 20.6288 13.0874 20.5362 12.273 21.0627C12.1913 20.9334 12.0955 20.8104 11.9829 20.6977C11.1619 19.8768 9.83084 19.8768 9.00975 20.6977C8.18881 21.5187 8.18881 22.8498 9.00975 23.6707C9.1224 23.7834 9.24537 23.8791 9.37475 23.9609C8.84834 24.7752 8.941 25.8734 9.65443 26.5868C10.4754 27.4077 11.8065 27.4077 12.6274 26.5868C12.9219 26.2921 13.1091 25.9315 13.1922 25.5527L13.8755 28.1029L16.4149 25.5635L13.8649 24.8802Z" fill="#87796F"/>
<path d="M16.6413 25.503C16.6196 25.4221 16.5565 25.3589 16.4755 25.3374L14.6071 24.8368C14.773 24.7383 14.9266 24.6193 15.0644 24.4814C15.9755 23.5703 15.9755 22.088 15.0644 21.1769C14.3451 20.4572 13.2322 20.2941 12.3418 20.7527C12.2813 20.6743 12.2166 20.6005 12.1485 20.5324C11.2374 19.6213 9.75506 19.6214 8.84396 20.5324C7.93287 21.4435 7.93287 22.9258 8.84396 23.8369C8.91209 23.905 8.98584 23.9696 9.06443 24.03C8.60584 24.9208 8.76896 26.0333 9.48865 26.7528C9.9299 27.1943 10.5168 27.4372 11.1408 27.4372C11.7649 27.4372 12.3518 27.1941 12.7932 26.7528C12.931 26.615 13.0501 26.4613 13.1485 26.2955L13.6491 28.1639C13.6708 28.2449 13.734 28.308 13.8147 28.3297C13.8347 28.3352 13.8552 28.3377 13.8754 28.3377C13.9368 28.3377 13.9966 28.3136 14.0412 28.2691L16.5805 25.7297C16.6399 25.6702 16.663 25.5839 16.6413 25.503ZM13.9968 27.6503L13.4185 25.4924C13.391 25.3897 13.298 25.3186 13.1922 25.3186C13.1904 25.3186 13.1885 25.3186 13.1868 25.3188C13.0788 25.3213 12.9863 25.3972 12.9632 25.5028C12.8865 25.8522 12.713 26.1699 12.4616 26.4214C12.1088 26.7743 11.6397 26.9685 11.1408 26.9685C10.6419 26.9685 10.1729 26.7741 9.82006 26.4214C9.20193 25.8032 9.0974 24.8221 9.57162 24.0885C9.60553 24.036 9.61709 23.9719 9.60365 23.9108C9.59021 23.8497 9.55287 23.7966 9.50006 23.7632C9.37959 23.6869 9.27037 23.6002 9.17537 23.5053C8.44709 22.7771 8.44709 21.5919 9.17537 20.8636C9.90365 20.1355 11.0887 20.1354 11.8171 20.8636C11.9121 20.9586 11.9988 21.0679 12.0747 21.1882C12.1082 21.241 12.1613 21.2785 12.2224 21.2919C12.2837 21.3052 12.3474 21.2938 12.4001 21.2599C13.1335 20.7857 14.1147 20.8902 14.733 21.5083C15.4613 22.2366 15.4613 23.4218 14.733 24.15C14.4816 24.4014 14.164 24.5749 13.8144 24.6516C13.709 24.6747 13.6329 24.7672 13.6304 24.8752C13.6279 24.9832 13.6996 25.0789 13.804 25.1069L15.9619 25.6852L13.9968 27.6503Z" fill="#3A312A"/>
<path d="M24.2566 26.0845L21.558 11.7806C21.4383 11.1459 20.8266 10.7284 20.1919 10.8481L11.1605 12.552C10.5258 12.6717 10.1083 13.2834 10.228 13.9181L12.9266 28.222C13.0463 28.8567 13.658 29.2742 14.2927 29.1545L23.3242 27.4506C23.9589 27.3309 24.3764 26.7194 24.2566 26.0845Z" fill="#FAE6CA"/>
<path d="M24.4868 26.0413L21.7882 11.7372C21.6446 10.9766 20.9084 10.4744 20.1484 10.618L11.117 12.3218C10.3562 12.4652 9.85417 13.2008 9.99761 13.9616L12.6962 28.2657C12.8232 28.9388 13.4139 29.4094 14.0754 29.4094C14.1614 29.4094 14.2485 29.4014 14.3362 29.385L23.3678 27.6811C23.7361 27.6116 24.0554 27.4027 24.267 27.093C24.4782 26.7832 24.5564 26.4096 24.4868 26.0413ZM23.8796 26.8286C23.739 27.0349 23.5262 27.1741 23.2807 27.2204L14.2492 28.9243C13.7421 29.0196 13.2525 28.6854 13.1568 28.1786L10.4582 13.8747C10.3626 13.368 10.6971 12.878 11.2039 12.7824L20.2354 11.0785C20.2937 11.0674 20.3518 11.0622 20.4092 11.0622C20.8496 11.0622 21.2431 11.3757 21.3278 11.8241L24.0262 26.128C24.0725 26.3735 24.0204 26.6224 23.8796 26.8286Z" fill="#3A312A"/>
<path d="M20.8953 19.3676C20.5974 17.7887 18.4396 16.3623 16.6921 15.7569C16.5259 15.6992 16.3412 15.734 16.2073 15.8483C14.8006 17.0489 13.3109 19.1633 13.6087 20.7423C13.8968 22.2697 15.4462 23.3326 17.1257 22.189L16.2815 24.5975L19.8106 23.9317L18.1468 21.9964C20.1278 22.4494 21.1834 20.895 20.8953 19.3676Z" fill="#87796F"/>
<path d="M21.1258 19.3242C20.8238 17.7233 18.7056 16.2064 16.7692 15.5353C16.5255 15.4509 16.2519 15.5023 16.0555 15.67C14.4967 17.0003 13.0767 19.1848 13.3788 20.7858C13.5469 21.6767 14.1205 22.4248 14.8758 22.7381C15.4489 22.9758 16.0813 22.9562 16.7024 22.69L16.0609 24.52C16.0333 24.599 16.0499 24.6867 16.1044 24.7503C16.1494 24.8025 16.2145 24.8319 16.2822 24.8319C16.2966 24.8319 16.3113 24.8306 16.3256 24.8278L19.8547 24.162C19.9369 24.1464 20.0047 24.0883 20.0324 24.0092C20.06 23.9301 20.0434 23.8425 19.9889 23.7789L18.7249 22.3084C19.3997 22.3301 19.9963 22.118 20.4431 21.6878C21.0322 21.1209 21.2939 20.2151 21.1258 19.3242ZM18.1995 21.768C18.1008 21.7453 17.9988 21.7887 17.9466 21.8755C17.8942 21.9622 17.9036 22.0726 17.9694 22.1494L19.3686 23.7769L16.6374 24.2922L17.3474 22.2667C17.3808 22.1712 17.3492 22.065 17.2689 22.0033C17.2269 21.9709 17.1766 21.9547 17.1261 21.9547C17.0802 21.9547 17.0341 21.9681 16.9942 21.9953C16.1538 22.5676 15.4759 22.4798 15.0553 22.3051C14.4444 22.0517 13.9783 21.4362 13.8392 20.6989C13.6356 19.6197 14.4359 17.6683 16.3595 16.0265C16.4299 15.9664 16.5281 15.9478 16.6155 15.9783C19.0052 16.8064 20.4616 18.332 20.665 19.4111C20.8041 20.1484 20.5944 20.8915 20.1177 21.3501C19.79 21.6659 19.1908 21.9948 18.1995 21.768Z" fill="#3A312A"/>
<path d="M28.8843 12.5893L19.8633 10.8304C19.2293 10.7068 18.6151 11.1206 18.4915 11.7545L15.7059 26.0418C15.5823 26.6757 15.9961 27.29 16.63 27.4135L25.6511 29.1725C26.285 29.296 26.8992 28.8823 27.0228 28.2484L29.8084 13.961C29.932 13.3271 29.5183 12.7129 28.8843 12.5893Z" fill="#FAE6CA"/>
<path d="M29.8247 12.9528C29.6152 12.6417 29.2971 12.431 28.9291 12.3592L19.9081 10.6003C19.5403 10.5286 19.1661 10.6044 18.8552 10.8139C18.5441 11.0235 18.3333 11.3416 18.2616 11.7095L15.4758 25.9969C15.3277 26.7567 15.8253 27.4953 16.585 27.6435L25.606 29.4024C25.6963 29.42 25.7863 29.4285 25.8752 29.4285C26.5331 29.4285 27.1222 28.9625 27.2527 28.2931L30.0383 14.0058C30.1102 13.6378 30.0344 13.2638 29.8247 12.9528ZM29.5783 13.9161L26.7927 28.2035C26.6941 28.7097 26.2011 29.0414 25.6958 28.9424L16.6749 27.1835C16.1688 27.0847 15.8374 26.5927 15.936 26.0867L18.7216 11.7995C18.7694 11.5544 18.9099 11.3425 19.117 11.203C19.3242 11.0633 19.5735 11.0127 19.8185 11.0606L28.8394 12.8195C29.0846 12.8674 29.2966 13.0078 29.4361 13.215C29.5755 13.4219 29.6261 13.671 29.5783 13.9161Z" fill="#3A312A"/>
<path d="M23.5571 15.7271L19.3643 19.3125L21.9588 24.2756L26.1514 20.6903L23.5571 15.7271Z" fill="#87796F"/>
<path d="M26.3586 20.5818L23.7642 15.6185C23.7312 15.5552 23.6711 15.5105 23.6009 15.497C23.5308 15.4834 23.4584 15.5026 23.4042 15.549L19.2114 19.1343C19.1284 19.2054 19.1055 19.3241 19.1561 19.421L21.7506 24.3843C21.7837 24.4476 21.8437 24.4923 21.9139 24.5059C21.9287 24.5088 21.9434 24.5101 21.9583 24.5101C22.0136 24.5101 22.0678 24.4905 22.1106 24.4538L26.3033 20.8685C26.3862 20.7974 26.4094 20.6787 26.3586 20.5818ZM22.0297 23.9063L19.658 19.3693L23.4852 16.0965L25.8569 20.6335L22.0297 23.9063Z" fill="#3A312A"/>
<path d="M37.1456 21.0416L30.6467 14.5427C30.19 14.086 29.4495 14.086 28.9928 14.5427L18.7 24.8355C18.2432 25.2923 18.2432 26.0327 18.7 26.4895L25.1989 32.9884C25.6556 33.4451 26.3961 33.4451 26.8528 32.9884L37.1456 22.6955C37.6023 22.2388 37.6023 21.4984 37.1456 21.0416Z" fill="#FAE6CA"/>
<path d="M37.3108 20.8758L30.8119 14.3769C30.5468 14.1118 30.1943 13.9658 29.8193 13.9658C29.4443 13.9658 29.0918 14.1118 28.8266 14.3769L27.4863 15.7172C27.3947 15.8086 27.3947 15.9572 27.4863 16.0486C27.5779 16.1402 27.7262 16.1402 27.8177 16.0486L29.158 14.7083C29.5226 14.3439 30.1157 14.3438 30.4805 14.7083L36.9794 21.2074C37.1562 21.3839 37.2535 21.6188 37.2535 21.8686C37.2535 22.1185 37.1562 22.3533 36.9794 22.5299L26.6866 32.8227C26.3221 33.1872 25.729 33.1874 25.3641 32.8227L18.8652 26.3238C18.6887 26.1472 18.5913 25.9124 18.5913 25.6625C18.5913 25.4127 18.6885 25.1779 18.8652 25.0013L26.2746 17.5918C26.3662 17.5004 26.3662 17.3518 26.2746 17.2604C26.183 17.1688 26.0347 17.1688 25.9432 17.2604L18.5338 24.6699C18.2687 24.935 18.1226 25.2875 18.1226 25.6625C18.1226 26.0375 18.2687 26.39 18.5338 26.6552L25.0327 33.1541C25.2979 33.4193 25.6504 33.5652 26.0252 33.5652C26.4002 33.5652 26.7527 33.4193 27.018 33.1541L37.3108 22.8613C37.576 22.5961 37.7222 22.2435 37.7222 21.8685C37.7222 21.4935 37.576 21.141 37.3108 20.8758Z" fill="#3A312A"/>
<path d="M30.1518 21.5359C29.5208 18.8156 27.1544 18.7025 25.8213 20.0356C24.5579 21.2991 24.6005 24.1753 25.1399 26.1599C25.1913 26.3488 25.3389 26.4966 25.5279 26.5478C27.5125 27.0872 30.3886 27.1299 31.6521 25.8664C32.9852 24.5333 32.8719 22.1669 30.1518 21.5359Z" fill="#87796F"/>
<path d="M32.6247 23.285C32.355 22.3432 31.5483 21.6571 30.3459 21.3424C30.0311 20.14 29.3452 19.3333 28.4031 19.0638C27.472 18.7974 26.4197 19.1064 25.6561 19.87C24.382 21.1441 24.3186 24.0296 24.9142 26.2214C24.987 26.4896 25.1988 26.7014 25.4669 26.7741C26.3188 27.0057 27.2753 27.1377 28.2016 27.1377C29.6581 27.1377 31.0394 26.8111 31.8183 26.0322C32.582 25.2685 32.8909 24.2158 32.6247 23.285ZM31.487 25.7007C30.6178 26.5696 28.3134 27.0619 25.5898 26.3216C25.4817 26.2922 25.3961 26.2067 25.3666 26.0983C24.6264 23.3747 25.1188 21.0702 25.9877 20.2013C26.4809 19.7078 27.1111 19.4382 27.7242 19.4382C27.9106 19.4382 28.0955 19.4632 28.2744 19.5142C29.0816 19.7452 29.6673 20.4819 29.9242 21.5888C29.9444 21.676 30.0123 21.7439 30.0995 21.7642C31.2064 22.021 31.9431 22.6069 32.1741 23.4139C32.3934 24.1811 32.1303 25.0574 31.487 25.7007Z" fill="#3A312A"/>
<path d="M7.40365 8.18091C7.25146 9.98778 5.36865 10.2731 5.36865 10.2731C6.98537 10.3492 7.38818 12.4698 7.38818 12.4698C7.42272 10.9578 9.46959 10.2508 9.46959 10.2508C7.93631 10.159 7.40365 8.18091 7.40365 8.18091Z" fill="#D6DF58"/>
<path d="M9.48364 10.0168C8.13911 9.93638 7.63474 8.13809 7.62989 8.11981C7.60005 8.00997 7.49521 7.93809 7.38255 7.94762C7.26927 7.95794 7.17974 8.04794 7.17021 8.16122C7.03583 9.75731 5.40255 10.0306 5.33364 10.0414C5.21443 10.0593 5.12849 10.1648 5.13458 10.2853C5.14083 10.4056 5.23724 10.5015 5.35771 10.5073C6.76833 10.5737 7.15427 12.4945 7.15802 12.5139C7.17943 12.625 7.27661 12.704 7.38802 12.704C7.39458 12.704 7.40114 12.7037 7.40771 12.7033C7.52708 12.6933 7.61974 12.595 7.62255 12.4753C7.65302 11.1458 9.52755 10.4789 9.54646 10.4723C9.65193 10.4356 9.71708 10.3295 9.70177 10.2187C9.68646 10.1081 9.59521 10.0236 9.48364 10.0168ZM7.36396 11.6334C7.15193 11.1443 6.78443 10.5542 6.17849 10.2465C6.63646 10.027 7.17989 9.63512 7.46005 8.95387C7.70239 9.43372 8.11614 10.0289 8.76224 10.3168C8.29239 10.5731 7.68052 11.0051 7.36396 11.6334Z" fill="#3A312A"/>
<path d="M4.01359 10.8342C3.90594 12.1122 2.57422 12.3141 2.57422 12.3141C3.71766 12.3678 4.00266 13.8678 4.00266 13.8678C4.02703 12.7984 5.47485 12.2983 5.47485 12.2983C4.39016 12.2333 4.01359 10.8342 4.01359 10.8342Z" fill="#D6DF58"/>
<path d="M5.48876 12.0641C4.58766 12.0102 4.24298 10.7852 4.23969 10.7727C4.21001 10.663 4.10641 10.5905 3.99251 10.6005C3.87907 10.6107 3.78954 10.701 3.78001 10.8143C3.68954 11.8879 2.58532 12.0747 2.53907 12.0821C2.41985 12.1001 2.33391 12.2055 2.34016 12.326C2.34641 12.4463 2.44282 12.5422 2.56329 12.548C3.50626 12.5924 3.77016 13.8987 3.77251 13.9115C3.7936 14.0227 3.8911 14.1021 4.00266 14.1021C4.00907 14.1021 4.01563 14.1019 4.02219 14.1013C4.14173 14.0915 4.23438 13.9929 4.2372 13.873C4.25751 12.981 5.53891 12.5241 5.55157 12.5197C5.65719 12.4832 5.72251 12.3771 5.7072 12.2663C5.69173 12.1554 5.60048 12.0708 5.48876 12.0641ZM3.9911 13.1258C3.84673 12.8312 3.62548 12.5091 3.29626 12.3008C3.5861 12.1382 3.87391 11.8901 4.05719 11.5327C4.22235 11.8255 4.47204 12.1505 4.82923 12.349C4.54048 12.5208 4.20626 12.7771 3.9911 13.1258Z" fill="#3A312A"/>
<path d="M4.01359 6.66895C3.90594 7.94691 2.57422 8.14879 2.57422 8.14879C3.71766 8.20254 4.00266 9.70254 4.00266 9.70254C4.02703 8.63301 5.47485 8.13301 5.47485 8.13301C4.39016 8.06801 4.01359 6.66895 4.01359 6.66895Z" fill="#D6DF58"/>
<path d="M5.48876 7.89884C4.58766 7.84493 4.24298 6.61993 4.2397 6.60743C4.21001 6.49775 4.10641 6.42525 3.99251 6.43525C3.87907 6.4454 3.78954 6.53571 3.78001 6.649C3.68954 7.72259 2.58532 7.90946 2.53907 7.91681C2.41985 7.93478 2.33391 8.04025 2.34016 8.16071C2.34641 8.28103 2.44282 8.37696 2.56313 8.38275C3.50626 8.42712 3.77001 9.73337 3.77251 9.74618C3.7936 9.85743 3.8911 9.93681 4.00266 9.93681C4.00907 9.93681 4.01563 9.9365 4.0222 9.93603C4.14173 9.92603 4.23438 9.82759 4.2372 9.70775C4.25751 8.81571 5.53907 8.35868 5.55157 8.35431C5.65735 8.31775 5.72251 8.21165 5.7072 8.10087C5.69173 7.99025 5.60048 7.90556 5.48876 7.89884ZM3.9911 8.96071C3.84673 8.66603 3.62548 8.344 3.29626 8.13571C3.5861 7.9729 3.87391 7.72478 4.05735 7.36743C4.22251 7.66025 4.47204 7.9854 4.82938 8.18368C4.54048 8.35571 4.20626 8.61196 3.9911 8.96071Z" fill="#3A312A"/>
<path d="M36.9796 21.2078L30.4812 14.7078C30.3046 14.5312 30.0687 14.4343 29.8187 14.4343C29.5702 14.4343 29.3343 14.5312 29.1577 14.7078L28.6468 15.2187L34.6358 21.2078C34.8124 21.3843 34.9093 21.6187 34.9093 21.8687C34.9093 22.1187 34.8124 22.3531 34.6358 22.5296L32.6608 24.5046C32.5468 25.0578 32.2577 25.5937 31.8187 26.0328C31.4358 26.414 30.9093 26.6875 30.2999 26.8656L24.853 32.3125L25.364 32.8234C25.7296 33.1875 26.3218 33.1875 26.6858 32.8234L36.9796 22.5296C37.1562 22.3531 37.253 22.1187 37.253 21.8687C37.253 21.6187 37.1562 21.3843 36.9796 21.2078Z" fill="#DDC9AC"/>
</svg>
