<svg width="67" height="67" viewBox="0 0 67 67" fill="none" xmlns="http://www.w3.org/2000/svg">
<g clip-path="url(#clip0)">
<path d="M33.7098 24.0096C33.8965 26.6301 31.2652 27.4599 31.2652 27.4599C33.5965 27.207 34.6478 30.1523 34.6478 30.1523C34.3587 27.9802 37.1304 26.51 37.1304 26.51C34.9149 26.7219 33.7098 24.0096 33.7098 24.0096Z" fill="#D5DC57"/>
<path d="M37.0975 26.1717C35.1548 26.3575 34.0303 23.8963 34.0193 23.8712C33.9523 23.7208 33.787 23.6401 33.6265 23.6801C33.4666 23.7202 33.3586 23.8691 33.3703 24.0334C33.5355 26.3482 31.2585 27.1048 31.1622 27.1354C30.9956 27.188 30.8962 27.3582 30.9321 27.529C30.968 27.7001 31.1275 27.8158 31.3012 27.7969C33.3353 27.5764 34.3179 30.2395 34.3274 30.2667C34.3832 30.4208 34.54 30.5123 34.6994 30.4873C34.7088 30.4859 34.7182 30.4839 34.7275 30.4818C34.8963 30.4407 35.0067 30.2793 34.9839 30.1072C34.7295 28.1973 37.2637 26.823 37.2895 26.8094C37.4325 26.7334 37.5018 26.5668 37.4551 26.4118C37.4079 26.2568 37.2586 26.1562 37.0975 26.1717ZM34.4251 28.9602C34.0123 28.3074 33.3539 27.5449 32.4177 27.2401C33.0242 26.8236 33.7141 26.1408 33.9627 25.1032C34.417 25.7358 35.1427 26.4951 36.132 26.7626C35.5165 27.2342 34.7376 27.9898 34.4251 28.9602Z" fill="#3A312A"/>
<path d="M29.451 28.5665C29.583 30.4199 27.7218 31.0068 27.7218 31.0068C29.3707 30.828 30.1144 32.9111 30.1144 32.9111C29.9099 31.3749 31.8704 30.3349 31.8704 30.3349C30.3034 30.4848 29.451 28.5665 29.451 28.5665Z" fill="#D5DC57"/>
<path d="M31.8372 29.997C30.5353 30.1216 29.7678 28.4449 29.7604 28.428C29.6933 28.2776 29.5264 28.2004 29.368 28.2369C29.2079 28.2768 29.0997 28.4261 29.1114 28.5904C29.2222 30.1472 27.6834 30.6617 27.6188 30.6826C27.4522 30.7352 27.3528 30.9054 27.3887 31.0762C27.4246 31.2473 27.5841 31.363 27.7578 31.3441C29.1175 31.1965 29.7877 33.0075 29.794 33.0253C29.8493 33.18 30.0064 33.2716 30.1661 33.2467C30.1753 33.2452 30.1846 33.2433 30.1939 33.2412C30.3628 33.2003 30.4734 33.0387 30.4505 32.8663C30.28 31.5851 32.0119 30.644 32.029 30.6349C32.1721 30.5589 32.2416 30.3925 32.1951 30.2373C32.1481 30.0822 31.9983 29.9814 31.8372 29.997ZM29.931 31.852C29.6584 31.4625 29.2696 31.0511 28.7517 30.8266C29.1302 30.5289 29.4866 30.1091 29.6693 29.5567C29.9712 29.9389 30.4012 30.3485 30.9571 30.5523C30.5818 30.8631 30.161 31.3047 29.931 31.852Z" fill="#3A312A"/>
<path d="M28.5091 22.6059C28.6484 24.4588 26.7895 25.0529 26.7895 25.0529C28.4375 24.8676 29.1895 26.948 29.1895 26.948C28.9792 25.4125 30.9355 24.3649 30.9355 24.3649C29.369 24.5207 28.5091 22.6059 28.5091 22.6059Z" fill="#D5DC57"/>
<path d="M30.9032 24.0269C29.6078 24.1562 28.8348 22.4983 28.8202 22.4667C28.7527 22.3164 28.585 22.2356 28.4271 22.2768C28.2671 22.3172 28.1596 22.4666 28.1721 22.6313C28.289 24.1878 26.7521 24.7086 26.6876 24.7297C26.5213 24.783 26.4224 24.9536 26.4587 25.1241C26.4953 25.295 26.6553 25.41 26.829 25.3906C28.1883 25.2379 28.8654 27.0459 28.8716 27.0637C28.9273 27.2177 29.0841 27.3087 29.2433 27.2838C29.253 27.2823 29.2627 27.2803 29.2724 27.2778C29.441 27.2364 29.5511 27.0743 29.5276 26.902C29.3518 25.6212 31.0804 24.6733 31.0973 24.6643C31.2402 24.5878 31.309 24.4211 31.2619 24.266C31.2145 24.1109 31.0643 24.0109 30.9032 24.0269ZM29.0042 25.8895C28.73 25.5012 28.3398 25.0911 27.8208 24.8687C28.1984 24.5695 28.553 24.1484 28.7334 23.595C29.0368 23.976 29.4685 24.3837 30.0253 24.5856C29.6511 24.898 29.232 25.3414 29.0042 25.8895Z" fill="#3A312A"/>
<path d="M48.4536 9.75713L41.869 10.7868C46.8217 13.9005 50.5264 19.2902 51.548 25.8234C52.6924 33.1412 50.1966 40.1197 45.4863 44.631L43.0149 46.6282C40.8547 48.0906 38.3775 49.1028 35.6727 49.5258C25.1159 51.1767 15.1085 43.242 13.3195 31.8017C12.2979 25.2685 14.1803 19.0051 17.9459 14.5281L11.3615 15.5577C8.07367 21.0094 6.6125 27.7979 7.71105 34.823C10.0559 49.8175 23.1708 60.2174 37.0065 58.0538C50.8423 55.8902 60.1562 41.9829 57.8114 26.9884C56.7128 19.9634 53.2489 13.945 48.4536 9.75713Z" fill="#D4DB56"/>
<path d="M48.6781 9.50104C48.6025 9.43496 48.5015 9.40585 48.4024 9.42134L41.8178 10.451C41.6778 10.4729 41.5661 10.5795 41.5379 10.7182C41.5091 10.8567 41.5696 10.9987 41.6895 11.0739C46.7708 14.2687 50.2424 19.6638 51.2138 25.8758C52.3039 32.8469 50.0755 39.7666 45.2528 44.3855C45.1173 44.5153 45.1126 44.7301 45.2424 44.8656C45.3721 45.0014 45.5875 45.0062 45.7225 44.876C50.7056 40.1034 53.0095 32.9613 51.885 25.7708C50.931 19.6702 47.6353 14.3313 42.7906 10.9865L48.3504 10.1171C53.201 14.404 56.4399 20.4076 57.4772 27.041C59.7891 41.8255 50.5831 55.5874 36.9554 57.7184C23.3277 59.8495 10.3598 49.5549 8.04782 34.7704C7.01051 28.137 8.2619 21.4313 11.5722 15.8681L17.132 14.9987C13.54 19.663 12.0315 25.753 12.9855 31.8538C14.8005 43.4603 25.0021 51.5381 35.7267 49.861C38.4187 49.44 40.9353 48.4468 43.2066 46.9093C43.3619 46.8039 43.4025 46.593 43.2976 46.4377C43.1926 46.2825 42.9808 46.2421 42.826 46.3467C40.638 47.8281 38.2142 48.7846 35.6217 49.19C25.2671 50.8092 15.4136 42.9852 13.6565 31.7489C12.6851 25.5371 14.3439 19.3398 18.2072 14.746C18.2985 14.6378 18.3127 14.4841 18.243 14.361C18.1735 14.2376 18.0349 14.1701 17.8949 14.192L11.3103 15.2217C11.2112 15.2372 11.1239 15.2958 11.072 15.3818C7.61877 21.1077 6.30651 28.0308 7.37683 34.8753C9.74664 50.0298 23.0626 60.5781 37.0603 58.3892C51.058 56.2003 60.5179 42.0903 58.1481 26.9359C57.0778 20.0914 53.7146 13.8994 48.6781 9.50104Z" fill="#3A312A"/>
<path d="M17.9806 9.91267L9.33832 11.2641C8.4515 11.4028 7.84483 12.2341 7.98355 13.1212L8.19018 14.4425C8.32886 15.3294 9.16016 15.936 10.0472 15.7973L18.6895 14.4459C19.5763 14.3072 20.183 13.4759 20.0443 12.5888L19.8376 11.2674C19.6989 10.3804 18.8677 9.77396 17.9806 9.91267Z" fill="#D4DB56"/>
<path d="M17.9294 9.57701L15.1148 10.0171C14.9296 10.0461 14.8028 10.2199 14.8318 10.4051C14.8608 10.5903 15.0346 10.7171 15.2198 10.6881L18.0343 10.248C18.7348 10.1384 19.3938 10.6192 19.5034 11.3197L19.71 12.6411C19.8196 13.3416 19.3388 14.0006 18.6383 14.1102L9.99598 15.4616C9.29547 15.5712 8.63646 15.0904 8.52691 14.3899L8.32028 13.0685C8.21073 12.368 8.69151 11.709 9.39202 11.5995L12.1319 11.171C12.3171 11.142 12.4439 10.9682 12.4149 10.783C12.3859 10.5979 12.2121 10.4711 12.027 10.5L9.28709 10.9285C8.21664 11.0959 7.4819 12.103 7.64929 13.1734L7.85593 14.4948C8.02332 15.5653 9.03046 16.3 10.1009 16.1326L18.7432 14.7812C19.8137 14.6138 20.5484 13.6066 20.381 12.5362L20.1744 11.2148C20.007 10.1444 18.9998 9.40961 17.9294 9.57701Z" fill="#3A312A"/>
<path d="M49.0705 5.05098L40.4282 6.40244C39.5413 6.54112 38.9347 7.37241 39.0734 8.25946L39.28 9.58086C39.4187 10.4677 40.25 11.0743 41.137 10.9356L49.7794 9.58416C50.6662 9.44549 51.2728 8.61419 51.1341 7.72714L50.9275 6.40575C50.7888 5.5187 49.9575 4.91227 49.0705 5.05098Z" fill="#D4DB56"/>
<path d="M49.0173 4.71531L40.375 6.06677C39.3045 6.23417 38.5698 7.2413 38.7372 8.31175L38.9438 9.63314C39.1112 10.7036 40.1183 11.4383 41.1888 11.2709L49.8313 9.91945C50.9018 9.75205 51.6365 8.74492 51.4691 7.67447L51.2625 6.35308C51.0949 5.28266 50.0877 4.54792 49.0173 4.71531ZM50.7979 7.77943C50.9075 8.47994 50.4267 9.13895 49.7262 9.2485L41.0839 10.6C40.3834 10.7095 39.7243 10.2287 39.6148 9.52822L39.4082 8.20682C39.2986 7.50631 39.7794 6.8473 40.4799 6.73776L49.1224 5.38626C49.8229 5.27672 50.482 5.75749 50.5915 6.458L50.7981 7.7794L50.7979 7.77943Z" fill="#3A312A"/>
<path d="M53.9023 39.528C54.6435 39.4121 55.1503 38.7174 55.0344 37.9762C54.9185 37.2351 54.2237 36.7282 53.4826 36.8441C52.7414 36.96 52.2346 37.6548 52.3505 38.3959C52.4664 39.1371 53.1612 39.6439 53.9023 39.528Z" fill="#87796F"/>
<path d="M53.4294 36.5089C52.5044 36.6536 51.8696 37.5236 52.0143 38.4487C52.1589 39.3738 53.029 40.0085 53.9541 39.8639C54.8791 39.7192 55.5139 38.8491 55.3692 37.9241C55.2245 36.999 54.3545 36.3643 53.4294 36.5089ZM53.8491 39.1929C53.2942 39.2796 52.772 38.8987 52.6853 38.3438C52.5985 37.7889 52.9794 37.2667 53.5343 37.1799C54.0893 37.0931 54.6114 37.4741 54.6982 38.029C54.785 38.5839 54.404 39.1061 53.8491 39.1929Z" fill="#3A312A"/>
<path d="M15.2617 45.5705C16.0028 45.4546 16.5097 44.7599 16.3938 44.0187C16.2779 43.2775 15.5831 42.7707 14.842 42.8866C14.1008 43.0025 13.594 43.6973 13.7099 44.4384C13.8258 45.1796 14.5205 45.6864 15.2617 45.5705Z" fill="#87796F"/>
<path d="M14.7907 42.5514C13.8657 42.6961 13.2309 43.5661 13.3756 44.4912C13.5203 45.4163 14.3903 46.051 15.3154 45.9063C16.2404 45.7617 16.8752 44.8916 16.7305 43.9666C16.5859 43.0415 15.7158 42.4067 14.7907 42.5514ZM15.2105 45.2353C14.6555 45.3221 14.1334 44.9412 14.0466 44.3863C13.9598 43.8314 14.3408 43.3092 14.8957 43.2224C15.4506 43.1356 15.9728 43.5166 16.0595 44.0715C16.1463 44.6264 15.7656 45.1485 15.2105 45.2353Z" fill="#3A312A"/>
<path d="M50.748 17.3375C51.4892 17.2216 51.996 16.5268 51.8801 15.7857C51.7642 15.0445 51.0695 14.5377 50.3283 14.6535C49.5871 14.7694 49.0803 15.4642 49.1962 16.2054C49.3121 16.9465 50.0069 17.4534 50.748 17.3375Z" fill="#87796F"/>
<path d="M50.2751 14.3179C49.3501 14.4625 48.7153 15.3326 48.86 16.2577C49.0046 17.1827 49.8747 17.8175 50.7998 17.6728C51.7248 17.5282 52.3596 16.6581 52.2149 15.733C52.0702 14.808 51.2002 14.1732 50.2751 14.3179ZM50.6948 17.0018C50.1399 17.0886 49.6177 16.7076 49.531 16.1527C49.4442 15.5978 49.8251 15.0756 50.38 14.9889C50.935 14.9021 51.4571 15.2831 51.5439 15.838C51.6307 16.3929 51.2497 16.9151 50.6948 17.0018Z" fill="#3A312A"/>
<path d="M11.4746 23.3645C12.2157 23.2486 12.7226 22.5538 12.6067 21.8126C12.4908 21.0715 11.796 20.5646 11.0549 20.6805C10.3137 20.7964 9.80685 21.4912 9.92274 22.2324C10.0386 22.9735 10.7334 23.4804 11.4746 23.3645Z" fill="#87796F"/>
<path d="M11.0017 20.3451C10.0766 20.4898 9.44188 21.3598 9.58654 22.2849C9.7312 23.21 10.6013 23.8447 11.5263 23.7C12.4514 23.5554 13.0861 22.6853 12.9415 21.7603C12.7968 20.8352 11.9268 20.2004 11.0017 20.3451ZM11.4214 23.0291C10.8665 23.1158 10.3443 22.7349 10.2575 22.18C10.1707 21.6251 10.5517 21.1029 11.1066 21.0161C11.6615 20.9293 12.1837 21.3103 12.2705 21.8652C12.3573 22.4201 11.9765 22.9422 11.4214 23.0291Z" fill="#3A312A"/>
<path d="M54.8164 28.1579C55.5575 28.042 56.0644 27.3473 55.9485 26.6061C55.8326 25.865 55.1378 25.3581 54.3967 25.474C53.6555 25.5899 53.1486 26.2847 53.2645 27.0258C53.3804 27.767 54.0752 28.2738 54.8164 28.1579Z" fill="#87796F"/>
<path d="M54.3435 25.1386C53.4184 25.2832 52.7837 26.1533 52.9283 27.0783C53.073 28.0034 53.943 28.6382 54.8681 28.4935C55.7932 28.3488 56.4279 27.4788 56.2833 26.5537C56.1386 25.6286 55.2685 24.9939 54.3435 25.1386ZM54.7632 27.8225C54.2083 27.9093 53.6861 27.5283 53.5993 26.9734C53.5125 26.4185 53.8935 25.8963 54.4484 25.8095C55.0033 25.7228 55.5255 26.1037 55.6123 26.6586C55.6991 27.2135 55.3181 27.7357 54.7632 27.8225Z" fill="#3A312A"/>
<path d="M10.9218 35.0221C11.663 34.9062 12.1699 34.2114 12.054 33.4702C11.9381 32.7291 11.2433 32.2222 10.5021 32.3381C9.76098 32.454 9.25411 33.1488 9.37001 33.8899C9.48591 34.6311 10.1807 35.138 10.9218 35.0221Z" fill="#87796F"/>
<path d="M10.449 32.0026C9.52388 32.1472 8.88914 33.0173 9.0338 33.9424C9.17846 34.8674 10.0485 35.5022 10.9736 35.3575C11.8987 35.2128 12.5334 34.3428 12.3887 33.4177C12.2441 32.4927 11.374 31.8579 10.449 32.0026ZM10.8687 34.6865C10.3138 34.7733 9.79156 34.3923 9.70479 33.8374C9.61801 33.2825 9.99897 32.7603 10.5539 32.6736C11.1088 32.5868 11.631 32.9677 11.7177 33.5227C11.8045 34.0776 11.4236 34.5997 10.8687 34.6865Z" fill="#3A312A"/>
<path d="M48.0312 49.6115C48.7724 49.4956 49.2792 48.8009 49.1633 48.0597C49.0474 47.3186 48.3527 46.8117 47.6115 46.9276C46.8704 47.0435 46.3635 47.7383 46.4794 48.4794C46.5953 49.2206 47.2901 49.7274 48.0312 49.6115Z" fill="#87796F"/>
<path d="M47.5583 46.5921C46.6333 46.7367 45.9985 47.6068 46.1432 48.5318C46.2878 49.4569 47.1579 50.0916 48.083 49.947C49.008 49.8023 49.6428 48.9323 49.4981 48.0072C49.3534 47.0821 48.4834 46.4474 47.5583 46.5921ZM47.978 49.276C47.4231 49.3628 46.9009 48.9818 46.8142 48.4269C46.7274 47.872 47.1083 47.3498 47.6633 47.263C48.2182 47.1763 48.7403 47.5572 48.8271 48.1121C48.9139 48.667 48.5329 49.1892 47.978 49.276Z" fill="#3A312A"/>
<path d="M23.9316 53.3801C24.6728 53.2642 25.1796 52.5694 25.0637 51.8283C24.9478 51.0871 24.253 50.5803 23.5119 50.6962C22.7707 50.8121 22.2639 51.5068 22.3798 52.248C22.4957 52.9891 23.1905 53.496 23.9316 53.3801Z" fill="#87796F"/>
<path d="M23.4587 50.3606C22.5336 50.5053 21.8989 51.3753 22.0436 52.3004C22.1882 53.2255 23.0583 53.8602 23.9834 53.7155C24.9084 53.5709 25.5432 52.7008 25.3985 51.7758C25.2538 50.8507 24.3838 50.2159 23.4587 50.3606ZM23.8784 53.0446C23.3235 53.1313 22.8013 52.7504 22.7146 52.1955C22.6278 51.6406 23.0087 51.1184 23.5636 51.0316C24.1185 50.9448 24.6407 51.3258 24.7275 51.8807C24.8143 52.4356 24.4333 52.9578 23.8784 53.0446Z" fill="#3A312A"/>
<path d="M36.5761 55.2982C37.3173 55.1823 37.8242 54.4875 37.7083 53.7464C37.5924 53.0052 36.8976 52.4983 36.1564 52.6142C35.4153 52.7301 34.9084 53.4249 35.0243 54.1661C35.1402 54.9072 35.835 55.4141 36.5761 55.2982Z" fill="#87796F"/>
<path d="M36.1032 52.2788C35.1782 52.4235 34.5434 53.2935 34.6881 54.2186C34.8328 55.1437 35.7028 55.7784 36.6279 55.6338C37.5529 55.4891 38.1877 54.619 38.043 53.694C37.8984 52.7689 37.0283 52.1342 36.1032 52.2788ZM36.523 54.9628C35.968 55.0495 35.4459 54.6686 35.3591 54.1137C35.2723 53.5588 35.6533 53.0366 36.2082 52.9498C36.7631 52.863 37.2853 53.244 37.372 53.7989C37.4588 54.3538 37.0779 54.876 36.523 54.9628Z" fill="#3A312A"/>
<path d="M48.3541 10.1506L44.9991 10.6752C46.515 12.0169 47.8758 13.5248 49.0585 15.1684C49.3015 14.7294 49.7384 14.4021 50.2752 14.3182C51.1989 14.1738 52.0702 14.8074 52.215 15.7334C52.3598 16.6593 51.7235 17.5287 50.7998 17.6731C50.7596 17.6794 50.7167 17.6838 50.6758 17.6857C52.0308 20.0652 53.0507 22.6599 53.6903 25.3874C53.8817 25.2635 54.1018 25.1764 54.3411 25.139C55.2671 24.9942 56.1361 25.6281 56.2809 26.5541C56.4257 27.4801 55.7917 28.3491 54.8657 28.4939C54.6533 28.5271 54.4456 28.5181 54.2462 28.4739C54.5975 31.2327 54.5457 33.9492 54.144 36.553C54.7665 36.7238 55.2629 37.2465 55.3689 37.9242C55.5137 38.8501 54.8775 39.7195 53.9538 39.8639C53.7748 39.8919 53.5981 39.8898 53.4264 39.8616C52.5829 42.8783 51.2506 45.685 49.5137 48.1608C49.57 49.0044 48.9885 49.769 48.1524 49.9318C44.8472 53.8811 40.4147 56.7601 35.2714 57.9514C35.8327 57.9072 36.395 57.8401 36.9587 57.752C50.5864 55.6209 59.7923 41.8584 57.4804 27.0745C56.4431 20.4407 53.2038 14.4376 48.3541 10.1506Z" fill="#B9C239"/>
</g>
<defs>
<clipPath id="clip0">
<rect width="57.9534" height="57.9534" fill="white" transform="translate(0 8.95374) rotate(-8.88778)"/>
</clipPath>
</defs>
</svg>
