<svg width="39" height="39" viewBox="0 0 39 39" fill="none" xmlns="http://www.w3.org/2000/svg">
<path d="M36.0671 18.0846L24.6188 6.62135C24.1638 6.16569 23.4256 6.16523 22.97 6.62028L7.1858 22.3848C6.73014 22.8399 6.72968 23.578 7.18473 24.0336L14.4655 31.3239L16.0028 32.8632L18.6331 35.4967C19.0881 35.9524 19.8262 35.9528 20.2819 35.4978L36.0661 19.7334C36.5217 19.2784 36.5222 18.5403 36.0671 18.0846Z" fill="#F4E0C4"/>
<path d="M36.2289 17.9233L24.7806 6.46007C24.5173 6.19651 24.1672 6.05118 23.7947 6.05103H23.7938C23.4218 6.05103 23.0717 6.1959 22.8085 6.45885L7.02428 22.2232C6.76072 22.4865 6.61539 22.8366 6.61523 23.2091C6.61493 23.5814 6.75981 23.9318 7.02306 24.1953L14.3039 31.4856C14.3931 31.575 14.5377 31.575 14.6271 31.4859C14.7164 31.3966 14.7166 31.252 14.6274 31.1626L7.34664 23.8722C7.16961 23.695 7.07227 23.4597 7.07242 23.2092C7.07257 22.9589 7.17022 22.7235 7.3474 22.5467L23.1314 6.78228C23.3085 6.6054 23.5437 6.50806 23.7938 6.50806H23.7944C24.0449 6.50821 24.2801 6.60586 24.4571 6.78304L35.9056 18.2463C36.2708 18.6119 36.2703 19.2067 35.9048 19.5718L20.1205 35.3364C19.9435 35.5133 19.7083 35.6104 19.4581 35.6104H19.4575C19.2071 35.6103 18.9717 35.5126 18.7948 35.3355L16.1646 32.7019C16.0755 32.6126 15.9308 32.6125 15.8413 32.7017C15.7521 32.7909 15.7519 32.9356 15.8412 33.0249L18.4714 35.6584C18.7346 35.922 19.0847 36.0673 19.4572 36.0675H19.4581C19.8301 36.0675 20.1801 35.9226 20.4435 35.6597L36.2277 19.8953C36.7715 19.352 36.7721 18.4674 36.2289 17.9233Z" fill="#3A312A"/>
<path d="M26.3155 16.9361C26.2323 16.6723 26.0187 16.4585 25.755 16.3749C22.9839 15.4968 19.0167 15.2428 17.3588 16.8987C15.7549 18.5006 15.8862 21.3805 18.84 22.6614L15.1099 23.488L19.189 27.5723L20.0202 23.8432C21.2973 26.7986 24.1771 26.9337 25.7809 25.3318C27.439 23.676 27.1901 19.7085 26.3155 16.9361Z" fill="#87796F"/>
<path d="M26.5334 16.8675C26.4282 16.5348 26.1566 16.2627 25.824 16.1573C22.7889 15.1954 18.8508 15.0858 17.1973 16.7372C16.3338 17.5998 15.9488 18.8022 16.1677 19.9538C16.3731 21.0347 17.0736 21.9491 18.1633 22.5775L15.0603 23.2652C14.979 23.2831 14.9138 23.3442 14.8905 23.4242C14.8672 23.5043 14.8893 23.5907 14.9481 23.6497L19.0272 27.734C19.0708 27.7776 19.1291 27.801 19.189 27.801C19.2103 27.801 19.2318 27.798 19.2528 27.7919C19.333 27.7686 19.3939 27.7035 19.412 27.6222L20.1035 24.5202C20.7307 25.6108 21.6442 26.3123 22.7248 26.5191C23.8766 26.7392 25.0791 26.3561 25.9426 25.4936C27.596 23.8421 27.4913 19.904 26.5334 16.8675ZM25.6193 25.1702C24.8629 25.9257 23.8131 26.2622 22.8104 26.0703C21.7002 25.8579 20.7837 25.0348 20.2298 23.7528C20.1905 23.6619 20.0971 23.6058 19.9986 23.616C19.9 23.6253 19.8185 23.6971 19.797 23.7938L19.0563 27.1166L15.5655 23.6212L18.8892 22.8846C18.9859 22.8631 19.0577 22.7819 19.0671 22.6834C19.0766 22.5848 19.0214 22.4913 18.9306 22.4519C17.6494 21.8962 16.8275 20.9788 16.6165 19.8683C16.4259 18.8655 16.7637 17.8158 17.5201 17.0605C18.6741 15.9079 21.8494 15.3773 25.6859 16.5928C25.8787 16.654 26.0366 16.8119 26.0973 17.0049C27.3082 20.8429 26.7734 24.0177 25.6193 25.1702Z" fill="#3A312A"/>
<path d="M24.5744 9.45435L21.3843 10.8987L22.1151 11.6306L22.6108 11.3614L23.4232 12.175L23.1563 12.6732L23.9059 13.4238L25.355 10.2362L24.5744 9.45435ZM23.7765 11.5253L23.2679 11.0159L24.3547 10.4367L23.7765 11.5253Z" fill="#3A312A"/>
<path d="M21.1244 4.32687C21.1244 3.68306 20.6023 3.16113 19.9585 3.16113L3.75753 3.1625C3.11357 3.1625 2.59164 3.68459 2.5918 4.32854L2.59256 11.9215L2.59271 14.0785L2.59393 26.6367C2.59408 27.2807 3.11601 27.8024 3.75997 27.8024L19.961 27.8011C20.6049 27.8011 21.1268 27.279 21.1267 26.635L21.1244 4.32687Z" fill="#F4E0C4"/>
<path d="M21.3529 4.32687C21.3529 3.55799 20.7272 2.93262 19.9585 2.93262L3.75753 2.93399C2.98865 2.93399 2.36313 3.55966 2.36328 4.32854L2.36404 11.9215C2.36404 12.0478 2.46642 12.15 2.59256 12.15C2.71885 12.15 2.82107 12.0476 2.82107 11.9215L2.82031 4.32854C2.82016 3.81164 3.24078 3.39117 3.75753 3.39102L19.9585 3.38965C20.4754 3.38965 20.8959 3.80996 20.8959 4.32687L20.8982 26.6352C20.8982 26.8856 20.8007 27.121 20.6237 27.298C20.4466 27.475 20.2113 27.5727 19.9608 27.5727L3.75997 27.5739C3.24307 27.5739 2.8226 27.1536 2.8226 26.6367L2.82123 14.0784C2.82123 13.9521 2.71885 13.8499 2.59271 13.8499C2.46642 13.8499 2.3642 13.9523 2.3642 14.0784L2.36557 26.6367C2.36557 27.4056 2.99124 28.0309 3.75997 28.0309L19.961 28.0296C20.3334 28.0296 20.6837 27.8844 20.9469 27.621C21.2103 27.3576 21.3554 27.0075 21.3552 26.635L21.3529 4.32687Z" fill="#3A312A"/>
<path d="M17.8185 15.5609C17.8182 13.2175 14.8349 10.5902 12.2551 9.25017C12.0096 9.12266 11.7075 9.12266 11.462 9.25017C8.88249 10.5906 5.8996 13.2184 5.8999 15.5618C5.90021 17.8285 8.03089 19.7706 11.0243 18.5855L8.97359 21.8091L14.746 21.8086L12.6946 18.5855C15.6884 19.7701 17.8188 17.8276 17.8185 15.5609Z" fill="#87796F"/>
<path d="M12.3605 9.0476C12.0509 8.88673 11.6661 8.88688 11.3567 9.0476C8.53133 10.5157 5.67123 13.2249 5.67139 15.5618C5.67154 16.7824 6.25045 17.9043 7.22011 18.5633C8.13006 19.1817 9.27218 19.3322 10.4867 19.0051L8.78072 21.6866C8.73593 21.757 8.73304 21.8462 8.77326 21.9193C8.81348 21.9923 8.89026 22.0378 8.97359 22.0378L14.746 22.0373C14.8294 22.0373 14.9063 21.9919 14.9464 21.9188C14.9866 21.8457 14.9837 21.7566 14.9389 21.6862L13.2324 19.0049C14.4473 19.3317 15.589 19.1812 16.4989 18.5625C17.4684 17.9035 18.0472 16.7815 18.047 15.5611C18.0467 13.2238 15.1862 10.5151 12.3605 9.0476ZM16.2421 18.1844C15.3073 18.8198 14.0773 18.8869 12.7788 18.373C12.6868 18.3366 12.5817 18.3636 12.5186 18.4401C12.4556 18.5164 12.4489 18.6247 12.502 18.7082L14.33 21.5802L9.3901 21.5806L11.2175 18.7083C11.2706 18.6248 11.2639 18.5165 11.2009 18.4401C11.1565 18.3864 11.0915 18.3572 11.0246 18.3572C10.9964 18.3572 10.9679 18.3624 10.9405 18.3732C9.64223 18.8872 8.41205 18.8205 7.47727 18.1852C6.63298 17.6115 6.12872 16.6307 6.12872 15.5618C6.12857 13.9307 7.99676 11.3087 11.5677 9.45314C11.7472 9.35975 11.9705 9.35975 12.1501 9.45314C15.7213 11.3081 17.5901 13.9299 17.5903 15.5609C17.59 16.6299 17.0862 17.6105 16.2421 18.1844Z" fill="#3A312A"/>
<path d="M34.3939 4.63525C34.2456 6.39696 32.4097 6.67499 32.4097 6.67499C33.986 6.74918 34.3787 8.81679 34.3787 8.81679C34.4124 7.34256 36.4081 6.6532 36.4081 6.6532C34.9133 6.56377 34.3939 4.63525 34.3939 4.63525Z" fill="#D5DE58"/>
<path d="M36.4223 6.42527C35.1115 6.34696 34.6199 4.59349 34.615 4.57581C34.5859 4.46872 34.4836 4.39788 34.3737 4.40793C34.2633 4.41799 34.176 4.50574 34.1667 4.61618C34.0357 6.17238 32.4431 6.43867 32.3759 6.44918C32.2596 6.4667 32.1759 6.56954 32.182 6.68684C32.188 6.80415 32.282 6.89768 32.3995 6.90332C33.7749 6.96807 34.1511 8.84083 34.1548 8.85972C34.1757 8.96804 34.2704 9.04512 34.3791 9.04512C34.3853 9.04512 34.3919 9.04482 34.3982 9.04436C34.5146 9.03461 34.605 8.93879 34.6077 8.82209C34.6374 7.52595 36.4651 6.87559 36.4835 6.8692C36.5864 6.8334 36.6499 6.72995 36.635 6.62209C36.6199 6.51423 36.5311 6.43182 36.4223 6.42527ZM34.3556 8.00141C34.149 7.52443 33.7905 6.94902 33.1998 6.64906C33.6463 6.43517 34.1761 6.05294 34.4493 5.38887C34.6856 5.85672 35.089 6.437 35.7189 6.71761C35.2608 6.96746 34.6642 7.38884 34.3556 8.00141Z" fill="#3A312A"/>
<path d="M31.0802 7.21094C30.9744 8.45696 29.6758 8.65272 29.6758 8.65272C30.7906 8.70604 31.0674 10.1687 31.0674 10.1687C31.092 9.12605 32.5039 8.63946 32.5039 8.63946C31.4465 8.57533 31.0802 7.21094 31.0802 7.21094Z" fill="#D5DE58"/>
<path d="M32.5177 8.41122C31.6393 8.3579 31.3042 7.16337 31.3008 7.15118C31.2719 7.04409 31.1703 6.97294 31.06 6.98315C30.9494 6.9929 30.8619 7.0808 30.8525 7.1914C30.7637 8.238 29.6867 8.41945 29.6416 8.42645C29.5254 8.44397 29.4416 8.54665 29.4476 8.66411C29.4535 8.78157 29.5475 8.87511 29.6648 8.88074C30.5842 8.92477 30.8404 10.1985 30.8429 10.211C30.8634 10.3196 30.9584 10.397 31.0673 10.397C31.0735 10.397 31.0798 10.3969 31.0862 10.3963C31.2027 10.3867 31.2932 10.2908 31.2959 10.1738C31.3164 9.3041 32.5662 8.85957 32.5785 8.85515C32.6817 8.81965 32.7452 8.71621 32.7304 8.6082C32.7155 8.50034 32.6265 8.41777 32.5177 8.41122ZM31.0568 9.44533C30.9163 9.15801 30.7007 8.84372 30.3799 8.6405C30.6628 8.48206 30.9434 8.24029 31.1226 7.89203C31.2835 8.17752 31.5264 8.4947 31.8749 8.68833C31.5927 8.85576 31.2667 9.10545 31.0568 9.44533Z" fill="#3A312A"/>
<path d="M31.0884 3.16113C30.9835 4.40715 29.6851 4.60398 29.6851 4.60398C30.7999 4.65639 31.0778 6.11889 31.0778 6.11889C31.1016 5.07609 32.5132 4.58859 32.5132 4.58859C31.4557 4.52522 31.0884 3.16113 31.0884 3.16113Z" fill="#D5DE58"/>
<path d="M32.5267 4.36049C31.6482 4.30793 31.3121 3.11341 31.3089 3.10137C31.28 2.99443 31.1783 2.92389 31.0679 2.93349C30.9573 2.94339 30.87 3.03129 30.8607 3.1419C30.7725 4.18865 29.6959 4.37085 29.6508 4.37801C29.5346 4.39553 29.4508 4.49836 29.4569 4.61567C29.4629 4.73297 29.5569 4.82651 29.6744 4.83215C30.5938 4.87541 30.851 6.14901 30.8534 6.1615C30.874 6.27012 30.969 6.34736 31.0776 6.34736C31.084 6.34736 31.0903 6.34721 31.0967 6.3466C31.2132 6.337 31.3036 6.24087 31.3063 6.12402C31.3261 5.25429 32.5756 4.80869 32.588 4.80442C32.691 4.76877 32.7546 4.66533 32.7397 4.55732C32.7246 4.44946 32.6355 4.36704 32.5267 4.36049ZM31.0665 5.39567C30.9258 5.10835 30.71 4.79437 30.389 4.59129C30.6718 4.4327 30.9523 4.19063 31.1311 3.84237C31.2921 4.12771 31.5356 4.44474 31.884 4.63822C31.602 4.80579 31.2761 5.05564 31.0665 5.39567Z" fill="#3A312A"/>
<path d="M6.19076 5.1958V7.21527C6.19076 7.41484 6.16425 7.55667 6.11139 7.64077C6.05853 7.72501 5.97535 7.76706 5.86216 7.76706C5.79071 7.76706 5.73541 7.75289 5.69671 7.72456C5.64004 7.68129 5.59982 7.62477 5.5759 7.55469C5.55214 7.48461 5.53934 7.37736 5.53797 7.23279L4.56982 7.36472C4.58765 7.61822 4.64615 7.83089 4.74532 8.00319C4.84435 8.17534 4.98496 8.30605 5.16671 8.39563C5.34861 8.48506 5.605 8.52984 5.93589 8.52984C6.24896 8.52984 6.50566 8.46205 6.70614 8.32662C6.90662 8.19103 7.04008 8.02574 7.1065 7.83059C7.17277 7.63543 7.20598 7.35086 7.20598 6.977V5.19611H6.19076V5.1958Z" fill="#3A312A"/>
<path d="M35.906 18.2461L24.4574 6.78228C24.2807 6.60556 24.0445 6.50806 23.7947 6.50806C23.5433 6.50806 23.3087 6.60556 23.132 6.78228L22.6521 7.26216L33.6209 18.2461C33.7976 18.4229 33.8951 18.659 33.8951 18.9088C33.8951 19.1602 33.7976 19.3948 33.6193 19.5715L18.3164 34.8562L18.7948 35.3345C18.9715 35.5128 19.2076 35.6103 19.4575 35.6103H19.459C19.7088 35.6103 19.9434 35.5128 20.1217 35.3361L35.9045 19.5715C36.0827 19.3948 36.1802 19.1602 36.1802 18.9088C36.1802 18.659 36.0827 18.4229 35.906 18.2461Z" fill="#DDC9AC"/>
</svg>
