<svg width="36" height="36" viewBox="0 0 36 36" fill="none" xmlns="http://www.w3.org/2000/svg">
<path d="M13.1968 5.0173L13.8384 6.69791L14.5416 8.53926L15.1013 10.0049C17.4515 9.01344 20.1905 8.95972 22.7026 10.0835L24.881 5.21361C21.0241 3.48829 16.8234 3.53989 13.1968 5.0173Z" fill="#F16C7A"/>
<path d="M25.0782 5.13837C25.0582 5.08606 25.0183 5.04387 24.9672 5.02109C21.1747 3.32473 16.9662 3.254 13.1172 4.82196C13.011 4.86528 12.9589 4.98537 12.9998 5.09253L13.6414 6.77313C13.6831 6.88184 13.805 6.93668 13.9138 6.89492C14.0227 6.85343 14.0772 6.73137 14.0356 6.62253L13.4679 5.13598C17.0915 3.71679 21.029 3.78246 24.6018 5.32118L22.5953 9.80684C20.2529 8.82007 17.5894 8.79152 15.2214 9.72781L14.7387 8.46387C14.6973 8.35516 14.5758 8.30046 14.4665 8.34209C14.3577 8.38357 14.3031 8.50563 14.3447 8.61448L14.9044 10.0801C14.9248 10.1335 14.966 10.1764 15.0187 10.1988C15.0712 10.2213 15.1307 10.2213 15.1835 10.199C17.5586 9.19737 20.268 9.22521 22.6168 10.276C22.6448 10.2885 22.6739 10.2944 22.7028 10.2944C22.7833 10.2944 22.8604 10.2478 22.8954 10.1695L25.0738 5.29967C25.0965 5.24862 25.0982 5.19054 25.0782 5.13837Z" fill="#3A312A"/>
<path d="M14.5411 8.53929L13.8379 6.69794L13.1963 5.01733C9.77346 6.41163 6.86182 9.07605 5.23353 12.7163C5.16968 12.8589 5.10921 13.0022 5.05029 13.1456L9.92365 15.3256C9.98004 15.1813 10.0395 15.0376 10.1035 14.8946C11.1304 12.5991 12.9536 10.9106 15.1009 10.0047L14.5411 8.53929Z" fill="#87796F"/>
<path d="M15.2987 9.92945L14.739 8.46386C14.6975 8.35515 14.576 8.30045 14.4667 8.34207C14.3579 8.38356 14.3033 8.50562 14.3449 8.61446L14.8326 9.89162C12.6376 10.8714 10.8948 12.6106 9.91159 14.8084C9.87728 14.8849 9.84381 14.9628 9.81034 15.0434L5.32469 13.037C5.35787 12.9587 5.39191 12.8805 5.42678 12.8024C6.94666 9.40492 9.65847 6.74626 13.0775 5.29557L13.6417 6.77326C13.6833 6.88196 13.8052 6.93681 13.9141 6.89504C14.0229 6.85356 14.0775 6.7315 14.0358 6.62265L13.3942 4.94204C13.3739 4.88903 13.3331 4.84642 13.2811 4.82378C13.2291 4.80128 13.1702 4.80057 13.1176 4.82195C9.5035 6.29415 6.63545 9.067 5.04161 12.63C4.97692 12.7746 4.91547 12.9198 4.8557 13.0654C4.81239 13.1709 4.86076 13.2915 4.96469 13.3381L9.83805 15.518C9.86533 15.5303 9.89472 15.5364 9.92411 15.5364C9.95125 15.5364 9.97853 15.5312 10.0041 15.5207C10.0576 15.4989 10.0996 15.456 10.1207 15.4023C10.1793 15.252 10.2369 15.114 10.2965 14.9807C11.2636 12.8186 12.9992 11.1205 15.1833 10.199C15.2883 10.1549 15.3392 10.0358 15.2987 9.92945Z" fill="#3A312A"/>
<path d="M24.0003 23.9842C26.8698 21.1147 26.8698 16.4624 24.0003 13.593C21.1309 10.7235 16.4786 10.7235 13.6092 13.593C10.7397 16.4624 10.7397 21.1147 13.6092 23.9842C16.4786 26.8536 21.1309 26.8536 24.0003 23.9842Z" fill="#89C4DB"/>
<path d="M21.8959 11.8877C18.0908 10.1857 13.6103 11.8965 11.9082 15.7017C10.2062 19.5069 11.917 23.9872 15.7222 25.6893C16.7218 26.1365 17.7677 26.348 18.7981 26.348C21.6894 26.348 24.4549 24.6809 25.7098 21.8753C27.4119 18.0702 25.7011 13.5898 21.8959 11.8877ZM25.3248 21.703C23.7177 25.2958 19.487 26.9111 15.8945 25.3041C12.3018 23.6969 10.6861 19.4665 12.2933 15.8737C13.4784 13.2246 16.0892 11.6506 18.8196 11.6506C19.792 11.6506 20.7802 11.8504 21.7238 12.2726C25.3163 13.8799 26.932 18.1103 25.3248 21.703Z" fill="#3A312A"/>
<path d="M24.8811 5.21362L22.7026 10.0835C25.2149 11.2072 27.0004 13.2848 27.8279 15.6976L32.8154 13.793C31.4996 10.1047 28.7381 6.93895 24.8811 5.21362Z" fill="#87796F"/>
<path d="M33.0145 13.7223C31.6178 9.80783 28.7601 6.7176 24.9676 5.0211C24.9164 4.99818 24.8586 4.99663 24.8063 5.0166C24.7539 5.03657 24.7118 5.07651 24.689 5.12755L22.5106 9.9974C22.4878 10.0484 22.4861 10.1065 22.5061 10.1587C22.526 10.211 22.566 10.2532 22.617 10.276C24.966 11.3267 26.7927 13.3278 27.6289 15.7661C27.6474 15.8203 27.6872 15.8645 27.739 15.8887C27.7673 15.902 27.7978 15.9087 27.8284 15.9087C27.8539 15.9087 27.8793 15.9041 27.9037 15.8948L32.8912 13.9902C32.9981 13.9492 33.0529 13.8303 33.0145 13.7223ZM27.9546 15.4237C27.0745 13.0346 25.278 11.068 22.9807 9.97925L24.9874 5.4936C28.5158 7.13132 31.1894 10.0228 32.5465 13.6701L27.9546 15.4237Z" fill="#3A312A"/>
<path d="M32.8151 13.793L27.8275 15.6976C28.5835 17.9023 28.5401 20.3869 27.5134 22.6823C27.4494 22.8252 27.382 22.9654 27.312 23.1036L32.1854 25.2836C32.253 25.1439 32.3195 25.0033 32.3832 24.8607C34.0115 21.2205 34.0571 17.2741 32.8151 13.793Z" fill="#89C4DB"/>
<path d="M33.0138 13.7223C32.9946 13.6688 32.9549 13.6252 32.9034 13.6016C32.8518 13.578 32.7931 13.5759 32.7398 13.5961L27.7523 15.5007C27.6461 15.5414 27.5911 15.6588 27.628 15.7662C28.3971 18.0085 28.2879 20.4341 27.3207 22.5963C27.261 22.73 27.1965 22.8647 27.1238 23.0083C27.0978 23.0598 27.0939 23.1197 27.1132 23.1741C27.1326 23.2285 27.1732 23.2727 27.2259 23.2961L32.0993 25.476C32.1271 25.4885 32.1564 25.4944 32.1852 25.4944C32.2637 25.4944 32.3388 25.4504 32.3752 25.3754C32.4438 25.2338 32.5112 25.0914 32.5759 24.9467C34.1696 21.3838 34.3251 17.3973 33.0138 13.7223ZM32.1907 24.7745C32.1558 24.8526 32.1201 24.9301 32.0838 25.007L27.5982 23.0006C27.6359 22.9219 27.6716 22.8452 27.7059 22.7684C28.6891 20.5705 28.824 18.1121 28.0912 15.8228L32.6874 14.0676C33.8848 17.5833 33.7106 21.3769 32.1907 24.7745Z" fill="#3A312A"/>
<path d="M27.3122 23.1038C26.1521 25.3945 24.1751 27.0273 21.8994 27.8077L23.804 32.7952C27.3559 31.5279 30.4227 28.9194 32.1856 25.2836L27.3122 23.1038Z" fill="#87796F"/>
<path d="M32.3834 25.2113C32.3638 25.1578 32.3235 25.1143 32.2713 25.0911L27.3979 22.9113C27.2951 22.8653 27.1744 22.908 27.1237 23.0084C26.0232 25.1815 24.1435 26.815 21.8306 27.6081C21.7765 27.6267 21.7322 27.6665 21.708 27.7183C21.6836 27.77 21.6814 27.8295 21.7019 27.8829L23.6066 32.8705C23.6386 32.9544 23.7186 33.0062 23.8036 33.0062C23.8271 33.0062 23.8511 33.0022 23.8744 32.9938C27.6225 31.6565 30.6415 28.9508 32.3749 25.3756C32.3998 25.3241 32.4029 25.2649 32.3834 25.2113ZM23.9265 32.5258L22.173 27.934C24.433 27.1033 26.2796 25.496 27.4072 23.3773L31.8989 25.3866C30.2307 28.7038 27.412 31.228 23.9265 32.5258Z" fill="#3A312A"/>
<path d="M9.92354 15.3257L5.05018 13.1458C3.51469 16.8833 3.6144 20.9081 5.0371 24.4007L10.0246 22.496C9.08963 20.2795 8.98909 17.7175 9.92354 15.3257Z" fill="#89C4DB"/>
<path d="M10.2195 22.414C9.26935 20.1613 9.23419 17.6711 10.1205 15.4023C10.1616 15.2974 10.113 15.179 10.0102 15.133L5.1368 12.953C5.08463 12.9295 5.02528 12.9285 4.97241 12.9496C4.91939 12.9709 4.8772 13.0126 4.85555 13.0654C3.34566 16.7407 3.34102 20.7945 4.84233 24.48C4.87566 24.5617 4.95441 24.6115 5.0378 24.6115C5.06283 24.6115 5.08828 24.607 5.11303 24.5976L10.1006 22.6931C10.154 22.6727 10.1969 22.6315 10.2193 22.5788C10.2418 22.5262 10.2419 22.4667 10.2195 22.414ZM5.15648 24.1293C3.80086 20.6662 3.80367 16.8824 5.16464 13.4275L9.65635 15.4367C8.82863 17.6897 8.86111 20.1375 9.74831 22.3759L5.15648 24.1293Z" fill="#3A312A"/>
<path d="M21.8993 27.8076C19.6946 28.5636 17.21 28.5201 14.9147 27.4934L12.7363 32.3632C16.3765 33.9915 20.3229 34.0371 23.8039 32.7951L21.8993 27.8076Z" fill="#F16C7A"/>
<path d="M24.0011 32.7199L22.0965 27.7323C22.056 27.6262 21.9388 27.571 21.831 27.608C19.5884 28.377 17.1628 28.2678 15.0008 27.3009C14.8946 27.2534 14.7698 27.3009 14.7222 27.4074L12.5438 32.2772C12.5209 32.3282 12.5193 32.3863 12.5393 32.4385C12.5593 32.4908 12.5992 32.533 12.6503 32.5558C14.6137 33.4341 16.7053 33.8755 18.8032 33.8755C20.5119 33.8755 22.225 33.5825 23.8748 32.9937C23.9283 32.9747 23.9718 32.9349 23.9955 32.8833C24.0194 32.832 24.0212 32.7729 24.0011 32.7199ZM13.0156 32.2555L15.022 27.7702C17.1702 28.6764 19.5517 28.7827 21.7743 28.0714L23.5296 32.6677C20.0802 33.8422 16.3633 33.6965 13.0156 32.2555Z" fill="#3A312A"/>
<path d="M10.0251 22.4961L5.0376 24.4007C6.43189 27.8235 9.09632 30.7352 12.7365 32.3635L14.915 27.4936C12.6194 26.4668 10.9309 24.6434 10.0251 22.4961Z" fill="#87796F"/>
<path d="M15.0011 27.3009C12.8391 26.3339 11.1411 24.5983 10.2195 22.4141C10.1755 22.3095 10.0563 22.2586 9.94996 22.2991L4.96241 24.2035C4.9094 24.2238 4.86679 24.2646 4.84415 24.3166C4.82151 24.3686 4.8208 24.4277 4.84232 24.4801C6.31452 28.0941 9.08751 30.9621 12.6505 32.556C12.6778 32.5682 12.7072 32.5744 12.7366 32.5744C12.762 32.5744 12.7876 32.5697 12.8118 32.5605C12.8641 32.5405 12.9063 32.5006 12.9291 32.4495L15.1075 27.5797C15.1552 27.4734 15.1075 27.3486 15.0011 27.3009ZM12.6308 32.0833C9.32516 30.5481 6.73921 27.8744 5.3158 24.5201L9.91213 22.7651C10.8633 24.8958 12.53 26.6006 14.6373 27.5979L12.6308 32.0833Z" fill="#3A312A"/>
<path d="M26.0064 12.5337L24.3896 14.0058C25.0206 14.744 25.4954 15.5941 25.7946 16.5059L27.8383 15.7256C27.4426 14.5612 26.823 13.4736 26.0064 12.5337Z" fill="#F8E4C8"/>
<path d="M28.038 15.6579C27.6282 14.4515 26.9981 13.3539 26.1657 12.3954C26.1283 12.3525 26.0754 12.3265 26.0187 12.3232C25.9622 12.3196 25.9062 12.3395 25.8643 12.3779L24.2477 13.8499C24.1633 13.9266 24.1553 14.0564 24.2293 14.1428C24.8409 14.8582 25.2999 15.6754 25.5942 16.5717C25.6122 16.6266 25.6517 16.6716 25.7039 16.6965C25.7324 16.7101 25.7635 16.717 25.7944 16.717C25.8199 16.717 25.8454 16.7123 25.8697 16.7031L27.9134 15.9227C28.0196 15.8824 28.0745 15.7654 28.038 15.6579ZM25.9231 16.2313C25.6339 15.4283 25.2169 14.6882 24.6808 14.0261L25.9868 12.8369C26.6714 13.6623 27.2034 14.5906 27.5712 15.602L25.9231 16.2313Z" fill="#3A312A"/>
<path d="M15.1166 9.99805C13.995 10.47 12.962 11.154 12.0825 12.0284L13.5571 13.6463C14.2306 12.9569 15.0288 12.4158 15.8971 12.0418L15.1166 9.99805Z" fill="#F8E4C8"/>
<path d="M16.0942 11.9665L15.3137 9.9228C15.2933 9.86936 15.2521 9.82647 15.1995 9.80411C15.1471 9.78161 15.0876 9.78147 15.0348 9.80355C13.8686 10.2943 12.8252 10.9925 11.9338 11.8787C11.8538 11.9583 11.8505 12.087 11.9266 12.1704L13.4012 13.7882C13.4403 13.831 13.4953 13.8559 13.5535 13.8571H13.5571C13.6138 13.8571 13.6684 13.8341 13.708 13.7935C14.3563 13.1299 15.1209 12.6056 15.9807 12.2352C16.0843 12.1907 16.1344 12.0721 16.0942 11.9665ZM13.5646 13.3414L12.3758 12.0372C13.1438 11.3057 14.0244 10.7155 14.9981 10.2793L15.6287 11.9304C14.8613 12.2853 14.1684 12.7588 13.5646 13.3414Z" fill="#3A312A"/>
<path d="M22.7334 10.0977L21.8398 12.0951C22.8522 12.5525 23.7103 13.2138 24.3897 14.0059L26.0064 12.5338C25.1313 11.5246 24.0301 10.6839 22.7334 10.0977Z" fill="#D5DE58"/>
<path d="M26.1655 12.3957C25.2403 11.3288 24.1147 10.4909 22.8198 9.90549C22.7687 9.88228 22.7106 9.8806 22.6581 9.90042C22.6057 9.92039 22.5633 9.96033 22.5404 10.0115L21.6469 12.009C21.5994 12.115 21.6467 12.2394 21.7525 12.2873C22.7114 12.7207 23.5446 13.345 24.2292 14.1432C24.2663 14.1865 24.3195 14.213 24.3763 14.2165C24.3806 14.2168 24.3851 14.2169 24.3894 14.2169C24.4417 14.2169 24.4924 14.1974 24.5314 14.1619L26.148 12.6899C26.2328 12.6127 26.2405 12.4822 26.1655 12.3957ZM24.4058 13.7057C23.756 12.9897 22.9875 12.4142 22.1167 11.9919L22.8383 10.3793C23.9344 10.9042 24.899 11.6224 25.7102 12.5179L24.4058 13.7057Z" fill="#3A312A"/>
<path d="M15.1167 9.99824L15.8972 12.0419C16.8724 11.6216 17.9334 11.4122 19.0112 11.4415L19.1135 9.25659C17.7323 9.21341 16.37 9.47287 15.1167 9.99824Z" fill="#D5DE58"/>
<path d="M19.2684 9.11325C19.23 9.07176 19.1766 9.04743 19.12 9.04561C17.7131 9.00173 16.3397 9.25668 15.0352 9.80371C14.9301 9.84773 14.8791 9.96712 14.9197 10.0736L15.7002 12.1173C15.7207 12.171 15.7622 12.214 15.8152 12.2364C15.8414 12.2475 15.8694 12.253 15.8972 12.253C15.9256 12.253 15.954 12.2472 15.9807 12.2357C16.9444 11.8203 17.9633 11.6241 19.0054 11.6524C19.1254 11.6546 19.2165 11.5662 19.2219 11.4514L19.3242 9.26653C19.3269 9.21 19.3068 9.15473 19.2684 9.11325ZM18.8101 11.2277H18.8084C17.8491 11.2277 16.9119 11.4077 16.0169 11.7639L15.3874 10.1156C16.5127 9.67167 17.6913 9.45482 18.8927 9.46284L18.8101 11.2277Z" fill="#3A312A"/>
<path d="M22.7026 10.084C21.5345 9.56147 20.3182 9.2947 19.1136 9.25659L19.0112 11.4415C19.9502 11.4672 20.8995 11.6731 21.8097 12.0802C21.8199 12.0848 21.8296 12.0906 21.8399 12.0952L22.7334 10.0978L22.7026 10.084Z" fill="#F8E4C8"/>
<path d="M22.8196 9.90512L22.7885 9.8912C21.6237 9.37018 20.3894 9.08556 19.1202 9.04548C19.005 9.03676 18.908 9.13126 18.9028 9.24643L18.8005 11.4313C18.7979 11.4879 18.8181 11.5433 18.8565 11.5847C18.895 11.6262 18.9487 11.6506 19.0054 11.6521C19.9462 11.6778 20.8607 11.8865 21.7269 12.2742C21.7358 12.2789 21.7448 12.2835 21.7538 12.2876C21.7818 12.3 21.8109 12.3059 21.8396 12.3059C21.9202 12.3059 21.9972 12.2593 22.0322 12.181L22.9258 10.1836C22.9733 10.0775 22.9258 9.95279 22.8196 9.90512ZM21.7331 11.8169C20.9338 11.4811 20.0941 11.2872 19.232 11.2394L19.3145 9.47607C20.397 9.53429 21.4514 9.77926 22.454 10.2055L21.7331 11.8169Z" fill="#3A312A"/>
<path d="M25.3073 22.2163C24.8307 23.12 24.1883 23.8879 23.4346 24.4982L24.9099 26.1179C25.881 25.3108 26.7042 24.3001 27.3084 23.1115L25.3073 22.2163Z" fill="#D5DE58"/>
<path d="M27.5075 23.0413C27.4883 22.9869 27.4475 22.9426 27.3947 22.9191L25.3934 22.0239C25.292 21.9783 25.1726 22.0196 25.1207 22.1179C24.6665 22.9793 24.0545 23.7249 23.3019 24.3343C23.2569 24.3709 23.2286 24.4243 23.2242 24.4823C23.2199 24.5402 23.2396 24.5973 23.2787 24.6403L24.7539 26.2601C24.7956 26.3056 24.8525 26.329 24.91 26.329C24.9576 26.329 25.0055 26.3129 25.0448 26.2802C26.0672 25.4302 26.8922 24.3964 27.4966 23.2071C27.523 23.1556 27.5268 23.0957 27.5075 23.0413ZM24.9287 25.8252L23.7391 24.519C24.4084 23.9438 24.9657 23.2622 25.3994 22.4886L27.0179 23.2126C26.4821 24.2086 25.7807 25.086 24.9287 25.8252Z" fill="#3A312A"/>
<path d="M27.8381 15.7258L25.7944 16.5062C26.1149 17.4876 26.2294 18.5371 26.1141 19.587L28.3021 19.6892C28.4302 18.3353 28.2651 16.9858 27.8381 15.7258Z" fill="#D5DE58"/>
<path d="M28.038 15.6581C28.0196 15.6039 27.9799 15.5594 27.928 15.535C27.8761 15.5106 27.8167 15.5082 27.7629 15.5288L25.7192 16.3091C25.6142 16.3492 25.5591 16.4648 25.5939 16.5717C25.9113 17.5432 26.0157 18.55 25.9044 19.5639C25.8981 19.6218 25.916 19.6797 25.9538 19.7239C25.9916 19.7682 26.0461 19.7948 26.1041 19.7976L28.2923 19.8998C28.2956 19.9 28.299 19.9 28.3022 19.9C28.4105 19.9 28.5018 19.8177 28.5121 19.7089C28.6423 18.3337 28.4827 16.9707 28.038 15.6581ZM28.109 19.4689L26.345 19.3867C26.4198 18.4549 26.3225 17.5303 26.0549 16.6327L27.7064 16.0021C28.0598 17.1295 28.1951 18.2936 28.109 19.4689Z" fill="#3A312A"/>
<path d="M26.1141 19.5869C26.0334 20.3287 25.8388 21.0705 25.5171 21.7894C25.4516 21.9358 25.3809 22.0767 25.3076 22.2163L27.3089 23.1115C27.3796 22.9706 27.4484 22.8273 27.5132 22.6822C27.9495 21.7066 28.2058 20.6966 28.3021 19.6891L26.1141 19.5869Z" fill="#F8E4C8"/>
<path d="M28.4615 19.5508C28.4237 19.5072 28.3698 19.481 28.312 19.4782L26.1239 19.376C26.0092 19.3709 25.9164 19.4532 25.9044 19.5638C25.824 20.3028 25.6289 21.0225 25.3246 21.7029C25.2692 21.8269 25.2044 21.9588 25.1208 22.1181C25.0938 22.1698 25.0892 22.2301 25.1083 22.2852C25.1273 22.3402 25.1684 22.3849 25.2215 22.4087L27.2229 23.3039C27.2507 23.3164 27.28 23.3223 27.3088 23.3223C27.3863 23.3223 27.4606 23.2794 27.4975 23.2059C27.5732 23.055 27.6434 22.9078 27.7058 22.7683C27.7058 22.7683 27.7058 22.7683 27.7058 22.7681C28.1394 21.7988 28.4108 20.7695 28.5122 19.709C28.5176 19.6517 28.4994 19.5945 28.4615 19.5508ZM27.3206 22.596C27.2859 22.6736 27.2486 22.7539 27.2093 22.8359L25.5964 22.1145C25.6385 22.0298 25.6756 21.9514 25.7096 21.8754C26.0049 21.2155 26.2031 20.5204 26.2997 19.8068L28.0683 19.8894C27.9567 20.8264 27.7055 21.7358 27.3206 22.596Z" fill="#3A312A"/>
<path d="M12.0798 21.7434L10.0361 22.5239C10.4808 23.5686 11.1116 24.5347 11.9073 25.3697L13.5259 23.8969C12.9151 23.2647 12.4273 22.5336 12.0798 21.7434Z" fill="#F8E4C8"/>
<path d="M13.6776 23.7504C13.0873 23.1393 12.6146 22.4355 12.2729 21.6585C12.2276 21.5557 12.1096 21.5062 12.0046 21.5464L9.9609 22.3269C9.90732 22.3474 9.86443 22.3886 9.84207 22.4415C9.81957 22.4942 9.81957 22.5539 9.84207 22.6066C10.3023 23.6879 10.9458 24.6666 11.7547 25.5154C11.7961 25.5589 11.8517 25.5808 11.9074 25.5808C11.9581 25.5808 12.009 25.5627 12.0493 25.5258L13.6679 24.0531C13.7101 24.0147 13.735 23.9608 13.7367 23.9039C13.7385 23.8468 13.7171 23.7914 13.6776 23.7504ZM11.9195 25.0734C11.2606 24.3508 10.7231 23.5344 10.3184 22.6419L11.97 22.0112C12.293 22.6965 12.7145 23.3253 13.2255 23.8852L11.9195 25.0734Z" fill="#3A312A"/>
<path d="M15.808 25.497C14.9249 25.102 14.1585 24.5527 13.5258 23.897L11.9072 25.3697C12.7386 26.2423 13.7481 26.9712 14.9151 27.4932L14.9459 27.507L15.8394 25.5095C15.8291 25.5049 15.8183 25.5016 15.808 25.497Z" fill="#D5DE58"/>
<path d="M15.9262 25.3172C15.9169 25.313 15.9074 25.3093 15.8944 25.3045C15.057 24.9297 14.3113 24.407 13.678 23.7505C13.5989 23.6685 13.4688 23.6641 13.3843 23.7409L11.7657 25.2137C11.7238 25.2518 11.6989 25.3054 11.6969 25.3622C11.6948 25.4188 11.7158 25.474 11.755 25.5152C12.6311 26.4349 13.6655 27.165 14.8293 27.6856L14.8601 27.6994C14.8876 27.7116 14.9168 27.7178 14.9463 27.7178C14.9718 27.7178 14.9973 27.7131 15.0216 27.7039C15.0739 27.6839 15.1161 27.644 15.139 27.5929L16.0325 25.5955C16.0798 25.4894 16.0323 25.3648 15.9262 25.3172ZM14.8405 27.2267C13.8578 26.765 12.9748 26.1445 12.211 25.3788L13.5186 24.1889C14.1157 24.7753 14.8014 25.2542 15.5612 25.6153L14.8405 27.2267Z" fill="#3A312A"/>
<path d="M21.135 25.7585C20.2383 26.0584 19.2833 26.1858 18.3224 26.1226L18.2188 28.307C19.4837 28.386 20.7406 28.2073 21.9154 27.8023L21.135 25.7585Z" fill="#D5DE58"/>
<path d="M22.113 27.7271L21.3325 25.6834C21.2921 25.578 21.1756 25.5224 21.0685 25.5587C20.1843 25.8544 19.2653 25.9734 18.3368 25.9124C18.2807 25.9084 18.2247 25.9277 18.1824 25.9654C18.1402 26.0032 18.1149 26.0562 18.1122 26.1128L18.0085 28.2971C18.0031 28.4123 18.0911 28.5104 18.2061 28.5176C18.4088 28.5303 18.6111 28.5366 18.8129 28.5366C19.8887 28.5366 20.9531 28.3574 21.9847 28.0018C22.0387 27.9832 22.0829 27.9434 22.1071 27.8917C22.1312 27.8399 22.1334 27.7806 22.113 27.7271ZM18.44 28.1073L18.5237 26.3444C19.3668 26.3755 20.2012 26.2673 21.0098 26.0204L21.6402 27.6717C20.5986 28.0045 19.5234 28.1507 18.44 28.1073Z" fill="#3A312A"/>
<path d="M15.8398 25.5095L14.9463 27.507C16.0122 27.9792 17.1187 28.2399 18.2193 28.3071L18.323 26.1228C17.4879 26.0681 16.649 25.8668 15.8398 25.5095Z" fill="#F8E4C8"/>
<path d="M18.3362 25.9123C17.5081 25.858 16.6967 25.6576 15.9244 25.3166C15.8179 25.2698 15.694 25.3174 15.6466 25.4235L14.7533 27.4209C14.7303 27.4721 14.7288 27.5303 14.7489 27.5826C14.769 27.6349 14.8091 27.6771 14.8604 27.6999C15.9265 28.1721 17.0521 28.4473 18.206 28.5176C18.2104 28.5179 18.2147 28.518 18.219 28.518C18.2708 28.518 18.3211 28.4989 18.3599 28.4642C18.4019 28.4265 18.4269 28.3735 18.4296 28.3172L18.5333 26.1329C18.5386 26.0177 18.451 25.9197 18.3362 25.9123ZM18.0183 28.081C17.0588 28.0003 16.1213 27.7708 15.2256 27.3977L15.9472 25.7847C16.6418 26.0693 17.3648 26.2478 18.1021 26.3167L18.0183 28.081Z" fill="#3A312A"/>
<path d="M12.0827 12.0286C11.2751 12.832 10.5975 13.7921 10.1042 14.8948C10.0394 15.0398 9.97821 15.1866 9.92041 15.3333L11.9216 16.2285C11.9769 16.0807 12.0348 15.934 12.1004 15.7876C12.4661 14.9699 12.9647 14.2516 13.5574 13.6463L12.0827 12.0286Z" fill="#D5DE58"/>
<path d="M13.713 13.5044L12.2384 11.8865C12.1998 11.8439 12.1452 11.8191 12.0877 11.8177C12.0302 11.8143 11.9746 11.8384 11.9338 11.879C11.0829 12.7254 10.4026 13.7111 9.91166 14.8086C9.84894 14.9487 9.78762 15.0951 9.7242 15.2558C9.68286 15.3609 9.73137 15.4797 9.83431 15.5258L11.8355 16.4211C11.8628 16.4333 11.8922 16.4395 11.9216 16.4395C11.9493 16.4395 11.9769 16.434 12.003 16.4232C12.0567 16.4007 12.0988 16.3571 12.1192 16.3025C12.1825 16.1336 12.2376 15.9974 12.2929 15.8739C12.6396 15.0986 13.1158 14.3989 13.708 13.794C13.7862 13.714 13.7884 13.5869 13.713 13.5044ZM11.9077 15.7016C11.8738 15.7774 11.84 15.8571 11.8049 15.9452L10.1921 15.2238C10.2269 15.1397 10.2617 15.0592 10.2967 14.9809C10.7363 13.9981 11.3346 13.1091 12.0769 12.3355L13.2688 13.6431C12.705 14.2499 12.2476 14.9414 11.9077 15.7016Z" fill="#3A312A"/>
<path d="M23.4352 24.498C22.7472 25.0545 21.9668 25.4803 21.1353 25.7585L21.9157 27.8022C23.0018 27.4268 24.0179 26.86 24.9106 26.1178L23.4352 24.498Z" fill="#F8E4C8"/>
<path d="M25.0662 25.9758L23.5909 24.3561C23.5153 24.2735 23.3892 24.2637 23.3022 24.3341C22.635 24.8737 21.8832 25.2857 21.0679 25.5586C21.0133 25.5767 20.9686 25.6165 20.944 25.6684C20.9194 25.7203 20.9173 25.78 20.9377 25.8338L21.7182 27.8775C21.7501 27.9613 21.8301 28.0132 21.9152 28.0132C21.938 28.0132 21.9613 28.0094 21.9841 28.0015C23.1084 27.6129 24.1382 27.0337 25.0449 26.28C25.0891 26.2431 25.1165 26.1898 25.1204 26.1324C25.1245 26.0751 25.1048 26.0185 25.0662 25.9758ZM22.0388 27.5341L21.4092 25.8858C22.1305 25.6214 22.8022 25.2521 23.411 24.7853L24.6036 26.0948C23.8318 26.7066 22.9706 27.1898 22.0388 27.5341Z" fill="#3A312A"/>
<path d="M11.4606 18.8984L9.27246 18.7961C9.27513 20.0853 9.53866 21.3523 10.0361 22.5238L12.0798 21.7434C11.6888 20.8505 11.4759 19.8835 11.4606 18.8984Z" fill="#D5DE58"/>
<path d="M12.2728 21.6587C11.8886 20.7814 11.6863 19.8516 11.6714 18.895C11.6696 18.7837 11.5815 18.6928 11.4703 18.6876L9.28216 18.5854C9.22507 18.5831 9.16826 18.6037 9.12663 18.6437C9.08487 18.6837 9.06138 18.7389 9.06152 18.7966C9.0642 20.1114 9.32674 21.3931 9.84185 22.6063C9.87588 22.6863 9.95379 22.7348 10.0361 22.7348C10.0611 22.7348 10.0865 22.7303 10.1113 22.7209L12.155 21.9404C12.2088 21.9199 12.252 21.8781 12.2744 21.8248C12.2965 21.7717 12.2959 21.7116 12.2728 21.6587ZM10.1526 22.2534C9.73821 21.2169 9.51448 20.1304 9.48635 19.0172L11.2553 19.0999C11.2911 19.9695 11.4742 20.8167 11.8006 21.624L10.1526 22.2534Z" fill="#3A312A"/>
<path d="M9.92032 15.3333C9.4789 16.4684 9.2719 17.6405 9.27246 18.7961L11.4606 18.8984C11.4469 18.0095 11.5956 17.1054 11.9216 16.2285L9.92032 15.3333Z" fill="#F8E4C8"/>
<path d="M12.0076 16.0359L10.0064 15.1407C9.95365 15.1171 9.8936 15.1162 9.84016 15.138C9.78673 15.16 9.74468 15.2029 9.72373 15.2567C9.28371 16.3881 9.06096 17.5789 9.06152 18.7963C9.06152 18.9089 9.15012 19.0016 9.26262 19.0069L11.4507 19.1091C11.454 19.1093 11.4572 19.1093 11.4606 19.1093C11.5153 19.1093 11.568 19.0881 11.6074 19.0498C11.6492 19.0093 11.6724 18.9532 11.6715 18.8951C11.6579 18.0103 11.8085 17.1379 12.1193 16.302C12.1579 16.1978 12.1092 16.0813 12.0076 16.0359ZM11.2494 18.6774L9.48537 18.595C9.50646 17.5742 9.69237 16.5747 10.0389 15.6174L11.6572 16.3414C11.3974 17.0985 11.2608 17.8825 11.2494 18.6774Z" fill="#3A312A"/>
<path d="M6.66367 3.69775C6.5267 5.32394 4.83203 5.58058 4.83203 5.58058C6.28708 5.64907 6.64961 7.55763 6.64961 7.55763C6.68069 6.1968 8.52288 5.56047 8.52288 5.56047C7.14292 5.47793 6.66367 3.69775 6.66367 3.69775Z" fill="#D5DE58"/>
<path d="M8.53602 5.35001C7.32595 5.27759 6.87215 3.65914 6.86765 3.64268C6.84079 3.54382 6.74629 3.47829 6.64504 3.48772C6.54309 3.497 6.46251 3.578 6.45393 3.67995C6.33299 5.11643 4.8629 5.36239 4.80089 5.37209C4.69359 5.38826 4.61625 5.48318 4.62187 5.59161C4.6275 5.69989 4.71426 5.78623 4.82268 5.79143C6.09224 5.8512 6.43973 7.5799 6.4431 7.59734C6.46237 7.69732 6.54984 7.76848 6.6501 7.76848C6.65601 7.76848 6.66192 7.76834 6.66782 7.76778C6.77526 7.75878 6.85865 7.67032 6.86118 7.56247C6.8886 6.36589 8.57568 5.7657 8.5927 5.75979C8.68762 5.72675 8.74626 5.63126 8.73248 5.53156C8.71842 5.43214 8.63643 5.35606 8.53602 5.35001ZM6.62817 6.80492C6.43734 6.36476 6.10673 5.83362 5.56124 5.55673C5.97342 5.35915 6.46251 5.00647 6.71465 4.39334C6.93276 4.8252 7.30513 5.36084 7.88662 5.62001C7.46376 5.85036 6.91321 6.23932 6.62817 6.80492Z" fill="#3A312A"/>
<path d="M3.61233 6.08545C3.51544 7.23562 2.31689 7.41731 2.31689 7.41731C3.34599 7.46568 3.60249 8.81568 3.60249 8.81568C3.62443 7.85311 4.92746 7.40311 4.92746 7.40311C3.95138 7.34475 3.61233 6.08545 3.61233 6.08545Z" fill="#D5DE58"/>
<path d="M4.93999 7.19248C4.12915 7.14396 3.81893 6.04146 3.81584 6.03035C3.78912 5.93164 3.69574 5.8661 3.59337 5.87539C3.49127 5.88453 3.4107 5.96567 3.40212 6.06776C3.3207 7.03399 2.3269 7.20218 2.28527 7.20879C2.17798 7.22496 2.10049 7.31988 2.10626 7.42817C2.11188 7.53645 2.19865 7.62279 2.30707 7.62799C3.15574 7.66793 3.39312 8.84355 3.39537 8.85509C3.41435 8.95521 3.5021 9.02665 3.60251 9.02665C3.60827 9.02665 3.61418 9.02651 3.62009 9.02594C3.72767 9.01709 3.81106 8.92835 3.81359 8.82049C3.83187 8.01766 4.98527 7.60634 4.99666 7.6024C5.09187 7.56949 5.15051 7.47401 5.13673 7.37431C5.12266 7.2746 5.04054 7.19852 4.93999 7.19248ZM3.5921 8.14802C3.46216 7.88281 3.26304 7.59298 2.96674 7.40552C3.2276 7.25913 3.48663 7.03568 3.65173 6.71407C3.80037 6.9776 4.02495 7.27024 4.34656 7.4487C4.08654 7.60352 3.7856 7.83415 3.5921 8.14802Z" fill="#3A312A"/>
<path d="M3.61233 2.33691C3.51544 3.48709 2.31689 3.66877 2.31689 3.66877C3.34599 3.71715 3.60249 5.06715 3.60249 5.06715C3.62443 4.10457 4.92746 3.65457 4.92746 3.65457C3.95138 3.59607 3.61233 2.33691 3.61233 2.33691Z" fill="#D5DE58"/>
<path d="M4.93999 3.44384C4.12901 3.39533 3.81879 2.29283 3.81584 2.28158C3.78912 2.18286 3.69574 2.11732 3.59337 2.12661C3.49127 2.13575 3.4107 2.21689 3.40212 2.31898C3.3207 3.28522 2.3269 3.4534 2.28527 3.46001C2.17798 3.47618 2.10049 3.57111 2.10626 3.67939C2.11188 3.78767 2.19865 3.87401 2.30707 3.87922C3.15574 3.91915 3.39312 5.09478 3.39537 5.10631C3.41435 5.20658 3.5021 5.27787 3.60237 5.27787C3.60827 5.27787 3.61404 5.27773 3.61995 5.27717C3.72752 5.26831 3.81091 5.17958 3.81345 5.07172C3.83173 4.26875 4.98513 3.85756 4.99652 3.85362C5.09159 3.82072 5.15037 3.72523 5.13659 3.62553C5.12266 3.52597 5.04054 3.44989 4.93999 3.44384ZM3.5921 4.39939C3.46216 4.13417 3.26304 3.84434 2.96674 3.65689C3.2276 3.5105 3.48663 3.28704 3.65173 2.96558C3.80037 3.22911 4.02509 3.52161 4.34656 3.7002C4.08654 3.85489 3.7856 4.08537 3.5921 4.39939Z" fill="#3A312A"/>
<path d="M21.8914 15.7061C21.809 15.6237 21.6755 15.6237 21.5931 15.7061L15.7264 21.5728C15.6439 21.6551 15.6439 21.7888 15.7264 21.8711C15.7676 21.9123 15.8216 21.9328 15.8756 21.9328C15.9296 21.9328 15.9836 21.9123 16.0248 21.8711L21.8915 16.0044C21.9738 15.9221 21.9738 15.7884 21.8914 15.7061Z" fill="#3A312A"/>
<path d="M23.3331 14.2641C22.8938 13.8247 22.1814 13.8247 21.7421 14.2641C21.3028 14.7034 21.3028 15.4156 21.7421 15.8551C22.1814 16.2944 22.8938 16.2944 23.3331 15.8551C23.7724 15.4156 23.7724 14.7034 23.3331 14.2641Z" fill="#87796F"/>
<path d="M23.4826 14.115C22.9617 13.594 22.114 13.5943 21.5933 14.115C21.0724 14.6359 21.0724 15.4834 21.5933 16.0043C21.8537 16.2648 22.1957 16.395 22.5379 16.395C22.8802 16.395 23.2222 16.2648 23.4826 16.0043C23.735 15.752 23.874 15.4165 23.874 15.0597C23.874 14.703 23.735 14.3673 23.4826 14.115ZM23.1843 15.7061C22.8278 16.0623 22.2482 16.0625 21.8917 15.7061C21.5354 15.3497 21.5354 14.7698 21.8917 14.4133C22.07 14.2351 22.304 14.1461 22.538 14.1461C22.7722 14.1461 23.0062 14.2351 23.1845 14.4133C23.357 14.586 23.4522 14.8155 23.4522 15.0597C23.4522 15.304 23.357 15.5334 23.1843 15.7061Z" fill="#3A312A"/>
<path d="M15.8756 21.7218C15.4363 21.2825 14.7239 21.2825 14.2846 21.7218C13.8452 22.1611 13.8452 22.8734 14.2846 23.3128C14.7239 23.7522 15.4363 23.7522 15.8756 23.3128C16.3149 22.8734 16.3149 22.1611 15.8756 21.7218Z" fill="#87796F"/>
<path d="M16.0248 21.5726C15.5039 21.0516 14.6564 21.0516 14.1355 21.5726C13.8832 21.8249 13.7441 22.1605 13.7441 22.5172C13.7441 22.874 13.8831 23.2095 14.1355 23.4619C14.3959 23.7224 14.7381 23.8526 15.0801 23.8526C15.4221 23.8526 15.7642 23.7224 16.0247 23.4619C16.5457 22.9411 16.5457 22.0935 16.0248 21.5726ZM15.7265 23.1637C15.3702 23.52 14.7903 23.52 14.4339 23.1637C14.2612 22.991 14.1662 22.7615 14.1662 22.5172C14.1662 22.273 14.2612 22.0436 14.4339 21.8709C14.6121 21.6927 14.8462 21.6037 15.0802 21.6037C15.3142 21.6037 15.5484 21.6927 15.7265 21.8709C16.0829 22.2274 16.0829 22.8073 15.7265 23.1637Z" fill="#3A312A"/>
<path d="M21.8914 21.5728L16.0246 15.7061C15.9422 15.6237 15.8088 15.6237 15.7264 15.7061C15.6439 15.7884 15.6439 15.9221 15.7264 16.0044L21.5931 21.8711C21.6343 21.9123 21.6883 21.9328 21.7423 21.9328C21.7963 21.9328 21.8501 21.9123 21.8914 21.8711C21.9738 21.7888 21.9738 21.6552 21.8914 21.5728Z" fill="#3A312A"/>
<path d="M15.0801 16.1846C15.7014 16.1846 16.2051 15.6809 16.2051 15.0596C16.2051 14.4382 15.7014 13.9346 15.0801 13.9346C14.4588 13.9346 13.9551 14.4382 13.9551 15.0596C13.9551 15.6809 14.4588 16.1846 15.0801 16.1846Z" fill="#87796F"/>
<path d="M16.0248 14.115C15.5039 13.5941 14.6565 13.5941 14.1355 14.115C13.8832 14.3673 13.7441 14.7028 13.7441 15.0597C13.7441 15.4166 13.8831 15.752 14.1355 16.0043C14.3959 16.2648 14.7381 16.395 15.0801 16.395C15.4221 16.395 15.7642 16.2648 16.0247 16.0043C16.5457 15.4834 16.5457 14.6359 16.0248 14.115ZM15.7265 15.7061C15.3702 16.0624 14.7903 16.0624 14.4339 15.7061C14.2612 15.5334 14.1662 15.3039 14.1662 15.0597C14.1662 14.8156 14.2612 14.586 14.4339 14.4133C14.6121 14.2351 14.8462 14.1461 15.0802 14.1461C15.3142 14.1461 15.5484 14.2351 15.7265 14.4133C16.0829 14.7698 16.0829 15.3497 15.7265 15.7061Z" fill="#3A312A"/>
<path d="M23.3331 21.7218C22.8938 21.2825 22.1814 21.2825 21.7421 21.7218C21.3028 22.1611 21.3028 22.8734 21.7421 23.3128C22.1814 23.7522 22.8938 23.7522 23.3331 23.3128C23.7724 22.8734 23.7724 22.1611 23.3331 21.7218Z" fill="#87796F"/>
<path d="M23.4826 21.5728C22.962 21.0521 22.1143 21.0518 21.5933 21.5728C21.0724 22.0937 21.0724 22.9412 21.5933 23.4621C21.8537 23.7227 22.1957 23.8527 22.538 23.8527C22.88 23.8527 23.2222 23.7225 23.4826 23.4621C23.735 23.2098 23.874 22.8743 23.874 22.5174C23.874 22.1605 23.735 21.8251 23.4826 21.5728ZM23.1843 23.1638C22.8278 23.52 22.2482 23.5203 21.8917 23.1638C21.5354 22.8073 21.5354 22.2274 21.8917 21.871C22.07 21.6929 22.304 21.6039 22.538 21.6039C22.7722 21.6039 23.0062 21.6929 23.1845 21.871C23.357 22.0437 23.4522 22.2731 23.4522 22.5174C23.4522 22.7616 23.357 22.9911 23.1843 23.1638Z" fill="#3A312A"/>
<path d="M18.8086 20.4058C19.7017 20.4058 20.4258 19.6817 20.4258 18.7886C20.4258 17.8954 19.7017 17.1714 18.8086 17.1714C17.9154 17.1714 17.1914 17.8954 17.1914 18.7886C17.1914 19.6817 17.9154 20.4058 18.8086 20.4058Z" fill="#87796F"/>
<path d="M18.8086 16.9604C17.8005 16.9604 16.9805 17.7806 16.9805 18.7886C16.9805 19.7966 17.8005 20.6167 18.8086 20.6167C19.8166 20.6167 20.6367 19.7966 20.6367 18.7886C20.6367 17.7806 19.8166 16.9604 18.8086 16.9604ZM18.8086 20.1948C18.0332 20.1948 17.4023 19.564 17.4023 18.7886C17.4023 18.0132 18.0332 17.3823 18.8086 17.3823C19.584 17.3823 20.2148 18.0132 20.2148 18.7886C20.2148 19.564 19.584 20.1948 18.8086 20.1948Z" fill="#3A312A"/>
<path d="M25.911 18.0659C25.9095 18.0589 25.9096 18.0519 25.9081 18.0448C25.8969 17.9337 25.8828 17.8226 25.866 17.7129C25.8631 17.6975 25.8617 17.682 25.8589 17.6665C25.842 17.5625 25.8224 17.4584 25.8013 17.3558C25.797 17.3361 25.7928 17.315 25.7886 17.2953C25.7675 17.194 25.7422 17.0914 25.7155 16.9901C25.7099 16.9704 25.7056 16.9508 25.7014 16.9311C25.6705 16.8214 25.6381 16.7117 25.603 16.6034C25.5636 16.4825 25.5228 16.3615 25.4764 16.242C25.4342 16.1309 25.3892 16.0212 25.3414 15.9129C25.0602 15.2717 24.6875 14.6797 24.2291 14.1425C23.9746 13.8458 23.6989 13.5729 23.4036 13.3254C23.398 13.3198 23.3924 13.3156 23.3867 13.31C23.2996 13.2383 23.211 13.1679 23.1196 13.099C23.1013 13.085 23.0816 13.0709 23.0619 13.0554C22.9831 12.9978 22.903 12.9415 22.8214 12.8867C22.7947 12.8684 22.7694 12.8501 22.7427 12.8333C22.6639 12.7812 22.5838 12.7306 22.5022 12.6814C22.4755 12.6659 22.4488 12.649 22.422 12.6336C22.3306 12.5801 22.2392 12.5295 22.1464 12.4803C22.1281 12.4719 22.1127 12.462 22.0944 12.4536C21.9819 12.3959 21.868 12.3397 21.7527 12.2876C21.7527 12.2876 21.7527 12.2876 21.7513 12.2876C21.7442 12.2834 21.7372 12.2806 21.7302 12.2764C21.7288 12.275 21.7274 12.275 21.726 12.2736C21.7063 12.2651 21.6866 12.2581 21.6683 12.2497C21.5741 12.2089 21.4813 12.1695 21.3871 12.1329C21.3378 12.1147 21.29 12.0978 21.2408 12.0795C21.1761 12.0556 21.11 12.0317 21.0453 12.0106C20.9849 11.9909 20.9244 11.9726 20.8639 11.9544C20.8105 11.9389 20.7571 11.922 20.7036 11.9065C20.6319 11.8869 20.5588 11.8686 20.4871 11.8517C20.4449 11.8419 20.4041 11.8306 20.3633 11.8222C20.2775 11.8025 20.1917 11.7856 20.106 11.7687C20.0792 11.7645 20.0525 11.7589 20.0272 11.7547C19.9274 11.7378 19.8261 11.7223 19.7263 11.7097C19.715 11.7083 19.7038 11.7054 19.6925 11.704C19.4661 11.6759 19.2355 11.659 19.0049 11.652C18.583 11.6408 18.1639 11.6661 17.7505 11.7279C17.8067 11.7364 17.863 11.7448 17.9178 11.7547C17.9431 11.7589 17.9699 11.7645 17.9966 11.7687C18.0824 11.7856 18.1681 11.8025 18.2539 11.8222C18.2947 11.8306 18.3355 11.8419 18.3777 11.8517C18.4494 11.8686 18.5225 11.8869 18.5942 11.9065C18.6477 11.922 18.7011 11.9389 18.7546 11.9544C18.815 11.9726 18.8755 11.9909 18.936 12.0106C19.0006 12.0317 19.0667 12.0556 19.1314 12.0795C19.1806 12.0978 19.2285 12.1147 19.2777 12.1329C19.3719 12.1695 19.4647 12.2089 19.5589 12.2497C19.5772 12.2581 19.5969 12.2651 19.6166 12.2736C19.618 12.275 19.6194 12.275 19.6208 12.2764C19.6278 12.2806 19.6349 12.2834 19.6419 12.2876H19.6433C19.7586 12.3397 19.8725 12.3959 19.985 12.4536C20.0033 12.462 20.0188 12.4719 20.0371 12.4803C20.1299 12.5295 20.2213 12.5801 20.3127 12.6336C20.3394 12.649 20.3661 12.6659 20.3928 12.6814C20.4744 12.7306 20.5546 12.7812 20.6333 12.8333C20.66 12.8501 20.6853 12.8684 20.712 12.8867C20.7936 12.9415 20.8738 12.9978 20.9525 13.0554C20.9722 13.0709 20.9919 13.085 21.0102 13.099C21.1016 13.1679 21.1902 13.2383 21.2774 13.31C21.283 13.3156 21.2886 13.3198 21.2942 13.3254C21.5038 13.5012 21.7035 13.6897 21.8919 13.8908C22.3981 13.6095 23.0521 13.6854 23.4824 14.1158C24.0027 14.6361 24.0027 15.484 23.4824 16.0044C23.4331 16.0536 23.3811 16.0986 23.3263 16.1379C23.3403 16.1731 23.3544 16.2069 23.3671 16.242C23.4135 16.3615 23.4542 16.4825 23.4936 16.6034C23.5288 16.7117 23.5611 16.8214 23.5921 16.9311C23.5963 16.9508 23.6005 16.9704 23.6061 16.9901C23.6328 17.0914 23.6581 17.194 23.6792 17.2953C23.6835 17.315 23.6877 17.3361 23.6919 17.3558C23.713 17.4584 23.7327 17.5625 23.7495 17.6665C23.7524 17.682 23.7538 17.6975 23.7566 17.7129C23.7735 17.8226 23.7875 17.9337 23.7988 18.0448C23.8002 18.0519 23.8002 18.0589 23.8016 18.0659C23.8255 18.3022 23.8381 18.5384 23.8381 18.7775C23.8381 19.039 23.8227 19.3006 23.7945 19.5636C23.7481 19.9953 23.661 20.4186 23.5372 20.832C23.5231 20.8784 23.5091 20.9262 23.4936 20.974C23.4795 21.019 23.4641 21.0654 23.4486 21.1104C23.4247 21.1765 23.4008 21.2426 23.3769 21.3073C23.3642 21.3397 23.353 21.372 23.3403 21.4029C23.3361 21.4142 23.3305 21.4269 23.3263 21.4381C23.3811 21.4789 23.4331 21.5239 23.4824 21.5731C24.0027 22.0934 24.0027 22.9414 23.4824 23.4617C23.2292 23.7148 22.8946 23.854 22.5374 23.854C22.3067 23.854 22.0874 23.7964 21.8905 23.6867C21.8399 23.7415 21.7878 23.7936 21.7358 23.8456C21.7344 23.8484 21.7316 23.8512 21.7288 23.854C21.6542 23.9272 21.5769 23.9989 21.4996 24.0706C21.4728 24.0945 21.4461 24.1184 21.4194 24.1409C21.366 24.1887 21.3111 24.2351 21.2563 24.2801C21.2239 24.3069 21.193 24.3336 21.1606 24.3589C21.1325 24.3828 21.1016 24.4039 21.0721 24.4278C20.9708 24.5065 20.8681 24.5825 20.7627 24.6542C20.7542 24.6598 20.7472 24.6654 20.7402 24.6711C20.6741 24.7147 20.6094 24.7583 20.5433 24.8004C20.5363 24.8047 20.5292 24.8089 20.5222 24.8131C19.6813 25.3447 18.7363 25.6976 17.7505 25.8467C17.9727 25.8819 18.1949 25.9044 18.4185 25.9156C18.4339 25.917 18.4508 25.917 18.4663 25.9184C18.5731 25.9226 18.6786 25.9254 18.7855 25.9254H18.8375C20.1861 25.9184 21.5038 25.5275 22.6316 24.8131C22.6386 24.8089 22.6456 24.8047 22.6527 24.8004C22.7188 24.7583 22.7835 24.7147 22.8496 24.6711C22.8566 24.6654 22.8636 24.6598 22.872 24.6542C22.9775 24.5825 23.0802 24.5065 23.1814 24.4278C23.211 24.4039 23.2419 24.3828 23.27 24.3589C23.3024 24.3336 23.3333 24.3069 23.3656 24.2801C23.4205 24.2351 23.4753 24.1887 23.5288 24.1409C23.5555 24.1184 23.5822 24.0945 23.6089 24.0706C23.6863 23.9989 23.7636 23.9272 23.8381 23.854C23.841 23.8512 23.8438 23.8484 23.8452 23.8456C23.9211 23.7711 23.9956 23.6937 24.0674 23.615C24.0828 23.5981 24.0969 23.5812 24.1124 23.5644C24.1827 23.487 24.2502 23.4097 24.3163 23.3281C24.3191 23.3253 24.3219 23.3211 24.3261 23.3183C24.6285 22.9484 24.8942 22.5476 25.1206 22.1187C25.1206 22.1173 25.1206 22.1173 25.1206 22.1173C25.1614 22.0414 25.1966 21.9725 25.2289 21.9064C25.2613 21.8389 25.2936 21.7714 25.3245 21.7039C25.3681 21.604 25.4103 21.5042 25.4497 21.4029C25.4624 21.372 25.4736 21.3397 25.4863 21.3073C25.5102 21.2426 25.5341 21.1765 25.558 21.1104C25.5735 21.0654 25.5889 21.019 25.603 20.974C25.6185 20.9262 25.6325 20.8784 25.6466 20.832C25.7703 20.4186 25.8575 19.9953 25.9039 19.5636C25.932 19.3006 25.9475 19.039 25.9475 18.7775C25.9474 18.5384 25.9347 18.302 25.911 18.0659Z" fill="#6CA8BF"/>
<path d="M23.9658 27.0271H33.6833V33.6631H23.9658V27.0271Z" fill="#F16C7A"/>
<path d="M33.6833 26.8162H23.9658C23.8494 26.8162 23.7549 26.9105 23.7549 27.0271V33.6631C23.7549 33.7796 23.8494 33.874 23.9658 33.874H30.3239C30.4403 33.874 30.5348 33.7796 30.5348 33.6631C30.5348 33.5465 30.4403 33.4521 30.3239 33.4521H24.1768V27.238H33.4724V33.4521H32.2506C32.1342 33.4521 32.0397 33.5465 32.0397 33.6631C32.0397 33.7796 32.1342 33.874 32.2506 33.874H33.6833C33.7997 33.874 33.8942 33.7796 33.8942 33.6631V27.0271C33.8942 26.9105 33.7997 26.8162 33.6833 26.8162Z" fill="#3A312A"/>
<path d="M23.9658 28.095H33.6833V28.9387H23.9658V28.095Z" fill="#F8E4C8"/>
<path d="M33.6833 27.8843H23.9658C23.8494 27.8843 23.7549 27.9786 23.7549 28.0952V28.939C23.7549 29.0555 23.8494 29.1499 23.9658 29.1499H33.6833C33.7997 29.1499 33.8942 29.0555 33.8942 28.939V28.0952C33.8942 27.9786 33.7997 27.8843 33.6833 27.8843ZM33.4724 28.728H24.1768V28.3062H33.4724V28.728Z" fill="#3A312A"/>
<path d="M23.9658 29.9231H33.6833V30.7668H23.9658V29.9231Z" fill="#F8E4C8"/>
<path d="M33.6833 29.7124H23.9658C23.8494 29.7124 23.7549 29.8068 23.7549 29.9233V30.7671C23.7549 30.8837 23.8494 30.978 23.9658 30.978H33.6833C33.7997 30.978 33.8942 30.8837 33.8942 30.7671V29.9233C33.8942 29.8068 33.7997 29.7124 33.6833 29.7124ZM33.4724 30.5562H24.1768V30.1343H33.4724V30.5562Z" fill="#3A312A"/>
<path d="M23.9658 31.7512H33.6833V32.595H23.9658V31.7512Z" fill="#F8E4C8"/>
<path d="M33.6833 31.5405H23.9658C23.8494 31.5405 23.7549 31.6349 23.7549 31.7515V32.5952C23.7549 32.7118 23.8494 32.8062 23.9658 32.8062H33.6833C33.7997 32.8062 33.8942 32.7118 33.8942 32.5952V31.7515C33.8942 31.6349 33.7997 31.5405 33.6833 31.5405ZM33.4724 32.3843H24.1768V31.9624H33.4724V32.3843Z" fill="#3A312A"/>
<path d="M23.9658 27.0271H27.9729V29.9231H23.9658V27.0271Z" fill="#8AC3DA"/>
<path d="M27.9729 26.8162H23.9658C23.8494 26.8162 23.7549 26.9105 23.7549 27.0271V29.9233C23.7549 30.0398 23.8494 30.1342 23.9658 30.1342H27.9729C28.0894 30.1342 28.1839 30.0398 28.1839 29.9233V27.0271C28.1839 26.9105 28.0894 26.8162 27.9729 26.8162ZM27.762 29.7123H24.1768V27.238H27.762V29.7123Z" fill="#3A312A"/>
</svg>
