<svg width="40" height="40" viewBox="0 0 40 40" fill="none" xmlns="http://www.w3.org/2000/svg">
<path d="M35.4109 6.66084C35.1641 6.66084 34.9266 6.61709 34.7078 6.53584V22.9483H33.1094V24.5108H35.4891C35.9203 24.5108 36.2703 24.1608 36.2703 23.7296V6.47021C36.0094 6.59365 35.7188 6.66084 35.4109 6.66084Z" fill="#EF6D7A"/>
<path d="M36.3956 6.27223C36.3278 6.2291 36.2425 6.2241 36.17 6.25832C35.745 6.45957 35.2316 6.48051 34.7894 6.31614C34.7175 6.28942 34.6369 6.29957 34.5739 6.34348C34.5109 6.38723 34.4734 6.4591 34.4734 6.53598V22.7141H33.1094C32.9798 22.7141 32.875 22.819 32.875 22.9485V24.511C32.875 24.6405 32.9798 24.7454 33.1094 24.7454H35.4891C36.0491 24.7454 36.5047 24.2897 36.5047 23.7297V6.4702C36.5047 6.38989 36.4636 6.3152 36.3956 6.27223ZM36.0359 23.7296C36.0359 24.0311 35.7906 24.2765 35.4891 24.2765H33.3438V23.1827H34.7078C34.8373 23.1827 34.9422 23.0779 34.9422 22.9483V6.84692C35.3014 6.92239 35.6867 6.90879 36.0359 6.80848V23.7296Z" fill="#3A312A"/>
<path d="M7.42432 4.11035C7.27213 5.91723 5.38916 6.20238 5.38916 6.20238C7.00588 6.27848 7.40869 8.3991 7.40869 8.3991C7.44322 6.88707 9.4901 6.18004 9.4901 6.18004C7.95682 6.08848 7.42432 4.11035 7.42432 4.11035Z" fill="#D6DF58"/>
<path d="M9.50435 5.94623C8.15997 5.86592 7.65575 4.06748 7.65075 4.04936C7.62091 3.93951 7.51622 3.86701 7.40341 3.87717C7.29013 3.88748 7.20059 3.97748 7.19106 4.09076C7.05669 5.68685 5.42325 5.95998 5.3545 5.97076C5.23528 5.98873 5.14934 6.0942 5.15559 6.21451C5.16184 6.33482 5.25825 6.43076 5.37872 6.43654C6.78934 6.50295 7.17544 8.42373 7.17903 8.4431C7.20044 8.5542 7.29763 8.63326 7.40903 8.63326C7.4156 8.63326 7.42216 8.6331 7.42872 8.63248C7.5481 8.62248 7.64075 8.5242 7.64356 8.40435C7.67388 7.07498 9.54841 6.40795 9.56747 6.40139C9.67294 6.36467 9.7381 6.25842 9.72278 6.14779C9.70716 6.03748 9.61591 5.95295 9.50435 5.94623ZM7.38481 7.56279C7.17278 7.07373 6.80528 6.48357 6.19934 6.17576C6.65731 5.95639 7.20075 5.56435 7.48091 4.88326C7.72325 5.3631 8.137 5.95826 8.7831 6.24607C8.3131 6.50232 7.70138 6.93451 7.38481 7.56279Z" fill="#3A312A"/>
<path d="M4.03361 6.76367C3.92596 8.04164 2.59424 8.24352 2.59424 8.24352C3.73768 8.29727 4.02268 9.79727 4.02268 9.79727C4.04705 8.72789 5.49486 8.22773 5.49486 8.22773C4.41033 8.16273 4.03361 6.76367 4.03361 6.76367Z" fill="#D6DF58"/>
<path d="M5.50927 7.99387C4.60833 7.93997 4.26364 6.71497 4.2602 6.70262C4.23052 6.59294 4.12645 6.52059 4.01302 6.53044C3.89958 6.54059 3.81005 6.63075 3.80052 6.74419C3.71005 7.81762 2.60583 8.0045 2.55958 8.01184C2.44036 8.02981 2.35442 8.13528 2.36067 8.25559C2.36692 8.3759 2.46333 8.47184 2.58364 8.47762C3.52677 8.522 3.79052 9.82825 3.79286 9.84106C3.81395 9.95247 3.91145 10.0317 4.02286 10.0317C4.02942 10.0317 4.03583 10.0315 4.04239 10.0309C4.16192 10.0211 4.25458 9.92247 4.25739 9.80262C4.2777 8.91059 5.55927 8.45356 5.57192 8.44919C5.6777 8.41262 5.74286 8.30653 5.72755 8.19575C5.71223 8.08512 5.62098 8.00059 5.50927 7.99387ZM4.01161 9.05559C3.86723 8.7609 3.64598 8.43887 3.31677 8.23059C3.60661 8.06794 3.89442 7.81981 4.07786 7.46247C4.24302 7.75528 4.49255 8.08044 4.84989 8.27872C4.56098 8.45059 4.22661 8.70684 4.01161 9.05559Z" fill="#3A312A"/>
<path d="M4.03361 2.59839C3.92596 3.87636 2.59424 4.07823 2.59424 4.07823C3.73768 4.13198 4.02268 5.63198 4.02268 5.63198C4.04705 4.56261 5.49486 4.06245 5.49486 4.06245C4.41033 3.99745 4.03361 2.59839 4.03361 2.59839Z" fill="#D6DF58"/>
<path d="M5.50928 3.82853C4.60819 3.77462 4.2635 2.54962 4.26022 2.53712C4.23053 2.42743 4.12647 2.35493 4.01303 2.36493C3.89959 2.37509 3.81006 2.46525 3.80053 2.57868C3.71006 3.65228 2.60584 3.83915 2.55959 3.8465C2.44037 3.86446 2.35428 3.96993 2.36069 4.09025C2.36694 4.21056 2.46334 4.3065 2.58381 4.31228C3.52678 4.35665 3.79053 5.6629 3.79303 5.67571C3.81412 5.78712 3.91162 5.86634 4.02303 5.86634C4.02959 5.86634 4.036 5.86603 4.04256 5.86556C4.16209 5.85571 4.25475 5.75712 4.25756 5.63728C4.27787 4.74525 5.55928 4.28821 5.57209 4.28384C5.67772 4.24728 5.74303 4.14118 5.72772 4.0304C5.71225 3.91993 5.621 3.83525 5.50928 3.82853ZM4.01162 4.89025C3.86725 4.59571 3.646 4.27353 3.31678 4.06525C3.60678 3.90259 3.89444 3.65431 4.07787 3.29712C4.24303 3.58978 4.49272 3.91493 4.8499 4.11337C4.561 4.2854 4.22662 4.5415 4.01162 4.89025Z" fill="#3A312A"/>
<path d="M30.0027 10.0579H5.66406C4.75156 10.0579 4.01172 10.7975 4.01172 11.7102V35.7493C4.01172 36.6618 4.75141 37.4016 5.66406 37.4016H30.0027C30.9152 37.4016 31.655 36.6619 31.655 35.7493V11.71C31.655 10.7975 30.9152 10.0579 30.0027 10.0579Z" fill="#87796F"/>
<path d="M30.002 9.82349H5.66357C4.62326 9.82349 3.77686 10.6699 3.77686 11.7102V13.3649C3.77686 13.4944 3.8817 13.5993 4.01123 13.5993C4.14076 13.5993 4.24561 13.4944 4.24561 13.3649V11.7102C4.24561 10.9283 4.8817 10.2922 5.66357 10.2922H30.0022C30.784 10.2922 31.4201 10.9283 31.4201 11.7102V35.7494C31.4201 36.5313 30.784 37.1674 30.0022 37.1674H5.66357C4.8817 37.1674 4.24561 36.5313 4.24561 35.7494V15.5936C4.24561 15.4641 4.14076 15.3593 4.01123 15.3593C3.8817 15.3593 3.77686 15.4641 3.77686 15.5936V35.7493C3.77686 36.7896 4.62326 37.636 5.66357 37.636H30.0022C31.0425 37.636 31.8889 36.7896 31.8889 35.7493V11.71C31.8887 10.6697 31.0423 9.82349 30.002 9.82349Z" fill="#3A312A"/>
<path d="M31.4564 17.7241H4.20996C3.29746 17.7241 2.55762 18.4638 2.55762 19.3765V28.083C2.55762 28.9955 3.29746 29.7354 4.20996 29.7354H31.4564C32.3689 29.7354 33.1087 28.9957 33.1087 28.083V19.3765C33.1087 18.4638 32.369 17.7241 31.4564 17.7241Z" fill="#FAE6CA"/>
<path d="M31.4564 17.4897H26.8289C26.6993 17.4897 26.5945 17.5946 26.5945 17.7241C26.5945 17.8537 26.6993 17.9585 26.8289 17.9585H31.4564C32.2382 17.9585 32.8743 18.5946 32.8743 19.3765V28.083C32.8743 28.8649 32.2382 29.501 31.4564 29.501H4.20996C3.42809 29.501 2.79199 28.8649 2.79199 28.083V19.3765C2.79199 18.5946 3.42809 17.9585 4.20996 17.9585H24.6818C24.8114 17.9585 24.9162 17.8537 24.9162 17.7241C24.9162 17.5946 24.8114 17.4897 24.6818 17.4897H4.20996C3.16965 17.4897 2.32324 18.3362 2.32324 19.3765V28.083C2.32324 29.1233 3.16965 29.9697 4.20996 29.9697H31.4564C32.4967 29.9697 33.3431 29.1233 33.3431 28.083V19.3765C33.3431 18.3362 32.4968 17.4897 31.4564 17.4897Z" fill="#3A312A"/>
<path d="M4.43311 20.2205V21.977H8.13014C7.37092 22.92 6.81607 23.8051 6.46545 24.6323C6.11482 25.4595 5.85779 26.4842 5.69436 27.7062H7.76764C7.83561 26.828 7.96842 26.0672 8.16592 25.4237C8.41436 24.5966 8.75311 23.8459 9.18201 23.1719C9.53608 22.617 9.97686 22.1012 10.5045 21.6247V20.2205H4.43311Z" fill="#EF6D7A"/>
<path d="M10.5045 19.9861H4.43311C4.30357 19.9861 4.19873 20.0909 4.19873 20.2205V21.977C4.19873 22.1066 4.30357 22.2114 4.43311 22.2114H7.6492C7.0292 23.0283 6.5592 23.8103 6.24951 24.5408C5.89232 25.3833 5.62732 26.4378 5.46201 27.6752C5.45311 27.7422 5.47342 27.8097 5.51795 27.8605C5.56248 27.9114 5.6267 27.9405 5.69436 27.9405H7.76748C7.88998 27.9405 7.9917 27.8462 8.00123 27.7242C8.06764 26.8672 8.19842 26.1162 8.39029 25.4911C8.63139 24.6884 8.9642 23.9505 9.37951 23.2978C9.72045 22.7634 10.1517 22.2589 10.6615 21.7984C10.7108 21.7539 10.7389 21.6908 10.7389 21.6245V20.2203C10.7389 20.0909 10.6339 19.9861 10.5045 19.9861ZM10.2701 21.5214C9.76279 21.9909 9.33045 22.5034 8.98436 23.0461C8.54576 23.7351 8.19498 24.5125 7.94201 25.355C7.75686 25.9581 7.62608 26.6694 7.55248 27.4719H5.9642C6.12514 26.3909 6.36592 25.4673 6.68123 24.7237C7.02186 23.9201 7.57076 23.0455 8.31279 22.1241C8.36936 22.0537 8.38061 21.9572 8.3417 21.8759C8.30264 21.7945 8.22061 21.7426 8.13029 21.7426H4.66748V20.4548H10.2701V21.5214Z" fill="#3A312A"/>
<path d="M14.7974 20.2205V21.977H18.4942C17.7352 22.92 17.1802 23.8051 16.8297 24.6323C16.4791 25.4595 16.2221 26.4842 16.0586 27.7062H18.1317C18.1999 26.828 18.3325 26.0672 18.53 25.4237C18.7786 24.5966 19.1174 23.8459 19.5463 23.1719C19.9003 22.617 20.3411 22.1012 20.8688 21.6247V20.2205H14.7974Z" fill="#EF6D7A"/>
<path d="M20.8686 19.9861H14.7974C14.6678 19.9861 14.563 20.0909 14.563 20.2205V21.977C14.563 22.1066 14.6678 22.2114 14.7974 22.2114H18.0135C17.3933 23.0287 16.9233 23.8106 16.6139 24.5408C16.2567 25.3833 15.9917 26.4378 15.8263 27.6752C15.8174 27.7422 15.8377 27.8097 15.8822 27.8605C15.9267 27.9114 15.991 27.9405 16.0586 27.9405H18.1317C18.2542 27.9405 18.356 27.8462 18.3655 27.7242C18.4319 26.8672 18.5627 26.1162 18.7545 25.4911C18.9958 24.6883 19.3288 23.9503 19.7439 23.2978C20.0849 22.7634 20.5161 22.2589 21.0259 21.7984C21.0752 21.7539 21.1033 21.6908 21.1033 21.6245V20.2203C21.103 20.0909 20.9981 19.9861 20.8686 19.9861ZM20.6342 21.5214C20.1269 21.9909 19.6945 22.5034 19.3485 23.0461C18.91 23.735 18.5591 24.5122 18.306 25.355C18.1208 25.9581 17.99 26.6694 17.9164 27.4719H16.3285C16.4894 26.3909 16.7302 25.4673 17.0455 24.7237C17.3858 23.9206 17.9345 23.0459 18.6767 22.1239C18.7333 22.0536 18.7445 21.9572 18.7056 21.8758C18.6666 21.7944 18.5845 21.7426 18.4942 21.7426H15.0317V20.4548H20.6342V21.5214Z" fill="#3A312A"/>
<path d="M25.1621 20.2205V21.977H28.8591C28.0999 22.92 27.5451 23.8051 27.1945 24.6323C26.8438 25.4595 26.5868 26.4842 26.4234 27.7062H28.4966C28.5646 26.828 28.6974 26.0672 28.8949 25.4237C29.1434 24.5966 29.4821 23.8459 29.911 23.1719C30.2651 22.617 30.7059 22.1012 31.2335 21.6247V20.2205H25.1621Z" fill="#EF6D7A"/>
<path d="M31.2335 19.9861H25.1621C25.0326 19.9861 24.9277 20.0909 24.9277 20.2205V21.977C24.9277 22.1066 25.0326 22.2114 25.1621 22.2114H28.3782C27.7582 23.0283 27.2882 23.8103 26.9785 24.5408C26.6213 25.3833 26.3563 26.4378 26.191 27.6752C26.1821 27.7422 26.2024 27.8097 26.247 27.8605C26.2915 27.9114 26.3557 27.9405 26.4234 27.9405H28.4966C28.6191 27.9405 28.7209 27.8462 28.7304 27.7242C28.7968 26.8672 28.9276 26.1162 29.1195 25.4911C29.3605 24.6884 29.6934 23.9505 30.1087 23.2978C30.4496 22.7634 30.8809 22.2589 31.3907 21.7984C31.4399 21.7539 31.468 21.6908 31.468 21.6245V20.2203C31.4679 20.0909 31.3629 19.9861 31.2335 19.9861ZM30.9991 21.5214C30.4918 21.9909 30.0594 22.5034 29.7134 23.0461C29.2748 23.7351 28.924 24.5125 28.671 25.355C28.4859 25.9581 28.3551 26.6694 28.2815 27.4719H26.6934C26.8543 26.3909 27.0951 25.4673 27.4104 24.7237C27.751 23.9201 28.2999 23.0455 29.042 22.1241C29.0985 22.0537 29.1098 21.9572 29.0709 21.8759C29.0319 21.7945 28.9498 21.7426 28.8595 21.7426H25.3968V20.4548H30.9994V21.5214H30.9991Z" fill="#3A312A"/>
<path d="M23.6963 9.36283C24.2801 8.79377 23.9581 7.80236 23.1512 7.68502L20.5976 7.31392C20.2773 7.26736 20.0002 7.06611 19.857 6.7758L18.7149 4.46189C18.3542 3.7308 17.3117 3.7308 16.9509 4.46189L15.8088 6.7758C15.6656 7.06611 15.3885 7.26736 15.0682 7.31392L12.5146 7.68502C11.7079 7.80221 11.3857 8.79377 11.9695 9.36283L13.8173 11.1639C14.0492 11.3899 14.1549 11.7155 14.1001 12.0345L13.6638 14.5778C13.526 15.3814 14.3695 15.9941 15.091 15.6147L17.3749 14.4139C17.6615 14.2633 18.0038 14.2633 18.2904 14.4139L20.5743 15.6147C21.2959 15.9941 22.1393 15.3814 22.0015 14.5778L21.5653 12.0345C21.5106 11.7155 21.6163 11.3899 21.8481 11.1639L23.6963 9.36283Z" fill="#D6DF58"/>
<path d="M23.8601 9.53085C24.1946 9.20491 24.3126 8.72632 24.1684 8.2821C24.024 7.83804 23.6473 7.52038 23.1852 7.45319L20.6316 7.0821C20.3876 7.04663 20.1768 6.89351 20.0676 6.67226L18.9256 4.35835C18.7188 3.9396 18.3004 3.67944 17.8334 3.67944C17.3663 3.67944 16.9479 3.9396 16.7412 4.35835L15.5991 6.67226C15.4899 6.89351 15.2791 7.04663 15.0349 7.0821L12.4813 7.45319C12.0191 7.52038 11.6424 7.83788 11.498 8.2821C11.3537 8.72632 11.4718 9.20476 11.8063 9.53085L13.654 11.3319C13.8306 11.5041 13.9112 11.7519 13.8695 11.9952L13.4332 14.5384C13.3543 14.9987 13.5399 15.4551 13.9177 15.7296C14.1313 15.8848 14.381 15.9635 14.6326 15.9635C14.8262 15.9635 15.0207 15.9168 15.2006 15.8223L17.4845 14.6215C17.7026 14.5066 17.9635 14.5068 18.1816 14.6215L20.4657 15.8223C20.879 16.0396 21.3706 16.0041 21.7484 15.7296C22.1262 15.4551 22.3118 14.9987 22.2329 14.5384L21.7966 11.9952C21.7549 11.7521 21.8356 11.5041 22.0121 11.3319L23.8601 9.53085ZM21.3348 12.0743L21.771 14.6174C21.8202 14.9049 21.709 15.1788 21.4731 15.3502C21.237 15.5218 20.942 15.543 20.684 15.4073L18.4001 14.2065C18.2226 14.1132 18.0279 14.0665 17.8332 14.0665C17.6385 14.0665 17.4438 14.1132 17.2665 14.2065L14.9826 15.4073C14.7243 15.543 14.4296 15.5216 14.1935 15.3502C13.9576 15.1788 13.8462 14.9049 13.8954 14.6174L14.3316 12.0743C14.3995 11.679 14.2684 11.276 13.9813 10.9962L12.1335 9.19507C11.9248 8.99148 11.8538 8.70429 11.944 8.42694C12.0341 8.1496 12.2602 7.95898 12.5488 7.9171L15.1023 7.54601C15.4991 7.48851 15.842 7.23944 16.0195 6.87976L17.1615 4.56585C17.2906 4.30429 17.5416 4.14819 17.8334 4.14819C18.1251 4.14819 18.3762 4.30444 18.5052 4.56585L19.6473 6.87976C19.8248 7.23929 20.1677 7.48851 20.5643 7.54601L23.1179 7.9171C23.4065 7.95913 23.6326 8.1496 23.7227 8.42694C23.8129 8.70429 23.742 8.99148 23.5332 9.19507L21.6854 10.9962C21.3981 11.276 21.267 11.679 21.3348 12.0743Z" fill="#3A312A"/>
<path d="M35.4111 6.66089C36.533 6.66089 37.4424 5.75147 37.4424 4.62964C37.4424 3.50781 36.533 2.59839 35.4111 2.59839C34.2893 2.59839 33.3799 3.50781 33.3799 4.62964C33.3799 5.75147 34.2893 6.66089 35.4111 6.66089Z" fill="#8AC5DC"/>
<path d="M35.4111 2.36401C34.1619 2.36401 33.1455 3.38042 33.1455 4.62964C33.1455 5.87886 34.1619 6.89526 35.4111 6.89526C36.6604 6.89526 37.6768 5.87886 37.6768 4.62964C37.6768 3.38042 36.6604 2.36401 35.4111 2.36401ZM35.4111 6.42651C34.4204 6.42651 33.6143 5.62042 33.6143 4.62964C33.6143 3.63886 34.4204 2.83276 35.4111 2.83276C36.4019 2.83276 37.208 3.63886 37.208 4.62964C37.208 5.62058 36.4019 6.42651 35.4111 6.42651Z" fill="#3A312A"/>
<path d="M8.12857 35.0758C8.9374 34.8846 9.43809 34.0739 9.2469 33.2651C9.05571 32.4562 8.24503 31.9555 7.4362 32.1467C6.62737 32.3379 6.12667 33.1486 6.31787 33.9574C6.50906 34.7663 7.31974 35.267 8.12857 35.0758Z" fill="#89C4DB"/>
<path d="M7.77566 31.8818C6.81645 31.8818 6.03613 32.6621 6.03613 33.6214C6.03613 34.5806 6.81645 35.3609 7.77566 35.3609C8.73488 35.3609 9.51519 34.5806 9.51519 33.6214C9.51519 32.6623 8.73488 31.8818 7.77566 31.8818ZM7.77566 34.8921C7.07504 34.8921 6.50488 34.3221 6.50488 33.6214C6.50488 32.9207 7.07488 32.3506 7.77566 32.3506C8.47644 32.3506 9.04644 32.9206 9.04644 33.6214C9.04644 34.3221 8.47644 34.8921 7.77566 34.8921Z" fill="#3A312A"/>
<path d="M15.5401 34.6835C16.1278 34.0958 16.1278 33.143 15.5401 32.5552C14.9524 31.9675 13.9995 31.9675 13.4118 32.5552C12.8241 33.143 12.8241 34.0958 13.4118 34.6835C13.9995 35.2712 14.9524 35.2712 15.5401 34.6835Z" fill="#89C4DB"/>
<path d="M14.4807 31.8818C13.5215 31.8818 12.7412 32.6621 12.7412 33.6214C12.7412 34.5806 13.5215 35.3609 14.4807 35.3609C15.44 35.3609 16.2203 34.5806 16.2203 33.6214C16.2203 32.6623 15.44 31.8818 14.4807 31.8818ZM14.4807 34.8921C13.78 34.8921 13.21 34.3221 13.21 33.6214C13.21 32.9207 13.78 32.3506 14.4807 32.3506C15.1814 32.3506 15.7515 32.9206 15.7515 33.6214C15.7515 34.3221 15.1815 34.8921 14.4807 34.8921Z" fill="#3A312A"/>
<path d="M21.9937 34.9085C22.7011 34.4712 22.9201 33.5433 22.4829 32.8359C22.0456 32.1285 21.1177 31.9095 20.4103 32.3467C19.7029 32.784 19.4839 33.7119 19.9211 34.4193C20.3584 35.1267 21.2863 35.3457 21.9937 34.9085Z" fill="#89C4DB"/>
<path d="M21.1853 31.8818C20.2261 31.8818 19.4458 32.6621 19.4458 33.6214C19.4458 34.5806 20.2261 35.3609 21.1853 35.3609C22.1446 35.3609 22.9249 34.5806 22.9249 33.6214C22.925 32.6623 22.1447 31.8818 21.1853 31.8818ZM21.1853 34.8921C20.4846 34.8921 19.9146 34.3221 19.9146 33.6214C19.9146 32.9207 20.4846 32.3506 21.1853 32.3506C21.8861 32.3506 22.4561 32.9206 22.4561 33.6214C22.4563 34.3221 21.8861 34.8921 21.1853 34.8921Z" fill="#3A312A"/>
<path d="M28.9478 34.685C29.5355 34.0973 29.5355 33.1444 28.9478 32.5567C28.3601 31.969 27.4072 31.969 26.8195 32.5567C26.2318 33.1444 26.2318 34.0973 26.8195 34.685C27.4072 35.2727 28.3601 35.2727 28.9478 34.685Z" fill="#89C4DB"/>
<path d="M27.8904 31.8818C26.9312 31.8818 26.1509 32.6621 26.1509 33.6214C26.1509 34.5806 26.9312 35.3609 27.8904 35.3609C28.8496 35.3609 29.6299 34.5806 29.6299 33.6214C29.6301 32.6623 28.8498 31.8818 27.8904 31.8818ZM27.8904 34.8921C27.1896 34.8921 26.6196 34.3221 26.6196 33.6214C26.6196 32.9207 27.1896 32.3506 27.8904 32.3506C28.5912 32.3506 29.1612 32.9206 29.1612 33.6214C29.1613 34.3221 28.5912 34.8921 27.8904 34.8921Z" fill="#3A312A"/>
<path d="M12.7158 17.4797C12.5863 17.4797 12.4814 17.5846 12.4814 17.7141V29.7454C12.4814 29.8749 12.5863 29.9797 12.7158 29.9797C12.8454 29.9797 12.9502 29.8749 12.9502 29.7454V17.7141C12.9502 17.5846 12.8452 17.4797 12.7158 17.4797Z" fill="#3A312A"/>
<path d="M22.9502 17.4797C22.8207 17.4797 22.7158 17.5846 22.7158 17.7141V29.7454C22.7158 29.8749 22.8207 29.9797 22.9502 29.9797C23.0797 29.9797 23.1846 29.8749 23.1846 29.7454V17.7141C23.1846 17.5846 23.0796 17.4797 22.9502 17.4797Z" fill="#3A312A"/>
<path d="M30.0034 10.2922H27.6597C28.4409 10.2922 29.0769 10.9282 29.0769 11.7094V17.4891H31.4206V11.7094C31.4206 10.9282 30.7847 10.2922 30.0034 10.2922Z" fill="#695B51"/>
<path d="M29.0769 29.9702V32.3499C29.4175 32.6687 29.63 33.1202 29.63 33.6218C29.63 34.1233 29.4175 34.5749 29.0769 34.8937V35.7483C29.0769 36.5311 28.4409 37.1671 27.6597 37.1671H30.0034C30.7847 37.1671 31.4206 36.5311 31.4206 35.7483V29.9702H29.0769Z" fill="#695B51"/>
<path d="M31.4561 17.9578H29.1123C29.8936 17.9578 30.5311 18.5937 30.5311 19.3765V19.9859H31.2326C31.3623 19.9859 31.467 20.0906 31.467 20.2203V21.6249C31.467 21.6906 31.4389 21.7546 31.3904 21.7984C31.0732 22.0859 30.7857 22.3906 30.5311 22.7093V28.0828C30.5311 28.864 29.8936 29.5015 29.1123 29.5015H31.4561C32.2373 29.5015 32.8748 28.864 32.8748 28.0828V19.3765C32.8748 18.5937 32.2373 17.9578 31.4561 17.9578Z" fill="#DDC9AC"/>
</svg>
