<svg width="21" height="12" viewBox="0 0 21 12" fill="none" xmlns="http://www.w3.org/2000/svg">
<path d="M19.4308 1.69451H7.38308C7.05185 0.710754 6.12135 0 5.02733 0C3.9333 0 3.0028 0.710754 2.67158 1.69451H0.791016C0.354164 1.69451 0 2.04868 0 2.48553C0 2.92238 0.354164 3.27654 0.791016 3.27654H2.67163C3.00285 4.2603 3.93335 4.97106 5.02738 4.97106C6.12141 4.97106 7.0519 4.2603 7.38313 3.27654H19.4309C19.8677 3.27654 20.2219 2.92238 20.2219 2.48553C20.2219 2.04868 19.8677 1.69451 19.4308 1.69451ZM5.02733 3.38903C4.52914 3.38903 4.12383 2.98371 4.12383 2.48553C4.12383 1.98735 4.52914 1.58203 5.02733 1.58203C5.52551 1.58203 5.93082 1.98735 5.93082 2.48553C5.93082 2.98371 5.52551 3.38903 5.02733 3.38903Z" fill="black"/>
<path d="M19.4308 8.47259H17.5502C17.219 7.48883 16.2884 6.77808 15.1945 6.77808C14.1005 6.77808 13.17 7.48883 12.8388 8.47259H0.791016C0.354164 8.47259 0 8.82676 0 9.26361C0 9.70046 0.354164 10.0546 0.791016 10.0546H12.8388C13.17 11.0384 14.1005 11.7491 15.1945 11.7491C16.2885 11.7491 17.219 11.0384 17.5503 10.0546H19.4309C19.8677 10.0546 20.2219 9.70046 20.2219 9.26361C20.2219 8.82676 19.8677 8.47259 19.4308 8.47259ZM15.1945 10.1671C14.6963 10.1671 14.291 9.76179 14.291 9.26361C14.291 8.76543 14.6963 8.36011 15.1945 8.36011C15.6927 8.36011 16.098 8.76543 16.098 9.26361C16.098 9.76179 15.6927 10.1671 15.1945 10.1671Z" fill="black"/>
</svg>
