<svg width="20" height="20" viewBox="0 0 20 20" fill="none" xmlns="http://www.w3.org/2000/svg">
<path d="M17.7589 18.9609L17.7589 18.9609C17.9445 19.1464 18.2451 19.1464 18.4307 18.9609L18.4307 18.9609L18.9609 18.4307L18.8902 18.36L18.9609 18.4307C19.1464 18.2451 19.1464 17.9444 18.9609 17.7589L13.7953 12.5933C14.7671 11.3629 15.35 9.81139 15.35 8.12503C15.35 4.14108 12.1089 0.9 8.125 0.9C4.14104 0.9 0.9 4.14108 0.9 8.12503C0.9 12.109 4.14108 15.3501 8.12503 15.3501C9.81139 15.3501 11.3629 14.7671 12.5933 13.7953L17.7589 18.9609ZM8.12503 13.65C5.07845 13.65 2.60002 11.1716 2.60002 8.12503C2.60002 5.07845 5.07845 2.60002 8.12503 2.60002C11.1716 2.60002 13.65 5.07845 13.65 8.12503C13.65 11.1716 11.1716 13.65 8.12503 13.65Z" fill="#fff" stroke="white" stroke-width="0.2"/>
</svg>
