<svg width="96" height="90" viewBox="0 0 96 90" fill="none" xmlns="http://www.w3.org/2000/svg">
<path d="M90.786 50.3331C91.8452 50.3331 92.7039 49.4745 92.7039 48.4153C92.7039 47.3561 91.8452 46.4974 90.786 46.4974C89.7268 46.4974 88.8682 47.3561 88.8682 48.4153C88.8682 49.4745 89.7268 50.3331 90.786 50.3331Z" fill="#DCDDDE"/>
<path d="M46.7306 11.5348L43.7089 14.929H43.0053C39.3351 15.7845 37.1413 20.3652 35.803 23.8008L29.0146 31.486L29.056 31.4446C28.918 31.5826 28.7938 31.7344 28.6697 31.8861C28.1315 31.0169 27.2623 30.4098 26.2689 30.189C28.5041 27.8021 29.7597 25.2495 29.8976 22.7522V22.49C29.9114 21.7174 29.7183 20.9585 29.3457 20.2962L28.4075 18.8337V18.8613C28.2557 18.613 28.0902 18.3784 27.897 18.1714C27.1105 17.3298 26.0067 16.8607 24.8477 16.8745C24.4752 16.8745 24.1027 16.9021 23.7439 16.9573C22.9023 17.0952 22.102 17.3712 21.3432 17.7437C17.7282 19.6202 14.9963 22.8626 13.7546 26.7535C13.3544 26.1878 12.7059 25.8428 12.0161 25.829L11.2572 25.9394C9.29796 26.5051 6.92479 29.6923 6.92479 32.5622V32.783C6.93859 33.4453 7.11796 34.0937 7.4353 34.6732C7.68365 35.0872 8.48391 36.3703 8.77366 36.7429C9.24277 37.2672 9.86366 37.6259 10.5397 37.7915L8.41492 45.6284C7.79403 45.7526 7.17315 45.9182 6.57985 46.1114C2.99251 47.3393 0.8125 49.7677 0.8125 52.4996V52.7755C0.826297 53.2033 0.936678 53.631 1.12984 54.0173C1.54377 54.7624 1.99908 55.4661 2.50959 56.1421C3.19947 56.901 4.17909 57.3149 5.18631 57.3011C5.93137 57.3011 6.67644 57.1769 7.36631 56.9148C8.81505 56.3491 10.1396 55.4937 11.2572 54.4174L14.2651 58.0048L13.2027 61.2196L12.0851 64.6966L15.5758 63.6204C18.7079 62.6546 20.7085 62.1027 23.0127 61.5921L23.6474 67.3181L25.717 66.8766C29.0422 66.1453 32.4916 65.5658 35.9409 65.1519L46.7306 77.2937L48.1517 78.8942L49.5729 77.2937L60.3349 65.1381C63.7843 65.552 67.2337 66.1177 70.6003 66.8628L72.6699 67.3043L73.2908 61.7025C73.2908 61.7025 78.7408 63.0823 80.7966 63.6066C82.0936 63.9515 84.2874 64.6828 84.2874 64.6828L83.1698 61.2334L82.135 58.0186L85.8465 53.5206C85.9293 53.6586 86.0121 53.7966 86.1086 53.9207L86.0672 53.8517C86.7571 55.0521 87.5712 56.1835 88.4956 57.2045L88.537 57.2459C88.7991 57.5081 89.1165 57.715 89.4614 57.853C89.7374 57.9634 90.0409 58.0324 90.3307 58.0324C91.4897 58.0738 92.4831 57.2045 92.5935 56.0593V55.8248C92.5797 55.3833 92.4693 54.9556 92.2761 54.5692L92.2347 54.4864C91.7518 53.5068 90.3997 50.6921 90.2065 48.0154C91.8898 47.3807 94.6631 45.8768 94.9528 42.8689V42.593C94.939 42.0963 94.8287 41.6134 94.6217 41.1719C94.263 40.4544 93.8628 39.7645 93.4213 39.0884C93.1316 38.7021 92.7728 38.371 92.3727 38.1088C94.0974 35.7494 95.2012 33.0037 95.6013 30.1063C95.6289 29.8441 95.6427 29.582 95.6427 29.3198C95.6565 28.5747 95.4771 27.8297 95.1184 27.1674C94.7183 26.4499 94.2492 25.7463 93.7387 25.0978C93.4765 24.8494 93.173 24.6425 92.8418 24.5045C92.5245 24.3803 92.1795 24.2975 91.8346 24.2975C88.4404 24.2285 84.1356 29.8165 82.0936 35.0872V35.1699C81.3347 34.2041 80.2999 33.5142 79.1271 33.1693C78.451 32.9623 77.7611 32.852 77.0575 32.8382C76.0227 32.8244 74.9879 33.0313 74.0358 33.4315C73.8841 33.1969 73.6357 32.7416 73.5391 32.5898C73.1528 31.8861 72.4767 31.3756 71.704 31.2101L71.0142 31.1273C69.938 31.1411 68.9032 31.5274 68.1029 32.2311L67.827 31.9137C70.4485 30.7547 73.9944 28.4644 74.4773 24.3941C74.4911 24.2009 74.4911 24.0078 74.4773 23.8146C74.4773 23.0971 74.3118 22.3935 74.0082 21.745C73.5667 20.9585 73.0976 20.1997 72.5733 19.4684C71.7454 18.3922 70.5589 17.6609 69.2343 17.3988C68.7514 17.3022 68.2547 17.247 67.758 17.2332L66.737 17.2884C63.5635 17.6471 60.7074 19.4132 58.969 22.0899L48.1517 9.93433L46.7306 11.5348ZM75.0292 48.7329C75.1948 48.7881 75.3742 48.8709 75.5397 48.9123C76.271 49.1054 77.0161 49.2158 77.7611 49.2296C78.2579 49.2296 78.7546 49.202 79.2513 49.133C79.5824 49.7953 80.1757 50.292 80.8794 50.5128C81.1967 50.6093 81.5279 50.6783 81.859 50.6783C82.6455 50.6783 83.4181 50.43 84.0666 49.9885C84.4115 50.9543 84.8393 51.8787 85.3498 52.748L83.4871 52.2374C80.1205 51.2992 77.0023 50.499 74.0082 49.8229L75.0292 48.7329Z" fill="#DCDDDE"/>
<path d="M91.366 47.2977C91.0073 47.0631 90.552 47.0217 90.1656 47.1873L90.0553 47.2425L88.2754 47.0355L89.4482 47.9186L89.4068 48.1945C89.3378 48.8982 89.8483 49.5329 90.552 49.6157C91.0211 49.6708 91.4902 49.4501 91.7524 49.05C92.1249 48.4705 91.9731 47.6978 91.3936 47.3253C91.3798 47.3115 91.3798 47.2977 91.366 47.2977Z" fill="#261C02"/>
<path d="M90.6761 47.6704C91.0486 47.5601 91.4212 47.767 91.5316 48.1396C91.6419 48.5121 91.435 48.8846 91.0624 48.995C90.9383 49.0364 90.8003 49.0364 90.6761 48.995C90.3036 49.1054 89.931 48.8984 89.8207 48.5259C89.7103 48.1534 89.9172 47.7808 90.2898 47.6704C90.414 47.6291 90.5519 47.6291 90.6761 47.6704ZM91.2418 48.3603C91.2556 48.0568 91.021 47.8084 90.7313 47.7946C90.7175 47.7946 90.7037 47.7946 90.6761 47.7946C90.3726 47.7946 90.1242 48.043 90.1242 48.3603C90.1242 48.6639 90.3726 48.9122 90.6761 48.9122C90.9797 48.926 91.228 48.7053 91.2418 48.4017C91.2418 48.3741 91.2418 48.3603 91.2418 48.3603ZM90.8417 48.3603L90.9107 48.4707C90.9797 48.5811 91.0348 48.5949 91.0762 48.5949V48.6363H90.9935C90.8969 48.6363 90.8141 48.5949 90.7589 48.5121L90.6761 48.4017H90.6071V48.5811H90.6899V48.6225H90.3312V48.5811H90.414V48.112H90.3312V48.043H90.7313C90.9107 48.043 91.0072 48.112 91.0072 48.2223C91.0072 48.3327 90.9107 48.3189 90.8417 48.3603ZM90.6209 48.3189H90.6761C90.7313 48.3189 90.7865 48.2637 90.7865 48.2086C90.7865 48.1534 90.7313 48.0982 90.6761 48.0982H90.6209V48.3189Z" fill="white"/>
<path d="M12.61 52.182L13.5482 52.2648L13.9621 52.3062L12.8997 52.5959L12.1133 52.8167C12.2513 52.6097 12.4306 52.389 12.61 52.182Z" fill="#DCDDDE"/>
<path d="M94.5249 27.5398C94.1385 26.8775 93.7246 26.2291 93.2555 25.622C93.0761 25.4426 92.8554 25.3046 92.6346 25.208C92.4001 25.1115 92.1517 25.0701 91.9172 25.0701C89.2956 25.0149 85.1012 29.8164 82.9488 35.363L82.3279 36.9497L82.1623 36.7704C81.5828 35.3768 80.3962 34.3144 78.9475 33.9281C78.3404 33.7487 77.7057 33.6521 77.0711 33.6383C75.9259 33.6107 74.7807 33.9005 73.7872 34.4524C73.7183 34.3282 73.6355 34.2178 73.5389 34.1212C73.2905 33.7487 73.056 33.3624 72.849 32.9622C72.5731 32.4793 72.0902 32.1344 71.5521 32.024C71.3865 31.9826 71.2071 31.9688 71.0415 31.9688C69.8826 31.9964 68.8064 32.5345 68.0889 33.4314L66.7919 31.9826C66.7367 31.8308 66.6677 31.6929 66.5712 31.5687C70.0205 30.2717 73.2629 27.9124 73.6907 24.2974C73.7873 23.5386 73.6631 22.7797 73.3319 22.0898C72.9042 21.3447 72.4489 20.6273 71.9522 19.9374C71.2485 19.0268 70.2275 18.4197 69.1099 18.2127C68.6684 18.1161 68.2269 18.0747 67.7715 18.0609C67.468 18.0471 67.1783 18.0747 66.8885 18.1023C63.6047 18.5025 60.721 20.4893 59.1895 23.4282L49.0207 11.9762L48.2205 11.0656L47.4064 11.9762L44.0674 15.7292C43.8053 15.605 43.5155 15.5774 43.2396 15.6464C40.1628 16.3363 38.0931 20.1582 36.5478 24.1732L29.6491 31.9274C29.2489 32.3138 28.8764 32.7415 28.5315 33.183C28.4487 33.1002 28.1313 32.4517 28.0072 32.2448C27.3587 31.2514 26.2273 30.6857 25.0407 30.7546C24.8337 30.7408 24.613 30.7408 24.406 30.7546C26.9861 28.4367 28.9178 25.622 29.0834 22.5727C29.1248 21.8829 28.973 21.2068 28.628 20.6135C28.5177 20.4203 27.7036 19.1785 27.7036 19.1785C27.5932 18.9854 27.4553 18.7922 27.3035 18.6266C26.655 17.9506 25.772 17.578 24.8337 17.5918C24.5164 17.5918 24.199 17.6056 23.8817 17.6608C23.1228 17.785 22.3916 18.0196 21.7155 18.3507C16.4587 21.0688 14.8168 25.6634 13.9613 28.5332C13.9061 28.4643 13.8371 28.3815 13.7681 28.3263C13.5474 27.9813 13.3404 27.6364 13.1749 27.2639C12.9265 26.8362 12.4712 26.574 11.9745 26.574C11.8089 26.574 11.6295 26.6016 11.4778 26.643C9.96003 27.0845 7.62826 30.0234 7.73864 32.6725C7.75243 33.2106 7.89041 33.7349 8.13876 34.204C8.13876 34.204 9.13218 35.8321 9.40813 36.1495C9.96003 36.7428 10.7465 37.0601 11.5467 37.0325C10.6913 40.1369 9.84965 43.2414 9.0494 46.2906C8.27674 46.4286 7.53167 46.6218 6.78661 46.8563C3.43382 48.0015 1.43318 50.2505 1.57116 52.7203C1.58495 53.0376 1.66774 53.3549 1.80571 53.6447C2.19204 54.3346 2.63356 55.0106 3.11648 55.6453C3.65458 56.211 4.39964 56.5422 5.1861 56.5146C5.83458 56.5146 6.48306 56.4042 7.07636 56.1696C9.29775 55.259 11.2156 53.7275 12.5954 51.7682L13.7543 51.8786C14.596 51.9614 15.5204 52.058 16.4587 52.127C15.3825 52.4029 14.3062 52.7065 13.1749 53.01L11.5467 53.4377L12.623 54.7209L15.2169 57.8115L14.0165 61.4679L13.2438 63.4685L15.2307 62.8614C18.6801 61.799 20.7911 61.2195 23.6471 60.6124L24.2956 66.3384L25.4408 66.09C28.9868 65.3036 32.5741 64.7103 36.1891 64.2964L47.2961 76.7969L48.1101 77.7213L48.9242 76.8107L60.0312 64.2964C63.6599 64.7103 67.261 65.3174 70.8208 66.1038L71.966 66.3522L72.6559 60.6538C72.6559 60.6538 74.0356 60.9574 74.4357 61.0126C76.5054 61.4955 78.3818 62.0336 81.0723 62.8614L83.0592 63.4685L82.4107 61.4817L81.2241 57.8253L83.818 54.7347L84.8942 53.4515L83.3351 52.9824C79.458 51.9062 75.8845 50.9956 72.5179 50.2229L74.7945 47.6566C75.1118 47.7946 75.4429 47.9187 75.7741 48.0015C76.4364 48.1809 77.1124 48.2775 77.8023 48.2913C78.4922 48.3051 79.1683 48.2361 79.8306 48.0981C79.9409 48.8156 80.4514 49.4089 81.1551 49.602C81.4035 49.6848 81.6518 49.7262 81.9002 49.7262C82.9212 49.74 83.887 49.2709 84.5079 48.4568C84.977 50.2505 85.7773 51.9476 86.8535 53.4515C87.5158 54.6105 88.2884 55.6867 89.1853 56.6663C89.3784 56.8595 89.613 57.0113 89.8751 57.1079C90.0545 57.1907 90.2477 57.232 90.4408 57.232C91.1721 57.2596 91.793 56.7215 91.862 56.0041C91.8758 55.6177 91.793 55.2452 91.6274 54.9003C91.0755 53.7827 89.4888 50.5265 89.475 47.491C90.9651 47.0081 94.0006 45.6973 94.3041 42.8275C94.3317 42.3859 94.2489 41.9444 94.0696 41.5581C93.904 41.1856 93.0486 39.861 92.8278 39.5574C92.4415 39.0331 91.931 38.6192 91.3239 38.3709H91.2687C93.2003 35.9425 94.4283 33.0312 94.856 29.9682C95.0216 29.1541 94.8974 28.2987 94.5249 27.5398Z" fill="#261C02"/>
<path d="M27.4139 54.4171L26.2963 53.0374L24.751 54.969C25.634 54.7758 26.5171 54.5827 27.4139 54.4171Z" fill="#002B5C"/>
<path d="M93.1183 28.3952C93.1459 28.2021 93.1597 27.9951 93.1597 27.8019C93.1597 26.8775 92.8562 26.2152 92.3043 25.9945C91.8627 25.8565 91.3798 25.8979 90.9797 26.1187C88.9101 27.0155 85.5987 30.8236 83.7084 35.6665L80.8799 43.0206C79.583 43.8622 78.0101 44.1244 76.5061 43.7657C75.0436 43.4483 74.0502 42.0824 74.1882 40.5922C74.2847 39.0607 75.0022 37.6534 76.175 36.6737C76.6303 36.315 77.2236 36.1908 77.7755 36.3426C78.2584 36.5082 78.5482 37.0049 78.4654 37.5016C78.493 37.7637 78.3964 38.0121 78.217 38.1915C78.1067 38.2605 77.9687 38.2742 77.8445 38.2191L77.6651 38.1639C77.4582 38.0949 77.2236 38.1225 77.0442 38.2467C76.8649 38.3708 76.7545 38.5778 76.7407 38.7986C76.8097 39.6402 77.4168 40.3439 78.2446 40.5094C78.9759 40.7302 79.7761 40.606 80.4108 40.1783C81.0731 39.723 81.487 38.9917 81.5284 38.1915C81.6388 36.7289 80.4246 35.2388 78.6861 34.7421C76.9891 34.204 75.1264 34.4799 73.6638 35.5009C72.0633 36.6461 71.0699 38.4536 70.9595 40.4129V40.8958C69.8143 41.6822 68.9865 41.9858 68.683 41.9168C68.545 41.9168 68.5312 41.7098 68.5312 41.5581C68.5864 40.5508 71.0423 36.1356 71.8426 34.6593L71.9116 34.5351C72.0495 34.3144 72.1323 34.0522 72.1737 33.8039C72.1875 33.2934 71.815 32.8518 71.3045 32.7828C70.0765 32.6587 68.8899 33.2796 68.3242 34.3696C66.1166 38.1501 63.5641 40.8268 62.7638 40.7026C62.5983 40.7026 62.5017 40.3715 62.5293 39.8886C62.5983 38.3294 63.7021 36.5634 64.7783 34.8663L65.7855 33.2106C65.9235 33.0174 65.9924 32.7966 65.9924 32.5621C65.9924 32.024 65.5923 31.5825 64.9162 31.4721C63.6469 31.2927 62.3637 31.6101 61.3427 32.3827C61.0529 32.5759 60.846 32.8932 60.777 33.2382C60.777 33.5969 61.0529 33.8728 61.4669 33.928H61.7842L61.6462 34.204C60.2113 36.6185 59.4938 38.4812 59.4248 39.8886V40.0955C59.4248 41.627 60.1147 42.6343 61.3703 42.8136C62.6259 42.993 64.1298 42.2617 65.5647 40.8544C65.5233 41.0475 65.4957 41.2545 65.4819 41.4477V41.627C65.4129 42.7584 66.2408 43.7381 67.3722 43.8484C68.4208 44.0554 69.8833 43.6139 71.4149 42.6619C72.1323 44.152 73.4845 45.2558 75.085 45.6697C76.6993 46.0698 78.4102 45.9733 79.9555 45.38L79.8727 45.6145L79.7486 46.1388C79.6796 46.6631 80.0107 47.1598 80.5212 47.2702C81.5974 47.56 82.7288 47.0081 83.1703 45.9733L83.6394 44.7177C84.0948 43.5173 86.4955 41.2683 88.372 41.0613C88.4686 41.0337 88.5651 41.0337 88.6617 41.0613C88.7031 41.0613 88.8549 41.1303 88.8273 41.4063C88.7721 42.0962 87.4475 43.062 85.9022 43.6001C85.2951 43.7794 84.895 44.3451 84.895 44.9798V45.7663C85.171 49.0639 86.5783 52.1821 88.8687 54.5691L89.3516 54.8588C89.531 54.9416 89.7517 54.9416 89.9311 54.8588C90.0691 54.7761 90.1657 54.6243 90.1657 54.4725V54.4035C90.1381 54.1828 90.0829 53.9758 89.9863 53.7826C89.4068 52.596 87.7511 49.2019 87.7511 45.9595V45.3524C88.5514 45.1592 92.2491 44.1106 92.525 41.2545C92.525 41.2131 92.525 41.1717 92.525 41.1441C92.4422 40.2335 91.8352 39.447 90.9797 39.1297C90.1381 38.771 88.3996 38.5502 85.6401 40.4129C88.4824 38.1777 92.4146 34.066 93.1183 28.3952ZM86.33 36.5634C87.8615 31.886 89.2274 29.7198 89.6276 29.568C89.6689 29.706 89.6827 29.844 89.669 29.982V30.3683C89.4896 32.4379 88.2064 34.8663 86.1092 37.267L86.33 36.5634ZM27.5664 43.4069C27.2905 43.4897 27.0283 43.6553 26.8352 43.8622C25.8831 44.8281 24.0757 45.6145 21.6887 46.0974C18.6808 46.6079 15.6316 46.8425 12.5823 46.7873C13.0653 45.7801 13.4654 44.7177 13.7551 43.6415L16.8734 32.6035C21.7025 30.1889 26.9593 25.8979 27.2215 21.0274V20.8618C27.2215 20.1719 26.9455 19.5234 26.4488 19.0681C25.7452 18.5024 24.8207 18.3093 23.9515 18.5162C23.2754 18.6266 22.6269 18.8474 22.0198 19.1509C16.6388 21.9104 15.2453 26.8637 14.4864 29.499L14.0173 31.1685C13.493 31.4031 12.8859 31.4031 12.3616 31.1685C12.1132 30.9478 11.989 30.6166 12.0166 30.2855C12.0304 29.8854 12.1132 29.4852 12.2374 29.1127C12.3616 28.7678 12.4306 28.409 12.4306 28.0365C12.4306 27.8295 12.3478 27.6226 12.1822 27.4984C12.0166 27.388 11.7959 27.3604 11.6165 27.4294C10.4989 27.7744 8.3879 30.3269 8.48449 32.6311C8.45689 33.2934 8.74664 33.928 9.27094 34.342C9.89183 34.7973 10.8577 34.8387 12.1132 34.4799H12.2236L13.148 34.1902C11.9477 38.4812 10.7473 42.7998 9.67107 47.0219C8.77423 47.1598 7.8774 47.3668 7.00815 47.6427C4.73157 48.4154 2.3584 50.0849 2.3584 52.4719V52.665C2.3722 53.1342 2.60675 53.5757 3.00688 53.8378C3.87612 54.2655 4.89714 54.2655 5.76638 53.8378C7.93259 52.8996 9.79525 51.3681 11.1198 49.4088L12.7755 49.5606C15.4522 49.8366 18.4877 50.1401 21.123 49.5882C24.8483 48.8155 27.1939 47.0908 28.1045 44.4693L28.1873 44.0416C28.1873 43.8622 28.1183 43.6829 27.9941 43.5587L27.5664 43.4069ZM18.1565 28.3676C19.3569 24.4354 20.4607 21.3861 22.6269 20.9722C22.9581 20.8756 23.3168 20.9308 23.5927 21.124C23.8963 21.4413 24.0343 21.8552 23.9929 22.2829V22.3381C23.9929 23.235 23.6203 27.0845 17.715 29.8026L18.1565 28.3676ZM6.42866 51.2715C6.02853 51.4095 5.87676 51.3543 5.82157 51.3267C5.73878 51.2439 5.69739 51.1335 5.71119 51.0231V50.9817C5.71119 50.5402 6.04233 49.9745 7.00815 49.6434C7.54626 49.4778 8.09816 49.395 8.65006 49.3674C8.12575 50.2091 7.35309 50.8852 6.45625 51.2853H6.42866V51.2715ZM70.6146 45.1178C70.3387 45.0902 70.0627 45.1592 69.8281 45.311C68.8347 45.9043 66.9997 46.0008 64.6541 45.5869C61.5772 44.9246 58.5694 44.014 55.6443 42.8688C55.9755 42.2893 56.2376 41.6684 56.4446 41.0337L56.8585 40.0679L60.7494 30.3683C64.9438 29.913 71.2355 27.526 71.7874 22.7107C71.8012 22.5865 71.8012 22.4623 71.7874 22.3381C71.7322 20.6548 70.4766 19.2613 68.8071 19.0267C68.1724 18.8888 67.5102 18.8612 66.8617 18.9302C61.3013 19.6752 59.5352 24.0628 58.5832 26.4084L58.0175 27.8295C56.6377 27.6364 56.0445 27.1397 56.0445 26.1738V26.0773C56.0858 25.7047 56.1824 25.346 56.348 25.0149C56.486 24.7251 56.5826 24.4078 56.6101 24.0904V24.049C56.6377 23.6489 56.3204 23.2902 55.9203 23.2626C55.1338 23.2902 54.4025 23.6213 53.8506 24.187C52.9262 24.9597 52.3743 26.0773 52.2915 27.2638V27.3742C52.2915 29.1127 53.5057 30.1751 55.7409 30.3959H55.8789L56.9137 30.4649C55.1338 34.9628 54.2094 37.3636 52.4709 41.9168C51.5879 41.7098 50.6772 41.5718 49.7804 41.5167H48.9111L49.3113 40.4543C50.2495 37.405 51.4775 34.4523 52.9676 31.6239C53.0918 31.4307 53.1608 31.2237 53.1608 31.003C53.147 30.4787 52.7055 30.0509 52.1812 30.0647C52.1536 30.0647 52.1398 30.0647 52.1122 30.0647C51.1877 30.0095 50.3323 30.5063 49.5596 31.5549C49.2975 31.9136 49.0629 32.2999 48.8698 32.7001L48.649 33.1416C46.676 36.8531 44.5511 39.3505 43.8199 39.3505C43.7647 39.3505 43.7233 39.3367 43.6957 39.3091C43.6405 39.2539 43.5439 39.0883 43.5577 38.5778C43.5577 36.9497 44.6891 34.9491 45.7515 33.0174L46.6759 31.4169C46.7725 31.2099 46.8139 31.003 46.8277 30.7822C46.8553 30.5339 46.7725 30.2855 46.607 30.1061C46.3586 29.8854 46.0413 29.7612 45.7101 29.7888C44.5511 29.8164 43.4473 30.2303 42.5505 30.9478C42.0814 31.1961 41.7502 31.6514 41.6399 32.1758C41.6399 32.3413 41.7089 32.4931 41.8192 32.6035C41.971 32.7415 42.1642 32.8242 42.3711 32.8104L42.6057 32.769L42.5229 32.9622L42.2332 33.5969C41.5709 34.9215 41.0328 36.315 40.6464 37.7361C39.6116 38.7848 38.8804 39.3091 38.3837 39.3367C38.2871 39.3367 38.2043 39.3091 38.1353 39.2401C37.9007 39.0331 37.611 38.3984 37.5282 36.6737C41.7226 30.4649 44.2614 23.8421 44.5097 18.4748V18.2817C44.5649 17.6608 44.358 17.0537 43.944 16.6122C43.7923 16.4742 43.5853 16.419 43.3783 16.4604C39.5013 17.3572 37.1695 24.5043 35.638 29.2231L35.293 30.2717H34.4514C30.9054 30.5752 27.1939 34.9491 27.1939 38.7986V39.2953C25.9935 40.606 25.276 41.0475 25.0553 41.0751V41.0199C25.0553 40.7716 25.5934 38.9503 25.8003 38.2605L25.9245 37.8327L26.0349 37.1429C26.0487 36.9221 25.9521 36.7013 25.7865 36.5634C25.6348 36.4392 25.4416 36.384 25.2484 36.4116C26.5454 36.1218 27.456 34.9766 27.4698 33.6521V33.6107C27.4698 33.045 27.2215 32.4931 26.78 32.1344C25.8831 31.5549 24.7793 31.3755 23.7445 31.6652C19.0396 32.5207 15.7144 38.1639 15.8248 41.5443C15.8248 42.4825 16.2387 43.3793 16.9699 43.9726C17.6598 44.4969 18.5429 44.6763 19.3845 44.4555C20.4883 44.152 21.4541 43.4897 22.144 42.5791C22.2406 42.855 22.4062 43.0896 22.6269 43.2689C23.0684 43.5449 23.6065 43.6277 24.1032 43.4897C25.0967 43.3103 26.4074 42.4273 27.7872 41.0062C28.4219 42.0824 29.636 42.6619 30.864 42.4825C32.4369 42.1789 33.8581 41.3511 34.8929 40.1369C35.3896 41.3097 36.2174 41.9582 37.2799 41.8892C38.2181 41.834 39.3495 41.1993 40.6189 40.0679C40.7706 41.0062 41.5985 41.696 42.5505 41.6684C43.7647 41.6684 45.1996 40.7026 46.5794 39.1159L45.7101 42.2065L44.6339 42.9792C40.4947 45.987 39.7358 48.4568 39.584 49.3674C39.5426 49.6434 39.515 49.9193 39.515 50.1815C39.4875 50.899 39.7082 51.6026 40.1635 52.1683C40.8672 52.8858 41.8606 53.2445 42.854 53.1342C45.0616 53.1342 46.7311 50.9403 47.5452 47.0357L48.1937 44.2762C48.3316 43.8484 48.5938 43.3655 49.6286 43.4069C50.2081 43.4621 50.7876 43.5725 51.3395 43.7519C50.76 44.4141 49.9322 44.8143 49.0491 44.8281H48.8698C48.4696 44.7453 48.0833 45.0074 48.0005 45.4076C47.9453 45.6697 48.0143 45.9319 48.1799 46.1388C48.5386 46.5665 49.0629 46.8149 49.6286 46.8287C51.3257 46.8425 52.9538 46.125 54.099 44.8832L55.4788 45.5731C58.1141 46.8425 61.1081 48.3326 63.7573 48.7465C67.5102 49.3812 69.9661 48.5396 71.0561 46.2354L71.1665 45.8215C71.1665 45.8077 71.1665 45.7801 71.1665 45.7663C71.1941 45.4214 70.9733 45.104 70.6284 45.035H70.6146V45.1178ZM62.3361 26.5602C63.8538 23.028 65.0956 20.5445 67.2204 20.9446C68.0621 21.0688 68.6554 21.8414 68.545 22.6831V22.8624C68.5036 23.6351 67.9517 27.4846 61.7704 27.9123L62.3499 26.5326L62.3361 26.5602ZM37.7766 31.6652C38.5492 26.7809 40.4257 21.731 41.0742 21.1378C41.1018 21.2481 41.1156 21.3585 41.1018 21.4689V21.6897C40.6326 25.7461 39.4461 29.6922 37.5834 33.3209C37.6248 32.7828 37.6938 32.1758 37.7766 31.6652ZM22.5027 38.9641C21.9232 40.7302 20.6815 42.0134 20.0468 42.1513C19.826 42.2203 19.5915 42.1651 19.4259 42.0272C19.0672 41.627 18.874 41.1027 18.9154 40.5646C18.8602 38.1915 20.7643 34.1626 23.2478 33.7073C23.6065 33.5969 23.9929 33.6383 24.324 33.8177C24.4482 33.9142 24.531 34.0798 24.5172 34.2316C24.5172 34.6731 24.2412 35.0594 23.8273 35.1974C23.5789 35.3492 23.303 35.5147 23.3168 35.8873C23.3168 36.0667 23.3996 36.2322 23.5376 36.3426C23.9515 36.5634 24.4206 36.6323 24.8759 36.5358C23.7445 36.9497 22.8753 37.8465 22.5027 38.9641ZM33.9547 33.928C33.7063 34.0384 33.4304 34.1764 33.4304 34.5075C33.4304 34.7421 33.5821 35.1284 34.3686 35.2526C34.3686 35.5837 34.2996 37.0739 34.2996 37.0739L34.3686 38.3846C33.4304 39.4884 32.4783 40.1783 31.7609 40.2611C31.4711 40.3025 31.1814 40.2059 30.9744 40.0265C30.5053 39.4746 30.2845 38.7572 30.3535 38.0397C30.3535 35.5699 31.816 32.6725 33.9547 32.4655C34.1478 32.4379 34.3548 32.4931 34.5066 32.6173C34.6031 32.7139 34.6583 32.8518 34.6445 32.976C34.6583 33.4313 34.3686 33.8315 33.9547 33.928ZM44.3028 48.1257L44.22 48.5396C43.9027 50.0435 43.4197 50.9541 42.9368 50.9679C42.7437 50.9955 42.5505 50.9266 42.3987 50.8024C42.2056 50.5402 42.109 50.2229 42.1504 49.8917V49.8503C42.1504 49.2433 42.4125 47.9463 44.082 46.2768C44.3304 46.0146 44.6201 45.7663 44.9099 45.5179C44.8823 45.5455 44.3028 48.1257 44.3028 48.1257Z" fill="white"/>
<path d="M27.5933 43.6555C27.3587 43.7245 27.1518 43.8624 27 44.0418C26.0756 44.98 24.2957 45.8217 21.7294 46.346C18.5835 46.8565 15.3825 47.091 12.1953 47.0359C12.7472 45.9321 13.1887 44.7731 13.5198 43.5865C14.7478 39.1299 15.3687 36.9085 16.6657 32.4795C21.0671 30.3133 26.7102 26.0085 27.0138 21.0552C27.0552 19.5374 25.8962 18.3923 23.9783 18.7372C23.3299 18.8476 22.709 19.0545 22.1157 19.3443C17.052 21.9658 15.5895 26.4224 14.7064 29.5544L14.1821 31.3757C12.8024 31.7344 11.7952 31.6516 11.7538 30.2581C11.7538 29.5682 12.1815 28.6162 12.1677 28.0781C12.1677 27.7745 12.0021 27.5952 11.6572 27.6918C10.6362 27.9815 8.60793 30.4513 8.70452 32.6313C8.7873 34.5077 10.2636 34.7561 12.0159 34.2594C12.4988 34.1214 12.9817 33.9834 13.4784 33.8179C12.2367 38.2882 11.0363 42.7586 9.84971 47.2428C8.91148 47.3808 7.98705 47.5878 7.09021 47.8775C4.53767 48.7329 2.46805 50.4852 2.59223 52.6514C2.66121 53.8518 3.97197 54.2381 5.66907 53.6449C7.84907 52.6928 9.71173 51.1199 11.0087 49.1331C13.9614 49.3814 17.8661 50.0161 21.0809 49.34C24.9166 48.5398 27.0552 46.7737 27.883 44.3729C27.9244 44.2626 27.952 44.1384 27.952 44.028C27.9658 43.7521 27.7727 43.6279 27.5933 43.6555ZM17.935 28.2851C19.2044 24.1458 20.2944 21.1518 22.5848 20.6964C23.4678 20.5309 24.2129 20.8896 24.2405 22.2556C24.2405 24.1458 22.9987 27.8159 17.3417 30.2167L17.935 28.2851ZM6.52451 51.4925C5.91742 51.6994 5.51729 51.6166 5.4759 51.0233C5.44831 50.43 5.80704 49.7816 6.93844 49.409C7.65591 49.1883 8.38717 49.0779 9.13224 49.0641C8.55274 50.1265 7.64211 50.9819 6.52451 51.4925ZM87.5572 45.187C87.5572 45.187 92.0276 44.2488 92.3173 41.2547C92.2897 40.3993 91.7378 39.6542 90.9376 39.3782C89.682 38.8539 87.5296 39.0885 84.4252 41.6824L84.6735 40.9236C88.8128 37.8467 92.2622 33.4453 92.883 28.3678C93.021 27.1675 92.7175 26.4224 92.1932 26.2154C90.634 25.5807 86.274 29.72 83.9147 35.7495C82.7695 38.7022 82.19 40.1923 81.0586 43.1864C79.6926 44.097 78.0231 44.3867 76.4364 44.0004C74.8635 43.6555 73.7873 42.1929 73.9253 40.5924C74.077 38.2193 75.9259 35.5701 77.83 36.122C78.4371 36.3014 78.8096 36.9085 78.713 37.5294C78.6302 38.6194 77.9679 38.4952 77.7748 38.44L77.5954 38.3848C77.3471 38.302 77.0711 38.44 76.9883 38.6884C76.9745 38.7298 76.9607 38.7712 76.9607 38.8125C77.0435 39.5438 77.5816 40.1371 78.2853 40.2751C79.5133 40.6476 80.824 39.9439 81.1828 38.7022C81.238 38.5228 81.2655 38.3434 81.2793 38.1503C81.3759 36.7705 80.2445 35.3908 78.6026 34.9217C74.6565 33.7489 71.4003 36.7843 71.1796 40.4407C71.1658 40.6476 71.1658 40.8408 71.1796 41.0477C69.9516 41.917 69.0272 42.2619 68.6132 42.1791C68.3511 42.1239 68.2545 41.8756 68.2821 41.572C68.3373 40.482 70.8346 36.0117 71.7315 34.4663C71.8419 34.2732 71.9246 34.0524 71.9522 33.8316C71.966 33.4315 71.6625 33.0866 71.2624 33.059C70.1448 32.9624 69.0686 33.5419 68.5443 34.5353C66.4746 38.1089 63.7979 41.1443 62.7355 40.9788C62.4458 40.9374 62.2664 40.6062 62.294 39.9163C62.3906 37.7501 64.3636 35.2804 65.5916 33.128C65.702 32.9624 65.771 32.783 65.771 32.5899C65.771 32.1346 65.3984 31.831 64.9017 31.7482C63.0391 31.4309 61.066 32.6037 61.0384 33.2798C61.0384 33.5419 61.2868 33.6937 61.5489 33.7351H61.8939C61.9904 33.7351 62.0732 33.8179 62.0732 33.9144C62.0318 34.08 61.9629 34.2456 61.8663 34.3836C60.9142 35.9979 59.7553 38.2193 59.6863 39.9577C59.6173 41.5445 60.3347 42.4827 61.4248 42.6345C62.6527 42.8138 64.3498 42.0274 66.0469 40.1095C65.8813 40.551 65.771 41.0201 65.7434 41.4893C65.5916 42.5241 66.3091 43.4899 67.3439 43.6417C67.3715 43.6417 67.3991 43.6555 67.4405 43.6555C68.4201 43.8486 69.9102 43.4347 71.5245 42.3723C72.1868 43.9314 73.5389 45.0766 75.1671 45.4767C76.9055 45.9183 78.7406 45.7665 80.3825 45.049L80.1204 45.7389C80.0514 45.8907 80.01 46.0424 80.01 46.208C79.941 46.6219 80.2031 47.0083 80.6033 47.091C81.5553 47.3256 82.5487 46.8427 82.935 45.9459L83.4042 44.6903C83.8733 43.4347 86.343 41.1305 88.3299 40.8822C88.4678 40.8684 88.6058 40.8822 88.73 40.9236C88.9645 41.0201 89.1025 41.2685 89.0473 41.5169C88.9783 42.3723 87.5296 43.3795 85.9567 43.9176C85.4462 44.0694 85.1012 44.5523 85.1151 45.0766C85.1151 45.325 85.1288 45.5733 85.1564 45.8217C85.4324 49.0641 86.8121 52.1271 89.0749 54.4727C89.1715 54.5693 89.2957 54.6383 89.4199 54.6935C89.5854 54.7625 89.889 54.7349 89.9166 54.4727C89.9028 54.2657 89.8476 54.0726 89.751 53.907C89.0749 52.5273 87.2123 48.7054 87.5296 45.187H87.5572ZM86.0947 36.4808C87.5158 32.1346 89.1439 29.0715 89.7234 29.3061C89.8614 29.3613 89.9442 29.7062 89.889 30.3823C89.6682 32.8934 87.8883 35.7771 85.529 38.2055L86.0947 36.4808ZM70.5863 45.3526C70.3655 45.3388 70.1586 45.394 69.9792 45.5181C69.0134 46.0976 67.2197 46.277 64.6396 45.8217C61.4661 45.1318 58.3479 44.1798 55.3263 42.9932C55.7126 42.3447 56.0161 41.641 56.2369 40.9236C56.3887 40.62 56.5266 40.2889 56.6646 39.9439C58.2237 35.9841 59.0102 34.0248 60.6107 30.1063C64.9017 29.6786 71.0554 27.2502 71.6073 22.6419C71.7729 20.931 70.5449 19.4133 68.8478 19.1925C68.2269 19.0683 67.5922 19.0269 66.9713 19.1097C61.7835 19.7996 60.0036 23.6767 58.886 26.45L58.2513 28.0505C56.8716 27.8987 55.8368 27.4296 55.892 26.0223C55.892 25.3324 56.4439 24.5459 56.4577 24.0216C56.499 23.7457 56.3059 23.4835 56.0299 23.4421C56.0161 23.4421 55.9885 23.4421 55.9747 23.4421C54.9261 23.3456 52.6909 25.015 52.6357 27.2089C52.5806 29.1129 54.0569 29.927 55.8644 30.0925C56.3611 30.1339 56.8578 30.1891 57.3545 30.2029C55.4642 34.9492 54.5398 37.3362 52.7185 42.1377C51.7803 41.917 50.8145 41.7652 49.8624 41.71C49.4623 41.6824 49.0622 41.6824 48.6759 41.71L49.0898 40.3303C50.0418 37.2672 51.2698 34.3008 52.7599 31.4585C52.8703 31.3067 52.9255 31.1273 52.9255 30.9342C52.9255 30.5203 52.6081 30.2443 52.139 30.2443C51.3388 30.2029 50.5523 30.603 49.7935 31.6241C49.4623 32.1208 49.1588 32.6451 48.9104 33.1832C47.1029 36.6325 44.854 39.53 43.8743 39.5438C43.5432 39.5438 43.35 39.2541 43.3638 38.5228C43.3638 36.3566 45.2679 33.5695 46.4683 31.2239C46.5373 31.0859 46.5924 30.948 46.6062 30.7962C46.6062 30.2995 46.2337 30.0649 45.6956 30.0649C44.5918 30.0925 43.5294 30.4927 42.6877 31.1825C42.1496 31.5689 41.9151 31.9552 41.9151 32.2173C41.9427 32.4657 42.1496 32.6451 42.398 32.6313C42.5222 32.6175 42.6602 32.5899 42.7843 32.5485C42.8533 32.5347 42.9223 32.5899 42.9361 32.6727C42.9361 32.6865 42.9361 32.6865 42.9361 32.7003C42.8947 32.8796 42.8257 33.0452 42.7429 33.197C41.9703 34.7009 41.3494 36.2738 40.8941 37.9019C39.9145 38.9091 39.059 39.5852 38.4243 39.6266C37.7896 39.668 37.4033 38.8953 37.3067 36.6601C40.8527 31.4447 44.0123 24.6977 44.2883 18.5164C44.3434 17.3022 43.8467 16.6538 43.4604 16.7366C39.3764 17.6886 37.0032 26.0499 35.4993 30.534C35.1681 30.5065 34.837 30.5065 34.5058 30.534C31.1254 30.8238 27.4277 35.1286 27.4691 38.8953C27.4691 39.0747 27.4829 39.2403 27.4967 39.4196C26.3929 40.6338 25.5513 41.2823 25.1511 41.3513C24.9304 41.3789 24.8476 41.2547 24.8476 41.0615C24.8476 40.7166 25.5927 38.302 25.7306 37.7915C25.7858 37.5984 25.8272 37.4052 25.8272 37.212C25.8272 36.7981 25.5651 36.6463 25.1373 36.7153C24.0197 37.0741 23.1367 37.9571 22.778 39.0885C22.1985 40.8684 20.9291 42.2619 20.1426 42.4413C19.1768 42.6483 18.7629 41.6962 18.7077 40.6338C18.6525 38.2882 20.5014 34.0386 23.2333 33.5281C23.9921 33.3901 24.751 33.5281 24.7648 34.2732C24.7648 35.4874 23.6058 35.3908 23.6196 35.9151C23.6334 36.4394 24.4613 36.398 24.9994 36.3152C26.2963 36.1082 27.2484 34.9906 27.2484 33.6799C27.2484 32.1622 25.7306 31.6103 23.799 31.969C19.301 32.783 15.9482 38.1779 16.0448 41.6272C16.1 43.5865 17.5901 44.6903 19.301 44.3178C20.5014 43.9866 21.5362 43.2277 22.2123 42.1929C22.3364 43.076 22.9021 43.5727 24.0335 43.3657C24.9856 43.2001 26.3377 42.2895 27.8003 40.7442C28.3384 41.8894 29.5801 42.5517 30.8357 42.3447C32.4638 42.0274 33.9401 41.1305 34.9749 39.8336C35.3889 41.0477 36.1339 41.8204 37.2791 41.7514C38.176 41.6962 39.3488 41.0615 40.7699 39.737C40.9217 40.9374 41.6115 41.5445 42.5636 41.5307C43.8053 41.5307 45.4886 40.4407 47.1305 38.2331C46.7304 39.6128 46.3165 41.0615 45.944 42.4689L44.785 43.2277C41.1562 45.8769 40.0386 48.1948 39.8317 49.4366C39.5005 51.5062 40.3836 52.9688 42.8671 52.9274C44.9367 52.9274 46.5373 50.8026 47.3237 47.0221C47.6411 45.4767 47.7514 45.049 47.9722 44.2626C48.1102 43.7383 48.4551 43.1726 49.6279 43.2277C50.3592 43.2829 51.0904 43.4485 51.7803 43.6969C51.1456 44.5799 50.1384 45.118 49.0622 45.1456H48.869C48.4965 45.1456 48.3309 45.256 48.2619 45.5457C48.1516 46.0148 48.7586 46.6081 49.6417 46.6495C51.3388 46.6495 52.9531 45.9321 54.0707 44.6627C56.982 46.0424 60.6659 48.0017 63.7703 48.526C67.6198 49.1745 69.8274 48.2224 70.8208 46.1528C70.876 46.0562 70.9036 45.9459 70.9174 45.8355C70.8898 45.6147 70.7657 45.4216 70.5863 45.3526ZM62.1698 26.4638C63.7289 22.835 65.0259 20.2549 67.3163 20.7102C68.1993 20.8758 68.903 21.5105 68.834 22.8764C68.7374 24.7667 67.2473 27.9263 61.4385 28.1885L62.1698 26.4638ZM37.5275 31.6241C38.3001 26.8225 40.3698 20.8758 41.0596 20.862C41.2114 20.862 41.3218 21.1655 41.2804 21.7312C40.9355 25.8705 39.2798 30.5478 37.2101 34.5353C37.2653 33.5695 37.3757 32.5899 37.5275 31.6241ZM34.6162 35.0734C34.5886 35.7219 34.5472 36.4532 34.5472 37.0879C34.5472 37.5708 34.5748 38.0261 34.6162 38.4676C33.5952 39.6956 32.5466 40.3993 31.7877 40.4958C30.7667 40.6062 30.1182 39.668 30.1044 38.0399C30.1044 35.3908 31.6635 32.4381 33.9263 32.2311C34.3541 32.1484 34.768 32.4243 34.8508 32.852C34.8646 32.9072 34.8646 32.9486 34.8646 33.0038C34.8646 34.218 33.6366 34.0662 33.6504 34.5215C33.6504 34.9768 34.1747 35.0458 34.6162 35.0734ZM44.44 48.595C44.0813 50.2921 43.5294 51.2027 42.9223 51.2165C42.4808 51.2165 41.8737 51.0647 41.8875 49.8368C41.8875 48.9537 42.3704 47.6291 43.9019 46.0976C44.3297 45.6285 44.785 45.187 45.2817 44.8007C44.7022 47.3532 44.7988 46.9255 44.44 48.595Z" fill="#FDB913"/>
<path d="M60.6111 30.1475C64.9021 29.7198 71.0558 27.2915 71.6077 22.6831C71.7595 21.2206 70.8626 19.8684 69.4691 19.4269C70.6281 19.9788 71.318 21.2068 71.18 22.4899C70.6419 27.0983 64.4744 29.5267 60.1834 29.9544C58.5829 33.8591 57.7964 35.8321 56.2511 39.7644C56.1131 40.1093 55.9751 40.4543 55.8234 40.744C55.5888 41.4615 55.2853 42.1652 54.9127 42.8136L55.3681 42.9792C55.7406 42.3307 56.0303 41.6546 56.2511 40.951C56.4029 40.6474 56.5408 40.3163 56.6788 39.9714C58.2241 36.0253 58.9968 34.0522 60.6111 30.1475ZM75.678 43.6967C74.5052 43.131 73.8015 41.8892 73.9257 40.5922C74.0775 38.2467 75.8849 35.6389 77.7614 36.1081C77.651 36.0253 77.5268 35.9701 77.3889 35.9287C75.4986 35.3768 73.6497 37.9983 73.4842 40.3991C73.3462 41.8754 74.2568 43.2414 75.678 43.6967ZM81.266 38.1777C81.3625 36.8945 80.3553 35.5975 78.8652 35.0457C80.0518 35.5562 80.8244 36.7013 80.8244 37.9845C80.7554 39.2677 79.6654 40.2611 78.3823 40.1921C78.2029 40.1783 78.0097 40.1507 77.8304 40.0955C77.9684 40.1783 78.1201 40.2473 78.2857 40.2887C79.5275 40.6474 80.8106 39.9438 81.1694 38.702C81.2246 38.5364 81.266 38.357 81.266 38.1777ZM56.734 27.6778C56.1407 27.3742 55.782 26.7258 55.8648 26.0635C55.8648 25.3736 56.4167 24.5871 56.4305 24.0628C56.4719 23.7869 56.2787 23.5247 56.0027 23.4833C55.9889 23.4833 55.9613 23.4833 55.9476 23.4833H55.8924C55.9751 23.5937 56.0027 23.7317 55.9889 23.8697C55.9889 24.394 55.437 25.1528 55.4232 25.8703C55.3543 26.712 55.9062 27.4846 56.734 27.6778ZM86.0951 36.4944C87.3369 32.7139 88.7166 29.913 89.4479 29.4025C89.4479 29.2507 89.3651 29.1679 89.2961 29.1403C88.7166 28.9058 87.0885 31.955 85.6674 36.315L84.7705 39.0745C85.0327 38.7986 85.2948 38.5226 85.5432 38.2329L86.0951 36.4944ZM71.2352 33.045C71.4145 33.183 71.5111 33.4037 71.4973 33.6245C71.4559 33.8453 71.3732 34.066 71.2628 34.2592C70.4073 35.8045 67.91 40.2749 67.8134 41.3649C67.8134 41.6684 67.8962 41.9168 68.1445 41.972C68.1997 41.9858 68.2687 41.9858 68.3239 41.972C68.2549 41.8478 68.2135 41.696 68.2411 41.5443C68.2963 40.4543 70.7937 35.9839 71.6905 34.4386C71.8009 34.2454 71.8837 34.0246 71.9113 33.8039C71.9113 33.4175 71.6077 33.1002 71.2214 33.0726V33.045H71.2352ZM24.0339 33.4313C23.6476 33.1968 23.1923 33.1416 22.7646 33.2658C20.0051 33.7763 18.17 38.0259 18.239 40.3715C18.239 41.2683 18.5839 42.0962 19.2738 42.1928C18.8599 41.7512 18.6391 41.1579 18.6805 40.5646C18.6253 38.2191 20.4742 33.9694 23.2061 33.4589C23.482 33.4037 23.758 33.4037 24.0339 33.4589V33.4313ZM45.9996 31.0996C44.7992 33.4451 42.9227 36.2322 42.8951 38.3984C42.8951 39.0883 43.0745 39.4195 43.4056 39.4195H43.4746C43.3504 39.1711 43.2952 38.8814 43.3228 38.6054C43.3228 36.4392 45.2269 33.6521 46.4273 31.3065C46.5101 31.141 46.5515 30.9754 46.5653 30.796C46.5653 30.4235 46.2755 30.1199 45.9168 30.1061C46.0685 30.2303 46.1375 30.4235 46.1237 30.6167C46.1237 30.796 46.0823 30.9616 45.9996 31.0996ZM24.3237 40.8682C24.3237 41.0476 24.4065 41.1993 24.6272 41.1579L24.7652 41.1165C24.7652 41.1028 24.7652 41.0752 24.7652 41.0614C24.7652 40.7164 25.5103 38.3019 25.6482 37.7914C25.7034 37.5982 25.7448 37.405 25.7448 37.2119C25.7724 36.9635 25.5931 36.7289 25.3447 36.7013C25.3033 36.7013 25.2619 36.7013 25.2205 36.7013C25.2757 36.7979 25.3171 36.9083 25.3033 37.0049C25.2895 37.1981 25.2619 37.405 25.2067 37.5844C25.0688 38.1087 24.3099 40.5371 24.3237 40.8682ZM37.9004 39.4057C37.5555 39.0607 37.3071 38.2191 37.2105 36.6462C40.7565 31.4307 43.9161 24.6837 44.1921 18.5025C44.2473 17.2883 43.7506 16.6398 43.3642 16.7226C43.6816 17.1779 43.8334 17.7436 43.7506 18.3093C43.4746 24.5182 40.3012 31.2375 36.769 36.453C36.9346 38.6468 37.3485 39.4195 37.9004 39.4057ZM49.0626 40.3991C50.0146 37.336 51.2426 34.3696 52.7327 31.5273C52.8431 31.3755 52.8983 31.1961 52.8983 31.003C52.8983 30.6442 52.6086 30.3407 52.2498 30.3131C52.3878 30.4373 52.4706 30.6167 52.4568 30.796C52.443 30.9892 52.3878 31.1686 52.2912 31.3203C50.8011 34.1626 49.5869 37.1291 48.6487 40.1921L48.2348 41.5719H48.7315L49.0626 40.3991ZM44.7026 45.2834L44.8682 44.5935C44.3715 44.9798 43.9161 45.4214 43.4884 45.8767C41.9707 47.4082 41.4878 48.7328 41.474 49.6158C41.474 50.6368 41.8741 50.9128 42.2742 50.9956C41.9845 50.6782 41.8465 50.2505 41.9155 49.8366C41.9155 48.9535 42.3984 47.629 43.9299 46.0974C44.1783 45.8077 44.4404 45.5317 44.7026 45.2834ZM42.4536 32.6035C42.4536 32.5621 42.4536 32.5207 42.4536 32.4931C42.4674 32.4241 42.4122 32.3551 42.3294 32.3413C42.3156 32.3413 42.3156 32.3413 42.3018 32.3413C42.1777 32.3827 42.0535 32.4103 41.9431 32.4241C42.0397 32.5483 42.1914 32.6173 42.357 32.6173L42.4536 32.6035ZM57.3411 30.2441L57.3963 30.0786C56.8996 30.0786 55.8924 29.982 55.3957 29.9406C54.9265 29.8992 54.4574 29.8026 54.0159 29.637C54.5954 29.9268 55.2301 30.0923 55.8648 30.1337L57.3411 30.2441ZM47.062 38.1639C47.1723 37.7776 47.2827 37.405 47.3931 37.0187C46.9102 37.7086 44.5784 41.2269 42.0535 41.2683C41.8741 41.2683 41.6947 41.2407 41.5292 41.1993C41.8189 41.3787 42.1639 41.4753 42.495 41.4615C44.7302 41.4339 46.9516 38.2881 47.062 38.1639ZM60.6387 42.3997C60.8595 42.5377 61.1216 42.6343 61.3838 42.6619C63.4534 42.9654 65.5644 40.6474 66.0059 40.1369C66.0611 39.8334 66.1439 39.5298 66.2405 39.2401C65.2471 40.3577 63.0671 42.7722 60.9422 42.4687C60.8457 42.4549 60.7353 42.4273 60.6387 42.3997ZM18.8323 44.0554C18.3494 44.1658 17.8389 44.152 17.3698 44.014C17.9492 44.3314 18.6253 44.4142 19.2738 44.2486C20.4604 43.8898 21.4814 43.131 22.1851 42.1238C22.1023 41.9582 22.0471 41.765 22.0195 41.5857C21.5366 42.2203 20.3776 43.7105 18.8323 44.0554ZM65.73 32.5897C65.73 32.1758 65.4126 31.8998 64.9573 31.7756C65.1781 31.9136 65.3023 32.1482 65.2885 32.3965C65.2885 32.5897 65.2195 32.7829 65.1091 32.9346C63.8949 35.087 61.9081 37.5706 61.8115 39.723C61.8115 40.4129 61.9495 40.7302 62.253 40.7854C62.3082 40.7854 62.3496 40.7854 62.4048 40.7854C62.2668 40.5233 62.2116 40.2197 62.253 39.93C62.3496 37.7638 64.3226 35.294 65.5506 33.1416C65.6748 32.976 65.7438 32.7967 65.73 32.5897ZM66.9442 43.5173C66.82 43.4897 66.6958 43.4621 66.5716 43.4207C66.82 43.5587 67.0959 43.6691 67.3857 43.7105C68.4895 43.9312 69.9382 43.3793 71.4697 42.4273C71.4145 42.3169 71.3456 42.1928 71.3042 42.0686C69.6899 43.1172 67.9652 43.7105 66.9442 43.5173ZM61.6045 33.7487C61.6045 33.6383 61.5217 33.5555 61.4252 33.5555H61.1216C61.232 33.6659 61.37 33.7349 61.5217 33.7487H61.6045ZM62.1702 26.4636C63.7293 22.8349 65.0263 20.2547 67.3167 20.7101L67.5512 20.7652C67.3443 20.6411 67.1097 20.5583 66.8614 20.5169C64.5848 20.0892 63.274 22.6417 61.7149 26.2704L60.8871 28.2297L61.4252 28.1883L62.1702 26.4636ZM49.1868 46.47C49.0212 46.4562 48.8694 46.4286 48.7177 46.3872C48.9936 46.5528 49.311 46.6493 49.6283 46.6631C51.3116 46.6631 52.9259 45.9457 54.0435 44.6901L53.6158 44.4831C52.4982 45.7525 50.8839 46.47 49.1868 46.47ZM51.2564 43.5587L51.2978 43.5173C50.6079 43.269 49.8767 43.1034 49.1454 43.0482C47.9864 43.0068 47.6277 43.5587 47.4897 44.083C47.2689 44.8833 47.1723 45.311 46.8412 46.8425C46.0547 50.623 44.468 52.7202 42.3846 52.7478C41.8879 52.7616 41.3912 52.6926 40.9221 52.5409C41.5154 52.8444 42.1638 52.9824 42.8123 52.941C44.882 52.941 46.4825 50.8162 47.2689 47.0357C47.5863 45.4904 47.6966 45.0626 47.9174 44.2762C48.0554 43.7519 48.4003 43.1862 49.5731 43.2414C50.1526 43.2828 50.7321 43.3793 51.284 43.5587H51.2564ZM23.5372 43.1034C23.2475 43.1586 22.9577 43.1586 22.6818 43.1034C23.0681 43.3517 23.5372 43.4207 23.9788 43.2966C25.0412 43.1034 26.3933 42.0686 27.7455 40.675C27.6627 40.5508 27.5799 40.4129 27.5109 40.2749C26.1036 41.765 24.6686 42.8826 23.5648 43.0896L23.5372 43.1034ZM70.5867 45.3524C70.5177 45.3386 70.4625 45.3386 70.3935 45.3524C70.4487 45.449 70.4625 45.5455 70.4487 45.6421C70.4349 45.7525 70.4073 45.8629 70.3521 45.9595C69.3725 48.0291 67.1649 48.9949 63.3016 48.3326C61.6735 48.0015 60.0868 47.491 58.5691 46.8011C60.211 47.5876 61.9495 48.1671 63.7431 48.5258C67.5926 49.1743 69.8002 48.2223 70.7937 46.1526C70.8488 46.0561 70.8764 45.9457 70.8902 45.8353C70.9316 45.6283 70.7937 45.4076 70.5867 45.3524ZM36.7828 41.4891C36.5483 41.5029 36.3137 41.4753 36.093 41.4063C36.4379 41.6133 36.838 41.7098 37.2381 41.6822C38.3005 41.6133 39.363 40.882 40.7289 39.6678C40.6875 39.5022 40.6461 39.3367 40.6323 39.1711C39.0732 40.6198 37.8728 41.4201 36.7828 41.4891ZM27.5937 43.6553L27.4695 43.6967C27.4695 43.7381 27.4695 43.7933 27.4695 43.8347C27.4695 43.9588 27.4419 44.0692 27.4005 44.1796C26.5727 46.5804 24.4341 48.3188 20.5984 49.1467C17.3973 49.8366 13.4927 49.1467 10.5262 48.9397C9.22923 50.9404 7.38036 52.4995 5.21416 53.4515C4.56567 53.7275 3.83441 53.7826 3.14453 53.6447C3.94479 54.0172 4.86922 54.0172 5.66947 53.6447C7.84948 52.6926 9.71214 51.1197 11.0091 49.1329C13.9618 49.3812 17.8665 50.0159 21.0813 49.3399C24.917 48.5396 27.0556 46.7735 27.8834 44.3728C27.9248 44.2624 27.9524 44.1382 27.9524 44.0278C27.9662 43.7519 27.7731 43.6277 27.5937 43.6553ZM74.6845 45.3248C74.4914 45.2696 74.312 45.2144 74.1189 45.1454C74.4362 45.2972 74.7811 45.4352 75.1261 45.5179C76.8646 45.9457 78.6996 45.7939 80.3415 45.0902L80.4933 44.6763C78.7134 45.5731 76.6438 45.8077 74.6845 45.3248ZM92.2074 26.2153C92.1384 26.1877 92.0556 26.1739 91.9866 26.1601C92.3591 26.4774 92.5661 27.1673 92.4419 28.1745C91.821 33.252 88.3717 37.6534 84.2324 40.7302C84.1772 41.02 83.8323 41.9858 83.7357 42.2203C83.9703 42.0272 84.191 41.8478 84.4256 41.6822L84.6739 40.9234C88.8132 37.8465 92.2626 33.4451 92.8835 28.3677C93.0214 27.1811 92.7179 26.4222 92.2074 26.2153ZM90.9242 39.3781L90.7034 39.2953C91.3933 39.6264 91.8486 40.3025 91.8762 41.0752C91.5865 44.0692 87.1023 45.0074 87.1023 45.0074C86.7988 48.5258 88.6476 52.3615 89.3237 53.7275C89.4203 53.9068 89.4755 54.1 89.4893 54.2932C89.4617 54.4449 89.3237 54.5691 89.1581 54.5415C89.2409 54.6105 89.3375 54.6657 89.4341 54.6933C89.5996 54.7623 89.9032 54.7347 89.9308 54.4725C89.917 54.2656 89.8618 54.0724 89.7652 53.9068C89.0753 52.5271 87.2265 48.7052 87.5438 45.1868C87.5438 45.1868 92.0142 44.2486 92.304 41.2545C92.2902 40.4129 91.7383 39.6678 90.9242 39.3781ZM88.5096 40.8958C88.4545 40.8268 88.3855 40.7854 88.3165 40.7578C88.1923 40.7026 88.0405 40.6888 87.9164 40.7164C85.9295 40.9648 83.4598 43.269 82.9906 44.5245L82.5215 45.7801C82.1628 46.6631 81.2246 47.1736 80.2863 46.9805C80.3829 47.0495 80.4795 47.1047 80.5899 47.1461C81.5557 47.4082 82.5767 46.8977 82.9492 45.9733L83.4184 44.7177C83.8875 43.4621 86.3572 41.1579 88.3441 40.9096C88.3993 40.882 88.4545 40.882 88.5096 40.8958ZM30.367 42.0824C29.8979 42.1376 29.4288 42.0962 28.9872 41.9582C29.5529 42.2617 30.1876 42.3721 30.8223 42.2755C32.5332 42.0686 33.9543 40.7854 34.9616 39.7644C34.8926 39.6264 34.8374 39.4746 34.7822 39.3091C33.706 40.4543 32.1331 41.8616 30.367 42.0824ZM37.5279 31.6239C38.2178 27.2363 39.9976 21.9242 40.8669 20.9998C40.8393 20.779 40.7565 20.6687 40.6599 20.6687C39.9149 20.6687 37.859 26.6292 37.0864 31.4445C36.9346 32.3965 36.7276 35.1284 36.7276 35.5838C36.907 35.2388 37.0726 34.8939 37.2519 34.5351C37.3071 33.9832 37.4589 32.1206 37.5279 31.6239ZM12.1957 31.3065C11.8921 31.0444 11.7266 30.6442 11.7542 30.2441C11.7542 29.5542 12.1819 28.6022 12.1681 28.0641C12.1681 27.7744 12.0163 27.6088 11.699 27.6778C11.7266 27.7468 11.7266 27.8158 11.7266 27.871C11.7266 28.3953 11.2851 29.3335 11.3126 30.051C11.3402 30.7684 11.6714 31.1961 12.1957 31.3065ZM25.9104 31.9964C26.4485 32.2861 26.7658 32.8518 26.7383 33.4589C26.7383 34.7559 25.7862 35.8735 24.5031 36.0805C24.2271 36.1219 23.9512 36.1219 23.6752 36.0805C23.9098 36.3288 24.5169 36.315 24.9446 36.246C26.2415 36.0391 27.1936 34.9215 27.1936 33.6107C27.1936 32.8243 26.6417 32.1482 25.8828 31.9826L25.9104 31.9964ZM30.9327 40.3163C30.4222 39.9576 30.1186 39.1849 30.1048 38.0673C30.1048 35.4182 31.664 32.4655 33.9267 32.2586C34.0233 32.2448 34.1199 32.2448 34.2027 32.2586C34.0095 32.1068 33.7612 32.0378 33.5128 32.0654C31.25 32.2724 29.6771 35.2112 29.6909 37.8741C29.6633 39.2677 30.1462 40.1645 30.9327 40.3163ZM12.0163 34.2454C12.6096 34.0798 13.3409 33.8453 13.4789 33.8039L13.5754 33.4451C13.3271 33.5279 12.3475 33.8453 11.5748 34.066C10.8987 34.3006 10.1675 34.3558 9.46378 34.204C10.264 34.5627 11.1885 34.5765 12.0163 34.2454ZM12.1957 47.0495C12.7338 45.9457 13.1891 44.7867 13.5202 43.6001C14.7482 39.1435 15.3691 36.9221 16.6661 32.4931C21.0675 30.3269 26.7107 26.0221 27.0142 21.0688C27.1246 20.0616 26.5037 19.1233 25.5379 18.8198C26.2553 19.2475 26.6693 20.0616 26.5727 20.8894C26.3105 25.8565 20.6674 30.1475 16.2246 32.3137C14.9414 36.7289 14.3067 38.9503 13.0787 43.4069C12.72 44.6763 12.2509 45.8905 11.6714 47.0633L12.1957 47.0495ZM17.9216 28.2849C19.191 24.1456 20.281 21.1516 22.5714 20.6963C22.806 20.6549 23.0267 20.6549 23.2613 20.6963C22.9301 20.4755 22.5162 20.4065 22.1299 20.5169C19.8533 20.9446 18.7495 23.9663 17.4801 28.1055L16.7489 30.5339C16.942 30.4511 17.1352 30.3545 17.3284 30.2717L17.9216 28.2849ZM5.58669 51.4095C5.5177 51.2991 5.47631 51.1611 5.47631 51.0369C5.47631 50.5126 5.80745 49.7952 6.93884 49.4226C7.65631 49.2157 8.38758 49.1053 9.13264 49.0777C9.17404 49.0087 9.22923 48.9259 9.27062 48.8431C8.33239 48.8431 7.40796 48.9811 6.51112 49.2295C5.39352 49.6158 5.02099 50.3195 5.04859 50.8438C5.04859 51.2577 5.25555 51.4233 5.58669 51.4095Z" fill="#F58426"/>
<path d="M34.6445 29.4162L34.7963 28.9609C35.0171 28.271 35.2378 27.5812 35.4862 26.8913L32.9474 29.7612C33.389 29.6094 33.8581 29.499 34.3272 29.4576L34.6445 29.4162ZM45.6687 28.9333C46.3724 28.9057 47.0347 29.2507 47.4072 29.8302C47.5452 30.0647 48.0971 30.9616 48.2627 31.1685C48.3592 31.3203 48.442 31.4721 48.4972 31.6376C48.6214 31.4169 48.7594 31.1961 48.9249 30.9892C49.5872 29.9129 50.7324 29.2231 51.988 29.1679C51.6431 28.5608 51.4775 27.8709 51.5189 27.1672C51.6017 24.4491 54.2232 22.3105 55.9065 22.3381H56.0445C56.5274 22.3795 56.9551 22.6279 57.231 23.028C57.3966 23.2763 58.0727 24.4077 58.0727 24.4077C58.1969 24.5457 58.2797 24.7113 58.3348 24.8769L58.5418 24.4077L48.0833 12.6799L44.7719 16.3914C45.0754 16.8329 45.6687 17.7711 45.7239 17.8953C46.0827 18.5162 46.2482 19.2475 46.193 19.9649C45.9999 23.1108 45.31 26.2152 44.1234 29.1403C44.6063 28.9885 45.1168 28.9195 45.6135 28.9195L45.6687 28.9333ZM66.6547 51.2991C65.9373 51.2715 65.2336 51.2025 64.5299 51.0783C61.7704 50.623 58.7488 49.1467 56.0583 47.8359L55.2304 47.4358C53.9886 48.5672 52.3743 49.2019 50.691 49.2157H50.5531C50.1115 49.2019 49.6838 49.0915 49.2975 48.8845C49.0629 50.0987 48.6628 51.2715 48.1109 52.3753H48.2213C54.7337 52.3891 61.2323 52.9824 67.6344 54.169L71.6494 49.6572C70.6284 50.6092 69.0969 51.3543 66.6547 51.2991ZM72.7256 48.0429C72.5601 48.4154 72.3531 48.7603 72.1185 49.0777L73.8156 47.1598C73.0982 46.7045 72.4773 46.0974 71.9944 45.3937H71.9392C72.1461 45.7111 72.3807 46.0146 72.6291 46.3044C72.836 46.6079 72.9464 46.9667 72.9188 47.3392C72.905 47.5737 72.8498 47.8083 72.7532 48.0291L72.7256 48.0429ZM48.1247 63.5788C44.5925 63.5788 41.0604 63.772 37.542 64.1307L48.1247 76.0518L58.7212 64.1307C55.2166 63.772 51.6982 63.5926 48.1799 63.5926L48.1247 63.5788ZM39.1563 52.2787C38.6734 51.3681 38.5354 50.3056 38.7424 49.2984C38.8804 48.443 39.515 46.3596 42.3435 43.7794C41.8882 43.6001 41.5019 43.2965 41.2259 42.9102C40.3843 43.6139 39.3495 44.0692 38.2595 44.1934H37.9835C37.0315 44.2072 36.1485 43.7656 35.569 43.0206C34.5342 43.9726 33.251 44.5935 31.8712 44.8142C31.6505 44.828 31.4435 44.828 31.2228 44.8142C30.6571 44.8004 30.0914 44.6763 29.5671 44.4417C29.8154 44.7177 29.9534 45.0764 29.9534 45.4489C29.9534 45.6835 29.912 45.918 29.843 46.1388C29.1255 48.1808 27.594 49.8227 25.6348 50.7058L28.684 54.1552C32.2438 53.4929 35.8173 53.0238 39.4185 52.7202L39.1563 52.2787Z" fill="url(#paint0_linear)"/>
<path d="M48.1522 53.4513H47.3933C46.5931 54.6931 45.2409 55.4657 43.7646 55.5209H43.53C42.3434 55.5899 41.1844 55.1208 40.3842 54.2516C40.3152 54.1688 40.2048 54.0032 40.0668 53.81C34.6996 54.224 29.3738 55.038 24.1445 56.2522C24.1445 57.0111 25.2069 65.0274 25.2069 65.0274C32.7404 63.3579 40.4256 62.5301 48.1246 62.5301H48.166C55.865 62.5301 63.5502 63.3855 71.0698 65.055C71.0698 65.055 72.146 57.0111 72.146 56.2246C64.2815 54.3895 56.2375 53.4651 48.1522 53.4651V53.4513Z" fill="#005DAA"/>
<path d="M13.2998 54.0309L16.2801 57.5769L14.9003 61.8127C18.4049 60.7365 20.5849 60.1432 23.51 59.5223L23.0408 55.3831L25.4278 52.389L25.4968 52.3063L24.5586 51.2438C21.0678 51.9751 17.3011 52.9133 13.2998 54.0309ZM83.0462 54.0309C79.0173 52.9133 75.2644 51.9613 71.6908 51.1887L70.725 52.2649L70.794 52.3476L73.1809 55.3279H73.2361L72.767 59.4672C75.7059 60.088 77.8997 60.6813 81.418 61.7713L80.0383 57.5355L83.0462 54.0309Z" fill="url(#paint1_linear)"/>
<path d="M49.0762 57.4529L49.5867 56.5699L49.7661 56.2526L49.8075 55.7145L49.4763 55.5489L49.3384 55.4799C48.3587 54.997 47.2687 54.7762 46.1925 54.8314H46.0546C45.3785 55.3005 44.5782 55.5627 43.7504 55.5765H43.1709C42.688 55.9076 42.412 56.4457 42.412 57.0252C42.412 57.0528 42.412 57.0666 42.412 57.0942C42.412 57.2874 42.4534 57.4805 42.5224 57.6599C42.5638 58.1014 42.7846 58.5015 43.1433 58.7499L42.9639 59.0258L42.3706 59.9365L42.1637 60.2538L42.3154 60.654C40.6597 58.5291 39.7767 57.4529 37.9968 55.3695L37.8726 55.2315H37.2518L37.169 55.3833C35.7892 57.6737 35.0993 58.9017 33.899 61.1093L33.8438 60.8747L33.5816 60.6402L32.809 60.0193L32.533 59.7709L32.2985 60.0607L32.2019 60.1848C31.8983 60.5436 31.4292 60.9299 30.0771 61.1783C29.7735 61.2334 29.47 61.261 29.1802 61.261C28.8491 61.2748 28.5317 61.2059 28.242 61.0679C28.173 60.9161 28.1316 60.7505 28.104 60.5988C28.104 60.516 28.104 60.4332 28.104 60.3504C28.104 59.5502 28.6559 58.9707 30.1736 58.6809C30.5186 58.6119 30.8497 58.5705 31.1947 58.5705C31.5948 58.5567 31.9949 58.6533 32.3398 58.8603L32.464 58.9293L32.7538 59.0948L32.9331 58.8189L33.5402 57.9358L33.7472 57.6185L33.4574 57.108L33.1263 56.9148L33.0021 56.8458C32.3812 56.5009 31.6776 56.3491 30.9601 56.3905C30.4772 56.3905 29.9805 56.4457 29.5114 56.5285C27.4417 56.901 25.7033 58.1704 25.6895 60.0883C25.6895 60.24 25.7033 60.4056 25.717 60.5574C25.7998 61.2748 26.1724 61.9371 26.7519 62.3648C27.4141 63.0685 28.3524 63.4548 29.3044 63.3997H29.3872C29.8149 63.3997 30.2426 63.3445 30.6566 63.2755C31.6362 63.1513 32.5744 62.765 33.3609 62.1855L33.3195 62.2683L33.6092 62.6822L34.2991 62.5856L35.5409 62.42H35.7202L35.803 62.2683L36.2997 61.3576C37.7347 61.1783 38.5349 61.0955 39.9699 60.9851L40.5908 61.7716L40.7011 61.9095H40.8805L42.1637 61.8267L42.8535 61.7853L42.757 61.3576L42.3844 60.8885L42.5776 60.9989L42.7018 61.0679C43.7366 61.5922 44.8818 61.8267 46.027 61.7578H46.3029C47.1308 61.7578 47.9448 61.5784 48.6899 61.2472C49.3936 60.9575 49.8627 60.2952 49.8765 59.5364V59.5226V59.4398C49.9041 59.3156 49.9179 59.1914 49.9179 59.081V59.0396C49.9592 58.3222 49.6281 57.7427 49.0762 57.4529ZM37.6243 58.8879L37.914 58.405L38.2728 58.8189L37.6243 58.8879ZM46.2339 59.495H46.0684C45.1991 59.5364 44.3299 59.357 43.5572 58.9707C44.0953 59.1638 44.661 59.2604 45.2267 59.2466L46.8962 59.288C47.117 59.288 47.3239 59.3018 47.5447 59.3294C47.117 59.4398 46.6892 59.495 46.2339 59.495ZM59.9762 55.5351L59.6037 55.4937L59.3829 56.0318V56.3905C59.314 57.2874 59.2726 57.8945 59.2174 58.5843C57.6859 57.2598 56.6648 56.4457 54.8574 55.0384L54.7746 54.9694H54.0157L53.9053 55.5213V55.88C53.8226 58.0738 53.7812 59.1638 53.6846 61.3576V61.7026H54.0295L55.1885 61.7716H55.5472L55.699 61.3438V60.9713C55.7404 60.0331 55.768 59.3846 55.8094 58.6533C57.3823 59.9365 58.3343 60.7643 60.0038 62.2821L60.0866 62.351H60.4454L60.8041 62.3924L61.0662 61.9785V61.606L61.5354 56.0042V55.6593L61.1904 55.6179L59.9762 55.5351ZM51.2562 54.9004H50.8975L50.8423 55.4523V55.811C50.8009 57.9634 50.7733 59.0534 50.7319 61.2197V61.5646H51.0769L52.2358 61.606H52.5946L52.6774 61.1783V60.8195C52.7325 58.6119 52.7601 57.5219 52.8291 55.3005V54.9418H52.4704L51.2562 54.9004ZM66.668 56.4457C66.2817 56.3629 65.8816 56.3215 65.4814 56.3215C64.0465 56.3215 62.6805 56.8734 62.17 58.1014C61.8941 58.4877 61.7285 58.9431 61.6871 59.4122C61.6871 59.5088 61.6871 59.6191 61.6871 59.7157C61.6871 61.7164 63.5498 62.8202 65.5228 63.1651C65.9368 63.2479 66.3645 63.2755 66.7784 63.2755H66.8474C67.8546 63.3307 68.848 62.9305 69.5241 62.1855C70.0622 61.7578 70.4209 61.1369 70.5037 60.447C70.5175 60.2952 70.5175 60.1434 70.5037 60.0055C70.5313 58.06 68.7101 56.8045 66.668 56.4457ZM68.1581 60.585C68.1306 60.7367 68.0892 60.8747 68.034 60.9989C67.7166 61.1507 67.3579 61.2335 67.013 61.2197C66.7094 61.2197 66.3921 61.1921 66.1023 61.1369C64.5846 60.8471 63.9223 60.2676 63.9223 59.3984C63.9223 59.3432 63.9223 59.2742 63.9223 59.219C63.9361 59.1086 63.9637 58.9983 63.9913 58.8879C64.35 58.6257 64.7778 58.5015 65.2193 58.5153C65.4952 58.5153 65.785 58.5429 66.0471 58.5981C67.5235 58.8741 68.172 59.5226 68.172 60.3228C68.172 60.4056 68.1581 60.4746 68.1581 60.5436V60.585Z" fill="#002B5C"/>
<path d="M32.4095 60.3779C31.7886 61.0402 30.9332 61.4403 30.0363 61.4955C28.353 61.799 27.401 61.3989 27.2216 60.1158C27.0561 58.8464 27.8563 58.0461 29.581 57.7564C30.9056 57.508 31.5126 57.6736 32.0507 57.9771L32.1749 58.0461L32.7958 57.1355L32.6716 57.0665C31.6782 56.5836 30.5468 56.487 29.4982 56.7906C27.332 57.1907 25.7177 58.529 25.9936 60.4055C26.2696 62.282 28.0633 62.8201 30.1743 62.4337C31.3057 62.3233 32.3543 61.8404 33.1683 61.054L33.2649 60.9436L32.5061 60.2537L32.4095 60.3779ZM37.4456 55.6316C35.983 58.0599 35.2932 59.2879 33.9548 61.7714L35.2242 61.6059L35.8175 60.4745C37.4594 60.2675 38.301 60.1847 39.9567 60.0468L40.7156 60.9988L42.0401 60.916C40.3844 58.7636 39.4876 57.7288 37.6801 55.604L37.4456 55.6316ZM36.4246 59.4121C36.9075 58.5704 37.1558 58.1565 37.6525 57.3425C38.2734 58.0323 38.577 58.4325 39.1703 59.1637C38.0665 59.2051 37.5146 59.2603 36.4108 59.3845V59.4121H36.4246ZM47.0486 57.4252L45.3239 57.3839C44.9652 57.3976 44.6065 57.3563 44.2615 57.2597C44.0546 57.1769 43.9994 57.0941 43.9856 56.9009C43.9718 56.7078 44.0822 56.5422 44.3857 56.4042C44.8686 56.2249 45.3791 56.1283 45.8896 56.1283C46.8417 56.0455 47.7937 56.2387 48.6491 56.6664L48.7871 56.7354L49.339 55.8247L49.201 55.7558C48.18 55.2452 47.0348 55.0383 45.8896 55.1349H45.3515C44.8824 55.3418 44.3719 55.466 43.8476 55.4798C43.1853 55.6868 42.7576 56.3076 42.7714 56.9975C42.7714 58.0599 43.7786 58.3773 45.186 58.3773L46.8969 58.4187C47.297 58.4049 47.6833 58.4601 48.0558 58.5842C48.249 58.6394 48.3594 58.8188 48.3456 59.012C48.3456 59.2327 48.2352 59.4121 47.9041 59.5639C47.366 59.757 46.8141 59.8536 46.2484 59.826C45.255 59.895 44.2477 59.688 43.3647 59.2327L43.2405 59.1637L42.6472 60.0606L42.7852 60.1295C43.8614 60.6814 45.0756 60.916 46.276 60.8194C48.0145 60.8194 49.5598 60.3227 49.5874 58.9568C49.5874 57.7426 48.4836 57.4114 47.0486 57.3701V57.4252ZM66.5859 56.7906C64.4611 56.4042 62.4466 57.0803 62.2949 58.9844C62.1431 60.8884 63.854 62.0612 65.9098 62.4337C67.9656 62.8063 69.8559 62.3233 70.1456 60.3641C70.4354 58.4049 68.7107 57.1769 66.5859 56.7906ZM68.9039 60.1571C68.7383 61.3851 67.6759 61.7852 66.0064 61.4679C64.3369 61.1644 63.4263 60.3917 63.5504 59.1499C63.6746 57.9082 64.7508 57.439 66.4617 57.7702C68.1726 58.1013 69.0832 58.9568 68.9177 60.1433H68.9039V60.1571ZM59.6871 59.4949C57.7141 57.784 56.7069 56.9423 54.6235 55.3556H54.3337C54.2509 57.5908 54.1957 58.7084 54.113 60.9436L55.2995 61.0264L55.4651 57.3976C57.5347 59.0533 58.5144 59.9088 60.446 61.6611H60.7082C60.8875 59.4259 60.9841 58.2945 61.1773 56.0593L59.9493 55.9075C59.8251 57.3287 59.7699 58.0599 59.6871 59.4949ZM51.1327 60.778L52.3193 60.8194C52.3745 58.6118 52.4021 57.5218 52.471 55.3004L51.2431 55.259C51.2017 57.4666 51.1741 58.5704 51.1327 60.778Z" fill="white"/>
<path d="M68.9863 54.4171L70.1039 53.0374L71.6492 54.969C70.7662 54.7758 69.8832 54.5827 68.9863 54.4171Z" fill="#002B5C"/>
<defs>
<linearGradient id="paint0_linear" x1="49.7038" y1="12.7148" x2="49.7038" y2="76.0597" gradientUnits="userSpaceOnUse">
<stop offset="0.13" stop-color="#E31B23"/>
<stop offset="0.75" stop-color="#470000"/>
</linearGradient>
<linearGradient id="paint1_linear" x1="48.1759" y1="51.1852" x2="48.1759" y2="61.8151" gradientUnits="userSpaceOnUse">
<stop stop-color="#005DAA"/>
<stop offset="0.88" stop-color="#002B5C"/>
</linearGradient>
</defs>
</svg>
