<svg width="60" height="60" viewBox="0 0 60 60" fill="none" xmlns="http://www.w3.org/2000/svg">
<path d="M11.1094 6.16571C10.8811 8.87602 8.05664 9.30376 8.05664 9.30376C10.4817 9.4179 11.0859 12.5988 11.0859 12.5988C11.138 10.331 14.2083 9.27048 14.2083 9.27048C11.9081 9.1329 11.1094 6.16571 11.1094 6.16571Z" fill="#D6DF58"/>
<path d="M14.2289 8.91938C12.2121 8.79891 11.4558 6.10125 11.4485 6.07406C11.4038 5.9093 11.2474 5.80055 11.0775 5.81578C10.9076 5.83125 10.7733 5.96625 10.759 6.13617C10.5574 8.53031 8.10728 8.94 8.00392 8.95617C7.82509 8.98313 7.69618 9.14133 7.70556 9.32203C7.71493 9.5025 7.85954 9.64641 8.04001 9.65508C10.156 9.75469 10.7351 12.6361 10.7407 12.6652C10.7728 12.8318 10.9186 12.9504 11.0857 12.9504C11.0956 12.9504 11.1054 12.9502 11.1152 12.9492C11.2943 12.9342 11.4333 12.7868 11.4375 12.6073C11.4832 10.613 14.295 9.61266 14.3234 9.60281C14.4816 9.54774 14.5793 9.38836 14.5563 9.22242C14.5331 9.05625 14.3963 8.92945 14.2289 8.91938ZM11.0494 11.3442C10.7313 10.6106 10.1801 9.72539 9.27118 9.26391C9.95814 8.93461 10.7733 8.3468 11.1935 7.32492C11.557 8.04469 12.1777 8.93742 13.1468 9.36914C12.442 9.75352 11.5242 10.4018 11.0494 11.3442Z" fill="#3A312A"/>
<path d="M6.02332 10.1456C5.86184 12.0626 3.86426 12.3654 3.86426 12.3654C5.57941 12.446 6.00691 14.696 6.00691 14.696C6.04348 13.092 8.2152 12.3417 8.2152 12.3417C6.5884 12.2442 6.02332 10.1456 6.02332 10.1456Z" fill="#D6DF58"/>
<path d="M8.23583 11.9906C6.88443 11.9097 6.36739 10.0722 6.36247 10.0537C6.31794 9.8892 6.16161 9.78045 5.99169 9.79545C5.82153 9.81068 5.68724 9.94592 5.67294 10.1161C5.53724 11.7265 3.88091 12.0065 3.81154 12.0176C3.63271 12.0445 3.5038 12.2027 3.51318 12.3832C3.52255 12.5637 3.66716 12.7076 3.84763 12.7162C5.26208 12.7828 5.65794 14.7422 5.66146 14.7614C5.6931 14.9283 5.83935 15.0473 6.00669 15.0473C6.0163 15.0473 6.02591 15.0471 6.03599 15.0462C6.21528 15.0312 6.35427 14.8835 6.35849 14.7037C6.38896 13.3657 8.3113 12.6801 8.33005 12.6736C8.48872 12.6187 8.58646 12.4596 8.56349 12.2934C8.54052 12.1275 8.40341 12.0007 8.23583 11.9906ZM5.98958 13.5832C5.77302 13.1412 5.44114 12.6581 4.94732 12.3457C5.38232 12.1017 5.8138 11.7293 6.08896 11.1935C6.33669 11.6327 6.71099 12.1202 7.247 12.4176C6.81341 12.6757 6.31208 13.0601 5.98958 13.5832Z" fill="#3A312A"/>
<path d="M6.02332 3.89764C5.86184 5.8146 3.86426 6.11741 3.86426 6.11741C5.57941 6.19803 6.00691 8.44803 6.00691 8.44803C6.04348 6.84397 8.2152 6.09374 8.2152 6.09374C6.5884 5.99624 6.02332 3.89764 6.02332 3.89764Z" fill="#D6DF58"/>
<path d="M8.23607 5.74265C6.88466 5.66179 6.36763 3.82405 6.36247 3.80554C6.31794 3.641 6.16161 3.53202 5.99169 3.54725C5.82153 3.56249 5.68724 3.69772 5.67294 3.86788C5.53724 5.47827 3.88091 5.75858 3.81154 5.7696C3.63271 5.79655 3.5038 5.95475 3.51318 6.13546C3.52255 6.31593 3.66716 6.45983 3.84786 6.46851C5.26232 6.53507 5.65794 8.49444 5.66169 8.51366C5.69333 8.68077 5.83958 8.7996 6.00693 8.7996C6.01653 8.7996 6.02614 8.79937 6.03622 8.79843C6.21552 8.78366 6.3545 8.63577 6.35872 8.45601C6.38919 7.11796 8.3113 6.43241 8.33028 6.42585C8.48872 6.37101 8.58669 6.21186 8.56372 6.04569C8.54052 5.87976 8.40341 5.75272 8.23607 5.74265ZM5.98958 7.33522C5.77302 6.89343 5.44114 6.41015 4.94732 6.09772C5.38232 5.85374 5.8138 5.48132 6.08896 4.94554C6.33669 5.38476 6.71099 5.87226 7.247 6.16991C6.81341 6.42796 6.31208 6.8121 5.98958 7.33522Z" fill="#3A312A"/>
<path d="M42.5806 42.554C48.7865 36.3481 48.7865 26.2863 42.5806 20.0803C36.3747 13.8744 26.3129 13.8744 20.1069 20.0803C13.901 26.2863 13.901 36.3481 20.1069 42.554C26.3129 48.7599 36.3747 48.7599 42.5806 42.554Z" fill="#D6DF58"/>
<path d="M31.3505 15.072C22.3929 15.072 15.1055 22.3596 15.1055 31.3172C15.1055 40.2748 22.3929 47.5624 31.3505 47.5624C40.3081 47.5624 47.5957 40.2748 47.5957 31.3172C47.5957 22.3594 40.3081 15.072 31.3505 15.072ZM31.3505 46.8593C22.7805 46.8593 15.8086 39.8871 15.8086 31.3172C15.8086 22.7473 22.7805 15.7751 31.3505 15.7751C39.9204 15.7751 46.8926 22.7473 46.8926 31.3172C46.8926 39.8871 39.9204 46.8593 31.3505 46.8593Z" fill="#3A312A"/>
<path d="M13.4404 14.1851L15.5782 16.3228L17.9435 18.6881L19.7322 20.4769C22.6333 17.3691 26.7637 15.4235 31.3504 15.4235V6.53204C24.3084 6.53204 17.9526 9.46923 13.4404 14.1851Z" fill="#8AC5DC"/>
<path d="M31.3504 6.18048C24.4262 6.18048 17.9753 8.93696 13.1863 13.942C13.0543 14.0801 13.0567 14.2985 13.1917 14.4338L15.3294 16.5715C15.4668 16.7088 15.6892 16.7088 15.8265 16.5715C15.9639 16.4344 15.9639 16.2115 15.8265 16.0744L13.9337 14.1816C18.4813 9.55618 24.5165 6.97642 30.9988 6.88642V15.0762C26.7629 15.1692 22.6914 16.9385 19.7263 19.9744L18.1921 18.4402C18.0547 18.3028 17.8323 18.3028 17.695 18.4402C17.5576 18.5773 17.5576 18.8002 17.695 18.9373L19.4837 20.726C19.5496 20.7921 19.6391 20.8292 19.7324 20.8292H19.7385C19.8339 20.8275 19.9243 20.7872 19.9895 20.7174C22.9211 17.5767 27.062 15.7756 31.3506 15.7756C31.5449 15.7756 31.7022 15.6183 31.7022 15.424V6.53204C31.7019 6.33775 31.5447 6.18048 31.3504 6.18048Z" fill="#3A312A"/>
<path d="M19.7322 20.4769L17.9434 18.6881L15.5781 16.3226L13.4404 14.1848C9.18176 18.6356 6.56543 24.6705 6.56543 31.317C6.56543 31.5773 6.57082 31.8366 6.57879 32.0948H15.4766C15.4642 31.837 15.4569 31.5778 15.4569 31.317C15.4569 27.1261 17.0816 23.3166 19.7322 20.4769Z" fill="#87796F"/>
<path d="M19.9811 20.2284L18.1923 18.4397C18.055 18.3024 17.8325 18.3024 17.6952 18.4397C17.5579 18.5768 17.5579 18.7997 17.6952 18.9368L19.2463 20.4879C16.5735 23.4722 15.1056 27.3042 15.1056 31.3172C15.1056 31.4571 15.1075 31.5984 15.1114 31.7435H6.92145C6.91863 31.6017 6.91699 31.4597 6.91699 31.3172C6.91699 25.114 9.23356 19.2237 13.4479 14.6897L15.3294 16.5713C15.4668 16.7086 15.6892 16.7086 15.8265 16.5713C15.9639 16.4342 15.9639 16.2113 15.8265 16.0742L13.6888 13.9364C13.622 13.8694 13.5301 13.834 13.4364 13.8335C13.3419 13.8345 13.2517 13.8736 13.1863 13.942C8.69004 18.6415 6.21387 24.8119 6.21387 31.3172C6.21387 31.5813 6.21926 31.8441 6.22746 32.1061C6.23332 32.2959 6.38895 32.4469 6.57902 32.4469H15.4768C15.5732 32.4469 15.665 32.4075 15.7314 32.3379C15.7977 32.2683 15.8326 32.1745 15.8279 32.0784C15.815 31.8103 15.8087 31.5614 15.8087 31.3174C15.8087 27.3699 17.2935 23.6053 19.9895 20.7171C20.1186 20.5784 20.1151 20.3623 19.9811 20.2284Z" fill="#3A312A"/>
<path d="M31.3506 6.53204V15.4235C35.9373 15.4235 40.0677 17.3691 42.9688 20.4769L49.2606 14.1851C44.7486 9.46923 38.3929 6.53204 31.3506 6.53204Z" fill="#87796F"/>
<path d="M49.5147 13.9418C44.7257 8.93672 38.2747 6.18024 31.3506 6.18024C31.1563 6.18024 30.999 6.3375 30.999 6.5318V15.4233C30.999 15.6176 31.1563 15.7748 31.3506 15.7748C35.6394 15.7748 39.7803 17.576 42.7119 20.7166C42.7771 20.7863 42.8675 20.8266 42.9629 20.8284H42.969C43.0621 20.8284 43.1516 20.7914 43.2177 20.7253L49.5095 14.4333C49.6443 14.2983 49.6466 14.0801 49.5147 13.9418ZM42.9744 19.9739C40.0096 16.9381 35.9378 15.1688 31.7019 15.0757V6.88594C38.1845 6.97617 44.2196 9.55594 48.7672 14.1811L42.9744 19.9739Z" fill="#3A312A"/>
<path d="M49.2605 14.1851L42.9688 20.4769C45.6193 23.3166 47.2442 27.1261 47.2442 31.3172C47.2442 31.5781 47.237 31.8373 47.2245 32.0951H56.1223C56.1303 31.8366 56.1357 31.5776 56.1357 31.3172C56.1355 24.6708 53.5191 18.6359 49.2605 14.1851Z" fill="#8AC5DC"/>
<path d="M49.5154 13.9418C49.45 13.8734 49.3598 13.8345 49.2654 13.8333C49.1672 13.8335 49.0797 13.8694 49.0129 13.9362L42.7211 20.2282C42.5871 20.362 42.5836 20.5781 42.7127 20.7166C45.4087 23.6048 46.8935 27.3694 46.8935 31.317C46.8935 31.5609 46.8872 31.8098 46.8743 32.078C46.8696 32.1741 46.9045 32.2678 46.9708 32.3374C47.0372 32.407 47.1293 32.4464 47.2254 32.4464H56.1232C56.3132 32.4464 56.4689 32.2955 56.4747 32.1056C56.4827 31.8436 56.4881 31.5809 56.4881 31.317C56.4879 24.8119 54.0117 18.6413 49.5154 13.9418ZM55.7803 31.7435H47.5905C47.5945 31.5984 47.5964 31.4571 47.5964 31.3172C47.5964 27.3042 46.1285 23.4722 43.4557 20.4879L49.2539 14.6897C53.4682 19.2237 55.7847 25.114 55.7847 31.3172C55.7847 31.4597 55.7831 31.6017 55.7803 31.7435Z" fill="#3A312A"/>
<path d="M47.2241 32.0951C47.0181 36.3699 45.1215 40.1993 42.1904 42.9354L44.4458 45.1908L46.8123 47.5573L48.4822 49.2272C53.0237 44.8819 55.9143 38.8263 56.1219 32.0951H47.2241Z" fill="#87796F"/>
<path d="M56.3754 31.8504C56.3093 31.7819 56.2181 31.7435 56.1229 31.7435H47.2251C47.0376 31.7435 46.8829 31.8907 46.874 32.0782C46.6786 36.1333 44.9304 39.8979 41.9517 42.6783C41.8821 42.7434 41.8418 42.8339 41.8399 42.9293C41.8383 43.0247 41.8755 43.1166 41.943 43.1838L44.1984 45.4394C44.3358 45.5768 44.5582 45.5768 44.6955 45.4394C44.8329 45.3023 44.8329 45.0797 44.6955 44.9423L42.6947 42.9412C45.5676 40.1395 47.283 36.4376 47.557 32.4466H55.758C55.4772 38.6287 52.9064 44.3873 48.4872 48.7338L47.062 47.3088C46.9247 47.1715 46.7022 47.1715 46.5649 47.3088C46.4276 47.4459 46.4276 47.6688 46.5649 47.8059L48.2348 49.4758C48.3033 49.5443 48.3933 49.5787 48.4835 49.5787C48.5709 49.5787 48.6583 49.5464 48.7265 49.4812C53.5186 44.8959 56.2704 38.7251 56.4747 32.1058C56.4773 32.0109 56.4417 31.9186 56.3754 31.8504Z" fill="#3A312A"/>
<path d="M15.4771 32.0951H6.5791C6.78676 38.8263 9.6773 44.8819 14.2188 49.2272L20.5106 42.9354C17.5797 40.1993 15.6832 36.3701 15.4771 32.0951Z" fill="#8AC5DC"/>
<path d="M20.7507 42.6783C17.7721 39.8979 16.0239 36.1333 15.8282 32.0782C15.8193 31.8909 15.6646 31.7435 15.4771 31.7435H6.57926C6.4841 31.7435 6.39316 31.7819 6.32683 31.8504C6.26051 31.9186 6.22488 32.0109 6.22769 32.1058C6.43207 38.7253 9.18363 44.8959 13.9759 49.4812C14.0441 49.5464 14.1315 49.5787 14.2189 49.5787C14.3089 49.5787 14.3989 49.5443 14.4676 49.4758L20.7594 43.1838C20.8269 43.1163 20.8639 43.0244 20.8623 42.9293C20.8607 42.8339 20.8206 42.7434 20.7507 42.6783ZM14.2152 48.7338C9.79605 44.3876 7.22519 38.629 6.94441 32.4466H15.1457C15.4194 36.4376 17.1348 40.1395 20.008 42.9412L14.2152 48.7338Z" fill="#3A312A"/>
<path d="M46.8125 47.5573L44.4461 45.1908L42.1907 42.9354C39.351 45.5862 35.5414 47.2109 31.3506 47.2109V56.1024C37.997 56.1024 44.0319 53.4858 48.4827 49.2272L46.8125 47.5573Z" fill="#8AC5DC"/>
<path d="M48.7311 48.9788L47.0612 47.3088C46.9239 47.1715 46.7014 47.1715 46.5641 47.3088C46.4268 47.4459 46.4268 47.6688 46.5641 47.8059L47.9781 49.2199C43.5299 53.3545 37.7762 55.6624 31.7021 55.7482V47.5587C35.5867 47.4757 39.2828 46.0163 42.1801 43.4217L44.1978 45.4395C44.3352 45.5768 44.5576 45.5768 44.695 45.4395C44.8323 45.3023 44.8323 45.0797 44.695 44.9423L42.4396 42.687C42.3055 42.5529 42.0894 42.5496 41.9511 42.6785C39.0627 45.3745 35.2982 46.8595 31.3506 46.8595C31.1563 46.8595 30.999 47.0168 30.999 47.2111V56.1026C30.999 56.2969 31.1563 56.4541 31.3506 56.4541C37.8559 56.4541 44.0265 53.978 48.7257 49.4815C48.7942 49.4161 48.8331 49.3259 48.8343 49.2314C48.8352 49.1365 48.7979 49.0456 48.7311 48.9788Z" fill="#3A312A"/>
<path d="M20.5105 42.9354L14.2188 49.2272C18.6695 53.4858 24.7044 56.1024 31.3509 56.1024V47.2109C27.1598 47.2107 23.3502 45.586 20.5105 42.9354Z" fill="#87796F"/>
<path d="M31.3509 46.8593C27.4035 46.8593 23.639 45.3745 20.7506 42.6783C20.6123 42.5489 20.396 42.5526 20.2621 42.6867L13.9703 48.9787C13.9033 49.0455 13.8663 49.1365 13.8672 49.2312C13.8681 49.3256 13.9073 49.4159 13.9757 49.4812C18.6749 53.9775 24.8456 56.4539 31.3509 56.4539C31.5452 56.4539 31.7024 56.2966 31.7024 56.1023V47.2109C31.7024 47.0166 31.5452 46.8593 31.3509 46.8593ZM30.9993 55.7482C24.9255 55.6624 19.1716 53.3545 14.7234 49.2197L20.5216 43.4215C23.4189 46.0162 27.1148 47.4755 30.9993 47.5584V55.7482Z" fill="#3A312A"/>
<path d="M40.2044 31.1536C41.08 30.3 40.597 28.8129 39.3867 28.6369L35.5563 28.0802C35.0758 28.0104 34.6603 27.7085 34.4454 27.273L32.7323 23.8022C32.1911 22.7055 30.6274 22.7055 30.0862 23.8022L28.3732 27.273C28.1582 27.7085 27.7429 28.0104 27.2622 28.0802L23.4318 28.6369C22.2218 28.8127 21.7385 30.3 22.6141 31.1536L25.3858 33.8552C25.7336 34.1941 25.8923 34.6826 25.8103 35.1612L25.1559 38.9761C24.9492 40.1815 26.2143 41.1005 27.2967 40.5314L30.7225 38.7302C31.1524 38.5043 31.6659 38.5043 32.0957 38.7302L35.5216 40.5314C36.604 41.1005 37.8691 40.1813 37.6624 38.9761L37.008 35.1612C36.926 34.6826 37.0847 34.1941 37.4325 33.8552L40.2044 31.1536Z" fill="#F16C7A"/>
<path d="M40.4492 31.4055C40.951 30.9166 41.1279 30.199 40.9116 29.5326C40.6951 28.8663 40.13 28.3898 39.4367 28.289L35.6065 27.7326C35.2404 27.6794 34.924 27.4495 34.7604 27.1176L33.0474 23.6468C32.7373 23.0187 32.1097 22.6284 31.4091 22.6284C30.7088 22.6284 30.0809 23.0187 29.7708 23.6468L28.0578 27.1176C27.894 27.4495 27.5778 27.6792 27.2117 27.7326L23.3811 28.289C22.6878 28.3898 22.1227 28.8663 21.9062 29.5326C21.6898 30.1987 21.8668 30.9164 22.3686 31.4055L25.1403 34.1072C25.4051 34.3654 25.5261 34.7372 25.4635 35.1021L24.8091 38.9168C24.6908 39.6072 24.9692 40.2918 25.5359 40.7036C25.8561 40.9364 26.2308 41.0545 26.6079 41.0545C26.8983 41.0545 27.1901 40.9844 27.4599 40.8426L30.8858 39.0415C31.2129 38.8692 31.6044 38.8694 31.9315 39.0415L35.3574 40.8426C35.9776 41.1684 36.7147 41.1154 37.2814 40.7036C37.8481 40.2918 38.1265 39.6072 38.0082 38.9168L37.3538 35.1021C37.2912 34.7374 37.4119 34.3654 37.677 34.1072L40.4492 31.4055ZM36.6615 35.2207L37.3156 39.0354C37.3897 39.4666 37.2226 39.8775 36.8687 40.1346C36.5145 40.3917 36.0722 40.4236 35.6851 40.2201L32.2592 38.419C31.7267 38.1391 31.0911 38.1389 30.5588 38.419L27.1329 40.2201C26.7458 40.4238 26.3035 40.3917 25.9494 40.1346C25.5954 39.8775 25.4283 39.4664 25.5024 39.0354L26.1568 35.2207C26.2585 34.6279 26.0619 34.0233 25.6313 33.6035L22.8596 30.9019C22.5465 30.5965 22.4401 30.1659 22.5753 29.7497C22.7105 29.3336 23.0497 29.0477 23.4826 28.9847L27.3129 28.428C27.908 28.3415 28.4222 27.9679 28.6885 27.4286L30.4015 23.9578C30.5951 23.5654 30.972 23.3313 31.4094 23.3313C31.8467 23.3313 32.2236 23.5657 32.4169 23.9578L34.13 27.4286C34.3962 27.9679 34.9104 28.3418 35.5055 28.428L39.3357 28.9847C39.7688 29.0477 40.1077 29.3336 40.2432 29.7497C40.3784 30.1657 40.2718 30.5962 39.9587 30.9016L37.1872 33.6033C36.7564 34.0233 36.5597 34.6279 36.6615 35.2207Z" fill="#3A312A"/>
<path d="M46.8732 30.5484C46.8686 30.457 46.8592 30.368 46.8545 30.2766C46.8428 30.1125 46.8334 29.9508 46.817 29.7891C46.8053 29.6836 46.7912 29.5781 46.7795 29.4727C46.7631 29.3274 46.7443 29.1797 46.7232 29.0344C46.7068 28.9266 46.6881 28.8211 46.6693 28.7133C46.6459 28.5703 46.6225 28.4274 46.5943 28.2867C46.5732 28.1836 46.5498 28.0828 46.5287 27.9797C46.4959 27.8344 46.4631 27.6891 46.4279 27.5461C46.4045 27.45 46.3787 27.3563 46.3529 27.2625C46.3107 27.1102 46.2686 26.9578 46.224 26.8078C46.1982 26.7258 46.1725 26.6438 46.1467 26.5617C46.0928 26.4 46.0389 26.2383 45.9826 26.0789C45.9568 26.0109 45.9334 25.943 45.9076 25.875C45.842 25.7016 45.774 25.5281 45.7037 25.357C45.6803 25.3055 45.6592 25.2516 45.6357 25.2C45.5561 25.0149 45.474 24.832 45.3873 24.6492C45.3686 24.6117 45.3522 24.5742 45.3334 24.5367C45.2373 24.3422 45.1389 24.15 45.0357 23.9578C45.024 23.9344 45.0123 23.9109 44.9982 23.8875C44.8881 23.6859 44.7732 23.4844 44.6537 23.2875C44.6467 23.2758 44.6373 23.2641 44.6303 23.25C44.5061 23.0461 44.3748 22.8422 44.2412 22.643C44.2365 22.6383 44.2342 22.6336 44.2318 22.6289C44.0936 22.425 43.9506 22.2234 43.8029 22.0266C43.8006 22.0242 43.8006 22.0242 43.8006 22.0242C43.367 21.4453 42.8936 20.8992 42.3873 20.3859C42.3615 20.3602 42.3357 20.3344 42.31 20.3063C42.167 20.1656 42.0217 20.0297 41.874 19.8938C41.8295 19.8516 41.7826 19.807 41.7357 19.7672C41.6068 19.65 41.4732 19.5352 41.3396 19.4227C41.267 19.3617 41.192 19.2984 41.117 19.2398C41.0068 19.1508 40.8967 19.0641 40.7842 18.9774C40.674 18.893 40.5615 18.8086 40.4467 18.7266C40.367 18.668 40.285 18.6117 40.2029 18.5531C40.0459 18.443 39.8842 18.3375 39.7225 18.232C39.6803 18.2063 39.6404 18.1805 39.5982 18.1547C37.1443 16.6172 34.2826 15.7758 31.3506 15.7758C30.76 15.7758 30.174 15.8109 29.5928 15.8789C31.9014 16.1438 34.1232 16.9266 36.0826 18.1547C36.1248 18.1805 36.1646 18.2063 36.2068 18.232C36.3686 18.3375 36.5303 18.443 36.6873 18.5531C36.7693 18.6117 36.8514 18.668 36.9311 18.7266C37.0459 18.8086 37.1584 18.893 37.2686 18.9774C37.3811 19.0641 37.4912 19.1508 37.6014 19.2398C37.6764 19.2984 37.7514 19.3617 37.824 19.4227C37.9576 19.5352 38.0912 19.65 38.2201 19.7672C38.267 19.807 38.3139 19.8516 38.3584 19.8938C38.5061 20.0297 38.6514 20.1656 38.7943 20.3063C38.8201 20.3344 38.8459 20.3602 38.8717 20.3859C39.3779 20.8992 39.8514 21.4453 40.285 22.0242C40.285 22.0242 40.285 22.0242 40.2873 22.0266C40.435 22.2234 40.5779 22.425 40.7162 22.6289C40.7186 22.6336 40.7209 22.6383 40.7256 22.643C40.8592 22.8422 40.9904 23.0461 41.1147 23.25C41.1217 23.2641 41.1311 23.2758 41.1381 23.2875C41.2576 23.4844 41.3725 23.6859 41.4826 23.8875C41.4967 23.9109 41.5084 23.9344 41.5201 23.9578C41.6232 24.15 41.7217 24.3422 41.8178 24.5367C41.8365 24.5742 41.8529 24.6117 41.8717 24.6492C41.9584 24.832 42.0404 25.0149 42.1201 25.2C42.1436 25.2516 42.1647 25.3055 42.1881 25.357C42.2584 25.5281 42.3264 25.7016 42.392 25.875C42.4178 25.943 42.4412 26.0109 42.467 26.0789C42.5232 26.2383 42.5772 26.4 42.6311 26.5617C42.6568 26.6438 42.6826 26.7258 42.7084 26.8078C42.7529 26.9578 42.7951 27.1102 42.8373 27.2625C42.8631 27.3563 42.8889 27.45 42.9123 27.5461C42.9475 27.6891 42.9803 27.8344 43.0131 27.9797C43.0342 28.0828 43.0576 28.1836 43.0787 28.2867C43.1068 28.4274 43.1303 28.5703 43.1537 28.7133C43.1725 28.8211 43.1912 28.9266 43.2076 29.0344C43.2287 29.1797 43.2475 29.3274 43.2639 29.4727C43.2756 29.5781 43.2897 29.6836 43.3014 29.7891C43.3178 29.9508 43.3271 30.1125 43.3389 30.2766C43.3436 30.368 43.3529 30.457 43.3576 30.5484C43.3693 30.8039 43.3764 31.0594 43.3764 31.3172C43.3764 31.5727 43.3693 31.8281 43.3576 32.0789C43.3506 32.2359 43.3365 32.393 43.3248 32.55C43.3154 32.6531 43.3107 32.7563 43.299 32.8594C43.2873 32.9789 43.2709 33.0984 43.2568 33.2156C43.2404 33.3563 43.224 33.4992 43.2029 33.6375C43.1912 33.7242 43.1725 33.8086 43.1584 33.8953C43.1303 34.0688 43.1022 34.2422 43.067 34.4133C43.0553 34.4672 43.0436 34.5188 43.0318 34.5727C42.9873 34.7766 42.9428 34.9805 42.8912 35.182C42.8842 35.2031 42.8795 35.2242 42.8725 35.2453C42.1647 37.9547 40.7443 40.3781 38.8201 42.3C38.8201 42.3024 38.8178 42.3047 38.8154 42.3047C38.642 42.4805 38.4639 42.6516 38.2811 42.8156C38.2787 42.818 38.2787 42.818 38.2787 42.818C38.0959 42.9844 37.9084 43.1461 37.7162 43.3055C37.7162 43.3055 37.7139 43.3078 37.7115 43.3078C37.5217 43.4649 37.3272 43.6172 37.1303 43.7649C37.1279 43.7672 37.1256 43.7695 37.1232 43.7719C36.9264 43.9172 36.7272 44.0602 36.5256 44.1961C36.5186 44.2008 36.5115 44.2055 36.5045 44.2102C36.3076 44.3438 36.1061 44.4727 35.9021 44.5969C35.8881 44.6039 35.874 44.6133 35.86 44.6227C35.6654 44.7399 35.4662 44.8547 35.267 44.9649C35.2412 44.9766 35.2154 44.9906 35.192 45.0047C35.0021 45.1055 34.81 45.2039 34.6154 45.3C34.5779 45.3188 34.5381 45.3375 34.5006 45.3539C34.3201 45.4406 34.1373 45.5227 33.9545 45.6024C33.9006 45.6258 33.8467 45.6469 33.7928 45.6703C33.6217 45.7406 33.4506 45.8086 33.2795 45.8742C33.2092 45.8977 33.1412 45.9234 33.0732 45.9492C32.9139 46.0055 32.7521 46.0594 32.5904 46.1109C32.5084 46.1391 32.4264 46.1649 32.342 46.1906C32.192 46.2352 32.042 46.2774 31.8896 46.3195C31.7959 46.3453 31.7021 46.3711 31.6061 46.3945C31.4631 46.4297 31.3178 46.4625 31.1725 46.4953C31.0717 46.5164 30.9686 46.5399 30.8654 46.5609C30.7248 46.5891 30.5818 46.6125 30.4389 46.6359C30.3311 46.6547 30.2256 46.6734 30.1178 46.6899C29.9725 46.7109 29.8271 46.7297 29.6795 46.7461C29.6514 46.7484 29.6209 46.7531 29.5928 46.7555C29.6701 46.7649 29.7451 46.7742 29.8225 46.7836C29.9842 46.8 30.1482 46.8094 30.31 46.8211C30.4014 46.8258 30.4904 46.8352 30.5818 46.8399C30.8373 46.8516 31.0928 46.8586 31.3506 46.8586C31.6084 46.8586 31.8639 46.8516 32.1193 46.8399C32.2107 46.8352 32.2998 46.8258 32.3912 46.8211C32.5529 46.8094 32.717 46.8 32.8787 46.7836C32.9842 46.7719 33.0896 46.7578 33.1951 46.7461C33.3428 46.7297 33.4881 46.7109 33.6334 46.6899C33.7412 46.6734 33.8467 46.6547 33.9545 46.6359C34.0975 46.6125 34.2404 46.5891 34.3811 46.5609C34.4842 46.5399 34.5873 46.5164 34.6881 46.4953C34.8334 46.4625 34.9787 46.4297 35.1217 46.3945C35.2178 46.3711 35.3115 46.3453 35.4053 46.3195C35.5576 46.2774 35.7076 46.2352 35.8576 46.1906C35.942 46.1649 36.024 46.1391 36.1061 46.1109C36.2678 46.0594 36.4295 46.0055 36.5889 45.9492C36.6568 45.9234 36.7248 45.8977 36.7951 45.8742C36.9662 45.8086 37.1373 45.7406 37.3084 45.6703C37.3623 45.6469 37.4162 45.6258 37.4701 45.6024C37.6529 45.5227 37.8357 45.4406 38.0162 45.3539C38.0537 45.3375 38.0936 45.3188 38.1311 45.3C38.3256 45.2039 38.5178 45.1055 38.7076 45.0047C38.7311 44.9906 38.7568 44.9766 38.7826 44.9649C38.9818 44.8547 39.1811 44.7399 39.3756 44.6227C39.3897 44.6133 39.4037 44.6039 39.4178 44.5969C39.6217 44.4727 39.8232 44.3438 40.0201 44.2102C40.0272 44.2055 40.0342 44.2008 40.0412 44.1961C40.2428 44.0602 40.442 43.9172 40.6389 43.7719L40.6459 43.7649C40.8428 43.6172 41.0373 43.4649 41.2272 43.3078C41.2295 43.3078 41.2318 43.3055 41.2318 43.3055C41.424 43.1461 41.6115 42.9844 41.7943 42.818C41.7943 42.818 41.7943 42.818 41.7967 42.8156C41.9795 42.6516 42.1576 42.4805 42.3311 42.3047C42.3334 42.3047 42.3357 42.3024 42.3357 42.3C44.26 40.3781 45.6803 37.9547 46.3881 35.2453C46.3951 35.2242 46.3998 35.2031 46.4068 35.182C46.4584 34.9805 46.5029 34.7766 46.5475 34.5727C46.5592 34.5188 46.5709 34.4672 46.5826 34.4133C46.6178 34.2422 46.6459 34.0688 46.674 33.8953C46.6881 33.8086 46.7068 33.7242 46.7186 33.6375C46.7397 33.4992 46.7561 33.3563 46.7725 33.2156C46.7865 33.0984 46.8029 32.9789 46.8147 32.8594C46.8264 32.7563 46.8311 32.6531 46.8404 32.55C46.8521 32.393 46.8662 32.2359 46.8732 32.0789C46.885 31.8281 46.892 31.5727 46.892 31.3172C46.892 31.0594 46.885 30.8039 46.8732 30.5484Z" fill="#B9C239"/>
</svg>
