<svg width="63" height="63" viewBox="0 0 63 63" fill="none" xmlns="http://www.w3.org/2000/svg">
<path d="M21.1504 6.59778C20.9107 9.44336 17.9453 9.89273 17.9453 9.89273C20.4916 10.0126 21.1261 13.3526 21.1261 13.3526C21.1805 10.9711 24.4043 9.85754 24.4043 9.85754C21.9894 9.71308 21.1504 6.59778 21.1504 6.59778Z" fill="#D5DC57"/>
<path d="M24.426 9.48914C22.3086 9.3624 21.5144 6.53011 21.5065 6.50132C21.4598 6.32856 21.2974 6.21511 21.117 6.23012C20.9386 6.24636 20.7976 6.38811 20.7825 6.56653C20.5709 9.08038 17.9982 9.5108 17.89 9.52753C17.7022 9.55608 17.5668 9.72219 17.5767 9.91168C17.5865 10.1014 17.7384 10.2525 17.9281 10.2614C20.1498 10.366 20.7579 13.3912 20.7636 13.422C20.7973 13.5969 20.9504 13.7215 21.1258 13.7215C21.1362 13.7215 21.1465 13.721 21.1568 13.7202C21.3449 13.7045 21.4908 13.5497 21.4952 13.3609C21.543 11.2669 24.4954 10.2166 24.5254 10.2063C24.6915 10.1487 24.7941 9.98133 24.77 9.80709C24.7454 9.63261 24.6017 9.49948 24.426 9.48914ZM21.0877 12.035C20.7537 11.2645 20.1752 10.3352 19.2206 9.85041C19.9419 9.50489 20.7978 8.88769 21.239 7.81472C21.6207 8.57047 22.2726 9.50784 23.29 9.96139C22.5497 10.3647 21.5863 11.0454 21.0877 12.035Z" fill="#3A312A"/>
<path d="M15.81 10.7764C15.6404 12.7892 13.543 13.1069 13.543 13.1069C15.3439 13.1918 15.7928 15.5541 15.7928 15.5541C15.8312 13.8698 18.1115 13.0821 18.1115 13.0821C16.4031 12.98 15.81 10.7764 15.81 10.7764Z" fill="#D5DC57"/>
<path d="M18.1334 12.7137C16.7144 12.6288 16.1715 10.6992 16.1661 10.6797C16.1193 10.507 15.9569 10.393 15.7768 10.4085C15.5981 10.4245 15.4571 10.5668 15.4421 10.7452C15.2996 12.4359 13.5602 12.7302 13.4876 12.7418C13.2998 12.7703 13.1645 12.9364 13.1743 13.1259C13.1842 13.3156 13.336 13.4668 13.5258 13.4756C15.0109 13.5455 15.4263 15.6028 15.4303 15.623C15.4635 15.7982 15.6171 15.9233 15.7925 15.9233C15.8029 15.9233 15.813 15.9228 15.8233 15.922C16.0115 15.9065 16.1575 15.7515 16.1619 15.5625C16.1939 14.1578 18.2124 13.438 18.2323 13.4311C18.3989 13.3735 18.5015 13.2064 18.4774 13.0319C18.453 12.8574 18.3093 12.724 18.1334 12.7137ZM15.7746 14.3857C15.5472 13.9218 15.1987 13.4146 14.6802 13.0865C15.1367 12.8304 15.59 12.4393 15.8787 11.8767C16.1388 12.3379 16.5318 12.8498 17.0946 13.1623C16.6398 13.433 16.1132 13.8366 15.7746 14.3857Z" fill="#3A312A"/>
<path d="M15.8009 4.21634C15.6392 6.22988 13.543 6.55571 13.543 6.55571C15.3441 6.63347 15.8024 8.99425 15.8024 8.99425C15.8341 7.30974 18.1115 6.51313 18.1115 6.51313C16.4026 6.4174 15.8009 4.21634 15.8009 4.21634Z" fill="#D5DC57"/>
<path d="M18.1322 6.14446C16.7191 6.06547 16.1674 4.15504 16.1571 4.11886C16.1098 3.94611 15.9469 3.82921 15.7665 3.8489C15.5881 3.86539 15.4473 4.00788 15.4331 4.18679C15.2972 5.87819 13.5591 6.17941 13.4862 6.19122C13.2987 6.22051 13.1638 6.38711 13.1744 6.57636C13.185 6.7661 13.3376 6.9167 13.5271 6.92483C15.0125 6.98881 15.436 9.04443 15.44 9.06461C15.4739 9.23934 15.627 9.36337 15.802 9.36337C15.8125 9.36337 15.8234 9.36288 15.8342 9.36189C16.0225 9.34565 16.1679 9.19012 16.1713 9.00112C16.1979 7.59592 18.2134 6.86847 18.2334 6.86158C18.3997 6.8035 18.5016 6.63591 18.477 6.46143C18.4524 6.2872 18.3079 6.15431 18.1322 6.14446ZM15.7801 7.82577C15.5507 7.36263 15.2005 6.85666 14.6805 6.53083C15.1363 6.27268 15.5876 5.87991 15.8743 5.31611C16.1364 5.77606 16.5314 6.28671 17.0954 6.59678C16.6411 6.8697 16.1165 7.27526 15.7801 7.82577Z" fill="#3A312A"/>
<path d="M31.5009 44.2686C39.9745 44.2686 46.8436 40.1349 46.8436 35.0359C46.8436 29.9368 39.9745 25.8032 31.5009 25.8032C23.0274 25.8032 16.1582 29.9368 16.1582 35.0359C16.1582 40.1349 23.0274 44.2686 31.5009 44.2686Z" fill="#EF6D7A"/>
<path d="M31.5009 25.434C22.8374 25.434 15.7891 29.7414 15.7891 35.0359C15.7891 40.3306 22.8374 44.638 31.5009 44.638C40.1644 44.638 47.2128 40.3306 47.2128 35.0359C47.2128 29.7414 40.1644 25.434 31.5009 25.434ZM31.5009 43.8994C23.2445 43.8994 16.5273 39.9233 16.5273 35.0356C16.5273 30.1484 23.2445 26.1721 31.5009 26.1721C39.7574 26.1721 46.4745 30.1482 46.4745 35.0356C46.4745 39.9233 39.7574 43.8994 31.5009 43.8994Z" fill="#3A312A"/>
<path d="M45.6201 34.9333C43.8367 37.3718 40.0739 36.9271 38.9079 34.1401L31.5005 16.4346L24.0931 34.1401C22.9271 36.9271 19.1643 37.3718 17.3809 34.9333L6.83008 20.5077L8.83574 36.476L9.27453 39.9698L10.3603 48.6131H52.6404L56.1706 20.5075L45.6201 34.9333Z" fill="#D7E057"/>
<path d="M56.307 20.1647C56.1509 20.1024 55.9723 20.1543 55.8726 20.2897L45.3221 34.715C44.5644 35.7513 43.3514 36.2814 42.0756 36.1293C40.8006 35.9787 39.7439 35.1816 39.2482 33.9974L31.8408 16.2919C31.7835 16.1546 31.6491 16.0652 31.5002 16.0652C31.3513 16.0652 31.2172 16.1546 31.1596 16.2919L23.7522 33.9974C23.2566 35.1818 22.1996 35.9787 20.9248 36.1293C19.6488 36.2816 18.4363 35.7513 17.6784 34.715L7.12809 20.2897C7.02892 20.1543 6.85001 20.1024 6.69374 20.1647C6.53722 20.2267 6.44272 20.3867 6.46388 20.5535L8.46955 36.522C8.4949 36.7246 8.68094 36.8693 8.88176 36.8424C9.08404 36.8169 9.22727 36.6323 9.20192 36.4302L7.37394 21.8768L17.0826 35.1508C18 36.4049 19.4694 37.0433 21.0115 36.8624C22.5545 36.68 23.8337 35.7156 24.4334 34.2823L31.5005 17.391L38.5673 34.2826C39.167 35.7158 40.4462 36.6803 41.9892 36.8626C43.532 37.044 45.0009 36.4051 45.9181 35.151L55.6268 21.877L52.3151 48.2442H10.6859L9.64071 39.924C9.61536 39.7217 9.43079 39.5805 9.2285 39.6036C9.02621 39.6292 8.88299 39.8138 8.90833 40.0158L9.9941 48.6591C10.0172 48.844 10.1742 48.9823 10.3603 48.9823H52.6407C52.8267 48.9823 52.9837 48.8437 53.0069 48.6591L56.5371 20.5538C56.558 20.3869 56.4635 20.2267 56.307 20.1647Z" fill="#3A312A"/>
<path d="M31.4994 13.3117C29.5873 13.3117 28.0371 14.8619 28.0371 16.774C28.0371 18.6862 29.5873 20.2363 31.4994 20.2363C33.4116 20.2363 34.9617 18.6862 34.9617 16.774C34.9617 14.8619 33.4116 13.3117 31.4994 13.3117Z" fill="#D7E057"/>
<path d="M31.4994 12.9426C29.3867 12.9426 27.668 14.6613 27.668 16.774C27.668 18.8865 29.3867 20.6052 31.4994 20.6052C33.6119 20.6052 35.3308 18.8865 35.3308 16.774C35.3308 14.6613 33.6119 12.9426 31.4994 12.9426ZM31.4994 19.8669C29.7937 19.8669 28.4063 18.4794 28.4063 16.774C28.4063 15.0686 29.7937 13.6808 31.4994 13.6808C33.2051 13.6808 34.5926 15.0686 34.5926 16.774C34.5926 18.4794 33.2051 19.8669 31.4994 19.8669Z" fill="#3A312A"/>
<path d="M6.64502 23.2832C8.14035 23.2832 9.35255 22.071 9.35255 20.5757C9.35255 19.0803 8.14035 17.8681 6.64502 17.8681C5.1497 17.8681 3.9375 19.0803 3.9375 20.5757C3.9375 22.071 5.1497 23.2832 6.64502 23.2832Z" fill="#D7E057"/>
<path d="M6.64502 17.4987C4.94845 17.4987 3.56836 18.8788 3.56836 20.5757C3.56836 22.2722 4.94845 23.6523 6.64502 23.6523C8.34159 23.6523 9.72193 22.2722 9.72193 20.5757C9.72193 18.8791 8.34159 17.4987 6.64502 17.4987ZM6.64502 22.914C5.35549 22.914 4.30664 21.8649 4.30664 20.5757C4.30664 19.2861 5.35574 18.237 6.64502 18.237C7.93456 18.237 8.98365 19.2861 8.98365 20.5757C8.98365 21.8652 7.93456 22.914 6.64502 22.914Z" fill="#3A312A"/>
<path d="M56.354 23.2832C57.8493 23.2832 59.0615 22.071 59.0615 20.5757C59.0615 19.0803 57.8493 17.8681 56.354 17.8681C54.8587 17.8681 53.6465 19.0803 53.6465 20.5757C53.6465 22.071 54.8587 23.2832 56.354 23.2832Z" fill="#D7E057"/>
<path d="M56.354 17.4987C54.6574 17.4987 53.2773 18.8788 53.2773 20.5757C53.2773 22.2722 54.6574 23.6523 56.354 23.6523C58.0506 23.6523 59.4307 22.2722 59.4307 20.5757C59.4307 18.8791 58.0506 17.4987 56.354 17.4987ZM56.354 22.914C55.0645 22.914 54.0156 21.8649 54.0156 20.5757C54.0156 19.2861 55.0647 18.237 56.354 18.237C57.6433 18.237 58.6924 19.2861 58.6924 20.5757C58.6924 21.8652 57.6433 22.914 56.354 22.914Z" fill="#3A312A"/>
<path d="M10.3867 48.6134V55.3714C10.3867 57.2562 11.9145 58.7839 13.7993 58.7839H30.7478H34.1387H49.2006C51.0852 58.7839 52.6132 57.2562 52.6132 55.3714V48.6134H10.3867Z" fill="#87796F"/>
<path d="M52.613 48.2442H10.3867C10.1827 48.2442 10.0176 48.4096 10.0176 48.6134V55.3714C10.0176 57.4565 11.7141 59.1528 13.7993 59.1528H30.7478C30.9518 59.1528 31.1169 58.9875 31.1169 58.7837C31.1169 58.5799 30.9518 58.4146 30.7478 58.4146H13.7993C12.1212 58.4146 10.7559 57.0492 10.7559 55.3714V48.9825H52.2438V55.3714C52.2438 57.0492 50.8785 58.4146 49.2004 58.4146H34.1385C33.9344 58.4146 33.7693 58.5799 33.7693 58.7837C33.7693 58.9875 33.9344 59.1528 34.1385 59.1528H49.2004C51.2855 59.1528 52.9821 57.4563 52.9821 55.3714V48.6134C52.9821 48.4096 52.817 48.2442 52.613 48.2442Z" fill="#3A312A"/>
<path d="M15.627 55.5847C16.6463 55.5847 17.4727 54.7584 17.4727 53.739C17.4727 52.7197 16.6463 51.8933 15.627 51.8933C14.6076 51.8933 13.7812 52.7197 13.7812 53.739C13.7812 54.7584 14.6076 55.5847 15.627 55.5847Z" fill="#FAE6CA"/>
<path d="M15.627 51.5239C14.4058 51.5239 13.4121 52.5174 13.4121 53.7388C13.4121 54.9601 14.4058 55.9536 15.627 55.9536C16.8481 55.9536 17.8418 54.9601 17.8418 53.7388C17.8418 52.5174 16.8481 51.5239 15.627 51.5239ZM15.627 55.2153C14.8126 55.2153 14.1504 54.5531 14.1504 53.7388C14.1504 52.9244 14.8126 52.2622 15.627 52.2622C16.4413 52.2622 17.1035 52.9244 17.1035 53.7388C17.1035 54.5531 16.4413 55.2153 15.627 55.2153Z" fill="#3A312A"/>
<path d="M26.209 55.5847C27.2283 55.5847 28.0547 54.7584 28.0547 53.739C28.0547 52.7197 27.2283 51.8933 26.209 51.8933C25.1896 51.8933 24.3633 52.7197 24.3633 53.739C24.3633 54.7584 25.1896 55.5847 26.209 55.5847Z" fill="#FAE6CA"/>
<path d="M26.209 51.5239C24.9879 51.5239 23.9941 52.5174 23.9941 53.7388C23.9941 54.9601 24.9879 55.9536 26.209 55.9536C27.4301 55.9536 28.4238 54.9601 28.4238 53.7388C28.4238 52.5174 27.4301 51.5239 26.209 51.5239ZM26.209 55.2153C25.3947 55.2153 24.7324 54.5531 24.7324 53.7388C24.7324 52.9244 25.3947 52.2622 26.209 52.2622C27.0233 52.2622 27.6855 52.9244 27.6855 53.7388C27.6855 54.5531 27.0233 55.2153 26.209 55.2153Z" fill="#3A312A"/>
<path d="M36.791 55.5847C37.8104 55.5847 38.6367 54.7584 38.6367 53.739C38.6367 52.7197 37.8104 51.8933 36.791 51.8933C35.7717 51.8933 34.9453 52.7197 34.9453 53.739C34.9453 54.7584 35.7717 55.5847 36.791 55.5847Z" fill="#FAE6CA"/>
<path d="M36.791 51.5239C35.5699 51.5239 34.5762 52.5174 34.5762 53.7388C34.5762 54.9601 35.5699 55.9536 36.791 55.9536C38.0121 55.9536 39.0059 54.9601 39.0059 53.7388C39.0059 52.5174 38.0121 51.5239 36.791 51.5239ZM36.791 55.2153C35.9767 55.2153 35.3145 54.5531 35.3145 53.7388C35.3145 52.9244 35.9767 52.2622 36.791 52.2622C37.6053 52.2622 38.2676 52.9244 38.2676 53.7388C38.2676 54.5531 37.6053 55.2153 36.791 55.2153Z" fill="#3A312A"/>
<path d="M47.373 55.5847C48.3924 55.5847 49.2188 54.7584 49.2188 53.739C49.2188 52.7197 48.3924 51.8933 47.373 51.8933C46.3537 51.8933 45.5273 52.7197 45.5273 53.739C45.5273 54.7584 46.3537 55.5847 47.373 55.5847Z" fill="#FAE6CA"/>
<path d="M47.373 51.5239C46.1519 51.5239 45.1582 52.5174 45.1582 53.7388C45.1582 54.9601 46.1519 55.9536 47.373 55.9536C48.5942 55.9536 49.5879 54.9601 49.5879 53.7388C49.5879 52.5174 48.5942 51.5239 47.373 51.5239ZM47.373 55.2153C46.5587 55.2153 45.8965 54.5531 45.8965 53.7388C45.8965 52.9244 46.5587 52.2622 47.373 52.2622C48.1874 52.2622 48.8496 52.9244 48.8496 53.7388C48.8496 54.5531 48.1874 55.2153 47.373 55.2153Z" fill="#3A312A"/>
<path d="M54.6893 23.1574L51.1701 27.9683L48.623 48.2442H52.3145L55.4226 23.5069C55.1593 23.4232 54.9157 23.3048 54.6893 23.1574Z" fill="#B9C239"/>
<path d="M48.5515 48.9825V51.8667C49.1741 52.258 49.5875 52.9495 49.5875 53.7395C49.5875 54.5319 49.1692 55.2284 48.5416 55.6197C48.4137 57.1824 47.1045 58.4153 45.5098 58.4153H49.2012C50.8795 58.4153 52.2429 57.0492 52.2429 55.3711V48.9825H48.5515Z" fill="#695B51"/>
</svg>
