<svg width="34" height="34" viewBox="0 0 34 34" fill="none" xmlns="http://www.w3.org/2000/svg">
<path d="M31.4436 15.7662L21.463 5.77256C21.0663 5.37532 20.4228 5.37492 20.0256 5.77163L6.26499 19.5151C5.86775 19.9118 5.86735 20.5553 6.26406 20.9525L12.6114 27.3081L13.9517 28.65L16.2447 30.946C16.6414 31.3432 17.2848 31.3436 17.6821 30.9469L31.4427 17.2036C31.8399 16.8069 31.8403 16.1634 31.4436 15.7662Z" fill="#F4E0C4"/>
<path d="M31.5846 15.6254L21.604 5.63175C21.3745 5.40198 21.0693 5.27528 20.7446 5.27515H20.7438C20.4195 5.27515 20.1143 5.40145 19.8848 5.63069L6.12418 19.374C5.89441 19.6035 5.76771 19.9087 5.76758 20.2334C5.76731 20.558 5.89362 20.8635 6.12312 21.0933L12.4705 27.4489C12.5483 27.5268 12.6744 27.5268 12.7523 27.4491C12.8302 27.3713 12.8303 27.2453 12.7526 27.1673L6.40521 20.8116C6.25088 20.6571 6.16602 20.4519 6.16615 20.2336C6.16628 20.0153 6.25141 19.8101 6.40588 19.656L20.1663 5.91265C20.3206 5.75845 20.5257 5.67358 20.7438 5.67358H20.7443C20.9627 5.67372 21.1677 5.75885 21.3221 5.91331L31.3028 15.9069C31.6211 16.2257 31.6207 16.7442 31.3021 17.0625L17.5414 30.806C17.3871 30.9602 17.182 31.0449 16.9639 31.0449H16.9634C16.7451 31.0448 16.5399 30.9596 16.3857 30.8052L14.0927 28.5092C14.015 28.4314 13.8888 28.4313 13.8108 28.5091C13.733 28.5868 13.7329 28.713 13.8107 28.7908L16.1037 31.0867C16.3332 31.3165 16.6384 31.4432 16.9631 31.4433H16.9639C17.2883 31.4433 17.5933 31.317 17.823 31.0878L31.5835 17.3445C32.0577 16.8709 32.0582 16.0996 31.5846 15.6254Z" fill="#3A312A"/>
<path d="M22.9409 14.7649C22.8684 14.5349 22.6822 14.3485 22.4523 14.2756C20.0364 13.5101 16.5779 13.2887 15.1325 14.7322C13.7342 16.1288 13.8487 18.6394 16.4238 19.7561L13.1719 20.4768L16.7281 24.0375L17.4527 20.7865C18.5661 23.3629 21.0766 23.4807 22.4749 22.0842C23.9204 20.6407 23.7034 17.1818 22.9409 14.7649Z" fill="#87796F"/>
<path d="M23.1328 14.705C23.0411 14.4149 22.8043 14.1777 22.5144 14.0858C19.8684 13.2473 16.4352 13.1518 14.9936 14.5914C14.2408 15.3434 13.9052 16.3917 14.0961 17.3957C14.2751 18.338 14.8858 19.1351 15.8358 19.6829L13.1307 20.2825C13.0597 20.2981 13.0029 20.3514 12.9826 20.4211C12.9622 20.491 12.9815 20.5663 13.0328 20.6177L16.589 24.1784C16.6269 24.2164 16.6778 24.2368 16.73 24.2368C16.7486 24.2368 16.7673 24.2342 16.7857 24.2289C16.8555 24.2085 16.9086 24.1518 16.9244 24.0809L17.5273 21.3766C18.0741 22.3274 18.8704 22.939 19.8125 23.1192C20.8166 23.3111 21.8649 22.9771 22.6177 22.2252C24.0591 20.7854 23.9679 17.3522 23.1328 14.705ZM22.3359 21.9433C21.6765 22.6019 20.7613 22.8953 19.8871 22.7279C18.9193 22.5428 18.1203 21.8252 17.6374 20.7076C17.6031 20.6283 17.5217 20.5794 17.4358 20.5883C17.3498 20.5964 17.2788 20.659 17.2601 20.7433L16.6143 23.6401L13.5711 20.5928L16.4686 19.9507C16.553 19.932 16.6155 19.8612 16.6238 19.7753C16.632 19.6893 16.5839 19.6078 16.5048 19.5735C15.3878 19.089 14.6713 18.2892 14.4873 17.3211C14.3212 16.4468 14.6156 15.5318 15.275 14.8733C16.2811 13.8684 19.0493 13.4058 22.3939 14.4655C22.5621 14.5189 22.6997 14.6565 22.7527 14.8248C23.8083 18.1707 23.3421 20.9386 22.3359 21.9433Z" fill="#3A312A"/>
<path d="M21.4237 8.24237L18.6426 9.50156L19.2797 10.1396L19.7119 9.90492L20.4201 10.6143L20.1875 11.0486L20.8409 11.7029L22.1042 8.92396L21.4237 8.24237ZM20.7281 10.0478L20.2847 9.6037L21.2322 9.09874L20.7281 10.0478Z" fill="#3A312A"/>
<path d="M18.4164 3.77214C18.4164 3.21088 17.9613 2.75586 17.4 2.75586L3.27605 2.75705C2.71465 2.75705 2.25963 3.2122 2.25977 3.7736L2.26043 10.3931L2.26056 12.2736L2.26163 23.2217C2.26176 23.7831 2.71677 24.238 3.27817 24.238L17.4021 24.2368C17.9635 24.2368 18.4185 23.7817 18.4184 23.2203L18.4164 3.77214Z" fill="#F4E0C4"/>
<path d="M18.6156 3.77214C18.6156 3.10184 18.0702 2.55664 17.4 2.55664L3.27605 2.55784C2.60574 2.55784 2.06041 3.1033 2.06055 3.7736L2.06121 10.3931C2.06121 10.5032 2.15046 10.5923 2.26043 10.5923C2.37053 10.5923 2.45965 10.5031 2.45965 10.3931L2.45898 3.7736C2.45885 3.32297 2.82555 2.95641 3.27605 2.95627L17.4 2.95508C17.8506 2.95508 18.2172 3.32151 18.2172 3.77214L18.2192 23.2204C18.2192 23.4387 18.1342 23.6439 17.9798 23.7983C17.8255 23.9526 17.6203 24.0377 17.402 24.0377L3.27817 24.0388C2.82754 24.0388 2.46098 23.6724 2.46098 23.2217L2.45978 12.2735C2.45978 12.1634 2.37053 12.0742 2.26056 12.0742C2.15046 12.0742 2.06134 12.1635 2.06134 12.2735L2.06254 23.2217C2.06254 23.892 2.608 24.4372 3.27817 24.4372L17.4021 24.436C17.7268 24.436 18.0322 24.3095 18.2617 24.0798C18.4913 23.8502 18.6177 23.545 18.6176 23.2203L18.6156 3.77214Z" fill="#3A312A"/>
<path d="M15.5332 13.5659C15.5329 11.523 12.932 9.23249 10.683 8.06427C10.469 7.9531 10.2057 7.9531 9.99156 8.06427C7.74278 9.23289 5.14231 11.5238 5.14258 13.5667C5.14284 15.5428 7.00036 17.2359 9.60999 16.2028L7.8222 19.0131L12.8546 19.0127L11.0661 16.2028C13.6762 17.2355 15.5334 15.542 15.5332 13.5659Z" fill="#87796F"/>
<path d="M10.7749 7.88761C10.505 7.74736 10.1695 7.74749 9.89979 7.88761C7.43665 9.16752 4.94323 11.5293 4.94336 13.5667C4.94349 14.6308 5.44818 15.6088 6.29353 16.1833C7.08682 16.7224 8.08252 16.8536 9.1413 16.5685L7.65406 18.9063C7.61502 18.9676 7.61249 19.0453 7.64755 19.1091C7.68262 19.1727 7.74955 19.2124 7.8222 19.2124L12.8546 19.212C12.9272 19.212 12.9943 19.1724 13.0292 19.1087C13.0643 19.0449 13.0618 18.9672 13.0227 18.9059L11.535 16.5684C12.5942 16.8533 13.5895 16.722 14.3827 16.1827C15.228 15.6081 15.7325 14.63 15.7324 13.566C15.7321 11.5284 13.2383 9.16699 10.7749 7.88761ZM14.1588 15.853C13.3439 16.407 12.2716 16.4654 11.1396 16.0175C11.0594 15.9857 10.9677 16.0092 10.9127 16.0759C10.8578 16.1424 10.8519 16.2369 10.8983 16.3096L12.4919 18.8134L8.18531 18.8138L9.7784 16.3098C9.82475 16.237 9.81891 16.1426 9.76392 16.0759C9.72527 16.0291 9.66856 16.0036 9.61026 16.0036C9.58569 16.0036 9.56085 16.0082 9.53694 16.0176C8.40512 16.4657 7.33266 16.4075 6.51772 15.8537C5.78167 15.3535 5.34206 14.4985 5.34206 13.5667C5.34193 12.1446 6.97061 9.85881 10.0837 8.24116C10.2402 8.15974 10.4349 8.15974 10.5915 8.24116C13.7049 9.85828 15.3341 12.144 15.3342 13.5659C15.3339 14.4978 14.8947 15.3527 14.1588 15.853Z" fill="#3A312A"/>
<path d="M29.9838 4.04108C29.8544 5.57692 28.2539 5.8193 28.2539 5.8193C29.6281 5.88398 29.9705 7.68652 29.9705 7.68652C29.9999 6.40129 31.7397 5.80031 31.7397 5.80031C30.4365 5.72235 29.9838 4.04108 29.9838 4.04108Z" fill="#D5DE58"/>
<path d="M31.7517 5.60151C30.6089 5.53324 30.1804 4.00457 30.1761 3.98917C30.1507 3.8958 30.0615 3.83404 29.9657 3.84281C29.8694 3.85157 29.7933 3.92807 29.7852 4.02436C29.671 5.38104 28.2826 5.6132 28.224 5.62236C28.1227 5.63763 28.0496 5.72728 28.055 5.82955C28.0603 5.93181 28.1422 6.01336 28.2446 6.01828C29.4436 6.07472 29.7717 7.70738 29.7749 7.72385C29.7931 7.81828 29.8757 7.88549 29.9704 7.88549C29.9758 7.88549 29.9815 7.88522 29.9871 7.88482C30.0886 7.87632 30.1673 7.79278 30.1697 7.69105C30.1956 6.56108 31.789 5.9941 31.805 5.98853C31.8947 5.95731 31.9501 5.86713 31.9371 5.7731C31.9239 5.67907 31.8465 5.60722 31.7517 5.60151ZM29.9499 6.97559C29.7698 6.55975 29.4573 6.05812 28.9423 5.79661C29.3316 5.61014 29.7935 5.27692 30.0316 4.69799C30.2376 5.10585 30.5893 5.61174 31.1385 5.85638C30.7391 6.07419 30.219 6.44155 29.9499 6.97559Z" fill="#3A312A"/>
<path d="M27.0955 6.28644C27.0032 7.37271 25.8711 7.54338 25.8711 7.54338C26.843 7.58986 27.0843 8.86499 27.0843 8.86499C27.1057 7.95602 28.3366 7.53182 28.3366 7.53182C27.4148 7.47591 27.0955 6.28644 27.0955 6.28644Z" fill="#D5DE58"/>
<path d="M28.3487 7.33287C27.5829 7.28638 27.2907 6.245 27.2878 6.23438C27.2626 6.14101 27.174 6.07899 27.0778 6.08788C26.9814 6.09638 26.9052 6.17302 26.8969 6.26944C26.8195 7.18186 25.8806 7.34004 25.8413 7.34615C25.74 7.36142 25.667 7.45094 25.6721 7.55334C25.6773 7.65573 25.7593 7.73728 25.8615 7.74219C26.663 7.78058 26.8864 8.89102 26.8886 8.90191C26.9065 8.99661 26.9892 9.06408 27.0842 9.06408C27.0896 9.06408 27.0951 9.06394 27.1007 9.06341C27.2023 9.05504 27.2812 8.97151 27.2835 8.86951C27.3013 8.11128 28.3909 7.72373 28.4017 7.71988C28.4916 7.68894 28.547 7.59876 28.5341 7.50459C28.5211 7.41056 28.4435 7.33858 28.3487 7.33287ZM27.075 8.2344C26.9526 7.98391 26.7646 7.70992 26.4849 7.53275C26.7316 7.39462 26.9762 7.18385 27.1324 6.88024C27.2727 7.12913 27.4845 7.40565 27.7882 7.57445C27.5423 7.72041 27.258 7.93809 27.075 8.2344Z" fill="#3A312A"/>
<path d="M27.1024 2.75586C27.0109 3.84213 25.8789 4.01373 25.8789 4.01373C26.8508 4.05941 27.0931 5.33441 27.0931 5.33441C27.1138 4.42531 28.3444 4.00031 28.3444 4.00031C27.4226 3.94506 27.1024 2.75586 27.1024 2.75586Z" fill="#D5DE58"/>
<path d="M28.3563 3.80133C27.5903 3.75551 27.2974 2.71413 27.2946 2.70364C27.2693 2.6104 27.1807 2.54891 27.0845 2.55728C26.988 2.56591 26.9119 2.64254 26.9038 2.73897C26.8269 3.65152 25.8883 3.81036 25.849 3.81661C25.7477 3.83188 25.6746 3.92153 25.68 4.02379C25.6853 4.12606 25.7672 4.20761 25.8696 4.21252C26.6711 4.25024 26.8953 5.36055 26.8975 5.37144C26.9154 5.46614 26.9983 5.53347 27.093 5.53347C27.0985 5.53347 27.104 5.53334 27.1096 5.53281C27.2112 5.52444 27.2899 5.44064 27.2923 5.33877C27.3096 4.58054 28.3989 4.19207 28.4097 4.18835C28.4994 4.15727 28.555 4.06709 28.5419 3.97293C28.5288 3.8789 28.4511 3.80704 28.3563 3.80133ZM27.0833 4.70379C26.9605 4.45331 26.7725 4.17958 26.4926 4.00254C26.7391 3.86429 26.9836 3.65325 27.1396 3.34964C27.28 3.5984 27.4922 3.87478 27.7959 4.04345C27.5501 4.18954 27.266 4.40736 27.0833 4.70379Z" fill="#3A312A"/>
<path d="M5.3975 4.52972V6.29029C5.3975 6.46427 5.37439 6.58792 5.3283 6.66123C5.28222 6.73468 5.2097 6.77133 5.11102 6.77133C5.04873 6.77133 5.00052 6.75898 4.96679 6.73428C4.91738 6.69656 4.88232 6.64729 4.86147 6.58619C4.84075 6.5251 4.82959 6.4316 4.8284 6.30556L3.98438 6.42058C3.99991 6.64158 4.05091 6.82698 4.13737 6.97719C4.2237 7.12727 4.34629 7.24123 4.50473 7.31932C4.66331 7.39728 4.88684 7.43633 5.1753 7.43633C5.44823 7.43633 5.67202 7.37723 5.8468 7.25915C6.02158 7.14095 6.13793 6.99685 6.19583 6.82672C6.25361 6.65658 6.28256 6.40849 6.28256 6.08257V4.52999H5.3975V4.52972Z" fill="#3A312A"/>
<path d="M31.3033 15.907L21.3224 5.91283C21.1684 5.75877 20.9625 5.67377 20.7447 5.67377C20.5255 5.67377 20.321 5.75877 20.167 5.91283L19.7486 6.33119L29.3111 15.907C29.4652 16.061 29.5502 16.2669 29.5502 16.4847C29.5502 16.7038 29.4652 16.9084 29.3098 17.0624L15.9688 30.3875L16.3858 30.8045C16.5398 30.9599 16.7457 31.0449 16.9635 31.0449H16.9648C17.1827 31.0449 17.3872 30.9599 17.5426 30.8059L31.3019 17.0624C31.4573 16.9084 31.5423 16.7038 31.5423 16.4847C31.5423 16.2669 31.4573 16.061 31.3033 15.907Z" fill="#DDC9AC"/>
</svg>
