<svg width="32" height="32" viewBox="0 0 32 32" fill="none" xmlns="http://www.w3.org/2000/svg">
<path d="M11.7305 4.45988L12.3008 5.95375L12.9258 7.5905L13.4233 8.89325C15.5125 8.012 17.9471 7.96425 20.1801 8.96313L22.1165 4.63438C18.6881 3.10075 14.9541 3.14663 11.7305 4.45988Z" fill="#F16C7A"/>
<path d="M22.2917 4.56751C22.274 4.52101 22.2385 4.48351 22.1931 4.46326C18.822 2.95538 15.0811 2.89251 11.6597 4.28626C11.5654 4.32476 11.519 4.43151 11.5554 4.52676L12.1257 6.02063C12.1627 6.11726 12.2711 6.16601 12.3679 6.12888C12.4646 6.09201 12.5131 5.98351 12.4761 5.88676L11.9715 4.56538C15.1925 3.30388 18.6925 3.36226 21.8682 4.73001L20.0847 8.71725C18.0026 7.84013 15.635 7.81476 13.5301 8.64701L13.1011 7.52351C13.0642 7.42688 12.9562 7.37826 12.8591 7.41526C12.7624 7.45213 12.7139 7.56063 12.7509 7.65738L13.2484 8.96013C13.2665 9.00763 13.3031 9.04575 13.35 9.06563C13.3966 9.08563 13.4495 9.08563 13.4965 9.06588C15.6076 8.17551 18.016 8.20025 20.1039 9.13425C20.1287 9.14538 20.1546 9.15063 20.1802 9.15063C20.2519 9.15063 20.3204 9.10925 20.3515 9.03963L22.2879 4.71088C22.308 4.66551 22.3095 4.61388 22.2917 4.56751Z" fill="#3A312A"/>
<path d="M12.9265 7.5904L12.3015 5.95365L11.7311 4.45978C8.68861 5.69915 6.10048 8.06753 4.65311 11.3033C4.59636 11.43 4.54261 11.5574 4.49023 11.6849L8.82211 13.6227C8.87223 13.4944 8.92511 13.3667 8.98198 13.2395C9.89473 11.1992 11.5154 9.69828 13.4241 8.89303L12.9265 7.5904Z" fill="#87796F"/>
<path d="M13.5975 8.82622L13.1 7.52347C13.0631 7.42685 12.9551 7.37822 12.858 7.41522C12.7613 7.4521 12.7128 7.5606 12.7498 7.65735L13.1833 8.7926C11.2321 9.66347 9.683 11.2095 8.809 13.1631C8.7785 13.2311 8.74875 13.3003 8.719 13.372L4.73175 11.5885C4.76125 11.5188 4.7915 11.4493 4.8225 11.38C6.1735 8.35997 8.584 5.99672 11.6231 4.70722L12.1246 6.02072C12.1616 6.11735 12.27 6.1661 12.3668 6.12897C12.4635 6.0921 12.512 5.9836 12.475 5.88685L11.9046 4.39297C11.8866 4.34585 11.8504 4.30797 11.8041 4.28785C11.7579 4.26785 11.7055 4.26722 11.6588 4.28622C8.44625 5.59485 5.89688 8.0596 4.48013 11.2267C4.42263 11.3552 4.368 11.4843 4.31488 11.6137C4.27638 11.7075 4.31938 11.8147 4.41175 11.8561L8.74363 13.7938C8.76788 13.8047 8.794 13.8102 8.82013 13.8102C8.84425 13.8102 8.8685 13.8056 8.89125 13.7962C8.93875 13.7768 8.97613 13.7387 8.99488 13.691C9.047 13.5573 9.09813 13.4347 9.15113 13.3162C10.0108 11.3943 11.5535 9.88497 13.495 9.06585C13.5883 9.0266 13.6335 8.92072 13.5975 8.82622Z" fill="#3A312A"/>
<path d="M21.3334 21.3192C23.884 18.7686 23.884 14.6332 21.3334 12.0826C18.7828 9.53201 14.6474 9.53201 12.0968 12.0826C9.5462 14.6332 9.5462 18.7686 12.0968 21.3192C14.6474 23.8698 18.7828 23.8698 21.3334 21.3192Z" fill="#89C4DB"/>
<path d="M19.4635 10.5669C16.0811 9.05399 12.0985 10.5747 10.5855 13.9571C9.07261 17.3395 10.5934 21.322 13.9757 22.835C14.8642 23.2325 15.794 23.4205 16.7099 23.4205C19.2799 23.4205 21.7381 21.9386 22.8536 19.4447C24.3666 16.0625 22.8459 12.0799 19.4635 10.5669ZM22.5114 19.2916C21.0829 22.4852 17.3222 23.921 14.1289 22.4926C10.9354 21.064 9.49923 17.3036 10.9279 14.11C11.9812 11.7552 14.302 10.3561 16.729 10.3561C17.5934 10.3561 18.4717 10.5337 19.3105 10.909C22.5039 12.3377 23.94 16.0981 22.5114 19.2916Z" fill="#3A312A"/>
<path d="M22.1161 4.6344L20.1797 8.96315C22.4128 9.96202 23.9999 11.8088 24.7354 13.9535L29.1688 12.2605C27.9992 8.98202 25.5446 6.16802 22.1161 4.6344Z" fill="#87796F"/>
<path d="M29.3454 12.1976C28.1039 8.71814 25.5636 5.97127 22.1925 4.46327C22.147 4.44289 22.0956 4.44152 22.0491 4.45927C22.0026 4.47702 21.9651 4.51252 21.9449 4.55789L20.0085 8.88664C19.9883 8.93202 19.9868 8.98364 20.0045 9.03002C20.0223 9.07652 20.0578 9.11402 20.1031 9.13427C22.1911 10.0683 23.8149 11.847 24.5581 14.0144C24.5746 14.0625 24.61 14.1019 24.656 14.1234C24.6811 14.1351 24.7083 14.1411 24.7355 14.1411C24.7581 14.1411 24.7808 14.137 24.8024 14.1288L29.2358 12.4358C29.3308 12.3994 29.3795 12.2936 29.3454 12.1976ZM24.8476 13.71C24.0654 11.5864 22.4685 9.83827 20.4264 8.87052L22.2101 4.88327C25.3465 6.33902 27.723 8.90927 28.9294 12.1513L24.8476 13.71Z" fill="#3A312A"/>
<path d="M29.169 12.2605L24.7356 13.9535C25.4076 15.9132 25.369 18.1217 24.4563 20.1621C24.3995 20.2891 24.3396 20.4137 24.2773 20.5366L28.6092 22.4744C28.6693 22.3502 28.7285 22.2252 28.7851 22.0985C30.2325 18.8627 30.273 15.3549 29.169 12.2605Z" fill="#89C4DB"/>
<path d="M29.3456 12.1976C29.3286 12.1501 29.2932 12.1114 29.2475 12.0904C29.2016 12.0694 29.1495 12.0675 29.1021 12.0855L24.6687 13.7785C24.5743 13.8146 24.5255 13.919 24.5582 14.0145C25.2418 16.0076 25.1448 18.1637 24.2851 20.0856C24.232 20.2045 24.1747 20.3242 24.1101 20.4519C24.087 20.4976 24.0835 20.5509 24.1006 20.5992C24.1178 20.6476 24.154 20.6869 24.2008 20.7077L28.5327 22.6454C28.5575 22.6565 28.5835 22.6617 28.6091 22.6617C28.6788 22.6617 28.7456 22.6226 28.778 22.556C28.839 22.4301 28.8988 22.3035 28.9563 22.1749C30.373 19.0079 30.5112 15.4644 29.3456 12.1976ZM28.614 22.0219C28.583 22.0912 28.5512 22.1601 28.519 22.2285L24.5317 20.445C24.5652 20.3751 24.597 20.3069 24.6275 20.2386C25.5015 18.285 25.6213 16.0997 24.97 14.0647L29.0555 12.5046C30.1198 15.6296 29.965 19.0017 28.614 22.0219Z" fill="#3A312A"/>
<path d="M24.2782 20.5366C23.2469 22.5729 21.4897 24.0242 19.4668 24.7179L21.1598 29.1512C24.317 28.0247 27.043 25.7061 28.61 22.4742L24.2782 20.5366Z" fill="#87796F"/>
<path d="M28.7863 22.4101C28.7689 22.3625 28.7331 22.3239 28.6867 22.3033L24.3548 20.3656C24.2634 20.3248 24.1561 20.3628 24.1111 20.452C23.1328 22.3836 21.4619 23.8356 19.4061 24.5406C19.3579 24.5571 19.3186 24.5925 19.2971 24.6385C19.2754 24.6845 19.2734 24.7374 19.2917 24.7849L20.9847 29.2183C21.0132 29.2929 21.0843 29.3389 21.1598 29.3389C21.1807 29.3389 21.2021 29.3354 21.2228 29.3279C24.5544 28.1391 27.2379 25.7341 28.7788 22.5561C28.8009 22.5104 28.8037 22.4578 28.7863 22.4101ZM21.2691 28.9119L19.7104 24.8303C21.7193 24.0919 23.3607 22.6631 24.3631 20.7799L28.3557 22.5659C26.8728 25.5145 24.3673 27.7583 21.2691 28.9119Z" fill="#3A312A"/>
<path d="M8.82201 13.6227L4.49013 11.685C3.12526 15.0072 3.21388 18.5849 4.47851 21.6894L8.91188 19.9964C8.08076 18.0261 7.99138 15.7487 8.82201 13.6227Z" fill="#89C4DB"/>
<path d="M9.08426 19.9236C8.23964 17.9213 8.20839 15.7078 8.99626 13.691C9.03276 13.5978 8.98951 13.4925 8.89814 13.4516L4.56626 11.5139C4.51988 11.493 4.46713 11.4921 4.42013 11.5109C4.37301 11.5298 4.33551 11.5669 4.31626 11.6138C2.97413 14.8808 2.97001 18.4841 4.30451 21.7601C4.33413 21.8328 4.40413 21.877 4.47826 21.877C4.50051 21.877 4.52313 21.873 4.54513 21.8646L8.97851 20.1718C9.02601 20.1536 9.06414 20.117 9.08401 20.0701C9.10401 20.0234 9.10414 19.9705 9.08426 19.9236ZM4.58376 21.4484C3.37876 18.37 3.38126 15.0066 4.59101 11.9356L8.58364 13.7216C7.84789 15.7243 7.87676 17.9001 8.66539 19.8898L4.58376 21.4484Z" fill="#3A312A"/>
<path d="M19.4671 24.7178C17.5074 25.3898 15.2989 25.3512 13.2586 24.4386L11.3223 28.7673C14.558 30.2147 18.0659 30.2552 21.1601 29.1512L19.4671 24.7178Z" fill="#F16C7A"/>
<path d="M21.3334 29.0844L19.6404 24.651C19.6044 24.5566 19.5003 24.5076 19.4044 24.5405C17.4111 25.224 15.2549 25.127 13.3332 24.2675C13.2388 24.2252 13.1278 24.2675 13.0856 24.3621L11.1492 28.6909C11.1288 28.7362 11.1274 28.7879 11.1452 28.8342C11.1629 28.8807 11.1984 28.9182 11.2438 28.9385C12.9891 29.7192 14.8483 30.1116 16.7131 30.1116C18.2319 30.1116 19.7547 29.8511 21.2212 29.3277C21.2687 29.3109 21.3074 29.2755 21.3284 29.2296C21.3497 29.184 21.3513 29.1315 21.3334 29.0844ZM11.5686 28.6716L13.3521 24.6846C15.2616 25.4901 17.3784 25.5846 19.3541 24.9524L20.9143 29.038C17.8482 30.082 14.5443 29.9525 11.5686 28.6716Z" fill="#3A312A"/>
<path d="M8.91189 19.9965L4.47852 21.6895C5.71789 24.732 8.08627 27.3201 11.322 28.7675L13.2584 24.4387C11.2179 23.526 9.71702 21.9052 8.91189 19.9965Z" fill="#87796F"/>
<path d="M13.3349 24.2675C11.4132 23.4079 9.90381 21.8651 9.08468 19.9236C9.04556 19.8306 8.93956 19.7854 8.84506 19.8214L4.41168 21.5143C4.36456 21.5323 4.32668 21.5685 4.30656 21.6148C4.28643 21.661 4.28581 21.7135 4.30493 21.7601C5.61356 24.9725 8.07843 27.5219 11.2456 28.9386C11.2698 28.9495 11.2959 28.955 11.3221 28.955C11.3447 28.955 11.3674 28.9509 11.3889 28.9426C11.4354 28.9249 11.4729 28.8894 11.4932 28.844L13.4296 24.5152C13.4719 24.4207 13.4296 24.3099 13.3349 24.2675ZM11.2281 28.5185C8.28968 27.1539 5.99106 24.7773 4.72581 21.7956L8.81143 20.2356C9.65693 22.1296 11.1384 23.645 13.0116 24.5315L11.2281 28.5185Z" fill="#3A312A"/>
<path d="M23.1168 11.1411L21.6797 12.4496C22.2406 13.1059 22.6626 13.8615 22.9286 14.672L24.7452 13.9784C24.3934 12.9434 23.8427 11.9766 23.1168 11.1411Z" fill="#F8E4C8"/>
<path d="M24.9226 13.9182C24.5584 12.8458 23.9983 11.8702 23.2584 11.0182C23.2251 10.98 23.1781 10.9569 23.1278 10.9539C23.0775 10.9508 23.0278 10.9684 22.9905 11.0025L21.5535 12.311C21.4785 12.3792 21.4714 12.4945 21.5371 12.5714C22.0808 13.2073 22.4888 13.9337 22.7504 14.7304C22.7664 14.7792 22.8015 14.8192 22.8479 14.8413C22.8733 14.8534 22.9009 14.8595 22.9284 14.8595C22.951 14.8595 22.9736 14.8554 22.9953 14.8472L24.8119 14.1535C24.9063 14.1177 24.9551 14.0137 24.9226 13.9182ZM23.0428 14.4278C22.7856 13.714 22.415 13.0562 21.9385 12.4677L23.0994 11.4105C23.7079 12.1443 24.1808 12.9694 24.5078 13.8684L23.0428 14.4278Z" fill="#3A312A"/>
<path d="M13.4372 8.88727C12.4402 9.30677 11.522 9.91477 10.7402 10.692L12.051 12.1301C12.6496 11.5174 13.3591 11.0364 14.131 10.7039L13.4372 8.88727Z" fill="#F8E4C8"/>
<path d="M14.3061 10.637L13.6124 8.82038C13.5943 8.77288 13.5576 8.73475 13.5109 8.71488C13.4643 8.69488 13.4114 8.69475 13.3645 8.71438C12.3279 9.15063 11.4004 9.77125 10.608 10.559C10.5369 10.6298 10.534 10.7441 10.6016 10.8183L11.9124 12.2563C11.9471 12.2944 11.996 12.3165 12.0478 12.3175H12.051C12.1014 12.3175 12.1499 12.2971 12.1851 12.261C12.7614 11.6711 13.441 11.2051 14.2053 10.8759C14.2974 10.8363 14.3419 10.7309 14.3061 10.637ZM12.0576 11.8591L11.0009 10.6999C11.6836 10.0496 12.4664 9.525 13.3319 9.13725L13.8924 10.6049C13.2103 10.9204 12.5944 11.3413 12.0576 11.8591Z" fill="#3A312A"/>
<path d="M20.2083 8.97577L19.4141 10.7513C20.3139 11.1579 21.0767 11.7456 21.6806 12.4498L23.1177 11.1413C22.3398 10.2441 21.3609 9.49689 20.2083 8.97577Z" fill="#D5DE58"/>
<path d="M23.2575 11.0184C22.4352 10.07 21.4347 9.32527 20.2837 8.80489C20.2382 8.78427 20.1865 8.78276 20.1399 8.80039C20.0933 8.81814 20.0557 8.85364 20.0353 8.89914L19.241 10.6746C19.1988 10.7689 19.2409 10.8795 19.3349 10.922C20.1873 11.3073 20.9279 11.8623 21.5364 12.5718C21.5694 12.6103 21.6167 12.6338 21.6672 12.6369C21.671 12.6371 21.675 12.6373 21.6788 12.6373C21.7253 12.6373 21.7704 12.6199 21.805 12.5884L23.242 11.2799C23.3174 11.2113 23.3243 11.0953 23.2575 11.0184ZM21.6934 12.1829C21.1158 11.5464 20.4327 11.0349 19.6587 10.6595L20.3 9.22601C21.2744 9.69264 22.1318 10.331 22.8529 11.127L21.6934 12.1829Z" fill="#3A312A"/>
<path d="M13.4375 8.88724L14.1313 10.7039C14.9981 10.3302 15.9413 10.1441 16.8993 10.1701L16.9903 8.22799C15.7625 8.18962 14.5515 8.42024 13.4375 8.88724Z" fill="#D5DE58"/>
<path d="M17.1279 8.10062C17.0938 8.06374 17.0463 8.04212 16.996 8.04049C15.7454 8.00149 14.5247 8.22812 13.365 8.71437C13.2717 8.75349 13.2263 8.85962 13.2624 8.95424L13.9562 10.7709C13.9744 10.8186 14.0113 10.8569 14.0584 10.8767C14.0817 10.8866 14.1065 10.8915 14.1313 10.8915C14.1565 10.8915 14.1818 10.8864 14.2055 10.8761C15.0622 10.5069 15.9678 10.3325 16.8942 10.3576C17.0008 10.3596 17.0818 10.281 17.0865 10.179L17.1775 8.23687C17.1799 8.18662 17.162 8.13749 17.1279 8.10062ZM16.7205 9.98011H16.719C15.8663 9.98011 15.0333 10.1401 14.2377 10.4567L13.6782 8.99162C14.6784 8.59699 15.726 8.40424 16.7939 8.41137L16.7205 9.98011Z" fill="#3A312A"/>
<path d="M20.1797 8.96353C19.1413 8.49903 18.0602 8.2619 16.9894 8.22803L16.8984 10.1702C17.7331 10.193 18.5769 10.376 19.3859 10.7379C19.3951 10.742 19.4037 10.7472 19.4128 10.7513L20.2071 8.97578L20.1797 8.96353Z" fill="#F8E4C8"/>
<path d="M20.2837 8.8046L20.256 8.79222C19.2206 8.3291 18.1235 8.0761 16.9953 8.04047C16.8929 8.03272 16.8066 8.11672 16.802 8.2191L16.7111 10.1612C16.7088 10.2115 16.7268 10.2607 16.7609 10.2976C16.7951 10.3345 16.8429 10.3561 16.8933 10.3575C17.7295 10.3803 18.5424 10.5658 19.3124 10.9105C19.3203 10.9146 19.3283 10.9187 19.3363 10.9223C19.3611 10.9333 19.387 10.9386 19.4125 10.9386C19.4841 10.9386 19.5526 10.8972 19.5838 10.8276L20.378 9.0521C20.4203 8.95785 20.378 8.84697 20.2837 8.8046ZM19.3179 10.504C18.6074 10.2055 17.861 10.0331 17.0946 9.9906L17.168 8.42322C18.1303 8.47497 19.0675 8.69272 19.9586 9.0716L19.3179 10.504Z" fill="#3A312A"/>
<path d="M22.4967 19.7479C22.073 20.5511 21.502 21.2337 20.832 21.7762L22.1434 23.216C23.0067 22.4985 23.7384 21.6001 24.2754 20.5436L22.4967 19.7479Z" fill="#D5DE58"/>
<path d="M24.4505 20.4811C24.4334 20.4327 24.3971 20.3934 24.3502 20.3725L22.5712 19.5767C22.4811 19.5362 22.375 19.573 22.3289 19.6604C21.9251 20.426 21.3811 21.0887 20.7121 21.6305C20.6721 21.663 20.647 21.7105 20.6431 21.762C20.6392 21.8135 20.6567 21.8642 20.6915 21.9025L22.0029 23.3422C22.0399 23.3827 22.0905 23.4035 22.1416 23.4035C22.1839 23.4035 22.2265 23.3892 22.2614 23.3601C23.1702 22.6046 23.9035 21.6856 24.4407 20.6285C24.4642 20.5827 24.4676 20.5295 24.4505 20.4811ZM22.1582 22.9557L21.1007 21.7946C21.6957 21.2834 22.1911 20.6775 22.5766 19.9899L24.0152 20.6334C23.539 21.5187 22.9155 22.2986 22.1582 22.9557Z" fill="#3A312A"/>
<path d="M24.7444 13.9785L22.9277 14.6721C23.2126 15.5445 23.3144 16.4774 23.2119 17.4106L25.1567 17.5015C25.2706 16.298 25.1239 15.0985 24.7444 13.9785Z" fill="#D5DE58"/>
<path d="M24.922 13.9182C24.9056 13.87 24.8704 13.8305 24.8243 13.8087C24.7781 13.7871 24.7253 13.785 24.6775 13.8032L22.8609 14.4969C22.7675 14.5325 22.7185 14.6352 22.7495 14.7302C23.0316 15.5939 23.1244 16.4887 23.0255 17.39C23.0199 17.4415 23.0358 17.493 23.0694 17.5322C23.103 17.5716 23.1514 17.5952 23.203 17.5977L25.148 17.6886C25.151 17.6887 25.154 17.6887 25.1569 17.6887C25.2531 17.6887 25.3343 17.6156 25.3434 17.5189C25.4591 16.2965 25.3173 15.085 24.922 13.9182ZM24.9851 17.3056L23.4171 17.2325C23.4836 16.4042 23.3971 15.5824 23.1593 14.7845L24.6273 14.224C24.9414 15.2261 25.0616 16.2609 24.9851 17.3056Z" fill="#3A312A"/>
<path d="M23.213 17.4106C23.1412 18.07 22.9682 18.7294 22.6823 19.3684C22.6241 19.4985 22.5612 19.6238 22.4961 19.7479L24.275 20.5436C24.3378 20.4184 24.399 20.291 24.4566 20.162C24.8445 19.2948 25.0722 18.397 25.1578 17.5015L23.213 17.4106Z" fill="#F8E4C8"/>
<path d="M25.2996 17.3785C25.2659 17.3397 25.2181 17.3165 25.1667 17.314L23.2217 17.2231C23.1197 17.2186 23.0372 17.2917 23.0266 17.3901C22.9551 18.047 22.7817 18.6867 22.5112 19.2915C22.4619 19.4017 22.4043 19.519 22.3301 19.6606C22.3061 19.7065 22.3019 19.7601 22.3189 19.8091C22.3358 19.858 22.3723 19.8977 22.4196 19.9188L24.1986 20.7146C24.2233 20.7257 24.2493 20.731 24.2749 20.731C24.3438 20.731 24.4098 20.6928 24.4427 20.6275C24.5099 20.4933 24.5723 20.3625 24.6278 20.2385C24.6278 20.2385 24.6278 20.2385 24.6278 20.2383C25.0132 19.3767 25.2544 18.4618 25.3446 17.5191C25.3494 17.4682 25.3332 17.4173 25.2996 17.3785ZM24.2854 20.0853C24.2546 20.1543 24.2214 20.2257 24.1864 20.2986L22.7528 19.6573C22.7902 19.5821 22.8232 19.5123 22.8534 19.4448C23.1159 18.8582 23.2921 18.2403 23.3779 17.6061L24.9501 17.6795C24.8508 18.5123 24.6276 19.3207 24.2854 20.0853Z" fill="#3A312A"/>
<path d="M10.7385 19.3275L8.92188 20.0213C9.31712 20.9499 9.87787 21.8086 10.5851 22.5509L12.0239 21.2418C11.481 20.6798 11.0474 20.0299 10.7385 19.3275Z" fill="#F8E4C8"/>
<path d="M12.1588 21.1115C11.634 20.5682 11.2139 19.9426 10.9101 19.252C10.8699 19.1606 10.765 19.1166 10.6716 19.1524L8.855 19.8461C8.80738 19.8644 8.76925 19.901 8.74938 19.948C8.72937 19.9949 8.72937 20.0479 8.74938 20.0947C9.1585 21.0559 9.7305 21.9259 10.4495 22.6804C10.4863 22.719 10.5358 22.7385 10.5853 22.7385C10.6303 22.7385 10.6755 22.7224 10.7114 22.6896L12.1501 21.3805C12.1876 21.3464 12.2098 21.2985 12.2113 21.2479C12.2129 21.1971 12.1939 21.1479 12.1588 21.1115ZM10.596 22.2875C10.0103 21.6451 9.5325 20.9195 9.17275 20.1261L10.6409 19.5655C10.928 20.1746 11.3026 20.7336 11.7569 21.2312L10.596 22.2875Z" fill="#3A312A"/>
<path d="M14.0514 22.664C13.2664 22.3129 12.5851 21.8246 12.0227 21.2418L10.584 22.5509C11.323 23.3265 12.2204 23.9744 13.2576 24.4384L13.285 24.4506L14.0792 22.6751C14.0701 22.671 14.0605 22.6681 14.0514 22.664Z" fill="#D5DE58"/>
<path d="M14.156 22.5041C14.1477 22.5003 14.1392 22.4971 14.1277 22.4928C13.3834 22.1597 12.7205 21.6951 12.1576 21.1115C12.0872 21.0386 11.9716 21.0347 11.8965 21.103L10.4577 22.4121C10.4205 22.446 10.3984 22.4936 10.3966 22.5441C10.3947 22.5945 10.4134 22.6435 10.4482 22.6801C11.227 23.4976 12.1465 24.1466 13.181 24.6093L13.2084 24.6216C13.2327 24.6325 13.2587 24.638 13.285 24.638C13.3076 24.638 13.3302 24.6338 13.3519 24.6256C13.3984 24.6078 13.4359 24.5723 13.4562 24.527L14.2505 22.7515C14.2925 22.6572 14.2502 22.5465 14.156 22.5041ZM13.1909 24.2015C12.3174 23.7911 11.5325 23.2395 10.8536 22.5588L12.0159 21.5012C12.5466 22.0225 13.1561 22.4481 13.8315 22.7691L13.1909 24.2015Z" fill="#3A312A"/>
<path d="M18.7856 22.8965C17.9885 23.163 17.1396 23.2762 16.2855 23.2201L16.1934 25.1617C17.3177 25.232 18.435 25.0731 19.4792 24.7131L18.7856 22.8965Z" fill="#D5DE58"/>
<path d="M19.6564 24.6462L18.9627 22.8296C18.9268 22.7359 18.8232 22.6865 18.728 22.7187C17.942 22.9816 17.1252 23.0874 16.2998 23.0331C16.2499 23.0296 16.2002 23.0467 16.1625 23.0802C16.125 23.1139 16.1025 23.161 16.1002 23.2112L16.008 25.1529C16.0032 25.2552 16.0814 25.3425 16.1837 25.3489C16.3638 25.3601 16.5437 25.3657 16.723 25.3657C17.6793 25.3657 18.6254 25.2065 19.5424 24.8904C19.5904 24.8739 19.6297 24.8385 19.6512 24.7925C19.6727 24.7465 19.6745 24.6937 19.6564 24.6462ZM16.3915 24.9841L16.4659 23.4171C17.2154 23.4447 17.957 23.3486 18.6758 23.1291L19.2362 24.597C18.3103 24.8927 17.3545 25.0227 16.3915 24.9841Z" fill="#3A312A"/>
<path d="M14.0794 22.6751L13.2852 24.4506C14.2327 24.8704 15.2162 25.1021 16.1945 25.1619L16.2867 23.2202C15.5444 23.1716 14.7987 22.9927 14.0794 22.6751Z" fill="#F8E4C8"/>
<path d="M16.2989 23.0331C15.5628 22.9849 14.8415 22.8067 14.155 22.5036C14.0604 22.462 13.9503 22.5044 13.9081 22.5986L13.114 24.3741C13.0936 24.4196 13.0923 24.4714 13.1101 24.5179C13.128 24.5644 13.1636 24.6019 13.2093 24.6221C14.1569 25.0419 15.1574 25.2865 16.1831 25.349C16.187 25.3492 16.1909 25.3494 16.1946 25.3494C16.2408 25.3494 16.2854 25.3324 16.3199 25.3015C16.3573 25.268 16.3795 25.2209 16.3819 25.1709L16.474 23.2292C16.4788 23.1269 16.4009 23.0397 16.2989 23.0331ZM16.0163 24.9609C15.1634 24.8891 14.33 24.6851 13.5339 24.3535L14.1753 22.9197C14.7928 23.1727 15.4354 23.3314 16.0908 23.3926L16.0163 24.9609Z" fill="#3A312A"/>
<path d="M10.7404 10.692C10.0225 11.4061 9.42023 12.2596 8.98173 13.2398C8.92411 13.3686 8.86973 13.4991 8.81836 13.6295L10.5972 14.4253C10.6464 14.2939 10.6979 14.1635 10.7561 14.0334C11.0812 13.3065 11.5244 12.668 12.0512 12.13L10.7404 10.692Z" fill="#D5DE58"/>
<path d="M12.1896 12.0039L10.8788 10.5657C10.8445 10.5279 10.796 10.5059 10.7448 10.5046C10.6937 10.5016 10.6443 10.523 10.6081 10.5591C9.8517 11.3115 9.24695 12.1876 8.81058 13.1632C8.75483 13.2877 8.70033 13.4179 8.64395 13.5607C8.6072 13.6541 8.65033 13.7597 8.74183 13.8007L10.5207 14.5965C10.545 14.6074 10.5711 14.6129 10.5972 14.6129C10.6218 14.6129 10.6463 14.608 10.6696 14.5984C10.7173 14.5784 10.7547 14.5396 10.7728 14.4911C10.8291 14.341 10.8781 14.2199 10.9272 14.1101C11.2355 13.421 11.6587 12.799 12.1851 12.2614C12.2546 12.1902 12.2566 12.0772 12.1896 12.0039ZM10.5848 13.957C10.5547 14.0244 10.5247 14.0952 10.4935 14.1735L9.05983 13.5322C9.09083 13.4575 9.1217 13.386 9.15283 13.3164C9.54358 12.4427 10.0755 11.6525 10.7352 10.9649L11.7947 12.1272C11.2936 12.6666 10.887 13.2812 10.5848 13.957Z" fill="#3A312A"/>
<path d="M20.8315 21.7761C20.22 22.2707 19.5262 22.6492 18.7871 22.8965L19.4809 24.7131C20.4462 24.3795 21.3495 23.8756 22.143 23.2159L20.8315 21.7761Z" fill="#F8E4C8"/>
<path d="M22.2817 23.0896L20.9703 21.6499C20.9032 21.5765 20.7911 21.5677 20.7137 21.6304C20.1207 22.11 19.4524 22.4762 18.7277 22.7187C18.6792 22.7349 18.6394 22.7702 18.6176 22.8164C18.5957 22.8625 18.5938 22.9156 18.6119 22.9634L19.3057 24.78C19.3341 24.8545 19.4052 24.9006 19.4808 24.9006C19.5011 24.9006 19.5218 24.8972 19.5421 24.8902C20.5414 24.5449 21.4568 24.03 22.2628 23.36C22.3021 23.3272 22.3264 23.2799 22.3299 23.2289C22.3336 23.1779 22.3161 23.1276 22.2817 23.0896ZM19.5907 24.4747L19.0311 23.0096C19.6722 22.7746 20.2693 22.4464 20.8104 22.0314L21.8706 23.1954C21.1844 23.7392 20.4189 24.1687 19.5907 24.4747Z" fill="#3A312A"/>
<path d="M10.1872 16.7986L8.24219 16.7078C8.24456 17.8536 8.47881 18.9799 8.92094 20.0213L10.7376 19.3275C10.3901 18.5339 10.2008 17.6743 10.1872 16.7986Z" fill="#D5DE58"/>
<path d="M10.9092 19.2522C10.5677 18.4724 10.3878 17.6459 10.3746 16.7956C10.3729 16.6966 10.2947 16.6159 10.1958 16.6112L8.25081 16.5204C8.20006 16.5184 8.14956 16.5366 8.11256 16.5722C8.07544 16.6077 8.05456 16.6569 8.05469 16.7081C8.05706 17.8769 8.29044 19.0161 8.74831 20.0945C8.77856 20.1656 8.84781 20.2087 8.92094 20.2087C8.94319 20.2087 8.96581 20.2047 8.98781 20.1964L10.8044 19.5026C10.8523 19.4843 10.8907 19.4472 10.9106 19.3999C10.9302 19.3526 10.9297 19.2992 10.9092 19.2522ZM9.02456 19.7808C8.65619 18.8595 8.45731 17.8937 8.43231 16.9042L10.0047 16.9777C10.0366 17.7507 10.1993 18.5037 10.4894 19.2214L9.02456 19.7808Z" fill="#3A312A"/>
<path d="M8.81806 13.6296C8.42569 14.6386 8.24169 15.6805 8.24219 16.7078L10.1872 16.7986C10.1751 16.0085 10.3072 15.2049 10.5969 14.4254L8.81806 13.6296Z" fill="#F8E4C8"/>
<path d="M10.6734 14.2541L8.89456 13.4584C8.84769 13.4374 8.79431 13.4366 8.74681 13.456C8.69931 13.4755 8.66194 13.5136 8.64331 13.5615C8.25219 14.5671 8.05419 15.6256 8.05469 16.7077C8.05469 16.8079 8.13344 16.8902 8.23344 16.895L10.1784 16.9859C10.1813 16.986 10.1842 16.986 10.1872 16.986C10.2358 16.986 10.2827 16.9671 10.3177 16.9331C10.3548 16.8971 10.3754 16.8472 10.3747 16.7956C10.3626 16.0091 10.4964 15.2336 10.7727 14.4906C10.8071 14.398 10.7637 14.2945 10.6734 14.2541ZM9.99944 16.6021L8.43144 16.5289C8.45019 15.6215 8.61544 14.733 8.92344 13.8821L10.3619 14.5256C10.1311 15.1986 10.0096 15.8955 9.99944 16.6021Z" fill="#3A312A"/>
<path d="M5.92305 3.28687C5.8013 4.73237 4.29492 4.96049 4.29492 4.96049C5.5883 5.02137 5.91055 6.71787 5.91055 6.71787C5.93817 5.50824 7.57567 4.94262 7.57567 4.94262C6.34905 4.86924 5.92305 3.28687 5.92305 3.28687Z" fill="#D5DE58"/>
<path d="M7.58693 4.75548C6.5113 4.6911 6.10793 3.25248 6.10393 3.23785C6.08005 3.14998 5.99605 3.09173 5.90605 3.1001C5.81543 3.10835 5.7438 3.18035 5.73618 3.27098C5.62868 4.54785 4.32193 4.76648 4.2668 4.7751C4.17143 4.78948 4.10268 4.87385 4.10768 4.97023C4.11268 5.06648 4.1898 5.14323 4.28618 5.14785C5.41468 5.20098 5.72355 6.7376 5.72655 6.7531C5.74368 6.84198 5.82143 6.90523 5.91055 6.90523C5.9158 6.90523 5.92105 6.9051 5.9263 6.9046C6.0218 6.8966 6.09593 6.81798 6.09818 6.7221C6.12255 5.65848 7.62218 5.12498 7.6373 5.11973C7.72168 5.09035 7.7738 5.00548 7.76155 4.91685C7.74905 4.82848 7.67618 4.76085 7.58693 4.75548ZM5.89105 6.04873C5.72143 5.65748 5.42755 5.18535 4.94268 4.93923C5.30905 4.7636 5.7438 4.4501 5.96793 3.9051C6.1618 4.28898 6.4928 4.7651 7.00968 4.99548C6.6338 5.20023 6.14443 5.54598 5.89105 6.04873Z" fill="#3A312A"/>
<path d="M3.21009 5.40936C3.12397 6.43174 2.05859 6.59324 2.05859 6.59324C2.97334 6.63624 3.20134 7.83624 3.20134 7.83624C3.22084 6.98061 4.37909 6.58061 4.37909 6.58061C3.51147 6.52874 3.21009 5.40936 3.21009 5.40936Z" fill="#D5DE58"/>
<path d="M4.39024 6.39339C3.66949 6.35026 3.39374 5.37026 3.39099 5.36039C3.36724 5.27264 3.28424 5.21439 3.19324 5.22264C3.10249 5.23076 3.03086 5.30289 3.02324 5.39364C2.95086 6.25251 2.06749 6.40201 2.03049 6.40789C1.93511 6.42226 1.86624 6.50664 1.87136 6.60289C1.87636 6.69914 1.95349 6.77589 2.04986 6.78051C2.80424 6.81601 3.01524 7.86101 3.01724 7.87126C3.03411 7.96026 3.11211 8.02376 3.20136 8.02376C3.20649 8.02376 3.21174 8.02364 3.21699 8.02314C3.31261 8.01526 3.38674 7.93639 3.38899 7.84051C3.40524 7.12689 4.43049 6.76126 4.44061 6.75776C4.52524 6.72851 4.57736 6.64364 4.56511 6.55501C4.55261 6.46639 4.47961 6.39876 4.39024 6.39339ZM3.19211 7.24276C3.07661 7.00701 2.89961 6.74939 2.63624 6.58276C2.86811 6.45264 3.09836 6.25401 3.24511 5.96814C3.37724 6.20239 3.57686 6.46251 3.86274 6.62114C3.63161 6.75876 3.36411 6.96376 3.19211 7.24276Z" fill="#3A312A"/>
<path d="M3.21009 2.07727C3.12397 3.09965 2.05859 3.26115 2.05859 3.26115C2.97334 3.30415 3.20134 4.50414 3.20134 4.50414C3.22084 3.64852 4.37909 3.24852 4.37909 3.24852C3.51147 3.19652 3.21009 2.07727 3.21009 2.07727Z" fill="#D5DE58"/>
<path d="M4.39024 3.06124C3.66936 3.01811 3.39361 2.03811 3.39099 2.02811C3.36724 1.94036 3.28424 1.88211 3.19324 1.89036C3.10249 1.89849 3.03086 1.97061 3.02324 2.06136C2.95086 2.92024 2.06749 3.06974 2.03049 3.07561C1.93511 3.08999 1.86624 3.17436 1.87136 3.27061C1.87636 3.36686 1.95349 3.44361 2.04986 3.44824C2.80424 3.48374 3.01524 4.52874 3.01724 4.53899C3.03411 4.62811 3.11211 4.69149 3.20124 4.69149C3.20649 4.69149 3.21161 4.69136 3.21686 4.69086C3.31249 4.68299 3.38661 4.60411 3.38886 4.50824C3.40511 3.79449 4.43036 3.42899 4.44049 3.42549C4.52499 3.39624 4.57724 3.31136 4.56499 3.22274C4.55261 3.13424 4.47961 3.06661 4.39024 3.06124ZM3.19211 3.91061C3.07661 3.67486 2.89961 3.41724 2.63624 3.25061C2.86811 3.12049 3.09836 2.92186 3.24511 2.63611C3.37724 2.87036 3.57699 3.13036 3.86274 3.28911C3.63161 3.42661 3.36411 3.63149 3.19211 3.91061Z" fill="#3A312A"/>
<path d="M19.4588 13.9609C19.3855 13.8876 19.2669 13.8876 19.1936 13.9609L13.9788 19.1758C13.9055 19.2489 13.9055 19.3678 13.9788 19.4409C14.0154 19.4775 14.0634 19.4958 14.1114 19.4958C14.1594 19.4958 14.2074 19.4775 14.244 19.4409L19.4589 14.226C19.532 14.1529 19.532 14.034 19.4588 13.9609Z" fill="#3A312A"/>
<path d="M20.7403 12.6792C20.3498 12.2887 19.7166 12.2887 19.3261 12.6792C18.9356 13.0697 18.9356 13.7029 19.3261 14.0935C19.7166 14.484 20.3498 14.484 20.7403 14.0935C21.1308 13.7029 21.1308 13.0697 20.7403 12.6792Z" fill="#87796F"/>
<path d="M20.8723 12.5467C20.4093 12.0835 19.6558 12.0838 19.193 12.5467C18.73 13.0097 18.73 13.763 19.193 14.226C19.4245 14.4575 19.7285 14.5733 20.0326 14.5733C20.3368 14.5733 20.6408 14.4575 20.8723 14.226C21.0967 14.0018 21.2202 13.7035 21.2202 13.3864C21.2202 13.0693 21.0967 12.7709 20.8723 12.5467ZM20.6072 13.9609C20.2903 14.2775 19.7751 14.2778 19.4582 13.9609C19.1415 13.6442 19.1415 13.1287 19.4582 12.8118C19.6167 12.6534 19.8247 12.5743 20.0327 12.5743C20.2408 12.5743 20.4488 12.6534 20.6073 12.8118C20.7607 12.9653 20.8453 13.1693 20.8453 13.3864C20.8453 13.6035 20.7607 13.8074 20.6072 13.9609Z" fill="#3A312A"/>
<path d="M14.1114 19.3084C13.7209 18.9179 13.0877 18.9179 12.6972 19.3084C12.3067 19.6989 12.3067 20.332 12.6972 20.7226C13.0877 21.1131 13.7209 21.1131 14.1114 20.7226C14.5019 20.332 14.5019 19.6989 14.1114 19.3084Z" fill="#87796F"/>
<path d="M14.244 19.1758C13.781 18.7126 13.0277 18.7126 12.5647 19.1758C12.3404 19.4 12.2168 19.6983 12.2168 20.0154C12.2168 20.3325 12.3403 20.6308 12.5647 20.8551C12.7962 21.0867 13.1003 21.2024 13.4043 21.2024C13.7083 21.2024 14.0124 21.0867 14.2439 20.8551C14.707 20.3921 14.707 19.6388 14.244 19.1758ZM13.9789 20.59C13.6622 20.9068 13.1467 20.9068 12.8299 20.59C12.6764 20.4365 12.5919 20.2325 12.5919 20.0154C12.5919 19.7983 12.6764 19.5944 12.8299 19.4409C12.9883 19.2825 13.1964 19.2034 13.4044 19.2034C13.6124 19.2034 13.8205 19.2825 13.9789 19.4409C14.2957 19.7578 14.2957 20.2733 13.9789 20.59Z" fill="#3A312A"/>
<path d="M19.4588 19.1758L14.2439 13.9609C14.1706 13.8876 14.052 13.8876 13.9788 13.9609C13.9055 14.034 13.9055 14.1529 13.9788 14.226L19.1936 19.4409C19.2303 19.4775 19.2783 19.4958 19.3263 19.4958C19.3743 19.4958 19.4221 19.4775 19.4588 19.4409C19.532 19.3678 19.532 19.249 19.4588 19.1758Z" fill="#3A312A"/>
<path d="M13.4043 14.3864C13.9566 14.3864 14.4043 13.9386 14.4043 13.3864C14.4043 12.8341 13.9566 12.3864 13.4043 12.3864C12.852 12.3864 12.4043 12.8341 12.4043 13.3864C12.4043 13.9386 12.852 14.3864 13.4043 14.3864Z" fill="#87796F"/>
<path d="M14.244 12.5467C13.781 12.0837 13.0278 12.0837 12.5647 12.5467C12.3404 12.7709 12.2168 13.0692 12.2168 13.3864C12.2168 13.7037 12.3403 14.0018 12.5647 14.226C12.7962 14.4575 13.1003 14.5733 13.4043 14.5733C13.7083 14.5733 14.0124 14.4575 14.2439 14.226C14.707 13.763 14.707 13.0097 14.244 12.5467ZM13.9789 13.9609C13.6622 14.2777 13.1467 14.2777 12.8299 13.9609C12.6764 13.8074 12.5919 13.6034 12.5919 13.3864C12.5919 13.1694 12.6764 12.9653 12.8299 12.8118C12.9883 12.6534 13.1964 12.5743 13.4044 12.5743C13.6124 12.5743 13.8205 12.6534 13.9789 12.8118C14.2957 13.1287 14.2957 13.6442 13.9789 13.9609Z" fill="#3A312A"/>
<path d="M20.7403 19.3084C20.3498 18.9179 19.7166 18.9179 19.3261 19.3084C18.9356 19.6989 18.9356 20.332 19.3261 20.7226C19.7166 21.1131 20.3498 21.1131 20.7403 20.7226C21.1308 20.332 21.1308 19.6989 20.7403 19.3084Z" fill="#87796F"/>
<path d="M20.8723 19.1757C20.4096 18.7129 19.6561 18.7126 19.193 19.1757C18.73 19.6387 18.73 20.3921 19.193 20.8551C19.4245 21.0867 19.7285 21.2024 20.0327 21.2024C20.3367 21.2024 20.6408 21.0866 20.8723 20.8551C21.0967 20.6309 21.2202 20.3326 21.2202 20.0154C21.2202 19.6981 21.0967 19.4 20.8723 19.1757ZM20.6072 20.59C20.2903 20.9066 19.7751 20.9069 19.4582 20.59C19.1415 20.2731 19.1415 19.7576 19.4582 19.4409C19.6167 19.2825 19.8247 19.2034 20.0327 19.2034C20.2408 19.2034 20.4488 19.2825 20.6073 19.4409C20.7607 19.5944 20.8453 19.7982 20.8453 20.0154C20.8453 20.2325 20.7607 20.4365 20.6072 20.59Z" fill="#3A312A"/>
<path d="M16.7188 18.1384C17.5127 18.1384 18.1563 17.4948 18.1563 16.7009C18.1563 15.907 17.5127 15.2634 16.7188 15.2634C15.9248 15.2634 15.2812 15.907 15.2812 16.7009C15.2812 17.4948 15.9248 18.1384 16.7188 18.1384Z" fill="#87796F"/>
<path d="M16.7188 15.0759C15.8226 15.0759 15.0938 15.8049 15.0938 16.7009C15.0938 17.5969 15.8226 18.3259 16.7188 18.3259C17.6148 18.3259 18.3438 17.5969 18.3438 16.7009C18.3438 15.8049 17.6148 15.0759 16.7188 15.0759ZM16.7188 17.9509C16.0295 17.9509 15.4688 17.3901 15.4688 16.7009C15.4688 16.0116 16.0295 15.4509 16.7188 15.4509C17.408 15.4509 17.9688 16.0116 17.9688 16.7009C17.9688 17.3901 17.408 17.9509 16.7188 17.9509Z" fill="#3A312A"/>
<path d="M23.033 16.0585C23.0318 16.0522 23.0318 16.046 23.0305 16.0397C23.0205 15.941 23.008 15.8422 22.993 15.7447C22.9905 15.731 22.9893 15.7172 22.9868 15.7035C22.9718 15.611 22.9543 15.5185 22.9355 15.4272C22.9318 15.4097 22.928 15.391 22.9243 15.3735C22.9055 15.2835 22.883 15.1922 22.8593 15.1022C22.8543 15.0847 22.8505 15.0672 22.8468 15.0497C22.8193 14.9522 22.7905 14.8547 22.7593 14.7585C22.7243 14.651 22.688 14.5435 22.6468 14.4372C22.6093 14.3385 22.5693 14.241 22.5268 14.1447C22.2768 13.5747 21.9455 13.0485 21.538 12.571C21.3118 12.3072 21.0668 12.0647 20.8043 11.8447C20.7993 11.8397 20.7943 11.836 20.7893 11.831C20.7118 11.7672 20.633 11.7047 20.5518 11.6435C20.5355 11.631 20.518 11.6185 20.5005 11.6047C20.4305 11.5535 20.3593 11.5035 20.2868 11.4547C20.263 11.4385 20.2405 11.4222 20.2168 11.4072C20.1468 11.361 20.0755 11.316 20.003 11.2722C19.9793 11.2585 19.9555 11.2435 19.9318 11.2297C19.8505 11.1822 19.7693 11.1372 19.6868 11.0935C19.6705 11.086 19.6568 11.0772 19.6405 11.0697C19.5405 11.0185 19.4393 10.9685 19.3368 10.9222C19.3368 10.9222 19.3368 10.9222 19.3355 10.9222C19.3293 10.9185 19.323 10.916 19.3168 10.9122C19.3155 10.911 19.3143 10.911 19.313 10.9097C19.2955 10.9022 19.278 10.896 19.2618 10.8885C19.178 10.8522 19.0955 10.8172 19.0118 10.7847C18.968 10.7685 18.9255 10.7535 18.8818 10.7372C18.8243 10.716 18.7655 10.6947 18.708 10.676C18.6543 10.6585 18.6005 10.6422 18.5468 10.626C18.4993 10.6122 18.4518 10.5972 18.4043 10.5835C18.3405 10.566 18.2755 10.5497 18.2118 10.5347C18.1743 10.526 18.138 10.516 18.1018 10.5085C18.0255 10.491 17.9493 10.476 17.873 10.461C17.8493 10.4572 17.8255 10.4522 17.803 10.4485C17.7143 10.4335 17.6243 10.4197 17.5355 10.4085C17.5255 10.4072 17.5155 10.4047 17.5055 10.4035C17.3043 10.3785 17.0993 10.3635 16.8943 10.3572C16.5193 10.3472 16.1468 10.3697 15.7793 10.4247C15.8293 10.4322 15.8793 10.4397 15.928 10.4485C15.9505 10.4522 15.9743 10.4572 15.998 10.461C16.0743 10.476 16.1505 10.491 16.2268 10.5085C16.263 10.516 16.2993 10.526 16.3368 10.5347C16.4005 10.5497 16.4655 10.566 16.5293 10.5835C16.5768 10.5972 16.6243 10.6122 16.6718 10.626C16.7255 10.6422 16.7793 10.6585 16.833 10.676C16.8905 10.6947 16.9493 10.716 17.0068 10.7372C17.0505 10.7535 17.093 10.7685 17.1368 10.7847C17.2205 10.8172 17.303 10.8522 17.3868 10.8885C17.403 10.896 17.4205 10.9022 17.438 10.9097C17.4393 10.911 17.4405 10.911 17.4418 10.9122C17.448 10.916 17.4543 10.9185 17.4605 10.9222H17.4618C17.5643 10.9685 17.6655 11.0185 17.7655 11.0697C17.7818 11.0772 17.7955 11.086 17.8118 11.0935C17.8943 11.1372 17.9755 11.1822 18.0568 11.2297C18.0805 11.2435 18.1043 11.2585 18.128 11.2722C18.2005 11.316 18.2718 11.361 18.3418 11.4072C18.3655 11.4222 18.388 11.4385 18.4118 11.4547C18.4843 11.5035 18.5555 11.5535 18.6255 11.6047C18.643 11.6185 18.6605 11.631 18.6768 11.6435C18.758 11.7047 18.8368 11.7672 18.9143 11.831C18.9193 11.836 18.9243 11.8397 18.9293 11.8447C19.1155 12.001 19.293 12.1685 19.4605 12.3472C19.9105 12.0972 20.4918 12.1647 20.8743 12.5472C21.3368 13.0097 21.3368 13.7635 20.8743 14.226C20.8305 14.2697 20.7843 14.3097 20.7355 14.3447C20.748 14.376 20.7605 14.406 20.7718 14.4372C20.813 14.5435 20.8493 14.651 20.8843 14.7585C20.9155 14.8547 20.9443 14.9522 20.9718 15.0497C20.9755 15.0672 20.9793 15.0847 20.9843 15.1022C21.008 15.1922 21.0305 15.2835 21.0493 15.3735C21.053 15.391 21.0568 15.4097 21.0605 15.4272C21.0793 15.5185 21.0968 15.611 21.1118 15.7035C21.1143 15.7172 21.1155 15.731 21.118 15.7447C21.133 15.8422 21.1455 15.941 21.1555 16.0397C21.1568 16.046 21.1568 16.0522 21.158 16.0585C21.1793 16.2685 21.1905 16.4785 21.1905 16.691C21.1905 16.9235 21.1768 17.156 21.1518 17.3897C21.1105 17.7735 21.033 18.1497 20.923 18.5172C20.9105 18.5585 20.898 18.601 20.8843 18.6435C20.8718 18.6835 20.858 18.7247 20.8443 18.7647C20.823 18.8235 20.8018 18.8822 20.7805 18.9397C20.7693 18.9685 20.7593 18.9972 20.748 19.0247C20.7443 19.0347 20.7393 19.046 20.7355 19.056C20.7843 19.0922 20.8305 19.1322 20.8743 19.176C21.3368 19.6385 21.3368 20.3922 20.8743 20.8547C20.6493 21.0797 20.3518 21.2035 20.0343 21.2035C19.8293 21.2035 19.6343 21.1522 19.4593 21.0547C19.4143 21.1035 19.368 21.1497 19.3218 21.196C19.3205 21.1985 19.318 21.201 19.3155 21.2035C19.2493 21.2685 19.1805 21.3322 19.1118 21.396C19.088 21.4172 19.0643 21.4385 19.0405 21.4585C18.993 21.501 18.9443 21.5422 18.8955 21.5822C18.8668 21.606 18.8393 21.6297 18.8105 21.6522C18.7855 21.6735 18.758 21.6922 18.7318 21.7135C18.6418 21.7835 18.5505 21.851 18.4568 21.9147C18.4493 21.9197 18.443 21.9247 18.4368 21.9297C18.378 21.9685 18.3205 22.0072 18.2618 22.0447C18.2555 22.0485 18.2493 22.0522 18.243 22.056C17.4955 22.5285 16.6555 22.8422 15.7793 22.9747C15.9768 23.006 16.1743 23.026 16.373 23.036C16.3868 23.0372 16.4018 23.0372 16.4155 23.0385C16.5105 23.0422 16.6043 23.0447 16.6993 23.0447H16.7455C17.9443 23.0385 19.1155 22.691 20.118 22.056C20.1243 22.0522 20.1305 22.0485 20.1368 22.0447C20.1955 22.0072 20.253 21.9685 20.3118 21.9297C20.318 21.9247 20.3243 21.9197 20.3318 21.9147C20.4255 21.851 20.5168 21.7835 20.6068 21.7135C20.633 21.6922 20.6605 21.6735 20.6855 21.6522C20.7143 21.6297 20.7418 21.606 20.7705 21.5822C20.8193 21.5422 20.868 21.501 20.9155 21.4585C20.9393 21.4385 20.963 21.4172 20.9868 21.396C21.0555 21.3322 21.1243 21.2685 21.1905 21.2035C21.193 21.201 21.1955 21.1985 21.1968 21.196C21.2643 21.1297 21.3305 21.061 21.3943 20.991C21.408 20.976 21.4205 20.961 21.4343 20.946C21.4968 20.8772 21.5568 20.8085 21.6155 20.736C21.618 20.7335 21.6205 20.7297 21.6243 20.7272C21.893 20.3985 22.1293 20.0422 22.3305 19.661C22.3305 19.6597 22.3305 19.6597 22.3305 19.6597C22.3668 19.5922 22.398 19.531 22.4268 19.4722C22.4555 19.4122 22.4843 19.3522 22.5118 19.2922C22.5505 19.2035 22.588 19.1147 22.623 19.0247C22.6343 18.9972 22.6443 18.9685 22.6555 18.9397C22.6768 18.8822 22.698 18.8235 22.7193 18.7647C22.733 18.7247 22.7468 18.6835 22.7593 18.6435C22.773 18.601 22.7855 18.5585 22.798 18.5172C22.908 18.1497 22.9855 17.7735 23.0268 17.3897C23.0518 17.156 23.0655 16.9235 23.0655 16.691C23.0654 16.4785 23.0542 16.2684 23.033 16.0585Z" fill="#6CA8BF"/>
<path d="M21.3027 24.0241H29.9405V29.9227H21.3027V24.0241Z" fill="#F16C7A"/>
<path d="M29.9405 23.8366H21.3027C21.1992 23.8366 21.1152 23.9205 21.1152 24.0241V29.9227C21.1152 30.0264 21.1992 30.1102 21.3027 30.1102H26.9544C27.0579 30.1102 27.1419 30.0264 27.1419 29.9227C27.1419 29.8191 27.0579 29.7352 26.9544 29.7352H21.4902V24.2116H29.753V29.7352H28.667C28.5635 29.7352 28.4795 29.8191 28.4795 29.9227C28.4795 30.0264 28.5635 30.1102 28.667 30.1102H29.9405C30.044 30.1102 30.128 30.0264 30.128 29.9227V24.0241C30.128 23.9205 30.044 23.8366 29.9405 23.8366Z" fill="#3A312A"/>
<path d="M21.3027 24.9734H29.9405V25.7234H21.3027V24.9734Z" fill="#F8E4C8"/>
<path d="M29.9405 24.786H21.3027C21.1992 24.786 21.1152 24.8699 21.1152 24.9735V25.7235C21.1152 25.8271 21.1992 25.911 21.3027 25.911H29.9405C30.044 25.911 30.128 25.8271 30.128 25.7235V24.9735C30.128 24.8699 30.044 24.786 29.9405 24.786ZM29.753 25.536H21.4902V25.161H29.753V25.536Z" fill="#3A312A"/>
<path d="M21.3027 26.5984H29.9405V27.3484H21.3027V26.5984Z" fill="#F8E4C8"/>
<path d="M29.9405 26.411H21.3027C21.1992 26.411 21.1152 26.4949 21.1152 26.5985V27.3485C21.1152 27.4521 21.1992 27.536 21.3027 27.536H29.9405C30.044 27.536 30.128 27.4521 30.128 27.3485V26.5985C30.128 26.4949 30.044 26.411 29.9405 26.411ZM29.753 27.161H21.4902V26.786H29.753V27.161Z" fill="#3A312A"/>
<path d="M21.3027 28.2234H29.9405V28.9734H21.3027V28.2234Z" fill="#F8E4C8"/>
<path d="M29.9405 28.036H21.3027C21.1992 28.036 21.1152 28.1199 21.1152 28.2235V28.9735C21.1152 29.0771 21.1992 29.161 21.3027 29.161H29.9405C30.044 29.161 30.128 29.0771 30.128 28.9735V28.2235C30.128 28.1199 30.044 28.036 29.9405 28.036ZM29.753 28.786H21.4902V28.411H29.753V28.786Z" fill="#3A312A"/>
<path d="M21.3027 24.0241H24.8646V26.5984H21.3027V24.0241Z" fill="#8AC3DA"/>
<path d="M24.8646 23.8366H21.3027C21.1992 23.8366 21.1152 23.9205 21.1152 24.0241V26.5985C21.1152 26.7021 21.1992 26.786 21.3027 26.786H24.8646C24.9681 26.786 25.0521 26.7021 25.0521 26.5985V24.0241C25.0521 23.9205 24.9681 23.8366 24.8646 23.8366ZM24.6771 26.411H21.4902V24.2116H24.6771V26.411Z" fill="#3A312A"/>
</svg>
