<svg width="32" height="32" viewBox="0 0 32 32" fill="none" xmlns="http://www.w3.org/2000/svg">
<path d="M28.3295 5.32877C28.132 5.32877 27.942 5.29377 27.767 5.22877V18.3588H26.4883V19.6088H28.392C28.737 19.6088 29.017 19.3288 29.017 18.9838V5.17627C28.8083 5.27502 28.5758 5.32877 28.3295 5.32877Z" fill="#EF6D7A"/>
<path d="M29.1173 5.01788C29.063 4.98338 28.9948 4.97938 28.9368 5.00676C28.5968 5.16776 28.186 5.18451 27.8323 5.05301C27.7748 5.03163 27.7103 5.03976 27.6599 5.07488C27.6095 5.10988 27.5795 5.16738 27.5795 5.22888V18.1714H26.4883C26.3847 18.1714 26.3008 18.2553 26.3008 18.3589V19.6089C26.3008 19.7125 26.3847 19.7964 26.4883 19.7964H28.392C28.84 19.7964 29.2045 19.4319 29.2045 18.9839V5.17626C29.2045 5.11201 29.1717 5.05226 29.1173 5.01788ZM28.8295 18.9838C28.8295 19.225 28.6333 19.4213 28.392 19.4213H26.6758V18.5463H27.767C27.8707 18.5463 27.9545 18.4624 27.9545 18.3588V5.47763C28.2419 5.53801 28.5502 5.52713 28.8295 5.44688V18.9838Z" fill="#3A312A"/>
<path d="M5.93867 3.28839C5.81692 4.73389 4.31055 4.96202 4.31055 4.96202C5.60392 5.02289 5.92617 6.71939 5.92617 6.71939C5.9538 5.50977 7.5913 4.94414 7.5913 4.94414C6.36467 4.87089 5.93867 3.28839 5.93867 3.28839Z" fill="#D6DF58"/>
<path d="M7.60426 4.75702C6.52876 4.69277 6.12538 3.25402 6.12138 3.23952C6.09751 3.15165 6.01376 3.09365 5.92351 3.10177C5.83288 3.11002 5.76126 3.18202 5.75363 3.27265C5.64613 4.54952 4.33938 4.76802 4.28438 4.77665C4.18901 4.79102 4.12026 4.8754 4.12526 4.97164C4.13026 5.0679 4.20738 5.14465 4.30376 5.14927C5.43226 5.2024 5.74113 6.73902 5.74401 6.75452C5.76113 6.84339 5.83888 6.90664 5.92801 6.90664C5.93326 6.90664 5.93851 6.90652 5.94376 6.90602C6.03926 6.89802 6.11338 6.81939 6.11563 6.72352C6.13988 5.66002 7.63951 5.1264 7.65476 5.12115C7.73913 5.09177 7.79126 5.00677 7.77901 4.91827C7.76651 4.83002 7.69351 4.7624 7.60426 4.75702ZM5.90863 6.05027C5.73901 5.65902 5.44501 5.1869 4.96026 4.94065C5.32663 4.76515 5.76138 4.45152 5.98551 3.90665C6.17938 4.29052 6.51038 4.76665 7.02726 4.99689C6.65126 5.20189 6.16188 5.54765 5.90863 6.05027Z" fill="#3A312A"/>
<path d="M3.22767 5.41101C3.14155 6.43339 2.07617 6.59489 2.07617 6.59489C2.99092 6.63789 3.21892 7.83789 3.21892 7.83789C3.23842 6.98239 4.39667 6.58226 4.39667 6.58226C3.52905 6.53026 3.22767 5.41101 3.22767 5.41101Z" fill="#D6DF58"/>
<path d="M4.4078 6.39498C3.68705 6.35185 3.4113 5.37185 3.40855 5.36198C3.3848 5.27423 3.30155 5.21635 3.2108 5.22423C3.12005 5.23235 3.04843 5.30448 3.0408 5.39523C2.96843 6.25398 2.08505 6.40348 2.04805 6.40935C1.95268 6.42373 1.88393 6.5081 1.88893 6.60435C1.89393 6.7006 1.97105 6.77735 2.0673 6.78198C2.8218 6.81748 3.0328 7.86248 3.03468 7.87273C3.05155 7.96185 3.12955 8.02523 3.21868 8.02523C3.22393 8.02523 3.22905 8.0251 3.2343 8.0246C3.32993 8.01673 3.40405 7.93785 3.4063 7.84198C3.42255 7.12835 4.4478 6.76273 4.45793 6.75923C4.54255 6.72998 4.59468 6.6451 4.58243 6.55648C4.57018 6.46798 4.49718 6.40035 4.4078 6.39498ZM3.20968 7.24435C3.09418 7.0086 2.91718 6.75098 2.6538 6.58435C2.88568 6.45423 3.11593 6.25573 3.26268 5.96985C3.3948 6.2041 3.59443 6.46423 3.8803 6.62285C3.64918 6.76035 3.38168 6.96535 3.20968 7.24435Z" fill="#3A312A"/>
<path d="M3.22767 2.07874C3.14155 3.10111 2.07617 3.26261 2.07617 3.26261C2.99092 3.30561 3.21892 4.50561 3.21892 4.50561C3.23842 3.65011 4.39667 3.24998 4.39667 3.24998C3.52905 3.19798 3.22767 2.07874 3.22767 2.07874Z" fill="#D6DF58"/>
<path d="M4.40781 3.06272C3.68694 3.0196 3.41119 2.0396 3.40856 2.0296C3.38481 1.94185 3.30156 1.88385 3.21081 1.89185C3.12006 1.89997 3.04844 1.9721 3.04081 2.06285C2.96844 2.92172 2.08507 3.07122 2.04807 3.0771C1.95269 3.09147 1.88382 3.17585 1.88894 3.2721C1.89394 3.36835 1.97106 3.4451 2.06744 3.44972C2.82181 3.48522 3.03281 4.53022 3.03481 4.54047C3.05169 4.6296 3.12969 4.69297 3.21881 4.69297C3.22406 4.69297 3.22919 4.69272 3.23444 4.69235C3.33006 4.68447 3.40419 4.6056 3.40644 4.50972C3.42269 3.7961 4.44781 3.43047 4.45806 3.42697C4.54256 3.39772 4.59481 3.31285 4.58256 3.22422C4.57019 3.13585 4.49719 3.0681 4.40781 3.06272ZM3.20969 3.9121C3.09419 3.67647 2.91719 3.41872 2.65381 3.2521C2.88581 3.12197 3.11594 2.92335 3.26269 2.6376C3.39481 2.87172 3.59456 3.13185 3.88031 3.2906C3.64919 3.42822 3.38169 3.6331 3.20969 3.9121Z" fill="#3A312A"/>
<path d="M24.0017 8.04626H4.53086C3.80086 8.04626 3.20898 8.63801 3.20898 9.36814V28.5994C3.20898 29.3294 3.80073 29.9213 4.53086 29.9213H24.0017C24.7317 29.9213 25.3236 29.3295 25.3236 28.5994V9.36801C25.3236 8.63801 24.7317 8.04626 24.0017 8.04626Z" fill="#87796F"/>
<path d="M24.0016 7.85876H4.53086C3.69861 7.85876 3.02148 8.53589 3.02148 9.36814V10.6919C3.02148 10.7955 3.10536 10.8794 3.20898 10.8794C3.31261 10.8794 3.39648 10.7955 3.39648 10.6919V9.36814C3.39648 8.74264 3.90536 8.23377 4.53086 8.23377H24.0017C24.6272 8.23377 25.1361 8.74264 25.1361 9.36814V28.5995C25.1361 29.225 24.6272 29.7339 24.0017 29.7339H4.53086C3.90536 29.7339 3.39648 29.225 3.39648 28.5995V12.4749C3.39648 12.3713 3.31261 12.2874 3.20898 12.2874C3.10536 12.2874 3.02148 12.3713 3.02148 12.4749V28.5994C3.02148 29.4316 3.69861 30.1088 4.53086 30.1088H24.0017C24.834 30.1088 25.5111 29.4316 25.5111 28.5994V9.36802C25.511 8.53576 24.8339 7.85876 24.0016 7.85876Z" fill="#3A312A"/>
<path d="M25.1659 14.1793H3.36875C2.63875 14.1793 2.04688 14.771 2.04688 15.5011V22.4664C2.04688 23.1964 2.63875 23.7883 3.36875 23.7883H25.1659C25.8959 23.7883 26.4878 23.1965 26.4878 22.4664V15.5011C26.4878 14.771 25.896 14.1793 25.1659 14.1793Z" fill="#FAE6CA"/>
<path d="M25.1659 13.9918H21.4639C21.3603 13.9918 21.2764 14.0756 21.2764 14.1793C21.2764 14.2829 21.3603 14.3668 21.4639 14.3668H25.1659C25.7914 14.3668 26.3003 14.8756 26.3003 15.5011V22.4664C26.3003 23.0919 25.7914 23.6008 25.1659 23.6008H3.36875C2.74325 23.6008 2.23438 23.0919 2.23438 22.4664V15.5011C2.23438 14.8756 2.74325 14.3668 3.36875 14.3668H19.7463C19.8499 14.3668 19.9338 14.2829 19.9338 14.1793C19.9338 14.0756 19.8499 13.9918 19.7463 13.9918H3.36875C2.5365 13.9918 1.85938 14.6689 1.85938 15.5011V22.4664C1.85938 23.2986 2.5365 23.9758 3.36875 23.9758H25.1659C25.9981 23.9758 26.6753 23.2986 26.6753 22.4664V15.5011C26.6753 14.6689 25.9983 13.9918 25.1659 13.9918Z" fill="#3A312A"/>
<path d="M3.54688 16.1764V17.5816H6.5045C5.89713 18.336 5.45325 19.0441 5.17275 19.7059C4.89225 20.3676 4.68663 21.1874 4.55588 22.165H6.2145C6.26888 21.4624 6.37513 20.8538 6.53313 20.339C6.73188 19.6773 7.00288 19.0768 7.346 18.5375C7.62925 18.0936 7.98188 17.681 8.404 17.2998V16.1764H3.54688Z" fill="#EF6D7A"/>
<path d="M8.404 15.9889H3.54688C3.44325 15.9889 3.35938 16.0728 3.35938 16.1764V17.5816C3.35938 17.6853 3.44325 17.7691 3.54688 17.7691H6.11975C5.62375 18.4226 5.24775 19.0483 5 19.6326C4.71425 20.3066 4.50225 21.1503 4.37 22.1401C4.36288 22.1938 4.37913 22.2478 4.41475 22.2884C4.45038 22.3291 4.50175 22.3524 4.55588 22.3524H6.21438C6.31238 22.3524 6.39375 22.277 6.40138 22.1794C6.4545 21.4938 6.55913 20.893 6.71263 20.3929C6.9055 19.7508 7.17175 19.1604 7.504 18.6383C7.77675 18.2108 8.12175 17.8071 8.52963 17.4388C8.569 17.4031 8.5915 17.3526 8.5915 17.2996V16.1763C8.5915 16.0728 8.5075 15.9889 8.404 15.9889ZM8.2165 17.2171C7.81063 17.5928 7.46475 18.0028 7.18788 18.4369C6.837 18.9881 6.55638 19.61 6.354 20.284C6.20588 20.7665 6.10125 21.3355 6.04238 21.9775H4.77175C4.9005 21.1128 5.09313 20.3739 5.34538 19.779C5.61788 19.1361 6.057 18.4364 6.65063 17.6993C6.69588 17.643 6.70488 17.5658 6.67375 17.5008C6.6425 17.4356 6.57688 17.3941 6.50463 17.3941H3.73438V16.3639H8.2165V17.2171Z" fill="#3A312A"/>
<path d="M11.8379 16.1764V17.5816H14.7954C14.1881 18.336 13.7441 19.0441 13.4638 19.7059C13.1833 20.3676 12.9776 21.1874 12.8469 22.165H14.5054C14.5599 21.4624 14.666 20.8538 14.824 20.339C15.0229 19.6773 15.2939 19.0768 15.637 18.5375C15.9203 18.0936 16.2729 17.681 16.695 17.2998V16.1764H11.8379Z" fill="#EF6D7A"/>
<path d="M16.6949 15.9889H11.8379C11.7343 15.9889 11.6504 16.0728 11.6504 16.1764V17.5816C11.6504 17.6853 11.7343 17.7691 11.8379 17.7691H14.4108C13.9146 18.423 13.5386 19.0485 13.2911 19.6326C13.0054 20.3066 12.7934 21.1503 12.661 22.1401C12.6539 22.1938 12.6701 22.2478 12.7058 22.2884C12.7414 22.3291 12.7928 22.3524 12.8469 22.3524H14.5054C14.6034 22.3524 14.6848 22.277 14.6924 22.1794C14.7455 21.4938 14.8501 20.893 15.0036 20.3929C15.1966 19.7506 15.463 19.1603 15.7951 18.6383C16.0679 18.2108 16.4129 17.8071 16.8208 17.4388C16.8601 17.4031 16.8826 17.3526 16.8826 17.2996V16.1763C16.8824 16.0728 16.7985 15.9889 16.6949 15.9889ZM16.5074 17.2171C16.1015 17.5928 15.7556 18.0028 15.4788 18.4369C15.128 18.988 14.8473 19.6098 14.6448 20.284C14.4966 20.7665 14.392 21.3355 14.3331 21.9775H13.0628C13.1915 21.1128 13.3841 20.3739 13.6364 19.779C13.9086 19.1365 14.3476 18.4368 14.9414 17.6991C14.9866 17.6429 14.9956 17.5658 14.9645 17.5006C14.9333 17.4355 14.8676 17.3941 14.7954 17.3941H12.0254V16.3639H16.5074V17.2171Z" fill="#3A312A"/>
<path d="M20.1289 16.1764V17.5816H23.0865C22.4792 18.336 22.0353 19.0441 21.7548 19.7059C21.4743 20.3676 21.2687 21.1874 21.1379 22.165H22.7965C22.8509 21.4624 22.9572 20.8538 23.1152 20.339C23.3139 19.6773 23.5849 19.0768 23.928 18.5375C24.2113 18.0936 24.5639 17.681 24.986 17.2998V16.1764H20.1289Z" fill="#EF6D7A"/>
<path d="M24.986 15.9889H20.1289C20.0253 15.9889 19.9414 16.0728 19.9414 16.1764V17.5816C19.9414 17.6853 20.0253 17.7691 20.1289 17.7691H22.7018C22.2058 18.4226 21.8298 19.0483 21.582 19.6326C21.2963 20.3066 21.0843 21.1503 20.952 22.1401C20.9449 22.1938 20.9612 22.2478 20.9968 22.2884C21.0324 22.3291 21.0838 22.3524 21.1379 22.3524H22.7965C22.8945 22.3524 22.9759 22.277 22.9835 22.1794C23.0367 21.4938 23.1413 20.893 23.2948 20.3929C23.4877 19.7508 23.7539 19.1604 24.0862 18.6383C24.3589 18.2108 24.7039 17.8071 25.1118 17.4388C25.1512 17.4031 25.1737 17.3526 25.1737 17.2996V16.1763C25.1735 16.0728 25.0895 15.9889 24.986 15.9889ZM24.7985 17.2171C24.3927 17.5928 24.0468 18.0028 23.7699 18.4369C23.419 18.9881 23.1384 19.61 22.936 20.284C22.7879 20.7665 22.6833 21.3355 22.6244 21.9775H21.3539C21.4827 21.1128 21.6753 20.3739 21.9275 19.779C22.2 19.1361 22.6392 18.4364 23.2328 17.6993C23.278 17.643 23.287 17.5658 23.2559 17.5008C23.2248 17.4356 23.159 17.3941 23.0868 17.3941H20.3167V16.3639H24.7988V17.2171H24.7985Z" fill="#3A312A"/>
<path d="M18.9579 7.49026C19.4249 7.03502 19.1672 6.24189 18.5217 6.14802L16.4789 5.85114C16.2226 5.81389 16.001 5.65289 15.8864 5.42064L14.9727 3.56952C14.6841 2.98464 13.8501 2.98464 13.5615 3.56952L12.6479 5.42064C12.5332 5.65289 12.3116 5.81389 12.0554 5.85114L10.0125 6.14802C9.3671 6.24177 9.10935 7.03502 9.57635 7.49026L11.0546 8.93114C11.2401 9.11189 11.3247 9.37239 11.2809 9.62764L10.9319 11.6623C10.8216 12.3051 11.4964 12.7953 12.0736 12.4918L13.9007 11.5311C14.13 11.4106 14.4039 11.4106 14.6331 11.5311L16.4602 12.4918C17.0375 12.7953 17.7122 12.3051 17.602 11.6623L17.253 9.62764C17.2092 9.37239 17.2939 9.11189 17.4792 8.93114L18.9579 7.49026Z" fill="#D6DF58"/>
<path d="M19.0885 7.62461C19.3561 7.36386 19.4505 6.98098 19.3351 6.62561C19.2196 6.27036 18.9182 6.01623 18.5486 5.96248L16.5057 5.66561C16.3105 5.63723 16.1418 5.51473 16.0545 5.33773L15.1408 3.48661C14.9755 3.15161 14.6407 2.94348 14.2671 2.94348C13.8935 2.94348 13.5587 3.15161 13.3933 3.48661L12.4797 5.33773C12.3923 5.51473 12.2237 5.63723 12.0283 5.66561L9.98546 5.96248C9.61571 6.01623 9.31433 6.27023 9.19883 6.62561C9.08333 6.98098 9.17783 7.36373 9.44546 7.62461L10.9236 9.06548C11.0648 9.20323 11.1293 9.40148 11.096 9.59611L10.747 11.6306C10.6838 11.9989 10.8323 12.364 11.1346 12.5836C11.3055 12.7077 11.5052 12.7707 11.7065 12.7707C11.8613 12.7707 12.017 12.7334 12.1608 12.6577L13.988 11.6971C14.1625 11.6052 14.3712 11.6054 14.5457 11.6971L16.373 12.6577C16.7036 12.8316 17.0968 12.8032 17.3991 12.5836C17.7013 12.364 17.8498 11.9989 17.7867 11.6306L17.4377 9.59611C17.4043 9.40161 17.4688 9.20323 17.6101 9.06548L19.0885 7.62461ZM17.0682 9.65936L17.4172 11.6939C17.4566 11.9239 17.3676 12.143 17.1788 12.2801C16.99 12.4174 16.754 12.4344 16.5476 12.3257L14.7205 11.3651C14.5785 11.2905 14.4227 11.2531 14.267 11.2531C14.1112 11.2531 13.9555 11.2905 13.8136 11.3651L11.9865 12.3257C11.7798 12.4344 11.5441 12.4172 11.3552 12.2801C11.1665 12.143 11.0773 11.9239 11.1167 11.6939L11.4657 9.65936C11.52 9.34311 11.4151 9.02073 11.1855 8.79686L9.70721 7.35598C9.54021 7.19311 9.48346 6.96336 9.55558 6.74148C9.62771 6.51961 9.80858 6.36711 10.0395 6.33361L12.0822 6.03673C12.3997 5.99073 12.674 5.79148 12.816 5.50373L13.7296 3.65261C13.8328 3.44336 14.0337 3.31848 14.2671 3.31848C14.5005 3.31848 14.7013 3.44348 14.8046 3.65261L15.7182 5.50373C15.8602 5.79136 16.1346 5.99073 16.4518 6.03673L18.4947 6.33361C18.7256 6.36723 18.9065 6.51961 18.9786 6.74148C19.0507 6.96336 18.994 7.19311 18.827 7.35598L17.3487 8.79686C17.1188 9.02073 17.014 9.34311 17.0682 9.65936Z" fill="#3A312A"/>
<path d="M28.3281 5.32874C29.2256 5.32874 29.9531 4.6012 29.9531 3.70374C29.9531 2.80627 29.2256 2.07874 28.3281 2.07874C27.4307 2.07874 26.7031 2.80627 26.7031 3.70374C26.7031 4.6012 27.4307 5.32874 28.3281 5.32874Z" fill="#8AC5DC"/>
<path d="M28.3281 1.89124C27.3288 1.89124 26.5156 2.70436 26.5156 3.70374C26.5156 4.70311 27.3288 5.51624 28.3281 5.51624C29.3275 5.51624 30.1406 4.70311 30.1406 3.70374C30.1406 2.70436 29.3275 1.89124 28.3281 1.89124ZM28.3281 5.14124C27.5355 5.14124 26.8906 4.49636 26.8906 3.70374C26.8906 2.91111 27.5355 2.26624 28.3281 2.26624C29.1207 2.26624 29.7656 2.91111 29.7656 3.70374C29.7656 4.49649 29.1207 5.14124 28.3281 5.14124Z" fill="#3A312A"/>
<path d="M6.50285 28.0605C7.14992 27.9076 7.55047 27.259 7.39752 26.612C7.24456 25.9649 6.59602 25.5644 5.94896 25.7173C5.30189 25.8703 4.90134 26.5188 5.05429 27.1659C5.20725 27.8129 5.85579 28.2135 6.50285 28.0605Z" fill="#89C4DB"/>
<path d="M6.21975 25.5055C5.45237 25.5055 4.82812 26.1297 4.82812 26.8971C4.82812 27.6645 5.45237 28.2887 6.21975 28.2887C6.98712 28.2887 7.61137 27.6645 7.61137 26.8971C7.61137 26.1299 6.98712 25.5055 6.21975 25.5055ZM6.21975 27.9137C5.65925 27.9137 5.20312 27.4577 5.20312 26.8971C5.20312 26.3366 5.65912 25.8805 6.21975 25.8805C6.78037 25.8805 7.23637 26.3365 7.23637 26.8971C7.23637 27.4577 6.78037 27.9137 6.21975 27.9137Z" fill="#3A312A"/>
<path d="M12.4309 27.7468C12.9011 27.2767 12.9011 26.5144 12.4309 26.0442C11.9607 25.574 11.1984 25.574 10.7283 26.0442C10.2581 26.5144 10.2581 27.2767 10.7283 27.7468C11.1984 28.217 11.9607 28.217 12.4309 27.7468Z" fill="#89C4DB"/>
<path d="M11.585 25.5055C10.8176 25.5055 10.1934 26.1297 10.1934 26.8971C10.1934 27.6645 10.8176 28.2887 11.585 28.2887C12.3524 28.2887 12.9766 27.6645 12.9766 26.8971C12.9766 26.1299 12.3524 25.5055 11.585 25.5055ZM11.585 27.9137C11.0244 27.9137 10.5684 27.4577 10.5684 26.8971C10.5684 26.3366 11.0244 25.8805 11.585 25.8805C12.1455 25.8805 12.6016 26.3365 12.6016 26.8971C12.6016 27.4577 12.1456 27.9137 11.585 27.9137Z" fill="#3A312A"/>
<path d="M17.5942 27.9267C18.1601 27.5769 18.3353 26.8345 17.9855 26.2686C17.6357 25.7027 16.8934 25.5274 16.3274 25.8772C15.7615 26.2271 15.5863 26.9694 15.9361 27.5353C16.2859 28.1013 17.0282 28.2765 17.5942 27.9267Z" fill="#89C4DB"/>
<path d="M16.9483 25.5055C16.1809 25.5055 15.5566 26.1297 15.5566 26.8971C15.5566 27.6645 16.1809 28.2887 16.9483 28.2887C17.7156 28.2887 18.3399 27.6645 18.3399 26.8971C18.34 26.1299 17.7158 25.5055 16.9483 25.5055ZM16.9483 27.9137C16.3876 27.9137 15.9316 27.4577 15.9316 26.8971C15.9316 26.3366 16.3876 25.8805 16.9483 25.8805C17.5089 25.8805 17.9649 26.3365 17.9649 26.8971C17.965 27.4577 17.5089 27.9137 16.9483 27.9137Z" fill="#3A312A"/>
<path d="M23.1594 27.748C23.6296 27.2778 23.6296 26.5155 23.1594 26.0454C22.6892 25.5752 21.927 25.5752 21.4568 26.0454C20.9866 26.5155 20.9866 27.2778 21.4568 27.748C21.927 28.2181 22.6892 28.2181 23.1594 27.748Z" fill="#89C4DB"/>
<path d="M22.3115 25.5055C21.5442 25.5055 20.9199 26.1297 20.9199 26.8971C20.9199 27.6645 21.5442 28.2887 22.3115 28.2887C23.0789 28.2887 23.7032 27.6645 23.7032 26.8971C23.7033 26.1299 23.079 25.5055 22.3115 25.5055ZM22.3115 27.9137C21.7509 27.9137 21.2949 27.4577 21.2949 26.8971C21.2949 26.3366 21.7509 25.8805 22.3115 25.8805C22.8722 25.8805 23.3282 26.3365 23.3282 26.8971C23.3283 27.4577 22.8722 27.9137 22.3115 27.9137Z" fill="#3A312A"/>
<path d="M10.1719 13.9838C10.0683 13.9838 9.98438 14.0676 9.98438 14.1713V23.7963C9.98438 23.8999 10.0683 23.9838 10.1719 23.9838C10.2755 23.9838 10.3594 23.8999 10.3594 23.7963V14.1713C10.3594 14.0676 10.2754 13.9838 10.1719 13.9838Z" fill="#3A312A"/>
<path d="M18.3594 13.9838C18.2558 13.9838 18.1719 14.0676 18.1719 14.1713V23.7963C18.1719 23.8999 18.2558 23.9838 18.3594 23.9838C18.463 23.9838 18.5469 23.8999 18.5469 23.7963V14.1713C18.5469 14.0676 18.4629 13.9838 18.3594 13.9838Z" fill="#3A312A"/>
<path d="M24.002 8.23376H22.127C22.752 8.23376 23.2607 8.74251 23.2607 9.36751V13.9913H25.1357V9.36751C25.1357 8.74251 24.627 8.23376 24.002 8.23376Z" fill="#695B51"/>
<path d="M23.2607 23.9763V25.88C23.5332 26.135 23.7032 26.4963 23.7032 26.8975C23.7032 27.2988 23.5332 27.66 23.2607 27.915V28.5988C23.2607 29.225 22.752 29.7338 22.127 29.7338H24.002C24.627 29.7338 25.1357 29.225 25.1357 28.5988V23.9763H23.2607Z" fill="#695B51"/>
<path d="M25.1641 14.3663H23.2891C23.9141 14.3663 24.4241 14.875 24.4241 15.5013V15.9888H24.9853C25.0891 15.9888 25.1728 16.0725 25.1728 16.1763V17.3C25.1728 17.3525 25.1503 17.4038 25.1116 17.4388C24.8578 17.6688 24.6278 17.9125 24.4241 18.1675V22.4663C24.4241 23.0913 23.9141 23.6013 23.2891 23.6013H25.1641C25.7891 23.6013 26.2991 23.0913 26.2991 22.4663V15.5013C26.2991 14.875 25.7891 14.3663 25.1641 14.3663Z" fill="#DDC9AC"/>
</svg>
