<svg width="32" height="32" viewBox="0 0 32 32" fill="none" xmlns="http://www.w3.org/2000/svg">
<path d="M5.925 3.28839C5.80325 4.73389 4.29688 4.96202 4.29688 4.96202C5.59025 5.02302 5.91263 6.71952 5.91263 6.71952C5.94025 5.50989 7.57775 4.94427 7.57775 4.94427C6.35113 4.87089 5.925 3.28839 5.925 3.28839Z" fill="#D5DE58"/>
<path d="M7.58863 4.75702C6.51313 4.69277 6.10976 3.25402 6.10576 3.23952C6.08188 3.15164 5.99826 3.09377 5.90788 3.10189C5.81726 3.11014 5.74563 3.18214 5.73801 3.27277C5.63051 4.54964 4.32388 4.76814 4.26876 4.77677C4.17338 4.79114 4.10463 4.87552 4.10963 4.97189C4.11463 5.06814 4.19176 5.14489 4.28813 5.14952C5.41663 5.20264 5.72551 6.73939 5.72838 6.75489C5.74551 6.84377 5.82326 6.90702 5.91238 6.90702C5.91763 6.90702 5.92288 6.90689 5.92813 6.90639C6.02363 6.89839 6.09776 6.81977 6.10001 6.72389C6.12426 5.66027 7.62388 5.12677 7.63913 5.12152C7.7235 5.09214 7.77563 5.00714 7.76338 4.91864C7.75088 4.83002 7.67788 4.76239 7.58863 4.75702ZM5.89301 6.05027C5.72338 5.65889 5.42938 5.18677 4.94463 4.94064C5.31101 4.76514 5.74576 4.45152 5.96988 3.90652C6.16376 4.29039 6.49476 4.76652 7.01163 4.99677C6.63563 5.20189 6.14626 5.54752 5.89301 6.05027Z" fill="#3A312A"/>
<path d="M3.21205 5.41101C3.12592 6.43339 2.06055 6.59476 2.06055 6.59476C2.9753 6.63776 3.2033 7.83776 3.2033 7.83776C3.2228 6.98214 4.38105 6.58214 4.38105 6.58214C3.5133 6.53026 3.21205 5.41101 3.21205 5.41101Z" fill="#D5DE58"/>
<path d="M4.39218 6.39498C3.67143 6.35185 3.39568 5.37185 3.39293 5.36198C3.36918 5.27423 3.28668 5.21635 3.19518 5.22423C3.10443 5.23235 3.0328 5.30448 3.02518 5.39523C2.9528 6.25398 2.06943 6.40348 2.03243 6.40935C1.93705 6.42373 1.8683 6.5081 1.8733 6.60435C1.8783 6.7006 1.95543 6.77735 2.05168 6.78198C2.80618 6.81748 3.01718 7.86248 3.01905 7.87273C3.03593 7.96185 3.11393 8.02523 3.20305 8.02523C3.2083 8.02523 3.21343 8.0251 3.21868 8.0246C3.3143 8.0166 3.38843 7.93785 3.39068 7.84198C3.40693 7.12835 4.43218 6.76273 4.4423 6.75923C4.52693 6.72998 4.57905 6.6451 4.5668 6.55648C4.55455 6.46798 4.48155 6.40035 4.39218 6.39498ZM3.19418 7.24435C3.07868 7.0086 2.90168 6.75098 2.6383 6.58435C2.87018 6.45423 3.10043 6.25573 3.24718 5.96985C3.3793 6.20398 3.57893 6.46423 3.8648 6.62285C3.63355 6.76035 3.36618 6.96535 3.19418 7.24435Z" fill="#3A312A"/>
<path d="M3.21205 2.07874C3.12592 3.10111 2.06055 3.26261 2.06055 3.26261C2.9753 3.30561 3.2033 4.50561 3.2033 4.50561C3.2228 3.65011 4.38105 3.24998 4.38105 3.24998C3.5133 3.19798 3.21205 2.07874 3.21205 2.07874Z" fill="#D5DE58"/>
<path d="M4.39219 3.06277C3.67131 3.01964 3.39556 2.03964 3.39294 2.02964C3.36919 1.94189 3.28669 1.88401 3.19519 1.89189C3.10444 1.90001 3.03281 1.97214 3.02519 2.06289C2.95281 2.92177 2.06944 3.07127 2.03244 3.07714C1.93707 3.09152 1.86819 3.17589 1.87332 3.27227C1.87832 3.36852 1.95544 3.44527 2.05182 3.44989C2.80619 3.48539 3.01719 4.53039 3.01919 4.54064C3.03606 4.62977 3.11406 4.69314 3.20319 4.69314C3.20844 4.69314 3.21356 4.69289 3.21881 4.69252C3.31444 4.68464 3.38856 4.60577 3.39081 4.50989C3.40706 3.79614 4.43219 3.43064 4.44244 3.42714C4.52694 3.39789 4.57919 3.31302 4.56694 3.22439C4.55444 3.13589 4.48144 3.06814 4.39219 3.06277ZM3.19406 3.91214C3.07856 3.67652 2.90156 3.41877 2.63819 3.25214C2.87019 3.12202 3.10031 2.92339 3.24706 2.63764C3.37919 2.87189 3.57894 3.13189 3.86469 3.29064C3.63344 3.42827 3.36606 3.63314 3.19406 3.91214Z" fill="#3A312A"/>
<path d="M2.0625 18.5968C2.0625 23.2293 5.8175 26.9855 10.4513 26.9855H10.5638V25.0918C7.08375 24.968 4.30125 22.1068 4.30125 18.5968C4.30125 15.0868 7.08375 12.2255 10.5638 12.1018V10.208H10.4513C5.8175 10.208 2.0625 13.9643 2.0625 18.5968ZM27.4825 12.6655C25.965 11.1468 23.8675 10.208 21.5513 10.208H21.4388V12.1018C23.14 12.1618 24.6738 12.8768 25.7975 14.0005C26.9738 15.1768 27.7013 16.8018 27.7013 18.5968C27.7013 22.1068 24.9188 24.968 21.4388 25.0918V26.9855H21.5513C26.1838 26.9855 29.94 23.2293 29.94 18.5968C29.94 16.2805 29.0013 14.183 27.4825 12.6655Z" fill="#F16C7A"/>
<path d="M10.5638 10.0205H10.4513C5.72225 10.0205 1.875 13.8678 1.875 18.5968C1.875 23.3258 5.72225 27.173 10.4513 27.173H10.5638C10.6674 27.173 10.7513 27.0891 10.7513 26.9855V25.0918C10.7513 24.9908 10.6713 24.908 10.5704 24.9044C7.16013 24.7831 4.48875 22.0125 4.48875 18.5968C4.48875 15.1811 7.16013 12.4104 10.5704 12.2891C10.6713 12.2855 10.7513 12.2028 10.7513 12.1018V10.208C10.7513 10.1044 10.6673 10.0205 10.5638 10.0205ZM10.3763 11.9231C6.84988 12.1413 4.11375 15.0386 4.11375 18.5968C4.11375 22.1549 6.84988 25.0524 10.3763 25.2704V26.7978C5.88863 26.7573 2.25 23.0939 2.25 18.5969C2.25 14.0999 5.8885 10.4364 10.3763 10.3959V11.9231ZM27.6151 12.533C25.9964 10.9128 23.8429 10.0205 21.5512 10.0205H21.4387C21.3351 10.0205 21.2512 10.1044 21.2512 10.208V12.1018C21.2512 12.2028 21.3312 12.2856 21.4321 12.2891C23.0289 12.3455 24.5321 13.0004 25.6649 14.133C26.8571 15.3253 27.5138 16.9105 27.5138 18.5966C27.5138 22.0124 24.8424 24.783 21.4321 24.9043C21.3312 24.9079 21.2512 24.9906 21.2512 25.0916V26.9854C21.2512 27.089 21.3351 27.1729 21.4387 27.1729H21.5512C26.2801 27.1729 30.1275 23.3256 30.1275 18.5966C30.1275 16.3051 29.2351 14.1516 27.6151 12.533ZM21.6262 26.7976V25.2703C25.1526 25.0523 27.8888 22.1549 27.8888 18.5966C27.8888 16.8103 27.1931 15.1309 25.9301 13.8678C24.773 12.7105 23.2506 12.0241 21.6262 11.923V10.3958C23.7895 10.415 25.8196 11.2664 27.3499 12.798C27.3499 12.798 27.3499 12.7981 27.35 12.7981C28.8993 14.3461 29.7525 16.4054 29.7525 18.5968C29.7525 23.0938 26.1139 26.7571 21.6262 26.7976Z" fill="#3A312A"/>
<path d="M6.87695 23.5905C6.77333 23.5905 6.68945 23.6744 6.68945 23.778V26.1868C6.68945 26.2904 6.77333 26.3743 6.87695 26.3743C6.98058 26.3743 7.06445 26.2904 7.06445 26.1868V23.778C7.06445 23.6744 6.98045 23.5905 6.87695 23.5905Z" fill="#3A312A"/>
<path d="M6.87695 10.8193C6.77333 10.8193 6.68945 10.9031 6.68945 11.0068V13.4155C6.68945 13.5191 6.77333 13.603 6.87695 13.603C6.98058 13.603 7.06445 13.5191 7.06445 13.4155V11.0068C7.06445 10.9031 6.98045 10.8193 6.87695 10.8193Z" fill="#3A312A"/>
<path d="M25.127 23.5905C25.0233 23.5905 24.9395 23.6744 24.9395 23.778V26.1868C24.9395 26.2904 25.0233 26.3743 25.127 26.3743C25.2306 26.3743 25.3145 26.2904 25.3145 26.1868V23.778C25.3145 23.6744 25.2305 23.5905 25.127 23.5905Z" fill="#3A312A"/>
<path d="M25.127 10.8193C25.0233 10.8193 24.9395 10.9031 24.9395 11.0068V13.4155C24.9395 13.5191 25.0233 13.603 25.127 13.603C25.2306 13.603 25.3145 13.5191 25.3145 13.4155V11.0068C25.3145 10.9031 25.2305 10.8193 25.127 10.8193Z" fill="#3A312A"/>
<path d="M4.3032 18.5341H2.06445C1.96083 18.5341 1.87695 18.618 1.87695 18.7216C1.87695 18.8252 1.96083 18.9091 2.06445 18.9091H4.3032C4.40683 18.9091 4.4907 18.8252 4.4907 18.7216C4.4907 18.618 4.4067 18.5341 4.3032 18.5341Z" fill="#3A312A"/>
<path d="M29.938 18.5341H27.6992C27.5956 18.5341 27.5117 18.618 27.5117 18.7216C27.5117 18.8252 27.5956 18.9091 27.6992 18.9091H29.938C30.0416 18.9091 30.1255 18.8252 30.1255 18.7216C30.1255 18.618 30.0415 18.5341 29.938 18.5341Z" fill="#3A312A"/>
<path d="M18.1269 11.6379H16.9715V10.887C16.6519 11.1085 16.3212 11.2392 16.0004 11.2392C15.6926 11.2392 15.3677 11.1072 15.0495 10.883H15.0299V11.6379H13.8737C12.9079 11.6379 12.125 12.4207 12.125 13.3866V14.9714H19.8756V13.3866C19.8756 12.4207 19.0927 11.6379 18.1269 11.6379Z" fill="#F8E4C8"/>
<path d="M18.1269 11.4504H17.159V10.887C17.159 10.8172 17.1202 10.7532 17.0585 10.7209C16.9967 10.6886 16.9221 10.6931 16.8647 10.7329C16.5595 10.9445 16.2687 11.0517 16.0004 11.0517C15.7444 11.0517 15.4609 10.9434 15.1575 10.7297C15.1259 10.7075 15.0881 10.6955 15.0495 10.6955H15.0299C14.9262 10.6955 14.8424 10.7794 14.8424 10.883V11.4504H13.8737C12.8061 11.4504 11.9375 12.319 11.9375 13.3866V14.9714C11.9375 15.075 12.0214 15.1589 12.125 15.1589H19.8756C19.9792 15.1589 20.0631 15.075 20.0631 14.9714V13.3866C20.0631 12.319 19.1945 11.4504 18.1269 11.4504ZM19.6881 14.7839H12.3125V13.3866C12.3125 12.5257 13.0129 11.8254 13.8737 11.8254H15.0299C15.1335 11.8254 15.2174 11.7415 15.2174 11.6379V11.2079C15.7612 11.5005 16.2524 11.4931 16.784 11.2191V11.6379C16.784 11.7415 16.8679 11.8254 16.9715 11.8254H18.1269C18.9877 11.8254 19.6881 12.5257 19.6881 13.3866V14.7839Z" fill="#3A312A"/>
<path d="M18.127 11.6376H17.816L17.8224 11.6423L16.6209 13.2366L16.0006 12.769L15.3804 13.2366L14.1789 11.6423L14.1852 11.6376H13.8742C12.9082 11.6376 12.125 12.4209 12.125 13.3869V14.9714H19.8761V13.3869C19.8761 12.4209 19.0929 11.6376 18.127 11.6376Z" fill="#8AC6DD"/>
<path d="M18.1269 11.4501H17.8159C17.7425 11.4501 17.6793 11.4948 17.6491 11.5604L16.5839 12.974L16.1134 12.6193C16.0466 12.5689 15.9545 12.5689 15.8876 12.6193L15.4173 12.974L14.361 11.5725C14.3339 11.4993 14.2639 11.4501 14.1853 11.4501H13.8742C12.8064 11.4501 11.9375 12.319 11.9375 13.3869V14.9713C11.9375 15.0749 12.0214 15.1588 12.125 15.1588H19.8761C19.9798 15.1588 20.0636 15.0749 20.0636 14.9713V13.3869C20.0635 12.3189 19.1948 11.4501 18.1269 11.4501ZM19.6885 14.7838H12.3124V13.3869C12.3124 12.5258 13.0129 11.8251 13.8741 11.8251H14.0818L15.2305 13.3495C15.2604 13.3893 15.3049 13.4154 15.3541 13.4224C15.4031 13.4291 15.4534 13.4164 15.4931 13.3864L16.0004 13.0038L16.5078 13.3864C16.5474 13.4163 16.5971 13.429 16.6466 13.4224C16.6959 13.4155 16.7404 13.3893 16.7703 13.3495L17.9191 11.8251H18.1268C18.9879 11.8251 19.6885 12.5258 19.6885 13.3869V14.7838Z" fill="#3A312A"/>
<path d="M13.541 13.5315C13.4374 13.5315 13.3535 13.6154 13.3535 13.719V14.9716C13.3535 15.0752 13.4374 15.1591 13.541 15.1591C13.6446 15.1591 13.7285 15.0752 13.7285 14.9716V13.719C13.7285 13.6154 13.6446 13.5315 13.541 13.5315Z" fill="#3A312A"/>
<path d="M18.459 13.5315C18.3554 13.5315 18.2715 13.6154 18.2715 13.719V14.9716C18.2715 15.0752 18.3554 15.1591 18.459 15.1591C18.5626 15.1591 18.6465 15.0752 18.6465 14.9716V13.719C18.6465 13.6154 18.5626 13.5315 18.459 13.5315Z" fill="#3A312A"/>
<path d="M16.2979 13.8001H15.7022L15.5215 14.9717H16.4786L16.2979 13.8001Z" fill="#F16C7A"/>
<path d="M16.6638 14.9431L16.4831 13.7716C16.4689 13.6802 16.3903 13.6127 16.2978 13.6127H15.7022C15.6097 13.6127 15.5309 13.6802 15.5169 13.7716L15.3362 14.9431C15.3278 14.9972 15.3436 15.0522 15.3792 15.0937C15.4148 15.1352 15.4668 15.1591 15.5216 15.1591H16.4787C16.5334 15.1591 16.5854 15.1352 16.6211 15.0937C16.6564 15.0521 16.6721 14.9972 16.6638 14.9431ZM15.7399 14.7841L15.8628 13.9876H16.1369L16.2598 14.7841H15.7399Z" fill="#3A312A"/>
<path d="M15.5 12.7684L15.7014 13.7999H16.2957L16.5019 12.7684H15.5Z" fill="#F16C7A"/>
<path d="M16.6469 12.6494C16.6112 12.606 16.558 12.5807 16.5019 12.5807H15.5C15.444 12.5807 15.3909 12.6057 15.3552 12.649C15.3196 12.6922 15.3052 12.7491 15.316 12.8041L15.5174 13.8356C15.5345 13.9236 15.6116 13.9871 15.7014 13.9871H16.2957C16.3851 13.9871 16.4621 13.924 16.4796 13.8364L16.6857 12.8049C16.6967 12.75 16.6825 12.6929 16.6469 12.6494ZM16.142 13.6124H15.8557L15.7276 12.9559H16.2731L16.142 13.6124Z" fill="#3A312A"/>
<path d="M14.1855 11.645L14.8087 11.1755L16.0104 12.7705L15.3873 13.24L14.1855 11.645Z" fill="#8AC6DD"/>
<path d="M16.1517 12.6543L14.9503 11.0602C14.8879 10.9774 14.7705 10.9609 14.6877 11.0233L14.0649 11.4927C14.0252 11.5225 13.999 11.567 13.992 11.6163C13.9852 11.6655 13.998 11.7154 14.028 11.7552L15.2295 13.3493C15.2594 13.389 15.3039 13.4152 15.3532 13.4222C15.3618 13.4234 15.3705 13.424 15.3792 13.424C15.4197 13.424 15.4593 13.4109 15.492 13.3863L16.1148 12.9169C16.1974 12.8545 16.2139 12.737 16.1517 12.6543ZM15.416 12.974L14.4403 11.6793L14.7637 11.4357L15.7394 12.7304L15.416 12.974Z" fill="#3A312A"/>
<path d="M16.0039 12.7627L17.2056 11.1678L17.8287 11.6373L16.627 13.2322L16.0039 12.7627Z" fill="#8AC6DD"/>
<path d="M18.0079 11.6163C18.001 11.567 17.9747 11.5225 17.9351 11.4927L17.3124 11.0233C17.2296 10.9609 17.1121 10.9774 17.0497 11.0602L15.8484 12.6543C15.786 12.737 15.8025 12.8545 15.8852 12.9169L16.508 13.3863C16.5407 13.4109 16.5804 13.424 16.6209 13.424C16.6295 13.424 16.6382 13.4234 16.6469 13.4222C16.6961 13.4153 16.7406 13.389 16.7705 13.3493L17.972 11.7552C18.002 11.7155 18.0149 11.6655 18.0079 11.6163ZM16.584 12.974L16.2606 12.7304L17.2364 11.4357L17.5597 11.6793L16.584 12.974Z" fill="#3A312A"/>
<path fill-rule="evenodd" clip-rule="evenodd" d="M12.9967 6.61462C12.6167 6.61462 12.3086 6.92275 12.3086 7.30275C12.3086 7.68275 12.6167 7.99087 12.9967 7.99087C13.3767 7.99087 13.6848 7.68275 13.6848 7.30275C13.6848 6.92275 13.3767 6.61462 12.9967 6.61462Z" fill="#F8E4C8"/>
<path d="M12.9967 6.42712C12.514 6.42712 12.1211 6.82 12.1211 7.30275C12.1211 7.7855 12.514 8.17837 12.9967 8.17837C13.4795 8.17837 13.8723 7.7855 13.8723 7.30275C13.8723 6.82 13.4795 6.42712 12.9967 6.42712ZM12.9967 7.80337C12.7207 7.80337 12.4961 7.57887 12.4961 7.30275C12.4961 7.02662 12.7206 6.80212 12.9967 6.80212C13.2728 6.80212 13.4973 7.02662 13.4973 7.30275C13.4973 7.57887 13.2727 7.80337 12.9967 7.80337Z" fill="#3A312A"/>
<path fill-rule="evenodd" clip-rule="evenodd" d="M19.0026 6.61462C18.6226 6.61462 18.3145 6.92275 18.3145 7.30275C18.3145 7.68275 18.6226 7.99087 19.0026 7.99087C19.3826 7.99087 19.6907 7.68275 19.6907 7.30275C19.6907 6.92275 19.3826 6.61462 19.0026 6.61462Z" fill="#F8E4C8"/>
<path d="M19.0026 6.42712C18.5198 6.42712 18.127 6.82 18.127 7.30275C18.127 7.7855 18.5198 8.17837 19.0026 8.17837C19.4855 8.17837 19.8782 7.7855 19.8782 7.30275C19.8782 6.82 19.4855 6.42712 19.0026 6.42712ZM19.0026 7.80337C18.7265 7.80337 18.502 7.57887 18.502 7.30275C18.502 7.02662 18.7265 6.80212 19.0026 6.80212C19.2786 6.80212 19.5032 7.02662 19.5032 7.30275C19.5032 7.57887 19.2787 7.80337 19.0026 7.80337Z" fill="#3A312A"/>
<path d="M19.1919 5.34965C19.1919 4.53853 18.8572 3.80228 18.3124 3.25928C18.3454 3.3539 18.3629 3.44953 18.3629 3.54415C18.3629 3.8644 18.1424 4.15678 17.7793 4.3784C17.8547 4.50378 17.9487 4.61865 18.0589 4.71953C18.6113 5.22428 18.9762 5.92978 19.04 6.72003C19.0482 6.70903 19.0662 6.70315 19.08 6.69803C19.2104 6.6504 19.1919 5.45415 19.1919 5.34965Z" fill="#87796F"/>
<path d="M19.3796 5.38584L19.3794 5.34959C19.3794 4.51671 19.0474 3.72721 18.4448 3.12634C18.3828 3.06459 18.2865 3.05396 18.2125 3.10046C18.1385 3.14696 18.1065 3.23859 18.1354 3.32109C18.1619 3.39684 18.1754 3.47184 18.1754 3.54396C18.1754 3.78446 18 4.02384 17.6816 4.21821C17.5936 4.27196 17.5655 4.38659 17.6186 4.47496C17.7035 4.61609 17.809 4.74496 17.9324 4.85784C18.4679 5.34709 18.7949 6.01371 18.853 6.73496C18.8593 6.81284 18.9133 6.87871 18.9884 6.90021C19.0054 6.90509 19.0228 6.90746 19.0399 6.90746C19.0791 6.90746 19.1176 6.89509 19.1494 6.87221C19.279 6.82471 19.3896 6.76596 19.3796 5.38584ZM19.004 5.75859C18.825 5.31421 18.5474 4.91196 18.1855 4.58134C18.1331 4.53334 18.0849 4.48184 18.0411 4.42709C18.2859 4.24246 18.4478 4.02496 18.515 3.79209C18.8333 4.25134 19.0045 4.78959 19.0045 5.34959L19.0048 5.38859C19.0056 5.52721 19.0053 5.64996 19.004 5.75859Z" fill="#3A312A"/>
<path d="M18.0588 4.71897C17.9486 4.61859 17.8546 4.50372 17.7792 4.37897C17.3546 4.63884 16.7337 4.80309 16.0422 4.80309C15.8781 4.80309 15.718 4.79384 15.563 4.77584C14.4513 4.64934 13.3856 5.31247 13.0333 6.37484C12.9991 6.47697 12.9753 6.57497 12.9643 6.66609C12.9626 6.67884 12.9615 6.69159 12.9602 6.70434C12.9532 6.79134 12.9492 6.87959 12.9492 6.96897C12.9492 8.65322 14.6363 11.2396 15.9998 11.2396C17.4277 11.2396 19.0498 8.65322 19.0498 6.96897C19.0497 6.07772 18.668 5.27647 18.0588 4.71897Z" fill="#F8E4C8"/>
<path d="M18.1851 4.58038C18.0891 4.493 18.0066 4.39275 17.9397 4.28213C17.914 4.23938 17.8722 4.20875 17.8236 4.19688C17.7751 4.18513 17.724 4.19313 17.6813 4.21913C17.2696 4.47113 16.6721 4.61563 16.0422 4.61563C15.8873 4.61563 15.7333 4.60688 15.5841 4.58963C14.3806 4.45213 13.2325 5.1785 12.8556 6.31525C12.8165 6.43213 12.7905 6.54263 12.7786 6.64038C12.7763 6.656 12.775 6.67175 12.7733 6.6895C12.7655 6.787 12.7617 6.8785 12.7617 6.969C12.7617 8.72925 14.4985 11.4271 15.9997 11.4271C17.5318 11.4271 19.2372 8.76975 19.2372 6.969C19.2373 6.063 18.854 5.1925 18.1851 4.58038ZM15.9998 11.0521C14.7362 11.0521 13.1368 8.5205 13.1368 6.969C13.1368 6.8885 13.1402 6.80688 13.1471 6.72138C13.148 6.7115 13.1488 6.70175 13.1506 6.68863C13.1597 6.61275 13.1801 6.52725 13.2115 6.43388C13.5068 5.54288 14.3581 4.948 15.292 4.948C15.3746 4.948 15.4578 4.95263 15.5415 4.96213C15.7045 4.981 15.873 4.99063 16.0422 4.99063C16.6652 4.99063 17.2656 4.85913 17.721 4.62638C17.7841 4.7095 17.8548 4.78688 17.9323 4.85738C18.5233 5.39838 18.8623 6.168 18.8623 6.969C18.8623 8.54413 17.2993 11.0521 15.9998 11.0521Z" fill="#3A312A"/>
<path d="M14.9228 6.63647C14.7584 6.63647 14.625 6.76985 14.625 6.93423C14.625 7.0986 14.7583 7.23198 14.9228 7.23198C15.0873 7.23198 15.2205 7.09873 15.2205 6.93423C15.2205 6.76972 15.0871 6.63647 14.9228 6.63647Z" fill="#3A312A"/>
<path d="M17.077 6.63647C16.9127 6.63647 16.7793 6.76985 16.7793 6.93423C16.7793 7.0986 16.9125 7.23198 17.077 7.23198C17.2415 7.23198 17.3748 7.09873 17.3748 6.93423C17.3748 6.76972 17.2415 6.63647 17.077 6.63647Z" fill="#3A312A"/>
<path d="M14.3293 7.43597C14.046 7.43597 13.8164 7.6076 13.8164 7.81935C13.8164 8.0311 14.046 8.20285 14.3293 8.20285C14.6125 8.20285 14.8422 8.03122 14.8422 7.81935C14.8422 7.6076 14.6125 7.43597 14.3293 7.43597Z" fill="#F59689"/>
<path d="M17.673 7.43597C17.3898 7.43597 17.1602 7.6076 17.1602 7.81935C17.1602 8.0311 17.3898 8.20285 17.673 8.20285C17.9563 8.20285 18.1859 8.03122 18.1859 7.81935C18.1859 7.6076 17.9563 7.43597 17.673 7.43597Z" fill="#F59689"/>
<path d="M16.9098 8.74272C16.8131 8.70647 16.7048 8.75547 16.6684 8.85247C16.6078 9.01447 16.3799 9.25547 16.0012 9.25547C15.6773 9.25547 15.4632 9.12272 15.3276 8.83772C15.2832 8.74422 15.1713 8.70459 15.0777 8.74897C14.9842 8.79347 14.9444 8.90534 14.9889 8.99884C15.1884 9.41784 15.5289 9.63047 16.0012 9.63047C16.5346 9.63047 16.9031 9.29534 17.0197 8.98409C17.0559 8.88722 17.0068 8.7791 16.9098 8.74272Z" fill="#3A312A"/>
<path d="M16.2899 2.03409C15.2582 1.96959 14.3454 2.44671 13.899 2.87796C13.2254 3.43146 12.8789 4.43359 12.8789 5.34947C12.8789 5.51684 12.9084 6.46897 12.9619 6.70459C12.9707 6.60284 12.9965 6.49171 13.0352 6.37471C13.387 5.31271 14.4532 4.64934 15.5648 4.77596C15.7193 4.79359 15.8795 4.80284 16.0438 4.80284C17.3254 4.80284 18.3644 4.23934 18.3644 3.54421C18.3643 2.84909 17.415 2.10446 16.2899 2.03409Z" fill="#87796F"/>
<path d="M16.3017 1.847C15.2628 1.78188 14.2859 2.24688 13.7742 2.73788C13.106 3.2905 12.6914 4.29025 12.6914 5.34938C12.6914 5.47138 12.7183 6.47863 12.779 6.74588C12.7985 6.83175 12.8749 6.89188 12.9618 6.89188C12.9662 6.89188 12.9704 6.89175 12.9748 6.8915C13.067 6.88513 13.1408 6.8125 13.1488 6.7205C13.1559 6.63775 13.1775 6.54125 13.2133 6.43363C13.5347 5.46375 14.514 4.8455 15.5437 4.96225C15.7068 4.98088 15.875 4.99038 16.0439 4.99038C17.4503 4.99038 18.5519 4.35513 18.5519 3.54425C18.5518 2.715 17.5003 1.92188 16.3017 1.847ZM16.0438 4.61538C15.8892 4.61538 15.7352 4.60675 15.586 4.58975C14.5648 4.47313 13.5845 4.9775 13.0802 5.82688C13.0713 5.61275 13.0664 5.42363 13.0664 5.3495C13.0664 4.41113 13.4399 3.49775 14.018 3.023C14.0219 3.01975 14.0257 3.0165 14.0293 3.01288C14.4518 2.60475 15.2422 2.21588 16.1028 2.21588C16.1609 2.21588 16.2195 2.21763 16.2782 2.22125C17.3474 2.28813 18.1768 2.98725 18.1768 3.54413C18.1768 4.12488 17.2 4.61538 16.0438 4.61538Z" fill="#3A312A"/>
<path d="M16.2884 2.03409C15.2566 1.96959 14.3439 2.44671 13.8975 2.87796C13.2239 3.43147 12.9359 2.75759 12.6636 3.07534C12.3155 3.48147 13.1857 4.77597 15.5632 4.77597C15.7187 4.77597 15.878 4.80284 16.0422 4.80284C17.3239 4.80284 18.3629 4.23934 18.3629 3.54422C18.3627 2.84909 17.4135 2.10446 16.2884 2.03409Z" fill="#87796F"/>
<path d="M16.3006 1.84698C15.2629 1.78273 14.2852 2.24673 13.7733 2.73761C13.4676 2.98648 13.2913 2.92423 13.1048 2.85836C12.9513 2.80423 12.7196 2.72236 12.5216 2.95323C12.3764 3.12248 12.3632 3.37173 12.4852 3.63711C12.7888 4.29723 13.8584 4.96336 15.5636 4.96336C15.6324 4.96336 15.7044 4.96936 15.7808 4.97586C15.8647 4.98286 15.9514 4.99023 16.0426 4.99023C17.4489 4.99023 18.5506 4.35498 18.5506 3.54411C18.5507 2.71498 17.4992 1.92186 16.3006 1.84698ZM16.0427 4.61536C15.9673 4.61536 15.8921 4.60898 15.8124 4.60223C15.7317 4.59548 15.6483 4.58848 15.5637 4.58848C13.8013 4.58848 13.0023 3.86373 12.8261 3.48048C12.7696 3.35761 12.7621 3.24923 12.8064 3.19736C12.8192 3.18248 12.8267 3.17373 12.8456 3.17373C12.8672 3.17373 12.9038 3.18511 12.9801 3.21211C13.1912 3.28661 13.5444 3.41111 14.0169 3.02298C14.0208 3.01973 14.0246 3.01648 14.0282 3.01286C14.4793 2.57711 15.3499 2.16273 16.2772 2.22136C17.3464 2.28823 18.1758 2.98736 18.1758 3.54423C18.1757 4.12486 17.1989 4.61536 16.0427 4.61536Z" fill="#3A312A"/>
<path d="M11.4894 16.2842H9.82325H8.8125V21.0342H13.5625V16.2842H11.4894Z" fill="#D5DE58"/>
<path d="M13.5625 16.0966H11.4895C11.3859 16.0966 11.302 16.1805 11.302 16.2841C11.302 16.3877 11.3859 16.4716 11.4895 16.4716H13.375V20.8466H9V16.4716H9.82337C9.927 16.4716 10.0109 16.3877 10.0109 16.2841C10.0109 16.1805 9.927 16.0966 9.82337 16.0966H8.8125C8.70888 16.0966 8.625 16.1805 8.625 16.2841V21.0341C8.625 21.1377 8.70888 21.2216 8.8125 21.2216H13.5625C13.6661 21.2216 13.75 21.1377 13.75 21.0341V16.2841C13.7499 16.1806 13.666 16.0966 13.5625 16.0966Z" fill="#3A312A"/>
<path d="M13.5625 16.2842V21.0342H18.3125V19.5492V17.7632V16.2842H13.5625Z" fill="#D5DE58"/>
<path d="M18.3125 17.9506C18.4161 17.9506 18.5 17.8667 18.5 17.7631V16.2841C18.5 16.1805 18.4161 16.0966 18.3125 16.0966H13.5625C13.4589 16.0966 13.375 16.1805 13.375 16.2841V21.0341C13.375 21.1377 13.4589 21.2216 13.5625 21.2216H18.3125C18.4161 21.2216 18.5 21.1377 18.5 21.0341V19.5492C18.5 19.4456 18.4161 19.3617 18.3125 19.3617C18.2089 19.3617 18.125 19.4456 18.125 19.5492V20.8466H13.75V16.4716H18.125V17.7631C18.125 17.8667 18.2089 17.9506 18.3125 17.9506Z" fill="#3A312A"/>
<path d="M18.3125 16.2842V17.7632V19.5492V21.0342H23.0625V16.2842H18.3125Z" fill="#D5DE58"/>
<path d="M23.0625 16.0966H18.3125C18.2089 16.0966 18.125 16.1805 18.125 16.2841V17.7631C18.125 17.8667 18.2089 17.9506 18.3125 17.9506C18.4161 17.9506 18.5 17.8667 18.5 17.7631V16.4716H22.875V20.8466H18.5V19.5492C18.5 19.4456 18.4161 19.3617 18.3125 19.3617C18.2089 19.3617 18.125 19.4456 18.125 19.5492V21.0341C18.125 21.1377 18.2089 21.2216 18.3125 21.2216H23.0625C23.1661 21.2216 23.25 21.1377 23.25 21.0341V16.2841C23.25 16.1806 23.166 16.0966 23.0625 16.0966Z" fill="#3A312A"/>
<path d="M16 29.9717C18.1401 29.9717 19.875 28.2368 19.875 26.0967C19.875 23.9566 18.1401 22.2217 16 22.2217C13.8599 22.2217 12.125 23.9566 12.125 26.0967C12.125 28.2368 13.8599 29.9717 16 29.9717Z" fill="#F8E4C8"/>
<path d="M16 22.0341C13.76 22.0341 11.9375 23.8566 11.9375 26.0966C11.9375 28.3366 13.76 30.1591 16 30.1591C18.24 30.1591 20.0625 28.3366 20.0625 26.0966C20.0625 23.8566 18.2401 22.0341 16 22.0341ZM16 29.7841C13.9668 29.7841 12.3125 28.1299 12.3125 26.0966C12.3125 24.0634 13.9668 22.4091 16 22.4091C18.0333 22.4091 19.6875 24.0634 19.6875 26.0966C19.6875 28.1299 18.0334 29.7841 16 29.7841Z" fill="#3A312A"/>
<path d="M18.2718 26.2693C18.2718 25.6513 17.8363 25.1355 17.2555 25.0108C17.2761 24.9194 17.2879 24.8246 17.2879 24.727C17.2879 24.0159 16.7114 23.4393 16.0001 23.4393C15.289 23.4393 14.7124 24.0158 14.7124 24.727C14.7124 24.8246 14.7241 24.9194 14.7448 25.0108C14.164 25.1355 13.7285 25.6513 13.7285 26.2693C13.7285 26.9804 14.305 27.557 15.0163 27.557C15.2715 27.557 15.5086 27.4818 15.7088 27.3538L14.9001 28.7543H17.1L16.2914 27.3538C16.4915 27.4819 16.7286 27.557 16.9839 27.557C17.6953 27.5569 18.2718 26.9804 18.2718 26.2693Z" fill="#87796F"/>
<path d="M18.4591 26.2693C18.4591 25.639 18.0514 25.0791 17.4674 24.8759C17.4726 24.8259 17.4753 24.7763 17.4753 24.7271C17.4753 23.9136 16.8135 23.2519 16 23.2519C15.1865 23.2519 14.5249 23.9136 14.5249 24.7271C14.5249 24.7763 14.5275 24.826 14.5328 24.8759C13.9488 25.0791 13.541 25.6391 13.541 26.2693C13.541 27.0826 14.2028 27.7444 15.0163 27.7444C15.1053 27.7444 15.1938 27.7364 15.2805 27.7205L14.7379 28.6605C14.7044 28.7185 14.7044 28.79 14.7379 28.848C14.7714 28.906 14.8333 28.9418 14.9003 28.9418H17.1001C17.1671 28.9418 17.229 28.906 17.2625 28.848C17.296 28.79 17.296 28.7185 17.2625 28.6605L16.7199 27.7205C16.8066 27.7364 16.895 27.7444 16.9841 27.7444C17.7974 27.7444 18.4591 27.0826 18.4591 26.2693ZM16.129 27.4474L16.7751 28.5666H15.2249L15.871 27.4474C15.9143 27.3725 15.9006 27.2778 15.8381 27.218C15.7755 27.1583 15.6804 27.149 15.6075 27.1958C15.4301 27.3094 15.2256 27.3694 15.0161 27.3694C14.4094 27.3694 13.9159 26.8759 13.9159 26.2693C13.9159 25.7543 14.281 25.3021 14.784 25.1941C14.833 25.1836 14.8756 25.154 14.9026 25.1118C14.9296 25.0695 14.9386 25.0184 14.9276 24.9696C14.9093 24.8876 14.8999 24.806 14.8999 24.727C14.8999 24.1203 15.3934 23.6268 16 23.6268C16.6068 23.6268 17.1003 24.1204 17.1003 24.727C17.1003 24.806 17.0909 24.8876 17.0725 24.9696C17.0615 25.0185 17.0705 25.0696 17.0975 25.1118C17.1245 25.1539 17.1671 25.1835 17.2161 25.1941C17.7191 25.3021 18.0843 25.7543 18.0843 26.2693C18.0843 26.8759 17.5906 27.3694 16.984 27.3694C16.7746 27.3694 16.57 27.3094 16.3926 27.1958C16.32 27.1491 16.2246 27.1584 16.162 27.2181C16.0994 27.2778 16.0858 27.3725 16.129 27.4474Z" fill="#3A312A"/>
<path d="M21 16.4713H22.875V20.8463H21V16.4713Z" fill="#B9C239"/>
</svg>
