<svg width="86" height="86" viewBox="0 0 86 86" fill="none" xmlns="http://www.w3.org/2000/svg">
<path d="M15.9205 16.294C15.5933 20.1788 11.5449 20.7922 11.5449 20.7922C15.0209 20.9558 15.8869 25.5151 15.8869 25.5151C15.9612 22.2643 20.3619 20.7441 20.3619 20.7441C17.0654 20.5466 15.9205 16.294 15.9205 16.294Z" fill="#D6DF58"/>
<path d="M20.3922 20.2409C17.5014 20.0679 16.417 16.2013 16.4063 16.1623C16.3421 15.9261 16.117 15.7723 15.8745 15.7921C15.6309 15.8143 15.4385 16.0078 15.418 16.2513C15.1291 19.6829 11.6175 20.2705 11.4694 20.2937C11.213 20.3323 11.0283 20.559 11.0417 20.8177C11.0551 21.0764 11.2624 21.2827 11.5214 21.2951C14.5543 21.4379 15.384 25.5675 15.3921 25.6092C15.4381 25.848 15.6471 26.018 15.8866 26.018C15.9007 26.018 15.9151 26.0177 15.9293 26.0163C16.1859 25.9948 16.3851 25.7835 16.3912 25.5262C16.4567 22.6677 20.4869 21.2339 20.5276 21.2198C20.7543 21.1409 20.8944 20.9128 20.8615 20.6746C20.8279 20.4368 20.632 20.255 20.3922 20.2409ZM15.8345 23.7162C15.3787 22.6647 14.5885 21.3959 13.2858 20.7341C14.2704 20.2621 15.4388 19.4195 16.0411 17.9549C16.5622 18.9865 17.4517 20.2661 18.8408 20.8852C17.8307 21.4362 16.5155 22.3654 15.8345 23.7162Z" fill="#3A312A"/>
<path d="M8.63176 21.9982C8.4003 24.7458 5.53711 25.1799 5.53711 25.1799C7.9955 25.2954 8.60825 28.5204 8.60825 28.5204C8.66066 26.2213 11.7735 25.1459 11.7735 25.1459C9.44171 25.0062 8.63176 21.9982 8.63176 21.9982Z" fill="#D6DF58"/>
<path d="M11.8034 24.6427C9.86635 24.5268 9.12527 21.8927 9.11788 21.8662C9.05406 21.6303 8.83166 21.4741 8.58643 21.496C8.34254 21.5178 8.15005 21.7116 8.12956 21.9555C7.93505 24.2637 5.56098 24.6655 5.46154 24.6813C5.20522 24.7199 5.02045 24.9467 5.03389 25.2054C5.04733 25.4641 5.2546 25.6703 5.51361 25.6827C7.54099 25.7782 8.10806 28.5866 8.11343 28.6141C8.15878 28.8533 8.36841 29.024 8.60827 29.024C8.62204 29.024 8.63615 29.0233 8.65026 29.0223C8.90725 29.0008 9.10646 28.7892 9.11251 28.5315C9.15618 26.6136 11.9112 25.6313 11.9384 25.6219C12.1655 25.5433 12.3059 25.3152 12.273 25.0771C12.2398 24.8392 12.0432 24.6571 11.8034 24.6427ZM8.58341 26.9254C8.273 26.2918 7.79731 25.5994 7.08949 25.1516C7.71299 24.8019 8.33145 24.2681 8.72584 23.5002C9.08093 24.1297 9.61742 24.8285 10.3857 25.2548C9.76423 25.6246 9.04566 26.1756 8.58341 26.9254Z" fill="#3A312A"/>
<path d="M8.63176 13.0428C8.4003 15.7904 5.53711 16.2245 5.53711 16.2245C7.9955 16.34 8.60825 19.565 8.60825 19.565C8.66066 17.2655 11.7735 16.1905 11.7735 16.1905C9.44171 16.0511 8.63176 13.0428 8.63176 13.0428Z" fill="#D6DF58"/>
<path d="M11.8034 15.6873C9.86636 15.5714 9.12528 12.9373 9.11789 12.9107C9.05406 12.6749 8.83167 12.5184 8.58643 12.5405C8.34254 12.5624 8.15005 12.7562 8.12956 13.0001C7.93505 15.3083 5.56098 15.7101 5.46154 15.7259C5.20522 15.7645 5.02045 15.9913 5.03389 16.2503C5.04733 16.509 5.2546 16.7152 5.51327 16.7277C7.54066 16.8231 8.10806 19.6315 8.1131 19.6591C8.15845 19.8982 8.36807 20.0689 8.60793 20.0689C8.62171 20.0689 8.63582 20.0686 8.64992 20.0672C8.90692 20.0461 9.10613 19.8341 9.11217 19.5764C9.15585 17.6585 11.9112 16.6759 11.9381 16.6665C12.1655 16.5879 12.3056 16.3598 12.2727 16.1216C12.2398 15.8838 12.0432 15.7017 11.8034 15.6873ZM8.58341 17.97C8.273 17.3367 7.79731 16.644 7.08949 16.1965C7.71299 15.8468 8.33146 15.313 8.72585 14.5451C9.08093 15.1743 9.61742 15.8734 10.3857 16.3C9.76423 16.6695 9.04566 17.2201 8.58341 17.97Z" fill="#3A312A"/>
<path d="M57.9196 27.8687H28.0867C15.6362 27.8687 5.54297 37.962 5.54297 50.4125C5.54297 62.863 15.6362 72.9562 28.0867 72.9562H57.92C70.3705 72.9562 80.4637 62.863 80.4637 50.4125C80.4634 37.9616 70.3702 27.8687 57.9196 27.8687Z" fill="#8AC5DC"/>
<path d="M57.9197 27.3648H28.0867C15.3782 27.3648 5.03906 37.704 5.03906 50.4125C5.03906 63.121 15.3782 73.4601 28.0867 73.4601H30.1585C30.4369 73.4601 30.6624 73.2347 30.6624 72.9562C30.6624 72.6777 30.4369 72.4523 30.1585 72.4523H28.0867C15.9339 72.4523 6.04688 62.5653 6.04688 50.4125C6.04688 38.2596 15.9339 28.3726 28.0867 28.3726H57.92C70.0729 28.3726 79.9598 38.2596 79.9598 50.4125C79.9598 62.5653 70.0729 72.4523 57.92 72.4523H34.7964C34.5179 72.4523 34.2925 72.6777 34.2925 72.9562C34.2925 73.2347 34.5179 73.4601 34.7964 73.4601H57.92C70.6285 73.4601 80.9677 63.121 80.9677 50.4125C80.9673 37.7036 70.6282 27.3648 57.9197 27.3648Z" fill="#3A312A"/>
<path d="M56.9784 32.9437H29.0273C19.3796 32.9437 11.5586 40.7647 11.5586 50.4125C11.5586 60.0603 19.3796 67.8812 29.0273 67.8812H56.9787C66.6265 67.8812 74.4474 60.0603 74.4474 50.4125C74.4471 40.7647 66.6261 32.9437 56.9784 32.9437Z" fill="#F16C7A"/>
<path d="M56.9784 32.4398H52.4284C52.1499 32.4398 51.9245 32.6652 51.9245 32.9437C51.9245 33.2222 52.1499 33.4476 52.4284 33.4476H56.9784C66.3329 33.4476 73.9432 41.058 73.9432 50.4125C73.9432 59.767 66.3329 67.3773 56.9784 67.3773H29.0273C19.6728 67.3773 12.0625 59.767 12.0625 50.4125C12.0625 41.058 19.6728 33.4476 29.0273 33.4476H47.7985C48.077 33.4476 48.3024 33.2222 48.3024 32.9437C48.3024 32.6652 48.077 32.4398 47.7985 32.4398H29.0273C19.1172 32.4398 11.0547 40.5023 11.0547 50.4125C11.0547 60.3226 19.1172 68.3851 29.0273 68.3851H56.9787C66.8888 68.3851 74.9513 60.3226 74.9513 50.4125C74.9513 40.5023 66.8885 32.4398 56.9784 32.4398Z" fill="#3A312A"/>
<path d="M18.4805 63.8332C18.202 63.8332 17.9766 64.0586 17.9766 64.3371V70.8106C17.9766 71.0891 18.202 71.3145 18.4805 71.3145C18.759 71.3145 18.9844 71.0891 18.9844 70.8106V64.3371C18.9844 64.0586 18.759 63.8332 18.4805 63.8332Z" fill="#3A312A"/>
<path d="M18.4805 29.5104C18.202 29.5104 17.9766 29.7359 17.9766 30.0143V36.4879C17.9766 36.7663 18.202 36.9918 18.4805 36.9918C18.759 36.9918 18.9844 36.7663 18.9844 36.4879V30.0143C18.9844 29.7359 18.759 29.5104 18.4805 29.5104Z" fill="#3A312A"/>
<path d="M43.0039 67.3773C42.7254 67.3773 42.5 67.6027 42.5 67.8812V72.9572C42.5 73.2357 42.7254 73.4611 43.0039 73.4611C43.2824 73.4611 43.5078 73.2357 43.5078 72.9572V67.8812C43.5078 67.6027 43.2824 67.3773 43.0039 67.3773Z" fill="#3A312A"/>
<path d="M43.0039 27.3638C42.7254 27.3638 42.5 27.5892 42.5 27.8677V32.9437C42.5 33.2222 42.7254 33.4476 43.0039 33.4476C43.2824 33.4476 43.5078 33.2222 43.5078 32.9437V27.8677C43.5078 27.5892 43.2824 27.3638 43.0039 27.3638Z" fill="#3A312A"/>
<path d="M67.5273 63.8332C67.2489 63.8332 67.0234 64.0586 67.0234 64.3371V70.8106C67.0234 71.0891 67.2489 71.3145 67.5273 71.3145C67.8058 71.3145 68.0312 71.0891 68.0312 70.8106V64.3371C68.0312 64.0586 67.8058 63.8332 67.5273 63.8332Z" fill="#3A312A"/>
<path d="M67.5273 29.5104C67.2489 29.5104 67.0234 29.7359 67.0234 30.0143V36.4879C67.0234 36.7663 67.2489 36.9918 67.5273 36.9918C67.8058 36.9918 68.0312 36.7663 68.0312 36.4879V30.0143C68.0312 29.7359 67.8058 29.5104 67.5273 29.5104Z" fill="#3A312A"/>
<path d="M11.5635 50.2445H5.54688C5.26838 50.2445 5.04297 50.4699 5.04297 50.7484C5.04297 51.0269 5.26838 51.2523 5.54688 51.2523H11.5635C11.842 51.2523 12.0674 51.0269 12.0674 50.7484C12.0674 50.4699 11.8417 50.2445 11.5635 50.2445Z" fill="#3A312A"/>
<path d="M80.46 50.2445H74.4434C74.1649 50.2445 73.9395 50.4699 73.9395 50.7484C73.9395 51.0269 74.1649 51.2523 74.4434 51.2523H80.46C80.7385 51.2523 80.9639 51.0269 80.9639 50.7484C80.9639 50.4699 80.7385 50.2445 80.46 50.2445Z" fill="#3A312A"/>
<path d="M56.9785 33.4476H52.4299C52.4242 33.4476 52.4188 33.4463 52.4128 33.4459C52.4131 33.4506 52.4135 33.455 52.4138 33.4597C61.5506 33.7123 68.9043 41.2158 68.9043 50.4125C68.9043 59.7683 61.2953 67.3773 51.9395 67.3773H56.9785C66.3344 67.3773 73.9434 59.7683 73.9434 50.4125C73.9434 41.0566 66.3344 33.4476 56.9785 33.4476Z" fill="#D34E5C"/>
<path d="M34.0663 44.6009H31.5591V52.0933H31.4544L26.3121 44.6009H24.1016V56.5143H26.6204V49.016H26.7076L31.8907 56.5143H34.0663V44.6009Z" fill="#CEB9AA"/>
<path d="M36.1473 56.5143H44.1982V54.4376H38.6661V51.593H43.7619V49.5163H38.6661V46.6776H44.1749V44.6009H36.1473V56.5143Z" fill="#CEB9AA"/>
<path d="M48.8591 56.5143H51.314L53.5768 48.7252H53.6699L55.9385 56.5143H58.3934L61.8022 44.6009H59.0507L57.0787 52.896H56.974L54.8042 44.6009H52.4483L50.2727 52.8786H50.1738L48.2018 44.6009H45.4503L48.8591 56.5143Z" fill="#CEB9AA"/>
<path fill-rule="evenodd" clip-rule="evenodd" d="M34.886 43.7818V57.3333H31.4618L27.4401 51.5152V57.3333H23.2832V43.7818H26.744L30.7407 49.6051V43.7818H34.886ZM31.5598 52.0933H31.4551L26.3127 44.6009H24.1023V56.5143H26.6211V49.0161H26.7083L31.8913 56.5143H34.0669V44.6009H31.5598V52.0933ZM35.329 57.3333V43.7818H48.8493L50.2605 49.7054L51.8174 43.7818H55.4373L56.9916 49.7241L58.4042 43.7818H62.8891L59.0116 57.3333H55.3247L53.625 51.4976L51.9296 57.3333H48.2423L44.9947 45.9833V47.4966H39.4859V48.6973H44.5816V52.4121H39.4859V53.6185H45.0179V57.3333H35.329ZM53.5775 48.7252H53.6706L55.9392 56.5143H58.3941L61.8029 44.6009H59.0514L57.0794 52.8961H56.9747L54.8049 44.6009H52.449L50.2734 52.8786H50.1745L48.2025 44.6009H45.451L48.8598 56.5143H51.3146L53.5775 48.7252ZM44.1989 54.4376V56.5143H36.148V44.6009H44.1756V46.6776H38.6668V49.5163H43.7626V51.593H38.6668V54.4376H44.1989Z" fill="#3A312A"/>
</svg>
