<svg width="38" height="13" viewBox="0 0 38 13" fill="none" xmlns="http://www.w3.org/2000/svg">
<path d="M13.7599 0.0848389L11.7022 12.8897H14.9911L17.0476 0.0848389H13.7599ZM23.6806 5.30083C22.5313 4.73325 21.8267 4.35018 21.8267 3.76967C21.8407 3.24186 22.4225 2.70112 23.7217 2.70112C24.7902 2.67428 25.5756 2.9254 26.1714 3.17525L26.4699 3.30847L26.917 0.629371C26.2674 0.378254 25.2373 0.101561 23.965 0.101561C20.7171 0.101561 18.4301 1.79024 18.4159 4.20544C18.389 5.98771 20.0533 6.97672 21.2987 7.57002C22.571 8.17863 23.0041 8.57322 23.0041 9.11396C22.9901 9.94418 21.9754 10.3272 21.0285 10.3272C19.7166 10.3272 19.0118 10.13 17.942 9.66735L17.5089 9.47005L17.049 12.2543C17.8216 12.5977 19.2424 12.9 20.7172 12.9154C24.1689 12.9154 26.4149 11.2523 26.4432 8.67833C26.4544 7.26634 25.5769 6.18487 23.6806 5.30083ZM35.3489 0.124466H32.8043C32.0202 0.124466 31.4244 0.350009 31.0849 1.15465L26.1994 12.8897H29.6511L30.6017 10.349H34.4635L34.9567 12.9H38.0011L35.3489 0.124466ZM31.559 7.78502C31.6256 7.79148 32.8839 3.63758 32.8839 3.63758L33.8858 7.78502C33.8858 7.78502 32.2086 7.78502 31.559 7.78502ZM8.95393 0.0848389L5.73156 8.78457L5.38053 7.06891C4.78471 5.08934 2.91671 2.93819 0.832031 1.86964L3.78277 12.8769H7.26272L12.4339 0.0862433H8.95393V0.0848389Z" fill="#2394BC"/>
</svg>
