<svg width="60" height="60" viewBox="0 0 60 60" fill="none" xmlns="http://www.w3.org/2000/svg">
<path d="M50.7049 22.8734C50.2927 17.9358 48.1601 13.3502 44.606 9.82547C40.6739 5.92571 35.4577 3.77789 29.9182 3.77789C24.3785 3.77789 19.1625 5.92571 15.2309 9.82571C11.6677 13.3596 9.53437 17.9599 9.13148 22.9123C6.11086 23.6688 3.86719 26.4061 3.86719 29.6576V49.2689C3.86719 53.1028 6.98648 56.2221 10.8204 56.2221H49.1796C53.0135 56.2221 56.1328 53.1028 56.1328 49.2689V29.6576C56.1328 26.3475 53.8078 23.5702 50.7049 22.8734Z" fill="#87796F"/>
<path d="M51.0326 22.5914C50.5627 17.6815 48.3745 13.0681 44.8535 9.57587C40.8548 5.61048 35.5507 3.42657 29.918 3.42657C24.2855 3.42657 18.9809 5.61072 14.9831 9.57611C11.4509 13.0795 9.26203 17.7091 8.80266 22.6369C5.67703 23.5331 3.51562 26.3848 3.51562 29.6576V37.2891C3.51562 37.4831 3.67289 37.6406 3.86719 37.6406C4.06148 37.6406 4.21875 37.4831 4.21875 37.2891V29.6576C4.21875 26.6238 6.27398 23.9902 9.2168 23.2533C9.36305 23.2167 9.46969 23.0911 9.48188 22.9409C9.87656 18.0881 12.0061 13.5192 15.4781 10.0753C19.3437 6.24118 24.4718 4.12947 29.918 4.12947C35.3639 4.12947 40.4923 6.24095 44.358 10.0751C47.8209 13.5092 49.9505 18.0649 50.3543 22.9024C50.3672 23.0555 50.4778 23.1825 50.6276 23.2163C53.6138 23.8868 55.781 26.5959 55.781 29.6574V49.2687C55.781 52.9088 52.8195 55.8703 49.1794 55.8703H10.8204C7.18031 55.8706 4.21875 52.909 4.21875 49.2689V40.6357C4.21875 40.4416 4.06148 40.2841 3.86719 40.2841C3.67289 40.2841 3.51562 40.4416 3.51562 40.6357V49.2689C3.51562 53.2969 6.79242 56.5737 10.8204 56.5737H49.1796C53.2076 56.5737 56.4844 53.2969 56.4844 49.2689V29.6576C56.4844 26.3562 54.2067 23.4253 51.0326 22.5914Z" fill="#3A312A"/>
<path d="M11.1367 6.14389C10.9084 8.85397 8.08398 9.28194 8.08398 9.28194C10.5091 9.39608 11.1133 12.577 11.1133 12.577C11.1651 10.309 14.2354 9.24842 14.2354 9.24842C11.9355 9.11084 11.1367 6.14389 11.1367 6.14389Z" fill="#D6DF58"/>
<path d="M14.256 8.89757C12.2395 8.77687 11.4831 6.07944 11.4756 6.05202C11.4309 5.88749 11.2734 5.77968 11.1046 5.79374C10.9347 5.80921 10.8004 5.94421 10.7861 6.11413C10.5845 8.50827 8.13462 8.91819 8.03126 8.93413C7.85243 8.96132 7.72353 9.11952 7.7329 9.29999C7.74228 9.48069 7.88689 9.6246 8.06759 9.63304C10.1835 9.73265 10.7624 12.6138 10.7681 12.6431C10.8002 12.8098 10.946 12.9283 11.1131 12.9283C11.1227 12.9283 11.1327 12.9279 11.1426 12.9272C11.3217 12.9122 11.4606 12.7648 11.4649 12.585C11.5103 10.5907 14.3221 9.59038 14.3507 9.58054C14.5089 9.52569 14.6067 9.36632 14.5837 9.20038C14.5602 9.03421 14.4234 8.90741 14.256 8.89757ZM11.0767 11.3224C10.7587 10.5886 10.2074 9.70358 9.29853 9.24186C9.98548 8.9128 10.8006 8.32476 11.2209 7.30312C11.5844 8.02288 12.205 8.91562 13.1742 9.34757C12.4692 9.73147 11.5516 10.3798 11.0767 11.3224Z" fill="#3A312A"/>
<path d="M6.05164 10.1236C5.89016 12.0405 3.89258 12.3431 3.89258 12.3431C5.60773 12.424 6.03523 14.6738 6.03523 14.6738C6.0718 13.0697 8.24352 12.3195 8.24352 12.3195C6.61672 12.2222 6.05164 10.1236 6.05164 10.1236Z" fill="#D6DF58"/>
<path d="M8.26439 11.9686C6.91298 11.8877 6.39595 10.05 6.39079 10.0315C6.34626 9.86696 6.19158 9.75797 6.02001 9.77321C5.84986 9.78844 5.71556 9.92391 5.70126 10.0938C5.56556 11.704 3.909 11.9843 3.83986 11.9953C3.66103 12.0225 3.53212 12.1807 3.5415 12.3612C3.55087 12.5419 3.69548 12.6858 3.87618 12.6942C5.29064 12.7608 5.68626 14.7202 5.69001 14.7394C5.72165 14.9065 5.8679 15.0253 6.03501 15.0253C6.04486 15.0253 6.05447 15.0248 6.06431 15.0241C6.24361 15.0094 6.38259 14.8617 6.38681 14.6817C6.41728 13.3439 8.33962 12.6584 8.35861 12.6518C8.51728 12.597 8.61502 12.4378 8.59205 12.2716C8.56884 12.1055 8.43197 11.9784 8.26439 11.9686ZM6.0179 13.5612C5.80134 13.1191 5.46947 12.6361 4.97564 12.3237C5.41064 12.0797 5.84212 11.7073 6.11728 11.1715C6.36501 11.6107 6.73931 12.0982 7.27533 12.3959C6.84197 12.6537 6.3404 13.0381 6.0179 13.5612Z" fill="#3A312A"/>
<path d="M6.05164 3.87585C5.89016 5.79281 3.89258 6.09562 3.89258 6.09562C5.60773 6.17624 6.03523 8.42624 6.03523 8.42624C6.0718 6.82195 8.24352 6.07195 8.24352 6.07195C6.61672 5.97445 6.05164 3.87585 6.05164 3.87585Z" fill="#D6DF58"/>
<path d="M8.26439 5.72087C6.91298 5.64002 6.39595 3.80205 6.39079 3.78353C6.34626 3.619 6.1897 3.5079 6.02025 3.52525C5.85009 3.54048 5.71556 3.67595 5.70126 3.84587C5.56556 5.45626 3.909 5.73634 3.83986 5.74736C3.66103 5.77455 3.53212 5.93275 3.5415 6.11322C3.55087 6.29392 3.69548 6.43783 3.87595 6.44627C5.2904 6.51283 5.68626 8.47244 5.68978 8.49166C5.72142 8.65877 5.86767 8.7776 6.03478 8.7776C6.04462 8.7776 6.05423 8.77713 6.06407 8.77642C6.24337 8.76166 6.38236 8.614 6.38657 8.434C6.41704 7.09619 8.33939 6.41064 8.35837 6.40408C8.51704 6.34923 8.61478 6.19009 8.59181 6.02392C8.56884 5.85775 8.43196 5.73072 8.26439 5.72087ZM6.0179 7.31345C5.80134 6.87142 5.46946 6.38837 4.97564 6.07595C5.4104 5.83197 5.84212 5.45955 6.11728 4.92376C6.36501 5.36275 6.73931 5.85048 7.27532 6.14814C6.84196 6.40595 6.3404 6.79033 6.0179 7.31345Z" fill="#3A312A"/>
<path d="M49.1789 26.2209H49.0195C48.0562 26.2209 47.2711 25.4428 47.2617 24.4795C47.175 15.0038 39.3937 7.29282 29.918 7.29282C20.4398 7.29282 12.6609 15.0014 12.5789 24.4772C12.5695 25.4428 11.7844 26.2209 10.8211 26.2209C8.925 26.2209 7.38281 27.7631 7.38281 29.6569V49.2694C7.38281 51.1655 8.925 52.7053 10.8211 52.7053H49.1789C51.075 52.7053 52.6172 51.1655 52.6172 49.2694V29.6569C52.6172 27.7631 51.075 26.2209 49.1789 26.2209Z" fill="#EF6D7A"/>
<path d="M49.1789 25.8694H49.0195C48.2517 25.8694 47.6208 25.2443 47.6133 24.4765C47.5247 14.8076 39.5866 6.94147 29.918 6.94147C20.247 6.94147 12.311 14.8069 12.2273 24.4741C12.2198 25.2436 11.5889 25.8696 10.8211 25.8696C8.73141 25.8696 7.03125 27.5686 7.03125 29.6571V49.2698C7.03125 51.3581 8.73141 53.0571 10.8211 53.0571H32.9913C33.1854 53.0571 33.3429 52.8996 33.3429 52.7055C33.3429 52.5115 33.1854 52.354 32.9913 52.354H10.8211C9.11906 52.354 7.73438 50.9705 7.73438 49.2698V29.6571C7.73438 27.9562 9.11906 26.5727 10.8211 26.5727C11.973 26.5727 12.9192 25.6343 12.9305 24.4805C13.0109 15.1973 20.6313 7.64459 29.918 7.64459C39.2027 7.64459 46.8253 15.1983 46.9102 24.4833C46.9214 25.6355 47.8676 26.5727 49.0195 26.5727H49.1789C50.8809 26.5727 52.2656 27.9562 52.2656 29.6571V49.2698C52.2656 50.9705 50.8809 52.354 49.1789 52.354H36.2273C36.0333 52.354 35.8758 52.5115 35.8758 52.7055C35.8758 52.8996 36.0333 53.0571 36.2273 53.0571H49.1789C51.2686 53.0571 52.9688 51.3581 52.9688 49.2698V29.6571C52.9688 27.5683 51.2686 25.8694 49.1789 25.8694Z" fill="#3A312A"/>
<path d="M35.9108 17.853C36.4951 17.2835 36.1726 16.2914 35.3654 16.174L32.8098 15.8027C32.4892 15.7561 32.2121 15.5548 32.0687 15.2644L30.9259 12.9488C30.5647 12.217 29.5215 12.217 29.1604 12.9488L28.0175 15.2644C27.8741 15.5548 27.5971 15.7563 27.2764 15.8027L24.7208 16.174C23.9134 16.2914 23.5911 17.2835 24.1752 17.853L26.0244 19.6556C26.2565 19.8818 26.3622 20.2076 26.3075 20.5268L25.8709 23.0719C25.7329 23.876 26.5771 24.4894 27.2992 24.1097L29.5848 22.9081C29.8717 22.7573 30.2141 22.7573 30.501 22.9081L32.7866 24.1097C33.5087 24.4894 34.3527 23.876 34.2149 23.0719L33.7785 20.5268C33.7236 20.2076 33.8296 19.8818 34.0616 19.6556L35.9108 17.853Z" fill="#D5DE58"/>
<path d="M36.1547 18.105C36.5215 17.7473 36.6511 17.2221 36.4925 16.7351C36.334 16.248 35.9211 15.8998 35.4141 15.8262L32.8585 15.4547C32.6525 15.4247 32.4743 15.2953 32.3822 15.1085L31.2394 12.7926C31.0128 12.3333 30.5536 12.048 30.0413 12.048C29.5292 12.048 29.0701 12.3335 28.8434 12.7926L27.7004 15.1085C27.6083 15.2953 27.4301 15.4247 27.2239 15.4547L24.6685 15.8262C24.1615 15.8995 23.7483 16.248 23.5899 16.7351C23.4315 17.2223 23.5611 17.7471 23.9279 18.105L25.7771 19.9073C25.9261 20.0526 25.9943 20.2622 25.959 20.4675L25.5223 23.0126C25.4358 23.5174 25.6395 24.018 26.0539 24.3192C26.288 24.4894 26.562 24.5756 26.8379 24.5756C27.0502 24.5756 27.2637 24.5245 27.4611 24.4209L29.7465 23.2193C29.9311 23.1222 30.1515 23.1222 30.3354 23.2193L32.6213 24.4209C33.075 24.6595 33.6136 24.6206 34.028 24.3192C34.4424 24.0183 34.6463 23.5174 34.5596 23.0126L34.1232 20.4675C34.088 20.2622 34.156 20.0529 34.305 19.9073L36.1547 18.105ZM33.8147 19.4039C33.4995 19.7112 33.3558 20.153 33.4304 20.5865L33.8668 23.1314C33.9085 23.3742 33.8143 23.6055 33.615 23.7504C33.4156 23.8952 33.1665 23.9133 32.9487 23.7984L30.6626 22.5968C30.2738 22.3929 29.8093 22.3926 29.4195 22.5968L27.1339 23.7984C26.9159 23.913 26.6668 23.8952 26.4673 23.7504C26.2681 23.6058 26.1739 23.3744 26.2156 23.1316L26.6522 20.5863C26.7265 20.1527 26.5829 19.7109 26.2679 19.4039L24.4186 17.6015C24.2422 17.4298 24.1824 17.1869 24.2586 16.9526C24.3347 16.7184 24.5258 16.5574 24.7695 16.522L27.3249 16.1505C27.7599 16.0875 28.1361 15.8142 28.3308 15.42L29.4736 13.1041C29.5826 12.8833 29.7947 12.7514 30.0411 12.7514C30.2874 12.7514 30.4995 12.8833 30.6087 13.1041L31.7513 15.42C31.9461 15.8144 32.3222 16.0877 32.7572 16.1505L35.3126 16.522C35.5564 16.5574 35.7472 16.7184 35.8236 16.9526C35.8997 17.1867 35.8397 17.4295 35.6635 17.6015L33.8147 19.4039Z" fill="#3A312A"/>
<path d="M49.1789 26.5725H49.0195C47.8664 26.5725 46.9219 25.635 46.9101 24.4819C46.8258 15.1983 39.2016 7.64438 29.918 7.64438C29.325 7.64438 28.7391 7.67485 28.1602 7.73578C36.6305 8.61703 43.3148 15.7913 43.3945 24.4819C43.4062 25.635 44.3508 26.5725 45.5039 26.5725H45.6633C47.3648 26.5725 48.75 27.9553 48.75 29.6569V49.2694C48.75 50.9709 47.3648 52.3538 45.6633 52.3538H49.1789C50.8805 52.3538 52.2656 50.9709 52.2656 49.2694V29.6569C52.2656 27.9553 50.8805 26.5725 49.1789 26.5725Z" fill="#D24E5C"/>
<path d="M15.6951 45L16.7207 41.8491H21.7069L22.7324 45H25.8631L21.0996 31.1818H17.3347L12.5645 45H15.6951ZM17.4629 39.5685L19.1632 34.3395H19.2711L20.9714 39.5685H17.4629Z" fill="#D5DE58"/>
<path d="M27.5263 45H36.3718V42.5913H30.4478V31.1818H27.5263V45Z" fill="#D5DE58"/>
<path d="M38.3066 45H47.1521V42.5913H41.2281V31.1818H38.3066V45Z" fill="#D5DE58"/>
<path fill-rule="evenodd" clip-rule="evenodd" d="M16.4221 46H11.1621L16.6228 30.1818H21.8134L26.5271 43.8554V30.1818H31.4486V41.5913H37.3073V30.1818H42.2289V41.5913H48.1529V46H22.007L20.9815 42.8491H17.4476L16.4221 46ZM16.7215 41.8491L15.6959 45H12.5652L17.3355 31.1818H21.1004L25.8639 45H22.7332L21.7076 41.8491H16.7215ZM17.4637 39.5685H20.9722L19.2719 34.3395H19.164L17.4637 39.5685ZM18.8404 38.5685H19.5955L19.2179 37.4074L18.8404 38.5685ZM36.3726 42.5913V45H27.5271V31.1818H30.4486V42.5913H36.3726ZM47.1529 42.5913V45H38.3073V31.1818H41.2289V42.5913H47.1529Z" fill="#3A312A"/>
</svg>
