<svg width="10" height="10" viewBox="0 0 10 10" fill="none" xmlns="http://www.w3.org/2000/svg">
<path d="M9.7142 1.36704C9.5671 1.21968 9.3284 1.21943 9.18129 1.36642L4.65995 5.87583L3.02866 4.10409C2.8877 3.95109 2.64938 3.94116 2.49612 4.0821C2.34297 4.22306 2.33317 4.4615 2.47413 4.61464L4.37112 6.67481C4.44059 6.75032 4.53782 6.79417 4.64034 6.7963C4.64309 6.79642 4.64575 6.79642 4.64838 6.79642C4.74801 6.79642 4.84385 6.75685 4.91446 6.68649L9.71346 1.90007C9.86094 1.7531 9.8612 1.51441 9.7142 1.36704Z" fill="url(#paint0_linear)"/>
<path d="M9.62311 4.62311C9.41494 4.62311 9.24623 4.79182 9.24623 5C9.24623 7.34146 7.34146 9.24623 5 9.24623C2.65867 9.24623 0.75377 7.34146 0.75377 5C0.75377 2.65867 2.65867 0.75377 5 0.75377C5.20816 0.75377 5.37689 0.585059 5.37689 0.376895C5.37689 0.168711 5.20816 0 5 0C2.24297 0 0 2.24297 0 5C0 7.75691 2.24297 10 5 10C7.75691 10 10 7.75691 10 5C10 4.79184 9.83129 4.62311 9.62311 4.62311Z" fill="#ADAFBA"/>
<defs>
<linearGradient id="paint0_linear" x1="6.09939" y1="1.25635" x2="6.09939" y2="6.79642" gradientUnits="userSpaceOnUse">
<stop stop-color="#02EBAD"/>
<stop offset="1" stop-color="#B3F080"/>
</linearGradient>
</defs>
</svg>
