<svg width="12" height="12" viewBox="0 0 12 12" fill="none" xmlns="http://www.w3.org/2000/svg">
<g clip-path="url(#clip0)">
<path d="M11.657 1.64016C11.4805 1.46332 11.194 1.46302 11.0175 1.63941L5.59189 7.0507L3.63434 4.92462C3.46519 4.74101 3.17921 4.7291 2.99529 4.89823C2.81152 5.06738 2.79975 5.3535 2.9689 5.53728L5.24529 8.00949C5.32866 8.10009 5.44533 8.15271 5.56836 8.15527C5.57166 8.15541 5.57485 8.15541 5.57801 8.15541C5.69757 8.15541 5.81257 8.10792 5.8973 8.0235L11.6561 2.27979C11.8331 2.10342 11.8334 1.817 11.657 1.64016Z" fill="url(#paint0_linear)"/>
<path d="M11.5477 5.54748C11.2979 5.54748 11.0955 5.74994 11.0955 5.99976C11.0955 8.80951 8.80976 11.0952 6 11.0952C3.19041 11.0952 0.904523 8.80951 0.904523 5.99976C0.904523 3.19016 3.19041 0.904279 6 0.904279C6.2498 0.904279 6.45227 0.701826 6.45227 0.452029C6.45227 0.202209 6.2498 -0.000244141 6 -0.000244141C2.69156 -0.000244141 0 2.69132 0 5.99976C0 9.30805 2.69156 11.9998 6 11.9998C9.3083 11.9998 12 9.30805 12 5.99976C12 5.74996 11.7975 5.54748 11.5477 5.54748Z" fill="white"/>
</g>
<defs>
<linearGradient id="paint0_linear" x1="7.31921" y1="1.50732" x2="7.31921" y2="8.15541" gradientUnits="userSpaceOnUse">
<stop stop-color="#02EBAD"/>
<stop offset="1" stop-color="#B3F080"/>
</linearGradient>
<clipPath id="clip0">
<rect width="12" height="12" fill="white" transform="translate(0 -0.000244141)"/>
</clipPath>
</defs>
</svg>
