<svg width="172" height="66" viewBox="0 0 172 66" fill="none" xmlns="http://www.w3.org/2000/svg">
<path d="M0 2.3335V48.8759H12.3628V21.7868H12.7264L23.0894 48.5123H30.5434L40.9064 21.9686H41.27V48.8759H53.6328V2.3335H37.9066L27.0891 28.6954H26.5437L15.7262 2.3335H0Z" fill="white"/>
<path d="M71.7112 48.8759L74.3928 39.9674H89.7554L92.4371 48.8759H106.073L90.7099 2.3335H73.4383L58.0757 48.8759H71.7112ZM77.2563 30.5135L81.8923 15.1508H82.2559L86.892 30.5135H77.2563Z" fill="white"/>
<path d="M124.1 2.3335H109.919L123.736 25.6047L109.464 48.8759H123.827L131.736 35.0586H132.099L140.008 48.8759H154.461L138.991 26.8773L131.736 15.8781L124.1 2.3335Z" fill="white"/>
<path d="M172 2.3335H159.364V48.8759H172V2.3335Z" fill="white"/>
<path d="M156.537 1.13971L144.992 22.8779L136.993 10.8787L142.72 0.879395L156.537 1.13971Z" fill="#55B56B"/>
<path d="M8.83054 60.2746C8.83054 57.0548 6.97456 55.0474 4.41527 55.0474C1.85598 55.0474 0 57.0548 0 60.2746C0 63.4944 1.85598 65.5018 4.41527 65.5018C6.97456 65.5018 8.83054 63.4944 8.83054 60.2746ZM7.65834 60.2746C7.65834 62.918 6.23217 64.349 4.41527 64.349C2.59837 64.349 1.1722 62.918 1.1722 60.2746C1.1722 57.6312 2.59837 56.2001 4.41527 56.2001C6.23217 56.2001 7.65834 57.6312 7.65834 60.2746Z" fill="white"/>
<path d="M24.2318 55.1865H23.0401V63.1962H22.9424L17.4722 55.1865H16.3V65.3626H17.5112V57.3728H17.6089L23.0596 65.3626H24.2318V55.1865Z" fill="white"/>
<path d="M32.0883 65.3626H37.9493V64.2695H33.2996V55.1865H32.0883V65.3626Z" fill="white"/>
<path d="M46.4688 55.1865H45.2575V65.3626H46.4688V55.1865Z" fill="white"/>
<path d="M62.262 55.1865H61.0703V63.1962H60.9726L55.5024 55.1865H54.3302V65.3626H55.5415V57.3728H55.6391L61.0898 65.3626H62.262V55.1865Z" fill="white"/>
<path d="M70.1185 65.3626H76.2335V64.2695H71.3298V60.8112H75.8428V59.7181H71.3298V56.2796H76.1553V55.1865H70.1185V65.3626Z" fill="white"/>
<path d="M101.268 58.4957C100.926 56.3194 99.2507 55.0474 97.1359 55.0474C94.5473 55.0474 92.6376 57.02 92.6376 60.2746C92.6376 63.5292 94.5375 65.5018 97.1359 65.5018C99.3337 65.5018 100.941 64.1006 101.268 62.0882L99.744 62.0832C99.4851 63.3851 98.4106 64.1006 97.1456 64.1006C95.4313 64.1006 94.137 62.764 94.137 60.2746C94.137 57.8051 95.4264 56.4486 97.1505 56.4486C98.4253 56.4486 99.4949 57.179 99.744 58.4957H101.268Z" fill="white"/>
<path d="M109.284 65.3626L110.203 62.6695H114.11L115.023 65.3626H116.625L113.026 55.1865H111.282L107.682 65.3626H109.284ZM110.642 61.3776L112.117 57.0349H112.195L113.67 61.3776H110.642Z" fill="white"/>
<path d="M128.877 57.8597H130.333C130.289 56.2299 128.873 55.0474 126.841 55.0474C124.833 55.0474 123.295 56.215 123.295 57.969C123.295 59.3851 124.291 60.2149 125.898 60.6572L127.08 60.9851C128.15 61.2733 128.975 61.6311 128.975 62.5354C128.975 63.5292 128.042 64.185 126.758 64.185C125.595 64.185 124.628 63.6583 124.54 62.5503H123.026C123.124 64.3937 124.526 65.5316 126.767 65.5316C129.117 65.5316 130.47 64.2745 130.47 62.5503C130.47 60.7168 128.863 60.0063 127.593 59.6882L126.616 59.4299C125.835 59.2261 124.794 58.8535 124.799 57.8796C124.799 57.015 125.576 56.374 126.807 56.374C127.954 56.374 128.77 56.9206 128.877 57.8597Z" fill="white"/>
<path d="M139.215 55.1865H137.706V65.3626H139.215V55.1865Z" fill="white"/>
<path d="M154.919 55.1865H153.425V62.6596H153.332L148.243 55.1865H146.846V65.3626H148.355V57.8995H148.448L153.532 65.3626H154.919V55.1865Z" fill="white"/>
<path d="M171.242 60.2746C171.242 57.02 169.328 55.0474 166.739 55.0474C164.141 55.0474 162.231 57.02 162.231 60.2746C162.231 63.5242 164.141 65.5018 166.739 65.5018C169.328 65.5018 171.242 63.5292 171.242 60.2746ZM169.748 60.2746C169.748 62.754 168.458 64.1006 166.739 64.1006C165.015 64.1006 163.73 62.754 163.73 60.2746C163.73 57.7951 165.015 56.4486 166.739 56.4486C168.458 56.4486 169.748 57.7951 169.748 60.2746Z" fill="white"/>
</svg>
