<svg width="12" height="27" viewBox="0 0 12 27" fill="#fff" xmlns="http://www.w3.org/2000/svg">
<path d="M3.955 1.39066C4.9594 0.38835 6.3813 0.0476705 7.72885 0.00821905C9.15113 -0.00493143 10.5734 0.00164381 11.9953 0.00164381C12.0016 1.58052 12.0016 3.15283 11.9953 4.73171C11.0785 4.73171 10.1551 4.73171 9.23838 4.73171C8.65812 4.69226 8.05947 5.15746 7.95344 5.7669C7.94092 6.82181 7.94718 7.87632 7.94718 8.93123C9.29434 8.93781 10.6419 8.93124 11.989 8.93781C11.8893 10.4641 11.7085 11.9842 11.4964 13.4912C10.305 13.5043 9.11357 13.4912 7.92214 13.4977C7.90962 17.9985 7.9284 22.4927 7.91588 26.9938C6.14419 27.0004 4.37915 26.9873 2.60745 27.0004C2.57615 22.4997 2.60745 17.9989 2.58867 13.4977C1.72787 13.4912 0.860804 13.5043 0 13.4912C0.00626039 11.9776 0 10.4645 0 8.95754C0.860804 8.94439 1.72787 8.95754 2.58867 8.95096C2.61371 7.48345 2.56363 6.00936 2.61371 4.54185C2.70762 3.3694 3.1255 2.19654 3.955 1.39066Z" fill="#fff"/>
</svg>
