<svg width="27" height="27" viewBox="0 0 27 27" fill="#fff" xmlns="http://www.w3.org/2000/svg">
<path d="M13.5243 6.50439C9.63854 6.50439 6.47656 9.62024 6.47656 13.4505C6.47656 17.2803 9.6381 20.3961 13.5243 20.3961C17.4101 20.3961 20.5721 17.2803 20.5721 13.4505C20.5721 9.62024 17.4101 6.50439 13.5243 6.50439ZM13.5243 17.839C11.0535 17.839 9.04368 15.87 9.04368 13.4505C9.04368 11.0306 11.0535 9.062 13.5243 9.062C15.9947 9.062 18.005 11.0306 18.005 13.4505C18.005 15.8704 15.9952 17.839 13.5243 17.839Z" fill="#fff"/>
<path d="M19.2284 0H7.77157C3.48656 0 0 3.4726 0 7.74143V19.2586C0 23.527 3.48612 27 7.77157 27H19.2284C23.5139 27 27 23.527 27 19.2586V7.74143C27 3.47304 23.5139 0 19.2284 0ZM24.428 19.2586C24.428 22.1144 22.0954 24.438 19.2284 24.438H7.77157C4.90459 24.438 2.57198 22.1144 2.57198 19.2586V7.74143C2.57198 4.88558 4.90459 2.562 7.77157 2.562H19.2284C22.0954 2.562 24.428 4.88558 24.428 7.74143V19.2586Z" fill="#fff"/>
<path d="M20.6973 7.87253C21.6132 7.87253 22.3556 7.13297 22.3556 6.22069C22.3556 5.3084 21.6132 4.56885 20.6973 4.56885C19.7815 4.56885 19.0391 5.3084 19.0391 6.22069C19.0391 7.13297 19.7815 7.87253 20.6973 7.87253Z" fill="#fff"/>
</svg>
