<svg width="111" height="67" viewBox="0 0 111 67" fill="none" xmlns="http://www.w3.org/2000/svg">
<path d="M0 3C0 1.34315 1.34315 0 3 0H108C109.657 0 111 1.34315 111 3V64C111 65.6569 109.657 67 108 67H3C1.34314 67 0 65.6569 0 64V3Z" fill="#1085D3"/>
<g clip-path="url(#clip0)">
<path d="M61.8631 29.4C62.5869 26.4452 60.8217 24 56.4973 24H47.1248L43.6133 38.4516L45.6516 42.0065H52.3191C56.6878 42.0065 60.0724 39.9355 60.9423 36.3355C61.3805 34.4903 60.8725 33.2 59.7295 32.5548V32.5097C60.8134 31.7963 61.5792 30.6801 61.8631 29.4ZM56.1481 36.2194C55.9703 36.9742 55.4686 37.7484 53.3922 37.7484H49.1377L49.8807 34.6516H54.1161C56.1671 34.6452 56.3195 35.4387 56.1227 36.2194H56.1481ZM56.999 29.4968C56.8466 30.0774 56.4084 30.7871 54.6178 30.7871H50.8078L51.4428 28.271H55.2527C57.0625 28.2581 57.1514 28.8516 56.999 29.4968Z" fill="white"/>
<path d="M67.7618 35.0323H76.2962L77.2677 30.7742H68.7905L69.4509 28.2581H77.8456L78.8171 24H65.0377L60.6689 42H76.2771L77.2995 37.7419H67.1332L67.7618 35.0323Z" fill="white"/>
<path d="M80.0111 24L79.0332 28.2581H84.1322L80.7858 42H86.1388L89.4916 28.2581H94.9525L96.0003 24H80.0111Z" fill="white"/>
<path d="M20.6007 42H15.2032L17.54 32.3871L18.0797 30.9355L16.651 32.3871L15.0635 34.0194L15 29.2194L20.6007 24H24.9631L20.6007 42Z" fill="#002F5E"/>
<path d="M40.0889 34.5419L38.368 31.5806L46.7182 24H38.9395L35.7646 27.0968L24.995 37.129L19.8262 42H27.1858L32.7166 36.9871L34.5771 40.2129C35.2121 41.0258 36.1075 42.0129 39.9047 42.0129H44.3497L40.0952 34.5355L40.0889 34.5419Z" fill="#002F5E"/>
<path d="M35.1672 26.1033V26.0645C34.6907 25.3892 34.055 24.8463 33.3183 24.4856C32.5816 24.1249 31.7675 23.9579 30.9508 24H25.2041L29.4903 31.4065L35.1672 26.1033Z" fill="#002F5E"/>
</g>
<defs>
<clipPath id="clip0">
<rect width="81" height="18" fill="white" transform="translate(15 24)"/>
</clipPath>
</defs>
</svg>
