<svg width="114" height="26" viewBox="0 0 114 26" fill="none" xmlns="http://www.w3.org/2000/svg">
<path d="M65.9554 7.8C66.9742 3.5319 64.4897 0 58.4036 0H45.2127L40.2705 20.8746L43.1393 26.0093H52.5231C58.6717 26.0093 63.4351 23.0179 64.6595 17.8179C65.2761 15.1527 64.5612 13.2889 62.9525 12.357V12.2918C64.478 11.2613 65.5559 9.64897 65.9554 7.8ZM57.9121 17.6502C57.6619 18.7405 56.9558 19.8588 54.0334 19.8588H48.0457L49.0913 15.3857H55.0523C57.9389 15.3763 58.1534 16.5226 57.8763 17.6502H57.9121ZM59.1096 7.93979C58.8951 8.77849 58.2785 9.80359 55.7583 9.80359H50.3961L51.2898 6.16918H56.652C59.199 6.15054 59.3241 7.00789 59.1096 7.93979Z" fill="white"/>
<path d="M74.257 15.9355H86.2683L87.6357 9.78495H75.7048L76.6342 6.15054H88.4489L89.8163 0H70.4231L64.2744 26H86.2415L87.6803 19.8495H73.3723L74.257 15.9355Z" fill="white"/>
<path d="M91.4964 0L90.1201 6.15054H97.2965L92.5867 26H100.121L104.839 6.15054H112.525L114 0H91.4964Z" fill="white"/>
<path d="M7.88241 26H0.285983L3.57479 12.1147L4.33443 10.0179L2.32361 12.1147L0.0893697 14.4724L0 7.53907L7.88241 0H14.0221L7.88241 26Z" fill="#002F5E"/>
<path d="M35.3099 15.2272L32.8879 10.9498L44.6401 0H33.6923L29.2238 4.47312L14.0667 18.9642L6.79199 26H17.1499L24.934 18.7591L27.5526 23.4186C28.4463 24.5928 29.7064 26.0186 35.0507 26.0186H41.3066L35.3188 15.2179L35.3099 15.2272Z" fill="#002F5E"/>
<path d="M28.3834 3.03793V2.98202C27.7129 2.00657 26.8182 1.22234 25.7813 0.701303C24.7445 0.180264 23.5988 -0.0609016 22.4493 -6.25486e-05H14.3613L20.3938 10.6981L28.3834 3.03793Z" fill="#002F5E"/>
</svg>
