<svg width="25" height="25" viewBox="0 0 25 25" fill="none" xmlns="http://www.w3.org/2000/svg">
<path d="M24.6285 12.4998C24.6285 19.1983 19.1983 24.6285 12.4998 24.6285C8.96862 24.6285 5.78991 23.1196 3.57357 20.7112C2.99139 20.079 2.47604 19.3845 2.03743 18.6394C0.978519 16.8384 0.371094 14.7399 0.371094 12.4998C0.371094 5.80129 5.80129 0.371094 12.4998 0.371094C14.7404 0.371094 16.8389 0.978519 18.6394 2.03793C19.3845 2.47604 20.0785 2.99139 20.7107 3.57406C23.1191 5.78941 24.6285 8.96862 24.6285 12.4998Z" fill="#F0CD00"/>
<path d="M24.6289 12.4997C24.6289 19.0472 19.4412 24.3829 12.9516 24.62C6.46204 24.3829 1.27441 19.0472 1.27441 12.4997C1.27441 5.95217 6.46204 0.616523 12.9516 0.379395C19.4412 0.616523 24.6289 5.95217 24.6289 12.4997Z" fill="#FFDE50"/>
<path d="M20.7104 3.57398L3.57325 20.7111C2.99107 20.0789 2.47572 19.3844 2.03711 18.6393L18.6391 2.03784C19.3841 2.47596 20.0782 2.99131 20.7104 3.57398Z" fill="#FFEA94"/>
<path d="M23.7917 8.06567L8.06493 23.7924C6.95157 23.3548 5.9184 22.7573 4.99414 22.028L22.0278 4.99438C22.757 5.91864 23.3545 6.95181 23.7917 8.06567Z" fill="#FFEA94"/>
<path d="M21.9247 12.4997C21.9247 17.7047 17.7049 21.9245 12.4999 21.9245C10.6871 21.9245 8.99401 21.4126 7.55688 20.5254C6.93064 20.1393 6.35341 19.6814 5.83559 19.1636C5.4549 18.7834 5.10638 18.37 4.795 17.9289C4.36628 17.3215 4.00737 16.6611 3.73064 15.9596C3.32074 14.9225 3.09005 13.7948 3.07619 12.6155C3.0752 12.5769 3.0752 12.5383 3.0752 12.4997C3.0752 7.29475 7.2945 3.07495 12.4999 3.07495C12.5386 3.07495 12.5777 3.07495 12.6163 3.07594C13.7955 3.0898 14.9227 3.32099 15.9598 3.7304C16.6613 4.00762 17.3217 4.36604 17.9292 4.79475C18.3702 5.10663 18.7831 5.45465 19.1638 5.83535C19.6816 6.35267 20.1395 6.9304 20.5257 7.55663C21.4128 8.99376 21.9247 10.6868 21.9247 12.4997Z" fill="#FAA300"/>
<path d="M19.1638 5.83535L5.83559 19.1636C5.4549 18.7834 5.10638 18.37 4.795 17.9289C4.36628 17.3215 4.00737 16.6611 3.73064 15.9596C3.32074 14.9225 3.09005 13.7948 3.07619 12.6155C3.0752 12.5769 3.0752 12.5383 3.0752 12.4997C3.0752 7.29475 7.2945 3.07495 12.4999 3.07495C12.5386 3.07495 12.5777 3.07495 12.6163 3.07594C13.7955 3.0898 14.9227 3.32099 15.9598 3.7304C16.6613 4.00762 17.3217 4.36604 17.9292 4.79475C18.3702 5.10663 18.7831 5.45465 19.1638 5.83535Z" fill="#FFBD00"/>
<path d="M21.9247 12.4997C21.9247 17.7047 17.7049 21.9245 12.5 21.9245C12.3212 21.9245 12.144 21.9195 11.9678 21.9096C16.9252 21.6339 20.8599 17.5259 20.8599 12.4997C20.8599 7.47347 16.9252 3.36555 11.9678 3.0898C12.144 3.0799 12.3212 3.07495 12.5 3.07495C17.7049 3.07495 21.9247 7.29475 21.9247 12.4997Z" fill="#F68E00"/>
<path d="M12.5 25C9.16114 25 6.02208 23.6998 3.66119 21.3388C1.30025 18.9779 0 15.8389 0 12.5C0 9.16114 1.30025 6.02208 3.66119 3.66119C6.02208 1.30025 9.16114 0 12.5 0C13.648 0 14.7854 0.155644 15.8806 0.462624C16.078 0.51797 16.1932 0.722871 16.1379 0.920346C16.0825 1.11777 15.8778 1.23302 15.6801 1.17767C14.6502 0.88896 13.5802 0.742574 12.5 0.742574C9.3595 0.742574 6.40693 1.96554 4.18624 4.18624C1.96554 6.40693 0.742574 9.3595 0.742574 12.5C0.742574 15.6405 1.96554 18.5931 4.18629 20.8138C6.40693 23.0345 9.3595 24.2574 12.5 24.2574C15.6405 24.2574 18.5931 23.0345 20.8138 20.8138C23.0345 18.5931 24.2574 15.6405 24.2574 12.5C24.2574 10.1253 23.553 7.83738 22.2204 5.88351C20.919 3.9754 19.1066 2.50307 16.9792 1.62579C16.7897 1.54762 16.6994 1.33059 16.7775 1.14099C16.8556 0.951436 17.0727 0.861089 17.2623 0.939307C19.5241 1.87198 21.4506 3.43698 22.8339 5.4651C24.2509 7.54277 25 9.97545 25 12.5C25 15.8389 23.6998 18.9779 21.3388 21.3388C18.9779 23.6998 15.8389 25 12.5 25Z" fill="black"/>
<path d="M12.5001 22.296C7.09861 22.296 2.7041 17.9015 2.7041 12.5C2.7041 7.09856 7.09861 2.7041 12.5001 2.7041C17.9016 2.7041 22.296 7.09856 22.296 12.5C22.296 17.9015 17.9016 22.296 12.5001 22.296ZM12.5001 3.44668C7.50801 3.44668 3.44668 7.50801 3.44668 12.5C3.44668 17.4921 7.50801 21.5534 12.5001 21.5534C17.4921 21.5534 21.5535 17.4921 21.5535 12.5C21.5535 7.50801 17.4921 3.44668 12.5001 3.44668Z" fill="black"/>
<path d="M16.7829 14.8795C16.7829 13.6225 16.1333 12.5151 15.1526 11.8733C15.5556 11.318 15.7941 10.6359 15.7941 9.89891C15.7941 8.62608 15.0846 7.51608 14.0405 6.94297V5.72252C14.0405 5.17569 13.5972 4.73242 13.0504 4.73242C12.5035 4.73242 12.0603 5.17569 12.0603 5.72252V6.52925H10.8653V5.72252C10.8653 5.17569 10.422 4.73242 9.87521 4.73242C9.32838 4.73242 8.88511 5.17569 8.88511 5.72252V6.52925H7.72154C7.17471 6.52925 6.73145 6.97252 6.73145 7.51935C6.73145 8.06618 7.17471 8.50945 7.72154 8.50945H8.06323V12.2785V16.4904H7.72154C7.17471 16.4904 6.73145 16.9337 6.73145 17.4805C6.73145 18.0274 7.17471 18.4706 7.72154 18.4706H8.88511V19.2774C8.88511 19.8242 9.32838 20.2675 9.87521 20.2675C10.422 20.2675 10.8653 19.8242 10.8653 19.2774V18.4706H12.0603V19.2774C12.0603 19.8242 12.5035 20.2675 13.0504 20.2675C13.5972 20.2675 14.0405 19.8242 14.0405 19.2774V18.3685C15.6122 17.986 16.7829 16.5673 16.7829 14.8795ZM10.0435 8.50945H12.4245C13.1907 8.50945 13.8139 9.13277 13.8139 9.89891C13.8139 10.665 13.1906 11.2884 12.4245 11.2884H10.0435V8.50945ZM13.1918 16.4904H10.0434V13.2686H12.4244H13.1918C14.08 13.2686 14.8027 13.9913 14.8027 14.8795C14.8027 15.7678 14.0801 16.4904 13.1918 16.4904Z" fill="#F68E00"/>
<path d="M18.0212 14.8795C18.0212 13.6225 17.3716 12.5151 16.3909 11.8733C16.7939 11.318 17.0324 10.6359 17.0324 9.89891C17.0324 8.62608 16.3229 7.51608 15.2787 6.94297V5.72252C15.2787 5.17569 14.8355 4.73242 14.2886 4.73242C13.7418 4.73242 13.2985 5.17569 13.2985 5.72252V6.52925H12.1036V5.72252C12.1036 5.17569 11.6603 4.73242 11.1135 4.73242C10.5667 4.73242 10.1234 5.17569 10.1234 5.72252V6.52925H8.95983C8.41299 6.52925 7.96973 6.97252 7.96973 7.51935C7.96973 8.06618 8.41299 8.50945 8.95983 8.50945H9.30151V12.2785V16.4904H8.95983C8.41299 16.4904 7.96973 16.9337 7.96973 17.4805C7.96973 18.0274 8.41299 18.4706 8.95983 18.4706H10.1234V19.2774C10.1234 19.8242 10.5667 20.2675 11.1135 20.2675C11.6603 20.2675 12.1036 19.8242 12.1036 19.2774V18.4706H13.2985V19.2774C13.2985 19.8242 13.7418 20.2675 14.2886 20.2675C14.8355 20.2675 15.2787 19.8242 15.2787 19.2774V18.3685C16.8506 17.986 18.0212 16.5673 18.0212 14.8795ZM11.2818 8.50945H13.6627C14.4289 8.50945 15.0522 9.13277 15.0522 9.89891C15.0522 10.665 14.4289 11.2884 13.6627 11.2884H11.2818V8.50945ZM14.4301 16.4904H11.2818V13.2686H13.6627H14.4301C15.3183 13.2686 16.041 13.9913 16.041 14.8795C16.041 15.7678 15.3183 16.4904 14.4301 16.4904Z" fill="#FFEA94"/>
<path d="M14.2888 20.6387C13.5382 20.6387 12.9274 20.028 12.9274 19.2773V18.8419H12.4751V19.2773C12.4751 20.028 11.8643 20.6387 11.1137 20.6387C10.363 20.6387 9.7523 20.028 9.7523 19.2773V18.8419H8.96002C8.20938 18.8419 7.59863 18.2312 7.59863 17.4805C7.59863 16.7397 8.19339 16.1352 8.93042 16.1194V15.7265C8.93042 15.5214 9.0966 15.3552 9.3017 15.3552C9.5068 15.3552 9.67299 15.5214 9.67299 15.7265V16.4903C9.67299 16.6954 9.5068 16.8616 9.3017 16.8616H8.96002C8.61878 16.8616 8.34121 17.1392 8.34121 17.4804C8.34121 17.8217 8.61878 18.0993 8.96002 18.0993H10.1236C10.3287 18.0993 10.4949 18.2655 10.4949 18.4705V19.2773C10.4949 19.6185 10.7724 19.8961 11.1137 19.8961C11.4549 19.8961 11.7325 19.6185 11.7325 19.2773V18.4705C11.7325 18.2655 11.8987 18.0993 12.1038 18.0993H13.2987C13.5038 18.0993 13.67 18.2655 13.67 18.4705V19.2773C13.67 19.6185 13.9476 19.8961 14.2888 19.8961C14.6301 19.8961 14.9076 19.6185 14.9076 19.2773V18.3684C14.9076 18.1971 15.0248 18.0481 15.1912 18.0076C16.639 17.6553 17.6501 16.369 17.6501 14.8795C17.6501 13.7909 17.1034 12.7832 16.1878 12.1839C16.1028 12.1282 16.0443 12.0402 16.0259 11.9403C16.0076 11.8404 16.031 11.7373 16.0906 11.6551C16.464 11.1406 16.6613 10.5333 16.6613 9.89886C16.6613 8.80485 16.0631 7.79693 15.1003 7.26841C14.9815 7.20321 14.9076 7.07846 14.9076 6.94292V5.72247C14.9076 5.38123 14.6301 5.10366 14.2888 5.10366C13.9476 5.10366 13.67 5.38123 13.67 5.72247V6.5292C13.67 6.73425 13.5038 6.90049 13.2987 6.90049H12.1038C11.8987 6.90049 11.7325 6.73425 11.7325 6.5292V5.72247C11.7325 5.38123 11.4549 5.10366 11.1137 5.10366C10.7724 5.10366 10.4949 5.38123 10.4949 5.72247V6.5292C10.4949 6.73425 10.3287 6.90049 10.1236 6.90049H8.96002C8.61878 6.90049 8.34121 7.17806 8.34121 7.5193C8.34121 7.86054 8.61878 8.13811 8.96002 8.13811H9.3017C9.5068 8.13811 9.67299 8.30435 9.67299 8.5094V14.2413C9.67299 14.4463 9.5068 14.6126 9.3017 14.6126C9.0966 14.6126 8.93042 14.4463 8.93042 14.2413V8.88039C8.19334 8.8646 7.59863 8.26009 7.59863 7.5193C7.59863 6.76861 8.20938 6.15792 8.96002 6.15792H9.7523V5.72247C9.7523 4.97178 10.363 4.36108 11.1137 4.36108C11.8643 4.36108 12.4751 4.97178 12.4751 5.72247V6.15792H12.9274V5.72247C12.9274 4.97178 13.5382 4.36108 14.2888 4.36108C15.0395 4.36108 15.6502 4.97178 15.6502 5.72247V6.73074C16.7374 7.4141 17.4039 8.60836 17.4039 9.89891C17.4039 10.5664 17.229 11.2097 16.8952 11.7798C17.8391 12.5299 18.3927 13.6635 18.3927 14.8795C18.3927 16.6138 17.279 18.1242 15.6503 18.6491V19.2773C15.6502 20.028 15.0395 20.6387 14.2888 20.6387ZM14.4303 16.8617H11.2819C11.0768 16.8617 10.9106 16.6954 10.9106 16.4904V13.2686C10.9106 13.0635 11.0768 12.8973 11.2819 12.8973H14.4303C15.5232 12.8973 16.4125 13.7865 16.4125 14.8795C16.4125 15.9725 15.5233 16.8617 14.4303 16.8617ZM11.6532 16.1191H14.4303C15.1138 16.1191 15.6699 15.563 15.6699 14.8795C15.6699 14.1959 15.1138 13.6398 14.4303 13.6398H11.6532V16.1191ZM13.6629 11.6596H11.2819C11.0768 11.6596 10.9106 11.4934 10.9106 11.2884V8.5094C10.9106 8.30435 11.0768 8.13811 11.2819 8.13811H13.6629C14.6338 8.13811 15.4236 8.92801 15.4236 9.89886C15.4236 10.8697 14.6338 11.6596 13.6629 11.6596ZM11.6532 10.9171H13.6629C14.2244 10.9171 14.6811 10.4603 14.6811 9.89891C14.6811 9.33752 14.2243 8.88074 13.6629 8.88074H11.6532V10.9171Z" fill="black"/>
</svg>
