<svg width="24" height="24" viewBox="0 0 24 24" fill="none" xmlns="http://www.w3.org/2000/svg">
<path d="M23.6436 11.9999C23.6436 18.4305 18.4306 23.6435 12 23.6435C8.61007 23.6435 5.5585 22.1949 3.43082 19.8828C2.87193 19.2759 2.3772 18.6092 1.95613 17.8939C0.939574 16.165 0.356445 14.1504 0.356445 11.9999C0.356445 5.56931 5.56944 0.356323 12 0.356323C14.151 0.356323 16.1656 0.939452 17.894 1.95648C18.6093 2.37708 19.2756 2.87181 19.8825 3.43117C22.1945 5.55791 23.6436 8.60995 23.6436 11.9999Z" fill="#F0CD00"/>
<path d="M23.6439 11.9999C23.6439 18.2855 18.6638 23.4077 12.4338 23.6354C6.20375 23.4077 1.22363 18.2855 1.22363 11.9999C1.22363 5.71424 6.20375 0.592023 12.4338 0.36438C18.6638 0.592023 23.6439 5.71424 23.6439 11.9999Z" fill="#FFDE50"/>
<path d="M19.8814 3.43136L3.42977 19.883C2.87088 19.2761 2.37615 18.6093 1.95508 17.8941L17.893 1.95667C18.6082 2.37726 19.2745 2.87199 19.8814 3.43136Z" fill="#FFEA94"/>
<path d="M22.8405 7.74324L7.74288 22.8409C6.67405 22.4208 5.68221 21.8472 4.79492 21.1471L21.1472 4.7948C21.8473 5.68209 22.4209 6.67393 22.8405 7.74324Z" fill="#FFEA94"/>
<path d="M21.0477 12C21.0477 16.9968 16.9967 21.0478 11.9999 21.0478C10.2596 21.0478 8.63421 20.5564 7.25456 19.7048C6.65338 19.3341 6.09924 18.8945 5.60213 18.3973C5.23666 18.0324 4.90209 17.6355 4.60316 17.2121C4.19159 16.6289 3.84704 15.995 3.58138 15.3215C3.18787 14.3259 2.96641 13.2433 2.9531 12.1112C2.95215 12.0742 2.95215 12.0371 2.95215 12C2.95215 7.00328 7.00268 2.95227 11.9999 2.95227C12.037 2.95227 12.0745 2.95227 12.1116 2.95322C13.2436 2.96653 14.3258 3.18847 15.3214 3.5815C15.9948 3.84764 16.6288 4.19172 17.212 4.60328C17.6354 4.90269 18.0318 5.23679 18.3972 5.60225C18.8943 6.09889 19.3339 6.6535 19.7046 7.25469C20.5563 8.63433 21.0477 10.2597 21.0477 12Z" fill="#FAA300"/>
<path d="M18.3972 5.60225L5.60213 18.3973C5.23666 18.0323 4.90209 17.6355 4.60316 17.2121C4.19159 16.6289 3.84704 15.995 3.58138 15.3215C3.18787 14.3259 2.96641 13.2433 2.9531 12.1112C2.95215 12.0742 2.95215 12.0371 2.95215 12C2.95215 7.00328 7.00268 2.95227 11.9999 2.95227C12.037 2.95227 12.0745 2.95227 12.1116 2.95322C13.2436 2.96653 14.3258 3.18847 15.3214 3.5815C15.9948 3.84764 16.6288 4.19172 17.212 4.60328C17.6354 4.90269 18.0318 5.23679 18.3972 5.60225Z" fill="#FFBD00"/>
<path d="M21.0479 12C21.0479 16.9968 16.9969 21.0478 12.0001 21.0478C11.8286 21.0478 11.6584 21.043 11.4893 21.0335C16.2484 20.7688 20.0257 16.8252 20.0257 12C20.0257 7.17485 16.2484 3.23124 11.4893 2.96653C11.6584 2.95702 11.8286 2.95227 12.0001 2.95227C16.9969 2.95227 21.0479 7.00328 21.0479 12Z" fill="#F68E00"/>
<path d="M12 24C8.79469 24 5.7812 22.7518 3.51474 20.4853C1.24824 18.2188 0 15.2053 0 12C0 8.79469 1.24824 5.7812 3.51474 3.51474C5.7812 1.24824 8.79469 0 12 0C13.1021 0 14.194 0.149418 15.2454 0.444119C15.4349 0.497252 15.5455 0.693956 15.4924 0.883533C15.4392 1.07306 15.2427 1.1837 15.0529 1.13057C14.0642 0.853402 13.037 0.712871 12 0.712871C8.98512 0.712871 6.15065 1.88692 4.01879 4.01879C1.88692 6.15065 0.712871 8.98512 0.712871 12C0.712871 15.0149 1.88692 17.8493 4.01884 19.9812C6.15065 22.1131 8.98512 23.2871 12 23.2871C15.0149 23.2871 17.8493 22.1131 19.9812 19.9812C22.1131 17.8493 23.2871 15.0149 23.2871 12C23.2871 9.72033 22.6109 7.52388 21.3316 5.64817C20.0823 3.81638 18.3424 2.40295 16.3 1.56076C16.1181 1.48572 16.0314 1.27737 16.1064 1.09535C16.1814 0.913378 16.3898 0.826646 16.5718 0.901735C18.7431 1.7971 20.5926 3.2995 21.9206 5.2465C23.2809 7.24106 24 9.57643 24 12C24 15.2053 22.7518 18.2188 20.4853 20.4853C18.2188 22.7518 15.2053 24 12 24Z" fill="black"/>
<path d="M12.0008 21.4042C6.8154 21.4042 2.59668 17.1855 2.59668 12C2.59668 6.81462 6.8154 2.59595 12.0008 2.59595C17.1863 2.59595 21.4049 6.81462 21.4049 12C21.4049 17.1855 17.1863 21.4042 12.0008 21.4042ZM12.0008 3.30882C7.20843 3.30882 3.30955 7.2077 3.30955 12C3.30955 16.7924 7.20843 20.6913 12.0008 20.6913C16.7932 20.6913 20.6921 16.7924 20.6921 12C20.6921 7.2077 16.7932 3.30882 12.0008 3.30882Z" fill="black"/>
<path d="M16.1113 14.2843C16.1113 13.0776 15.4877 12.0145 14.5463 11.3983C14.9331 10.8652 15.1621 10.2105 15.1621 9.50292C15.1621 8.28101 14.481 7.21541 13.4786 6.66521V5.49359C13.4786 4.96863 13.053 4.54309 12.5281 4.54309C12.0031 4.54309 11.5776 4.96863 11.5776 5.49359V6.26805H10.4304V5.49359C10.4304 4.96863 10.0049 4.54309 9.47993 4.54309C8.95497 4.54309 8.52943 4.96863 8.52943 5.49359V6.26805H7.41241C6.88745 6.26805 6.46191 6.69359 6.46191 7.21854C6.46191 7.7435 6.88745 8.16904 7.41241 8.16904H7.74043V11.7873V15.8308H7.41241C6.88745 15.8308 6.46191 16.2563 6.46191 16.7813C6.46191 17.3062 6.88745 17.7318 7.41241 17.7318H8.52943V18.5062C8.52943 19.0312 8.95497 19.4567 9.47993 19.4567C10.0049 19.4567 10.4304 19.0312 10.4304 18.5062V17.7318H11.5776V18.5062C11.5776 19.0312 12.0031 19.4567 12.5281 19.4567C13.053 19.4567 13.4786 19.0312 13.4786 18.5062V17.6337C14.9875 17.2666 16.1113 15.9046 16.1113 14.2843ZM9.64146 8.16904H11.9272C12.6628 8.16904 13.2611 8.76742 13.2611 9.50292C13.2611 10.2384 12.6627 10.8368 11.9272 10.8368H9.64146V8.16904ZM12.6638 15.8308H9.64142V12.7378H11.9272H12.6638C13.5165 12.7378 14.2103 13.4316 14.2103 14.2843C14.2103 15.1371 13.5166 15.8308 12.6638 15.8308Z" fill="#F68E00"/>
<path d="M17.2998 14.2843C17.2998 13.0776 16.6762 12.0145 15.7347 11.3983C16.1216 10.8652 16.3506 10.2105 16.3506 9.50292C16.3506 8.28101 15.6694 7.21541 14.667 6.66521V5.49359C14.667 4.96863 14.2415 4.54309 13.7165 4.54309C13.1916 4.54309 12.7661 4.96863 12.7661 5.49359V6.26805H11.6189V5.49359C11.6189 4.96863 11.1934 4.54309 10.6684 4.54309C10.1434 4.54309 9.71791 4.96863 9.71791 5.49359V6.26805H8.60089C8.07593 6.26805 7.65039 6.69359 7.65039 7.21854C7.65039 7.7435 8.07593 8.16904 8.60089 8.16904H8.9289V11.7873V15.8308H8.60089C8.07593 15.8308 7.65039 16.2563 7.65039 16.7813C7.65039 17.3062 8.07593 17.7318 8.60089 17.7318H9.71791V18.5062C9.71791 19.0312 10.1434 19.4567 10.6684 19.4567C11.1934 19.4567 11.6189 19.0312 11.6189 18.5062V17.7318H12.7661V18.5062C12.7661 19.0312 13.1916 19.4567 13.7165 19.4567C14.2415 19.4567 14.667 19.0312 14.667 18.5062V17.6337C16.176 17.2666 17.2998 15.9046 17.2998 14.2843ZM10.8299 8.16904H13.1157C13.8512 8.16904 14.4496 8.76742 14.4496 9.50292C14.4496 10.2384 13.8512 10.8368 13.1157 10.8368H10.8299V8.16904ZM13.8524 15.8308H10.8299V12.7378H13.1157H13.8524C14.7051 12.7378 15.3988 13.4316 15.3988 14.2843C15.3988 15.1371 14.7051 15.8308 13.8524 15.8308Z" fill="#FFEA94"/>
<path d="M13.7165 19.8132C12.9959 19.8132 12.4096 19.2269 12.4096 18.5062V18.0882H11.9753V18.5062C11.9753 19.2269 11.389 19.8132 10.6684 19.8132C9.94778 19.8132 9.36147 19.2269 9.36147 18.5062V18.0882H8.60088C7.88026 18.0882 7.29395 17.5019 7.29395 16.7813C7.29395 16.0701 7.86491 15.4898 8.57246 15.4746V15.0974C8.57246 14.9006 8.732 14.741 8.92889 14.741C9.12579 14.741 9.28533 14.9006 9.28533 15.0974V15.8307C9.28533 16.0276 9.12579 16.1872 8.92889 16.1872H8.60088C8.27329 16.1872 8.00682 16.4536 8.00682 16.7812C8.00682 17.1088 8.27329 17.3753 8.60088 17.3753H9.7179C9.9148 17.3753 10.0743 17.5349 10.0743 17.7317V18.5062C10.0743 18.8338 10.3408 19.1002 10.6684 19.1002C10.996 19.1002 11.2625 18.8338 11.2625 18.5062V17.7317C11.2625 17.5349 11.422 17.3753 11.6189 17.3753H12.766C12.9629 17.3753 13.1225 17.5349 13.1225 17.7317V18.5062C13.1225 18.8338 13.389 19.1002 13.7165 19.1002C14.0441 19.1002 14.3106 18.8338 14.3106 18.5062V17.6336C14.3106 17.4692 14.423 17.3261 14.5828 17.2873C15.9727 16.9491 16.9434 15.7143 16.9434 14.2843C16.9434 13.2393 16.4186 12.2718 15.5395 11.6965C15.4579 11.6431 15.4018 11.5586 15.3841 11.4627C15.3666 11.3668 15.389 11.2678 15.4463 11.1889C15.8047 10.695 15.9941 10.112 15.9941 9.50291C15.9941 8.45266 15.4199 7.48505 14.4956 6.97768C14.3815 6.91509 14.3106 6.79533 14.3106 6.6652V5.49358C14.3106 5.16599 14.0441 4.89952 13.7165 4.89952C13.389 4.89952 13.1225 5.16599 13.1225 5.49358V6.26804C13.1225 6.46489 12.9629 6.62448 12.766 6.62448H11.6189C11.422 6.62448 11.2625 6.46489 11.2625 6.26804V5.49358C11.2625 5.16599 10.996 4.89952 10.6684 4.89952C10.3408 4.89952 10.0743 5.16599 10.0743 5.49358V6.26804C10.0743 6.46489 9.9148 6.62448 9.7179 6.62448H8.60088C8.27329 6.62448 8.00682 6.89095 8.00682 7.21853C8.00682 7.54612 8.27329 7.81259 8.60088 7.81259H8.92889C9.12579 7.81259 9.28533 7.97218 9.28533 8.16903V13.6716C9.28533 13.8685 9.12579 14.0281 8.92889 14.0281C8.732 14.0281 8.57246 13.8685 8.57246 13.6716V8.52518C7.86486 8.51002 7.29395 7.9297 7.29395 7.21853C7.29395 6.49787 7.88026 5.9116 8.60088 5.9116H9.36147V5.49358C9.36147 4.77291 9.94778 4.18665 10.6684 4.18665C11.389 4.18665 11.9753 4.77291 11.9753 5.49358V5.9116H12.4096V5.49358C12.4096 4.77291 12.9959 4.18665 13.7165 4.18665C14.4372 4.18665 15.0235 4.77291 15.0235 5.49358V6.46151C16.0671 7.11754 16.707 8.26403 16.707 9.50295C16.707 10.1437 16.5391 10.7613 16.2187 11.3086C17.1248 12.0287 17.6563 13.117 17.6563 14.2843C17.6563 15.9492 16.5871 17.3992 15.0235 17.9031V18.5062C15.0235 19.2269 14.4372 19.8132 13.7165 19.8132ZM13.8523 16.1872H10.8299C10.633 16.1872 10.4735 16.0276 10.4735 15.8308V12.7378C10.4735 12.541 10.633 12.3814 10.8299 12.3814H13.8523C14.9016 12.3814 15.7552 13.235 15.7552 14.2843C15.7552 15.3336 14.9016 16.1872 13.8523 16.1872ZM11.1864 15.4743H13.8524C14.5085 15.4743 15.0424 14.9405 15.0424 14.2843C15.0424 13.6281 14.5085 13.0942 13.8524 13.0942H11.1864V15.4743ZM13.1156 11.1933H10.8299C10.633 11.1933 10.4735 11.0337 10.4735 10.8368V8.16903C10.4735 7.97218 10.633 7.81259 10.8299 7.81259H13.1156C14.0477 7.81259 14.806 8.5709 14.806 9.50291C14.806 10.4349 14.0477 11.1933 13.1156 11.1933ZM11.1864 10.4804H13.1157C13.6547 10.4804 14.0931 10.0419 14.0931 9.50295C14.0931 8.96402 13.6546 8.52551 13.1157 8.52551H11.1864V10.4804Z" fill="black"/>
</svg>
