<svg width="88" height="88" viewBox="0 0 88 88" fill="none" xmlns="http://www.w3.org/2000/svg">
<path d="M41.2432 62.649H34.3974V58.1999C32.5041 59.5127 30.5447 60.2871 28.6434 60.2871C26.8198 60.2871 24.8951 59.5051 23.0097 58.1765H22.8938V62.6487H16.0439C10.3212 62.6487 5.68262 67.2873 5.68262 73.01V82.3995H51.6045V73.01C51.6045 67.2876 46.966 62.649 41.2432 62.649Z" fill="#F8E4C8"/>
<path d="M41.2429 62.1336H34.9131V58.2C34.9131 58.0082 34.8065 57.8322 34.6363 57.7432C34.4665 57.6545 34.2613 57.6669 34.1035 57.7762C32.1937 59.1003 30.3566 59.7717 28.6434 59.7717C27.0016 59.7717 25.2059 59.0931 23.3067 57.7556C23.2197 57.6944 23.1159 57.6614 23.0097 57.6614H22.8938C22.6092 57.6614 22.3782 57.892 22.3782 58.177V62.1336H16.0443C10.0465 62.1336 5.16699 67.0128 5.16699 73.0105V75.4601C5.16699 75.745 5.39799 75.9757 5.68262 75.9757C5.96724 75.9757 6.19824 75.745 6.19824 75.4601V73.0105C6.19824 67.5817 10.6151 63.1648 16.0443 63.1648H22.8938C23.1785 63.1648 23.4095 62.9342 23.4095 62.6492V59.0639C25.2362 60.2182 26.9941 60.8029 28.6441 60.8029C30.3212 60.8029 32.0795 60.2477 33.8822 59.1508V62.6492C33.8822 62.9342 34.1132 63.1648 34.3978 63.1648H41.2432C46.6724 63.1648 51.0892 67.5817 51.0892 73.0105V81.8844H6.19824V80.3736C6.19824 80.0887 5.96724 79.858 5.68262 79.858C5.39799 79.858 5.16699 80.0887 5.16699 80.3736V82.4C5.16699 82.685 5.39799 82.9157 5.68262 82.9157H51.6045C51.8891 82.9157 52.1201 82.685 52.1201 82.4V73.0105C52.1201 67.0128 47.241 62.1336 41.2429 62.1336Z" fill="#3A312A"/>
<path d="M41.2421 62.6472H39.3996L39.4374 62.6747L32.3183 72.121L28.6437 69.3503L24.969 72.121L17.8499 62.6747L17.8877 62.6472H16.0452C10.3218 62.6472 5.68115 67.2878 5.68115 73.0113V75.4598V80.3737V82.3994H51.6062V73.0116C51.6062 67.2878 46.9655 62.6472 41.2421 62.6472Z" fill="#8AC6DD"/>
<path d="M41.242 62.1316H39.3995C39.1761 62.1316 38.9781 62.2753 38.909 62.4881C38.9035 62.5039 38.8993 62.5204 38.8959 62.5365L32.2165 71.3987L28.954 68.9385C28.7704 68.8 28.5174 68.7997 28.3328 68.9385L25.0699 71.3987L18.3909 62.5365C18.3874 62.5204 18.383 62.5042 18.3778 62.4881C18.3087 62.2753 18.1111 62.1316 17.8873 62.1316H16.0448C10.046 62.1316 5.16544 67.0122 5.16544 73.0113V75.4598C5.16544 75.7448 5.39644 75.9754 5.68106 75.9754C5.96569 75.9754 6.19669 75.7448 6.19669 75.4598V73.0113C6.19669 67.5811 10.6149 63.1628 16.0448 63.1628H17.5714L24.5564 72.4314C24.6389 72.5407 24.7612 72.6125 24.8963 72.6318C25.0332 72.6503 25.1696 72.6153 25.2786 72.5328L28.6429 69.9963L32.0068 72.5328C32.1158 72.6149 32.2533 72.65 32.3887 72.6318C32.5245 72.6129 32.6465 72.5407 32.729 72.4314L39.7144 63.1628H41.241C46.6712 63.1628 51.0891 67.5811 51.0891 73.0113V81.8835H6.19531V80.3734C6.19531 80.0884 5.96431 79.8578 5.67969 79.8578C5.39506 79.8578 5.16406 80.0884 5.16406 80.3734V82.3991C5.16406 82.6841 5.39506 82.9147 5.67969 82.9147H51.6047C51.8893 82.9147 52.1203 82.6841 52.1203 82.3991V73.0113C52.1217 67.0122 47.2411 62.1316 41.242 62.1316Z" fill="#3A312A"/>
<path d="M28.644 69.3232L28.6299 69.3409L28.644 69.3515L28.6582 69.3409L28.644 69.3232Z" fill="#8AC6DD"/>
<path d="M29.0473 69.002C28.8514 68.7566 28.4227 68.7734 28.2264 69.0192C28.1395 69.1285 28.1075 69.2736 28.1254 69.4121C28.1436 69.5506 28.2237 69.6809 28.3358 69.7644C28.4272 69.8325 28.5355 69.8662 28.6438 69.8662C28.752 69.8662 28.8603 69.8322 28.9518 69.7644L28.9655 69.7541C29.0776 69.6706 29.1439 69.5369 29.1621 69.3983C29.18 69.2598 29.1343 69.1113 29.0473 69.002Z" fill="#3A312A"/>
<path d="M28.644 69.3232L28.6299 69.3409L28.644 69.3515L28.6582 69.3409L28.644 69.3232Z" fill="#D5DE58"/>
<path d="M29.0473 69.002C28.8514 68.7566 28.4227 68.7734 28.2264 69.0192C28.1395 69.1285 28.1075 69.2736 28.1254 69.4121C28.1436 69.5506 28.2237 69.6809 28.3358 69.7644C28.4272 69.8325 28.5355 69.8662 28.6438 69.8662C28.752 69.8662 28.8603 69.8322 28.9518 69.7644L28.9655 69.7541C29.0776 69.6706 29.1439 69.5369 29.1621 69.3983C29.18 69.2598 29.1343 69.1113 29.0473 69.002Z" fill="#3A312A"/>
<path d="M28.644 69.3232L28.6299 69.3409L28.644 69.3515L28.6582 69.3409L28.644 69.3232Z" fill="#8AC6DD"/>
<path d="M29.0473 69.002C28.8514 68.7566 28.4227 68.7734 28.2264 69.0192C28.1395 69.1285 28.1075 69.2736 28.1254 69.4121C28.1436 69.5506 28.2237 69.6809 28.3358 69.7644C28.4272 69.8325 28.5355 69.8662 28.6438 69.8662C28.752 69.8662 28.8603 69.8322 28.9518 69.7644L28.9655 69.7541C29.0776 69.6706 29.1439 69.5369 29.1621 69.3983C29.18 69.2598 29.1343 69.1113 29.0473 69.002Z" fill="#3A312A"/>
<path d="M28.644 69.3232L28.6299 69.3409L28.644 69.3515L28.6582 69.3409L28.644 69.3232Z" fill="#8AC6DD"/>
<path d="M29.0473 69.002C28.8514 68.7566 28.4227 68.7734 28.2264 69.0192C28.1395 69.1285 28.1075 69.2736 28.1254 69.4121C28.1436 69.5506 28.2237 69.6809 28.3358 69.7644C28.4272 69.8325 28.5355 69.8662 28.6438 69.8662C28.752 69.8662 28.8603 69.8322 28.9518 69.7644L28.9655 69.7541C29.0776 69.6706 29.1439 69.5369 29.1621 69.3983C29.18 69.2598 29.1343 69.1113 29.0473 69.002Z" fill="#3A312A"/>
<path d="M28.644 69.3232L28.6299 69.3409L28.644 69.3515L28.6582 69.3409L28.644 69.3232Z" fill="#D5DE58"/>
<path d="M29.0473 69.002C28.8514 68.7566 28.4227 68.7734 28.2264 69.0192C28.1395 69.1285 28.1075 69.2736 28.1254 69.4121C28.1436 69.5506 28.2237 69.6809 28.3358 69.7644C28.4272 69.8325 28.5355 69.8662 28.6438 69.8662C28.752 69.8662 28.8603 69.8322 28.9518 69.7644L28.9655 69.7541C29.0776 69.6706 29.1439 69.5369 29.1621 69.3983C29.18 69.2598 29.1343 69.1113 29.0473 69.002Z" fill="#3A312A"/>
<path d="M28.644 69.3232L28.6299 69.3409L28.644 69.3515L28.6582 69.3409L28.644 69.3232Z" fill="#D5DE58"/>
<path d="M29.0611 69.0192L29.0473 69.002C28.8514 68.7566 28.4227 68.7734 28.2264 69.0192C28.1395 69.1285 28.1075 69.2736 28.1254 69.4121C28.1436 69.5506 28.2237 69.6809 28.3358 69.7644C28.4238 69.8297 28.5303 69.8614 28.6379 69.8614C28.7538 69.8614 28.8703 69.8249 28.9652 69.7541C29.0772 69.6706 29.1504 69.5455 29.1687 69.4069C29.1869 69.2684 29.148 69.1285 29.0611 69.0192Z" fill="#3A312A"/>
<path d="M14.0752 74.4641C13.7906 74.4641 13.5596 74.6948 13.5596 74.9797V82.401C13.5596 82.6859 13.7906 82.9166 14.0752 82.9166C14.3598 82.9166 14.5908 82.6859 14.5908 82.401V74.9797C14.5908 74.6948 14.3598 74.4641 14.0752 74.4641Z" fill="#3A312A"/>
<path d="M43.2124 74.4641C42.9278 74.4641 42.6968 74.6948 42.6968 74.9797V82.401C42.6968 82.6859 42.9278 82.9166 43.2124 82.9166C43.497 82.9166 43.728 82.6859 43.728 82.401V74.9797C43.728 74.6948 43.497 74.4641 43.2124 74.4641Z" fill="#3A312A"/>
<path d="M30.4083 75.4607H26.8794L25.8086 82.4017H31.4791L30.4083 75.4607Z" fill="#F16C7A"/>
<path d="M31.9886 82.3232L30.9178 75.3822C30.879 75.1309 30.6628 74.9453 30.4084 74.9453H26.8788C26.6244 74.9453 26.4078 75.1309 26.3693 75.3822L25.2989 82.3232C25.2762 82.4721 25.3192 82.6233 25.4172 82.7374C25.5151 82.8516 25.6581 82.9172 25.8087 82.9172H31.4792C31.6297 82.9172 31.7724 82.8516 31.8707 82.7374C31.9683 82.623 32.0113 82.4717 31.9886 82.3232ZM26.4096 81.886L27.3208 75.9762H29.9657L30.8773 81.886H26.4096Z" fill="#3A312A"/>
<path d="M25.6758 69.3472L26.8686 75.459H30.3903L31.6117 69.3472H25.6758Z" fill="#F16C7A"/>
<path d="M32.0102 69.0203C31.9123 68.901 31.7658 68.8315 31.6115 68.8315H25.6753C25.5213 68.8315 25.3752 68.9003 25.2772 69.0192C25.1796 69.1382 25.14 69.2946 25.1689 69.4458L26.3621 75.5577C26.4095 75.7997 26.6216 75.9743 26.8684 75.9743H30.3901C30.6359 75.9743 30.8477 75.8007 30.8958 75.5598L32.1171 69.4479C32.147 69.2966 32.1082 69.1395 32.0102 69.0203ZM29.9677 74.9434H27.2933L26.3016 69.8628H30.9828L29.9677 74.9434Z" fill="#3A312A"/>
<path d="M17.8672 62.6963L21.5588 59.9148L28.6789 69.3649L24.9873 72.1464L17.8672 62.6963Z" fill="#8AC6DD"/>
<path d="M29.0706 69.0295L21.9523 59.5843C21.8698 59.475 21.7474 59.4031 21.6123 59.3839C21.4748 59.3643 21.339 59.4004 21.2304 59.4829L17.5409 62.2635C17.3134 62.435 17.268 62.7581 17.4392 62.9857L24.5575 72.4313C24.64 72.5406 24.7624 72.6124 24.8975 72.6317C24.9216 72.6351 24.9456 72.6368 24.9694 72.6368C25.0807 72.6368 25.19 72.6007 25.2798 72.533L28.9692 69.7521C29.1968 69.5805 29.2418 69.2571 29.0706 69.0295ZM25.0708 71.399L18.5732 62.777L21.4394 60.6169L27.9369 69.2389L25.0708 71.399Z" fill="#3A312A"/>
<path d="M28.6582 69.3381L35.7783 59.8881L39.47 62.6695L32.3499 72.1196L28.6582 69.3381Z" fill="#8AC6DD"/>
<path d="M39.9474 62.6038C39.9281 62.4684 39.8563 62.346 39.747 62.2639L36.0571 59.4833C35.8303 59.3114 35.5061 59.3571 35.3349 59.5847L28.2166 69.0299C28.1344 69.1392 28.0986 69.2767 28.1179 69.4118C28.1371 69.5473 28.209 69.6696 28.3183 69.7518L32.0081 72.5327C32.0978 72.6004 32.2068 72.6365 32.3182 72.6365C32.3419 72.6365 32.366 72.6348 32.39 72.6314C32.5251 72.6125 32.6475 72.5403 32.73 72.431L39.8484 62.9854C39.9309 62.8768 39.9666 62.7393 39.9474 62.6038ZM32.2171 71.399L29.3506 69.2389L35.8481 60.617L38.7147 62.7771L32.2171 71.399Z" fill="#3A312A"/>
<path fill-rule="evenodd" clip-rule="evenodd" d="M10.8511 32.8865C8.59958 32.8865 6.77393 34.7118 6.77393 36.9637C6.77393 39.2153 8.59924 41.0406 10.8511 41.0406C13.1031 41.0406 14.9284 39.2153 14.9284 36.9637C14.9284 34.7118 13.1031 32.8865 10.8511 32.8865Z" fill="#F8E4C8"/>
<path d="M10.8518 32.3708C8.31937 32.3708 6.25928 34.4313 6.25928 36.9637C6.25928 39.4961 8.31937 41.5562 10.8518 41.5562C13.3842 41.5562 15.4443 39.4958 15.4443 36.9637C15.4446 34.4313 13.3842 32.3708 10.8518 32.3708ZM10.8518 40.5249C8.88793 40.5249 7.29053 38.9275 7.29053 36.9637C7.29053 34.9999 8.88793 33.4021 10.8518 33.4021C12.8156 33.4021 14.413 34.9999 14.413 36.9637C14.413 38.9275 12.8156 40.5249 10.8518 40.5249Z" fill="#3A312A"/>
<path fill-rule="evenodd" clip-rule="evenodd" d="M46.4366 32.8865C44.185 32.8865 42.3594 34.7118 42.3594 36.9637C42.3594 39.2153 44.1847 41.0406 46.4366 41.0406C48.6882 41.0406 50.5135 39.2153 50.5135 36.9637C50.5135 34.7118 48.6885 32.8865 46.4366 32.8865Z" fill="#F8E4C8"/>
<path d="M46.4367 32.3708C43.9043 32.3708 41.8442 34.4313 41.8442 36.9637C41.8442 39.4961 43.9043 41.5562 46.4367 41.5562C48.9692 41.5562 51.0292 39.4958 51.0292 36.9637C51.0292 34.4313 48.9692 32.3708 46.4367 32.3708ZM46.4367 40.5249C44.4729 40.5249 42.8755 38.9275 42.8755 36.9637C42.8755 34.9999 44.4729 33.4021 46.4367 33.4021C48.4006 33.4021 49.998 34.9999 49.998 36.9637C49.998 38.9275 48.4006 40.5249 46.4367 40.5249Z" fill="#3A312A"/>
<path d="M47.5588 25.3917C47.5588 20.586 45.5754 16.2238 42.3475 13.0063C42.5435 13.5667 42.6466 14.1338 42.6466 14.6942C42.6466 16.5917 41.3404 18.3242 39.1885 19.6373C39.6354 20.3798 40.1922 21.0604 40.8454 21.6585C44.1179 24.6492 46.28 28.8292 46.6582 33.511C46.7063 33.4457 46.8129 33.4114 46.8954 33.3804C47.6688 33.0985 47.5588 26.0104 47.5588 25.3917Z" fill="#87796F"/>
<path d="M48.0757 25.611L48.0744 25.3917C48.0744 20.6166 46.17 16.0884 42.7115 12.6409C42.542 12.4718 42.277 12.4412 42.0728 12.5698C41.8693 12.6977 41.7813 12.9493 41.8607 13.1762C42.0398 13.689 42.1306 14.1998 42.1306 14.6942C42.1306 16.3342 40.9904 17.9337 38.9196 19.1973C38.6776 19.3451 38.5999 19.6603 38.7464 19.9033C39.22 20.6909 39.8092 21.4093 40.4974 22.0394C43.7816 25.0403 45.7867 29.1293 46.1439 33.5526C46.1614 33.7668 46.3095 33.9479 46.5161 34.0071C46.5632 34.0205 46.6103 34.027 46.6578 34.027C46.788 34.027 46.9145 33.9775 47.0104 33.8874C47.0235 33.8823 47.0369 33.8778 47.0496 33.873C47.0503 33.873 47.0651 33.8672 47.0723 33.8648C47.5206 33.7015 48.1324 33.4725 48.0757 25.611ZM46.8881 31.4011C46.1308 27.5202 44.1525 23.9819 41.1939 21.2783C40.7044 20.8301 40.2712 20.332 39.9014 19.793C42.0092 18.375 43.1622 16.5793 43.1622 14.6942V14.6667C45.676 17.7188 47.0431 21.4678 47.0431 25.3917L47.0445 25.6185C47.0658 28.5617 46.9867 30.3348 46.8881 31.4011Z" fill="#3A312A"/>
<path d="M40.8454 21.6552C40.1922 21.0606 39.6354 20.3799 39.1885 19.6409C36.6722 21.1809 32.9941 22.1537 28.8966 22.1537C27.9238 22.1537 26.975 22.0987 26.0572 21.9921C19.471 21.2427 13.1563 25.1718 11.0697 31.4659C10.8669 32.0709 10.726 32.6518 10.6607 33.1915C10.6504 33.2671 10.6435 33.3427 10.6366 33.4184C10.5954 33.934 10.5713 34.4565 10.5713 34.9859C10.5713 44.9649 20.5675 60.2893 28.6457 60.2893C37.1054 60.2893 46.7166 44.9649 46.7166 34.9859C46.7166 29.7059 44.4547 24.9587 40.8454 21.6552Z" fill="#F8E4C8"/>
<path d="M41.1925 21.2741C40.5814 20.7176 40.0554 20.0785 39.6295 19.3745C39.5587 19.257 39.4439 19.1728 39.3102 19.1401C39.1771 19.1078 39.0365 19.1294 38.919 19.2013C36.3886 20.7499 32.7353 21.6381 28.8963 21.6381C27.9558 21.6381 27.0204 21.5849 26.1153 21.48C19.2603 20.6987 12.7256 24.8316 10.5809 31.3023C10.3616 31.9558 10.2162 32.5704 10.1495 33.1214C10.1392 33.1984 10.1316 33.2754 10.1224 33.3779C10.0773 33.9433 10.0557 34.4693 10.0557 34.9863C10.0557 39.8342 12.3928 46.2279 16.1548 51.6733C20.1059 57.3916 24.775 60.8053 28.6457 60.8053C32.7191 60.8053 37.324 57.4758 41.2795 51.6705C44.9515 46.2819 47.2322 39.8888 47.2322 34.9863C47.2322 29.7847 45.0312 24.7872 41.1925 21.2741ZM40.4274 51.0896C36.7221 56.5274 32.3176 59.7737 28.6457 59.7737C25.114 59.7737 20.7614 56.5263 17.0035 51.0868C13.3539 45.8048 11.0869 39.6355 11.0869 34.9863C11.0869 34.4971 11.1079 33.9977 11.1515 33.448C11.1577 33.3861 11.1629 33.3239 11.1729 33.2538C11.2323 32.7636 11.3623 32.2174 11.5596 31.6282C13.39 26.1045 18.6656 22.4167 24.4536 22.4167C24.9648 22.4167 25.4804 22.4456 25.9978 22.5044C26.941 22.6137 27.9162 22.6694 28.8966 22.6694C32.7074 22.6694 36.3622 21.8231 39.0218 20.3357C39.4442 20.9572 39.9396 21.5278 40.4975 22.0355C44.1223 25.353 46.2013 30.0734 46.2013 34.9859C46.201 39.6922 43.989 45.8629 40.4274 51.0896Z" fill="#3A312A"/>
<path d="M22.2631 33.0166C21.289 33.0166 20.499 33.8065 20.499 34.7807C20.499 35.7549 21.289 36.5448 22.2631 36.5448C23.2373 36.5448 24.0273 35.7549 24.0273 34.7807C24.0269 33.8062 23.2373 33.0166 22.2631 33.0166Z" fill="#3A312A"/>
<path d="M35.0254 33.0166C34.0512 33.0166 33.2612 33.8065 33.2612 34.7807C33.2612 35.7549 34.0508 36.5448 35.0254 36.5448C35.9995 36.5448 36.7895 35.7549 36.7895 34.7807C36.7895 33.8062 35.9995 33.0166 35.0254 33.0166Z" fill="#3A312A"/>
<path d="M18.7375 37.7534C17.0593 37.7534 15.6987 38.7706 15.6987 40.0253C15.6987 41.28 17.0593 42.2971 18.7375 42.2971C20.4157 42.2971 21.7766 41.28 21.7766 40.0253C21.7766 38.7706 20.4157 37.7534 18.7375 37.7534Z" fill="#F59689"/>
<path d="M38.551 42.2971C40.2292 42.2971 41.5897 41.28 41.5897 40.0253C41.5897 38.7706 40.2292 37.7534 38.551 37.7534C36.8727 37.7534 35.5122 38.7706 35.5122 40.0253C35.5122 41.28 36.8727 42.2971 38.551 42.2971Z" fill="#F59689"/>
<path d="M31.5752 46.8076H25.8696C25.585 46.8076 25.354 47.0383 25.354 47.3232C25.354 47.6082 25.585 47.8389 25.8696 47.8389H31.5755C31.8602 47.8389 32.0912 47.6082 32.0912 47.3232C32.0912 47.0383 31.8602 46.8076 31.5752 46.8076Z" fill="#3A312A"/>
<path d="M20.7549 27.6919C16.8946 27.6919 13.7544 30.8324 13.7544 34.6927C13.7544 38.553 16.8949 41.6935 20.7549 41.6935C24.6148 41.6935 27.7557 38.553 27.7557 34.6927C27.7557 30.8324 24.6148 27.6919 20.7549 27.6919ZM20.7549 40.6619C17.4635 40.6619 14.7856 37.9841 14.7856 34.6924C14.7856 31.4006 17.4635 28.7228 20.7549 28.7228C24.0466 28.7228 26.7244 31.4006 26.7244 34.6924C26.7244 37.9841 24.0466 40.6619 20.7549 40.6619Z" fill="#3A312A"/>
<path d="M36.9492 27.6919C33.0892 27.6919 29.9487 30.8324 29.9487 34.6927C29.9487 38.553 33.0892 41.6935 36.9492 41.6935C40.8095 41.6935 43.9497 38.553 43.9497 34.6927C43.9497 30.8324 40.8095 27.6919 36.9492 27.6919ZM36.9492 40.6619C33.6578 40.6619 30.98 37.9841 30.98 34.6924C30.98 31.4006 33.6578 28.7228 36.9492 28.7228C40.2406 28.7228 42.9184 31.4006 42.9184 34.6924C42.9184 37.9841 40.241 40.6619 36.9492 40.6619Z" fill="#3A312A"/>
<path d="M30.4645 34.1636H27.2397C26.9551 34.1636 26.7241 34.3942 26.7241 34.6792C26.7241 34.9642 26.9551 35.1948 27.2397 35.1948H30.4645C30.7491 35.1948 30.9801 34.9642 30.9801 34.6792C30.9801 34.3942 30.7491 34.1636 30.4645 34.1636Z" fill="#3A312A"/>
<path d="M14.494 32.7233L10.7505 32.3455C10.4721 32.3194 10.2146 32.5232 10.1857 32.8068C10.1572 33.0901 10.3638 33.3431 10.6471 33.3716L14.3905 33.7494C14.408 33.7511 14.4256 33.7518 14.4427 33.7518C14.7043 33.7518 14.9281 33.5534 14.9549 33.2877C14.9838 33.0045 14.7772 32.7518 14.494 32.7233Z" fill="#3A312A"/>
<path d="M47.1067 32.779C47.073 32.4961 46.8179 32.2936 46.5336 32.328L43.2051 32.724C42.9225 32.7577 42.7207 33.0141 42.7541 33.2971C42.7854 33.5593 43.0078 33.7518 43.2652 33.7518C43.2859 33.7518 43.3062 33.7508 43.3271 33.7481L46.6557 33.3521C46.9386 33.3184 47.1404 33.0619 47.1067 32.779Z" fill="#3A312A"/>
<path d="M30.3541 5.74776C24.2412 5.36585 18.833 8.19251 16.1882 10.7476C12.1966 14.0266 10.144 19.9646 10.144 25.3907C10.144 26.3824 10.319 32.0237 10.6356 33.4193C10.6872 32.8167 10.8405 32.1581 11.0701 31.4651C13.1549 25.1727 19.4714 21.2419 26.0576 21.9927C26.9734 22.0972 27.9228 22.1518 28.8959 22.1518C36.4894 22.1518 42.6453 18.8133 42.6453 14.6949C42.6453 10.5764 37.0205 6.16438 30.3541 5.74776Z" fill="#87796F"/>
<path d="M30.3867 5.23337C24.4069 4.85902 18.779 7.53787 15.8454 10.3625C12.0109 13.5236 9.62939 19.2797 9.62939 25.3909C9.62939 26.3905 9.79852 32.0569 10.1337 33.5336C10.1873 33.7698 10.3973 33.9351 10.6362 33.9351C10.6479 33.9351 10.66 33.9348 10.672 33.9341C10.9257 33.9166 11.1288 33.7168 11.1505 33.4638C11.1966 32.9279 11.3344 32.3102 11.5606 31.6279C13.5526 25.6153 19.6246 21.7791 26.0001 22.5054C26.9465 22.6134 27.9214 22.668 28.8969 22.668C36.896 22.668 43.1619 19.1659 43.1619 14.6954C43.1615 10.1614 37.0727 5.65137 30.3867 5.23337ZM28.8962 21.6368C27.9592 21.6368 27.0242 21.5842 26.1163 21.4807C19.5304 20.7293 13.2481 24.5085 10.8586 30.5396C10.7328 28.5221 10.6603 26.1169 10.6603 25.3909C10.6603 19.6599 12.959 14.0684 16.5161 11.1462C16.5267 11.1373 16.5374 11.1283 16.547 11.1184C19.1389 8.61449 23.9813 6.22921 29.2503 6.22921C29.6054 6.22921 29.9636 6.23987 30.3221 6.26255C37.0802 6.68502 42.1299 11.063 42.1299 14.6951C42.1303 18.5227 36.1934 21.6368 28.8962 21.6368Z" fill="#3A312A"/>
<path d="M30.3545 5.74776C24.2416 5.36585 18.8334 8.1925 16.1885 10.7476C12.1969 14.0266 10.4909 10.0347 8.87802 11.9167C6.81552 14.3229 11.9718 21.993 26.058 21.993C26.9795 21.993 27.9231 22.1522 28.8963 22.1522C36.4897 22.1522 42.6456 18.8137 42.6456 14.6952C42.6456 10.5768 37.0208 6.16438 30.3545 5.74776Z" fill="#87796F"/>
<path d="M30.3867 5.23337C24.4068 4.85903 18.7793 7.53753 15.8457 10.3621C13.7626 12.0657 12.4495 11.602 11.2917 11.193C10.4017 10.8791 9.39352 10.523 8.48671 11.5811C7.78443 12.4002 7.73837 13.6449 8.36021 14.9966C10.08 18.7355 16.219 22.5085 26.0578 22.5085C26.491 22.5085 26.9303 22.5457 27.3957 22.5848C27.8804 22.6257 28.3816 22.668 28.8962 22.668C36.8952 22.668 43.1611 19.1659 43.1611 14.6954C43.1615 10.1614 37.0726 5.65137 30.3867 5.23337ZM28.8962 21.6368C28.4249 21.6368 27.9454 21.5962 27.4823 21.5574C27.0162 21.5182 26.5343 21.4776 26.0582 21.4776C15.3366 21.4776 10.4781 17.133 9.29727 14.5662C8.85108 13.5961 8.84112 12.7529 9.26977 12.2527C9.48255 12.0046 9.67368 11.9021 9.92565 11.9021C10.1776 11.9021 10.4911 12.0046 10.9486 12.1661C12.1538 12.5917 13.9757 13.2342 16.5164 11.1466C16.527 11.1376 16.5377 11.1287 16.5473 11.1187C19.3138 8.44606 24.644 5.90643 30.3224 6.2629C37.0805 6.68537 42.1302 11.0634 42.1302 14.6954C42.1302 18.5227 36.1933 21.6368 28.8962 21.6368Z" fill="#3A312A"/>
<path d="M63.0957 8.9082C62.7608 12.8833 58.6187 13.511 58.6187 13.511C62.1754 13.6784 63.0616 18.3438 63.0616 18.3438C63.1376 15.0173 67.6407 13.4619 67.6407 13.4619C64.2672 13.2597 63.0957 8.9082 63.0957 8.9082Z" fill="#D6DF58"/>
<path d="M67.6713 12.9471C64.7137 12.7704 63.6041 8.8138 63.5934 8.77393C63.5281 8.53261 63.3023 8.37449 63.0489 8.39511C62.7997 8.4178 62.6027 8.6158 62.5818 8.86502C62.2865 12.3764 58.6929 12.9773 58.5413 13.001C58.279 13.0406 58.09 13.2726 58.1037 13.5376C58.1175 13.8023 58.3296 14.0134 58.5946 14.0261C61.698 14.1722 62.5474 18.3982 62.5553 18.4409C62.6027 18.6853 62.8165 18.8592 63.0616 18.8592C63.0761 18.8592 63.0905 18.8589 63.1049 18.8575C63.3679 18.8355 63.5714 18.6193 63.5776 18.356C63.6439 15.431 67.7679 13.9639 67.8098 13.9494C68.0422 13.8686 68.1852 13.6349 68.1515 13.3915C68.1172 13.1478 67.9168 12.9618 67.6713 12.9471ZM63.0083 16.5035C62.5422 15.4276 61.7334 14.1289 60.4003 13.452C61.4079 12.9694 62.6031 12.1069 63.2194 10.6085C63.7526 11.6642 64.6632 12.9735 66.0842 13.6067C65.0506 14.1705 63.7048 15.1213 63.0083 16.5035Z" fill="#3A312A"/>
<path d="M55.6368 14.7454C55.4 17.5569 52.4702 18.0007 52.4702 18.0007C54.9858 18.1189 55.6128 21.4189 55.6128 21.4189C55.6664 19.0663 58.8516 17.966 58.8516 17.966C56.4656 17.8233 55.6368 14.7454 55.6368 14.7454Z" fill="#D6DF58"/>
<path d="M58.8822 17.4515C56.8998 17.3329 56.1418 14.6379 56.1346 14.6108C56.0693 14.3694 55.8376 14.2103 55.5908 14.2319C55.3412 14.2543 55.1439 14.4526 55.123 14.7022C54.9239 17.0638 52.4946 17.4749 52.3929 17.491C52.1306 17.5306 51.9415 17.7626 51.9553 18.0276C51.969 18.2923 52.1811 18.5034 52.4462 18.5161C54.5207 18.6137 55.1013 21.4875 55.1064 21.5157C55.1532 21.7604 55.3674 21.935 55.6128 21.935C55.6269 21.935 55.6413 21.9347 55.6558 21.9333C55.9187 21.9117 56.1226 21.6948 56.1288 21.4311C56.1734 19.4686 58.9925 18.4632 59.0204 18.4535C59.2528 18.3731 59.3961 18.1397 59.3628 17.896C59.3287 17.6523 59.1276 17.4663 58.8822 17.4515ZM55.5874 19.7873C55.2697 19.139 54.783 18.4305 54.0587 17.9723C54.6964 17.6144 55.3295 17.0686 55.7331 16.2824C56.0964 16.9266 56.6454 17.6419 57.4316 18.0782C56.7956 18.4563 56.0604 19.02 55.5874 19.7873Z" fill="#3A312A"/>
<path d="M55.6236 5.58203C55.3978 8.39459 52.4697 8.85006 52.4697 8.85006C54.986 8.95869 55.6257 12.2563 55.6257 12.2563C55.67 9.90331 58.8511 8.79059 58.8511 8.79059C56.4644 8.65653 55.6236 5.58203 55.6236 5.58203Z" fill="#D6DF58"/>
<path d="M58.8801 8.27534C56.9063 8.165 56.1356 5.49647 56.1211 5.44559C56.0551 5.20393 55.8217 5.04478 55.5759 5.0685C55.3264 5.09187 55.1301 5.2909 55.1102 5.54081C54.9204 7.9034 52.4925 8.32381 52.3908 8.34031C52.1288 8.38121 51.9404 8.61393 51.9549 8.87862C51.9697 9.14331 52.1828 9.35368 52.4478 9.36503C54.5227 9.45475 55.1146 12.3261 55.1198 12.3543C55.1672 12.5983 55.381 12.7716 55.6258 12.7716C55.6406 12.7716 55.6557 12.7709 55.6708 12.7699C55.9338 12.7472 56.1366 12.5296 56.1418 12.2659C56.1785 10.3031 58.9939 9.287 59.0217 9.27737C59.2541 9.19625 59.3964 8.96215 59.362 8.71843C59.3273 8.47437 59.1259 8.28909 58.8801 8.27534ZM55.5945 10.6238C55.2741 9.9769 54.785 9.27015 54.0586 8.81503C54.6953 8.45443 55.326 7.90581 55.7265 7.11828C56.0923 7.76109 56.6443 8.47403 57.4322 8.9075C56.7976 9.28837 56.0644 9.85453 55.5945 10.6238Z" fill="#3A312A"/>
<path d="M69.6617 44.7064C76.5712 44.7064 82.1724 39.0976 82.1724 32.1787C82.1724 25.2599 76.5712 19.6511 69.6617 19.6511C62.7521 19.6511 57.1509 25.2599 57.1509 32.1787C57.1509 39.0976 62.7521 44.7064 69.6617 44.7064Z" fill="#D5DC57"/>
<path d="M69.6615 19.1355C62.4785 19.1355 56.6348 24.9865 56.6348 32.1787C56.6348 39.371 62.4785 45.222 69.6615 45.222C76.8445 45.222 82.6879 39.371 82.6879 32.1787C82.6879 24.9865 76.8445 19.1355 69.6615 19.1355ZM69.6615 44.1907C63.0474 44.1907 57.666 38.8021 57.666 32.1787C57.666 25.5554 63.0471 20.1667 69.6615 20.1667C76.276 20.1667 81.6567 25.5554 81.6567 32.1787C81.6567 38.8021 76.276 44.1907 69.6615 44.1907Z" fill="#3A312A"/>
<path d="M69.664 23.4102C67.3313 23.4102 65.4331 25.3108 65.4331 27.6469V30.9163C65.4331 31.4505 65.8655 31.8836 66.399 31.8836C66.9325 31.8836 67.365 31.4505 67.365 30.9163V27.6469C67.365 26.3774 68.3962 25.3448 69.664 25.3448C70.9317 25.3448 71.963 26.3774 71.963 27.6469V30.9163C71.963 31.4505 72.3954 31.8836 72.9289 31.8836C73.4624 31.8836 73.8949 31.4505 73.8949 30.9163V27.6469C73.8952 25.3108 71.997 23.4102 69.664 23.4102Z" fill="#87796F"/>
<path d="M69.664 22.8945C67.047 22.8945 64.9175 25.0265 64.9175 27.6469V30.9163C64.9175 31.7341 65.5823 32.3992 66.399 32.3992C67.2161 32.3992 67.8809 31.7341 67.8809 30.9163V27.6469C67.8809 26.6617 68.6809 25.8604 69.6643 25.8604C70.6478 25.8604 71.4477 26.6617 71.4477 27.6469V30.9163C71.4477 31.7341 72.1125 32.3992 72.9293 32.3992C73.7463 32.3992 74.4112 31.7341 74.4112 30.9163V27.6469C74.4108 25.0265 72.2813 22.8945 69.664 22.8945ZM73.3796 30.9163C73.3796 31.1655 73.1774 31.368 72.9289 31.368C72.6807 31.368 72.4786 31.1655 72.4786 30.9163V27.6469C72.4786 26.0931 71.2157 24.8292 69.664 24.8292C68.1123 24.8292 66.8494 26.0931 66.8494 27.6469V30.9163C66.8494 31.1655 66.6472 31.368 66.3987 31.368C66.1505 31.368 65.9484 31.1655 65.9484 30.9163V27.6469C65.9484 25.595 67.6152 23.9258 69.6636 23.9258C71.7124 23.9258 73.3792 25.595 73.3792 27.6469V30.9163H73.3796Z" fill="#3A312A"/>
<path d="M72.1252 30.6016H67.2034C65.7208 30.6016 64.519 31.8033 64.519 33.2859V38.2215C64.519 39.7041 65.7208 40.9058 67.2034 40.9058H72.1252C73.6078 40.9058 74.8095 39.7041 74.8095 38.2215V33.2859C74.8095 31.8033 73.6078 30.6016 72.1252 30.6016Z" fill="#ED6E7A"/>
<path d="M72.1252 30.0859H67.2037C65.4389 30.0859 64.0034 31.5214 64.0034 33.2859V38.2211C64.0034 39.9856 65.4389 41.4211 67.2037 41.4211H72.1252C73.8897 41.4211 75.3252 39.9856 75.3252 38.2211V33.2859C75.3252 31.5214 73.8897 30.0859 72.1252 30.0859ZM74.2939 38.2211C74.2939 39.417 73.3211 40.3898 72.1252 40.3898H67.2037C66.0078 40.3898 65.0347 39.417 65.0347 38.2211V33.2859C65.0347 32.09 66.0075 31.1172 67.2037 31.1172H72.1252C73.3211 31.1172 74.2939 32.09 74.2939 33.2859V38.2211Z" fill="#3A312A"/>
<path d="M69.6641 32.8958C68.7972 32.8958 68.0942 33.5994 68.0942 34.4677C68.0942 35.0937 68.4624 35.6299 68.9914 35.8826V37.9485C68.9914 38.3208 69.2926 38.6223 69.6641 38.6223C70.0357 38.6223 70.3372 38.3208 70.3372 37.9485V35.8826C70.8662 35.6296 71.2344 35.0937 71.2344 34.4677C71.2344 33.5994 70.5314 32.8958 69.6641 32.8958Z" fill="#87796F"/>
<path d="M69.6641 32.3801C68.514 32.3801 67.5786 33.3168 67.5786 34.4681C67.5786 35.1511 67.922 35.7908 68.4758 36.1775V37.9492C68.4758 38.6051 69.009 39.1386 69.6641 39.1386C70.3197 39.1386 70.8528 38.6051 70.8528 37.9492V36.1772C71.4063 35.7905 71.7497 35.1508 71.7497 34.4681C71.75 33.3165 70.8143 32.3801 69.6641 32.3801ZM70.1148 35.4175C69.9357 35.5034 69.8216 35.6843 69.8216 35.8829V37.9492C69.8216 38.0362 69.7511 38.1073 69.6641 38.1073C69.5775 38.1073 69.507 38.0362 69.507 37.9492V35.8829C69.507 35.6843 69.3929 35.5034 69.2135 35.4175C68.8409 35.2394 68.6095 34.8757 68.6095 34.4677C68.6095 33.8851 69.0825 33.411 69.6638 33.411C70.2451 33.411 70.7181 33.8851 70.7181 34.4677C70.7188 34.8757 70.4874 35.2398 70.1148 35.4175Z" fill="#3A312A"/>
<path d="M81.565 62.2487L70.6007 51.2861C69.5959 50.2813 67.9666 50.2817 66.9621 51.2865L51.1885 67.0636C50.1837 68.0683 50.184 69.6974 51.1888 70.7022L62.1531 81.6647C63.1579 82.6695 64.7872 82.6691 65.7917 81.6644L81.5653 65.8873C82.5701 64.8825 82.5701 63.2531 81.565 62.2487Z" fill="#87796F"/>
<path d="M81.9296 61.884L70.9654 50.9215C70.382 50.3382 69.6065 50.0171 68.7812 50.0171C67.9565 50.0171 67.1807 50.3385 66.5974 50.9218L50.8234 66.6989C50.24 67.2823 49.9186 68.0578 49.9189 68.8828C49.9189 69.7078 50.2404 70.4833 50.8237 71.0666L61.7879 82.0292C62.3713 82.6125 63.1471 82.9336 63.9721 82.9336C64.7971 82.9336 65.5726 82.6122 66.156 82.0288L81.93 66.2517C82.5133 65.6684 82.8347 64.8925 82.8344 64.0675C82.8344 63.2429 82.513 62.4674 81.9296 61.884ZM81.2009 65.5226L65.4269 81.2997C65.0384 81.6882 64.5218 81.9023 63.9725 81.9023C63.4232 81.9023 62.9062 81.6882 62.5177 81.2997L51.5535 70.3372C50.7512 69.5349 50.7512 68.23 51.5531 67.4277L67.3271 51.6506C67.7159 51.2622 68.2326 51.048 68.7819 51.048C69.3312 51.048 69.8479 51.2618 70.2363 51.6502L81.2006 62.6128C81.589 63.0012 81.8031 63.5179 81.8031 64.0675C81.8031 64.6172 81.5893 65.1342 81.2009 65.5226Z" fill="#3A312A"/>
<path d="M66.114 51.3275C66.114 49.9064 64.9617 48.7549 63.541 48.7549L57.4625 48.7552L52.7153 48.7556L48.0365 48.7559C46.6154 48.7559 45.4635 49.9082 45.4639 51.3292L45.4663 73.639C45.4663 75.06 46.6185 76.2119 48.0396 76.2116L63.5441 76.2102C64.9651 76.2102 66.1171 75.058 66.1167 73.6369L66.114 51.3275Z" fill="#F16C7A"/>
<path d="M66.6293 51.3274C66.629 49.6245 65.2433 48.2395 63.5407 48.2395H63.5404L57.4618 48.2398C57.1772 48.2398 56.9462 48.4708 56.9462 48.7555C56.9462 49.0404 57.1772 49.2711 57.4618 49.2711L63.5404 49.2708C64.6747 49.2708 65.5977 50.1934 65.598 51.3278L65.6001 73.6378C65.6001 74.1875 65.3863 74.7041 64.9979 75.0926C64.6091 75.481 64.0924 75.6952 63.5431 75.6952L48.0386 75.6962C46.9042 75.6962 45.9813 74.7736 45.9809 73.6392L45.9789 51.3291C45.9789 50.7798 46.1927 50.2632 46.5811 49.8744C46.9699 49.4859 47.4865 49.2718 48.0359 49.2718L52.7143 49.2714C52.9989 49.2714 53.2299 49.0404 53.2299 48.7558C53.2299 48.4709 52.9989 48.2402 52.7143 48.2402L48.0359 48.2405C47.2109 48.2405 46.4354 48.5619 45.8517 49.1453C45.2683 49.7286 44.9469 50.5045 44.9473 51.3295L44.9493 73.6395C44.9497 75.3425 46.3353 76.7274 48.0379 76.7274H48.0383L63.5428 76.7264C64.3678 76.7264 65.1436 76.405 65.727 75.8217C66.3103 75.2383 66.6317 74.4625 66.6314 73.6375L66.6293 51.3274Z" fill="#3A312A"/>
<path d="M62.4297 62.5716C62.4294 59.9604 59.105 57.0331 56.2305 55.5398C55.9569 55.3979 55.6204 55.3979 55.3467 55.5398C52.4726 57.0334 49.1489 59.9615 49.1489 62.5726C49.1493 65.0985 51.5235 67.2624 54.859 65.942L52.5737 69.5339L59.006 69.5332L56.72 65.9417C60.0561 67.2617 62.4301 65.0974 62.4297 62.5716Z" fill="#87796F"/>
<path d="M56.4681 55.0822C56.0428 54.8608 55.5344 54.8605 55.1092 55.0822C51.9904 56.703 48.6333 59.7383 48.6333 62.5725C48.6336 64.019 49.3215 65.35 50.4734 66.1327C51.3943 66.7583 52.5101 66.9811 53.7057 66.7941L52.1389 69.2571C52.0378 69.4159 52.0313 69.617 52.122 69.782C52.2124 69.9466 52.386 70.0494 52.5737 70.0494L59.006 70.0491C59.1943 70.0491 59.3676 69.9466 59.458 69.7816C59.5484 69.6166 59.5419 69.4155 59.4408 69.2567L57.8733 66.7941C59.0682 66.9821 60.185 66.7583 61.1052 66.132C62.2575 65.349 62.945 64.0183 62.9447 62.5718C62.945 59.7372 59.5876 56.7023 56.4681 55.0822ZM60.5264 65.2788C59.5587 65.9368 58.2738 66.0021 56.9098 65.462C56.7028 65.3806 56.4653 65.4407 56.3227 65.6133C56.1803 65.7855 56.1652 66.0299 56.2852 66.2186L58.0672 69.0178L53.5135 69.0181L55.2945 66.2186C55.4145 66.0303 55.3993 65.7859 55.257 65.6133C55.157 65.4923 55.0099 65.4263 54.8596 65.4263C54.7957 65.4263 54.7314 65.438 54.6699 65.4624C53.3059 66.0021 52.0213 65.9375 51.0533 65.2795C50.1843 64.689 49.6649 63.6766 49.6649 62.5725C49.6649 60.3 52.715 57.4888 55.5853 55.9972C55.7087 55.9333 55.8689 55.9326 55.9933 55.9972C58.8637 57.4881 61.9144 60.2989 61.9148 62.5715C61.9141 63.6759 61.3954 64.6883 60.5264 65.2788Z" fill="#3A312A"/>
<path d="M81.1994 62.6129L70.2373 51.6508C69.4329 50.8498 68.1301 50.8498 67.3257 51.6508L66.6279 52.3486V53.1976L76.0432 62.6129C76.4316 63.0014 76.6482 63.517 76.6482 64.067C76.6482 64.617 76.4316 65.1326 76.0432 65.5211L61.3926 80.1751L62.5166 81.2992C62.9188 81.7014 63.4448 81.9008 63.9741 81.9008C64.5001 81.9008 65.026 81.7014 65.4282 81.2992L81.1994 65.5211C81.5879 65.1326 81.8045 64.617 81.8045 64.067C81.8045 63.517 81.5879 63.0014 81.1994 62.6129Z" fill="#695B51"/>
</svg>
