<svg width="98" height="98" viewBox="0 0 98 98" fill="none" xmlns="http://www.w3.org/2000/svg">
<path d="M18.2187 10.1499C17.8458 14.5767 13.2329 15.2758 13.2329 15.2758C17.1939 15.4622 18.1808 20.6577 18.1808 20.6577C18.2654 16.9532 23.2802 15.221 23.2802 15.221C19.5237 14.9959 18.2187 10.1499 18.2187 10.1499Z" fill="#D7E057"/>
<path d="M23.3147 14.6476C20.0206 14.4509 18.7852 10.0447 18.773 10.0003C18.6999 9.73117 18.4422 9.55546 18.1666 9.57843C17.8891 9.60369 17.6697 9.82419 17.6464 10.1017C17.3172 14.0122 13.3156 14.6813 13.1468 14.7077C12.8547 14.7518 12.6442 15.0102 12.6595 15.3053C12.6748 15.6001 12.911 15.8351 13.2057 15.8493C16.6618 16.012 17.6077 20.7183 17.6169 20.7657C17.6693 21.0379 17.9075 21.2316 18.1804 21.2316C18.1965 21.2316 18.2126 21.2312 18.2286 21.2297C18.5211 21.2052 18.7481 20.9644 18.755 20.6712C18.8296 17.4138 23.4222 15.78 23.4686 15.7639C23.727 15.674 23.8866 15.4136 23.8491 15.1426C23.8116 14.8712 23.588 14.6641 23.3147 14.6476ZM18.1214 18.6082C17.6024 17.41 16.7016 15.9641 15.217 15.2104C16.3391 14.6725 17.6705 13.7124 18.3569 12.0434C18.9506 13.219 19.9647 14.6771 21.5472 15.3822C20.3961 16.0101 18.897 17.0689 18.1214 18.6082Z" fill="#3A312A"/>
<path d="M9.91221 16.6504C9.64845 19.7814 6.38574 20.2756 6.38574 20.2756C9.18716 20.4073 9.88541 24.0823 9.88541 24.0823C9.94513 21.4623 13.4923 20.237 13.4923 20.237C10.8348 20.0781 9.91221 16.6504 9.91221 16.6504Z" fill="#D7E057"/>
<path d="M13.5264 19.6636C11.3191 19.5315 10.4746 16.5303 10.4662 16.5001C10.393 16.2313 10.1408 16.0522 9.86055 16.0782C9.58263 16.1031 9.36328 16.3243 9.33993 16.6019C9.11828 19.2322 6.41294 19.69 6.29963 19.708C6.00754 19.752 5.797 20.0104 5.81231 20.3056C5.82762 20.6004 6.06382 20.8354 6.35896 20.8496C8.66924 20.9583 9.31543 24.1586 9.32155 24.1896C9.37323 24.4626 9.61211 24.6566 9.88505 24.6566C9.90113 24.6566 9.91682 24.6563 9.9329 24.6547C10.2258 24.6306 10.4528 24.3894 10.4597 24.0954C10.5098 21.91 13.6492 20.7902 13.6803 20.7795C13.9394 20.6899 14.0991 20.43 14.0615 20.1586C14.0236 19.8876 13.8001 19.6801 13.5264 19.6636ZM9.85749 22.2652C9.50377 21.5432 8.96171 20.7542 8.15512 20.244C8.86562 19.8454 9.57038 19.2372 10.0198 18.3617C10.4244 19.0791 11.0358 19.8757 11.9113 20.3615C11.2031 20.783 10.3842 21.4104 9.85749 22.2652Z" fill="#3A312A"/>
<path d="M9.91221 6.44531C9.64845 9.57633 6.38574 10.0709 6.38574 10.0709C9.18716 10.2026 9.88541 13.8776 9.88541 13.8776C9.94513 11.2573 13.4923 10.0323 13.4923 10.0323C10.8348 9.87301 9.91221 6.44531 9.91221 6.44531Z" fill="#D7E057"/>
<path d="M13.5264 9.45903C11.3191 9.32696 10.4742 6.32532 10.4662 6.29508C10.393 6.02635 10.1408 5.84949 9.86055 5.87322C9.58263 5.89811 9.36328 6.11937 9.33992 6.39691C9.11828 9.02721 6.41294 9.48506 6.29963 9.50305C6.00754 9.54707 5.797 9.80547 5.81231 10.1006C5.82762 10.3954 6.06382 10.6304 6.35858 10.6446C8.66924 10.7533 9.31542 13.9536 9.32117 13.985C9.37285 14.258 9.61172 14.4521 9.88467 14.4521C9.90074 14.4521 9.91644 14.4517 9.93252 14.4501C10.2254 14.426 10.4524 14.1848 10.4593 13.8908C10.5094 11.7054 13.6489 10.5856 13.6799 10.5749C13.9386 10.4853 14.0987 10.2254 14.0611 9.954C14.0236 9.68259 13.8001 9.47549 13.5264 9.45903ZM9.85749 12.0602C9.50377 11.3383 8.96171 10.5493 8.15512 10.039C8.86562 9.6401 9.57038 9.03219 10.0198 8.1567C10.4244 8.87409 11.0358 9.67034 11.9113 10.1565C11.2031 10.578 10.3839 11.2058 9.85749 12.0602Z" fill="#3A312A"/>
<path d="M61.6377 85.6272L52.0988 77.0315C51.9889 76.9332 51.8714 76.8646 51.7466 76.8306L51.489 82.2592C51.4434 83.2216 51.0989 84.1044 50.5381 84.8313V84.8352C50.6062 85.0323 50.7425 85.2027 50.9243 85.3202L60.4671 91.4004C61.111 91.8135 61.9597 91.3476 61.9597 90.5823V86.3507C61.9597 86.0743 61.8421 85.8129 61.6377 85.6272Z" fill="#FCE8CB"/>
<path d="M62.0222 85.2005L52.4825 76.6041C52.3041 76.4441 52.1073 76.3338 51.8979 76.2768C51.7303 76.2316 51.5503 76.2638 51.4091 76.3664C51.2682 76.469 51.1817 76.6298 51.1733 76.8036L50.9156 82.2322C50.8774 83.0472 50.5895 83.8247 50.0838 84.4809C50.0065 84.5815 49.9644 84.7086 49.9644 84.8353C49.9644 84.8993 49.9751 84.9628 49.9961 85.0233C50.1056 85.3395 50.325 85.6163 50.6167 85.8046L60.1579 91.8841C60.4105 92.046 60.6992 92.1275 60.9886 92.1275C61.2432 92.1275 61.4981 92.0644 61.7297 91.938C62.2258 91.6666 62.5344 91.1471 62.5344 90.5825V86.3509C62.534 85.9149 62.348 85.4961 62.0222 85.2005ZM61.3856 90.5821C61.3856 90.7938 61.2409 90.896 61.1781 90.9301C61.1164 90.9638 60.953 91.0304 60.7757 90.9163L51.2368 84.8384C51.7356 84.0724 52.0193 83.1981 52.0626 82.2866L52.2681 77.957L61.252 86.0523C61.3381 86.1304 61.3856 86.2364 61.3856 86.3505V90.5821Z" fill="#3A312A"/>
<path d="M41.3815 82.2705L41.1051 76.7925C40.9233 76.8154 40.7453 76.8909 40.5899 77.0314L31.0509 85.627C30.8465 85.8127 30.729 86.0742 30.729 86.3505V90.5822C30.729 91.3474 31.5777 91.8133 32.2216 91.4002L41.7643 85.32C41.999 85.1684 42.1583 84.9261 42.1962 84.6532C41.7184 83.9641 41.4233 83.1495 41.3815 82.2705Z" fill="#FCE8CB"/>
<path d="M42.6678 84.3267C42.2363 83.7035 41.9898 82.9831 41.955 82.2435C41.955 82.2431 41.955 82.2423 41.955 82.2419L41.6786 76.7639C41.6705 76.6043 41.5967 76.4554 41.4742 76.3528C41.352 76.2502 41.1916 76.2023 41.0339 76.223C40.7261 76.2617 40.4394 76.3937 40.2055 76.605L30.6651 85.2022C30.3408 85.4966 30.1548 85.9154 30.1548 86.3511V90.5827C30.1548 91.1473 30.4633 91.6668 30.9595 91.9382C31.1914 92.0653 31.4468 92.1281 31.7013 92.1281C31.9908 92.1281 32.279 92.0469 32.5305 91.8854L42.0756 85.8033C42.4534 85.5598 42.7045 85.1697 42.765 84.7325C42.7845 84.5897 42.7497 84.445 42.6678 84.3267ZM41.4554 84.8359L31.9115 90.9172C31.735 91.0302 31.572 90.9639 31.5103 90.9303C31.4479 90.8962 31.3028 90.794 31.3028 90.5823V86.3507C31.3028 86.2381 31.3515 86.1294 31.4349 86.0536L40.5814 77.8117L40.8081 82.299C40.849 83.1569 41.109 83.9925 41.563 84.7337C41.5343 84.7735 41.4983 84.8087 41.4554 84.8359Z" fill="#3A312A"/>
<path d="M67.0003 35.175C65.647 35.175 64.5503 36.2718 64.5503 37.625V40.6251C64.5503 41.9784 65.647 43.0751 67.0003 43.0751C68.3532 43.0751 69.4503 41.9784 69.4503 40.6251V37.625C69.4503 36.2722 68.3535 35.175 67.0003 35.175Z" fill="#D7E057"/>
<path d="M67.0003 34.6013C65.3324 34.6013 63.9761 35.9576 63.9761 37.6252V40.6253C63.9761 42.2928 65.3328 43.6491 67.0003 43.6491C68.6678 43.6491 70.0245 42.2928 70.0245 40.6253V37.6252C70.0245 35.9576 68.6678 34.6013 67.0003 34.6013ZM68.8761 40.6253C68.8761 41.6596 68.0346 42.5007 67.0003 42.5007C65.9659 42.5007 65.1245 41.6592 65.1245 40.6253V37.6252C65.1245 36.5908 65.9659 35.7498 67.0003 35.7498C68.0346 35.7498 68.8757 36.5912 68.8757 37.6252V40.6253H68.8761Z" fill="#3A312A"/>
<path d="M76.5999 40.1084C75.2467 40.1084 74.1499 41.2052 74.1499 42.5584V45.5585C74.1499 46.9114 75.2467 48.0085 76.5999 48.0085C77.9528 48.0085 79.0499 46.9117 79.0499 45.5585V42.5584C79.0499 41.2052 77.9531 40.1084 76.5999 40.1084Z" fill="#D7E057"/>
<path d="M76.5999 39.5342C74.9324 39.5342 73.5757 40.8905 73.5757 42.558V45.5581C73.5757 47.2256 74.9324 48.582 76.5999 48.582C78.2674 48.582 79.6241 47.2256 79.6241 45.5581V42.558C79.6241 40.8909 78.2674 39.5342 76.5999 39.5342ZM78.4757 45.5585C78.4757 46.5929 77.6343 47.4339 76.5999 47.4339C75.5655 47.4339 74.7241 46.5925 74.7241 45.5585V42.5584C74.7241 41.524 75.5655 40.683 76.5999 40.683C77.6343 40.683 78.4757 41.5244 78.4757 42.5584V45.5585Z" fill="#3A312A"/>
<path d="M85.3035 49.3766L78.9541 46.2249L74.1506 43.8384L69.3092 41.4367L64.5512 39.0728L53.8076 33.7349L53.0879 48.748L61.2671 49.8L66.4905 50.4718L66.4947 50.4722L84.2772 52.7595C86.2808 53.0171 87.1142 50.2747 85.3035 49.3766Z" fill="#FCE8CB"/>
<path d="M85.5586 48.8624L54.0627 33.2207C53.8889 33.1346 53.6837 33.1419 53.5165 33.2399C53.3492 33.3379 53.2427 33.514 53.2336 33.7077L52.5139 48.7208C52.4993 49.0198 52.7171 49.2797 53.0142 49.318L61.1938 50.3703C61.5065 50.4098 61.7963 50.1885 61.8365 49.8742C61.8771 49.5595 61.6547 49.272 61.3404 49.2315L53.6864 48.2469L54.3387 34.641L85.0483 49.8922C85.7286 50.2295 85.809 50.8802 85.6716 51.3346C85.5334 51.7906 85.1039 52.2867 84.3501 52.191L66.5466 49.9014L66.5424 49.901C66.2312 49.8692 65.956 50.0993 65.9215 50.4105C65.8874 50.7218 66.1106 51.0027 66.4211 51.0429L84.2035 53.3302C84.3225 53.3455 84.4378 53.3528 84.5495 53.3528C85.7278 53.3528 86.5065 52.5393 86.7706 51.6677C87.0593 50.7129 86.7963 49.4761 85.5586 48.8624Z" fill="#3A312A"/>
<path d="M25.6883 35.175C24.335 35.175 23.2383 36.2718 23.2383 37.625V40.6251C23.2383 41.9784 24.335 43.0751 25.6883 43.0751C27.0415 43.0751 28.1383 41.9784 28.1383 40.6251V37.625C28.1379 36.2722 27.0411 35.175 25.6883 35.175Z" fill="#D7E057"/>
<path d="M25.6883 34.6013C24.0208 34.6013 22.6641 35.9576 22.6641 37.6252V40.6253C22.6641 42.2928 24.0208 43.6491 25.6879 43.6491C27.3554 43.6491 28.7121 42.2928 28.7121 40.6253V37.6252C28.7121 35.9576 27.3558 34.6013 25.6883 34.6013ZM27.5637 40.6253C27.5637 41.6596 26.7223 42.5007 25.6879 42.5007C24.6535 42.5007 23.8125 41.6592 23.8125 40.6253V37.6252C23.8125 36.5908 24.6539 35.7498 25.6883 35.7498C26.7226 35.7498 27.5637 36.5912 27.5637 37.6252V40.6253Z" fill="#3A312A"/>
<path d="M16.0887 40.1084C14.7358 40.1084 13.6387 41.2052 13.6387 42.5584V45.5585C13.6387 46.9114 14.7354 48.0085 16.0887 48.0085C17.4419 48.0085 18.5387 46.9117 18.5387 45.5585V42.5584C18.5387 41.2052 17.4415 40.1084 16.0887 40.1084Z" fill="#D7E057"/>
<path d="M16.0887 39.5342C14.4211 39.5342 13.0645 40.8905 13.0645 42.558V45.5581C13.0645 47.2256 14.4211 48.582 16.0887 48.582C17.7562 48.582 19.1129 47.2256 19.1129 45.5581V42.558C19.1129 40.8909 17.7562 39.5342 16.0887 39.5342ZM17.9645 45.5585C17.9645 46.5929 17.123 47.4339 16.0887 47.4339C15.0543 47.4339 14.2129 46.5925 14.2129 45.5585V42.5584C14.2129 41.524 15.0543 40.683 16.0887 40.683C17.123 40.683 17.9645 41.5244 17.9645 42.5584V45.5585Z" fill="#3A312A"/>
<path d="M38.9457 33.7043L28.1377 39.0725L23.3797 41.4364L18.5383 43.8382L13.7348 46.225L7.38545 49.3767C5.57474 50.2744 6.40813 53.0172 8.41215 52.7596L39.6998 48.7328L38.9457 33.7043Z" fill="#FCE8CB"/>
<path d="M39.5187 33.6757C39.5092 33.4824 39.4023 33.307 39.2354 33.209C39.0681 33.111 38.8633 33.1038 38.6895 33.1903L7.12972 48.8622C5.89171 49.4763 5.6291 50.7128 5.91774 51.6663C6.18149 52.5384 6.96014 53.3515 8.13881 53.3515C8.2506 53.3515 8.36582 53.3442 8.48488 53.3289L39.7729 49.3017C40.0704 49.2634 40.2882 49.0027 40.2732 48.7034L39.5187 33.6757ZM8.33826 52.19C7.58297 52.2873 7.15499 51.7892 7.01679 51.3337C6.87898 50.8789 6.95975 50.2285 7.64001 49.8912L38.4155 34.6086L39.0988 48.231L8.33826 52.19Z" fill="#3A312A"/>
<path d="M46.354 6.57031C41.5788 6.57031 37.7725 10.3357 37.9983 14.8364L38.4148 23.1381L38.6583 27.9921L41.3809 82.2719C41.5083 84.8172 43.7329 86.8193 46.4336 86.8193C49.1386 86.8193 51.365 84.8111 51.4871 82.2615L54.7108 14.8192C54.9251 10.3246 51.1215 6.57031 46.354 6.57031Z" fill="#EF6D7A"/>
<path d="M52.9896 8.78948C51.2972 7.01399 48.8786 5.99609 46.354 5.99609C43.8255 5.99609 41.4042 7.01705 39.7114 8.79675C38.1243 10.465 37.3123 12.6203 37.4249 14.8651L37.8414 23.1668C37.8574 23.4837 38.1331 23.7291 38.4435 23.7115C38.7601 23.6954 39.004 23.4259 38.9883 23.1093L38.5718 14.8077C38.4749 12.8802 39.1755 11.027 40.5432 9.58879C42.0205 8.03572 44.1382 7.14491 46.354 7.14491C48.5658 7.14491 50.6816 8.03342 52.1585 9.58228C53.5263 11.0171 54.2288 12.8672 54.1369 14.7916L50.9132 82.234C50.8061 84.483 48.838 86.2451 46.4336 86.2451C44.0341 86.2451 42.0668 84.4872 41.9543 82.2432L39.2317 27.9634C39.216 27.6468 38.9473 27.4026 38.6296 27.4187C38.313 27.4347 38.0691 27.7042 38.0848 28.0208L40.8074 82.3006C40.9506 85.1564 43.422 87.3935 46.4336 87.3935C49.4521 87.3935 51.9239 85.1514 52.0602 82.2887L55.2838 14.8463C55.391 12.605 54.5764 10.4539 52.9896 8.78948Z" fill="#3A312A"/>
<path d="M39.5187 33.6757C39.5026 33.3591 39.2305 33.1145 38.9166 33.1309C38.6 33.147 38.3561 33.4165 38.3718 33.7331L39.126 48.7611C39.1413 49.0682 39.3951 49.3066 39.699 49.3066C39.7086 49.3066 39.7185 49.3066 39.7285 49.3059C40.0451 49.2898 40.2889 49.0203 40.2732 48.7037L39.5187 33.6757Z" fill="#3A312A"/>
<path d="M46.3545 9.08228C42.753 9.08228 39.8827 11.9212 40.0542 15.3141C40.0787 15.7964 40.7088 15.9744 40.9718 15.5694C42.0773 13.867 44.0695 12.7236 46.3545 12.7236C48.6376 12.7236 50.6286 13.8667 51.7326 15.5698C51.9964 15.9767 52.628 15.7995 52.6514 15.3152L52.6521 15.2995C52.6579 15.208 52.6579 15.1165 52.6579 15.0254C52.6579 11.7612 49.8503 9.08228 46.3545 9.08228Z" fill="#8AC5DC"/>
<path d="M46.355 8.50806C44.4088 8.50806 42.5449 9.29435 41.2418 10.6648C40.0191 11.9507 39.3936 13.6125 39.4813 15.3432C39.505 15.8117 39.8258 16.2083 40.2798 16.3308C40.7365 16.4537 41.197 16.2772 41.4535 15.8826C42.5047 14.2644 44.3368 13.2986 46.3547 13.2986C48.3717 13.2986 50.2019 14.2648 51.2508 15.8829C51.4537 16.1957 51.7837 16.3718 52.1386 16.3718C52.2339 16.3718 52.3311 16.3592 52.428 16.3331C52.882 16.2106 53.2024 15.8133 53.2254 15.3355C53.2319 15.2322 53.2323 15.1296 53.2323 15.0262C53.2326 11.4316 50.1476 8.50806 46.355 8.50806ZM52.0842 15.063C50.8052 13.2343 48.6818 12.1494 46.3554 12.1494C44.0283 12.1494 41.9029 13.2339 40.622 15.0622C40.6125 13.7292 41.1235 12.456 42.0744 11.4557C43.162 10.3119 44.7223 9.65611 46.3554 9.65611C49.5144 9.65611 52.0842 12.0648 52.0842 15.0254V15.063Z" fill="#3A312A"/>
<path d="M47.9541 79.937C47.9541 79.0477 47.2333 78.3269 46.344 78.3269C45.4547 78.3269 44.7339 79.0477 44.7339 79.937V89.7864C44.7339 90.6757 45.4547 91.3965 46.344 91.3965C47.2333 91.3965 47.9541 90.6757 47.9541 89.7864V79.937Z" fill="#FCE8CB"/>
<path d="M46.3445 77.7527C45.7611 77.7527 45.2125 77.9801 44.7998 78.3924C44.3872 78.805 44.1602 79.3536 44.1602 79.937V89.7864C44.1602 90.9907 45.1402 91.9707 46.3445 91.9707C47.5488 91.9707 48.5288 90.9907 48.5288 89.7864V79.937C48.5284 78.7327 47.5484 77.7527 46.3445 77.7527ZM47.38 89.7868C47.38 90.3579 46.9153 90.8227 46.3441 90.8227C45.7729 90.8227 45.3082 90.3579 45.3082 89.7868V79.937C45.3082 79.6602 45.4158 79.4003 45.6118 79.2047C45.8074 79.0091 46.0673 78.9015 46.3441 78.9015C46.9153 78.9015 47.38 79.3662 47.38 79.9374V89.7868Z" fill="#3A312A"/>
<path d="M79.7591 82.2886C84.6924 80.2438 87.0339 74.5871 84.9892 69.654C82.9444 64.7209 77.2876 62.3796 72.3543 64.4244C67.4211 66.4693 65.0795 72.126 67.1243 77.0591C69.169 81.9921 74.8258 84.3335 79.7591 82.2886Z" fill="#D5DC57"/>
<path d="M76.0241 63.1304C70.3772 63.1304 65.7827 67.7245 65.7827 73.3717C65.7827 79.019 70.3768 83.6128 76.0241 83.6128C81.6714 83.6128 86.2655 79.0186 86.2655 73.3717C86.2655 67.7249 81.6714 63.1304 76.0241 63.1304ZM76.0241 82.4643C71.0104 82.4643 66.9312 78.3854 66.9312 73.3717C66.9312 68.3581 71.0104 64.2788 76.0241 64.2788C81.0378 64.2788 85.1171 68.3581 85.1171 73.3717C85.1171 78.3854 81.0378 82.4643 76.0241 82.4643Z" fill="#3A312A"/>
<path d="M77.1733 72.2784C75.7654 71.7486 75.1854 71.4006 75.1854 70.8539C75.1854 70.3904 75.5334 69.9264 76.6098 69.9264C77.8023 69.9264 78.5641 70.3073 78.9948 70.4895L79.4752 68.6179C78.9285 68.353 78.1832 68.1207 77.0734 68.0713V66.6135H75.4503V68.1869C73.6783 68.5345 72.6512 69.6776 72.6512 71.1353C72.6512 72.742 73.8605 73.5704 75.6325 74.1664C76.8583 74.5806 77.3881 74.9784 77.3881 75.6073C77.3881 76.27 76.7419 76.6344 75.7979 76.6344C74.7211 76.6344 73.7441 76.2864 73.0482 75.9055L72.5513 77.8433C73.1806 78.2078 74.2571 78.5056 75.3669 78.5557V80.1291H76.99V78.4397C78.8949 78.1086 79.9384 76.8499 79.9384 75.3757C79.9396 73.885 79.1445 72.974 77.1733 72.2784Z" fill="#87796F"/>
<path d="M77.3757 71.7409C76.3035 71.3374 75.7599 71.0392 75.7599 70.8539C75.7599 70.5351 76.3548 70.5006 76.6105 70.5006C77.5794 70.5006 78.2213 70.7797 78.6459 70.9642L78.7714 71.0185C78.925 71.0832 79.0999 71.0786 79.25 71.0044C79.4 70.9305 79.5099 70.7946 79.5516 70.6327L80.032 68.7611C80.0998 68.4966 79.9719 68.2206 79.7262 68.1015C79.1194 67.8071 78.4357 67.6219 77.6483 67.5384V66.6135C77.6483 66.2962 77.3914 66.0393 77.0741 66.0393H75.4509C75.1336 66.0393 74.8767 66.2962 74.8767 66.6135V67.7352C73.1376 68.2343 72.0776 69.5045 72.0776 71.1353C72.0776 73.299 73.8799 74.1825 75.4494 74.7104C76.8145 75.1721 76.8145 75.4772 76.8145 75.6073C76.8145 76.0476 75.9027 76.0602 75.7985 76.0602C74.6922 76.0602 73.7738 75.6479 73.3248 75.4017C73.1694 75.3164 72.9829 75.308 72.8206 75.3788C72.6583 75.4496 72.537 75.5912 72.4929 75.7627L71.9961 77.7005C71.9321 77.9497 72.042 78.2112 72.2648 78.3402C72.8972 78.7062 73.8313 78.978 74.794 79.0859V80.1291C74.794 80.4464 75.0509 80.7033 75.3682 80.7033H76.9914C77.3087 80.7033 77.5656 80.4464 77.5656 80.1291V78.901C79.3725 78.4179 80.514 77.0746 80.514 75.3757C80.5136 73.6278 79.5424 72.5058 77.3757 71.7409ZM76.8926 77.8739C76.6178 77.9218 76.4168 78.1607 76.4168 78.4397V79.5553H75.9421V78.5561C75.9421 78.2491 75.7005 77.9964 75.3935 77.9823C74.6195 77.9478 73.8167 77.7782 73.2241 77.5336L73.4316 76.7232C74.0315 76.9697 74.8564 77.209 75.7981 77.209C77.1131 77.209 77.9626 76.5804 77.9626 75.6077C77.9626 74.5006 76.9313 73.9995 75.8158 73.6224C73.976 73.0038 73.2257 72.283 73.2257 71.1357C73.2257 69.9294 74.0988 69.0379 75.5612 68.7511C75.8307 68.6983 76.0248 68.4621 76.0248 68.1876V67.1885H76.4995V68.072C76.4995 68.3794 76.7414 68.6321 77.0484 68.6459C77.7157 68.6757 78.2922 68.7776 78.796 68.9567L78.6034 69.707C78.1237 69.5298 77.4687 69.3529 76.6105 69.3529C75.1367 69.3529 74.6114 70.1285 74.6114 70.8547C74.6114 71.8492 75.6339 72.3132 76.9822 72.8204C78.9602 73.5187 79.3652 74.3471 79.3652 75.3765C79.3652 76.652 78.4177 77.609 76.8926 77.8739Z" fill="#3A312A"/>
<path d="M90.1756 71.9051C89.2909 71.855 88.5579 72.5575 88.5579 73.431C88.5579 80.5609 82.5737 86.3192 75.3642 85.9475C69.0788 85.6232 63.9583 80.5961 63.5219 74.3176C63.5131 74.1882 63.5058 74.0592 63.5009 73.9306C63.4006 71.3738 64.1383 68.8537 65.5129 66.6954C66.3769 65.3391 67.4745 64.1394 68.7852 63.2076C70.0282 62.3245 71.4381 61.6618 72.9583 61.2779L71.0174 64.327C70.5948 64.9912 70.71 65.885 71.3252 66.3762C71.6123 66.6051 71.9492 66.7134 72.2818 66.7134C72.7871 66.7134 73.2813 66.4635 73.5727 66.0056L77.1198 60.4334C77.3874 60.1582 77.5528 59.783 77.5528 59.3688C77.5528 59.3569 77.5512 59.3454 77.5509 59.3336C77.5589 58.8202 77.3101 58.3145 76.8449 58.0186L70.9684 54.2774C70.2276 53.8058 69.2354 54.0519 68.8063 54.834C68.4146 55.5476 68.6845 56.4472 69.3713 56.8843L71.7907 58.4244C65.1094 60.312 60.2359 66.5515 60.4403 73.8739C60.6704 82.1132 67.3811 88.8063 75.6211 89.0153C84.376 89.2377 91.5737 82.2013 91.6146 73.5049C91.6184 72.6792 91.0014 71.9526 90.1756 71.9051Z" fill="#89C4DB"/>
<path d="M90.2082 71.3321C89.6229 71.2969 89.0671 71.5013 88.6425 71.9029C88.2237 72.2983 87.9837 72.8557 87.9837 73.4314C87.9837 76.7378 86.6592 79.8164 84.254 82.1006C81.8514 84.3822 78.7036 85.5455 75.3938 85.374C69.3702 85.0632 64.5127 80.2934 64.0947 74.2778C64.0859 74.1542 64.079 74.0309 64.0744 73.908C63.9802 71.5143 64.6452 69.1267 65.9969 67.004C66.854 65.6581 67.9041 64.5383 69.1176 63.6762C69.9004 63.1196 70.7376 62.6641 71.6181 62.3138L70.5328 64.0192C69.9406 64.9491 70.127 66.1557 70.9669 66.8256C71.3463 67.1284 71.8007 67.2881 72.2815 67.2881C73.005 67.2881 73.6688 66.924 74.0566 66.3146L77.575 60.7879C77.9314 60.399 78.1267 59.8963 78.1251 59.3432C78.1366 58.6055 77.7733 57.9295 77.1532 57.5352L71.2766 53.7939C70.7878 53.4827 70.1852 53.3862 69.6252 53.5309C69.0559 53.6768 68.5862 54.0416 68.3026 54.5584C67.7716 55.5258 68.1054 56.7603 69.0624 57.3694L70.4536 58.2552C63.9699 60.6313 59.6705 66.8922 59.8658 73.8912C60.1054 82.4765 67.0194 89.3725 75.6059 89.5907C75.7471 89.5942 75.8872 89.5961 76.0277 89.5961C80.249 89.5961 84.2287 87.9833 87.2736 85.0287C90.4218 81.9739 92.1675 77.8828 92.1881 73.5092C92.1939 72.3519 91.3241 71.3957 90.2082 71.3321ZM86.4747 84.2046C83.5519 87.0408 79.7027 88.5499 75.6357 88.4427C67.6598 88.2402 61.237 81.8342 61.0146 73.859C60.822 66.97 65.3178 60.8511 71.9469 58.978C72.1648 58.9163 72.3263 58.7326 72.3588 58.5086C72.3918 58.2847 72.2899 58.0623 72.0993 57.9409L69.6799 56.4005C69.232 56.1153 69.0697 55.5487 69.3101 55.1108C69.4391 54.8754 69.6527 54.7092 69.9108 54.643C69.9904 54.6227 70.0712 54.6124 70.1508 54.6124C70.3296 54.6124 70.5049 54.6633 70.6603 54.7621L76.5372 58.5033C76.8178 58.6821 76.9824 58.9891 76.9771 59.3248C76.9771 59.3309 76.9786 59.3631 76.9786 59.3688C76.9786 59.6177 76.8825 59.8539 76.708 60.0334C76.6808 60.0613 76.6563 60.0923 76.6356 60.1253L73.0881 65.6975C72.7956 66.1576 72.1196 66.2755 71.6836 65.9276C71.3103 65.6297 71.2303 65.062 71.5017 64.6356L73.4426 61.5865C73.5689 61.3878 73.5613 61.1324 73.4238 60.9418C73.286 60.7512 73.0456 60.6631 72.8178 60.7213C71.2479 61.1175 69.7795 61.7966 68.4526 62.7399C67.1178 63.6885 65.9655 64.9154 65.0284 66.3869C63.5503 68.7079 62.8234 71.3241 62.9267 73.9528C62.9321 74.0872 62.9394 74.222 62.9489 74.3571C63.4072 80.951 68.7317 86.1799 75.3344 86.5206C78.9639 86.7062 82.4115 85.4334 85.0445 82.9329C87.6801 80.4296 89.1318 77.0551 89.1318 73.4307C89.1318 73.1654 89.2378 72.9192 89.4307 72.7366C89.6237 72.5544 89.8794 72.4625 90.1428 72.4779C90.6401 72.5062 91.0428 72.9659 91.0401 73.5026C91.0209 77.5662 89.3997 81.3664 86.4747 84.2046Z" fill="#3A312A"/>
<path d="M52.1584 9.58305C50.6808 8.03266 48.5676 7.14453 46.355 7.14453C45.3597 7.14453 44.3873 7.32445 43.4839 7.66516C44.1155 7.89484 44.7127 8.20875 45.2601 8.59156C45.62 8.53414 45.9875 8.50734 46.355 8.50734C50.1486 8.50734 53.2341 11.432 53.2341 15.0266C53.2341 15.13 53.2303 15.2334 53.2265 15.3367C53.2035 15.8114 52.8819 16.2095 52.4264 16.332C52.3307 16.3588 52.235 16.3703 52.1393 16.3703C51.7833 16.3703 51.454 16.1942 51.2511 15.8841C50.5621 14.8238 49.54 14.0428 48.3494 13.6294C48.3992 14.0122 48.4145 14.4027 48.3954 14.7931L45.4324 76.8011L45.4286 76.8049L45.4133 77.1801L45.375 77.984C45.6659 77.8347 45.9951 77.7543 46.3435 77.7543C47.5494 77.7543 48.5294 78.7343 48.5294 79.9363V85.7627C49.138 85.4603 49.6663 85.0277 50.0683 84.5071C50.0721 84.4995 50.0759 84.4918 50.0836 84.488C50.1372 84.4152 50.1908 84.3387 50.2405 84.2621C50.2482 84.2506 50.2558 84.2391 50.2635 84.2277C50.3056 84.1664 50.3439 84.1013 50.3783 84.0362C50.4051 83.9941 50.4281 83.952 50.4511 83.9061C50.4817 83.8525 50.5085 83.7989 50.5353 83.7415C50.5697 83.6688 50.6042 83.5922 50.6348 83.5156C50.6463 83.485 50.6578 83.4544 50.6693 83.4238C50.7114 83.3089 50.7497 83.1941 50.7803 83.0754C50.7879 83.0524 50.7918 83.0295 50.7956 83.0103C50.8224 82.9108 50.8415 82.8151 50.8568 82.7155L50.8798 82.5777C50.8951 82.4629 50.9066 82.3481 50.9143 82.2332L51.1554 77.1801L51.1708 76.8049L51.1746 76.8011L54.1376 14.7931C54.2294 12.8676 53.5251 11.0186 52.1584 9.58305Z" fill="#D24E5C"/>
</svg>
