<svg width="82" height="82" viewBox="0 0 82 82" fill="none" xmlns="http://www.w3.org/2000/svg">
<path d="M74.3396 49.8548C73.8047 49.8292 73.2602 49.9445 72.7605 50.2039L62.0108 55.803H44.9894C41.2802 55.803 37.6479 56.8504 34.5088 58.8268L32.1129 60.3322C31.1968 60.9088 30.1333 61.2163 29.0475 61.2163H28.7432V63.7371C28.7451 63.7371 28.7464 63.7368 28.7483 63.7368V68.4525C28.7464 68.4525 28.7451 68.4521 28.7432 68.4521V71.3414L51.5654 70.6399C53.5225 70.5118 55.406 69.8551 57.0171 68.734L75.986 54.1502C76.6075 53.7178 76.8092 53.1124 76.8253 52.5294C76.8605 51.1361 75.733 49.9157 74.3396 49.8548Z" fill="#FCE8CB"/>
<path d="M74.3624 49.3748C73.7339 49.343 73.1042 49.4837 72.5385 49.7777L61.8933 55.3226H44.9897C41.1844 55.3226 37.4717 56.3938 34.2535 58.4201L31.8569 59.9255C31.0148 60.4557 30.0433 60.7359 29.0475 60.7359H28.7432C28.4776 60.7359 28.2627 60.9509 28.2627 61.2164V63.7373C28.2627 64.0028 28.4776 64.2177 28.7432 64.2177C28.7525 64.2177 28.763 64.2174 28.7733 64.2168C29.0273 64.2036 29.2288 63.9938 29.2288 63.7369C29.2288 63.7129 29.2272 63.6895 29.2236 63.6661V61.6943C30.339 61.6629 31.4229 61.3343 32.3681 60.7391L34.7647 59.2337C37.8298 57.3038 41.3654 56.2839 44.9894 56.2839H62.0108C62.088 56.2839 62.1642 56.2653 62.2328 56.2298L72.9822 50.631C73.397 50.4158 73.8585 50.3139 74.3188 50.3354C75.446 50.3847 76.374 51.3841 76.3451 52.517C76.3301 53.0648 76.1231 53.4706 75.6936 53.7701L56.743 68.3405C55.2074 69.409 53.4063 70.0388 51.551 70.1605L29.224 70.8469V68.5243C29.2275 68.5013 29.2291 68.4776 29.2291 68.4535C29.2291 68.197 29.0279 67.9872 28.7746 67.9737C28.4834 67.9551 28.263 68.1781 28.263 68.4532V71.3424C28.263 71.4725 28.3155 71.5968 28.4091 71.6874C28.4988 71.7745 28.6189 71.8229 28.7435 71.8229H28.7582L51.5971 71.1205C53.6436 70.9866 55.6126 70.2982 57.3102 69.1163L76.2609 54.5459C76.921 54.0862 77.2824 53.394 77.3057 52.543C77.3474 50.8966 75.9985 49.4462 74.3624 49.3748Z" fill="#3A312A"/>
<path d="M62.4905 56.0525C62.3899 55.8068 62.109 55.6896 61.864 55.7902C61.6183 55.8907 61.5011 56.1713 61.6016 56.417C61.9732 57.3232 61.4428 58.4171 60.7269 59.0292C59.8915 59.7438 58.7291 60.0907 57.7031 60.3969C55.3876 61.0881 53.2876 61.5138 51.0646 61.9648C48.9169 62.4005 46.6965 62.8508 43.9566 63.5895C43.7003 63.6586 43.5488 63.9223 43.6177 64.1785C43.6753 64.3928 43.8695 64.5341 44.0812 64.5341C44.1225 64.5341 44.1648 64.5286 44.2067 64.5174C46.9172 63.7868 49.1226 63.3393 51.2555 62.9069C53.5003 62.4517 55.6208 62.0215 57.9779 61.3181C59.0952 60.9844 60.3614 60.6064 61.3515 59.7598C62.2996 58.9485 63.0603 57.4423 62.4905 56.0525Z" fill="#3A312A"/>
<path d="M5.17432 56.1174H20.3091V76.7446H5.17432V56.1174Z" fill="#F16C7A"/>
<path d="M20.3091 55.637H5.17432C4.90878 55.637 4.69385 55.8519 4.69385 56.1174V76.7446C4.69385 77.0101 4.90878 77.2251 5.17432 77.2251H9.33037C9.59591 77.2251 9.81084 77.0101 9.81084 76.7446C9.81084 76.4791 9.59591 76.2641 9.33037 76.2641H5.65478V56.5979H19.8286V76.2641H13.7321C13.4666 76.2641 13.2516 76.4791 13.2516 76.7446C13.2516 77.0101 13.4666 77.2251 13.7321 77.2251H20.3091C20.5746 77.2251 20.7896 77.0101 20.7896 76.7446V56.1174C20.7896 55.8519 20.5743 55.637 20.3091 55.637Z" fill="#3A312A"/>
<path d="M26.1843 56.1174H20.3091V76.7446H26.1843C27.5978 76.7446 28.7439 75.5985 28.7439 74.185V58.677C28.7439 57.2632 27.5978 56.1174 26.1843 56.1174Z" fill="#8AC6DD"/>
<path d="M28.7439 64.2175C29.0094 64.2175 29.2243 64.0026 29.2243 63.737V58.677C29.2243 57.0009 27.8605 55.637 26.1843 55.637H20.3091C20.0435 55.637 19.8286 55.8519 19.8286 56.1174V76.7446C19.8286 77.0101 20.0435 77.2251 20.3091 77.2251H26.1843C27.8605 77.2251 29.2243 75.8612 29.2243 74.185V68.4523C29.2243 68.1868 29.0094 67.9719 28.7439 67.9719C28.4783 67.9719 28.2634 68.1868 28.2634 68.4523V74.185C28.2634 75.3314 27.3307 76.2641 26.1843 76.2641H20.7896V56.5979H26.1843C27.3307 56.5979 28.2634 57.5306 28.2634 58.677V63.737C28.2634 64.0026 28.4787 64.2175 28.7439 64.2175Z" fill="#3A312A"/>
<path d="M24.82 74.3705C25.8725 74.1999 26.5874 73.2083 26.4168 72.1558C26.2462 71.1033 25.2546 70.3884 24.2021 70.559C23.1496 70.7296 22.4347 71.7212 22.6053 72.7737C22.7759 73.8262 23.7675 74.5411 24.82 74.3705Z" fill="#87796F"/>
<path d="M24.5265 70.0552C23.1969 70.0552 22.1152 71.1369 22.1152 72.4665C22.1152 73.7961 23.1969 74.8778 24.5265 74.8778C25.8562 74.8778 26.9379 73.7961 26.9379 72.4665C26.9379 71.1369 25.8562 70.0552 24.5265 70.0552ZM24.5265 73.9169C23.7267 73.9169 23.0762 73.2663 23.0762 72.4665C23.0762 71.6667 23.7267 71.0161 24.5265 71.0161C25.3264 71.0161 25.9769 71.6667 25.9769 72.4665C25.9769 73.2663 25.3264 73.9169 24.5265 73.9169Z" fill="#3A312A"/>
<path d="M74.3205 50.3353C73.856 50.3129 73.3916 50.4154 72.9816 50.63L71.6299 51.3347C71.8509 51.6806 71.9758 52.0874 71.9662 52.5166C71.9534 53.0644 71.7452 53.4712 71.3159 53.7691L52.3631 68.3401C50.0984 69.9285 47.0584 70.2523 47.0635 70.2972L51.5527 70.1594C53.4041 70.0409 55.2042 69.4099 56.7417 68.3401L75.6946 53.7691C76.1238 53.4712 76.3288 53.0644 76.3449 52.5166C76.3737 51.3827 75.448 50.3833 74.3205 50.3353Z" fill="#DECAAD"/>
<path d="M15.3578 8.4541C15.0458 12.1582 11.186 12.7431 11.186 12.7431C14.5003 12.8991 15.3261 17.2464 15.3261 17.2464C15.3969 14.1467 19.593 12.6973 19.593 12.6973C16.4497 12.5089 15.3578 8.4541 15.3578 8.4541Z" fill="#D6DF58"/>
<path d="M19.6218 12.2173C16.8655 12.0523 15.8319 8.36582 15.8216 8.32835C15.7608 8.10349 15.5493 7.95743 15.3146 7.97536C15.0823 7.9965 14.8988 8.181 14.8793 8.41323C14.6035 11.6855 11.2552 12.2458 11.114 12.2679C10.8696 12.3047 10.6934 12.5209 10.7062 12.7679C10.719 13.0145 10.9167 13.2112 11.1636 13.223C14.0551 13.3589 14.8466 17.2968 14.8543 17.3365C14.8982 17.5642 15.0974 17.7263 15.3258 17.7263C15.3392 17.7263 15.3527 17.726 15.3661 17.7247C15.6108 17.7042 15.8008 17.5027 15.8066 17.2574C15.8687 14.5318 19.7115 13.1647 19.7506 13.1513C19.9668 13.076 20.1003 12.8585 20.069 12.6314C20.0372 12.4043 19.8505 12.231 19.6218 12.2173ZM15.2764 15.5312C14.8418 14.5286 14.0884 13.3188 12.8462 12.6881C13.7851 12.2381 14.8991 11.4347 15.4734 10.0385C15.9702 11.0222 16.8184 12.2422 18.1426 12.8323C17.1794 13.3573 15.9254 14.2429 15.2764 15.5312Z" fill="#3A312A"/>
<path d="M8.40775 13.8933C8.18705 16.5131 5.45703 16.9267 5.45703 16.9267C7.80108 17.0369 8.38533 20.1119 8.38533 20.1119C8.4353 17.9196 11.4033 16.8943 11.4033 16.8943C9.1797 16.7614 8.40775 13.8933 8.40775 13.8933Z" fill="#D6DF58"/>
<path d="M11.4318 16.4146C9.58459 16.3041 8.87798 13.7925 8.87126 13.7672C8.8104 13.5424 8.59867 13.3937 8.36452 13.4142C8.13198 13.4351 7.94844 13.6199 7.9289 13.8524C7.74344 16.0533 5.47979 16.4364 5.38498 16.4514C5.14058 16.4883 4.96441 16.7045 4.97722 16.9514C4.99003 17.1981 5.18766 17.3948 5.43462 17.4066C7.36771 17.4976 7.9084 20.1754 7.91352 20.2017C7.95676 20.43 8.15664 20.5924 8.38502 20.5924C8.39848 20.5924 8.41161 20.5921 8.42506 20.5908C8.6701 20.5707 8.86005 20.3685 8.86581 20.1229C8.90745 18.2942 11.5343 17.3573 11.5606 17.3483C11.7771 17.2734 11.911 17.0559 11.8796 16.8288C11.8476 16.6017 11.6605 16.4284 11.4318 16.4146ZM8.36132 18.5911C8.06535 17.9873 7.61179 17.3269 6.93689 16.8999C7.53139 16.5664 8.12109 16.0575 8.49713 15.3252C8.8357 15.9255 9.34756 16.5917 10.0798 16.9985C9.48754 17.3509 8.80207 17.8759 8.36132 18.5911Z" fill="#3A312A"/>
<path d="M8.39541 5.35449C8.18497 7.97529 5.45654 8.3997 5.45654 8.3997C7.80091 8.50092 8.39733 11.5737 8.39733 11.5737C8.43865 9.38114 11.4028 8.34429 11.4028 8.34429C9.17857 8.21969 8.39541 5.35449 8.39541 5.35449Z" fill="#D6DF58"/>
<path d="M11.4294 7.8644C9.58212 7.76093 8.86558 5.25257 8.85853 5.22726C8.79671 5.0024 8.58434 4.8541 8.3502 4.8762C8.11797 4.89798 7.93475 5.08344 7.91617 5.31631C7.73936 7.51782 5.47699 7.90988 5.38218 7.92525C5.1381 7.96337 4.96257 8.18022 4.97634 8.42686C4.9898 8.6735 5.18871 8.86954 5.43535 8.88011C7.36876 8.96371 7.92002 11.6393 7.92514 11.6652C7.96934 11.8926 8.16858 12.0541 8.39632 12.0541C8.41009 12.0541 8.42419 12.0534 8.43828 12.0525C8.68332 12.0313 8.87263 11.8286 8.87711 11.5829C8.9117 9.75392 11.5351 8.80707 11.561 8.79811C11.7775 8.72251 11.9101 8.50438 11.8781 8.27728C11.8461 8.04986 11.6581 7.87721 11.4294 7.8644ZM8.36781 10.0528C8.06928 9.44994 7.61316 8.79138 6.93666 8.36729C7.52988 8.0316 8.11733 7.52038 8.49049 6.78622C8.8313 7.38521 9.34573 8.04954 10.0799 8.45345C9.48859 8.80836 8.80568 9.33591 8.36781 10.0528Z" fill="#3A312A"/>
<path d="M53.9795 7.21182C52.6505 5.88284 50.8523 5.18809 48.9192 5.2608C47.0275 5.32998 45.2276 6.12628 43.8512 7.50266C42.8692 8.48474 41.8201 10.068 41.0005 11.7532C40.1808 10.0684 39.1317 8.48506 38.1497 7.50266C36.773 6.12596 34.9731 5.32998 33.0817 5.2608C31.1486 5.18809 29.3504 5.88284 28.0214 7.21182C26.6924 8.5408 25.9996 10.3381 26.0704 12.2721C26.1396 14.1639 26.9358 15.9637 28.3126 17.3401C29.6463 18.6739 32.0884 20.1326 34.3892 20.9702C35.8216 21.4917 37.1006 21.7518 38.2025 21.7518C39.3307 21.7518 40.2705 21.475 41.0008 20.9311C41.7314 21.4753 42.6709 21.7518 43.799 21.7518C44.9009 21.7518 46.1796 21.4917 47.6123 20.9702C49.9132 20.1329 52.3552 18.6742 53.689 17.3401C55.0657 15.9634 55.862 14.1636 55.9312 12.2721C56.0013 10.3377 55.3085 8.5408 53.9795 7.21182ZM39.4527 17.7908C39.4149 18.0864 39.3316 18.2946 39.2179 18.4087C38.8528 18.7741 37.5158 18.8238 35.4443 18.0698C33.558 17.3833 31.5227 16.1857 30.4945 15.1575C29.671 14.334 29.195 13.2689 29.1543 12.159C29.1153 11.0918 29.4878 10.1097 30.2034 9.39411C30.885 8.71248 31.8081 8.34188 32.8165 8.34188C32.8671 8.34188 32.9177 8.34284 32.9686 8.34477C34.0788 8.38544 35.1435 8.86143 35.9671 9.68495C36.9953 10.7132 38.1929 12.7487 38.8793 14.6347C39.2234 15.5803 39.3986 16.3708 39.4543 16.9878C39.4389 17.2655 39.437 17.5339 39.4527 17.7908ZM51.5061 15.1575C50.4779 16.1857 48.4426 17.383 46.5563 18.0698C44.4848 18.8238 43.1478 18.7741 42.7827 18.4087C42.6686 18.2946 42.5857 18.0864 42.5479 17.7908C42.5636 17.5342 42.5617 17.2655 42.5466 16.9881C42.6023 16.3712 42.7775 15.5806 43.1216 14.6351C43.808 12.7487 45.0056 10.7135 46.0338 9.68527C46.8574 8.86175 47.9221 8.38577 49.0323 8.34509C49.0829 8.34316 49.1338 8.3422 49.1841 8.3422C50.1925 8.3422 51.1156 8.71248 51.7972 9.39443C52.5128 10.11 52.8853 11.0921 52.8463 12.1594C52.8053 13.2692 52.3296 14.334 51.5061 15.1575Z" fill="#D7E057"/>
<path d="M49.1838 7.86169C49.1278 7.86169 49.0717 7.86265 49.0141 7.86458C47.7824 7.91006 46.6031 8.43569 45.6937 9.34538C44.621 10.4181 43.3775 12.5254 42.6696 14.4704C42.3352 15.3887 42.1328 16.2212 42.0674 16.9448C42.0655 16.9679 42.0652 16.9912 42.0665 17.0143C42.0812 17.2846 42.0818 17.5361 42.0681 17.7616C42.0662 17.7917 42.0671 17.8218 42.071 17.8519C42.1222 18.2514 42.2471 18.5531 42.4425 18.7485C42.7081 19.0143 43.176 19.1457 43.7914 19.1457C44.5694 19.1457 45.5829 18.9355 46.7203 18.5217C48.6652 17.8138 50.7729 16.5703 51.8453 15.4976C52.755 14.5883 53.2806 13.4089 53.3258 12.1769C53.3697 10.9748 52.9472 9.86589 52.1361 9.05454C51.3677 8.28515 50.319 7.86169 49.1838 7.86169ZM51.1662 14.8179C50.1822 15.8019 48.219 16.9534 46.3917 17.6184C44.3461 18.3628 43.2785 18.2087 43.1229 18.0697C43.1059 18.0508 43.0588 17.9621 43.0297 17.7709C43.0425 17.53 43.0418 17.276 43.0277 16.9976C43.0883 16.3724 43.2763 15.6129 43.5726 14.7993C44.2376 12.972 45.3891 11.0088 46.3731 10.0248C47.1104 9.2874 48.0608 8.86139 49.048 8.82487C49.9779 8.79156 50.8395 9.11604 51.4571 9.7336C52.0772 10.354 52.3998 11.209 52.3658 12.1414C52.3299 13.1299 51.9036 14.0802 51.1662 14.8179ZM39.9326 16.9448C39.8672 16.2212 39.6648 15.389 39.3304 14.4704C38.6225 12.5254 37.379 10.4178 36.3063 9.34538C35.3969 8.43601 34.2175 7.91006 32.9843 7.86458C31.7867 7.82422 30.6701 8.24703 29.8632 9.05422C29.0522 9.86557 28.6297 10.9745 28.6736 12.1766C28.7187 13.4085 29.2444 14.5876 30.154 15.4973C31.2268 16.57 33.3341 17.8135 35.2794 18.5214C36.4171 18.9352 37.4306 19.1453 38.2083 19.1453C38.8236 19.1453 39.2916 19.014 39.5571 18.7482C39.7525 18.5528 39.8778 18.251 39.929 17.8516C39.9329 17.8218 39.9338 17.7914 39.9319 17.7613C39.9181 17.5358 39.9188 17.2846 39.9335 17.014C39.9351 16.9909 39.9348 16.9679 39.9326 16.9448ZM38.9703 17.7709C38.9412 17.9618 38.8941 18.0508 38.8787 18.0681C38.7214 18.2084 37.6542 18.3628 35.6083 17.6184C33.7809 16.9534 31.8178 15.8019 30.8338 14.8179C30.0964 14.0806 29.6704 13.1299 29.6342 12.1417C29.6002 11.2093 29.9228 10.354 30.5429 9.73392C31.1304 9.14647 31.9379 8.82263 32.8162 8.82263C32.8613 8.82263 32.9065 8.82327 32.9504 8.82487C33.9389 8.86107 34.8892 9.2874 35.6266 10.0248C36.6106 11.0088 37.7621 12.972 38.4271 14.7993C38.7234 15.6133 38.9114 16.3724 38.9719 16.9976C38.9582 17.276 38.9575 17.53 38.9703 17.7709ZM54.3191 6.87193C52.8927 5.44558 50.9702 4.70373 48.9016 4.78029C46.8881 4.85364 44.9739 5.6999 43.5114 7.16277C42.6677 8.00615 41.7763 9.26626 41.0002 10.7009C40.224 9.26626 39.3326 8.00615 38.4889 7.16277C37.0264 5.6999 35.1118 4.85396 33.099 4.78029C31.0304 4.70469 29.1073 5.44526 27.6809 6.87193C26.2565 8.29604 25.5134 10.2202 25.5893 12.2897C25.6633 14.3029 26.5092 16.217 27.9718 17.6799C29.3507 19.0589 31.8632 20.5627 34.2239 21.4218C37.0885 22.4644 39.4152 22.4993 40.9998 21.5121C41.7673 21.9904 42.7068 22.2322 43.7981 22.2322C44.9602 22.2322 46.2984 21.9596 47.7757 21.4218C50.1361 20.5627 52.6486 19.0592 54.0279 17.6799C55.4905 16.2174 56.3364 14.3032 56.4104 12.2897C56.4866 10.2202 55.7435 8.29604 54.3191 6.87193ZM53.3488 17.0005C52.0596 18.2891 49.6883 19.7033 47.4474 20.5185C44.743 21.5028 42.5988 21.5224 41.2872 20.5454C41.2019 20.482 41.1011 20.4503 41.0002 20.4503C40.8993 20.4503 40.7984 20.482 40.7132 20.5454C39.4018 21.5224 37.2573 21.5028 34.5529 20.5185C32.312 19.703 29.9407 18.2891 28.6515 17.0005C27.3612 15.71 26.6146 14.0245 26.5499 12.2548C26.4839 10.4553 27.1271 8.78483 28.3606 7.55163C29.5961 6.31619 31.2646 5.67236 33.0638 5.7409C34.8338 5.80561 36.5193 6.55194 37.8095 7.84247C38.7285 8.76145 39.7599 10.3018 40.5681 11.9633C40.6484 12.1286 40.816 12.2336 41.0002 12.2336C41.1843 12.2336 41.3519 12.1286 41.4323 11.9633C42.2404 10.3018 43.2718 8.76145 44.1908 7.84247C45.4813 6.55194 47.1668 5.80561 48.9372 5.7409C50.7383 5.67236 52.4046 6.31651 53.6397 7.55163C54.8732 8.78515 55.5164 10.4553 55.4504 12.2548C55.3857 14.0245 54.6391 15.7097 53.3488 17.0005Z" fill="#3A312A"/>
<path d="M24.667 29.3928V50.3989C24.667 51.4239 25.4979 52.2548 26.5229 52.2548H55.4766C56.5016 52.2548 57.3325 51.4239 57.3325 50.3989V29.3928H24.667Z" fill="#8AC5DC"/>
<path d="M57.3325 28.9124H24.667C24.4015 28.9124 24.1865 29.1273 24.1865 29.3928V50.3989C24.1865 51.6869 25.2346 52.735 26.5229 52.735H55.4766C56.7649 52.735 57.8129 51.6869 57.8129 50.3989V29.3928C57.8129 29.1276 57.5977 28.9124 57.3325 28.9124ZM56.852 50.3989C56.852 51.1571 56.2351 51.774 55.4766 51.774H26.5229C25.7644 51.774 25.1475 51.1571 25.1475 50.3989V29.8733H56.8517V50.3989H56.852Z" fill="#3A312A"/>
<path d="M58.4989 20.8643H23.5009C22.4759 20.8643 21.645 21.6951 21.645 22.7201V27.5373C21.645 28.5623 22.4759 29.3932 23.5009 29.3932H58.4989C59.5239 29.3932 60.3548 28.5623 60.3548 27.5373V22.7198C60.3548 21.6951 59.5239 20.8643 58.4989 20.8643Z" fill="#8AC5DC"/>
<path d="M58.4989 20.3838H23.5009C22.2126 20.3838 21.1646 21.4319 21.1646 22.7201V27.5373C21.1646 28.8256 22.2126 29.8737 23.5009 29.8737H58.4989C59.7872 29.8737 60.8353 28.8256 60.8353 27.5373V22.7201C60.8353 21.4319 59.7872 20.3838 58.4989 20.3838ZM59.8743 27.537C59.8743 28.2955 59.2574 28.9124 58.4989 28.9124H23.5009C22.7427 28.9124 22.1255 28.2955 22.1255 27.537V22.7201C22.1255 21.9616 22.7424 21.3447 23.5009 21.3447H58.4989C59.2574 21.3447 59.8743 21.9616 59.8743 22.7201V27.537Z" fill="#3A312A"/>
<path d="M39.1997 20.8643V52.2549H42.8007V40.8732V36.303V20.8643H39.1997Z" fill="#D7E057"/>
<path d="M42.8007 36.7835C43.0662 36.7835 43.2811 36.5685 43.2811 36.303V20.8643C43.2811 20.5987 43.0662 20.3838 42.8007 20.3838H39.1997C38.9342 20.3838 38.7192 20.5987 38.7192 20.8643V52.2549C38.7192 52.5204 38.9342 52.7353 39.1997 52.7353H42.8007C43.0662 52.7353 43.2811 52.5204 43.2811 52.2549V40.8732C43.2811 40.6077 43.0662 40.3927 42.8007 40.3927C42.5351 40.3927 42.3202 40.6077 42.3202 40.8732V51.7744H39.6802V21.3447H42.3202V36.303C42.3202 36.5685 42.5351 36.7835 42.8007 36.7835Z" fill="#3A312A"/>
</svg>
