<svg width="84" height="84" viewBox="0 0 84 84" fill="none" xmlns="http://www.w3.org/2000/svg">
<path d="M73.8516 35.5938H10.1481C7.51855 35.5938 5.38672 37.7256 5.38672 40.3552V73.7449C5.38672 76.3744 7.51855 78.5063 10.1481 78.5063H73.8516C76.4812 78.5063 78.6131 76.3744 78.6131 73.7449V40.3552C78.6131 37.7256 76.4812 35.5938 73.8516 35.5938Z" fill="#FAE6CA"/>
<path d="M73.8516 35.1014H49.9241C49.6524 35.1014 49.4319 35.3219 49.4319 35.5936C49.4319 35.8653 49.6524 36.0858 49.9241 36.0858H73.8516C76.2056 36.0858 78.1209 38.001 78.1209 40.355V73.7447C78.1209 76.099 76.2056 78.0142 73.8516 78.0142H10.1481C7.79417 78.0142 5.87891 76.099 5.87891 73.7447V40.3547C5.87891 38.0007 7.79417 36.0854 10.1481 36.0854H45.3957C45.6673 36.0854 45.8878 35.8649 45.8878 35.5933C45.8878 35.3216 45.6673 35.1011 45.3957 35.1011H10.1481C7.25145 35.1011 4.89453 37.458 4.89453 40.3547V73.7444C4.89453 76.6414 7.25145 78.9983 10.1481 78.9983H73.852C76.7487 78.9983 79.1056 76.6414 79.1056 73.7444V40.3547C79.1053 37.458 76.7483 35.1014 73.8516 35.1014Z" fill="#3A312A"/>
<path d="M29.7183 35.1018C29.4466 35.1018 29.2261 35.3223 29.2261 35.594V49.6712C29.2261 49.9429 29.4466 50.1634 29.7183 50.1634C29.9899 50.1634 30.2104 49.9429 30.2104 49.6712V35.594C30.2104 35.322 29.9899 35.1018 29.7183 35.1018Z" fill="#3A312A"/>
<path d="M29.7183 54.324C29.4466 54.324 29.2261 54.5445 29.2261 54.8162V78.5058C29.2261 78.7775 29.4466 78.998 29.7183 78.998C29.9899 78.998 30.2104 78.7775 30.2104 78.5058V54.8162C30.2104 54.5441 29.9899 54.324 29.7183 54.324Z" fill="#3A312A"/>
<path d="M54.2817 35.1018C54.0101 35.1018 53.7896 35.3223 53.7896 35.594V78.5058C53.7896 78.7775 54.0101 78.998 54.2817 78.998C54.5534 78.998 54.7739 78.7775 54.7739 78.5058V35.594C54.7739 35.322 54.5534 35.1018 54.2817 35.1018Z" fill="#3A312A"/>
<path d="M15.5912 8.75244C15.2716 12.5465 11.3174 13.1457 11.3174 13.1457C14.7125 13.3055 15.5584 17.7588 15.5584 17.7588C15.6309 14.5835 19.9294 13.0988 19.9294 13.0988C16.7095 12.9062 15.5912 8.75244 15.5912 8.75244Z" fill="#D6DF58"/>
<path d="M19.9589 12.6074C17.1357 12.4384 16.0762 8.66203 16.0661 8.62364C16.0034 8.3933 15.7875 8.24039 15.5463 8.26205C15.3084 8.2837 15.1204 8.47271 15.1004 8.7106C14.8182 12.0627 11.3883 12.6366 11.2436 12.6589C10.9932 12.697 10.8124 12.9185 10.8259 13.1711C10.839 13.4241 11.0415 13.6256 11.2945 13.6374C14.2568 13.7768 15.0676 17.8105 15.0751 17.8515C15.1204 18.0848 15.3245 18.2508 15.5584 18.2508C15.5722 18.2508 15.586 18.2502 15.5998 18.2492C15.8508 18.2282 16.0451 18.0218 16.051 17.7701C16.1143 14.9781 20.0511 13.5777 20.0912 13.5639C20.313 13.4871 20.4495 13.264 20.4173 13.0317C20.3845 12.7987 20.1932 12.6212 19.9589 12.6074ZM15.5076 16.0022C15.0626 14.9748 14.2906 13.7358 13.0181 13.0894C13.9798 12.6287 15.1207 11.8055 15.7091 10.3752C16.2183 11.3828 17.0872 12.6327 18.444 13.2374C17.457 13.7749 16.1724 14.6825 15.5076 16.0022Z" fill="#3A312A"/>
<path d="M8.47093 14.3237C8.24485 17.0075 5.44824 17.4311 5.44824 17.4311C7.84946 17.544 8.44796 20.694 8.44796 20.694C8.49915 18.4483 11.5396 17.3979 11.5396 17.3979C9.26204 17.2618 8.47093 14.3237 8.47093 14.3237Z" fill="#D6DF58"/>
<path d="M11.5694 16.9072C9.67745 16.794 8.95361 14.2211 8.94639 14.1952C8.88437 13.9649 8.66256 13.8165 8.42762 13.8336C8.1894 13.8549 8.00106 14.0446 7.98104 14.2825C7.79139 16.5367 5.4722 16.9291 5.37541 16.9446C5.12505 16.9826 4.94458 17.2041 4.9577 17.4568C4.97083 17.7098 5.17328 17.9112 5.42627 17.923C7.40617 18.0162 7.96037 20.7593 7.96529 20.7863C8.00992 21.0202 8.21434 21.1866 8.44862 21.1866C8.46208 21.1866 8.47586 21.1859 8.48964 21.1849C8.74065 21.1643 8.93523 20.9575 8.94114 20.7055C8.98379 18.8326 11.6747 17.8728 11.7013 17.8636C11.9231 17.7869 12.06 17.5641 12.0281 17.3314C11.9957 17.0988 11.8037 16.9209 11.5694 16.9072ZM8.42434 19.1368C8.12115 18.5179 7.65686 17.8417 6.9655 17.4046C7.5745 17.0627 8.17858 16.5416 8.56347 15.7912C8.91062 16.4061 9.43431 17.0886 10.1847 17.5053C9.5777 17.8663 8.87617 18.4044 8.42434 19.1368Z" fill="#3A312A"/>
<path d="M8.47093 5.57739C8.24485 8.26112 5.44824 8.68506 5.44824 8.68506C7.84946 8.79794 8.44796 11.9479 8.44796 11.9479C8.49915 9.70192 11.5396 8.65192 11.5396 8.65192C9.26204 8.51542 8.47093 5.57739 8.47093 5.57739Z" fill="#D6DF58"/>
<path d="M11.5694 8.16038C9.67745 8.04718 8.95361 5.47403 8.94639 5.44811C8.88437 5.21776 8.66256 5.06486 8.42762 5.08651C8.1894 5.10784 8.00106 5.2975 7.98104 5.53539C7.79139 7.78993 5.4722 8.18204 5.37541 8.19746C5.12505 8.23552 4.94458 8.45701 4.9577 8.70966C4.97083 8.96265 5.17328 9.16412 5.42627 9.17593C7.40617 9.26912 7.96037 12.0126 7.96529 12.0395C8.00992 12.2734 8.21434 12.4398 8.44862 12.4398C8.46208 12.4398 8.47586 12.4391 8.48964 12.4381C8.74065 12.4175 8.93523 12.2108 8.94114 11.9588C8.98379 10.0858 11.6747 9.12606 11.7013 9.11687C11.9231 9.04009 12.06 8.81729 12.0281 8.58465C11.9957 8.35201 11.8037 8.17417 11.5694 8.16038ZM8.42434 10.39C8.12115 9.77082 7.65686 9.09488 6.9655 8.65749C7.5745 8.31592 8.17858 7.79453 8.56347 7.04443C8.91062 7.65901 9.43431 8.34184 10.1847 8.75856C9.5777 9.11949 8.87617 9.65762 8.42434 10.39Z" fill="#3A312A"/>
<path d="M54.3127 16.9368C55.5386 15.7417 54.8624 13.6598 53.1679 13.4137L47.8054 12.6344C47.1327 12.5366 46.551 12.114 46.2501 11.5043L43.8518 6.64512C43.0942 5.10983 40.9049 5.10983 40.1473 6.64512L37.749 11.5043C37.4481 12.114 36.8664 12.5366 36.1937 12.6344L30.8318 13.4137C29.1377 13.6598 28.4611 15.7417 29.687 16.9368L33.5674 20.7191C34.0543 21.1935 34.2765 21.8773 34.1613 22.5474L33.2452 27.8883C32.9558 29.5758 34.727 30.8624 36.2423 30.0657L41.0385 27.5441C41.6402 27.2277 42.3592 27.2277 42.9609 27.5441L47.7571 30.0657C49.2724 30.8624 51.0436 29.5758 50.7542 27.8883L49.8381 22.5474C49.7233 21.8773 49.9454 21.1939 50.4323 20.7191L54.3127 16.9368Z" fill="#D6DF58"/>
<path d="M54.6568 17.2894C55.3593 16.605 55.607 15.6006 55.3042 14.6677C55.0013 13.7348 54.2099 13.0678 53.2393 12.9267L47.8767 12.1474C47.3642 12.0729 46.9216 11.7513 46.6922 11.2867L44.2939 6.42717C43.8601 5.54779 42.9811 5.00146 42.0003 5.00146C41.0196 5.00146 40.1405 5.54779 39.7067 6.42717L37.3085 11.2867C37.0791 11.7513 36.6361 12.0729 36.1239 12.1474L30.7614 12.9267C29.7908 13.0678 28.9997 13.7348 28.6965 14.6677C28.3933 15.6006 28.6414 16.605 29.3439 17.2894L33.2243 21.0717C33.5951 21.4333 33.7644 21.9537 33.6768 22.4643L32.7607 27.8048C32.5949 28.7715 32.9851 29.73 33.7782 30.3065C34.5716 30.883 35.6039 30.9575 36.4721 30.5014L41.2683 27.9797C41.7263 27.7389 42.2743 27.7389 42.7327 27.9797L47.5289 30.5014C47.9066 30.6996 48.3151 30.7977 48.7216 30.7977C49.2496 30.7977 49.7743 30.6323 50.2228 30.3065C51.0159 29.73 51.4057 28.7715 51.2403 27.8048L50.3242 22.4646C50.2366 21.9537 50.4059 21.433 50.7767 21.0717L54.6568 17.2894ZM49.3536 22.6313L50.2697 27.9719C50.3731 28.5753 50.1395 29.1505 49.644 29.5104C49.1482 29.8704 48.5294 29.9147 47.987 29.6299L43.1908 27.1082C42.818 26.9123 42.4092 26.8146 42.0003 26.8146C41.5915 26.8146 41.1826 26.9123 40.8099 27.1082L36.0137 29.6299C35.4719 29.9147 34.8524 29.8701 34.3567 29.5104C33.8612 29.1502 33.6272 28.575 33.7309 27.9719L34.647 22.631C34.7891 21.8011 34.5142 20.9549 33.9114 20.3672L30.0306 16.5846C29.5923 16.1571 29.4433 15.5543 29.6326 14.9719C29.822 14.3894 30.2964 13.9891 30.9028 13.9009L36.2654 13.1216C37.0985 13.0005 37.818 12.4775 38.1908 11.7224L40.5891 6.86292C40.8601 6.31364 41.388 5.98584 42.0003 5.98584C42.6126 5.98584 43.1406 6.31364 43.4116 6.86292L45.8099 11.7224C46.1826 12.4775 46.9022 13.0005 47.7353 13.1216L53.0979 13.9009C53.7042 13.9891 54.1787 14.3891 54.368 14.9719C54.5574 15.5546 54.4084 16.1571 53.97 16.5846L50.0893 20.3669C49.4865 20.9546 49.2119 21.8008 49.3536 22.6313Z" fill="#3A312A"/>
<path d="M70.809 23.7873C71.4068 23.2045 71.0771 22.1893 70.2509 22.0692L67.636 21.6893C67.3079 21.6417 67.0244 21.4356 66.8777 21.1383L65.7083 18.7686C65.3388 18.0202 64.2711 18.0202 63.9016 18.7686L62.7322 21.1383C62.5855 21.4356 62.3017 21.6417 61.9739 21.6893L59.3591 22.0692C58.5329 22.1893 58.2031 23.2045 58.8009 23.7873L60.6932 25.6317C60.9308 25.8633 61.0391 26.1967 60.983 26.5232L60.5364 29.1275C60.3953 29.9505 61.2589 30.5778 61.9979 30.1893L64.3367 28.9595C64.6301 28.8053 64.9808 28.8053 65.2742 28.9595L67.6131 30.1893C68.352 30.5778 69.2156 29.9501 69.0745 29.1275L68.6279 26.5232C68.5718 26.1964 68.6801 25.863 68.9177 25.6317L70.809 23.7873Z" fill="#D5DE58"/>
<path d="M71.1527 24.1398C71.5645 23.7382 71.7098 23.1495 71.532 22.6025C71.3545 22.0559 70.8908 21.6647 70.3219 21.582L67.7067 21.2024C67.5387 21.1781 67.394 21.0725 67.3185 20.9205L66.1494 18.5508C65.8951 18.0353 65.3796 17.7151 64.8048 17.7151C64.2299 17.7151 63.7147 18.0353 63.4601 18.5508L62.291 20.9205C62.2159 21.0728 62.0708 21.1781 61.9028 21.2024L59.2877 21.582C58.7187 21.6647 58.2551 22.0559 58.0776 22.6025C57.8997 23.1495 58.0451 23.7382 58.4569 24.1398L60.3492 25.9842C60.4706 26.1023 60.526 26.2729 60.4971 26.4403L60.0506 29.0449C59.9534 29.6116 60.1821 30.1733 60.6471 30.5113C61.1124 30.8496 61.7174 30.8932 62.2264 30.6258L64.5652 29.396C64.7152 29.3173 64.8947 29.3169 65.0446 29.3963L67.3835 30.6258C67.605 30.742 67.8442 30.7994 68.0827 30.7994C68.3922 30.7994 68.6999 30.7023 68.9628 30.5113C69.4277 30.1737 69.6564 29.6116 69.5593 29.0446L69.1127 26.4403C69.0839 26.2729 69.1393 26.1026 69.2607 25.9842L71.1527 24.1398ZM68.5733 25.2794C68.2199 25.6239 68.0588 26.1203 68.1421 26.6069L68.5887 29.211C68.6228 29.4088 68.5461 29.5972 68.3836 29.7149C68.2219 29.8324 68.0188 29.8475 67.8416 29.754L65.5027 28.5248C65.2842 28.4097 65.0446 28.3522 64.8048 28.3522C64.5649 28.3522 64.3254 28.41 64.1069 28.5245L61.768 29.754C61.5905 29.8475 61.3877 29.8324 61.2259 29.7149C61.0635 29.5972 60.9867 29.4085 61.0208 29.2113L61.4674 26.6069C61.5508 26.1203 61.3896 25.6239 61.0363 25.2794L59.144 23.435C59.0002 23.2949 58.9517 23.0977 59.0137 22.907C59.0757 22.7164 59.2312 22.5854 59.4298 22.5566L62.0449 22.1769C62.5335 22.1057 62.9555 21.7993 63.1737 21.3566L64.3428 18.9869C64.4317 18.8071 64.6043 18.6998 64.8048 18.6998C65.0053 18.6998 65.1782 18.8071 65.2668 18.9869L66.4359 21.3566C66.6541 21.7993 67.0761 22.1057 67.5646 22.1769L70.1798 22.5566C70.378 22.5854 70.5335 22.7164 70.5959 22.907C70.6575 23.0977 70.609 23.2952 70.4656 23.435L68.5733 25.2794Z" fill="#3A312A"/>
<path d="M25.1995 23.7873C25.7973 23.2045 25.4675 22.1893 24.6413 22.0692L22.0265 21.6893C21.6984 21.6417 21.4149 21.4356 21.2682 21.1383L20.0984 18.7686C19.729 18.0202 18.6616 18.0202 18.2918 18.7686L17.1223 21.1383C16.9757 21.4356 16.6922 21.6417 16.364 21.6893L13.7492 22.0692C12.923 22.1893 12.5932 23.2045 13.1911 23.7873L15.0834 25.6317C15.3209 25.8633 15.4292 26.1967 15.3731 26.5232L14.9265 29.1275C14.7854 29.9505 15.6491 30.5778 16.388 30.1893L18.7269 28.9595C19.0202 28.8053 19.371 28.8053 19.6643 28.9595L22.0032 30.1893C22.7421 30.5778 23.6058 29.9501 23.4647 29.1275L23.0181 26.5232C22.962 26.1964 23.0703 25.863 23.3078 25.6317L25.1995 23.7873Z" fill="#D5DE58"/>
<path d="M25.5436 24.1398C25.9554 23.7382 26.1008 23.1495 25.9229 22.6025C25.7454 22.0559 25.2818 21.6647 24.7125 21.582L22.0973 21.2024C21.9293 21.1781 21.7846 21.0725 21.7092 20.9205L20.54 18.5508C20.2857 18.0353 19.7703 17.7151 19.1954 17.7151C18.6205 17.7151 18.1054 18.0353 17.8507 18.5508L16.6816 20.9205C16.6065 21.0728 16.4615 21.1781 16.2935 21.2024L13.6783 21.582C13.1093 21.6647 12.6457 22.0559 12.4682 22.6025C12.2903 23.1495 12.4357 23.7382 12.8475 24.1398L14.7398 25.9842C14.8612 26.1023 14.9166 26.2729 14.8878 26.4403L14.4412 29.0449C14.3441 29.6116 14.5728 30.1733 15.0377 30.5113C15.503 30.8496 16.1081 30.8932 16.617 30.6258L18.9559 29.396C19.1058 29.3173 19.2853 29.3169 19.4352 29.3963L21.7741 30.6258C21.9956 30.742 22.2348 30.7994 22.4734 30.7994C22.7828 30.7994 23.0906 30.7023 23.3534 30.5113C23.8183 30.1737 24.047 29.6116 23.9499 29.0446L23.5033 26.4403C23.4745 26.2729 23.5299 26.1026 23.6513 25.9842L25.5436 24.1398ZM22.9642 25.2794C22.6108 25.6239 22.4497 26.1203 22.5331 26.6069L22.9796 29.211C23.0138 29.4088 22.937 29.5972 22.7746 29.7149C22.6128 29.8324 22.4097 29.8475 22.2325 29.754L19.8936 28.5248C19.6751 28.4097 19.4352 28.3522 19.1957 28.3522C18.9559 28.3522 18.7163 28.41 18.4978 28.5245L16.1589 29.754C15.9817 29.8475 15.7786 29.8324 15.6169 29.7149C15.4544 29.5972 15.3777 29.4085 15.4118 29.2113L15.8584 26.6069C15.9417 26.1203 15.7806 25.6239 15.4269 25.2794L13.5346 23.435C13.3909 23.2949 13.3423 23.0977 13.4043 22.907C13.4663 22.7164 13.6219 22.5854 13.8204 22.5566L16.4355 22.1769C16.9241 22.1057 17.3461 21.7993 17.5643 21.3566L18.7337 18.9869C18.8226 18.8071 18.9952 18.6998 19.1957 18.6998C19.3962 18.6998 19.5691 18.8071 19.6577 18.9869L20.8268 21.3566C21.045 21.7993 21.467 22.1057 21.9556 22.1769L24.5707 22.5566C24.7689 22.5854 24.9244 22.7164 24.9868 22.907C25.0488 23.0977 24.9999 23.2952 24.8565 23.435L22.9642 25.2794Z" fill="#3A312A"/>
<path d="M19.5696 54.9177C16.4983 53.7617 15.2331 53.0031 15.2331 51.8103C15.2331 50.799 15.992 49.7868 18.3408 49.7868C20.9421 49.7868 22.6044 50.6176 23.5438 51.0153L24.5919 46.9327C23.3991 46.3543 21.7733 45.8476 19.3524 45.74V42.5598H15.8116V45.9923C11.9453 46.7513 9.70517 49.2441 9.70517 52.4242C9.70517 55.9293 12.343 57.7363 16.2093 59.0366C18.8832 59.9399 20.0395 60.8075 20.0395 62.1801C20.0395 63.6261 18.6298 64.4208 16.5705 64.4208C14.2218 64.4208 12.09 63.6619 10.5724 62.831L9.48828 67.0583C10.8615 67.853 13.2099 68.5034 15.6308 68.612V72.0445H19.1719V68.3586C23.3273 67.6368 25.6038 64.8904 25.6038 61.6744C25.6038 58.4227 23.8693 56.4352 19.5696 54.9177Z" fill="#87796F"/>
<path d="M19.7432 54.4573C16.7396 53.3272 15.7257 52.6595 15.7257 51.8106C15.7257 50.8233 16.6546 50.2796 18.3415 50.2796C20.6121 50.2796 22.0995 50.926 23.0839 51.3532L23.3523 51.4694C23.4848 51.5252 23.6341 51.5206 23.7624 51.4572C23.891 51.3936 23.9855 51.2771 24.021 51.1383L25.069 47.0558C25.1271 46.829 25.0178 46.5928 24.8068 46.4904C23.3933 45.805 21.7661 45.406 19.8449 45.2754V42.5608C19.8449 42.2891 19.6244 42.0686 19.3527 42.0686H15.8116C15.5399 42.0686 15.3194 42.2891 15.3194 42.5608V45.5956C11.5411 46.476 9.21302 49.0636 9.21302 52.4249C9.21302 56.66 12.868 58.4332 16.0515 59.5038C18.9528 60.484 19.547 61.2829 19.547 62.1807C19.547 63.8029 17.2688 63.9293 16.5706 63.9293C13.9876 63.9293 11.8518 62.9711 10.8087 62.4002C10.6758 62.327 10.5154 62.3201 10.3766 62.3802C10.2368 62.4409 10.1334 62.5623 10.0957 62.7093L9.01155 66.9365C8.95676 67.1501 9.05093 67.3743 9.24157 67.4848C10.6811 68.3183 12.9054 68.9145 15.1386 69.0769V72.0454C15.1386 72.3171 15.3591 72.5376 15.6308 72.5376H19.172C19.4436 72.5376 19.6641 72.3171 19.6641 72.0454V68.7662C23.5859 67.9353 26.0964 65.188 26.0964 61.6754C26.096 58.1877 24.1932 56.028 19.7432 54.4573ZM19.0876 67.8746C18.8517 67.9157 18.6798 68.1201 18.6798 68.3596V71.5529H16.123V68.6126C16.123 68.3491 15.916 68.1325 15.6528 68.1211C13.6122 68.0295 11.4705 67.5222 10.0606 66.8089L10.8956 63.5523C12.1383 64.1567 14.173 64.9133 16.5706 64.9133C19.0138 64.9133 20.5314 63.8663 20.5314 62.1804C20.5314 60.3524 18.8665 59.4153 16.3662 58.5707C12.0421 57.1161 10.1974 55.2779 10.1974 52.4246C10.1974 49.4012 12.3315 47.1775 15.9064 46.4756C16.1371 46.4304 16.3038 46.2279 16.3038 45.9926V43.0523H18.8606V45.74C18.8606 46.0035 19.0679 46.22 19.3311 46.2315C21.1528 46.3126 22.6895 46.6328 24.0134 47.2084L23.2108 50.3354C22.1956 49.9013 20.6082 49.2946 18.3415 49.2946C15.0008 49.2946 14.7413 51.2197 14.7413 51.81C14.7413 53.3548 16.2424 54.1915 19.4062 55.3816C23.4589 56.8122 25.112 58.6353 25.112 61.6747C25.1117 64.8533 22.8033 67.2289 19.0876 67.8746Z" fill="#3A312A"/>
<path d="M44.0229 54.9177C40.9516 53.7617 39.6867 53.0031 39.6867 51.8103C39.6867 50.799 40.4457 49.7868 42.7944 49.7868C45.3958 49.7868 47.058 50.6176 47.9975 51.0153L49.0455 46.9327C47.8528 46.3543 46.2269 45.8476 43.806 45.74V42.5598H40.2649V45.9923C36.3986 46.7513 34.1585 49.2441 34.1585 52.4242C34.1585 55.9293 36.7963 57.7363 40.6626 59.0366C43.3364 59.9399 44.4928 60.8075 44.4928 62.1801C44.4928 63.6261 43.0831 64.4208 41.0238 64.4208C38.6751 64.4208 36.5433 63.6619 35.0257 62.831L33.9419 67.0583C35.3151 67.853 37.6635 68.5034 40.0844 68.612V72.0445H43.6255V68.3586C47.7809 67.6368 50.0574 64.8904 50.0574 61.6744C50.0571 58.4227 48.3223 56.4352 44.0229 54.9177Z" fill="#87796F"/>
<path d="M44.1965 54.4573C41.1928 53.3272 40.1789 52.6592 40.1789 51.8106C40.1789 50.8233 41.1078 50.2796 42.7947 50.2796C45.0657 50.2796 46.6135 50.9519 47.5378 51.3536L47.8055 51.4691C47.9378 51.5258 48.0877 51.5206 48.2157 51.4572C48.3443 51.3936 48.4388 51.2771 48.4742 51.1383L49.5223 47.0558C49.5803 46.829 49.4711 46.5928 49.2601 46.4904C47.8465 45.805 46.2194 45.406 44.2982 45.2754V42.5608C44.2982 42.2891 44.0777 42.0686 43.806 42.0686H40.2649C39.9932 42.0686 39.7727 42.2891 39.7727 42.5608V45.5956C35.9944 46.476 33.6663 49.0636 33.6663 52.4249C33.6663 56.6603 37.3216 58.4332 40.5051 59.5038C43.4064 60.484 44.0006 61.2829 44.0006 62.1807C44.0006 63.8029 41.7221 63.9293 41.0238 63.9293C38.4412 63.9293 36.3054 62.9711 35.262 62.4002C35.1284 62.327 34.9693 62.3201 34.8295 62.3802C34.6901 62.4409 34.5867 62.5623 34.549 62.7096L33.4652 66.9369C33.4104 67.1501 33.5045 67.3743 33.6952 67.4848C35.1347 68.3183 37.359 68.9145 39.5922 69.0769V72.0454C39.5922 72.3171 39.8127 72.5376 40.0844 72.5376H43.6255C43.8972 72.5376 44.1177 72.3171 44.1177 72.0454V68.7662C48.0395 67.9353 50.5496 65.188 50.5496 61.6754C50.5496 58.1874 48.6468 56.028 44.1965 54.4573ZM43.5412 67.8746C43.3053 67.9157 43.1334 68.1201 43.1334 68.3596V71.5529H40.5766V68.6126C40.5766 68.3491 40.3696 68.1325 40.1064 68.1211C38.0658 68.0295 35.9241 67.5222 34.5142 66.8089L35.3489 63.5523C36.5919 64.1567 38.6269 64.9133 41.0238 64.9133C43.4671 64.9133 44.985 63.8663 44.985 62.1804C44.985 60.3527 43.3201 59.4156 40.8198 58.5707C36.4957 57.1161 34.6507 55.2779 34.6507 52.4246C34.6507 49.4012 36.7848 47.1775 40.3597 46.4756C40.5904 46.4304 40.7571 46.2279 40.7571 45.9926V43.0523H43.3138V45.74C43.3138 46.0035 43.5212 46.22 43.7844 46.2315C45.6061 46.3126 47.1427 46.6328 48.4664 47.2084L47.6638 50.3354C46.6486 49.9013 45.0614 49.2946 42.7944 49.2946C39.4538 49.2946 39.1942 51.2197 39.1942 51.81C39.1942 53.3545 40.6954 54.1912 43.8592 55.3816C47.9118 56.8119 49.5649 58.6353 49.5649 61.6747C49.5653 64.8533 47.2569 67.2289 43.5412 67.8746Z" fill="#3A312A"/>
<path d="M68.6323 54.9177C65.561 53.7617 64.2961 53.0031 64.2961 51.8103C64.2961 50.799 65.055 49.7868 67.4038 49.7868C70.0051 49.7868 71.6674 50.6176 72.6068 51.0153L73.6549 46.9327C72.4621 46.3543 70.8363 45.8476 68.4154 45.74V42.5598H64.8742V45.9923C61.0079 46.7513 58.7678 49.2441 58.7678 52.4242C58.7678 55.9293 61.4056 57.7363 65.2719 59.0366C67.9458 59.9399 69.1021 60.8075 69.1021 62.1801C69.1021 63.6261 67.6925 64.4208 65.6332 64.4208C63.2845 64.4208 61.1526 63.6619 59.6351 62.831L58.5513 67.0583C59.9245 67.853 62.2729 68.5034 64.6938 68.612V72.0445H68.2349V68.3586C72.3903 67.6368 74.6668 64.8904 74.6668 61.6744C74.6665 58.4227 72.9317 56.4352 68.6323 54.9177Z" fill="#87796F"/>
<path d="M68.8064 54.4573C65.8027 53.3272 64.7888 52.6592 64.7888 51.8106C64.7888 50.8233 65.7177 50.2796 67.4046 50.2796C69.6756 50.2796 71.2233 50.9519 72.1477 51.3536L72.4154 51.4691C72.5476 51.5258 72.6976 51.5206 72.8256 51.4572C72.9542 51.3936 73.0487 51.2771 73.0841 51.1383L74.1322 47.0558C74.1902 46.829 74.081 46.5928 73.87 46.4904C72.4564 45.805 70.8292 45.406 68.9081 45.2754V42.5608C68.9081 42.2891 68.6876 42.0686 68.4159 42.0686H64.8748C64.6031 42.0686 64.3826 42.2891 64.3826 42.5608V45.5956C60.6042 46.476 58.2762 49.0636 58.2762 52.4249C58.2762 56.6603 61.9315 58.4332 65.115 59.5038C68.0162 60.484 68.6105 61.2829 68.6105 62.1807C68.6105 63.8029 66.332 63.9293 65.6337 63.9293C63.051 63.9293 60.9153 62.9711 59.8718 62.4002C59.7383 62.327 59.5792 62.3201 59.4394 62.3802C59.2999 62.4409 59.1966 62.5623 59.1588 62.7096L58.075 66.9369C58.0202 67.1501 58.1144 67.3743 58.305 67.4848C59.7445 68.3183 61.9689 68.9145 64.2021 69.0769V72.0454C64.2021 72.3171 64.4226 72.5376 64.6943 72.5376H68.2354C68.5071 72.5376 68.7276 72.3171 68.7276 72.0454V68.7662C72.6494 67.9353 75.1595 65.188 75.1595 61.6754C75.1595 58.1874 73.2567 56.028 68.8064 54.4573ZM68.1511 67.8746C67.9152 67.9157 67.7432 68.1201 67.7432 68.3596V71.5529H65.1865V68.6126C65.1865 68.3491 64.9794 68.1325 64.7163 68.1211C62.6757 68.0295 60.534 67.5222 59.124 66.8089L59.9588 63.5523C61.2017 64.1567 63.2368 64.9133 65.6337 64.9133C68.0769 64.9133 69.5948 63.8663 69.5948 62.1804C69.5948 60.3527 67.9299 59.4156 65.4296 58.5707C61.1056 57.1161 59.2605 55.2779 59.2605 52.4246C59.2605 49.4012 61.3947 47.1775 64.9696 46.4756C65.2003 46.4304 65.367 46.2279 65.367 45.9926V43.0523H67.9237V45.74C67.9237 46.0035 68.1311 46.22 68.3942 46.2315C70.216 46.3126 71.7526 46.6328 73.0766 47.2084L72.274 50.3354C71.2588 49.9013 69.6716 49.2946 67.4046 49.2946C64.064 49.2946 63.8044 51.2197 63.8044 51.81C63.8044 53.3545 65.3056 54.1912 68.4694 55.3816C72.522 56.8119 74.1751 58.6353 74.1751 61.6747C74.1751 64.8533 71.8668 67.2289 68.1511 67.8746Z" fill="#3A312A"/>
<path d="M73.8511 36.0859H68.9292C71.2851 36.0859 73.1981 38.0022 73.1981 40.3548V46.1955C73.4278 46.2873 73.6509 46.3858 73.8708 46.4908C74.0808 46.5925 74.189 46.8288 74.1333 47.0552L73.1981 50.6908V56.8825C74.5467 58.1425 75.1603 59.6945 75.1603 61.6764C75.1603 63.5434 74.4515 65.1939 73.1981 66.4539V73.7448C73.1981 76.0975 71.2851 78.0137 68.9292 78.0137H73.8511C76.207 78.0137 78.12 76.0975 78.12 73.7448V40.3548C78.12 38.0022 76.207 36.0859 73.8511 36.0859Z" fill="#DECAAD"/>
</svg>
