<svg width="98" height="14" viewBox="0 0 98 14" fill="none" xmlns="http://www.w3.org/2000/svg">
<path d="M9.0326 13.3589H13.7881L17.4887 6.91027H12.7332L9.0326 13.3589ZM4.29439 13.3589H9.04989L5.33196 6.91027H0.59375L4.29439 13.3589ZM5.33196 6.91027H12.7332L9.0326 0.479004L5.33196 6.91027Z" fill="#DA1A32"/>
<path d="M25.2359 6.94522H32.7756V4.22363H21.6909V13.3591H25.2359V11.0016H30.5102V8.60937H25.2359V6.94522Z" fill="white"/>
<path d="M36.9256 9.87482L38.603 6.70253L40.2804 9.87482H36.9256ZM36.5797 4.22363L31.3228 13.3591H35.0926L35.8189 11.9724H41.4044L42.1307 13.3591H46.0561L40.7819 4.22363H36.5797Z" fill="white"/>
<path d="M54.789 4.22363L51.538 10.3082L48.2869 4.22363H44.2231L49.4974 13.3591H53.5266L58.8009 4.22363H54.789Z" fill="white"/>
<path d="M67.5166 11.1403H63.1761V9.75348H67.5166C67.9662 9.75348 68.2948 10.0482 68.2948 10.4469C68.2948 10.8629 67.9662 11.1403 67.5166 11.1403ZM67.2226 6.4425C67.6722 6.4425 68.0008 6.7372 68.0008 7.1359C68.0008 7.53461 67.6722 7.8293 67.2226 7.8293H63.1761V6.4425H67.2226ZM70.2315 8.73072C71.1481 8.28001 71.5977 7.56928 71.5977 6.75453C71.5977 5.24639 70.3353 4.22363 67.8451 4.22363H59.7349V13.3765H68.0181C70.6812 13.3765 71.8744 12.319 71.8744 10.7936C71.8744 9.92683 71.3556 9.14676 70.2315 8.73072Z" fill="white"/>
<path d="M77.2869 9.80548H82.5785V7.75996H77.2869V6.68519H84.8093V4.22363H73.7246V13.3591H85.0686V10.9149H77.2869V9.80548Z" fill="white"/>
<path d="M97.7787 4.22363H85.8467V6.68519H90.0315V13.3591H93.6111V6.68519H97.7787V4.22363Z" fill="white"/>
</svg>
