<svg width="115" height="115" viewBox="0 0 115 115" fill="none" xmlns="http://www.w3.org/2000/svg">
<circle cx="57.5" cy="57.5" r="57.5" fill="#B9B9FF"/>
<path d="M16.5971 63.5848H21.3526L25.0532 57.1362H20.2977L16.5971 63.5848ZM11.8588 63.5848H16.6143L12.8964 57.1362H8.1582L11.8588 63.5848ZM12.8964 57.1362H20.2977L16.5971 50.7049L12.8964 57.1362Z" fill="#DA1A32"/>
<path d="M32.8004 57.171H40.34V54.4494H29.2554V63.5849H32.8004V61.2274H38.0747V58.8351H32.8004V57.171Z" fill="#000077"/>
<path d="M44.49 60.1006L46.1674 56.9283L47.8448 60.1006H44.49ZM44.1442 54.4494L38.8872 63.5849H42.657L43.3833 62.1981H48.9689L49.6951 63.5849H53.6206L48.3463 54.4494H44.1442Z" fill="#000077"/>
<path d="M62.3534 54.4494L59.1024 60.534L55.8514 54.4494H51.7876L57.0619 63.5849H61.0911L66.3654 54.4494H62.3534Z" fill="#000077"/>
<path d="M75.081 61.366H70.7406V59.9792H75.081C75.5307 59.9792 75.8592 60.2739 75.8592 60.6726C75.8592 61.0887 75.5307 61.366 75.081 61.366ZM74.7871 56.6683C75.2367 56.6683 75.5652 56.963 75.5652 57.3617C75.5652 57.7604 75.2367 58.0551 74.7871 58.0551H70.7406V56.6683H74.7871ZM77.796 58.9565C78.7125 58.5058 79.1621 57.795 79.1621 56.9803C79.1621 55.4722 77.8998 54.4494 75.4096 54.4494H67.2993V63.6022H75.5825C78.2456 63.6022 79.4388 62.5448 79.4388 61.0193C79.4388 60.1526 78.92 59.3725 77.796 58.9565Z" fill="#000077"/>
<path d="M84.8514 60.0313H90.1429V57.9857H84.8514V56.911H92.3737V54.4494H81.2891V63.5849H92.6331V61.1407H84.8514V60.0313Z" fill="#000077"/>
<path d="M105.343 54.4494H93.4111V56.911H97.596V63.5849H101.176V56.911H105.343V54.4494Z" fill="#000077"/>
</svg>
