<svg width="56" height="56" viewBox="0 0 56 56" fill="none" xmlns="http://www.w3.org/2000/svg">
<path d="M20.5283 7.80479L21.5265 10.4191L22.6202 13.2834L23.4909 15.5632C27.1468 14.021 31.4074 13.9374 35.3152 15.6855L38.7038 8.11016C32.7042 5.42632 26.1697 5.5066 20.5283 7.80479Z" fill="#F16C7A"/>
<path d="M39.0105 7.99312C38.9795 7.91175 38.9173 7.84612 38.8379 7.81069C32.9385 5.17191 26.3919 5.06187 20.4045 7.50094C20.2394 7.56831 20.1582 7.75512 20.2219 7.92181L21.22 10.5361C21.2848 10.7052 21.4744 10.7905 21.6438 10.7255C21.8131 10.661 21.8979 10.4711 21.8332 10.3018L20.9501 7.9894C26.5868 5.78178 32.7118 5.88394 38.2694 8.2775L35.1483 15.2552C31.5046 13.7202 27.3612 13.6758 23.6777 15.1322L22.9269 13.1661C22.8624 12.997 22.6734 12.9119 22.5034 12.9767C22.3341 13.0412 22.2493 13.2311 22.314 13.4004L23.1846 15.6802C23.2163 15.7633 23.2804 15.8301 23.3625 15.8648C23.4441 15.8998 23.5366 15.8998 23.6188 15.8653C27.3133 14.3071 31.528 14.3504 35.1818 15.9849C35.2253 16.0044 35.2706 16.0136 35.3154 16.0136C35.4408 16.0136 35.5606 15.9412 35.6151 15.8193L39.0038 8.24403C39.039 8.16462 39.0416 8.07428 39.0105 7.99312Z" fill="#3A312A"/>
<path d="M22.6199 13.2832L21.5261 10.4188L20.528 7.80457C15.2036 9.97347 10.6744 14.1181 8.14148 19.7807C8.04216 20.0025 7.9481 20.2254 7.85645 20.4485L15.4372 23.8396C15.5249 23.6152 15.6175 23.3916 15.717 23.1691C17.3143 19.5985 20.1504 16.9719 23.4907 15.5628L22.6199 13.2832Z" fill="#87796F"/>
<path d="M23.7976 15.4459L22.927 13.1661C22.8624 12.997 22.6734 12.9119 22.5035 12.9767C22.3341 13.0412 22.2493 13.2311 22.314 13.4004L23.0726 15.3871C19.6582 16.9111 16.9472 19.6166 15.4177 23.0355C15.3643 23.1545 15.3123 23.2757 15.2602 23.401L8.28252 20.2799C8.33415 20.158 8.38708 20.0364 8.44133 19.915C10.8056 14.63 15.024 10.4943 20.3424 8.23769L21.2201 10.5363C21.2848 10.7054 21.4745 10.7907 21.6438 10.7258C21.8131 10.6612 21.898 10.4713 21.8332 10.302L20.8351 7.68775C20.8036 7.60528 20.7401 7.539 20.6592 7.50378C20.5782 7.46878 20.4866 7.46769 20.4048 7.50094C14.7829 9.79103 10.3215 14.1043 7.84218 19.6468C7.74155 19.8717 7.64596 20.0977 7.55299 20.3241C7.48561 20.4881 7.56086 20.6758 7.72252 20.7482L15.3033 24.1393C15.3457 24.1583 15.3915 24.1679 15.4372 24.1679C15.4794 24.1679 15.5218 24.1598 15.5616 24.1434C15.6448 24.1095 15.7102 24.0428 15.743 23.9593C15.8342 23.7254 15.9237 23.5108 16.0164 23.3034C17.5208 19.9402 20.2206 17.2988 23.6182 15.8653C23.7814 15.7966 23.8606 15.6113 23.7976 15.4459Z" fill="#3A312A"/>
<path d="M37.3335 37.3086C41.7971 32.845 41.7971 25.6081 37.3335 21.1445C32.8699 16.681 25.633 16.681 21.1694 21.1445C16.7059 25.6081 16.7058 32.845 21.1694 37.3086C25.633 41.7722 32.8699 41.7722 37.3335 37.3086Z" fill="#89C4DB"/>
<path d="M34.0596 18.492C28.1405 15.8445 21.1709 18.5058 18.5231 24.425C15.8756 30.3441 18.5369 37.3135 24.4561 39.9613C26.0109 40.6569 27.638 40.9859 29.2408 40.9859C33.7383 40.9859 38.0402 38.3926 39.9923 34.0283C42.6401 28.1094 39.9788 21.1398 34.0596 18.492ZM39.3934 33.7603C36.8935 39.3492 30.3124 41.8618 24.724 39.3621C19.1354 36.862 16.6222 30.2813 19.1223 24.6925C20.9657 20.5717 25.027 18.1232 29.2743 18.1232C30.7869 18.1232 32.3241 18.4341 33.7919 19.0907C39.3803 21.5911 41.8935 28.1717 39.3934 33.7603Z" fill="#3A312A"/>
<path d="M38.7036 8.11017L35.3149 15.6855C39.2229 17.4335 42.0004 20.6653 43.2875 24.4186L51.0459 21.4559C48.9991 15.7185 44.7035 10.794 38.7036 8.11017Z" fill="#87796F"/>
<path d="M51.3554 21.3458C49.1828 15.2567 44.7373 10.4497 38.8379 7.81069C38.7582 7.77503 38.6683 7.77262 38.587 7.80369C38.5056 7.83475 38.44 7.89687 38.4045 7.97628L35.0159 15.5516C34.9804 15.631 34.9778 15.7213 35.0089 15.8025C35.0399 15.8839 35.1021 15.9495 35.1815 15.9849C38.8355 17.6194 41.677 20.7322 42.9777 24.5252C43.0066 24.6094 43.0685 24.6783 43.149 24.7159C43.193 24.7365 43.2404 24.747 43.2881 24.747C43.3277 24.747 43.3673 24.7397 43.4051 24.7253L51.1635 21.7626C51.3298 21.6989 51.4151 21.5138 51.3554 21.3458ZM43.4843 23.9925C42.1154 20.2762 39.3209 17.2169 35.7472 15.5234L38.8687 8.54569C44.3574 11.0932 48.5162 15.5912 50.6274 21.2647L43.4843 23.9925Z" fill="#3A312A"/>
<path d="M51.0462 21.4559L43.2878 24.4186C44.4638 27.8482 44.3962 31.7131 42.7991 35.2837C42.6996 35.506 42.5948 35.7241 42.4858 35.9391L50.0666 39.3302C50.1718 39.1129 50.2753 38.8942 50.3744 38.6724C52.9073 33.0098 52.9782 26.871 51.0462 21.4559Z" fill="#89C4DB"/>
<path d="M51.3552 21.3458C51.3255 21.2627 51.2636 21.1949 51.1835 21.1581C51.1032 21.1214 51.012 21.1181 50.9291 21.1496L43.1707 24.1124C43.0056 24.1756 42.92 24.3582 42.9773 24.5254C44.1737 28.0133 44.0039 31.7866 42.4994 35.1498C42.4064 35.3579 42.3062 35.5674 42.1931 35.7908C42.1527 35.8708 42.1465 35.964 42.1765 36.0487C42.2067 36.1333 42.2699 36.202 42.3519 36.2386L49.9327 39.6294C49.976 39.6489 50.0215 39.6581 50.0664 39.6581C50.1884 39.6581 50.3052 39.5896 50.3619 39.473C50.4687 39.2527 50.5734 39.0311 50.6741 38.806C53.1532 33.2638 53.3951 27.0627 51.3552 21.3458ZM50.0749 38.5383C50.0207 38.6597 49.9651 38.7802 49.9087 38.8999L42.931 35.7787C42.9896 35.6565 43.0452 35.537 43.0985 35.4176C44.628 31.9987 44.8378 28.1746 43.6979 24.6133L50.8475 21.8831C52.7102 27.3518 52.4392 33.2531 50.0749 38.5383Z" fill="#3A312A"/>
<path d="M42.4858 35.9391C40.6811 39.5025 37.6059 42.0424 34.0659 43.2563L37.0287 51.0147C42.5539 49.0433 47.3244 44.9857 50.0666 39.3299L42.4858 35.9391Z" fill="#87796F"/>
<path d="M50.3751 39.2177C50.3447 39.1344 50.2819 39.0668 50.2007 39.0307L42.62 35.6399C42.46 35.5683 42.2721 35.6348 42.1934 35.791C40.4815 39.1714 37.5574 41.7124 33.9596 42.9461C33.8754 42.975 33.8065 43.0369 33.7689 43.1174C33.731 43.1979 33.7275 43.2904 33.7595 43.3735L36.7222 51.1319C36.7721 51.2625 36.8966 51.343 37.0287 51.343C37.0652 51.343 37.1026 51.3369 37.1389 51.3238C42.9693 49.2435 47.6654 45.0347 50.362 39.4732C50.4007 39.3932 50.4055 39.3011 50.3751 39.2177ZM37.2199 50.5958L34.4923 43.4529C38.0078 42.1608 40.8802 39.6605 42.6344 36.3648L49.6215 39.4903C47.0265 44.6504 42.6418 48.5769 37.2199 50.5958Z" fill="#3A312A"/>
<path d="M15.437 23.8398L7.85627 20.4487C5.46774 26.2627 5.62283 32.5235 7.83592 37.9564L15.5943 34.9936C14.1399 31.5457 13.9835 27.5603 15.437 23.8398Z" fill="#89C4DB"/>
<path d="M15.897 34.8663C14.4189 31.3622 14.3642 27.4886 15.743 23.9592C15.8068 23.7961 15.7312 23.6119 15.5712 23.5403L7.99047 20.1493C7.90931 20.1128 7.817 20.1112 7.73475 20.144C7.65228 20.1771 7.58665 20.242 7.55297 20.3241C5.20425 26.0413 5.19703 32.3472 7.5324 38.0802C7.58425 38.2073 7.70675 38.2847 7.83647 38.2847C7.8754 38.2847 7.915 38.2777 7.9535 38.2631L15.7119 35.3006C15.795 35.2688 15.8617 35.2047 15.8965 35.1227C15.9315 35.0409 15.9317 34.9484 15.897 34.8663ZM8.02109 37.5347C5.91234 32.1475 5.91671 26.2616 8.03378 20.8873L15.0209 24.0128C13.7333 27.5174 13.7838 31.3252 15.1639 34.8071L8.02109 37.5347Z" fill="#3A312A"/>
<path d="M34.066 43.2563C30.6365 44.4323 26.7716 44.3647 23.2012 42.7676L19.8125 50.3429C25.4751 52.8758 31.6138 52.9467 37.0288 51.0147L34.066 43.2563Z" fill="#F16C7A"/>
<path d="M37.335 50.8977L34.3722 43.1393C34.3092 42.9741 34.127 42.8883 33.9592 42.9459C30.4708 44.142 26.6976 43.9723 23.3345 42.4681C23.1694 42.3942 22.9751 42.4681 22.9012 42.6337L19.5125 50.209C19.4769 50.2884 19.4745 50.3788 19.5055 50.4599C19.5366 50.5413 19.5987 50.6069 19.6781 50.6424C22.7323 52.0087 25.986 52.6953 29.2493 52.6953C31.9074 52.6953 34.5722 52.2395 37.1385 51.3236C37.2217 51.294 37.2895 51.2321 37.3262 51.1518C37.3634 51.072 37.3663 50.9801 37.335 50.8977ZM20.2464 50.1753L23.3676 43.1981C26.7092 44.6077 30.4137 44.7731 33.8711 43.6667L36.6015 50.8165C31.2358 52.6435 25.454 52.4169 20.2464 50.1753Z" fill="#3A312A"/>
<path d="M15.5948 34.9939L7.83643 37.9566C10.0053 43.281 14.15 47.8102 19.8126 50.3431L23.2012 42.7678C19.6303 41.1705 17.0038 38.3342 15.5948 34.9939Z" fill="#87796F"/>
<path d="M23.3347 42.4681C19.9716 40.9638 17.3302 38.264 15.8967 34.8663C15.8283 34.7036 15.6428 34.6244 15.4774 34.6874L7.71898 37.6499C7.63651 37.6814 7.57023 37.7449 7.53501 37.8258C7.49979 37.9068 7.4987 37.9986 7.53217 38.0802C9.82226 43.7019 14.1358 48.1633 19.6783 50.6426C19.7207 50.6616 19.7664 50.6712 19.8121 50.6712C19.8517 50.6712 19.8915 50.664 19.9292 50.6496C20.0105 50.6185 20.0762 50.5564 20.1116 50.477L23.5003 42.9017C23.5744 42.7363 23.5003 42.5423 23.3347 42.4681ZM19.6476 49.9074C14.5055 47.5193 10.4829 43.3602 8.2687 38.1423L15.4185 35.4123C16.8982 38.7268 19.4908 41.3787 22.7688 42.9301L19.6476 49.9074Z" fill="#3A312A"/>
<path d="M40.4544 19.497L37.9395 21.7868C38.921 22.9353 39.6595 24.2576 40.125 25.676L43.3041 24.4622C42.6885 22.6509 41.7247 20.9591 40.4544 19.497Z" fill="#F8E4C8"/>
<path d="M43.6146 24.3567C42.9772 22.4801 41.997 20.7727 40.7022 19.2817C40.644 19.215 40.5618 19.1745 40.4736 19.1693C40.3857 19.1638 40.2986 19.1947 40.2334 19.2544L37.7187 21.5442C37.5874 21.6635 37.5749 21.8654 37.69 21.9999C38.6414 23.1127 39.3554 24.3838 39.8132 25.7782C39.8412 25.8635 39.9027 25.9335 39.9838 25.9722C40.0282 25.9934 40.0766 26.0041 40.1247 26.0041C40.1643 26.0041 40.2039 25.9969 40.2417 25.9825L43.4208 24.7686C43.586 24.7058 43.6715 24.5238 43.6146 24.3567ZM40.3249 25.2486C39.8749 23.9995 39.2263 22.8482 38.3924 21.8183L40.4239 19.9684C41.4888 21.2524 42.3164 22.6964 42.8886 24.2697L40.3249 25.2486Z" fill="#3A312A"/>
<path d="M23.5147 15.5527C21.7699 16.2868 20.163 17.3508 18.7949 18.711L21.0887 21.2277C22.1363 20.1554 23.378 19.3137 24.7287 18.7318L23.5147 15.5527Z" fill="#F8E4C8"/>
<path d="M25.0353 18.6148L23.8212 15.4357C23.7895 15.3525 23.7254 15.2858 23.6436 15.251C23.562 15.216 23.4694 15.2158 23.3874 15.2502C21.5733 16.0136 19.9502 17.0997 18.5635 18.4783C18.4391 18.6021 18.434 18.8022 18.5524 18.9319L20.8462 21.4484C20.907 21.5152 20.9925 21.5539 21.0831 21.5556H21.0888C21.1769 21.5556 21.2618 21.52 21.3235 21.4568C22.3319 20.4245 23.5213 19.609 24.8587 19.0328C25.0199 18.9634 25.0978 18.779 25.0353 18.6148ZM21.1004 20.7535L19.2511 18.7248C20.4459 17.5868 21.8157 16.6688 23.3303 15.9902L24.3112 18.5585C23.1175 19.1107 22.0397 19.8472 21.1004 20.7535Z" fill="#3A312A"/>
<path d="M35.3631 15.7076L33.9731 18.8147C35.5479 19.5263 36.8827 20.5548 37.9395 21.7871L40.4545 19.4972C39.0932 17.9272 37.3802 16.6195 35.3631 15.7076Z" fill="#D5DE58"/>
<path d="M40.7021 19.2822C39.263 17.6225 37.5121 16.3192 35.4979 15.4085C35.4182 15.3724 35.3279 15.3698 35.2463 15.4007C35.1647 15.4317 35.0989 15.4938 35.0632 15.5735L33.6733 18.6806C33.5993 18.8455 33.673 19.0391 33.8375 19.1135C35.3292 19.7877 36.6253 20.7589 37.6902 22.0006C37.7479 22.0679 37.8306 22.1091 37.919 22.1145C37.9258 22.115 37.9328 22.1152 37.9393 22.1152C38.0207 22.1152 38.0997 22.0848 38.1603 22.0297L40.675 19.7398C40.8069 19.6197 40.819 19.4167 40.7021 19.2822ZM37.9649 21.32C36.9541 20.2062 35.7586 19.311 34.4041 18.6541L35.5265 16.1455C37.2317 16.9621 38.7321 18.0792 39.994 19.4722L37.9649 21.32Z" fill="#3A312A"/>
<path d="M23.5151 15.5527L24.7292 18.7318C26.2462 18.0779 27.8967 17.7522 29.5732 17.7977L29.7325 14.399C27.5839 14.3318 25.4646 14.7354 23.5151 15.5527Z" fill="#D5DE58"/>
<path d="M29.9728 14.1761C29.9131 14.1116 29.83 14.0737 29.7421 14.0709C27.5535 14.0026 25.4172 14.3992 23.3878 15.2502C23.2244 15.3186 23.145 15.5043 23.2082 15.6699L24.4223 18.849C24.4542 18.9326 24.5188 18.9995 24.6012 19.0343C24.6419 19.0516 24.6854 19.0601 24.7288 19.0601C24.7729 19.0601 24.8171 19.0512 24.8587 19.0332C26.3578 18.387 27.9426 18.0819 29.5638 18.1258C29.7504 18.1293 29.8921 17.9917 29.9004 17.8132L30.0597 14.4145C30.0638 14.3266 30.0326 14.2406 29.9728 14.1761ZM29.2599 17.4652H29.2573C27.765 17.4652 26.3073 17.7452 24.9149 18.2993L23.9358 15.7353C25.6862 15.0447 27.5196 14.7074 29.3884 14.7199L29.2599 17.4652Z" fill="#3A312A"/>
<path d="M35.3149 15.6861C33.4978 14.8733 31.6058 14.4583 29.732 14.399L29.5728 17.7977C31.0333 17.8378 32.5101 18.158 33.9259 18.7913C33.9418 18.7985 33.9569 18.8075 33.9729 18.8147L35.3628 15.7076L35.3149 15.6861Z" fill="#F8E4C8"/>
<path d="M35.4969 15.4081L35.4485 15.3864C33.6366 14.576 31.7167 14.1332 29.7422 14.0709C29.5631 14.0573 29.4121 14.2043 29.404 14.3835L29.245 17.7822C29.2408 17.8701 29.2723 17.9563 29.3321 18.0208C29.392 18.0854 29.4756 18.1232 29.5637 18.1256C31.0272 18.1657 32.4497 18.4903 33.7972 19.0934C33.811 19.1006 33.825 19.1078 33.839 19.1142C33.8825 19.1334 33.9278 19.1426 33.9724 19.1426C34.0977 19.1426 34.2176 19.0702 34.2721 18.9483L35.662 15.8412C35.736 15.6763 35.662 15.4823 35.4969 15.4081ZM33.8068 18.382C32.5634 17.8596 31.2573 17.558 29.9161 17.4836L30.0445 14.7407C31.7285 14.8313 33.3687 15.2123 34.9281 15.8753L33.8068 18.382Z" fill="#3A312A"/>
<path d="M39.3677 34.5588C38.6263 35.9645 37.6271 37.1591 36.4546 38.1084L38.7495 40.628C40.2602 39.3724 41.5407 37.8002 42.4805 35.9513L39.3677 34.5588Z" fill="#D5DE58"/>
<path d="M42.7898 35.842C42.7598 35.7573 42.6964 35.6884 42.6144 35.6519L39.5011 34.2593C39.3434 34.1884 39.1577 34.2528 39.077 34.4057C38.3704 35.7455 37.4184 36.9053 36.2477 37.8534C36.1777 37.9103 36.1337 37.9934 36.1269 38.0835C36.1201 38.1736 36.1507 38.2624 36.2116 38.3294L38.5065 40.8489C38.5712 40.9198 38.6598 40.9561 38.7493 40.9561C38.8232 40.9561 38.8978 40.9312 38.9588 40.8802C40.5494 39.5581 41.8326 37.9498 42.7727 36.0999C42.8139 36.0198 42.8198 35.9266 42.7898 35.842ZM38.7784 40.1726L36.9277 38.1406C37.969 37.2459 38.8359 36.1856 39.5105 34.9823L42.0281 36.1084C41.1947 37.6578 40.1036 39.0226 38.7784 40.1726Z" fill="#3A312A"/>
<path d="M43.3041 24.4624L40.125 25.6762C40.6235 27.2029 40.8016 28.8354 40.6222 30.4686L44.0257 30.6276C44.225 28.5215 43.9682 26.4224 43.3041 24.4624Z" fill="#D5DE58"/>
<path d="M43.6145 24.3569C43.5859 24.2725 43.5242 24.2034 43.4434 24.1653C43.3627 24.1275 43.2702 24.1238 43.1866 24.1557L40.0075 25.3695C39.8441 25.4319 39.7584 25.6117 39.8126 25.7779C40.3064 27.2893 40.4687 28.8553 40.2956 30.4325C40.2858 30.5226 40.3136 30.6128 40.3724 30.6814C40.4313 30.7503 40.5159 30.7917 40.6063 30.7961L44.01 30.9551C44.0153 30.9553 44.0205 30.9553 44.0255 30.9553C44.194 30.9553 44.3359 30.8273 44.3519 30.658C44.5545 28.5189 44.3062 26.3988 43.6145 24.3569ZM43.725 30.2848L40.981 30.1569C41.0974 28.7074 40.946 27.2692 40.5297 25.8729L43.0987 24.892C43.6484 26.6457 43.8589 28.4565 43.725 30.2848Z" fill="#3A312A"/>
<path d="M40.6222 30.4686C40.4966 31.6225 40.1939 32.7764 39.6936 33.8947C39.5917 34.1224 39.4816 34.3416 39.3677 34.5588L42.4807 35.9513C42.5907 35.7322 42.6977 35.5093 42.7985 35.2835C43.4773 33.7658 43.8759 32.1948 44.0257 30.6276L40.6222 30.4686Z" fill="#F8E4C8"/>
<path d="M44.2738 30.4124C44.2149 30.3446 44.1311 30.3039 44.0412 30.2995L40.6375 30.1405C40.459 30.1326 40.3146 30.2606 40.296 30.4327C40.1709 31.5822 39.8675 32.7018 39.3941 33.7601C39.3079 33.9531 39.2071 34.1582 39.0771 34.4061C39.0351 34.4864 39.0279 34.5802 39.0577 34.666C39.0872 34.7515 39.1511 34.8211 39.2337 34.858L42.347 36.2506C42.3903 36.2701 42.4358 36.2793 42.4807 36.2793C42.6012 36.2793 42.7167 36.2125 42.7742 36.0981C42.8919 35.8634 43.0011 35.6344 43.0982 35.4174C43.0982 35.4174 43.0982 35.4174 43.0982 35.4172C43.7726 33.9093 44.1948 32.3083 44.3525 30.6585C44.361 30.5694 44.3326 30.4804 44.2738 30.4124ZM42.499 35.1494C42.445 35.2702 42.387 35.3951 42.3258 35.5226L39.8169 34.4004C39.8823 34.2687 39.9401 34.1467 39.993 34.0285C40.4524 33.0019 40.7606 31.9207 40.9109 30.8107L43.6621 30.9391C43.4884 32.3967 43.0978 33.8113 42.499 35.1494Z" fill="#3A312A"/>
<path d="M18.7904 33.8231L15.6113 35.0372C16.303 36.6623 17.2843 38.1651 18.522 39.464L21.0398 37.1731C20.0898 36.1896 19.331 35.0523 18.7904 33.8231Z" fill="#F8E4C8"/>
<path d="M21.2759 36.9451C20.3576 35.9944 19.6223 34.8996 19.0908 33.691C19.0203 33.5311 18.8368 33.4541 18.6734 33.5167L15.4943 34.7307C15.411 34.7627 15.3442 34.8267 15.3095 34.909C15.2745 34.991 15.2745 35.0838 15.3095 35.1658C16.0254 36.8478 17.0264 38.3703 18.2847 39.6907C18.349 39.7583 18.4356 39.7924 18.5222 39.7924C18.601 39.7924 18.6802 39.7642 18.743 39.7068L21.2608 37.4159C21.3264 37.3562 21.3651 37.2724 21.3677 37.1838C21.3706 37.095 21.3373 37.0088 21.2759 36.9451ZM18.541 39.0031C17.516 37.879 16.6799 36.6091 16.0504 35.2207L18.6196 34.2396C19.1221 35.3056 19.7776 36.2838 20.5726 37.1547L18.541 39.0031Z" fill="#3A312A"/>
<path d="M24.5904 39.662C23.2166 39.0475 22.0244 38.1931 21.0403 37.1731L18.5225 39.464C19.8157 40.8214 21.3861 41.9552 23.2013 42.7672L23.2492 42.7886L24.6391 39.6815C24.6232 39.6743 24.6063 39.6692 24.5904 39.662Z" fill="#D5DE58"/>
<path d="M24.7735 39.3822C24.759 39.3757 24.7442 39.37 24.724 39.3625C23.4214 38.7796 22.2613 37.9665 21.2763 36.9451C21.1532 36.8176 20.9508 36.8108 20.8193 36.9302L18.3015 39.2212C18.2363 39.2805 18.1976 39.3638 18.1946 39.4522C18.1913 39.5404 18.2239 39.6261 18.2849 39.6902C19.6477 41.1208 21.2568 42.2566 23.0672 43.0664L23.1151 43.0878C23.1578 43.1069 23.2033 43.1165 23.2492 43.1165C23.2888 43.1165 23.3284 43.1093 23.3662 43.0948C23.4476 43.0638 23.5132 43.0017 23.5489 42.9222L24.9388 39.8151C25.0123 39.6502 24.9384 39.4564 24.7735 39.3822ZM23.0845 42.3526C21.5559 41.6345 20.1823 40.6691 18.9943 39.478L21.0282 37.6272C21.9571 38.5394 23.0237 39.2842 24.2056 39.846L23.0845 42.3526Z" fill="#3A312A"/>
<path d="M32.8768 40.0689C31.4818 40.5353 29.9963 40.7334 28.5016 40.6352L28.3403 44.0331C30.308 44.156 32.2632 43.878 34.0906 43.248L32.8768 40.0689Z" fill="#D5DE58"/>
<path d="M34.3972 43.1309L33.1832 39.9518C33.1204 39.7878 32.939 39.7014 32.7726 39.7578C31.3971 40.2178 29.9676 40.4029 28.5231 40.308C28.4359 40.3018 28.3488 40.3318 28.283 40.3904C28.2173 40.4493 28.178 40.5317 28.1738 40.6197L28.0126 44.0175C28.0041 44.1967 28.141 44.3494 28.3199 44.3605C28.6351 44.3802 28.9499 44.3901 29.2638 44.3901C30.9373 44.3901 32.593 44.1114 34.1977 43.5582C34.2817 43.5293 34.3504 43.4674 34.3881 43.3869C34.4257 43.3064 34.429 43.2141 34.3972 43.1309ZM28.6837 43.7222L28.8139 40.98C30.1255 41.0283 31.4233 40.8601 32.6811 40.476L33.6618 43.0447C32.0415 43.5623 30.369 43.7898 28.6837 43.7222Z" fill="#3A312A"/>
<path d="M24.639 39.6815L23.249 42.7886C24.9072 43.5232 26.6283 43.9287 28.3404 44.0333L28.5017 40.6354C27.2027 40.5503 25.8977 40.2373 24.639 39.6815Z" fill="#F8E4C8"/>
<path d="M28.523 40.308C27.2348 40.2235 25.9726 39.9118 24.7713 39.3813C24.6057 39.3085 24.4129 39.3827 24.3392 39.5476L22.9495 42.6547C22.9139 42.7343 22.9114 42.8249 22.9427 42.9063C22.974 42.9877 23.0364 43.0533 23.1162 43.0887C24.7745 43.8233 26.5254 44.2514 28.3205 44.3607C28.3273 44.3612 28.334 44.3614 28.3406 44.3614C28.4213 44.3614 28.4994 44.3317 28.5598 44.2776C28.6252 44.219 28.6641 44.1365 28.6683 44.049L28.8295 40.6512C28.8378 40.472 28.7015 40.3196 28.523 40.308ZM28.0284 43.6815C26.5359 43.556 25.0775 43.199 23.6843 42.6186L24.8067 40.1096C25.8873 40.5523 27.0119 40.8299 28.1588 40.9371L28.0284 43.6815Z" fill="#3A312A"/>
<path d="M18.7951 18.711C17.5389 19.9607 16.4849 21.4543 15.7175 23.1696C15.6167 23.3951 15.5215 23.6235 15.4316 23.8516L18.5447 25.2442C18.6306 25.0143 18.7208 24.7861 18.8227 24.5584C19.3917 23.2864 20.1671 22.169 21.0892 21.2275L18.7951 18.711Z" fill="#D5DE58"/>
<path d="M21.3313 21.0068L19.0375 18.4901C18.9773 18.4238 18.8924 18.3853 18.803 18.3831C18.7135 18.3778 18.6271 18.4152 18.5636 18.4785C17.24 19.7951 16.1817 21.3283 15.418 23.0357C15.3205 23.2536 15.2251 23.4813 15.1264 23.7313C15.0621 23.8947 15.1376 24.0796 15.2977 24.1513L18.4107 25.5439C18.4532 25.5629 18.4989 25.5725 18.5446 25.5725C18.5877 25.5725 18.6306 25.564 18.6713 25.5471C18.7548 25.5121 18.8202 25.4443 18.852 25.3595C18.9504 25.0967 19.0361 24.8848 19.1221 24.6927C19.6616 23.4867 20.4022 22.3982 21.3234 21.4574C21.445 21.3329 21.4485 21.1352 21.3313 21.0068ZM18.523 24.4247C18.4702 24.5426 18.4177 24.6667 18.3631 24.8036L15.8542 23.6814C15.9085 23.5506 15.9625 23.4255 16.017 23.3036C16.7008 21.7748 17.6316 20.3919 18.7861 19.1885L20.6402 21.2227C19.7633 22.1666 19.0517 23.2422 18.523 24.4247Z" fill="#3A312A"/>
<path d="M36.4546 38.1082C35.3845 38.9738 34.1704 39.6362 32.877 40.0689L34.091 43.248C35.7804 42.6641 37.3611 41.7823 38.7497 40.6278L36.4546 38.1082Z" fill="#F8E4C8"/>
<path d="M38.992 40.4068L36.6971 37.8873C36.5796 37.7589 36.3834 37.7436 36.248 37.8531C35.2102 38.6925 34.0408 39.3334 32.7725 39.7578C32.6876 39.786 32.618 39.8479 32.5797 39.9286C32.5415 40.0094 32.5382 40.1023 32.5699 40.1859L33.784 43.365C33.8336 43.4954 33.9581 43.5761 34.0904 43.5761C34.1259 43.5761 34.1622 43.5702 34.1976 43.5579C35.9465 42.9535 37.5484 42.0525 38.9589 40.88C39.0276 40.8227 39.0703 40.7398 39.0764 40.6505C39.0827 40.5613 39.0521 40.4733 38.992 40.4068ZM34.2827 42.8308L33.3034 40.2668C34.4253 39.8556 35.4703 39.2811 36.4173 38.5549L38.2725 40.5919C37.0718 41.5437 35.7322 42.2953 34.2827 42.8308Z" fill="#3A312A"/>
<path d="M17.8276 29.3976L14.4238 29.2386C14.428 31.2438 14.8379 33.2148 15.6116 35.0372L18.7907 33.8231C18.1826 32.4343 17.8514 30.9299 17.8276 29.3976Z" fill="#D5DE58"/>
<path d="M19.0911 33.6914C18.4935 32.3267 18.1787 30.8803 18.1555 29.3923C18.1526 29.2191 18.0157 29.0778 17.8427 29.0697L14.4389 28.9107C14.3501 28.9072 14.2617 28.9391 14.197 29.0014C14.132 29.0636 14.0955 29.1495 14.0957 29.2392C14.0999 31.2845 14.5083 33.2782 15.3095 35.1654C15.3625 35.2898 15.4837 35.3653 15.6116 35.3653C15.6506 35.3653 15.6902 35.3583 15.7287 35.3437L18.9078 34.1296C18.9915 34.0977 19.0587 34.0327 19.0935 33.9498C19.1278 33.8671 19.127 33.7737 19.0911 33.6914ZM15.793 34.6165C15.1483 33.0041 14.8003 31.3141 14.7565 29.5824L17.5082 29.7111C17.564 31.0638 17.8488 32.3816 18.3565 33.6374L15.793 34.6165Z" fill="#3A312A"/>
<path d="M15.4316 23.8518C14.745 25.6176 14.423 27.4409 14.4238 29.2386L17.8276 29.3976C17.8064 28.0149 18.0376 26.6085 18.5446 25.2444L15.4316 23.8518Z" fill="#F8E4C8"/>
<path d="M18.6785 24.9447L15.5655 23.5522C15.4835 23.5154 15.39 23.5141 15.3069 23.548C15.2238 23.5821 15.1584 23.6488 15.1258 23.7326C14.4413 25.4925 14.0948 27.3448 14.0957 29.2386C14.0957 29.4138 14.2335 29.5579 14.4085 29.5663L17.8123 29.7253C17.8173 29.7255 17.8223 29.7255 17.8276 29.7255C17.9127 29.7255 17.9947 29.6925 18.056 29.633C18.1209 29.57 18.157 29.4827 18.1557 29.3923C18.1345 28.016 18.3688 26.6588 18.8522 25.3586C18.9124 25.1965 18.8365 25.0154 18.6785 24.9447ZM17.499 29.0537L14.755 28.9255C14.7878 27.3376 15.077 25.7828 15.616 24.2937L18.1334 25.4198C17.7294 26.5976 17.5167 27.8171 17.499 29.0537Z" fill="#3A312A"/>
<path d="M10.3653 5.75203C10.1523 8.28166 7.51611 8.68087 7.51611 8.68087C9.77952 8.78741 10.3435 11.7563 10.3435 11.7563C10.3918 9.63944 13.2574 8.64959 13.2574 8.64959C11.1108 8.52119 10.3653 5.75203 10.3653 5.75203Z" fill="#D5DE58"/>
<path d="M13.2776 8.32213C11.3953 8.20948 10.6894 5.69188 10.6824 5.66629C10.6406 5.51251 10.4936 5.41057 10.3361 5.42523C10.1775 5.43966 10.0521 5.56566 10.0388 5.72426C9.85067 7.95879 7.56386 8.34138 7.46739 8.35648C7.30049 8.38163 7.18017 8.52929 7.18892 8.69795C7.19767 8.86638 7.33264 9.00069 7.5013 9.00879C9.47617 9.10176 10.0167 11.7909 10.022 11.818C10.0519 11.9735 10.188 12.0842 10.344 12.0842C10.3531 12.0842 10.3623 12.084 10.3715 12.0831C10.5386 12.0691 10.6684 11.9315 10.6723 11.7637C10.715 9.90238 13.3393 8.96876 13.3658 8.95957C13.5134 8.90816 13.6046 8.75963 13.5832 8.60454C13.5613 8.44988 13.4338 8.33154 13.2776 8.32213ZM10.3098 10.5853C10.013 9.90063 9.49871 9.07441 8.65017 8.6437C9.29133 8.33635 10.0521 7.78773 10.4444 6.83398C10.7836 7.50576 11.3629 8.33898 12.2674 8.74213C11.6096 9.10045 10.7532 9.70551 10.3098 10.5853Z" fill="#3A312A"/>
<path d="M5.61864 9.4664C5.46792 11.2556 3.60352 11.5382 3.60352 11.5382C5.20433 11.6134 5.60333 13.7134 5.60333 13.7134C5.63745 12.2161 7.66439 11.5161 7.66439 11.5161C6.14605 11.4253 5.61864 9.4664 5.61864 9.4664Z" fill="#D5DE58"/>
<path d="M7.68438 11.1884C6.42307 11.1129 5.9405 9.39795 5.93569 9.38067C5.89413 9.2271 5.74888 9.12517 5.58963 9.1396C5.43082 9.15382 5.30547 9.28004 5.29213 9.43885C5.16547 10.9419 3.61957 11.2035 3.55482 11.2138C3.38791 11.2389 3.26738 11.3866 3.27635 11.555C3.2851 11.7235 3.42007 11.8578 3.58872 11.8659C4.90888 11.928 5.27813 13.7568 5.28163 13.7747C5.31116 13.9304 5.44766 14.0416 5.60385 14.0416C5.61282 14.0416 5.622 14.0413 5.63119 14.0405C5.79854 14.0267 5.92825 13.8887 5.93219 13.7209C5.96063 12.472 7.75482 11.8322 7.77253 11.8261C7.92063 11.7749 8.01185 11.6264 7.99041 11.4713C7.96854 11.3162 7.84079 11.1978 7.68438 11.1884ZM5.58766 12.6748C5.38554 12.2623 5.07579 11.8114 4.61488 11.5198C5.02066 11.2921 5.4236 10.9445 5.68041 10.4442C5.91163 10.8542 6.26097 11.3094 6.76125 11.587C6.35679 11.8278 5.88866 12.1866 5.58766 12.6748Z" fill="#3A312A"/>
<path d="M5.61864 3.63519C5.46792 5.42435 3.60352 5.70697 3.60352 5.70697C5.20433 5.78222 5.60333 7.88222 5.60333 7.88222C5.63745 6.38488 7.66439 5.68488 7.66439 5.68488C6.14605 5.59388 5.61864 3.63519 5.61864 3.63519Z" fill="#D5DE58"/>
<path d="M7.68438 5.35718C6.42285 5.28172 5.94029 3.56672 5.93569 3.54922C5.89413 3.39565 5.74888 3.29371 5.58963 3.30815C5.43082 3.32237 5.30547 3.44859 5.29213 3.6074C5.16547 5.11043 3.61957 5.37206 3.55482 5.38234C3.38791 5.4075 3.26738 5.55515 3.27635 5.72359C3.2851 5.89203 3.42007 6.02634 3.58872 6.03443C4.90888 6.09656 5.27813 7.92531 5.28163 7.94325C5.31116 8.09922 5.44766 8.21012 5.60363 8.21012C5.61282 8.21012 5.62179 8.2099 5.63097 8.20903C5.79832 8.19525 5.92804 8.05722 5.93197 7.88943C5.96041 6.64037 7.7546 6.00075 7.77232 5.99462C7.92019 5.94343 8.01163 5.7949 7.99019 5.63981C7.96853 5.48493 7.84078 5.36659 7.68438 5.35718ZM5.58766 6.84359C5.38554 6.43103 5.07579 5.98018 4.61488 5.68859C5.02066 5.46087 5.4236 5.11328 5.68041 4.61322C5.91163 5.02315 6.26119 5.47815 6.76125 5.75596C6.35679 5.99659 5.88866 6.35512 5.58766 6.84359Z" fill="#3A312A"/>
<path d="M34.0533 24.4315C33.9252 24.3033 33.7176 24.3033 33.5894 24.4315L24.4633 33.5576C24.3351 33.6855 24.3351 33.8936 24.4633 34.0215C24.5274 34.0856 24.6114 34.1176 24.6954 34.1176C24.7794 34.1176 24.8634 34.0856 24.9275 34.0215L34.0536 24.8955C34.1815 24.7675 34.1815 24.5595 34.0533 24.4315Z" fill="#3A312A"/>
<path d="M36.2961 22.1887C35.6127 21.5053 34.5045 21.5053 33.8211 22.1887C33.1378 22.8721 33.1378 23.98 33.8211 24.6636C34.5045 25.347 35.6127 25.347 36.2961 24.6636C36.9794 23.98 36.9794 22.8721 36.2961 22.1887Z" fill="#87796F"/>
<path d="M36.5276 21.9566C35.7173 21.1461 34.3987 21.1466 33.5886 21.9566C32.7784 22.7668 32.7784 24.0853 33.5886 24.8955C33.9938 25.3006 34.5258 25.5032 35.058 25.5032C35.5904 25.5032 36.1224 25.3006 36.5276 24.8955C36.9202 24.5031 37.1363 23.9811 37.1363 23.4262C37.1363 22.8712 36.9202 22.349 36.5276 21.9566ZM36.0636 24.4315C35.5091 24.9856 34.6074 24.9861 34.0528 24.4315C33.4985 23.8772 33.4985 22.9751 34.0528 22.4206C34.3302 22.1434 34.6942 22.0049 35.0582 22.0049C35.4224 22.0049 35.7864 22.1434 36.0638 22.4206C36.3322 22.6892 36.4803 23.0462 36.4803 23.4262C36.4803 23.8061 36.3322 24.1629 36.0636 24.4315Z" fill="#3A312A"/>
<path d="M24.695 33.7897C24.0116 33.1063 22.9034 33.1063 22.2201 33.7897C21.5367 34.473 21.5367 35.581 22.2201 36.2646C22.9034 36.948 24.0116 36.948 24.695 36.2646C25.3784 35.581 25.3784 34.473 24.695 33.7897Z" fill="#87796F"/>
<path d="M24.9271 33.5576C24.1168 32.7471 22.7984 32.7471 21.9882 33.5576C21.5957 33.95 21.3794 34.4719 21.3794 35.0269C21.3794 35.5819 21.5955 36.1038 21.9882 36.4965C22.3933 36.9016 22.9255 37.1042 23.4575 37.1042C23.9895 37.1042 24.5217 36.9016 24.9269 36.4965C25.7373 35.6862 25.7373 34.3678 24.9271 33.5576ZM24.4631 36.0325C23.9088 36.5868 23.0067 36.5868 22.4524 36.0325C22.1837 35.7639 22.0359 35.4069 22.0359 35.0269C22.0359 34.6469 22.1837 34.2901 22.4524 34.0215C22.7295 33.7444 23.0937 33.6059 23.4577 33.6059C23.8217 33.6059 24.186 33.7444 24.4631 34.0215C25.0174 34.5761 25.0174 35.4782 24.4631 36.0325Z" fill="#3A312A"/>
<path d="M34.0533 33.5576L24.9273 24.4315C24.7991 24.3033 24.5915 24.3033 24.4633 24.4315C24.3351 24.5595 24.3351 24.7675 24.4633 24.8955L33.5894 34.0215C33.6534 34.0856 33.7374 34.1176 33.8214 34.1176C33.9054 34.1176 33.9892 34.0856 34.0533 34.0215C34.1815 33.8936 34.1815 33.6858 34.0533 33.5576Z" fill="#3A312A"/>
<path d="M23.4575 25.1762C24.424 25.1762 25.2075 24.3927 25.2075 23.4262C25.2075 22.4597 24.424 21.6762 23.4575 21.6762C22.491 21.6762 21.7075 22.4597 21.7075 23.4262C21.7075 24.3927 22.491 25.1762 23.4575 25.1762Z" fill="#87796F"/>
<path d="M24.9271 21.9566C24.1168 21.1463 22.7986 21.1463 21.9882 21.9566C21.5957 22.349 21.3794 22.871 21.3794 23.4262C21.3794 23.9813 21.5955 24.5031 21.9882 24.8955C22.3933 25.3006 22.9255 25.5032 23.4575 25.5032C23.9895 25.5032 24.5217 25.3006 24.9269 24.8955C25.7373 24.0853 25.7373 22.7668 24.9271 21.9566ZM24.4631 24.4315C23.9088 24.9858 23.0067 24.9858 22.4524 24.4315C22.1837 24.1629 22.0359 23.8059 22.0359 23.4262C22.0359 23.0464 22.1837 22.6892 22.4524 22.4206C22.7295 22.1434 23.0937 22.0049 23.4577 22.0049C23.8217 22.0049 24.186 22.1434 24.4631 22.4206C25.0174 22.9751 25.0174 23.8772 24.4631 24.4315Z" fill="#3A312A"/>
<path d="M36.2961 33.7897C35.6127 33.1063 34.5045 33.1063 33.8211 33.7897C33.1378 34.473 33.1378 35.581 33.8211 36.2646C34.5045 36.948 35.6127 36.948 36.2961 36.2646C36.9794 35.581 36.9794 34.473 36.2961 33.7897Z" fill="#87796F"/>
<path d="M36.5276 33.5576C35.7177 32.7475 34.3991 32.7471 33.5886 33.5576C32.7784 34.3678 32.7784 35.6862 33.5886 36.4965C33.9938 36.9018 34.5258 37.1042 35.0582 37.1042C35.5902 37.1042 36.1224 36.9016 36.5276 36.4965C36.9202 36.104 37.1363 35.5821 37.1363 35.0269C37.1363 34.4717 36.9202 33.95 36.5276 33.5576ZM36.0636 36.0325C35.5091 36.5866 34.6074 36.587 34.0528 36.0325C33.4985 35.478 33.4985 34.5758 34.0528 34.0215C34.3302 33.7444 34.6942 33.6059 35.0582 33.6059C35.4224 33.6059 35.7864 33.7444 36.0638 34.0215C36.3322 34.2902 36.4803 34.6469 36.4803 35.0269C36.4803 35.4069 36.3322 35.7639 36.0636 36.0325Z" fill="#3A312A"/>
<path d="M29.2578 31.7421C30.6472 31.7421 31.7734 30.6159 31.7734 29.2265C31.7734 27.8372 30.6472 26.7109 29.2578 26.7109C27.8685 26.7109 26.7422 27.8372 26.7422 29.2265C26.7422 30.6159 27.8685 31.7421 29.2578 31.7421Z" fill="#87796F"/>
<path d="M29.2578 26.3828C27.6896 26.3828 26.4141 27.6585 26.4141 29.2265C26.4141 30.7945 27.6896 32.0703 29.2578 32.0703C30.8258 32.0703 32.1016 30.7945 32.1016 29.2265C32.1016 27.6585 30.8258 26.3828 29.2578 26.3828ZM29.2578 31.414C28.0516 31.414 27.0703 30.4327 27.0703 29.2265C27.0703 28.0203 28.0516 27.039 29.2578 27.039C30.464 27.039 31.4453 28.0203 31.4453 29.2265C31.4453 30.4327 30.464 31.414 29.2578 31.414Z" fill="#3A312A"/>
<path d="M40.3064 28.1024C40.3042 28.0914 40.3042 28.0805 40.302 28.0696C40.2845 27.8968 40.2626 27.7239 40.2364 27.5533C40.232 27.5293 40.2298 27.5052 40.2254 27.4811C40.1992 27.3193 40.1686 27.1574 40.1357 26.9977C40.1292 26.9671 40.1226 26.9343 40.1161 26.9036C40.0832 26.7461 40.0439 26.5864 40.0023 26.4289C39.9936 26.3983 39.987 26.3677 39.9804 26.3371C39.9323 26.1664 39.882 25.9958 39.8273 25.8274C39.7661 25.6393 39.7026 25.4511 39.6304 25.2652C39.5648 25.0924 39.4948 24.9218 39.4204 24.7533C38.9829 23.7558 38.4032 22.8349 37.6901 21.9993C37.2942 21.5377 36.8654 21.1133 36.4061 20.7283C36.3973 20.7196 36.3886 20.713 36.3798 20.7043C36.2442 20.5927 36.1064 20.4833 35.9642 20.3761C35.9357 20.3543 35.9051 20.3324 35.8745 20.3083C35.752 20.2186 35.6273 20.1311 35.5004 20.0458C35.4589 20.0174 35.4195 19.9889 35.3779 19.9627C35.2554 19.8818 35.1307 19.803 35.0039 19.7264C34.9623 19.7024 34.9207 19.6761 34.8792 19.6521C34.737 19.5689 34.5948 19.4902 34.4504 19.4136C34.422 19.4005 34.3979 19.3852 34.3695 19.3721C34.1945 19.2824 34.0173 19.1949 33.8379 19.1139C33.8379 19.1139 33.8379 19.1139 33.8357 19.1139C33.8248 19.1074 33.8139 19.103 33.8029 19.0964C33.8007 19.0943 33.7986 19.0943 33.7964 19.0921C33.7657 19.0789 33.7351 19.068 33.7067 19.0549C33.5601 18.9914 33.4157 18.9302 33.2692 18.8733C33.1926 18.8449 33.1182 18.8186 33.0417 18.7902C32.9411 18.753 32.8382 18.7158 32.7376 18.683C32.6436 18.6524 32.5495 18.6239 32.4554 18.5955C32.3723 18.5714 32.2892 18.5452 32.2061 18.5211C32.0945 18.4905 31.9807 18.4621 31.8692 18.4358C31.8036 18.4205 31.7401 18.403 31.6767 18.3899C31.5432 18.3593 31.4098 18.333 31.2764 18.3068C31.2348 18.3002 31.1932 18.2914 31.1539 18.2849C30.9986 18.2586 30.8411 18.2346 30.6857 18.2149C30.6682 18.2127 30.6507 18.2083 30.6332 18.2061C30.2811 18.1624 29.9223 18.1361 29.5636 18.1252C28.9073 18.1077 28.2554 18.1471 27.6123 18.2433C27.6998 18.2564 27.7873 18.2696 27.8726 18.2849C27.912 18.2914 27.9536 18.3002 27.9951 18.3068C28.1286 18.333 28.262 18.3593 28.3954 18.3899C28.4589 18.403 28.5223 18.4205 28.5879 18.4358C28.6995 18.4621 28.8132 18.4905 28.9248 18.5211C29.0079 18.5452 29.0911 18.5714 29.1742 18.5955C29.2682 18.6239 29.3623 18.6524 29.4564 18.683C29.557 18.7158 29.6598 18.753 29.7604 18.7902C29.837 18.8186 29.9114 18.8449 29.9879 18.8733C30.1345 18.9302 30.2789 18.9914 30.4254 19.0549C30.4539 19.068 30.4845 19.0789 30.5151 19.0921C30.5173 19.0943 30.5195 19.0943 30.5217 19.0964C30.5326 19.103 30.5436 19.1074 30.5545 19.1139H30.5567C30.7361 19.1949 30.9132 19.2824 31.0882 19.3721C31.1167 19.3852 31.1407 19.4005 31.1692 19.4136C31.3136 19.4902 31.4557 19.5689 31.5979 19.6521C31.6395 19.6761 31.6811 19.7024 31.7226 19.7264C31.8495 19.803 31.9742 19.8818 32.0967 19.9627C32.1382 19.9889 32.1776 20.0174 32.2192 20.0458C32.3461 20.1311 32.4707 20.2186 32.5932 20.3083C32.6239 20.3324 32.6545 20.3543 32.6829 20.3761C32.8251 20.4833 32.9629 20.5927 33.0986 20.7043C33.1073 20.713 33.1161 20.7196 33.1248 20.7283C33.4507 21.0018 33.7614 21.2949 34.0545 21.6077C34.842 21.1702 35.8592 21.2883 36.5286 21.9577C37.3379 22.7671 37.3379 24.0861 36.5286 24.8955C36.452 24.9721 36.3711 25.0421 36.2857 25.1033C36.3076 25.158 36.3295 25.2105 36.3492 25.2652C36.4214 25.4511 36.4848 25.6393 36.5461 25.8274C36.6007 25.9958 36.6511 26.1664 36.6992 26.3371C36.7057 26.3677 36.7123 26.3983 36.7211 26.4289C36.7626 26.5864 36.802 26.7461 36.8348 26.9036C36.8414 26.9343 36.8479 26.9671 36.8545 26.9977C36.8873 27.1574 36.9179 27.3193 36.9442 27.4811C36.9486 27.5052 36.9507 27.5293 36.9551 27.5533C36.9814 27.7239 37.0032 27.8968 37.0207 28.0696C37.0229 28.0805 37.0229 28.0914 37.0251 28.1024C37.0623 28.4699 37.082 28.8374 37.082 29.2093C37.082 29.6161 37.0579 30.023 37.0142 30.4321C36.942 31.1036 36.8064 31.7621 36.6139 32.4052C36.592 32.4774 36.5701 32.5518 36.5461 32.6261C36.5242 32.6961 36.5001 32.7683 36.4761 32.8383C36.4389 32.9411 36.4017 33.0439 36.3645 33.1446C36.3448 33.1949 36.3273 33.2452 36.3076 33.2933C36.3011 33.3108 36.2923 33.3305 36.2857 33.348C36.3711 33.4114 36.452 33.4814 36.5286 33.558C37.3379 34.3674 37.3379 35.6864 36.5286 36.4958C36.1348 36.8896 35.6142 37.1061 35.0586 37.1061C34.6998 37.1061 34.3586 37.0164 34.0523 36.8458C33.9736 36.9311 33.8926 37.0121 33.8117 37.093C33.8095 37.0974 33.8051 37.1018 33.8007 37.1061C33.6848 37.2199 33.5645 37.3314 33.4442 37.443C33.4026 37.4802 33.3611 37.5174 33.3195 37.5524C33.2364 37.6268 33.1511 37.6989 33.0657 37.7689C33.0154 37.8105 32.9673 37.8521 32.917 37.8914C32.8732 37.9286 32.8251 37.9614 32.7792 37.9986C32.6217 38.1211 32.462 38.2393 32.2979 38.3508C32.2848 38.3596 32.2739 38.3683 32.2629 38.3771C32.1601 38.4449 32.0595 38.5127 31.9567 38.5783C31.9457 38.5849 31.9348 38.5914 31.9239 38.598C30.6157 39.4249 29.1457 39.9739 27.6123 40.2058C27.9579 40.2605 28.3036 40.2955 28.6514 40.313C28.6754 40.3152 28.7017 40.3152 28.7257 40.3174C28.892 40.3239 29.0561 40.3283 29.2223 40.3283H29.3032C31.4011 40.3174 33.4507 39.7093 35.2051 38.598C35.2161 38.5914 35.227 38.5849 35.2379 38.5783C35.3407 38.5127 35.4414 38.4449 35.5442 38.3771C35.5551 38.3683 35.5661 38.3596 35.5792 38.3508C35.7432 38.2393 35.9029 38.1211 36.0604 37.9986C36.1064 37.9614 36.1545 37.9286 36.1982 37.8914C36.2486 37.8521 36.2967 37.8105 36.347 37.7689C36.4323 37.6989 36.5176 37.6268 36.6007 37.5524C36.6423 37.5174 36.6839 37.4802 36.7254 37.443C36.8457 37.3314 36.9661 37.2199 37.082 37.1061C37.0864 37.1018 37.0907 37.0974 37.0929 37.093C37.2111 36.9771 37.327 36.8568 37.4386 36.7343C37.4626 36.708 37.4845 36.6818 37.5086 36.6555C37.6179 36.5352 37.7229 36.4149 37.8257 36.288C37.8301 36.2836 37.8345 36.2771 37.8411 36.2727C38.3114 35.6974 38.7248 35.0739 39.077 34.4068C39.077 34.4046 39.077 34.4046 39.077 34.4046C39.1404 34.2864 39.1951 34.1793 39.2454 34.0764C39.2957 33.9714 39.3461 33.8664 39.3942 33.7614C39.462 33.6061 39.5276 33.4508 39.5889 33.2933C39.6086 33.2452 39.6261 33.1949 39.6457 33.1446C39.6829 33.0439 39.7201 32.9411 39.7573 32.8383C39.7814 32.7683 39.8054 32.6961 39.8273 32.6261C39.8514 32.5518 39.8732 32.4774 39.8951 32.4052C40.0876 31.7621 40.2232 31.1036 40.2954 30.4321C40.3392 30.023 40.3632 29.6161 40.3632 29.2093C40.363 28.8374 40.3433 28.4697 40.3064 28.1024Z" fill="#6CA8BF"/>
<path d="M37.2803 42.0422H52.3963V52.3648H37.2803V42.0422Z" fill="#F16C7A"/>
<path d="M52.3963 41.7141H37.2803C37.0991 41.7141 36.9521 41.8609 36.9521 42.0422V52.3648C36.9521 52.5462 37.0991 52.6929 37.2803 52.6929H47.1706C47.3517 52.6929 47.4987 52.5462 47.4987 52.3648C47.4987 52.1835 47.3517 52.0367 47.1706 52.0367H37.6084V42.3703H52.0682V52.0367H50.1677C49.9866 52.0367 49.8396 52.1835 49.8396 52.3648C49.8396 52.5462 49.9866 52.6929 50.1677 52.6929H52.3963C52.5775 52.6929 52.7245 52.5462 52.7245 52.3648V42.0422C52.7245 41.8609 52.5775 41.7141 52.3963 41.7141Z" fill="#3A312A"/>
<path d="M37.2803 43.7034H52.3963V45.0159H37.2803V43.7034Z" fill="#F8E4C8"/>
<path d="M52.3963 43.3755H37.2803C37.0991 43.3755 36.9521 43.5223 36.9521 43.7036V45.0161C36.9521 45.1975 37.0991 45.3443 37.2803 45.3443H52.3963C52.5775 45.3443 52.7245 45.1975 52.7245 45.0161V43.7036C52.7245 43.5223 52.5775 43.3755 52.3963 43.3755ZM52.0682 44.688H37.6084V44.0318H52.0682V44.688Z" fill="#3A312A"/>
<path d="M37.2803 46.5471H52.3963V47.8596H37.2803V46.5471Z" fill="#F8E4C8"/>
<path d="M52.3963 46.2193H37.2803C37.0991 46.2193 36.9521 46.366 36.9521 46.5474V47.8599C36.9521 48.0412 37.0991 48.188 37.2803 48.188H52.3963C52.5775 48.188 52.7245 48.0412 52.7245 47.8599V46.5474C52.7245 46.366 52.5775 46.2193 52.3963 46.2193ZM52.0682 47.5318H37.6084V46.8755H52.0682V47.5318Z" fill="#3A312A"/>
<path d="M37.2803 49.3909H52.3963V50.7034H37.2803V49.3909Z" fill="#F8E4C8"/>
<path d="M52.3963 49.063H37.2803C37.0991 49.063 36.9521 49.2098 36.9521 49.3911V50.7036C36.9521 50.885 37.0991 51.0318 37.2803 51.0318H52.3963C52.5775 51.0318 52.7245 50.885 52.7245 50.7036V49.3911C52.7245 49.2098 52.5775 49.063 52.3963 49.063ZM52.0682 50.3755H37.6084V49.7193H52.0682V50.3755Z" fill="#3A312A"/>
<path d="M37.2803 42.0422H43.5136V46.5472H37.2803V42.0422Z" fill="#8AC3DA"/>
<path d="M43.5136 41.7141H37.2803C37.0991 41.7141 36.9521 41.8609 36.9521 42.0422V46.5474C36.9521 46.7287 37.0991 46.8755 37.2803 46.8755H43.5136C43.6947 46.8755 43.8417 46.7287 43.8417 46.5474V42.0422C43.8417 41.8609 43.6947 41.7141 43.5136 41.7141ZM43.1854 46.2193H37.6084V42.3703H43.1854V46.2193Z" fill="#3A312A"/>
</svg>
