<svg width="57" height="57" viewBox="0 0 57 57" fill="none" xmlns="http://www.w3.org/2000/svg">
<path d="M14.4955 51.7782C18.8522 50.3275 21.2079 45.6196 19.7572 41.2629C18.3065 36.9062 13.5987 34.5505 9.24201 36.0012C4.88531 37.4519 2.52954 42.1597 3.98024 46.5164C5.43094 50.8731 10.1388 53.2289 14.4955 51.7782Z" fill="#8AC3DA"/>
<path d="M11.8749 35.2267C7.10741 35.2267 3.22852 39.1053 3.22852 43.8731C3.22852 48.6408 7.10741 52.5197 11.8749 52.5197C16.6427 52.5197 20.5216 48.641 20.5216 43.8731C20.5216 39.1053 16.6427 35.2267 11.8749 35.2267ZM11.8749 51.8515C7.47546 51.8515 3.89648 48.2723 3.89648 43.8729C3.89648 39.4736 7.47546 35.8944 11.8749 35.8944C16.2744 35.8944 19.8536 39.4736 19.8536 43.8729C19.8536 48.2725 16.2744 51.8515 11.8749 51.8515Z" fill="#3A312A"/>
<path d="M15.1195 41.0424C14.7897 40.3596 14.3484 39.8613 13.7963 39.5478C13.2443 39.2343 12.5113 39.0777 11.598 39.0777C10.8383 39.0777 10.207 39.2053 9.70472 39.4607C9.20241 39.7161 8.80808 40.0928 8.52175 40.5911C8.23519 41.0892 8.0918 41.6416 8.0918 42.2477C8.0918 43.1361 8.37323 43.8711 8.93566 44.4522C9.49809 45.0336 10.1886 45.3241 11.0064 45.3241C11.4259 45.3241 11.7952 45.2515 12.115 45.1061C12.4347 44.961 12.746 44.7325 13.049 44.421C12.966 45.4009 12.8413 46.0424 12.6754 46.3454C12.4472 46.7565 12.1294 46.962 11.7227 46.962C11.4944 46.962 11.3012 46.8894 11.1433 46.744C10.9857 46.5988 10.8734 46.3497 10.8071 45.9968L8.28484 46.3143C8.43446 46.8001 8.64822 47.2049 8.92631 47.5286C9.20441 47.8526 9.55309 48.0986 9.97257 48.2665C10.3918 48.4346 10.9647 48.5188 11.6915 48.5188C12.9201 48.5188 13.8813 48.1358 14.5747 47.3699C15.268 46.604 15.6147 45.3967 15.6147 43.7486C15.6147 42.6273 15.4497 41.7253 15.1195 41.0424ZM12.6006 43.3621C12.3639 43.6237 12.0671 43.7544 11.7102 43.7544C11.3655 43.7544 11.0781 43.6195 10.8476 43.3496C10.6172 43.0797 10.5018 42.6894 10.5018 42.1789C10.5018 41.6723 10.6129 41.2925 10.8351 41.0391C11.0571 40.7859 11.3363 40.6593 11.6728 40.6593C12.0299 40.6593 12.333 40.7993 12.5819 41.0796C12.831 41.36 12.9557 41.7469 12.9557 42.241C12.9557 42.7268 12.8373 43.1005 12.6006 43.3621Z" fill="#87796F"/>
<path d="M15.4205 40.8971C15.0623 40.1552 14.5713 39.6034 13.9612 39.2572C13.361 38.9163 12.5659 38.7435 11.5982 38.7435C10.7888 38.7435 10.1008 38.8845 9.55354 39.1628C8.99445 39.4469 8.55002 39.8715 8.23229 40.4241C7.91746 40.9714 7.75781 41.5846 7.75781 42.2473C7.75781 43.2211 8.07332 44.041 8.69564 44.684C9.32086 45.3302 10.0984 45.6577 11.0064 45.6577C11.4719 45.6577 11.8914 45.5742 12.253 45.4099C12.3788 45.3526 12.5037 45.2841 12.6271 45.2041C12.5449 45.7815 12.4539 46.0549 12.3835 46.1829C12.1622 46.5815 11.9003 46.6276 11.7227 46.6276C11.5779 46.6276 11.4657 46.5864 11.3697 46.498C11.2989 46.4327 11.2007 46.282 11.1355 45.9347C11.1028 45.761 10.9405 45.6441 10.7655 45.665L8.2432 45.9825C8.14546 45.9948 8.05795 46.0498 8.00452 46.1326C7.95108 46.2154 7.93661 46.3179 7.96577 46.412C8.12831 46.94 8.36633 47.3886 8.67315 47.7457C8.98509 48.1093 9.38075 48.3888 9.84833 48.576C10.3117 48.762 10.9146 48.8523 11.6915 48.8523C13.0129 48.8523 14.0661 48.4289 14.8225 47.5937C15.5697 46.7681 15.9489 45.4742 15.9489 43.7482C15.9489 42.5819 15.771 41.6225 15.4205 40.8971ZM14.3273 47.1455C13.6943 47.8448 12.8321 48.1846 11.6917 48.1846C11.011 48.1846 10.4747 48.1078 10.097 47.9564C9.7301 47.8092 9.4215 47.5921 9.17992 47.3109C9.0078 47.1103 8.86107 46.87 8.74218 46.5933L10.5542 46.3653C10.6383 46.6374 10.7583 46.8431 10.9175 46.9898C11.1382 47.1931 11.4092 47.2962 11.7229 47.2962C12.0909 47.2962 12.6057 47.1595 12.9686 46.506C13.1617 46.1535 13.293 45.5 13.3821 44.4495C13.3939 44.309 13.3162 44.1761 13.188 44.1176C13.0595 44.0592 12.9083 44.0873 12.8099 44.1884C12.5371 44.4685 12.257 44.6751 11.9769 44.8025C11.7026 44.9271 11.3762 44.9904 11.0068 44.9904C10.2765 44.9904 9.67756 44.7386 9.17613 44.2202C8.67137 43.6987 8.42623 43.0537 8.42623 42.2479C8.42623 41.7037 8.55581 41.2025 8.81165 40.7579C9.06725 40.313 9.40903 39.9864 9.85635 39.7588C10.3088 39.5288 10.895 39.4122 11.5982 39.4122C12.449 39.4122 13.1332 39.5558 13.6317 39.8388C14.1213 40.1167 14.5208 40.5709 14.8191 41.1883C15.1255 41.8224 15.2809 42.6839 15.2809 43.7488C15.2809 45.3034 14.9599 46.4463 14.3273 47.1455ZM11.673 40.3253C11.2379 40.3253 10.8714 40.4914 10.5842 40.8189C10.3081 41.1337 10.1681 41.5913 10.1681 42.1789C10.1681 42.7689 10.3112 43.2358 10.5938 43.5665C10.8895 43.9127 11.2653 44.0884 11.7104 44.0884C12.1642 44.0884 12.5471 43.9194 12.8484 43.5863C13.1412 43.2626 13.2897 42.8101 13.2897 42.241C13.2897 41.665 13.1356 41.1997 12.8315 40.8577C12.5178 40.5045 12.1279 40.3253 11.673 40.3253ZM12.353 43.1381C12.1787 43.3309 11.9745 43.4204 11.7102 43.4204C11.4626 43.4204 11.2693 43.3289 11.1017 43.1328C10.9253 42.9264 10.836 42.6053 10.836 42.1789C10.836 41.7581 10.9202 41.4488 11.0865 41.2593C11.2457 41.0779 11.4321 40.9933 11.673 40.9933C11.9362 40.9933 12.1457 41.0912 12.3325 41.3014C12.5244 41.5174 12.622 41.8336 12.622 42.241C12.622 42.6391 12.5313 42.941 12.353 43.1381Z" fill="#3A312A"/>
<path d="M28.4999 35.5607C23.909 35.5607 20.1875 39.2824 20.1875 43.8731C20.1875 47.9628 23.1417 51.3601 27.0322 52.0537L30.0772 52.0341C33.9136 51.2971 36.8126 47.9243 36.8126 43.8729C36.8124 39.2824 33.0909 35.5607 28.4999 35.5607Z" fill="#F16C7A"/>
<path d="M28.4999 35.2267C23.7324 35.2267 19.8535 39.1053 19.8535 43.8731C19.8535 48.0684 22.8478 51.6471 26.9734 52.3826C26.9934 52.3861 27.013 52.3879 27.0326 52.3879C27.1914 52.3877 27.3323 52.2741 27.361 52.1125C27.3935 51.931 27.2726 51.7573 27.091 51.7251C23.2844 51.0464 20.5217 47.7442 20.5217 43.8731C20.5217 39.4738 24.1007 35.8946 28.5001 35.8946C32.8996 35.8946 36.4786 39.4738 36.4786 43.8731C36.4786 47.6923 33.76 50.9867 30.0142 51.7064C29.8332 51.7411 29.7145 51.9161 29.7495 52.0973C29.784 52.2784 29.9583 52.3968 30.1405 52.3623C34.2001 51.5823 37.1468 48.012 37.1468 43.8731C37.1463 39.1053 33.2674 35.2267 28.4999 35.2267Z" fill="#3A312A"/>
<path d="M31.4896 43.1441C30.9272 42.563 30.239 42.2724 29.4254 42.2724C29.0059 42.2724 28.6365 42.3461 28.317 42.4935C27.997 42.6409 27.6858 42.8682 27.3829 43.1755C27.4618 42.1958 27.5842 41.5563 27.7503 41.2573C27.9785 40.8423 28.2985 40.6345 28.7095 40.6345C28.9377 40.6345 29.1299 40.7071 29.2855 40.8525C29.4412 40.9979 29.5523 41.2468 29.6189 41.5997L32.1409 41.2885C31.9957 40.7986 31.7837 40.3918 31.5056 40.0679C31.2273 39.7441 30.8778 39.4981 30.4563 39.33C30.0348 39.1619 29.4608 39.0779 28.7345 39.0779C27.5056 39.0779 26.5444 39.4609 25.8511 40.2268C25.1577 40.9928 24.811 42.2 24.811 43.8481C24.811 44.9732 24.976 45.8774 25.3062 46.5603C25.6362 47.2432 26.0775 47.7404 26.6295 48.0519C27.1814 48.3632 27.9146 48.519 28.8278 48.519C29.5875 48.519 30.2198 48.3914 30.7241 48.136C31.2287 47.8807 31.623 47.5039 31.9073 47.0058C32.1916 46.5075 32.3339 45.9576 32.3339 45.3555C32.3335 44.4622 32.052 43.7254 31.4896 43.1441ZM29.5932 46.5567C29.369 46.8101 29.0909 46.9366 28.7587 46.9366C28.3976 46.9366 28.0925 46.7965 27.8434 46.5162C27.5942 46.2359 27.4698 45.8489 27.4698 45.3548C27.4698 44.869 27.5889 44.4954 27.8278 44.2338C28.0663 43.9724 28.3622 43.8415 28.7151 43.8415C29.0595 43.8415 29.3481 43.9764 29.5808 44.2462C29.8132 44.5161 29.9295 44.9086 29.9295 45.4232C29.9297 45.9257 29.8175 46.3036 29.5932 46.5567Z" fill="#87796F"/>
<path d="M31.7296 42.9119C31.1041 42.2659 30.3291 41.9382 29.4251 41.9382C28.9591 41.9382 28.5394 42.0228 28.1769 42.1898C28.0506 42.2481 27.9248 42.3176 27.801 42.3982C27.8868 41.783 27.9832 41.5249 28.0426 41.4181C28.2644 41.0148 28.5293 40.9683 28.709 40.9683C28.8531 40.9683 28.9635 41.009 29.0573 41.0963C29.1272 41.1618 29.2245 41.313 29.2904 41.6614C29.3229 41.8347 29.4843 41.9524 29.6593 41.9311L32.1814 41.6198C32.2789 41.6078 32.3662 41.5534 32.4198 41.4713C32.4735 41.3891 32.4886 41.2874 32.4608 41.1934C32.3027 40.6604 32.0665 40.2086 31.7588 39.8499C31.4461 39.4863 31.0494 39.2069 30.5798 39.0196C30.1144 38.8339 29.5106 38.7437 28.7342 38.7437C27.4125 38.7437 26.3591 39.1672 25.603 40.0024C24.8555 40.828 24.4766 42.1219 24.4766 43.8479C24.4766 45.0186 24.6545 45.9801 25.0049 46.7053C25.3636 47.4474 25.8548 47.9982 26.4649 48.3422C27.0652 48.6807 27.86 48.8523 28.8273 48.8523C29.6366 48.8523 30.3255 48.7114 30.8744 48.4333C31.4357 48.1492 31.8808 47.7244 32.1967 47.1706C32.5089 46.6235 32.6672 46.0126 32.6672 45.3546C32.6674 44.3769 32.3519 43.5549 31.7296 42.9119ZM31.6167 46.8397C31.3631 47.2839 31.0215 47.6104 30.5727 47.8375C30.118 48.0677 29.5309 48.1846 28.8273 48.1846C27.9763 48.1846 27.2918 48.0419 26.7931 47.7607C26.3039 47.4848 25.9047 47.0321 25.6063 46.4147C25.2999 45.7808 25.1445 44.9171 25.1445 43.8479C25.1445 42.2929 25.4654 41.1498 26.0982 40.4508C26.7312 39.7515 27.5933 39.4117 28.734 39.4117C29.4146 39.4117 29.9523 39.4885 30.3322 39.6399C30.7007 39.7871 31.0104 40.0042 31.252 40.2852C31.4245 40.4862 31.5704 40.7283 31.6871 41.0077L29.8722 41.2319C29.7885 40.9603 29.6698 40.7548 29.513 40.6085C29.2944 40.4043 29.0239 40.3006 28.7093 40.3006C28.3379 40.3006 27.8193 40.4386 27.4582 41.0952C27.2642 41.4446 27.1344 42.0972 27.05 43.1488C27.0387 43.2888 27.1164 43.4209 27.244 43.4792C27.3715 43.5378 27.5223 43.5099 27.6207 43.4102C27.8939 43.1332 28.1751 42.9268 28.4568 42.797C28.7309 42.6707 29.0566 42.6066 29.4255 42.6066C30.1516 42.6066 30.7483 42.8584 31.2498 43.3766C31.7545 43.898 31.9997 44.5453 31.9997 45.3551C31.9994 45.8952 31.8708 46.3949 31.6167 46.8397ZM28.7153 43.5077C28.2659 43.5077 27.8845 43.6762 27.5813 44.0087C27.2856 44.3324 27.1357 44.7853 27.1357 45.3549C27.1357 45.9309 27.2898 46.3964 27.5937 46.7382C27.9079 47.0916 28.2998 47.2708 28.7587 47.2708C29.1893 47.2708 29.554 47.1052 29.8432 46.7783C30.1222 46.4632 30.2636 46.0077 30.2636 45.4234C30.2636 44.8289 30.1191 44.3596 29.8337 44.0283C29.5358 43.6829 29.1597 43.5077 28.7153 43.5077ZM29.3432 46.3354C29.1815 46.5178 28.9958 46.6028 28.7587 46.6028C28.4915 46.6028 28.28 46.5049 28.0929 46.2945C27.8983 46.0756 27.8037 45.7683 27.8037 45.3549C27.8037 44.9572 27.8948 44.6557 28.0747 44.4589C28.251 44.2656 28.4545 44.1757 28.7153 44.1757C28.9633 44.1757 29.1579 44.2674 29.3278 44.4642C29.5057 44.6706 29.5957 44.9933 29.5957 45.4234C29.5957 45.8394 29.5106 46.1462 29.3432 46.3354Z" fill="#3A312A"/>
<path d="M36.7906 15.6657C37.0752 11.0841 33.5918 7.13919 29.0101 6.85456C24.4285 6.56993 20.4836 10.0533 20.199 14.635C19.9143 19.2166 23.3977 23.1615 27.9794 23.4462C32.561 23.7308 36.5059 20.2474 36.7906 15.6657Z" fill="#F16C7A"/>
<path d="M28.4999 6.50401C23.7324 6.50401 19.8535 10.3827 19.8535 15.1504C19.8535 19.9182 23.7324 23.7968 28.4999 23.7968C33.2674 23.7968 37.1463 19.9182 37.1463 15.1504C37.1463 10.3827 33.2674 6.50401 28.4999 6.50401ZM28.4999 23.1289C24.1005 23.1289 20.5215 19.5497 20.5215 15.1504C20.5215 10.7512 24.1005 7.17198 28.4999 7.17198C32.8994 7.17198 36.4784 10.7512 36.4784 15.1504C36.4784 19.5499 32.8994 23.1289 28.4999 23.1289Z" fill="#3A312A"/>
<path d="M31.3684 15.966V10.3551H29.1574L24.5366 15.8478V17.9341H29.1574V19.6405H31.3684V17.9341H32.5142V15.9662H31.3684V15.966ZM29.1574 15.966H26.7158L29.1574 13.0929V15.966Z" fill="#87796F"/>
<path d="M32.5142 15.632H31.7024V10.3551C31.7024 10.1705 31.5527 10.0211 31.3684 10.0211H29.1574C29.059 10.0211 28.9653 10.0647 28.902 10.14L24.2812 15.6327C24.2305 15.6928 24.2026 15.769 24.2026 15.8478V17.9341C24.2026 18.1186 24.3523 18.2681 24.5366 18.2681H28.8234V19.6405C28.8234 19.8251 28.973 19.9745 29.1574 19.9745H31.3684C31.5527 19.9745 31.7024 19.8251 31.7024 19.6405V18.2681H32.5142C32.6985 18.2681 32.8482 18.1186 32.8482 17.9341V15.9662C32.8482 15.7814 32.6985 15.632 32.5142 15.632ZM32.1802 17.5999H31.3684C31.184 17.5999 31.0344 17.7493 31.0344 17.9338V19.3063H29.4914V17.9338C29.4914 17.7493 29.3418 17.5999 29.1574 17.5999H24.8706V15.9693L29.3128 10.6888H31.0342V15.9658C31.0342 16.1504 31.1838 16.2998 31.3682 16.2998H32.18V17.5999H32.1802ZM29.2727 12.7794C29.1416 12.7308 28.9938 12.7698 28.9031 12.8767L26.4615 15.7498C26.3771 15.8489 26.3582 15.9881 26.4127 16.1063C26.4673 16.2243 26.5855 16.3 26.7158 16.3H29.1574C29.3418 16.3 29.4914 16.1506 29.4914 15.966V13.0929C29.4914 12.9528 29.4041 12.8277 29.2727 12.7794ZM28.8234 15.632H27.4378L28.8234 14.0017V15.632Z" fill="#3A312A"/>
<path d="M47.8932 51.7367C52.227 50.2171 54.5083 45.4721 52.9887 41.1383C51.4692 36.8046 46.7241 34.5232 42.3904 36.0428C38.0566 37.5624 35.7753 42.3074 37.2949 46.6412C38.8144 50.9749 43.5595 53.2562 47.8932 51.7367Z" fill="#F5E1C5"/>
<path d="M45.1252 35.2267C40.3574 35.2267 36.4785 39.1053 36.4785 43.8731C36.4785 48.6408 40.3574 52.5197 45.1252 52.5197C49.8927 52.5197 53.7716 48.641 53.7716 43.8731C53.7716 39.1053 49.8927 35.2267 45.1252 35.2267ZM45.1252 51.8515C40.7257 51.8515 37.1465 48.2723 37.1465 43.8729C37.1465 39.4736 40.7257 35.8944 45.1252 35.8944C49.5246 35.8944 53.1036 39.4736 53.1036 43.8729C53.1036 48.2725 49.5246 51.8515 45.1252 51.8515Z" fill="#3A312A"/>
<path d="M48.5194 44.3959C48.2764 44.0058 47.9079 43.6921 47.4139 43.4554C47.7877 43.2062 48.0616 42.949 48.2359 42.6832C48.4684 42.3263 48.5846 41.9422 48.5846 41.5312C48.5846 40.8256 48.2927 40.24 47.7096 39.7751C47.1262 39.3102 46.2242 39.0777 45.0036 39.0777C44.0818 39.0777 43.3408 39.2645 42.7804 39.6382C42.0621 40.124 41.7032 40.7488 41.7032 41.5127C41.7032 41.9776 41.8276 42.3886 42.0768 42.7458C42.2594 43.0074 42.5502 43.2441 42.9487 43.4556C42.4297 43.6591 42.0456 43.9468 41.7965 44.3182C41.5475 44.6898 41.4229 45.1433 41.4229 45.6788C41.4229 46.2268 41.5558 46.7231 41.8214 47.1673C42.087 47.6117 42.4753 47.9479 42.9859 48.1761C43.4964 48.4043 44.2354 48.5186 45.2029 48.5186C45.7177 48.5186 46.2024 48.4678 46.6568 48.3661C47.1115 48.2643 47.4913 48.1055 47.7966 47.8896C48.1016 47.6736 48.359 47.3674 48.5688 46.9711C48.7783 46.5746 48.8832 46.1482 48.8832 45.6913C48.8836 45.2179 48.7623 44.7862 48.5194 44.3959ZM44.3782 40.9115C44.5712 40.7185 44.8213 40.6218 45.1285 40.6218C45.4316 40.6218 45.6805 40.7205 45.8758 40.9178C46.0708 41.115 46.1683 41.3715 46.1683 41.6868C46.1683 41.9898 46.0748 42.237 45.888 42.428C45.7012 42.6191 45.4625 42.7146 45.1719 42.7146C44.8437 42.7146 44.5812 42.6182 44.384 42.4249C44.1867 42.2319 44.0883 41.9776 44.0883 41.6621C44.0885 41.3548 44.1849 41.1046 44.3782 40.9115ZM45.9753 46.5723C45.7346 46.8317 45.4625 46.9615 45.1595 46.9615C44.844 46.9615 44.5636 46.8337 44.3189 46.5786C44.0738 46.3232 43.9516 45.9943 43.9516 45.5915C43.9516 45.168 44.0687 44.8316 44.3034 44.5827C44.538 44.3335 44.813 44.2091 45.1285 44.2091C45.4483 44.2091 45.7295 44.3378 45.9724 44.5951C46.2153 44.8525 46.3367 45.1827 46.3367 45.5853C46.3364 45.9839 46.216 46.3129 45.9753 46.5723Z" fill="#87796F"/>
<path d="M45.1288 43.8751C44.7191 43.8751 44.3597 44.0361 44.0605 44.3538C43.7668 44.6655 43.6178 45.0821 43.6178 45.5918C43.6178 46.0818 43.7726 46.4917 44.0781 46.8099C44.3873 47.1323 44.7512 47.2958 45.1597 47.2958C45.5583 47.2958 45.9152 47.1288 46.2205 46.7997C46.5193 46.4775 46.6707 46.0691 46.6707 45.5855C46.6707 45.0966 46.5175 44.6862 46.2154 44.366C45.9083 44.0401 45.5425 43.8751 45.1288 43.8751ZM45.7308 46.3455C45.5545 46.5354 45.3677 46.6278 45.16 46.6278C44.9373 46.6278 44.7411 46.5361 44.5603 46.3475C44.3758 46.1551 44.286 45.9077 44.286 45.5915C44.286 45.2531 44.3715 44.9982 44.547 44.8116C44.7195 44.6283 44.9046 44.5428 45.129 44.5428C45.3548 44.5428 45.5512 44.635 45.73 44.8243C45.9136 45.0191 46.0032 45.268 46.0032 45.5853C46.0027 45.8995 45.9139 46.148 45.7308 46.3455ZM45.1724 43.0484C45.555 43.0484 45.8762 42.9181 46.1272 42.6614C46.3763 42.4067 46.5028 42.0787 46.5028 41.6868C46.5028 41.2818 46.3719 40.944 46.1134 40.6826C45.854 40.4208 45.5227 40.2879 45.1288 40.2879C44.7313 40.2879 44.3994 40.4181 44.1422 40.6753C43.885 40.9325 43.7548 41.2644 43.7548 41.6619C43.7548 42.0693 43.8881 42.4062 44.1507 42.6634C44.4116 42.919 44.7554 43.0484 45.1724 43.0484ZM44.6145 41.1478C44.7436 41.0186 44.9117 40.9561 45.1288 40.9561C45.3436 40.9561 45.5057 41.0186 45.6387 41.1527C45.7707 41.2863 45.8348 41.4608 45.8348 41.6868C45.8348 41.901 45.7745 42.0671 45.6498 42.1945C45.5256 42.3214 45.3742 42.3804 45.1724 42.3804C44.9331 42.3804 44.7516 42.3167 44.618 42.186C44.4866 42.0573 44.4227 41.8859 44.4227 41.6619C44.4227 41.445 44.4855 41.2767 44.6145 41.1478ZM48.8033 44.2195C48.6105 43.9094 48.3475 43.6411 48.0189 43.4175C48.2259 43.2392 48.3925 43.0546 48.5163 42.8656C48.7837 42.4552 48.9193 42.0061 48.9193 41.5312C48.9193 40.7221 48.5826 40.0434 47.9184 39.5139C47.2772 39.0029 46.2966 38.7435 45.0043 38.7435C44.0197 38.7435 43.2093 38.951 42.5938 39.3614C41.7818 39.9107 41.3699 40.6345 41.3699 41.5127C41.3699 42.0455 41.5157 42.5245 41.8036 42.9368C41.9228 43.1076 42.0802 43.269 42.2737 43.4193C41.9593 43.6146 41.7068 43.8533 41.5195 44.1323C41.2341 44.5582 41.0894 45.0785 41.0894 45.6788C41.0894 46.2856 41.2394 46.844 41.5353 47.3387C41.8357 47.841 42.2781 48.2253 42.8501 48.4812C43.4097 48.731 44.1794 48.8526 45.2034 48.8526C45.7402 48.8526 46.2539 48.7985 46.7301 48.692C47.2262 48.5809 47.6499 48.4028 47.9899 48.1623C48.337 47.9167 48.6312 47.5685 48.8645 47.1274C49.099 46.6841 49.2176 46.201 49.2176 45.6915C49.2179 45.1567 49.0783 44.6615 48.8033 44.2195ZM48.2743 46.8148C48.0906 47.1626 47.865 47.4325 47.6045 47.6168C47.3371 47.8061 46.994 47.9484 46.5847 48.0399C46.1561 48.1358 45.6914 48.1844 45.2036 48.1844C44.2883 48.1844 43.588 48.0788 43.1229 47.8709C42.6722 47.6694 42.3402 47.3833 42.1085 46.9954C41.8753 46.6057 41.7573 46.1627 41.7573 45.6784C41.7573 45.2128 41.864 44.8176 42.0744 44.5036C42.2837 44.1915 42.619 43.9432 43.0712 43.766C43.1926 43.7183 43.2752 43.6043 43.2825 43.4741C43.2901 43.3438 43.2211 43.2211 43.1057 43.1599C42.7564 42.9742 42.5023 42.7703 42.3511 42.5538C42.1403 42.2517 42.0376 41.9108 42.0376 41.512C42.0376 40.8603 42.342 40.3375 42.9661 39.9154C43.4682 39.5807 44.1538 39.4111 45.0041 39.4111C46.1414 39.4111 46.982 39.6212 47.5019 40.0356C48.0062 40.4375 48.2511 40.9265 48.2511 41.5305C48.2511 41.8785 48.1547 42.1958 47.9572 42.4995C47.8085 42.7262 47.5633 42.9542 47.2289 43.1771C47.1291 43.2436 47.0726 43.3587 47.081 43.4785C47.0895 43.5983 47.1614 43.7043 47.2698 43.7562C47.7034 43.9639 48.0284 44.2385 48.2362 44.572C48.4473 44.9113 48.5499 45.2772 48.5499 45.6908C48.5499 46.0907 48.4571 46.4688 48.2743 46.8148Z" fill="#3A312A"/>
<path d="M20.1598 21.1777C18.3908 21.1777 16.7521 21.7321 15.4043 22.674L13.1911 24.9607C12.3424 26.2639 11.8472 27.8189 11.8472 29.4902C11.8472 34.0811 15.5689 37.8026 20.1596 37.8026C24.7505 37.8026 28.472 34.0809 28.472 29.4902C28.4722 24.8994 24.7505 21.1777 20.1598 21.1777Z" fill="#F5E1C5"/>
<path d="M20.1601 20.8438C18.3808 20.8438 16.6702 21.3819 15.2133 22.4003C15.0621 22.5061 15.0252 22.7143 15.1309 22.8655C15.2369 23.0169 15.4453 23.0534 15.5961 22.9479C16.9402 22.0085 18.5184 21.5117 20.1601 21.5117C24.5595 21.5117 28.1385 25.0909 28.1385 29.4902C28.1385 33.8896 24.5595 37.4686 20.1601 37.4686C15.7606 37.4686 12.1814 33.8894 12.1814 29.4902C12.1814 27.9416 12.6274 26.4384 13.4713 25.143C13.5719 24.9885 13.5283 24.7814 13.3737 24.6808C13.2201 24.5804 13.0121 24.6236 12.9117 24.7783C11.9971 26.1826 11.5137 27.8118 11.5137 29.4902C11.5137 34.2579 15.3926 38.1366 20.1603 38.1366C24.9278 38.1366 28.8067 34.2579 28.8067 29.4902C28.8065 24.7226 24.9276 20.8438 20.1601 20.8438Z" fill="#3A312A"/>
<path d="M16.5015 24.8504V26.9926H21.0103C20.0844 28.1426 19.4078 29.2221 18.9801 30.2309C18.5524 31.2398 18.2391 32.4896 18.0398 33.9798H20.5681C20.6509 32.9086 20.813 31.9808 21.0539 31.1962C21.3567 30.1873 21.77 29.2717 22.293 28.4499C22.7247 27.7733 23.2622 27.1443 23.9059 26.5629V24.8504H16.5015Z" fill="#87796F"/>
<path d="M23.9061 24.5165H16.5015C16.3171 24.5165 16.1675 24.6659 16.1675 24.8504V26.9926C16.1675 27.1772 16.3171 27.3266 16.5015 27.3266H20.3274C19.5975 28.2983 19.042 29.2292 18.6726 30.1007C18.2353 31.132 17.9111 32.4223 17.7089 33.9357C17.696 34.0312 17.7252 34.1274 17.7884 34.1998C17.8519 34.2724 17.9434 34.3138 18.0398 34.3138H20.5681C20.7424 34.3138 20.8878 34.1795 20.9009 34.0056C20.9815 32.9643 21.1403 32.052 21.3736 31.2921C21.6662 30.3176 22.0703 29.4216 22.5744 28.6296C22.9881 27.981 23.5116 27.3691 24.1297 26.8109C24.1996 26.7475 24.2397 26.6575 24.2397 26.5631V24.8507C24.2401 24.6661 24.0905 24.5165 23.9061 24.5165ZM23.5721 26.4162C22.9572 26.9873 22.4328 27.6105 22.0113 28.2709C21.474 29.1152 21.0443 30.0671 20.7348 31.0984C20.5113 31.8267 20.3523 32.6824 20.2617 33.6463H18.4248C18.6203 32.3558 18.9102 31.2523 19.2876 30.3616C19.701 29.386 20.3683 28.323 21.2703 27.2021C21.3509 27.102 21.3672 26.9646 21.3115 26.8486C21.2561 26.7326 21.1389 26.6589 21.0105 26.6589H16.8357V25.1847H23.5724V26.4162H23.5721Z" fill="#3A312A"/>
<path d="M43.3141 34.5977C46.1375 30.9801 45.4936 25.7587 41.876 22.9353C38.2585 20.112 33.0371 20.7558 30.2137 24.3734C27.3903 27.9909 28.0342 33.2124 31.6518 36.0357C35.2693 38.8591 40.4907 38.2152 43.3141 34.5977Z" fill="#8AC3DA"/>
<path d="M36.7853 20.8438C32.0176 20.8438 28.1387 24.7224 28.1387 29.4902C28.1387 34.2579 32.0176 38.1366 36.7853 38.1366C41.5528 38.1366 45.4317 34.2579 45.4317 29.4902C45.4317 24.7226 41.5528 20.8438 36.7853 20.8438ZM36.7853 37.4688C32.3858 37.4688 28.8066 33.8896 28.8066 29.4904C28.8066 25.0909 32.3858 21.5119 36.7853 21.5119C41.1848 21.5119 44.7637 25.0911 44.7637 29.4904C44.7637 33.8898 41.1848 37.4688 36.7853 37.4688Z" fill="#3A312A"/>
<path d="M39.7158 28.6741C39.1469 28.1221 38.4059 27.8458 37.4926 27.8458C37.2227 27.8458 36.9497 27.879 36.6736 27.9453C36.3975 28.0119 36.1183 28.1114 35.836 28.2444L36.054 26.8741H40.133V24.8502H34.1111L33.3077 29.7573L35.4686 30.0686C35.6719 29.8404 35.8589 29.6825 36.0293 29.5955C36.2575 29.475 36.4942 29.4149 36.7391 29.4149C37.1252 29.4149 37.4344 29.5416 37.6669 29.7947C37.8994 30.0481 38.0156 30.4467 38.0156 30.9904C38.0156 31.5219 37.9002 31.9215 37.67 32.1892C37.4396 32.457 37.1477 32.5908 36.795 32.5908C36.4793 32.5908 36.2074 32.484 35.9792 32.2702C35.7507 32.0565 35.6053 31.7441 35.5432 31.3328L32.9775 31.6132C33.1022 32.0409 33.2579 32.3978 33.4447 32.6841C33.6315 32.9707 33.8755 33.227 34.1763 33.4534C34.4774 33.6799 34.8427 33.85 35.2725 33.9642C35.7022 34.0784 36.2179 34.1354 36.8199 34.1354C37.6587 34.1354 38.3467 33.9922 38.8844 33.7057C39.4219 33.4191 39.8371 33.0041 40.1299 32.4601C40.4225 31.9164 40.569 31.3495 40.569 30.7602C40.569 29.9219 40.2847 29.2265 39.7158 28.6741Z" fill="#87796F"/>
<path d="M39.9482 28.4345C39.3174 27.8222 38.4912 27.5119 37.4923 27.5119C37.198 27.5119 36.8961 27.5486 36.5953 27.6207C36.4837 27.6477 36.371 27.6797 36.2579 27.7169L36.3388 27.2084H40.1328C40.3172 27.2084 40.4668 27.059 40.4668 26.8744V24.8504C40.4668 24.6659 40.3172 24.5165 40.1328 24.5165H34.1109C33.9472 24.5165 33.8078 24.6349 33.7813 24.7966L32.978 29.7039C32.9637 29.7923 32.9851 29.8829 33.0383 29.9553C33.0913 30.0276 33.1715 30.0755 33.2601 30.0884L35.421 30.3997C35.5314 30.4153 35.6432 30.375 35.718 30.2913C35.9357 30.0468 36.0903 29.9397 36.1849 29.8914C36.3661 29.7956 36.5476 29.7493 36.7391 29.7493C37.0301 29.7493 37.2532 29.8382 37.4209 30.021C37.5939 30.2096 37.6818 30.536 37.6818 30.9909C37.6818 31.4375 37.5928 31.7677 37.4173 31.9719C37.2496 32.1667 37.0519 32.2573 36.7954 32.2573C36.5656 32.2573 36.3733 32.1821 36.2076 32.0267C36.0364 31.8666 35.9244 31.6165 35.8738 31.2834C35.8471 31.1064 35.6861 30.9826 35.5074 31.0013L32.9417 31.2816C32.8437 31.2923 32.7551 31.346 32.7003 31.4282C32.6456 31.5103 32.6297 31.6123 32.6574 31.7071C32.7907 32.1645 32.9615 32.5548 33.1652 32.8674C33.3725 33.1851 33.6453 33.4724 33.9761 33.7211C34.3099 33.9722 34.7174 34.1628 35.1872 34.2875C35.6427 34.4084 36.1922 34.4699 36.8204 34.4699C37.7105 34.4699 38.4578 34.3122 39.042 34.0009C39.6365 33.6841 40.1019 33.2192 40.4247 32.6189C40.7424 32.0284 40.9034 31.4032 40.9034 30.7606C40.9028 29.8322 40.5817 29.0495 39.9482 28.4345ZM39.8356 32.3023C39.5726 32.7913 39.2099 33.154 38.7272 33.4114C38.2407 33.6705 37.5992 33.8017 36.8197 33.8017C36.2492 33.8017 35.7576 33.7478 35.358 33.6416C34.9719 33.5389 34.6417 33.386 34.3769 33.1867C34.1086 32.9847 33.8891 32.7545 33.7243 32.502C33.6134 32.3324 33.5135 32.1309 33.4253 31.9004L35.2796 31.6978C35.374 32.0356 35.5318 32.3092 35.7507 32.514C36.0417 32.7868 36.3931 32.9251 36.7948 32.9251C37.2476 32.9251 37.627 32.751 37.9229 32.4072C38.2057 32.0783 38.3491 31.6016 38.3491 30.9906C38.3491 30.3632 38.2022 29.8849 37.9125 29.5692C37.615 29.2452 37.2202 29.0811 36.7386 29.0811C36.4401 29.0811 36.1488 29.1548 35.8765 29.2984C35.7049 29.3864 35.5292 29.5229 35.343 29.7135L33.692 29.4757L34.3945 25.1844H39.7986V26.5404H36.0535C35.8894 26.5404 35.7496 26.6598 35.7238 26.8221L35.5058 28.1921C35.4864 28.3143 35.5361 28.4372 35.6349 28.5116C35.7336 28.5857 35.8661 28.5998 35.9778 28.5468C36.2381 28.4243 36.4982 28.3315 36.7513 28.2704C37.0009 28.2106 37.2501 28.18 37.4921 28.18C38.3226 28.18 38.9739 28.4201 39.4827 28.9139C39.9885 29.4053 40.2346 30.0092 40.2346 30.7606C40.2348 31.2914 40.1005 31.8102 39.8356 32.3023Z" fill="#3A312A"/>
<path d="M10.5524 6.96915C10.3356 9.54394 7.65234 9.95051 7.65234 9.95051C9.95617 10.0589 10.5302 13.0808 10.5302 13.0808C10.5794 10.9262 13.4962 9.91867 13.4962 9.91867C11.3113 9.78775 10.5524 6.96915 10.5524 6.96915Z" fill="#D5DE58"/>
<path d="M13.5165 9.58491C11.6008 9.47046 10.882 6.90769 10.8751 6.88186C10.8328 6.72556 10.6856 6.62336 10.5224 6.63649C10.361 6.65119 10.2334 6.77944 10.2198 6.94087C10.0286 9.2153 7.70116 9.60473 7.60275 9.62009C7.43286 9.64569 7.3104 9.79599 7.3193 9.96743C7.32821 10.1389 7.46559 10.2756 7.63726 10.2838C9.6474 10.3785 10.1976 13.1156 10.2027 13.1432C10.2334 13.3015 10.3719 13.4142 10.5307 13.4142C10.54 13.4142 10.5494 13.4137 10.5587 13.413C10.7291 13.3988 10.8609 13.2587 10.8649 13.0882C10.9079 11.1938 13.5791 10.2433 13.6062 10.234C13.7567 10.1816 13.8494 10.0302 13.8275 9.87258C13.8053 9.71494 13.6755 9.59448 13.5165 9.58491ZM10.4962 11.8885C10.194 11.1916 9.67033 10.3506 8.80687 9.91221C9.45948 9.59938 10.2337 9.04096 10.6329 8.07018C10.9782 8.75396 11.568 9.60205 12.4885 10.0122C11.819 10.3773 10.9473 10.9932 10.4962 11.8885Z" fill="#3A312A"/>
<path d="M5.72103 10.7498C5.56762 12.571 3.66992 12.8586 3.66992 12.8586C5.29932 12.9352 5.70545 15.0727 5.70545 15.0727C5.74018 13.5489 7.80331 12.8361 7.80331 12.8361C6.25786 12.7435 5.72103 10.7498 5.72103 10.7498Z" fill="#D5DE58"/>
<path d="M7.82314 12.5026C6.53908 12.4258 6.04812 10.6802 6.04345 10.6626C6.00114 10.5063 5.85196 10.4034 5.69121 10.4172C5.52978 10.4317 5.40175 10.5601 5.38817 10.7218C5.25947 12.2514 3.68574 12.5177 3.61983 12.5282C3.44995 12.5538 3.32749 12.7041 3.33639 12.8755C3.3453 13.047 3.48268 13.1837 3.65435 13.1919C4.99808 13.2552 5.37414 15.1166 5.37748 15.1348C5.40776 15.2936 5.54648 15.4065 5.70545 15.4065C5.71458 15.4065 5.72394 15.4063 5.73329 15.4054C5.90362 15.3913 6.03565 15.2508 6.03966 15.0801C6.06861 13.8089 7.89461 13.1576 7.91264 13.1514C8.06316 13.0993 8.15601 12.9481 8.13441 12.7903C8.11237 12.6326 7.98211 12.5122 7.82314 12.5026ZM5.68898 14.0155C5.48324 13.5956 5.16796 13.1367 4.69883 12.8399C5.11208 12.6079 5.52199 12.2543 5.78338 11.7453C6.01873 12.1624 6.37431 12.6257 6.88353 12.9083C6.47139 13.1536 5.99535 13.5186 5.68898 14.0155Z" fill="#3A312A"/>
<path d="M5.72103 4.81427C5.56762 6.63538 3.66992 6.92305 3.66992 6.92305C5.29932 6.99964 5.70545 9.13714 5.70545 9.13714C5.74018 7.61306 7.80331 6.90056 7.80331 6.90056C6.25786 6.80816 5.72103 4.81427 5.72103 4.81427Z" fill="#D5DE58"/>
<path d="M7.82314 6.56724C6.53908 6.49043 6.04812 4.7448 6.04345 4.72699C6.00114 4.57068 5.85196 4.46826 5.69121 4.48162C5.52978 4.49609 5.40175 4.62479 5.38817 4.78622C5.25947 6.31609 3.68574 6.58238 3.61983 6.59285C3.44995 6.61845 3.32749 6.76875 3.33639 6.94019C3.3453 7.11164 3.48268 7.24835 3.65435 7.25659C4.99808 7.31982 5.37414 9.18123 5.37748 9.19948C5.40776 9.35824 5.54648 9.47113 5.70545 9.47113C5.71458 9.47113 5.72394 9.4709 5.73329 9.47001C5.90362 9.45599 6.03565 9.31549 6.03966 9.14471C6.06861 7.87334 7.89461 7.2223 7.91264 7.21606C8.06316 7.16396 8.15601 7.01278 8.13441 6.85491C8.11237 6.69727 7.98211 6.57682 7.82314 6.56724ZM5.68898 8.08019C5.48324 7.66049 5.16796 7.20137 4.69883 6.90457C5.1123 6.67278 5.52199 6.3192 5.78338 5.80999C6.01873 6.22725 6.37431 6.69037 6.88353 6.97315C6.47161 7.21807 5.99535 7.583 5.68898 8.08019Z" fill="#3A312A"/>
<path d="M45.126 35.8949C44.5538 35.8949 43.9949 35.955 43.4561 36.0708C47.0564 36.8412 49.7639 40.0452 49.7639 43.8726C49.7639 47.7001 47.0564 50.9064 43.4561 51.6767C43.9949 51.7925 44.5538 51.8526 45.126 51.8526C49.5257 51.8526 53.1038 48.2723 53.1038 43.8726C53.1038 39.473 49.5257 35.8949 45.126 35.8949Z" fill="#DECAAD"/>
</svg>
