<svg width="55" height="55" viewBox="0 0 55 55" fill="none" xmlns="http://www.w3.org/2000/svg">
<path d="M48.6636 9.21255C48.3241 9.21255 47.9976 9.15239 47.6968 9.04067V22.5973H41.2515C40.6585 22.5973 40.1772 23.0786 40.1772 23.6715C40.1772 24.2645 40.6585 24.7458 41.2515 24.7458H48.771C49.364 24.7458 49.8452 24.2645 49.8452 23.6715V8.95044C49.4866 9.11802 49.0868 9.21255 48.6636 9.21255Z" fill="#EF6D7A"/>
<path d="M50.0184 8.6786C49.9254 8.61952 49.8087 8.61178 49.7088 8.65841C49.112 8.93727 48.4137 8.96305 47.8089 8.73833C47.7101 8.70159 47.5992 8.71555 47.5129 8.77593C47.4263 8.83608 47.3745 8.93491 47.3745 9.0404V22.2748H41.2515C40.4815 22.2748 39.855 22.9013 39.855 23.6713C39.855 24.4413 40.4815 25.0677 41.2515 25.0677H48.771C49.541 25.0677 50.1675 24.4413 50.1675 23.6713V8.95038C50.1675 8.84016 50.1114 8.73768 50.0184 8.6786ZM49.5229 23.6715C49.5229 24.0861 49.1856 24.4234 48.771 24.4234H41.2515C40.8368 24.4234 40.4995 24.0861 40.4995 23.6715C40.4995 23.2568 40.8368 22.9195 41.2515 22.9195H47.6968C47.8749 22.9195 48.019 22.7754 48.019 22.5973V9.46815C48.5112 9.57171 49.0383 9.55366 49.5229 9.41444V23.6715Z" fill="#3A312A"/>
<path d="M10.9585 22.1547C10.3655 22.1547 9.88428 22.6359 9.88428 23.2289V44.9281H12.0327V23.2289C12.0327 22.6359 11.5515 22.1547 10.9585 22.1547Z" fill="#87796F"/>
<path d="M10.9585 21.8324C10.1885 21.8324 9.56201 22.4589 9.56201 23.2289V32.525C9.56201 32.7031 9.70617 32.8472 9.88428 32.8472C10.0624 32.8472 10.2065 32.7031 10.2065 32.525V23.2289C10.2065 22.8142 10.5438 22.4769 10.9585 22.4769C11.3731 22.4769 11.7104 22.8142 11.7104 23.2289V44.6058H10.2065V35.5807C10.2065 35.4026 10.0624 35.2584 9.88428 35.2584C9.70617 35.2584 9.56201 35.4026 9.56201 35.5807V44.9281C9.56201 45.1062 9.70617 45.2503 9.88428 45.2503H12.0327C12.2108 45.2503 12.355 45.1062 12.355 44.9281V23.2289C12.355 22.4589 11.7285 21.8324 10.9585 21.8324Z" fill="#3A312A"/>
<path d="M44.0444 22.1547C43.4515 22.1547 42.9702 22.6359 42.9702 23.2289V44.9281H45.1187V23.2289C45.1187 22.6359 44.6374 22.1547 44.0444 22.1547Z" fill="#87796F"/>
<path d="M44.0444 21.8324C43.2744 21.8324 42.6479 22.4589 42.6479 23.2289V44.9281C42.6479 45.1062 42.7921 45.2503 42.9702 45.2503H45.1187C45.2968 45.2503 45.4409 45.1062 45.4409 44.9281V23.2289C45.4409 22.4589 44.8144 21.8324 44.0444 21.8324ZM44.7964 44.6058H43.2925V23.2289C43.2925 22.8142 43.6298 22.4769 44.0444 22.4769C44.4591 22.4769 44.7964 22.8142 44.7964 23.2289V44.6058Z" fill="#3A312A"/>
<path d="M48.6636 9.21253C50.2061 9.21253 51.4565 7.96207 51.4565 6.41956C51.4565 4.87704 50.2061 3.62659 48.6636 3.62659C47.1211 3.62659 45.8706 4.87704 45.8706 6.41956C45.8706 7.96207 47.1211 9.21253 48.6636 9.21253Z" fill="#8AC5DC"/>
<path d="M48.6636 3.30432C46.9459 3.30432 45.5483 4.70188 45.5483 6.41956C45.5483 8.13723 46.9459 9.53479 48.6636 9.53479C50.3812 9.53479 51.7788 8.13723 51.7788 6.41956C51.7788 4.70188 50.3812 3.30432 48.6636 3.30432ZM48.6636 8.89026C47.3012 8.89026 46.1929 7.78188 46.1929 6.41956C46.1929 5.05723 47.3012 3.94885 48.6636 3.94885C50.0259 3.94885 51.1343 5.05723 51.1343 6.41956C51.1343 7.78188 50.0261 8.89026 48.6636 8.89026Z" fill="#3A312A"/>
<path d="M10.1821 5.70557C9.97287 8.19002 7.38379 8.58211 7.38379 8.58211C9.60678 8.68674 10.1606 11.6026 10.1606 11.6026C10.2081 9.52356 13.0226 8.55139 13.0226 8.55139C10.9143 8.42549 10.1821 5.70557 10.1821 5.70557Z" fill="#D5DE58"/>
<path d="M13.0419 8.22981C11.1934 8.11938 10.5001 5.64653 10.4932 5.6216C10.4522 5.47057 10.3089 5.37088 10.1529 5.38485C9.99716 5.39903 9.87405 5.52278 9.86095 5.67854C9.67618 7.87317 7.43021 8.24871 7.33546 8.26354C7.17153 8.28824 7.05337 8.43326 7.06196 8.59869C7.07056 8.76412 7.20312 8.89604 7.36876 8.90399C9.30837 8.99529 9.83904 11.6364 9.84419 11.663C9.87363 11.8158 10.0073 11.9245 10.1604 11.9245C10.1695 11.9245 10.1785 11.924 10.1875 11.9234C10.3517 11.9096 10.4791 11.7745 10.4829 11.6097C10.5248 9.78184 13.1023 8.86467 13.1283 8.85565C13.2733 8.80516 13.3629 8.65906 13.3418 8.50695C13.3208 8.35528 13.1953 8.23904 13.0419 8.22981ZM10.1274 10.4526C9.83581 9.7799 9.3305 8.96844 8.49734 8.54541C9.12704 8.24377 9.87427 7.70473 10.2595 6.76823C10.5927 7.42801 11.1616 8.24635 12.05 8.64209C11.404 8.99443 10.5628 9.58869 10.1274 10.4526Z" fill="#3A312A"/>
<path d="M5.52015 9.35376C5.37213 11.111 3.54102 11.3885 3.54102 11.3885C5.11324 11.4625 5.50512 13.525 5.50512 13.525C5.53863 12.0546 7.52937 11.3668 7.52937 11.3668C6.03814 11.2775 5.52015 9.35376 5.52015 9.35376Z" fill="#D5DE58"/>
<path d="M7.54878 11.0451C6.30999 10.971 5.83605 9.2866 5.83154 9.26962C5.79072 9.1188 5.64741 9.01847 5.49165 9.03286C5.33568 9.04683 5.21257 9.17079 5.19947 9.32677C5.07507 10.8027 3.55677 11.0597 3.49317 11.0698C3.32925 11.0945 3.21108 11.2395 3.21968 11.4052C3.22827 11.5706 3.36083 11.7025 3.52626 11.7105C4.82284 11.7715 5.18571 13.5676 5.18894 13.5852C5.21794 13.7382 5.352 13.8473 5.5054 13.8473C5.51421 13.8473 5.52323 13.8471 5.53226 13.8462C5.69661 13.8327 5.82402 13.6971 5.82788 13.5323C5.85581 12.3058 7.61796 11.6774 7.63515 11.6714C7.7806 11.6211 7.87019 11.4752 7.84913 11.3229C7.82808 11.1706 7.7024 11.0543 7.54878 11.0451ZM5.48972 12.505C5.2912 12.0998 4.98698 11.657 4.53431 11.3706C4.93284 11.1467 5.32859 10.8055 5.58081 10.3142C5.8079 10.7168 6.15101 11.1639 6.64236 11.4365C6.2449 11.6731 5.78534 12.0254 5.48972 12.505Z" fill="#3A312A"/>
<path d="M5.52015 3.62659C5.37213 5.38379 3.54102 5.66137 3.54102 5.66137C5.11324 5.73528 5.50512 7.79778 5.50512 7.79778C5.53863 6.32717 7.52937 5.63967 7.52937 5.63967C6.03814 5.5503 5.52015 3.62659 5.52015 3.62659Z" fill="#D5DE58"/>
<path d="M7.549 5.3178C6.31021 5.24368 5.83626 3.55909 5.83153 3.54212C5.79071 3.3913 5.64741 3.29075 5.49165 3.30536C5.33567 3.31933 5.21257 3.44329 5.19946 3.59927C5.07507 5.07546 3.55677 5.33241 3.49317 5.34251C3.32925 5.36722 3.21108 5.51224 3.21968 5.67767C3.22827 5.8431 3.36083 5.97501 3.52648 5.98296C4.82306 6.04397 5.18571 7.84007 5.18915 7.85768C5.21816 8.01087 5.35222 8.11979 5.50562 8.11979C5.51442 8.11979 5.52345 8.11958 5.53247 8.11872C5.69683 8.10518 5.82423 7.96962 5.8281 7.80483C5.85603 6.57829 7.61796 5.94987 7.63536 5.94386C7.7806 5.89358 7.8704 5.7477 7.84935 5.59538C7.82808 5.44349 7.70239 5.32704 7.549 5.3178ZM5.48972 6.77767C5.2912 6.37268 4.98698 5.92968 4.53431 5.64329C4.93284 5.41964 5.32858 5.07825 5.58081 4.58712C5.8079 4.98952 6.15101 5.43661 6.64235 5.70946C6.24489 5.94601 5.78534 6.29813 5.48972 6.77767Z" fill="#3A312A"/>
<path d="M48.8808 47.5062H6.12256C4.69879 47.5062 3.54443 48.6606 3.54443 50.0844V51.3734H51.4589V50.0844C51.4589 48.6604 50.3047 47.5062 48.8808 47.5062Z" fill="#87796F"/>
<path d="M48.8808 47.184H6.12256C4.52326 47.184 3.22217 48.4851 3.22217 50.0844V51.3734C3.22217 51.5515 3.36633 51.6957 3.54443 51.6957H51.4589C51.637 51.6957 51.7812 51.5515 51.7812 51.3734V50.0844C51.7812 48.4851 50.4801 47.184 48.8808 47.184ZM51.1366 51.0511H3.8667V50.0844C3.8667 48.8406 4.87883 47.8285 6.12256 47.8285H48.8808C50.1247 47.8285 51.1366 48.8406 51.1366 50.0844V51.0511Z" fill="#3A312A"/>
<path d="M45.5204 44.9281H9.47949C8.05572 44.9281 6.90137 46.0825 6.90137 47.5062H48.0985C48.0985 46.0822 46.9444 44.9281 45.5204 44.9281Z" fill="#87796F"/>
<path d="M45.5204 44.6058H36.4482C36.2701 44.6058 36.1259 44.75 36.1259 44.9281C36.1259 45.1062 36.2701 45.2504 36.4482 45.2504H45.5204C46.6548 45.2504 47.5964 46.0921 47.7533 47.184H7.24662C7.40346 46.0921 8.34512 45.2504 9.47949 45.2504H33.4833C33.6614 45.2504 33.8056 45.1062 33.8056 44.9281C33.8056 44.75 33.6614 44.6058 33.4833 44.6058H9.47949C7.8802 44.6058 6.5791 45.9069 6.5791 47.5062C6.5791 47.6843 6.72326 47.8285 6.90137 47.8285H48.0985C48.2766 47.8285 48.4208 47.6843 48.4208 47.5062C48.4208 45.9069 47.1197 44.6058 45.5204 44.6058Z" fill="#3A312A"/>
<path d="M31.0583 38.697C39.3708 36.732 44.5165 28.4005 42.5516 20.0881C40.5867 11.7756 32.2552 6.62985 23.9427 8.59478C15.6302 10.5597 10.4845 18.8912 12.4494 27.2037C14.4143 35.5162 22.7458 40.6619 31.0583 38.697Z" fill="#F6E2C6"/>
<path d="M27.5015 7.86755C18.7943 7.86755 11.7104 14.9514 11.7104 23.6586C11.7104 32.3658 18.7943 39.4496 27.5015 39.4496C36.2087 39.4496 43.2925 32.3658 43.2925 23.6586C43.2925 14.9514 36.2087 7.86755 27.5015 7.86755ZM27.5015 38.8051C19.1496 38.8051 12.355 32.0104 12.355 23.6586C12.355 15.3067 19.1496 8.51209 27.5015 8.51209C35.8533 8.51209 42.6479 15.3067 42.6479 23.6586C42.6479 32.0104 35.8533 38.8051 27.5015 38.8051Z" fill="#3A312A"/>
<path d="M32.604 32.5381C34.5071 32.2296 35.7998 30.4368 35.4913 28.5337C35.1828 26.6306 33.3899 25.338 31.4868 25.6465C29.5838 25.955 28.2911 27.7478 28.5996 29.6509C28.9081 31.554 30.701 32.8466 32.604 32.5381Z" fill="#D5DE58"/>
<path d="M32.0537 25.2758C29.951 25.2758 28.2402 26.9863 28.2402 29.089C28.2402 31.1917 29.9508 32.9025 32.0537 32.9025C34.1564 32.9025 35.867 31.1919 35.867 29.089C35.867 26.9861 34.1564 25.2758 32.0537 25.2758ZM32.0537 32.258C30.3064 32.258 28.8848 30.8363 28.8848 29.089C28.8848 27.3417 30.3064 25.9203 32.0537 25.9203C33.801 25.9203 35.2224 27.3419 35.2224 29.089C35.2227 30.8363 33.801 32.258 32.0537 32.258Z" fill="#3A312A"/>
<path d="M23.0757 28.464C23.2126 26.5397 21.7636 24.8688 19.8394 24.7319C17.9151 24.595 16.2441 26.044 16.1073 27.9683C15.9704 29.8926 17.4193 31.5635 19.3436 31.7004C21.2679 31.8373 22.9388 30.3883 23.0757 28.464Z" fill="#D5DE58"/>
<path d="M19.5745 24.4098C17.4718 24.4098 15.7612 26.1204 15.7612 28.2233C15.7612 30.3262 17.4718 32.0365 19.5745 32.0365C21.6772 32.0365 23.388 30.3259 23.388 28.2233C23.388 26.1206 21.6772 24.4098 19.5745 24.4098ZM19.5745 31.392C17.8272 31.392 16.4058 29.9704 16.4058 28.2233C16.4058 26.4759 17.8274 25.0543 19.5745 25.0543C21.3218 25.0543 22.7434 26.4759 22.7434 28.2233C22.7434 29.9704 21.3218 31.392 19.5745 31.392Z" fill="#3A312A"/>
<path d="M27.8184 28.832C29.7465 28.832 31.3096 27.269 31.3096 25.3408C31.3096 23.4127 29.7465 21.8496 27.8184 21.8496C25.8902 21.8496 24.3271 23.4127 24.3271 25.3408C24.3271 27.269 25.8902 28.832 27.8184 28.832Z" fill="#8AC5DC"/>
<path d="M27.8184 21.5273C25.7157 21.5273 24.0049 23.2379 24.0049 25.3408C24.0049 27.4435 25.7155 29.1543 27.8184 29.1543C29.9212 29.1543 31.6318 27.4437 31.6318 25.3408C31.6318 23.2381 29.9212 21.5273 27.8184 21.5273ZM27.8184 28.5098C26.071 28.5098 24.6494 27.0881 24.6494 25.3408C24.6494 23.5935 26.071 22.1719 27.8184 22.1719C29.5657 22.1719 30.9873 23.5935 30.9873 25.3408C30.9873 27.0881 29.5657 28.5098 27.8184 28.5098Z" fill="#3A312A"/>
<path d="M38.3066 31.9623C40.2348 31.9623 41.7979 30.3992 41.7979 28.4711C41.7979 26.5429 40.2348 24.9799 38.3066 24.9799C36.3785 24.9799 34.8154 26.5429 34.8154 28.4711C34.8154 30.3992 36.3785 31.9623 38.3066 31.9623Z" fill="#EF6D7A"/>
<path d="M38.3066 24.6576C36.204 24.6576 34.4932 26.3682 34.4932 28.4711C34.4932 30.5738 36.2038 32.2846 38.3066 32.2846C40.4095 32.2846 42.1201 30.574 42.1201 28.4711C42.1201 26.3682 40.4095 24.6576 38.3066 24.6576ZM38.3066 31.64C36.5593 31.64 35.1377 30.2184 35.1377 28.4711C35.1377 26.7237 36.5593 25.3021 38.3066 25.3021C40.054 25.3021 41.4756 26.7237 41.4756 28.4711C41.4756 30.2184 40.0542 31.64 38.3066 31.64Z" fill="#3A312A"/>
<path d="M22.208 37.2419C24.0841 36.7984 25.2454 34.918 24.802 33.042C24.3585 31.1659 22.4781 30.0045 20.602 30.448C18.7259 30.8915 17.5646 32.7718 18.0081 34.6479C18.4515 36.524 20.3319 37.6854 22.208 37.2419Z" fill="#8AC5DC"/>
<path d="M21.4023 30.0454C19.2997 30.0454 17.5889 31.756 17.5889 33.8589C17.5889 35.9618 19.2995 37.6724 21.4023 37.6724C23.5052 37.6724 25.2158 35.9618 25.2158 33.8589C25.2156 31.756 23.505 30.0454 21.4023 30.0454ZM21.4023 37.0276C19.655 37.0276 18.2334 35.606 18.2334 33.8587C18.2334 32.1113 19.655 30.6897 21.4023 30.6897C23.1497 30.6897 24.5713 32.1113 24.5713 33.8587C24.5711 35.6062 23.1497 37.0276 21.4023 37.0276Z" fill="#3A312A"/>
<path d="M27.9132 32.3112C29.2764 30.948 29.2764 28.7378 27.9132 27.3746C26.55 26.0114 24.3398 26.0114 22.9766 27.3746C21.6134 28.7378 21.6134 30.948 22.9766 32.3112C24.3398 33.6744 26.55 33.6744 27.9132 32.3112Z" fill="#EF6D7A"/>
<path d="M25.4507 26.03C23.348 26.03 21.6372 27.7406 21.6372 29.8435C21.6372 31.9464 23.3478 33.657 25.4507 33.657C27.5534 33.657 29.2642 31.9464 29.2642 29.8435C29.2642 27.7408 27.5536 26.03 25.4507 26.03ZM25.4507 33.0125C23.7034 33.0125 22.2817 31.5908 22.2817 29.8435C22.2817 28.0962 23.7034 26.6746 25.4507 26.6746C27.198 26.6746 28.6196 28.0962 28.6196 29.8435C28.6196 31.5908 27.198 33.0125 25.4507 33.0125Z" fill="#3A312A"/>
<path d="M27.2778 39.1273C29.206 39.1273 30.769 37.5643 30.769 35.6361C30.769 33.708 29.206 32.1449 27.2778 32.1449C25.3497 32.1449 23.7866 33.708 23.7866 35.6361C23.7866 37.5643 25.3497 39.1273 27.2778 39.1273Z" fill="#D5DE58"/>
<path d="M27.2778 31.8226C25.1752 31.8226 23.4644 33.5332 23.4644 35.6361C23.4644 37.7388 25.1749 39.4496 27.2778 39.4496C29.3807 39.4496 31.0913 37.739 31.0913 35.6361C31.0911 33.5334 29.3805 31.8226 27.2778 31.8226ZM27.2778 38.8051C25.5305 38.8051 24.1089 37.3834 24.1089 35.6361C24.1089 33.8888 25.5305 32.4672 27.2778 32.4672C29.0251 32.4672 30.4468 33.8888 30.4468 35.6361C30.4466 37.3834 29.0251 38.8051 27.2778 38.8051Z" fill="#3A312A"/>
<path d="M34.4189 37.1348C36.295 36.6914 37.4564 34.811 37.0129 32.9349C36.5694 31.0588 34.689 29.8975 32.813 30.3409C30.9369 30.7844 29.7755 32.6648 30.219 34.5409C30.6625 36.4169 32.5428 37.5783 34.4189 37.1348Z" fill="#8AC5DC"/>
<path d="M33.6157 29.941C31.513 29.941 29.8022 31.6516 29.8022 33.7545C29.8022 35.8574 31.5128 37.568 33.6157 37.568C35.7186 37.568 37.4292 35.8574 37.4292 33.7545C37.4292 31.6516 35.7184 29.941 33.6157 29.941ZM33.6157 36.9232C31.8684 36.9232 30.4468 35.5016 30.4468 33.7543C30.4468 32.007 31.8684 30.5854 33.6157 30.5854C35.363 30.5854 36.7847 32.007 36.7847 33.7543C36.7847 35.5016 35.363 36.9232 33.6157 36.9232Z" fill="#3A312A"/>
<path d="M27.5017 7.86755C21.6208 7.86755 16.8364 14.9514 16.8364 23.6586C16.8364 32.3658 21.6208 39.4496 27.5017 39.4496C33.3826 39.4496 38.167 32.3658 38.167 23.6586C38.167 14.9514 33.3826 7.86755 27.5017 7.86755ZM27.5017 38.8051C21.9763 38.8051 17.481 32.0104 17.481 23.6586C17.481 15.3067 21.9761 8.51209 27.5017 8.51209C33.027 8.51209 37.5224 15.3067 37.5224 23.6586C37.5224 32.0104 33.0273 38.8051 27.5017 38.8051Z" fill="#3A312A"/>
<path d="M30.6497 12.6397C30.0854 10.4627 29.081 7.86755 27.5016 7.86755C25.9223 7.86755 24.9181 10.4627 24.3535 12.6397C23.5893 15.5871 23.1685 19.5003 23.1685 23.6586C23.1685 27.8169 23.5893 31.7303 24.3535 34.6775C24.9179 36.8545 25.9223 39.4496 27.5016 39.4496C29.081 39.4496 30.0854 36.8545 30.6497 34.6775C31.4139 31.7303 31.8348 27.8169 31.8348 23.6586C31.8346 19.5001 31.4137 15.5869 30.6497 12.6397ZM30.0256 34.5157C29.3293 37.2015 28.3857 38.8051 27.5014 38.8051C26.6173 38.8051 25.6738 37.2017 24.9772 34.5157C24.2263 31.6198 23.8128 27.7638 23.8128 23.6586C23.8128 19.5533 24.2263 15.6973 24.9772 12.8014C25.6738 10.1155 26.6173 8.51209 27.5014 8.51209C28.3857 8.51209 29.3293 10.1155 30.0256 12.8014C30.7765 15.6973 31.1901 19.5533 31.1901 23.6586C31.1901 27.764 30.7765 31.6196 30.0256 34.5157Z" fill="#3A312A"/>
<path d="M27.5015 12.9935C18.7943 12.9935 11.7104 17.7779 11.7104 23.6586C11.7104 29.5395 18.7943 34.3239 27.5015 34.3239C36.2087 34.3239 43.2925 29.5395 43.2925 23.6586C43.2925 17.7779 36.2087 12.9935 27.5015 12.9935ZM27.5015 33.6791C19.1496 33.6791 12.355 29.1839 12.355 23.6584C12.355 18.133 19.1496 13.6378 27.5015 13.6378C35.8533 13.6378 42.6479 18.133 42.6479 23.6584C42.6479 29.1839 35.8533 33.6791 27.5015 33.6791Z" fill="#3A312A"/>
<path d="M38.5204 20.5105C35.5731 19.7463 31.6598 19.3254 27.5015 19.3254C23.3432 19.3254 19.43 19.7463 16.4826 20.5105C14.3055 21.0749 11.7104 22.0793 11.7104 23.6586C11.7104 25.2379 14.3055 26.2421 16.4826 26.8067C19.43 27.5709 23.3432 27.9918 27.5015 27.9918C31.6598 27.9918 35.5731 27.5709 38.5204 26.8067C40.6974 26.2421 43.2925 25.2379 43.2925 23.6586C43.2925 22.0793 40.6974 21.0749 38.5204 20.5105ZM38.3588 26.1828C35.4629 26.9337 31.6069 27.3473 27.5017 27.3473C23.3964 27.3473 19.5404 26.9337 16.6446 26.1828C13.9588 25.4863 12.3552 24.5427 12.3552 23.6586C12.3552 22.7745 13.9586 21.8309 16.6446 21.1344C19.5404 20.3835 23.3964 19.97 27.5017 19.97C31.6069 19.97 35.4629 20.3835 38.3588 21.1344C41.0446 21.8309 42.6482 22.7745 42.6482 23.6586C42.6479 24.5427 41.0446 25.4863 38.3588 26.1828Z" fill="#3A312A"/>
<path d="M48.8813 47.8285H45.6587C46.9026 47.8285 47.9146 48.8404 47.9146 50.0844V51.0511H51.1372V50.0844C51.1372 48.8404 50.1253 47.8285 48.8813 47.8285Z" fill="#695B51"/>
<path d="M45.5215 45.2504H42.2988C43.4332 45.2504 44.3742 46.0926 44.5311 47.184H47.7537C47.5969 46.0926 46.6559 45.2504 45.5215 45.2504Z" fill="#695B51"/>
</svg>
