<svg width="56" height="56" viewBox="0 0 56 56" fill="none" xmlns="http://www.w3.org/2000/svg">
<path d="M10.3687 5.75465C10.1557 8.28428 7.51953 8.6835 7.51953 8.6835C9.78294 8.79025 10.3471 11.7591 10.3471 11.7591C10.3954 9.64228 13.2611 8.65244 13.2611 8.65244C11.1145 8.52403 10.3687 5.75465 10.3687 5.75465Z" fill="#D5DE58"/>
<path d="M13.2801 8.32475C11.398 8.21231 10.6921 5.6945 10.6851 5.66913C10.6433 5.51535 10.4969 5.41407 10.3388 5.42828C10.1802 5.44272 10.0549 5.56872 10.0415 5.72732C9.85338 7.96185 7.56679 8.34422 7.47032 8.35932C7.30342 8.38447 7.1831 8.53213 7.19185 8.70078C7.2006 8.86922 7.33557 9.00353 7.50423 9.01163C9.4791 9.1046 10.0196 11.7939 10.0247 11.821C10.0546 11.9766 10.1907 12.0873 10.3467 12.0873C10.3559 12.0873 10.365 12.087 10.3742 12.0862C10.5414 12.0722 10.6711 11.9346 10.675 11.7668C10.7174 9.90544 13.3418 8.97182 13.3685 8.96263C13.5161 8.91122 13.6074 8.76247 13.5859 8.6076C13.564 8.4525 13.4363 8.33416 13.2801 8.32475ZM10.3128 10.5879C10.0159 9.90303 9.50142 9.07682 8.6531 8.6461C9.29426 8.33897 10.0551 7.79013 10.4473 6.83638C10.7866 7.50816 11.3658 8.34138 12.2704 8.74431C11.6124 9.10328 10.7559 9.70813 10.3128 10.5879Z" fill="#3A312A"/>
<path d="M5.62206 9.46925C5.47134 11.2584 3.60693 11.5408 3.60693 11.5408C5.20775 11.6161 5.60675 13.7161 5.60675 13.7161C5.64087 12.2187 7.66781 11.5187 7.66781 11.5187C6.14925 11.4279 5.62206 9.46925 5.62206 9.46925Z" fill="#D5DE58"/>
<path d="M7.68729 11.1913C6.42598 11.1158 5.94341 9.40079 5.9386 9.3835C5.89704 9.22994 5.75266 9.12866 5.59254 9.14244C5.43373 9.15666 5.30838 9.28288 5.29504 9.44169C5.16838 10.9445 3.62248 11.2061 3.55773 11.2164C3.39082 11.2416 3.27051 11.3892 3.27926 11.5577C3.28801 11.7261 3.42298 11.8604 3.59141 11.8685C4.91179 11.9306 5.28104 13.7594 5.28432 13.7773C5.31385 13.9333 5.45035 14.0442 5.60632 14.0442C5.61551 14.0442 5.62448 14.044 5.63366 14.0431C5.80101 14.0291 5.93073 13.8913 5.93466 13.7235C5.9631 12.4747 7.75729 11.8348 7.77501 11.8287C7.9231 11.7775 8.01432 11.629 7.99288 11.4739C7.97145 11.319 7.8437 11.2007 7.68729 11.1913ZM5.59079 12.6777C5.38866 12.2651 5.07891 11.8143 4.61801 11.5227C5.02379 11.2949 5.42673 10.9476 5.68354 10.4473C5.91476 10.857 6.2641 11.3124 6.76438 11.59C6.3597 11.8307 5.89179 12.1894 5.59079 12.6777Z" fill="#3A312A"/>
<path d="M5.62206 3.63782C5.47134 5.42697 3.60693 5.7096 3.60693 5.7096C5.20775 5.78485 5.60675 7.88485 5.60675 7.88485C5.64087 6.38772 7.66781 5.6875 7.66781 5.6875C6.14925 5.5965 5.62206 3.63782 5.62206 3.63782Z" fill="#D5DE58"/>
<path d="M7.6878 5.35981C6.42627 5.28434 5.9437 3.56934 5.93911 3.55184C5.89755 3.39828 5.75317 3.297 5.59305 3.31078C5.43423 3.325 5.30889 3.45121 5.29555 3.61003C5.16889 5.11306 3.62298 5.37468 3.55823 5.38496C3.39133 5.41012 3.2708 5.55778 3.27977 5.72643C3.28852 5.89487 3.42349 6.02918 3.59214 6.03728C4.9123 6.0994 5.28155 7.92815 5.28505 7.94609C5.31458 8.10206 5.45108 8.21297 5.60705 8.21297C5.61623 8.21297 5.6252 8.21253 5.63439 8.21187C5.80173 8.19809 5.93145 8.06006 5.93539 7.89228C5.96383 6.64321 7.7578 6.00359 7.77573 5.99746C7.92361 5.94628 8.01505 5.79775 7.99361 5.64265C7.97173 5.48778 7.84398 5.36921 7.6878 5.35981ZM5.59108 6.84622C5.38895 6.43387 5.0792 5.98281 4.6183 5.69121C5.0243 5.4635 5.42702 5.1159 5.68383 4.61584C5.91505 5.02578 6.26461 5.48078 6.76467 5.75859C6.35998 5.99943 5.89208 6.35796 5.59108 6.84622Z" fill="#3A312A"/>
<path d="M3.60742 32.5443C3.60742 40.6512 10.1787 47.2246 18.2877 47.2246H18.4846V43.9106C12.3946 43.694 7.52523 38.6868 7.52523 32.5443C7.52523 26.4018 12.3946 21.3946 18.4846 21.1781V17.864H18.2877C10.1787 17.864 3.60742 24.4374 3.60742 32.5443ZM48.0924 22.1646C45.4368 19.5068 41.7662 17.864 37.7127 17.864H37.5159V21.1781C40.493 21.2831 43.1771 22.5343 45.1437 24.5009C47.2021 26.5593 48.4752 29.4031 48.4752 32.5443C48.4752 38.6868 43.6059 43.694 37.5159 43.9106V47.2246H37.7127C45.8196 47.2246 52.393 40.6512 52.393 32.5443C52.393 28.4909 50.7502 24.8202 48.0924 22.1646Z" fill="#F16C7A"/>
<path d="M18.4846 17.5359H18.2877C10.012 17.5359 3.2793 24.2686 3.2793 32.5443C3.2793 40.8201 10.012 47.5527 18.2877 47.5527H18.4846C18.666 47.5527 18.8127 47.406 18.8127 47.2246V43.9106C18.8127 43.7338 18.6727 43.589 18.4962 43.5827C12.5283 43.3705 7.85336 38.5219 7.85336 32.5443C7.85336 26.567 12.5283 21.7182 18.4962 21.506C18.6727 21.4996 18.8127 21.3548 18.8127 21.1781V17.864C18.8127 17.6827 18.6657 17.5359 18.4846 17.5359ZM18.1565 20.8655C11.9853 21.2472 7.19711 26.3176 7.19711 32.5443C7.19711 38.771 11.9853 43.8417 18.1565 44.2232V46.8961C10.3031 46.8252 3.93555 40.4143 3.93555 32.5445C3.93555 24.6748 10.3029 18.2637 18.1565 18.1928V20.8655ZM48.3245 21.9327C45.4917 19.0973 41.7231 17.5359 37.7127 17.5359H37.5159C37.3345 17.5359 37.1877 17.6827 37.1877 17.864V21.1781C37.1877 21.3548 37.3277 21.4998 37.5043 21.506C40.2986 21.6046 42.9293 22.7507 44.9116 24.7327C46.998 26.8192 48.1471 29.5934 48.1471 32.5441C48.1471 38.5217 43.4722 43.3702 37.5043 43.5824C37.3277 43.5888 37.1877 43.7336 37.1877 43.9103V47.2244C37.1877 47.4057 37.3345 47.5525 37.5159 47.5525H37.7127C45.9883 47.5525 52.7212 40.8198 52.7212 32.5441C52.7212 28.534 51.1595 24.7653 48.3245 21.9327ZM37.844 46.8958V44.2229C44.0151 43.8414 48.8034 38.771 48.8034 32.5441C48.8034 29.4179 47.586 26.479 45.3758 24.2686C43.3508 22.2434 40.6866 21.0422 37.844 20.8652V18.1926C41.6297 18.2262 45.1824 19.7162 47.8603 22.3965C47.8603 22.3965 47.8603 22.3967 47.8605 22.3967C50.5717 25.1057 52.0649 28.7094 52.0649 32.5443C52.0649 40.4141 45.6973 46.825 37.844 46.8958Z" fill="#3A312A"/>
<path d="M12.0317 41.2834C11.8504 41.2834 11.7036 41.4302 11.7036 41.6115V45.8268C11.7036 46.0082 11.8504 46.1549 12.0317 46.1549C12.2131 46.1549 12.3599 46.0082 12.3599 45.8268V41.6115C12.3599 41.4302 12.2129 41.2834 12.0317 41.2834Z" fill="#3A312A"/>
<path d="M12.0317 18.9337C11.8504 18.9337 11.7036 19.0805 11.7036 19.2618V23.4771C11.7036 23.6585 11.8504 23.8052 12.0317 23.8052C12.2131 23.8052 12.3599 23.6585 12.3599 23.4771V19.2618C12.3599 19.0805 12.2129 18.9337 12.0317 18.9337Z" fill="#3A312A"/>
<path d="M43.9688 41.2834C43.7874 41.2834 43.6406 41.4302 43.6406 41.6115V45.8268C43.6406 46.0082 43.7874 46.1549 43.9688 46.1549C44.1501 46.1549 44.2969 46.0082 44.2969 45.8268V41.6115C44.2969 41.4302 44.1499 41.2834 43.9688 41.2834Z" fill="#3A312A"/>
<path d="M43.9688 18.9337C43.7874 18.9337 43.6406 19.0805 43.6406 19.2618V23.4771C43.6406 23.6585 43.7874 23.8052 43.9688 23.8052C44.1501 23.8052 44.2969 23.6585 44.2969 23.4771V19.2618C44.2969 19.0805 44.1499 18.9337 43.9688 18.9337Z" fill="#3A312A"/>
<path d="M7.52768 32.4347H3.60986C3.42852 32.4347 3.28174 32.5815 3.28174 32.7628C3.28174 32.9442 3.42852 33.091 3.60986 33.091H7.52768C7.70902 33.091 7.8558 32.9442 7.8558 32.7628C7.8558 32.5815 7.7088 32.4347 7.52768 32.4347Z" fill="#3A312A"/>
<path d="M52.3905 32.4347H48.4727C48.2913 32.4347 48.1445 32.5815 48.1445 32.7628C48.1445 32.9442 48.2913 33.091 48.4727 33.091H52.3905C52.5718 33.091 52.7186 32.9442 52.7186 32.7628C52.7186 32.5815 52.5716 32.4347 52.3905 32.4347Z" fill="#3A312A"/>
<path d="M31.722 20.3663H29.7001V19.0523C29.1408 19.4399 28.5622 19.6687 28.0007 19.6687C27.4621 19.6687 26.8936 19.4377 26.3366 19.0453H26.3023V20.3663H24.2791C22.5888 20.3663 21.2188 21.7363 21.2188 23.4266V26.1999H34.7823V23.4266C34.7823 21.7363 33.4123 20.3663 31.722 20.3663Z" fill="#F8E4C8"/>
<path d="M31.722 20.0382H30.0282V19.0523C30.0282 18.9302 29.9604 18.8182 29.8524 18.7615C29.7443 18.7051 29.6137 18.713 29.5133 18.7825C28.9791 19.1529 28.4703 19.3406 28.0007 19.3406C27.5527 19.3406 27.0565 19.1509 26.5256 18.7771C26.4703 18.7381 26.4042 18.7171 26.3366 18.7171H26.3023C26.1209 18.7171 25.9742 18.8639 25.9742 19.0453V20.0382H24.2791C22.4107 20.0382 20.8906 21.5583 20.8906 23.4266V26.1999C20.8906 26.3813 21.0374 26.528 21.2187 26.528H34.7823C34.9637 26.528 35.1105 26.3813 35.1105 26.1999V23.4266C35.1105 21.5583 33.5904 20.0382 31.722 20.0382ZM34.4542 25.8718H21.5469V23.4266C21.5469 21.9201 22.7725 20.6944 24.2791 20.6944H26.3023C26.4836 20.6944 26.6304 20.5476 26.6304 20.3663V19.6138C27.5822 20.1259 28.4417 20.113 29.372 19.6335V20.3663C29.372 20.5476 29.5188 20.6944 29.7001 20.6944H31.722C33.2286 20.6944 34.4542 21.9201 34.4542 23.4266V25.8718Z" fill="#3A312A"/>
<path d="M31.7213 20.3658H31.177L31.1882 20.3739L29.0855 23.1641L28.0001 22.3458L26.9147 23.1641L24.8121 20.3739L24.8232 20.3658H24.279C22.5885 20.3658 21.2178 21.7365 21.2178 23.427V26.1999H34.7822V23.427C34.7822 21.7365 33.4115 20.3658 31.7213 20.3658Z" fill="#8AC6DD"/>
<path d="M31.7215 20.0377H31.1773C31.0489 20.0377 30.9382 20.1158 30.8855 20.2307L29.0213 22.7045L28.1979 22.0837C28.0811 21.9955 27.9199 21.9955 27.8029 22.0837L26.9797 22.7045L25.1313 20.2519C25.0838 20.1237 24.9613 20.0377 24.8237 20.0377H24.2794C22.4107 20.0377 20.8901 21.5583 20.8901 23.427V26.1997C20.8901 26.381 21.0369 26.5278 21.2183 26.5278H34.7827C34.9641 26.5278 35.1109 26.381 35.1109 26.1997V23.427C35.1106 21.558 33.5903 20.0377 31.7215 20.0377ZM34.4544 25.8716H21.5462V23.427C21.5462 21.9201 22.772 20.694 24.2792 20.694H24.6426L26.6529 23.3616C26.7052 23.4312 26.783 23.4769 26.8692 23.4892C26.955 23.501 27.0429 23.4787 27.1125 23.4262L28.0002 22.7566L28.8881 23.4262C28.9574 23.4784 29.0445 23.5007 29.1311 23.4892C29.2173 23.4771 29.2952 23.4312 29.3475 23.3616L31.358 20.694H31.7213C33.2283 20.694 34.4544 21.9201 34.4544 23.427V25.8716Z" fill="#3A312A"/>
<path d="M23.6973 23.6801C23.5159 23.6801 23.3691 23.8269 23.3691 24.0083V26.2004C23.3691 26.3817 23.5159 26.5285 23.6973 26.5285C23.8786 26.5285 24.0254 26.3817 24.0254 26.2004V24.0083C24.0254 23.8269 23.8786 23.6801 23.6973 23.6801Z" fill="#3A312A"/>
<path d="M32.3032 23.6801C32.1219 23.6801 31.9751 23.8269 31.9751 24.0083V26.2004C31.9751 26.3817 32.1219 26.5285 32.3032 26.5285C32.4846 26.5285 32.6313 26.3817 32.6313 26.2004V24.0083C32.6313 23.8269 32.4846 23.6801 32.3032 23.6801Z" fill="#3A312A"/>
<path d="M28.5212 24.1502H27.4789L27.1626 26.2006H28.8376L28.5212 24.1502Z" fill="#F16C7A"/>
<path d="M29.1622 26.1505L28.8458 24.1003C28.8211 23.9404 28.6835 23.8223 28.5217 23.8223H27.4793C27.3174 23.8223 27.1796 23.9404 27.1551 24.1003L26.8388 26.1505C26.8242 26.2452 26.8517 26.3414 26.9141 26.414C26.9764 26.4867 27.0674 26.5285 27.1632 26.5285H28.8382C28.934 26.5285 29.025 26.4867 29.0873 26.414C29.1492 26.3412 29.1766 26.2452 29.1622 26.1505ZM27.5454 25.8722L27.7604 24.4783H28.2401L28.4552 25.8722H27.5454Z" fill="#3A312A"/>
<path d="M27.124 22.3447L27.4764 24.1498H28.5166L28.8773 22.3447H27.124Z" fill="#F16C7A"/>
<path d="M29.1305 22.1364C29.0682 22.0605 28.975 22.0163 28.8768 22.0163H27.1235C27.0255 22.0163 26.9325 22.0601 26.8702 22.1358C26.8079 22.2115 26.7827 22.311 26.8015 22.4072L27.1539 24.2124C27.1839 24.3664 27.3189 24.4775 27.4759 24.4775H28.5161C28.6725 24.4775 28.8072 24.367 28.8379 24.2137L29.1986 22.4085C29.2178 22.3125 29.1929 22.2125 29.1305 22.1364ZM28.247 23.8217H27.7461L27.5219 22.6728H28.4765L28.247 23.8217Z" fill="#3A312A"/>
<path d="M24.8252 20.3787L25.9157 19.5571L28.0187 22.3484L26.9282 23.17L24.8252 20.3787Z" fill="#8AC6DD"/>
<path d="M28.2669 22.1449L26.1645 19.3552C26.0553 19.2104 25.8499 19.1815 25.7049 19.2907L24.6151 20.1121C24.5455 20.1644 24.4998 20.2423 24.4875 20.3284C24.4755 20.4146 24.498 20.5019 24.5505 20.5715L26.6532 23.3612C26.7055 23.4308 26.7833 23.4765 26.8695 23.4887C26.8846 23.4909 26.8999 23.492 26.915 23.492C26.9859 23.492 27.0552 23.469 27.1125 23.4259L28.2024 22.6045C28.347 22.4954 28.3758 22.2898 28.2669 22.1449ZM26.9795 22.7045L25.272 20.4387L25.8379 20.0124L27.5455 22.2782L26.9795 22.7045Z" fill="#3A312A"/>
<path d="M28.0078 22.3347L30.1107 19.5436L31.2012 20.3652L29.0983 23.1563L28.0078 22.3347Z" fill="#8AC6DD"/>
<path d="M31.5133 20.3284C31.5012 20.2423 31.4553 20.1644 31.386 20.1121L30.2961 19.2907C30.1513 19.1815 29.9457 19.2104 29.8366 19.3552L27.7341 22.1449C27.625 22.2898 27.6539 22.4954 27.7987 22.6045L28.8885 23.4259C28.9458 23.469 29.0151 23.492 29.086 23.492C29.1011 23.492 29.1164 23.4909 29.1315 23.4887C29.2177 23.4767 29.2956 23.4308 29.3479 23.3612L31.4505 20.5715C31.503 20.5021 31.5255 20.4146 31.5133 20.3284ZM29.0215 22.7045L28.4556 22.2782L30.1631 20.0124L30.7291 20.4387L29.0215 22.7045Z" fill="#3A312A"/>
<path fill-rule="evenodd" clip-rule="evenodd" d="M22.7452 11.5756C22.0802 11.5756 21.541 12.1148 21.541 12.7798C21.541 13.4448 22.0802 13.984 22.7452 13.984C23.4102 13.984 23.9495 13.4448 23.9495 12.7798C23.9495 12.1148 23.4102 11.5756 22.7452 11.5756Z" fill="#F8E4C8"/>
<path d="M22.7452 11.2475C21.9004 11.2475 21.2129 11.935 21.2129 12.7798C21.2129 13.6246 21.9004 14.3122 22.7452 14.3122C23.59 14.3122 24.2776 13.6246 24.2776 12.7798C24.2776 11.935 23.59 11.2475 22.7452 11.2475ZM22.7452 13.6559C22.2622 13.6559 21.8691 13.263 21.8691 12.7798C21.8691 12.2966 22.262 11.9037 22.7452 11.9037C23.2285 11.9037 23.6213 12.2966 23.6213 12.7798C23.6213 13.263 23.2282 13.6559 22.7452 13.6559Z" fill="#3A312A"/>
<path fill-rule="evenodd" clip-rule="evenodd" d="M33.256 11.5756C32.591 11.5756 32.0518 12.1148 32.0518 12.7798C32.0518 13.4448 32.591 13.984 33.256 13.984C33.921 13.984 34.4602 13.4448 34.4602 12.7798C34.4602 12.1148 33.921 11.5756 33.256 11.5756Z" fill="#F8E4C8"/>
<path d="M33.2555 11.2475C32.4107 11.2475 31.7231 11.935 31.7231 12.7798C31.7231 13.6246 32.4107 14.3122 33.2555 14.3122C34.1005 14.3122 34.7878 13.6246 34.7878 12.7798C34.7878 11.935 34.1005 11.2475 33.2555 11.2475ZM33.2555 13.6559C32.7723 13.6559 32.3794 13.263 32.3794 12.7798C32.3794 12.2966 32.7723 11.9037 33.2555 11.9037C33.7385 11.9037 34.1316 12.2966 34.1316 12.7798C34.1316 13.263 33.7387 13.6559 33.2555 13.6559Z" fill="#3A312A"/>
<path d="M33.5873 9.36185C33.5873 7.94238 33.0015 6.65394 32.0482 5.70369C32.106 5.86928 32.1366 6.03663 32.1366 6.20222C32.1366 6.76266 31.7507 7.27432 31.1152 7.66216C31.2471 7.88157 31.4116 8.0826 31.6046 8.25913C32.5712 9.14244 33.2098 10.3771 33.3215 11.76C33.3358 11.7408 33.3673 11.7305 33.3915 11.7215C33.6197 11.6382 33.5873 9.54472 33.5873 9.36185Z" fill="#87796F"/>
<path d="M33.9158 9.42528L33.9154 9.36184C33.9154 7.90431 33.3344 6.52268 32.2798 5.47115C32.1713 5.36309 32.0029 5.34449 31.8734 5.42587C31.7439 5.50724 31.6879 5.66759 31.7384 5.81196C31.7848 5.94453 31.8084 6.07578 31.8084 6.20199C31.8084 6.62287 31.5015 7.04178 30.9443 7.38193C30.7903 7.47599 30.7411 7.67659 30.8341 7.83124C30.9826 8.07821 31.1673 8.30374 31.3832 8.50128C32.3203 9.35746 32.8925 10.5241 32.9943 11.7862C33.0052 11.9225 33.0997 12.0378 33.2312 12.0754C33.2609 12.084 33.2913 12.0881 33.3213 12.0881C33.39 12.0881 33.4573 12.0665 33.5129 12.0264C33.7398 11.9433 33.9333 11.8405 33.9158 9.42528ZM33.2585 10.0776C32.9453 9.29993 32.4594 8.59599 31.8261 8.0174C31.7345 7.9334 31.65 7.84328 31.5735 7.74746C32.0018 7.42437 32.2851 7.04374 32.4028 6.63621C32.9597 7.4399 33.2594 8.38184 33.2594 9.36184L33.2598 9.43009C33.2613 9.67268 33.2607 9.88749 33.2585 10.0776Z" fill="#3A312A"/>
<path d="M31.6044 8.25825C31.4115 8.0826 31.247 7.88157 31.1151 7.66325C30.372 8.11804 29.2855 8.40547 28.0754 8.40547C27.7881 8.40547 27.5079 8.38929 27.2367 8.35779C25.2913 8.13641 23.4263 9.29688 22.8098 11.156C22.7499 11.3348 22.7083 11.5063 22.6891 11.6657C22.686 11.688 22.684 11.7103 22.6818 11.7327C22.6696 11.8849 22.6626 12.0393 22.6626 12.1958C22.6626 15.1432 25.6151 19.6694 28.0012 19.6694C30.5 19.6694 33.3387 15.1432 33.3387 12.1958C33.3385 10.6361 32.6704 9.23388 31.6044 8.25825Z" fill="#F8E4C8"/>
<path d="M31.8249 8.01565C31.6569 7.86274 31.5125 7.6873 31.3955 7.49371C31.3504 7.4189 31.2774 7.3653 31.1923 7.34452C31.1074 7.32396 31.0179 7.33796 30.9433 7.38346C30.2228 7.82446 29.1771 8.07734 28.0749 8.07734C27.8038 8.07734 27.5343 8.06202 27.2731 8.03184C25.167 7.79121 23.1578 9.06237 22.4983 11.0517C22.4298 11.2562 22.3843 11.4496 22.3635 11.6206C22.3596 11.648 22.3572 11.6756 22.3543 11.7066C22.3405 11.8772 22.334 12.0374 22.334 12.1957C22.334 15.2762 25.3733 19.9975 28.0005 19.9975C30.6817 19.9975 33.6661 15.3471 33.6661 12.1957C33.6663 10.6102 32.9954 9.08687 31.8249 8.01565ZM28.0007 19.3412C25.7894 19.3412 22.9905 14.9109 22.9905 12.1957C22.9905 12.0549 22.9964 11.912 23.0084 11.7624C23.0099 11.7451 23.0115 11.7281 23.0145 11.7051C23.0305 11.5723 23.0661 11.4227 23.121 11.2593C23.638 9.70002 25.1276 8.65899 26.7619 8.65899C26.9065 8.65899 27.0522 8.66709 27.1985 8.68371C27.4838 8.71674 27.7787 8.73359 28.0749 8.73359C29.1651 8.73359 30.2158 8.50346 31.0127 8.09615C31.1231 8.24162 31.247 8.37702 31.3826 8.5004C32.4168 9.44715 33.0101 10.794 33.0101 12.1957C33.0101 14.9522 30.2748 19.3412 28.0007 19.3412Z" fill="#3A312A"/>
<path d="M26.1158 11.6139C25.8281 11.6139 25.5947 11.8473 25.5947 12.1349C25.5947 12.4226 25.8279 12.656 26.1158 12.656C26.4037 12.656 26.6369 12.4228 26.6369 12.1349C26.6369 11.8471 26.4034 11.6139 26.1158 11.6139Z" fill="#3A312A"/>
<path d="M29.8848 11.6139C29.5972 11.6139 29.3638 11.8473 29.3638 12.1349C29.3638 12.4226 29.597 12.656 29.8848 12.656C30.1727 12.656 30.4059 12.4228 30.4059 12.1349C30.4059 11.8471 30.1727 11.6139 29.8848 11.6139Z" fill="#3A312A"/>
<path d="M25.0743 13.013C24.5786 13.013 24.1768 13.3133 24.1768 13.6839C24.1768 14.0545 24.5786 14.355 25.0743 14.355C25.57 14.355 25.9718 14.0547 25.9718 13.6839C25.9718 13.3133 25.57 13.013 25.0743 13.013Z" fill="#F59689"/>
<path d="M30.9268 13.013C30.4311 13.013 30.0293 13.3133 30.0293 13.6839C30.0293 14.0545 30.4311 14.355 30.9268 14.355C31.4225 14.355 31.8244 14.0547 31.8244 13.6839C31.8244 13.3133 31.4225 13.013 30.9268 13.013Z" fill="#F59689"/>
<path d="M29.5907 15.2998C29.4214 15.2364 29.232 15.3221 29.1683 15.4919C29.0622 15.7754 28.6634 16.1971 28.0006 16.1971C27.4338 16.1971 27.0591 15.9648 26.8218 15.4661C26.7441 15.3024 26.5483 15.2331 26.3845 15.3107C26.2209 15.3886 26.1513 15.5844 26.2292 15.748C26.5783 16.4813 27.1742 16.8534 28.0006 16.8534C28.934 16.8534 29.5789 16.2669 29.783 15.7222C29.8464 15.5527 29.7604 15.3635 29.5907 15.2998Z" fill="#3A312A"/>
<path d="M28.5059 3.55972C26.7003 3.44684 25.103 4.28181 24.3218 5.0365C23.143 6.00512 22.5366 7.75884 22.5366 9.36162C22.5366 9.65453 22.5882 11.3207 22.6819 11.7331C22.6972 11.555 22.7425 11.3606 22.8101 11.1558C23.4258 9.29731 25.2916 8.13641 27.2369 8.358C27.5073 8.38884 27.7877 8.40503 28.0752 8.40503C30.318 8.40503 32.1362 7.41891 32.1362 6.20244C32.136 4.98597 30.4748 3.68287 28.5059 3.55972Z" fill="#87796F"/>
<path d="M28.5264 3.23224C26.7084 3.11827 24.9989 3.93202 24.1033 4.79127C22.9341 5.75837 22.2085 7.50793 22.2085 9.3614C22.2085 9.5749 22.2555 11.3376 22.3618 11.8053C22.396 11.9556 22.5296 12.0608 22.6817 12.0608C22.6893 12.0608 22.6967 12.0606 22.7044 12.0601C22.8658 12.049 22.9949 11.9219 23.0089 11.7609C23.0214 11.6161 23.0592 11.4472 23.1218 11.2588C23.6842 9.56155 25.3981 8.47962 27.1999 8.68393C27.4854 8.71652 27.7798 8.73315 28.0754 8.73315C30.5365 8.73315 32.4644 7.62146 32.4644 6.20243C32.4642 4.75124 30.624 3.36327 28.5264 3.23224ZM28.0752 8.0769C27.8046 8.0769 27.5351 8.0618 27.2741 8.03205C25.4869 7.82796 23.7715 8.71062 22.8888 10.197C22.8733 9.8223 22.8647 9.49134 22.8647 9.36162C22.8647 7.71946 23.5184 6.12105 24.5301 5.29024C24.5369 5.28455 24.5434 5.27887 24.5498 5.27252C25.2892 4.5583 26.6723 3.87777 28.1784 3.87777C28.2801 3.87777 28.3827 3.88084 28.4853 3.88718C30.3565 4.00421 31.8079 5.22768 31.8079 6.20221C31.8079 7.21852 30.0986 8.0769 28.0752 8.0769Z" fill="#3A312A"/>
<path d="M28.5056 3.55972C26.7001 3.44684 25.1028 4.28181 24.3216 5.0365C23.1428 6.00513 22.6388 4.82584 22.1623 5.38191C21.5531 6.09263 23.076 8.358 27.2367 8.358C27.5088 8.358 27.7875 8.40503 28.0749 8.40503C30.3178 8.40503 32.136 7.41891 32.136 6.20244C32.1358 4.98597 30.4746 3.68287 28.5056 3.55972Z" fill="#87796F"/>
<path d="M28.5265 3.23225C26.7106 3.11981 24.9996 3.93181 24.1038 4.79084C23.5687 5.22637 23.2603 5.11744 22.9339 5.00216C22.6653 4.90744 22.2597 4.76416 21.9132 5.16819C21.6593 5.46437 21.6361 5.90056 21.8496 6.36497C22.3809 7.52019 24.2528 8.68591 27.2367 8.68591C27.3573 8.68591 27.4833 8.69641 27.6169 8.70778C27.7637 8.72003 27.9155 8.73294 28.075 8.73294C30.5361 8.73294 32.464 7.62125 32.464 6.20222C32.4642 4.75125 30.6241 3.36328 28.5265 3.23225ZM28.0752 8.07691C27.9433 8.07691 27.8116 8.06575 27.6723 8.05394C27.5309 8.04212 27.385 8.02987 27.2369 8.02987C24.1528 8.02987 22.7545 6.76156 22.4461 6.09087C22.3472 5.87584 22.3341 5.68619 22.4118 5.59541C22.4341 5.56937 22.4472 5.55406 22.4802 5.55406C22.5181 5.55406 22.5822 5.57397 22.7156 5.62122C23.0851 5.75159 23.7033 5.96947 24.5301 5.29025C24.5369 5.28456 24.5435 5.27887 24.5498 5.27253C25.3393 4.50997 26.8629 3.78481 28.4856 3.88741C30.3568 4.00444 31.8082 5.22791 31.8082 6.20244C31.8079 7.21853 30.0986 8.07691 28.0752 8.07691Z" fill="#3A312A"/>
<path d="M20.1069 28.4974H17.1912H15.4224V36.8099H23.7349V28.4974H20.1069Z" fill="#D5DE58"/>
<path d="M23.7349 28.1691H20.1071C19.9258 28.1691 19.779 28.3159 19.779 28.4972C19.779 28.6786 19.9258 28.8253 20.1071 28.8253H23.4067V36.4816H15.7505V28.8253H17.1914C17.3727 28.8253 17.5195 28.6786 17.5195 28.4972C17.5195 28.3159 17.3727 28.1691 17.1914 28.1691H15.4224C15.241 28.1691 15.0942 28.3159 15.0942 28.4972V36.8097C15.0942 36.9911 15.241 37.1378 15.4224 37.1378H23.7349C23.9162 37.1378 24.063 36.9911 24.063 36.8097V28.4972C24.0628 28.3161 23.916 28.1691 23.7349 28.1691Z" fill="#3A312A"/>
<path d="M23.7349 28.4974V36.8099H32.0474V34.2112V31.0857V28.4974H23.7349Z" fill="#D5DE58"/>
<path d="M32.0474 31.4136C32.2287 31.4136 32.3755 31.2668 32.3755 31.0855V28.4972C32.3755 28.3159 32.2287 28.1691 32.0474 28.1691H23.7349C23.5535 28.1691 23.4067 28.3159 23.4067 28.4972V36.8097C23.4067 36.9911 23.5535 37.1378 23.7349 37.1378H32.0474C32.2287 37.1378 32.3755 36.9911 32.3755 36.8097V34.2112C32.3755 34.0298 32.2287 33.8831 32.0474 33.8831C31.866 33.8831 31.7192 34.0298 31.7192 34.2112V36.4816H24.063V28.8253H31.7192V31.0855C31.7192 31.2668 31.866 31.4136 32.0474 31.4136Z" fill="#3A312A"/>
<path d="M32.0474 28.4974V31.0857V34.2112V36.8099H40.3599V28.4974H32.0474Z" fill="#D5DE58"/>
<path d="M40.3599 28.1691H32.0474C31.866 28.1691 31.7192 28.3159 31.7192 28.4972V31.0855C31.7192 31.2668 31.866 31.4136 32.0474 31.4136C32.2287 31.4136 32.3755 31.2668 32.3755 31.0855V28.8253H40.0317V36.4816H32.3755V34.2112C32.3755 34.0298 32.2287 33.8831 32.0474 33.8831C31.866 33.8831 31.7192 34.0298 31.7192 34.2112V36.8097C31.7192 36.9911 31.866 37.1378 32.0474 37.1378H40.3599C40.5412 37.1378 40.688 36.9911 40.688 36.8097V28.4972C40.688 28.3161 40.541 28.1691 40.3599 28.1691Z" fill="#3A312A"/>
<path d="M28.0005 52.4506C31.7457 52.4506 34.7817 49.4145 34.7817 45.6693C34.7817 41.9241 31.7457 38.8881 28.0005 38.8881C24.2553 38.8881 21.2192 41.9241 21.2192 45.6693C21.2192 49.4145 24.2553 52.4506 28.0005 52.4506Z" fill="#F8E4C8"/>
<path d="M28 38.5597C24.08 38.5597 20.8906 41.7491 20.8906 45.6691C20.8906 49.5891 24.08 52.7785 28 52.7785C31.92 52.7785 35.1094 49.5891 35.1094 45.6691C35.1094 41.7491 31.9202 38.5597 28 38.5597ZM28 52.1222C24.4418 52.1222 21.5469 49.2273 21.5469 45.6691C21.5469 42.1109 24.4418 39.216 28 39.216C31.5582 39.216 34.4531 42.1109 34.4531 45.6691C34.4531 49.2273 31.5584 52.1222 28 52.1222Z" fill="#3A312A"/>
<path d="M31.9756 45.9712C31.9756 44.8897 31.2135 43.9871 30.1972 43.7688C30.2332 43.6089 30.2538 43.4431 30.2538 43.2723C30.2538 42.0278 29.2449 41.0187 28.0002 41.0187C26.7558 41.0187 25.7467 42.0276 25.7467 43.2723C25.7467 43.4431 25.7672 43.6089 25.8033 43.7688C24.787 43.9871 24.0249 44.8897 24.0249 45.9712C24.0249 47.2157 25.0338 48.2248 26.2785 48.2248C26.7252 48.2248 27.1401 48.0931 27.4903 47.8691L26.0752 50.3199H29.925L28.5099 47.8691C28.8602 48.0933 29.2751 48.2248 29.7218 48.2248C30.9667 48.2245 31.9756 47.2157 31.9756 45.9712Z" fill="#87796F"/>
<path d="M32.3035 45.9712C32.3035 44.8683 31.5899 43.8885 30.5679 43.5328C30.5771 43.4453 30.5817 43.3584 30.5817 43.2725C30.5817 41.8488 29.4236 40.6908 28 40.6908C26.5764 40.6908 25.4186 41.8488 25.4186 43.2725C25.4186 43.3584 25.4232 43.4455 25.4323 43.5328C24.4103 43.8885 23.6968 44.8685 23.6968 45.9712C23.6968 47.3946 24.8548 48.5527 26.2785 48.5527C26.4342 48.5527 26.5891 48.5387 26.7409 48.5109L25.7913 50.1559C25.7327 50.2574 25.7327 50.3825 25.7913 50.484C25.8499 50.5855 25.9582 50.6481 26.0755 50.6481H29.9252C30.0425 50.6481 30.1508 50.5855 30.2094 50.484C30.268 50.3825 30.268 50.2574 30.2094 50.1559L29.2598 48.5109C29.4116 48.5387 29.5663 48.5527 29.7222 48.5527C31.1454 48.5527 32.3035 47.3946 32.3035 45.9712ZM28.2258 48.0329L29.3565 49.9916H26.6436L27.7743 48.0329C27.85 47.9019 27.8261 47.7361 27.7167 47.6315C27.6071 47.5269 27.4407 47.5108 27.3131 47.5926C27.0027 47.7914 26.6449 47.8964 26.2782 47.8964C25.2164 47.8964 24.3528 47.0328 24.3528 45.9712C24.3528 45.0699 24.9918 44.2787 25.872 44.0897C25.9578 44.0713 26.0324 44.0195 26.0796 43.9456C26.1269 43.8716 26.1426 43.7822 26.1234 43.6968C26.0912 43.5533 26.0748 43.4105 26.0748 43.2722C26.0748 42.2104 26.9384 41.3468 28 41.3468C29.0618 41.3468 29.9255 42.2107 29.9255 43.2722C29.9255 43.4105 29.9091 43.5533 29.8769 43.6968C29.8576 43.7824 29.8734 43.8718 29.9206 43.9456C29.9679 44.0193 30.0425 44.0711 30.1282 44.0897C31.0085 44.2787 31.6475 45.0699 31.6475 45.9712C31.6475 47.0328 30.7836 47.8964 29.722 47.8964C29.3556 47.8964 28.9975 47.7914 28.6871 47.5926C28.56 47.511 28.3931 47.5272 28.2835 47.6317C28.1739 47.7361 28.1501 47.9019 28.2258 48.0329Z" fill="#3A312A"/>
<path d="M36.7505 28.8247H40.0317V36.4809H36.7505V28.8247Z" fill="#B9C239"/>
</svg>
