<svg width="56" height="56" viewBox="0 0 56 56" fill="none" xmlns="http://www.w3.org/2000/svg">
<path d="M32.7141 12.0531C30.9964 12.1564 29.6984 13.6662 29.6984 15.3871V32.032H29.6078V10.95C29.6078 9.22906 28.3098 7.71925 26.5919 7.616C24.7266 7.504 23.179 8.98363 23.179 10.8246V32.0318H23.0884V7.03434C23.0884 5.31344 21.7903 3.80341 20.0725 3.70016C18.2072 3.58794 16.6596 5.06756 16.6596 6.90856V32.032H16.569V8.32431C16.569 6.60341 15.2709 5.09359 13.5531 4.99034C11.6878 4.87834 10.1404 6.35753 10.1404 8.19875V32.0318H10.0384V23.2908C10.0384 21.5701 8.74059 20.06 7.02275 19.9566C5.15747 19.8446 3.60938 21.3244 3.60938 23.1654V34.9801C3.60938 39.6347 6.21075 43.6809 10.0382 45.7463V52.3764H29.6982V45.7463C33.5258 43.6809 36.127 39.6344 36.127 34.9801V15.2615C36.1274 13.4203 34.5796 11.9409 32.7141 12.0531Z" fill="#FCE8CB"/>
<path d="M35.3412 12.682C34.6233 12.0057 33.6827 11.6659 32.6946 11.7257C31.533 11.7954 30.5287 12.446 29.9364 13.396V10.95C29.9364 9.00878 28.476 7.40053 26.612 7.28875C25.6252 7.22968 24.6837 7.56896 23.9656 8.24534C23.7552 8.44353 23.5712 8.666 23.417 8.90618V7.03434C23.417 5.09315 21.9568 3.48468 20.0926 3.37268C19.1047 3.31275 18.1643 3.6529 17.4462 4.32906C16.8637 4.87768 16.4854 5.61137 16.3695 6.39559C15.7826 5.41165 14.7597 4.73418 13.573 4.66309C12.5845 4.60293 11.6447 4.94331 10.9266 5.61968C10.2185 6.28643 9.81247 7.22662 9.81247 8.19896V11.5406C9.81247 11.7219 9.95925 11.8687 10.1406 11.8687C10.3219 11.8687 10.4687 11.7219 10.4687 11.5406V8.19875C10.4687 7.39484 10.7912 6.64846 11.3765 6.09721C11.9615 5.54618 12.7297 5.27056 13.5336 5.31781C15.0517 5.40903 16.2411 6.72962 16.2411 8.32431V32.0318C16.2411 32.2131 16.3879 32.3599 16.5692 32.3599H16.6598C16.8411 32.3599 16.9879 32.2131 16.9879 32.0318V6.90856C16.9879 6.10465 17.3103 5.35828 17.8959 4.80681C18.4811 4.256 19.2478 3.97971 20.053 4.02762C21.5712 4.11884 22.7605 5.43965 22.7605 7.03434V32.032C22.7605 32.2133 22.9073 32.3601 23.0886 32.3601H23.1792C23.3605 32.3601 23.5073 32.2133 23.5073 32.032V10.8246C23.5073 10.0207 23.8297 9.27456 24.4153 8.72309C25.0003 8.17228 25.7657 7.89731 26.5727 7.94368C28.0908 8.0349 29.2801 9.35528 29.2801 10.95V32.032C29.2801 32.2133 29.4271 32.3601 29.6082 32.3601H29.6986C29.8797 32.3601 30.0267 32.2133 30.0267 32.032V15.3871C30.0267 13.7924 31.2161 12.472 32.734 12.3806C33.5412 12.3316 34.3063 12.6087 34.8915 13.1598C35.4771 13.7112 35.7993 14.4576 35.7993 15.2613V34.9799C35.7993 39.3601 33.4018 43.3748 29.5426 45.4571C29.4365 45.5144 29.3703 45.6253 29.3703 45.7459V52.0481H10.3668V45.7459C10.3668 45.6253 10.3007 45.5144 10.1944 45.4571C6.335 43.3746 3.93772 39.3599 3.93772 34.9799V23.1652C3.93772 22.3613 4.26038 21.6149 4.84575 21.0634C5.43091 20.5124 6.19872 20.2357 7.00306 20.284C8.52119 20.3755 9.71031 21.6961 9.71031 23.2907V32.0316C9.71031 32.2129 9.85709 32.3597 10.0384 32.3597H10.1402C10.3215 32.3597 10.4683 32.2129 10.4683 32.0316V14.6606C10.4683 14.4793 10.3215 14.3325 10.1402 14.3325C9.95881 14.3325 9.81203 14.4793 9.81203 14.6606V21.3185C9.22119 20.3584 8.21122 19.6997 7.04244 19.6295C6.05237 19.5689 5.11394 19.9097 4.39556 20.5861C3.68747 21.2529 3.28125 22.1931 3.28125 23.1654V34.9801C3.28125 39.5364 5.73934 43.7176 9.71031 45.9403V52.3764C9.71031 52.5578 9.85709 52.7045 10.0384 52.7045H29.6984C29.8795 52.7045 30.0265 52.5578 30.0265 52.3764V45.9403C33.9972 43.7176 36.4556 39.5364 36.4556 34.9801V15.2615C36.4556 14.289 36.0496 13.3488 35.3412 12.682Z" fill="#3A312A"/>
<path d="M48.7706 5.73016C48.5575 8.25979 45.9214 8.65901 45.9214 8.65901C48.1848 8.76554 48.7487 11.7344 48.7487 11.7344C48.7971 9.61757 51.6627 8.62773 51.6627 8.62773C49.5161 8.49932 48.7706 5.73016 48.7706 5.73016Z" fill="#D5DE58"/>
<path d="M51.6824 8.30024C49.8003 8.1878 49.0939 5.66999 49.0871 5.64462C49.0454 5.49105 48.9008 5.39043 48.7406 5.40355C48.5821 5.41799 48.4567 5.54399 48.4434 5.70258C48.2555 7.93711 45.9686 8.31949 45.8722 8.33458C45.7053 8.35974 45.585 8.50739 45.5937 8.67605C45.6025 8.84449 45.7374 8.9788 45.9061 8.98689C47.881 9.07986 48.4215 11.7692 48.4265 11.7963C48.4567 11.9518 48.5928 12.0625 48.7487 12.0625C48.7579 12.0625 48.7671 12.0623 48.7763 12.0614C48.9436 12.0474 49.0731 11.9098 49.0771 11.7423C49.1193 9.88093 51.7439 8.9473 51.7705 8.93811C51.9184 8.88671 52.0094 8.73818 51.988 8.58308C51.9661 8.42799 51.8386 8.30964 51.6824 8.30024ZM48.7146 10.5634C48.4178 9.87874 47.9033 9.0523 47.055 8.62158C47.6961 8.31446 48.4567 7.76561 48.8489 6.81208C49.1884 7.48386 49.7677 8.31708 50.6722 8.72002C50.0144 9.07877 49.158 9.68383 48.7146 10.5634Z" fill="#3A312A"/>
<path d="M44.0239 9.44476C43.8732 11.2339 42.0088 11.5163 42.0088 11.5163C43.6096 11.5916 44.0086 13.6916 44.0086 13.6916C44.0427 12.1945 46.0697 11.4942 46.0697 11.4942C44.5513 11.4035 44.0239 9.44476 44.0239 9.44476Z" fill="#D5DE58"/>
<path d="M46.0891 11.1665C44.8278 11.0911 44.3453 9.37606 44.3405 9.35878C44.2991 9.20522 44.1521 9.10416 43.9946 9.11772C43.8358 9.13194 43.7102 9.25837 43.6969 9.41697C43.5705 10.9198 42.0243 11.1814 41.9596 11.1917C41.7927 11.2168 41.6724 11.3645 41.6811 11.5332C41.6899 11.7016 41.8248 11.8359 41.9935 11.844C43.3136 11.9061 43.6831 13.7349 43.6864 13.7528C43.7161 13.9086 43.8524 14.0197 44.0086 14.0197C44.0176 14.0197 44.0268 14.0195 44.036 14.0186C44.2033 14.0048 44.333 13.8668 44.3369 13.699C44.3654 12.4502 46.1594 11.8103 46.1771 11.8042C46.3249 11.753 46.4162 11.6045 46.3949 11.4494C46.3733 11.2945 46.2453 11.1759 46.0891 11.1665ZM43.9924 12.6532C43.7903 12.2406 43.4805 11.7897 43.0196 11.4982C43.4259 11.2702 43.8286 10.9228 44.0852 10.4226C44.3166 10.8325 44.6657 11.2877 45.166 11.5653C44.7615 11.8062 44.2934 12.1647 43.9924 12.6532Z" fill="#3A312A"/>
<path d="M44.0239 3.61331C43.8732 5.40247 42.0088 5.68509 42.0088 5.68509C43.6096 5.76034 44.0086 7.86034 44.0086 7.86034C44.0427 6.363 46.0697 5.66278 46.0697 5.66278C44.5513 5.572 44.0239 3.61331 44.0239 3.61331Z" fill="#D5DE58"/>
<path d="M46.0891 5.33532C44.8278 5.25985 44.3453 3.54464 44.3405 3.52735C44.2991 3.37379 44.1521 3.27295 43.9946 3.28629C43.8358 3.30051 43.7102 3.42695 43.6969 3.58554C43.5705 5.08857 42.0243 5.3502 41.9596 5.36048C41.7927 5.38563 41.6724 5.53329 41.6811 5.70195C41.6899 5.87038 41.8248 6.0047 41.9935 6.01279C43.3136 6.07492 43.6831 7.90366 43.6864 7.9216C43.7161 8.07757 43.8524 8.18848 44.0086 8.18848C44.0176 8.18848 44.0268 8.18826 44.036 8.18738C44.2033 8.1736 44.333 8.03557 44.3369 7.86779C44.3654 6.61895 46.1594 5.9791 46.1771 5.97298C46.3249 5.92179 46.4162 5.77326 46.3949 5.61817C46.3733 5.46329 46.2453 5.34473 46.0891 5.33532ZM43.9924 6.82173C43.7903 6.40938 43.4805 5.95832 43.0196 5.66673C43.4259 5.43901 43.8286 5.09142 44.0852 4.59135C44.3166 5.00129 44.6657 5.45629 45.166 5.73388C44.7615 5.97473 44.2934 6.33348 43.9924 6.82173Z" fill="#3A312A"/>
<path d="M51.7021 33.9596L41.6849 23.9442C40.7668 23.0261 39.2784 23.0263 38.3606 23.9444L23.9495 38.3585C23.0317 39.2766 23.0319 40.7649 23.9497 41.6828L33.967 51.6983C34.8851 52.6162 36.3734 52.6162 37.2913 51.6981L51.7023 37.284C52.6202 36.3659 52.62 34.8775 51.7021 33.9596Z" fill="#87796F"/>
<path d="M51.9341 33.7277L41.9169 23.7123C41.4109 23.2063 40.7383 22.9278 40.0227 22.9278C39.307 22.9278 38.6343 23.2065 38.1288 23.7127L23.7175 38.1268C23.2116 38.6328 22.9331 39.3054 22.9331 40.021C22.9331 40.7365 23.212 41.4092 23.7178 41.9151L33.7348 51.9308C34.2571 52.453 34.9429 52.7139 35.6289 52.7139C36.3149 52.7139 37.0009 52.4527 37.5231 51.9304L51.9341 37.5163C52.9789 36.4715 52.9784 34.7721 51.9341 33.7277ZM51.4704 37.0519L37.0593 51.466C36.2705 52.2546 34.9875 52.2546 34.199 51.4662L24.1819 41.4507C23.8 41.0686 23.5896 40.5608 23.5896 40.0205C23.5896 39.4802 23.7998 38.9723 24.1817 38.5903L38.593 24.1762C38.9749 23.7941 39.4826 23.5839 40.023 23.5837C40.5633 23.5837 41.0712 23.7939 41.4531 24.176L51.4704 34.1915C52.2587 34.9803 52.2587 36.2633 51.4704 37.0519Z" fill="#3A312A"/>
<path d="M37.5853 23.982C37.5851 22.6837 36.5327 21.6315 35.2344 21.6315L21.0692 21.6326C19.7709 21.6326 18.7185 22.6852 18.7188 23.9835L18.7207 44.366C18.7209 45.6643 19.7733 46.7165 21.0716 46.7165L23.8703 46.7162L26.8913 46.716L35.2368 46.7154C36.5351 46.7154 37.5875 45.6627 37.5872 44.3645L37.5853 23.982Z" fill="#F16C7A"/>
<path d="M37.9134 23.982C37.9132 22.505 36.7114 21.3034 35.2344 21.3034L21.0692 21.3045C20.3535 21.3045 19.681 21.5832 19.1751 22.0892C18.6691 22.5951 18.3906 23.268 18.3906 23.9835L18.3928 44.366C18.3928 45.0815 18.6715 45.7542 19.1775 46.2602C19.6834 46.7661 20.3561 47.0446 21.0716 47.0446L23.8703 47.0444C24.0517 47.0444 24.1984 46.8974 24.1984 46.7162C24.1984 46.5349 24.0514 46.3881 23.8703 46.3881L21.0716 46.3883C20.5313 46.3883 20.0234 46.1781 19.6414 45.796C19.2593 45.414 19.0488 44.9061 19.0488 44.3658L19.0467 23.9833C19.0467 23.443 19.2569 22.9351 19.639 22.5529C20.021 22.1707 20.5289 21.9605 21.0692 21.9605L35.2344 21.9594C36.3496 21.9594 37.2569 22.8666 37.2572 23.9818L37.2593 44.3642C37.2593 44.9046 37.0491 45.4125 36.6672 45.7947C36.285 46.1766 35.7773 46.387 35.237 46.387L26.8912 46.3877C26.7099 46.3877 26.5631 46.5347 26.5631 46.7158C26.5631 46.8972 26.7101 47.0439 26.8912 47.0439L35.237 47.0433C35.9525 47.0433 36.6254 46.7646 37.1312 46.2586C37.6371 45.7527 37.9158 45.0798 37.9156 44.3642L37.9134 23.982Z" fill="#3A312A"/>
<path d="M34.2198 34.2547C34.2196 31.8692 31.1825 29.1946 28.5562 27.8305C28.3064 27.7005 27.9988 27.7005 27.7488 27.8305C25.1229 29.195 22.0862 31.8701 22.0864 34.2558C22.0866 36.5634 24.2558 38.5405 27.3032 37.3341L25.2154 40.6157L31.0919 40.6153L29.0035 37.3341C32.0514 38.5396 34.22 36.5623 34.2198 34.2547Z" fill="#87796F"/>
<path d="M28.7073 27.5393C28.365 27.3615 27.9397 27.3615 27.5974 27.5393C24.6957 29.0474 21.7581 31.8384 21.7583 34.2558C21.7585 35.53 22.3636 36.7017 23.3768 37.3903C24.2682 37.9962 25.371 38.1723 26.5476 37.9107L24.9387 40.4397C24.8744 40.5407 24.8702 40.6687 24.928 40.7737C24.9857 40.8785 25.096 40.9439 25.2156 40.9439L31.0921 40.9434C31.212 40.9434 31.3223 40.8783 31.3798 40.7732C31.4373 40.6683 31.4332 40.5403 31.3689 40.4392L29.7595 37.9105C30.9357 38.1719 32.0389 37.9953 32.9301 37.3896C33.9431 36.7008 34.548 35.5289 34.5477 34.2549C34.5477 31.8375 31.6095 29.0467 28.7073 27.5393ZM32.5613 36.8465C31.6364 37.4752 30.4164 37.5399 29.1245 37.0287C28.9928 36.9771 28.8416 37.0151 28.7509 37.1249C28.6603 37.2345 28.6507 37.3901 28.727 37.5099L30.4945 40.287L25.8135 40.2872L27.5803 37.5099C27.6567 37.3901 27.647 37.2345 27.5565 37.1247C27.4928 37.0477 27.3994 37.0057 27.3034 37.0057C27.2629 37.0057 27.222 37.0132 27.1826 37.0287C25.8911 37.5399 24.6705 37.4756 23.7459 36.8471C22.9124 36.281 22.415 35.3119 22.4148 34.2556C22.4146 32.1228 25.2408 29.5035 27.9004 28.1214C28.0561 28.0405 28.2497 28.0405 28.4052 28.1214C31.0648 29.503 33.8917 32.1221 33.8919 34.2545C33.8917 35.3113 33.3943 36.2801 32.5613 36.8465Z" fill="#3A312A"/>
<path d="M51.4691 34.1924L41.4525 24.1758C41.0719 23.7952 40.5622 23.583 40.0219 23.583C39.4816 23.583 38.9741 23.7952 38.5935 24.1758L38.3835 24.388L48.1878 34.1924C48.9775 34.9799 48.9775 36.2639 48.19 37.0514L33.9888 51.2571L34.1988 51.4671C34.9885 52.2546 36.2703 52.2546 37.06 51.4671L51.4713 37.0514C52.2588 36.2639 52.2588 34.9799 51.4691 34.1924Z" fill="#695B51"/>
</svg>
