<svg width="56" height="56" viewBox="0 0 56 56" fill="none" xmlns="http://www.w3.org/2000/svg">
<path d="M49.5752 9.32532C49.2296 9.32532 48.8971 9.26407 48.5908 9.15032V32.1278H46.353V34.3153H49.6846C50.2883 34.3153 50.7783 33.8253 50.7783 33.2216V9.05844C50.413 9.23125 50.0062 9.32532 49.5752 9.32532Z" fill="#EF6D7A"/>
<path d="M50.9538 8.78128C50.8588 8.7209 50.7394 8.7139 50.6379 8.76181C50.0429 9.04356 49.3241 9.07287 48.705 8.84275C48.6044 8.80534 48.4915 8.81956 48.4034 8.88103C48.3152 8.94228 48.2627 9.0429 48.2627 9.15053V31.7999H46.353C46.1717 31.7999 46.0249 31.9467 46.0249 32.128V34.3155C46.0249 34.4969 46.1717 34.6437 46.353 34.6437H49.6846C50.4686 34.6437 51.1065 34.0058 51.1065 33.2218V9.05843C51.1065 8.946 51.0489 8.84143 50.9538 8.78128ZM50.4502 33.2216C50.4502 33.6438 50.1068 33.9872 49.6846 33.9872H46.6812V32.4559H48.5908C48.7722 32.4559 48.919 32.3092 48.919 32.1278V9.58584C49.4219 9.6915 49.9613 9.67247 50.4502 9.53203V33.2216Z" fill="#3A312A"/>
<path d="M10.3941 5.75465C10.1811 8.28428 7.54492 8.6835 7.54492 8.6835C9.80833 8.79003 10.3723 11.7589 10.3723 11.7589C10.4206 9.64206 13.2862 8.65222 13.2862 8.65222C11.1396 8.52403 10.3941 5.75465 10.3941 5.75465Z" fill="#D6DF58"/>
<path d="M13.306 8.32475C11.4239 8.21232 10.718 5.69451 10.711 5.66913C10.6692 5.51535 10.5226 5.41385 10.3647 5.42807C10.2061 5.44251 10.0807 5.56851 10.0674 5.7271C9.87927 7.96163 7.59245 8.34401 7.4962 8.3591C7.3293 8.38425 7.20898 8.53191 7.21773 8.70035C7.22648 8.86879 7.36145 9.0031 7.53011 9.01119C9.50498 9.10416 10.0455 11.7933 10.0505 11.8204C10.0805 11.9759 10.2166 12.0866 10.3725 12.0866C10.3817 12.0866 10.3909 12.0864 10.4001 12.0855C10.5672 12.0715 10.697 11.9339 10.7009 11.7661C10.7433 9.905 13.3677 8.97116 13.3944 8.96197C13.542 8.91057 13.6332 8.76182 13.6118 8.60694C13.5899 8.4525 13.4622 8.33416 13.306 8.32475ZM10.3386 10.5879C10.0418 9.90325 9.5273 9.07704 8.67898 8.6461C9.32014 8.33897 10.081 7.79013 10.4732 6.8366C10.8125 7.50838 11.3917 8.3416 12.2962 8.74454C11.6382 9.10329 10.7818 9.70835 10.3386 10.5879Z" fill="#3A312A"/>
<path d="M5.64745 9.46925C5.49673 11.2584 3.63232 11.541 3.63232 11.541C5.23314 11.6163 5.63214 13.7163 5.63214 13.7163C5.66626 12.2192 7.6932 11.5189 7.6932 11.5189C6.17486 11.4279 5.64745 9.46925 5.64745 9.46925Z" fill="#D6DF58"/>
<path d="M7.71317 11.1913C6.45185 11.1158 5.96929 9.40079 5.96448 9.3835C5.92292 9.22994 5.77723 9.12866 5.61842 9.14244C5.4596 9.15666 5.33426 9.28288 5.32092 9.44169C5.19426 10.9445 3.64835 11.2061 3.5836 11.2164C3.4167 11.2416 3.29639 11.3892 3.30514 11.5577C3.31389 11.7261 3.44885 11.8604 3.61729 11.8685C4.93767 11.9306 5.30692 13.7594 5.3102 13.7773C5.33973 13.9333 5.47623 14.0442 5.6322 14.0442C5.64139 14.0442 5.65035 14.044 5.65954 14.0431C5.82689 14.0293 5.9566 13.8913 5.96054 13.7235C5.98898 12.4747 7.78317 11.8348 7.80089 11.8287C7.94898 11.7775 8.0402 11.629 8.01876 11.4739C7.99732 11.319 7.86957 11.2007 7.71317 11.1913ZM5.61645 12.6777C5.41432 12.2651 5.10457 11.8143 4.64367 11.5227C5.04945 11.2949 5.45239 10.9476 5.7092 10.4473C5.94042 10.8572 6.28976 11.3124 6.79004 11.59C6.38557 11.8307 5.91745 12.1894 5.61645 12.6777Z" fill="#3A312A"/>
<path d="M5.64745 3.63782C5.49673 5.42697 3.63232 5.7096 3.63232 5.7096C5.23314 5.78485 5.63214 7.88485 5.63214 7.88485C5.66626 6.38772 7.6932 5.6875 7.6932 5.6875C6.17486 5.5965 5.64745 3.63782 5.64745 3.63782Z" fill="#D6DF58"/>
<path d="M7.71318 5.35981C6.45165 5.28434 5.96909 3.56934 5.9645 3.55184C5.92294 3.39828 5.77725 3.29678 5.61844 3.31078C5.45962 3.325 5.33428 3.45122 5.32094 3.61003C5.19428 5.11306 3.64838 5.37469 3.58363 5.38497C3.41672 5.41013 3.29619 5.55778 3.30516 5.72622C3.31391 5.89466 3.44888 6.02897 3.61753 6.03706C4.93769 6.09919 5.30694 7.92794 5.31044 7.94588C5.33997 8.10184 5.47647 8.21275 5.63244 8.21275C5.64162 8.21275 5.65059 8.21231 5.65978 8.21166C5.82712 8.19788 5.95684 8.05984 5.96078 7.89206C5.98922 6.64322 7.78318 6.00338 7.80112 5.99725C7.949 5.94606 8.04043 5.79753 8.019 5.64244C7.99734 5.48778 7.86959 5.36922 7.71318 5.35981ZM5.61647 6.84622C5.41434 6.43388 5.10459 5.98281 4.64369 5.69122C5.04969 5.4635 5.45241 5.11591 5.70922 4.61584C5.94044 5.02556 6.29 5.48078 6.79006 5.75859C6.38559 5.99944 5.91747 6.35797 5.61647 6.84622Z" fill="#3A312A"/>
<path d="M42.0035 14.0809H7.92949C6.65199 14.0809 5.61621 15.1165 5.61621 16.3942V50.0489C5.61621 51.3264 6.65177 52.3622 7.92949 52.3622H42.0035C43.281 52.3622 44.3168 51.3266 44.3168 50.0489V16.394C44.3168 15.1165 43.281 14.0809 42.0035 14.0809Z" fill="#87796F"/>
<path d="M42.0033 13.7528H7.92949C6.47306 13.7528 5.28809 14.9378 5.28809 16.3942V18.7108C5.28809 18.8921 5.43487 19.0389 5.61621 19.0389C5.79755 19.0389 5.94434 18.8921 5.94434 18.7108V16.3942C5.94434 15.2996 6.83487 14.4091 7.92949 14.4091H42.0035C43.0982 14.4091 43.9887 15.2996 43.9887 16.3942V50.0491C43.9887 51.1438 43.0982 52.0343 42.0035 52.0343H7.92949C6.83487 52.0343 5.94434 51.1438 5.94434 50.0491V21.831C5.94434 21.6497 5.79755 21.5029 5.61621 21.5029C5.43487 21.5029 5.28809 21.6497 5.28809 21.831V50.0489C5.28809 51.5054 6.47306 52.6903 7.92949 52.6903H42.0035C43.46 52.6903 44.6449 51.5054 44.6449 50.0489V16.394C44.6447 14.9376 43.4597 13.7528 42.0033 13.7528Z" fill="#3A312A"/>
<path d="M44.0388 24.8137H5.89385C4.61635 24.8137 3.58057 25.8493 3.58057 27.127V39.3162C3.58057 40.5936 4.61635 41.6294 5.89385 41.6294H44.0388C45.3163 41.6294 46.3521 40.5939 46.3521 39.3162V27.127C46.3521 25.8493 45.3165 24.8137 44.0388 24.8137Z" fill="#FAE6CA"/>
<path d="M44.0388 24.4856H37.5603C37.379 24.4856 37.2322 24.6323 37.2322 24.8137C37.2322 24.995 37.379 25.1418 37.5603 25.1418H44.0388C45.1334 25.1418 46.024 26.0323 46.024 27.127V39.3162C46.024 40.4108 45.1334 41.3013 44.0388 41.3013H5.89385C4.79922 41.3013 3.90869 40.4108 3.90869 39.3162V27.127C3.90869 26.0323 4.79922 25.1418 5.89385 25.1418H34.5545C34.7358 25.1418 34.8826 24.995 34.8826 24.8137C34.8826 24.6323 34.7358 24.4856 34.5545 24.4856H5.89385C4.43741 24.4856 3.25244 25.6705 3.25244 27.127V39.3162C3.25244 40.7726 4.43741 41.9576 5.89385 41.9576H44.0388C45.4953 41.9576 46.6802 40.7726 46.6802 39.3162V27.127C46.6802 25.6705 45.4955 24.4856 44.0388 24.4856Z" fill="#3A312A"/>
<path d="M6.20605 28.3087V30.7678H11.3819C10.319 32.088 9.54221 33.3272 9.05134 34.4853C8.56046 35.6433 8.20062 37.0779 7.97181 38.7887H10.8744C10.9696 37.5592 11.1555 36.4941 11.432 35.5932C11.7798 34.4352 12.2541 33.3843 12.8545 32.4406C13.3502 31.6638 13.9673 30.9417 14.706 30.2746V28.3087H6.20605Z" fill="#EF6D7A"/>
<path d="M14.706 27.9805H6.20605C6.02471 27.9805 5.87793 28.1273 5.87793 28.3087V30.7678C5.87793 30.9492 6.02471 31.096 6.20605 31.096H10.7086C9.84059 32.2396 9.18259 33.3344 8.74902 34.3571C8.24896 35.5366 7.87796 37.0129 7.64652 38.7452C7.63406 38.8391 7.66249 38.9336 7.72484 39.0047C7.78718 39.076 7.87709 39.1167 7.97181 39.1167H10.8742C11.0457 39.1167 11.1881 38.9848 11.2014 38.8139C11.2944 37.6141 11.4775 36.5628 11.7461 35.6875C12.0836 34.5638 12.5496 33.5307 13.131 32.6169C13.6083 31.8688 14.2121 31.1625 14.9259 30.5178C14.9948 30.4555 15.0341 30.3671 15.0341 30.2743V28.3084C15.0341 28.1273 14.8871 27.9805 14.706 27.9805ZM14.3779 30.13C13.6676 30.7873 13.0623 31.5048 12.5778 32.2645C11.9638 33.2292 11.4727 34.3175 11.1185 35.497C10.8593 36.3414 10.6762 37.3371 10.5732 38.4606H8.34959C8.5749 36.9473 8.91199 35.6543 9.35343 34.6133C9.8303 33.4882 10.5988 32.2637 11.6376 30.9737C11.7168 30.8752 11.7326 30.7401 11.6781 30.6263C11.6234 30.5123 11.5086 30.4397 11.3821 30.4397H6.53418V28.6368H14.3779V30.13Z" fill="#3A312A"/>
<path d="M20.7168 28.3087V30.7678H25.8924C24.8297 32.088 24.0527 33.3272 23.5621 34.4853C23.0712 35.6433 22.7114 37.0779 22.4825 38.7887H25.3849C25.4803 37.5592 25.666 36.4941 25.9425 35.5932C26.2906 34.4352 26.7648 33.3843 27.3653 32.4406C27.861 31.6638 28.4781 30.9417 29.2168 30.2746V28.3087H20.7168Z" fill="#EF6D7A"/>
<path d="M29.2165 27.9805H20.7168C20.5355 27.9805 20.3887 28.1273 20.3887 28.3087V30.7678C20.3887 30.9492 20.5355 31.096 20.7168 31.096H25.2193C24.3511 32.2403 23.6931 33.3349 23.26 34.3571C22.7599 35.5366 22.3889 37.0129 22.1573 38.7452C22.1448 38.8391 22.1732 38.9336 22.2356 39.0047C22.2979 39.076 22.3878 39.1167 22.4825 39.1167H25.3849C25.5564 39.1167 25.6988 38.9848 25.7122 38.8139C25.8051 37.6141 25.9882 36.5628 26.2569 35.6875C26.5946 34.5636 27.0608 33.5304 27.642 32.6169C28.1193 31.8688 28.723 31.1625 29.4368 30.5178C29.5057 30.4555 29.5451 30.3671 29.5451 30.2743V28.3084C29.5447 28.1273 29.3979 27.9805 29.2165 27.9805ZM28.8884 30.13C28.1781 30.7873 27.5729 31.5048 27.0883 32.2645C26.4745 33.229 25.9832 34.3171 25.6288 35.497C25.3696 36.3414 25.1865 37.3371 25.0835 38.4606H22.8603C23.0856 36.9473 23.4227 35.6543 23.8642 34.6133C24.3406 33.4889 25.1089 32.2643 26.1479 30.9735C26.2271 30.875 26.2429 30.7401 26.1884 30.6261C26.1337 30.5121 26.0189 30.4397 25.8924 30.4397H21.0449V28.6368H28.8884V30.13Z" fill="#3A312A"/>
<path d="M35.2271 28.3087V30.7678H40.4029C39.34 32.088 38.5632 33.3272 38.0723 34.4853C37.5815 35.6433 37.2216 37.0779 36.9928 38.7887H39.8954C39.9906 37.5592 40.1765 36.4941 40.453 35.5932C40.8008 34.4352 41.275 33.3843 41.8755 32.4406C42.3712 31.6638 42.9883 30.9417 43.727 30.2746V28.3087H35.2271Z" fill="#EF6D7A"/>
<path d="M43.727 27.9805H35.2271C35.0457 27.9805 34.8989 28.1273 34.8989 28.3087V30.7678C34.8989 30.9492 35.0457 31.096 35.2271 31.096H39.7296C38.8616 32.2396 38.2036 33.3344 37.77 34.3571C37.27 35.5366 36.899 37.0129 36.6675 38.7452C36.655 38.8391 36.6835 38.9336 36.7458 39.0047C36.8082 39.076 36.8981 39.1167 36.9928 39.1167H39.8954C40.0669 39.1167 40.2093 38.9848 40.2226 38.8139C40.3156 37.6141 40.4987 36.5628 40.7673 35.6875C41.1049 34.5638 41.5708 33.5307 42.1522 32.6169C42.6296 31.8688 43.2333 31.1625 43.9471 30.5178C44.016 30.4555 44.0554 30.3671 44.0554 30.2743V28.3084C44.0551 28.1273 43.9081 27.9805 43.727 27.9805ZM43.3989 30.13C42.6886 30.7873 42.0833 31.5048 41.5988 32.2645C40.9848 33.2292 40.4937 34.3175 40.1395 35.497C39.8803 36.3414 39.6972 37.3371 39.5942 38.4606H37.3708C37.5961 36.9473 37.9332 35.6543 38.3746 34.6133C38.8515 33.4882 39.62 32.2637 40.6588 30.9737C40.738 30.8752 40.7538 30.7401 40.6993 30.6263C40.6448 30.5123 40.5298 30.4397 40.4033 30.4397H35.5556V28.6368H43.3993V30.13H43.3989Z" fill="#3A312A"/>
<path d="M33.1748 13.1079C33.992 12.3112 33.5412 10.9233 32.4116 10.759L28.8365 10.2395C28.3881 10.1743 28.0002 9.89253 27.7997 9.48609L26.2008 6.24662C25.6957 5.22309 24.2362 5.22309 23.7311 6.24662L22.1323 9.48609C21.9317 9.89253 21.5438 10.1743 21.0954 10.2395L17.5204 10.759C16.391 10.9231 15.9399 12.3112 16.7571 13.1079L19.3441 15.6295C19.6687 15.9458 19.8168 16.4017 19.74 16.8483L19.1293 20.4089C18.9363 21.534 20.1172 22.3917 21.1273 21.8606L24.3248 20.1795C24.726 19.9686 25.2053 19.9686 25.6065 20.1795L28.8039 21.8606C29.8141 22.3917 30.9949 21.534 30.802 20.4089L30.1913 16.8483C30.1147 16.4017 30.2628 15.9458 30.5872 15.6295L33.1748 13.1079Z" fill="#D6DF58"/>
<path d="M33.4038 13.3431C33.8722 12.8868 34.0373 12.2168 33.8354 11.5948C33.6333 10.9732 33.1059 10.5284 32.459 10.4344L28.884 9.91484C28.5423 9.86519 28.2472 9.65081 28.0943 9.34106L26.4955 6.10159C26.2061 5.51534 25.6203 5.15112 24.9664 5.15112C24.3126 5.15112 23.7268 5.51534 23.4374 6.10159L21.8385 9.34106C21.6856 9.65081 21.3905 9.86519 21.0486 9.91484L17.4736 10.4344C16.8265 10.5284 16.2991 10.9729 16.097 11.5948C15.8949 12.2168 16.0602 12.8866 16.5286 13.3431L19.1153 15.8646C19.3625 16.1057 19.4754 16.4526 19.4169 16.7932L18.8062 20.3536C18.6957 20.998 18.9556 21.637 19.4845 22.0213C19.7836 22.2386 20.1331 22.3488 20.4853 22.3488C20.7564 22.3488 21.0287 22.2834 21.2805 22.1511L24.478 20.47C24.7833 20.3092 25.1486 20.3094 25.454 20.47L28.6517 22.1511C29.2303 22.4553 29.9185 22.4057 30.4474 22.0213C30.9764 21.637 31.2362 20.998 31.1258 20.3536L30.515 16.7932C30.4566 16.4528 30.5695 16.1057 30.8167 15.8646L33.4038 13.3431ZM29.8684 16.9039L30.4791 20.4643C30.548 20.8668 30.3923 21.2503 30.062 21.4902C29.7315 21.7304 29.3185 21.7602 28.9573 21.5701L25.7598 19.889C25.5113 19.7584 25.2388 19.693 24.9662 19.693C24.6936 19.693 24.4211 19.7584 24.1728 19.889L20.9753 21.5701C20.6137 21.7602 20.2012 21.7302 19.8706 21.4902C19.5403 21.2503 19.3844 20.8668 19.4533 20.4643L20.064 16.9039C20.1589 16.3505 19.9754 15.7863 19.5736 15.3945L16.9866 12.873C16.6944 12.588 16.5951 12.1859 16.7213 11.7976C16.8475 11.4093 17.164 11.1425 17.5681 11.0838L21.1429 10.5643C21.6985 10.4838 22.1784 10.1351 22.4269 9.63156L24.0258 6.39209C24.2065 6.0259 24.558 5.80737 24.9664 5.80737C25.3748 5.80737 25.7264 6.02612 25.907 6.39209L27.5059 9.63156C27.7544 10.1349 28.2345 10.4838 28.7897 10.5643L32.3648 11.0838C32.7688 11.1427 33.0853 11.4093 33.2115 11.7976C33.3378 12.1859 33.2385 12.588 32.9462 12.873L30.3593 15.3945C29.957 15.7863 29.7735 16.3505 29.8684 16.9039Z" fill="#3A312A"/>
<path d="M49.5757 9.32532C51.1462 9.32532 52.4194 8.05213 52.4194 6.48157C52.4194 4.91101 51.1462 3.63782 49.5757 3.63782C48.0051 3.63782 46.7319 4.91101 46.7319 6.48157C46.7319 8.05213 48.0051 9.32532 49.5757 9.32532Z" fill="#8AC5DC"/>
<path d="M49.5757 3.30969C47.8268 3.30969 46.4038 4.73266 46.4038 6.48157C46.4038 8.23047 47.8268 9.65344 49.5757 9.65344C51.3246 9.65344 52.7476 8.23047 52.7476 6.48157C52.7476 4.73266 51.3246 3.30969 49.5757 3.30969ZM49.5757 8.99719C48.1886 8.99719 47.0601 7.86866 47.0601 6.48157C47.0601 5.09447 48.1886 3.96594 49.5757 3.96594C50.9628 3.96594 52.0913 5.09447 52.0913 6.48157C52.0913 7.86888 50.9628 8.99719 49.5757 8.99719Z" fill="#3A312A"/>
<path d="M11.3795 49.1059C12.5119 48.8382 13.2128 47.7033 12.9452 46.5709C12.6775 45.4386 11.5425 44.7376 10.4102 45.0053C9.27782 45.2729 8.57685 46.4079 8.84452 47.5403C9.11219 48.6726 10.2471 49.3736 11.3795 49.1059Z" fill="#89C4DB"/>
<path d="M10.886 44.6346C9.54312 44.6346 8.45068 45.7271 8.45068 47.07C8.45068 48.4129 9.54312 49.5053 10.886 49.5053C12.2289 49.5053 13.3214 48.4129 13.3214 47.07C13.3214 45.7273 12.2289 44.6346 10.886 44.6346ZM10.886 48.8491C9.90515 48.8491 9.10693 48.0511 9.10693 47.07C9.10693 46.0891 9.90493 45.2909 10.886 45.2909C11.8671 45.2909 12.6651 46.0889 12.6651 47.07C12.6651 48.0511 11.8671 48.8491 10.886 48.8491Z" fill="#3A312A"/>
<path d="M21.7555 48.557C22.5783 47.7342 22.5783 46.4002 21.7555 45.5774C20.9327 44.7546 19.5987 44.7546 18.7759 45.5774C17.9531 46.4002 17.9531 47.7342 18.7759 48.557C19.5987 49.3798 20.9327 49.3798 21.7555 48.557Z" fill="#89C4DB"/>
<path d="M20.2727 44.6346C18.9298 44.6346 17.8374 45.7271 17.8374 47.07C17.8374 48.4129 18.9298 49.5053 20.2727 49.5053C21.6157 49.5053 22.7081 48.4129 22.7081 47.07C22.7081 45.7273 21.6157 44.6346 20.2727 44.6346ZM20.2727 48.8491C19.2917 48.8491 18.4937 48.0511 18.4937 47.07C18.4937 46.0891 19.2917 45.2909 20.2727 45.2909C21.2536 45.2909 22.0518 46.0889 22.0518 47.07C22.0518 48.0511 21.2538 48.8491 20.2727 48.8491Z" fill="#3A312A"/>
<path d="M30.7913 48.8717C31.7817 48.2596 32.0883 46.9605 31.4761 45.9701C30.864 44.9797 29.5649 44.6731 28.5745 45.2852C27.5841 45.8974 27.2775 47.1965 27.8896 48.1869C28.5018 49.1773 29.8009 49.4839 30.7913 48.8717Z" fill="#89C4DB"/>
<path d="M29.66 44.6346C28.317 44.6346 27.2246 45.7271 27.2246 47.07C27.2246 48.4129 28.317 49.5053 29.66 49.5053C31.0029 49.5053 32.0953 48.4129 32.0953 47.07C32.0955 45.7273 31.0031 44.6346 29.66 44.6346ZM29.66 48.8491C28.6789 48.8491 27.8809 48.0511 27.8809 47.07C27.8809 46.0891 28.6789 45.2909 29.66 45.2909C30.6411 45.2909 31.4391 46.0889 31.4391 47.07C31.4393 48.0511 30.6411 48.8491 29.66 48.8491Z" fill="#3A312A"/>
<path d="M40.527 48.559C41.3498 47.7362 41.3498 46.4021 40.527 45.5793C39.7042 44.7566 38.3702 44.7566 37.5474 45.5794C36.7246 46.4021 36.7246 47.7362 37.5474 48.559C38.3702 49.3817 39.7042 49.3817 40.527 48.559Z" fill="#89C4DB"/>
<path d="M39.0462 44.6346C37.7033 44.6346 36.6108 45.7271 36.6108 47.07C36.6108 48.4129 37.7033 49.5053 39.0462 49.5053C40.3891 49.5053 41.4815 48.4129 41.4815 47.07C41.4817 45.7273 40.3893 44.6346 39.0462 44.6346ZM39.0462 48.8491C38.0651 48.8491 37.2671 48.0511 37.2671 47.07C37.2671 46.0891 38.0651 45.2909 39.0462 45.2909C40.0273 45.2909 40.8253 46.0889 40.8253 47.07C40.8255 48.0511 40.0273 48.8491 39.0462 48.8491Z" fill="#3A312A"/>
<path d="M17.8022 24.4716C17.6209 24.4716 17.4741 24.6184 17.4741 24.7997V41.6434C17.4741 41.8248 17.6209 41.9716 17.8022 41.9716C17.9836 41.9716 18.1304 41.8248 18.1304 41.6434V24.7997C18.1304 24.6184 17.9834 24.4716 17.8022 24.4716Z" fill="#3A312A"/>
<path d="M32.1304 24.4716C31.949 24.4716 31.8022 24.6184 31.8022 24.7997V41.6434C31.8022 41.8248 31.949 41.9716 32.1304 41.9716C32.3117 41.9716 32.4585 41.8248 32.4585 41.6434V24.7997C32.4585 24.6184 32.3115 24.4716 32.1304 24.4716Z" fill="#3A312A"/>
<path d="M42.0044 14.4091H38.7231C39.8169 14.4091 40.7072 15.2994 40.7072 16.3931V24.4847H43.9885V16.3931C43.9885 15.2994 43.0981 14.4091 42.0044 14.4091Z" fill="#695B51"/>
<path d="M40.7072 41.9584V45.29C41.1841 45.7362 41.4816 46.3684 41.4816 47.0706C41.4816 47.7728 41.1841 48.405 40.7072 48.8512V50.0478C40.7072 51.1437 39.8169 52.0341 38.7231 52.0341H42.0044C43.0981 52.0341 43.9885 51.1437 43.9885 50.0478V41.9584H40.7072Z" fill="#695B51"/>
<path d="M44.0386 25.1409H40.7573C41.8511 25.1409 42.7436 26.0313 42.7436 27.1272V27.9803H43.7258C43.9073 27.9803 44.0539 28.1269 44.0539 28.3084V30.275C44.0539 30.3669 44.0145 30.4566 43.9467 30.5178C43.5026 30.9203 43.1001 31.3469 42.7436 31.7931V39.3159C42.7436 40.4097 41.8511 41.3022 40.7573 41.3022H44.0386C45.1323 41.3022 46.0248 40.4097 46.0248 39.3159V27.1272C46.0248 26.0313 45.1323 25.1409 44.0386 25.1409Z" fill="#DDC9AC"/>
</svg>
