<svg width="60" height="60" viewBox="0 0 60 60" fill="none" xmlns="http://www.w3.org/2000/svg">
<path d="M55.2423 27.718L37.8202 10.2732C37.1277 9.57975 36.0044 9.57905 35.311 10.2716L11.2906 34.2621C10.5971 34.9546 10.5964 36.0779 11.2889 36.7713L22.3689 47.8656L24.7084 50.2081L28.7111 54.2159C29.4036 54.9093 30.5268 54.91 31.2202 54.2175L55.2407 30.2272C55.9341 29.5347 55.9348 28.4114 55.2423 27.718Z" fill="#F4E0C4"/>
<path d="M55.4886 27.4723L38.0665 10.0274C37.6658 9.62634 37.1331 9.40517 36.5662 9.40494H36.5648C35.9987 9.40494 35.4659 9.62541 35.0653 10.0256L11.0448 34.0159C10.6438 34.4165 10.4226 34.9493 10.4224 35.5161C10.4219 36.0827 10.6424 36.616 11.043 37.017L22.123 48.1114C22.2588 48.2475 22.4788 48.2475 22.6149 48.1119C22.7508 47.976 22.751 47.756 22.6154 47.6199L11.5354 36.5253C11.266 36.2557 11.1179 35.8975 11.1181 35.5163C11.1183 35.1354 11.2669 34.7773 11.5366 34.5081L35.5568 10.5178C35.8262 10.2486 36.1842 10.1005 36.5648 10.1005H36.5658C36.9469 10.1007 37.3049 10.2493 37.5743 10.5189L54.9966 27.9638C55.5523 28.5202 55.5516 29.4253 54.9955 29.981L30.9748 53.9716C30.7054 54.2407 30.3474 54.3886 29.9667 54.3886H29.9658C29.5847 54.3884 29.2265 54.2398 28.9573 53.9702L24.9546 49.9624C24.819 49.8265 24.5988 49.8263 24.4627 49.9622C24.3268 50.0978 24.3266 50.318 24.4625 50.4539L28.4651 54.4617C28.8657 54.8627 29.3985 55.0839 29.9653 55.0841H29.9667C30.5329 55.0841 31.0654 54.8637 31.4663 54.4635L55.4867 30.4732C56.3144 29.6465 56.3153 28.3002 55.4886 27.4723Z" fill="#3A312A"/>
<path d="M40.4019 25.9702C40.2754 25.5687 39.9503 25.2434 39.549 25.1161C35.3319 23.7798 29.2946 23.3933 26.7715 25.9132C24.3307 28.3509 24.5306 32.7336 29.0257 34.6829L23.3491 35.9408L29.5568 42.1564L30.8217 36.4815C32.7652 40.9789 37.1476 41.1845 39.5884 38.7468C42.1117 36.2269 41.7329 30.1892 40.4019 25.9702Z" fill="#87796F"/>
<path d="M40.734 25.8656C40.5741 25.3593 40.1607 24.9452 39.6546 24.7848C35.0357 23.321 29.0427 23.1543 26.5263 25.6674C25.2123 26.9801 24.6264 28.81 24.9596 30.5624C25.2721 32.2073 26.3381 33.5988 27.9964 34.5551L23.2743 35.6017C23.1505 35.629 23.0513 35.722 23.0158 35.8437C22.9804 35.9656 23.014 36.0971 23.1035 36.1868L29.3112 42.4024C29.3775 42.4687 29.4663 42.5044 29.5574 42.5044C29.5898 42.5044 29.6225 42.4998 29.6545 42.4905C29.7765 42.455 29.8692 42.356 29.8968 42.2322L30.9491 37.5115C31.9036 39.1713 33.2937 40.2389 34.9381 40.5535C36.691 40.8885 38.5209 40.3054 39.835 38.993C42.3511 36.4796 42.1918 30.4866 40.734 25.8656ZM39.343 38.5008C38.1919 39.6505 36.5943 40.1626 35.0684 39.8705C33.379 39.5473 31.9843 38.2947 31.1413 36.3438C31.0815 36.2054 30.9394 36.12 30.7894 36.1356C30.6394 36.1497 30.5153 36.2589 30.4826 36.4061L29.3554 41.4627L24.0431 36.1435L29.1011 35.0225C29.2483 34.9898 29.3575 34.8663 29.3719 34.7163C29.3863 34.5663 29.3024 34.4239 29.1642 34.3641C27.2144 33.5184 25.9637 32.1222 25.6426 30.4324C25.3525 28.9062 25.8665 27.3088 27.0176 26.1594C28.7738 24.4053 33.606 23.5978 39.4443 25.4476C39.7378 25.5408 39.978 25.781 40.0705 26.0748C41.9132 31.9154 41.0994 36.7469 39.343 38.5008Z" fill="#3A312A"/>
<path d="M37.7521 14.5844L32.8975 16.7825L34.0096 17.8962L34.764 17.4866L36.0004 18.7248L35.5942 19.4829L36.7348 20.6252L38.9401 15.7742L37.7521 14.5844ZM36.538 17.736L35.7639 16.9608L37.4178 16.0793L36.538 17.736Z" fill="#3A312A"/>
<path d="M32.5024 6.78122C32.5024 5.80148 31.7078 5.0072 30.7281 5.0072L6.07334 5.00929C5.09336 5.00929 4.29908 5.8038 4.29932 6.78377L4.30048 18.3388L4.30071 21.6214L4.30256 40.7324C4.30279 41.7124 5.09707 42.5065 6.07705 42.5065L30.7318 42.5044C31.7118 42.5044 32.5061 41.7099 32.5058 40.7299L32.5024 6.78122Z" fill="#F4E0C4"/>
<path d="M32.8497 6.78123C32.8497 5.61115 31.8976 4.65945 30.7277 4.65945L6.07295 4.66154C4.90286 4.66154 3.95094 5.6137 3.95117 6.78378L3.95233 18.3388C3.95233 18.531 4.10813 18.6866 4.30009 18.6866C4.49228 18.6866 4.64784 18.5308 4.64784 18.3388L4.64668 6.78378C4.64645 5.99716 5.28656 5.35729 6.07295 5.35705L30.7277 5.35497C31.5143 5.35497 32.1542 5.99461 32.1542 6.78123L32.1577 40.7301C32.1577 41.1113 32.0093 41.4695 31.7399 41.7389C31.4705 42.0083 31.1123 42.1569 30.7312 42.1569L6.07666 42.1587C5.29003 42.1587 4.65016 41.5191 4.65016 40.7325L4.64808 21.6212C4.64808 21.429 4.49228 21.2734 4.30032 21.2734C4.10813 21.2734 3.95256 21.4292 3.95256 21.6212L3.95465 40.7325C3.95465 41.9025 4.90681 42.8542 6.07666 42.8542L30.7314 42.8521C31.2983 42.8521 31.8313 42.6312 32.2319 42.2304C32.6327 41.8295 32.8534 41.2967 32.8532 40.7299L32.8497 6.78123Z" fill="#3A312A"/>
<path d="M27.4713 23.8772C27.4708 20.311 22.9308 16.3128 19.0048 14.2735C18.6313 14.0795 18.1716 14.0795 17.7979 14.2735C13.8724 16.3135 9.33303 20.3124 9.3335 23.8786C9.33396 27.3281 12.5764 30.2835 17.1318 28.4801L14.0111 33.3858L22.7956 33.3851L19.6737 28.4801C24.2298 30.2828 27.4718 27.3267 27.4713 23.8772Z" fill="#87796F"/>
<path d="M19.1649 13.9652C18.6938 13.7204 18.1082 13.7206 17.6373 13.9652C13.3376 16.1994 8.98512 20.3222 8.98535 23.8786C8.98558 25.736 9.86657 27.4433 11.3422 28.4462C12.727 29.3872 14.4651 29.6163 16.3133 29.1185L13.7172 33.1994C13.649 33.3065 13.6446 33.4421 13.7058 33.5534C13.767 33.6644 13.8838 33.7337 14.0107 33.7337L22.7952 33.733C22.922 33.733 23.0391 33.664 23.1001 33.5527C23.1613 33.4414 23.1569 33.3058 23.0887 33.1987L20.4917 29.1183C22.3406 29.6156 24.078 29.3866 25.4627 28.4451C26.9382 27.4421 27.8189 25.7346 27.8187 23.8774C27.8182 20.3205 23.465 16.1985 19.1649 13.9652ZM25.0719 27.8696C23.6493 28.8366 21.7775 28.9386 19.8015 28.1567C19.6615 28.1012 19.5015 28.1423 19.4055 28.2587C19.3095 28.3748 19.2993 28.5396 19.3803 28.6667L22.1621 33.0373L14.6445 33.038L17.4254 28.6669C17.5063 28.5399 17.4961 28.375 17.4001 28.2587C17.3327 28.1771 17.2337 28.1325 17.1319 28.1325C17.089 28.1325 17.0456 28.1404 17.0039 28.1569C15.0282 28.9391 13.1561 28.8376 11.7336 27.8708C10.4487 26.9977 9.68133 25.5051 9.68133 23.8786C9.6811 21.3963 12.5241 17.4061 17.9584 14.5823C18.2315 14.4402 18.5714 14.4402 18.8447 14.5823C24.2794 17.4052 27.1234 21.3951 27.1236 23.8772C27.1232 25.504 26.3565 26.9963 25.0719 27.8696Z" fill="#3A312A"/>
<path d="M52.696 7.2507C52.4701 9.93167 49.6763 10.3548 49.6763 10.3548C52.0751 10.4677 52.6728 13.6142 52.6728 13.6142C52.724 11.3707 55.7611 10.3216 55.7611 10.3216C53.4863 10.1855 52.696 7.2507 52.696 7.2507Z" fill="#D5DE58"/>
<path d="M55.7821 9.97456C53.7873 9.85539 53.0392 7.18694 53.0318 7.16005C52.9875 6.99707 52.8317 6.88926 52.6645 6.90457C52.4964 6.91987 52.3636 7.0534 52.3495 7.22149C52.1501 9.58971 49.7265 9.99496 49.6242 10.011C49.4473 10.0376 49.3198 10.1941 49.3291 10.3726C49.3384 10.5511 49.4814 10.6935 49.6602 10.7021C51.7532 10.8006 52.3258 13.6506 52.3314 13.6793C52.3631 13.8442 52.5073 13.9615 52.6726 13.9615C52.6822 13.9615 52.6921 13.961 52.7019 13.9603C52.879 13.9455 53.0165 13.7996 53.0206 13.6221C53.0658 11.6496 55.8472 10.6599 55.8752 10.6501C56.0317 10.5957 56.1284 10.4382 56.1057 10.2741C56.0827 10.11 55.9476 9.98453 55.7821 9.97456ZM52.6369 12.3731C52.3226 11.6473 51.7771 10.7716 50.878 10.3151C51.5575 9.98963 52.3638 9.40795 52.7795 8.39737C53.1391 9.10934 53.753 9.99241 54.7117 10.4195C54.0145 10.7997 53.1066 11.4409 52.6369 12.3731Z" fill="#3A312A"/>
<path d="M47.6529 11.1702C47.4918 13.0664 45.5156 13.3643 45.5156 13.3643C47.2122 13.4454 47.6335 15.6713 47.6335 15.6713C47.6708 14.0846 49.8195 13.3441 49.8195 13.3441C48.2103 13.2465 47.6529 11.1702 47.6529 11.1702Z" fill="#D5DE58"/>
<path d="M49.8406 12.9968C48.5039 12.9156 47.9938 11.0978 47.9887 11.0793C47.9447 10.9163 47.79 10.808 47.6222 10.8235C47.4539 10.8384 47.3208 10.9722 47.3064 11.1405C47.1713 12.7332 45.5324 13.0093 45.4638 13.02C45.2869 13.0466 45.1594 13.2029 45.1684 13.3816C45.1775 13.5604 45.3205 13.7027 45.499 13.7113C46.8982 13.7783 47.2881 15.7167 47.2918 15.7357C47.3231 15.901 47.4676 16.0188 47.6333 16.0188C47.6428 16.0188 47.6523 16.0186 47.6621 16.0176C47.8394 16.003 47.9771 15.8572 47.9813 15.6791C48.0124 14.3556 49.9144 13.6791 49.9331 13.6724C50.0901 13.6183 50.1868 13.4609 50.1643 13.2966C50.1416 13.1324 50.0062 13.0068 49.8406 12.9968ZM47.6173 14.5705C47.4036 14.1333 47.0755 13.655 46.5873 13.3457C47.0178 13.1046 47.4448 12.7367 47.7175 12.2067C47.9623 12.6412 48.3321 13.1238 48.8623 13.4185C48.4329 13.6733 47.9368 14.0533 47.6173 14.5705Z" fill="#3A312A"/>
<path d="M47.666 5.0072C47.5062 6.9034 45.5303 7.20294 45.5303 7.20294C47.2269 7.28269 47.6497 9.50833 47.6497 9.50833C47.6859 7.9214 49.8341 7.17952 49.8341 7.17952C48.2249 7.08308 47.666 5.0072 47.666 5.0072Z" fill="#D5DE58"/>
<path d="M49.8549 6.83224C48.5178 6.75225 48.0064 4.93441 48.0015 4.9161C47.9575 4.75335 47.8029 4.64601 47.6348 4.66061C47.4665 4.67568 47.3336 4.80945 47.3195 4.97777C47.1852 6.57072 45.5468 6.848 45.4782 6.8589C45.3013 6.88556 45.1738 7.04205 45.1831 7.22056C45.1924 7.39908 45.3354 7.54143 45.5142 7.55C46.9133 7.61585 47.3046 9.55401 47.3084 9.57302C47.3396 9.73832 47.4843 9.85586 47.6496 9.85586C47.6594 9.85586 47.6689 9.85563 47.6786 9.8547C47.856 9.8401 47.9934 9.69381 47.9976 9.51599C48.0277 8.19243 49.9293 7.5143 49.9481 7.50781C50.1048 7.45356 50.2017 7.29614 50.179 7.13177C50.156 6.96763 50.0204 6.8422 49.8549 6.83224ZM47.6327 8.40757C47.4185 7.97033 47.0902 7.49251 46.6017 7.18347C47.032 6.94213 47.4588 6.57374 47.731 6.04376C47.976 6.47799 48.3465 6.96044 48.8767 7.25488C48.4476 7.5099 47.9517 7.89011 47.6327 8.40757Z" fill="#3A312A"/>
<path d="M9.77632 8.10362V11.1769C9.77632 11.4806 9.73598 11.6964 9.65553 11.8244C9.57509 11.9526 9.4485 12.0166 9.27625 12.0166C9.16752 12.0166 9.08336 11.995 9.02447 11.9519C8.93823 11.8861 8.87702 11.8 8.84063 11.6934C8.80446 11.5868 8.78498 11.4235 8.7829 11.2035L7.30957 11.4043C7.3367 11.7901 7.42572 12.1137 7.57665 12.3759C7.72734 12.6379 7.94133 12.8368 8.21791 12.9731C8.49472 13.1092 8.88491 13.1774 9.38846 13.1774C9.86488 13.1774 10.2555 13.0742 10.5606 12.8681C10.8657 12.6618 11.0688 12.4102 11.1699 12.1133C11.2707 11.8163 11.3213 11.3832 11.3213 10.8143V8.10409H9.77632V8.10362Z" fill="#3A312A"/>
<path d="M54.997 27.9638L37.5744 10.518C37.3054 10.2491 36.9461 10.1007 36.5659 10.1007C36.1834 10.1007 35.8263 10.2491 35.5574 10.518L34.8271 11.2483L51.5194 27.9638C51.7883 28.2327 51.9367 28.592 51.9367 28.9723C51.9367 29.3548 51.7883 29.7118 51.5171 29.9808L28.229 53.241L28.957 53.969C29.2259 54.2402 29.5853 54.3886 29.9655 54.3886H29.9678C30.348 54.3886 30.705 54.2402 30.9763 53.9713L54.9946 29.9808C55.2659 29.7118 55.4143 29.3548 55.4143 28.9723C55.4143 28.592 55.2659 28.2327 54.997 27.9638Z" fill="#DDC9AC"/>
</svg>
