<svg width="99" height="99" viewBox="0 0 99 99" fill="none" xmlns="http://www.w3.org/2000/svg">
<g clip-path="url(#clip0)" filter="url(#filter0_d)">
<path d="M65.7276 28.2147C65.7138 28.2205 65.7002 28.2264 65.6864 28.2323C63.7185 29.0636 61.6069 27.3717 61.9301 25.26L62.2122 23.4173L59.0844 26.1302C57.8556 27.196 56.4664 27.5504 55.1476 27.2738C53.9258 26.6041 52.8503 25.7753 52.0218 24.8514C52.0218 24.8514 51.0592 23.5978 50.9591 23.3715L49.4116 19.8774L47.8642 23.3715C47.7641 23.5978 46.8015 24.8514 46.8015 24.8514C45.9728 25.7755 44.8975 26.6043 43.6756 27.2738C42.3569 27.5504 40.9677 27.196 39.7389 26.1302L36.611 23.4173L36.8931 25.26C37.2164 27.3717 35.1046 29.0636 33.1368 28.2323C33.123 28.2264 33.1092 28.2206 33.0955 28.2147L27.8196 25.9547L31.7434 38.6108H38.9371H59.8862H67.0799L71.0036 25.9547L65.7276 28.2147Z" fill="url(#paint0_linear)"/>
<path d="M67.5082 27.9611L73.3598 24.4536L69.008 44.0969H29.8151L25.4631 24.4536L31.3149 27.9611C36.513 31.077 43.2463 29.4973 46.5165 24.3947L49.4116 19.8773L52.3066 24.3947C55.5768 29.4973 62.3101 31.077 67.5082 27.9611Z" fill="url(#paint1_linear)"/>
<path d="M33.5818 30.0802L28.6262 27.1098C28.2877 26.9069 27.8707 27.2074 27.9561 27.5927L31.6127 44.0968H69.008L72.4715 28.4638L69.7752 30.0801C64.9385 32.9793 58.281 31.8113 54.8126 27.5248C53.6506 26.7103 51.224 22.7054 51.224 22.7054L48.7834 26.5137C45.5132 31.6163 38.7799 33.196 33.5818 30.0802Z" fill="url(#paint2_linear)"/>
<path d="M73.3599 24.4536L67.5083 27.9611C62.31 31.077 55.5767 29.4973 52.3066 24.3948L49.4116 19.8774V44.0968H69.008L73.3599 24.4536Z" fill="url(#paint3_linear)"/>
<path d="M49.4117 21.8266C51.087 21.8266 52.445 20.4685 52.445 18.7933C52.445 17.1181 51.087 15.76 49.4117 15.76C47.7365 15.76 46.3784 17.1181 46.3784 18.7933C46.3784 20.4685 47.7365 21.8266 49.4117 21.8266Z" fill="url(#paint4_radial)"/>
<path d="M52.1194 18.7935C52.1194 20.2889 50.9071 21.5011 49.4117 21.5011C47.9163 21.5011 46.7041 20.2889 46.7041 18.7935C46.7041 17.2981 47.9163 16.0858 49.4117 16.0858C50.9071 16.0858 52.1194 17.2981 52.1194 18.7935Z" fill="url(#paint5_linear)"/>
<path d="M50.7686 16.0798C50.9731 16.4882 51.0885 16.949 51.0885 17.4367C51.0885 19.1119 49.7305 20.4701 48.0551 20.4701C47.5674 20.4701 47.1066 20.3547 46.6982 20.1502C47.1963 21.1442 48.2242 21.8266 49.4117 21.8266C51.087 21.8266 52.4451 20.4685 52.4451 18.7933C52.445 17.6058 51.7626 16.5779 50.7686 16.0798Z" fill="url(#paint6_linear)"/>
<path d="M51.4627 17.4951C51.4627 18.2734 50.5445 18.9044 49.4117 18.9044C48.2788 18.9044 47.3606 18.2734 47.3606 17.4951C47.3606 16.7166 48.2788 16.0856 49.4117 16.0856C50.5443 16.0857 51.4627 16.7167 51.4627 17.4951Z" fill="url(#paint7_linear)"/>
<path d="M25.4632 27.5677C27.1385 27.5677 28.4965 26.2096 28.4965 24.5344C28.4965 22.8592 27.1385 21.5011 25.4632 21.5011C23.788 21.5011 22.4299 22.8592 22.4299 24.5344C22.4299 26.2096 23.788 27.5677 25.4632 27.5677Z" fill="url(#paint8_radial)"/>
<path d="M25.4633 27.2419C26.9586 27.2419 28.1709 26.0297 28.1709 24.5343C28.1709 23.0389 26.9586 21.8267 25.4633 21.8267C23.9679 21.8267 22.7556 23.0389 22.7556 24.5343C22.7556 26.0297 23.9679 27.2419 25.4633 27.2419Z" fill="url(#paint9_linear)"/>
<path d="M26.8202 21.821C27.0248 22.2294 27.1402 22.6902 27.1402 23.1779C27.1402 24.8531 25.7821 26.2113 24.1069 26.2113C23.6191 26.2113 23.1583 26.0959 22.75 25.8914C23.248 26.8854 24.276 27.5678 25.4635 27.5678C27.1388 27.5678 28.4969 26.2097 28.4969 24.5344C28.4966 23.3469 27.8142 22.3191 26.8202 21.821Z" fill="url(#paint10_linear)"/>
<path d="M27.5145 23.2362C27.5145 24.0145 26.5962 24.6457 25.4634 24.6457C24.3306 24.6457 23.4124 24.0146 23.4124 23.2362C23.4124 22.4578 24.3306 21.8267 25.4634 21.8267C26.5961 21.8267 27.5145 22.4577 27.5145 23.2362Z" fill="url(#paint11_linear)"/>
<path d="M73.3598 27.5677C75.0352 27.5677 76.3933 26.2096 76.3933 24.5343C76.3933 22.859 75.0352 21.5009 73.3598 21.5009C71.6845 21.5009 70.3264 22.859 70.3264 24.5343C70.3264 26.2096 71.6845 27.5677 73.3598 27.5677Z" fill="url(#paint12_radial)"/>
<path d="M73.36 27.2419C74.8554 27.2419 76.0676 26.0297 76.0676 24.5343C76.0676 23.0389 74.8554 21.8267 73.36 21.8267C71.8646 21.8267 70.6523 23.0389 70.6523 24.5343C70.6523 26.0297 71.8646 27.2419 73.36 27.2419Z" fill="url(#paint13_linear)"/>
<path d="M74.7168 21.821C74.9214 22.2294 75.0368 22.6902 75.0368 23.1779C75.0368 24.8531 73.6787 26.2113 72.0033 26.2113C71.5156 26.2113 71.0548 26.0959 70.6465 25.8914C71.1445 26.8854 72.1725 27.5678 73.3599 27.5678C75.0352 27.5678 76.3932 26.2097 76.3932 24.5344C76.3932 23.3469 75.7108 22.3191 74.7168 21.821Z" fill="url(#paint14_linear)"/>
<path d="M75.411 23.2362C75.411 24.0145 74.4927 24.6457 73.3599 24.6457C72.2271 24.6457 71.3088 24.0146 71.3088 23.2362C71.3088 22.4578 72.2272 21.8267 73.3599 21.8267C74.4927 21.8267 75.411 22.4577 75.411 23.2362Z" fill="url(#paint15_linear)"/>
<path d="M36.7708 26.2695C38.4461 26.2695 39.8041 24.9114 39.8041 23.2362C39.8041 21.5609 38.4461 20.2029 36.7708 20.2029C35.0956 20.2029 33.7375 21.5609 33.7375 23.2362C33.7375 24.9114 35.0956 26.2695 36.7708 26.2695Z" fill="url(#paint16_radial)"/>
<path d="M36.7709 25.9438C38.2663 25.9438 39.4785 24.7316 39.4785 23.2362C39.4785 21.7408 38.2663 20.5286 36.7709 20.5286C35.2755 20.5286 34.0632 21.7408 34.0632 23.2362C34.0632 24.7316 35.2755 25.9438 36.7709 25.9438Z" fill="url(#paint17_linear)"/>
<path d="M38.1278 20.5227C38.3324 20.931 38.4478 21.3918 38.4478 21.8796C38.4478 23.5549 37.0897 24.913 35.4145 24.913C34.9267 24.913 34.4659 24.7977 34.0576 24.593C34.5556 25.587 35.5836 26.2695 36.7711 26.2695C38.4464 26.2695 39.8044 24.9114 39.8044 23.2362C39.8042 22.0487 39.1218 21.0207 38.1278 20.5227Z" fill="url(#paint18_linear)"/>
<path d="M38.8218 21.9379C38.8218 22.7163 37.9036 23.3473 36.7708 23.3473C35.638 23.3473 34.7197 22.7163 34.7197 21.9379C34.7197 21.1595 35.6381 20.5284 36.7708 20.5284C37.9036 20.5286 38.8218 21.1596 38.8218 21.9379Z" fill="url(#paint19_linear)"/>
<path d="M62.0523 26.2695C63.7276 26.2695 65.0856 24.9114 65.0856 23.2362C65.0856 21.5609 63.7276 20.2029 62.0523 20.2029C60.3771 20.2029 59.019 21.5609 59.019 23.2362C59.019 24.9114 60.3771 26.2695 62.0523 26.2695Z" fill="url(#paint20_radial)"/>
<path d="M62.0526 25.9438C63.548 25.9438 64.7602 24.7316 64.7602 23.2362C64.7602 21.7408 63.548 20.5286 62.0526 20.5286C60.5572 20.5286 59.345 21.7408 59.345 23.2362C59.345 24.7316 60.5572 25.9438 62.0526 25.9438Z" fill="url(#paint21_linear)"/>
<path d="M63.4092 20.5227C63.6138 20.931 63.7292 21.3918 63.7292 21.8796C63.7292 23.5549 62.3711 24.913 60.6959 24.913C60.208 24.913 59.7473 24.7977 59.3389 24.593C59.8369 25.587 60.8648 26.2695 62.0523 26.2695C63.7277 26.2695 65.0858 24.9114 65.0858 23.2362C65.0856 22.0487 64.4032 21.0207 63.4092 20.5227Z" fill="url(#paint22_linear)"/>
<path d="M64.1036 21.9379C64.1036 22.7163 63.1853 23.3473 62.0525 23.3473C60.9197 23.3473 60.0015 22.7163 60.0015 21.9379C60.0015 21.1595 60.9198 20.5284 62.0525 20.5284C63.1852 20.5286 64.1036 21.1596 64.1036 21.9379Z" fill="url(#paint23_linear)"/>
<path d="M28.751 42.0326H70.0722V47.7423H28.751V42.0326Z" fill="url(#paint24_linear)"/>
<path d="M70.0202 49.4441H28.8033C28.0901 49.4441 27.512 48.8658 27.512 48.1527C27.512 47.4394 28.0901 46.8613 28.8033 46.8613H70.0202C70.7334 46.8613 71.3115 47.4396 71.3115 48.1527C71.3115 48.866 70.7334 49.4441 70.0202 49.4441Z" fill="url(#paint25_linear)"/>
<path d="M70.0202 42.9346H28.8033C28.0901 42.9346 27.512 42.3565 27.512 41.6432C27.512 40.9299 28.0901 40.3518 28.8033 40.3518H70.0202C70.7334 40.3518 71.3115 40.9301 71.3115 41.6432C71.3115 42.3563 70.7334 42.9346 70.0202 42.9346Z" fill="url(#paint26_linear)"/>
<path d="M83.597 45.0747C83.2128 44.4383 82.5695 44.0733 81.8226 44.0733C79.3211 44.0836 76.8195 44.0928 74.3183 44.101C73.9998 44.102 73.6449 44.305 73.3316 44.5515C72.7804 44.9852 72.0333 45.0464 71.4043 44.7363C70.6367 44.3579 69.7609 44.1385 68.8631 44.117C68.8243 44.116 68.786 44.1156 68.7473 44.1156C67.1604 44.1156 65.6409 44.8849 64.6822 46.1734C64.6756 46.1824 64.669 46.1913 64.6623 46.2002C64.4683 46.4649 64.0758 46.4695 63.8818 46.2047L63.8775 46.1989C62.9453 44.9287 61.4184 44.1567 59.7934 44.134C59.7934 44.134 57.3739 44.1367 56.1747 44.1378C55.4203 44.1385 54.7646 44.493 54.3276 45.1365C54.3207 45.1467 54.315 45.1572 54.3084 45.1675C53.7326 44.4861 53.0756 44.1402 52.3506 44.1402C51.9408 44.1405 50.9307 44.2853 50.3872 45.6213L50.3806 45.6371C50.2181 46.0238 49.6685 46.0386 49.4952 45.6568C49.3251 45.2823 49.092 45.013 48.8805 44.8275C48.3687 44.3782 47.7293 44.1406 47.0305 44.1404C46.3362 44.1404 45.6982 44.3755 45.1855 44.82C45.0428 44.9436 44.89 45.1052 44.7529 45.3112C44.5296 45.6466 44.0603 45.6954 43.7532 45.4346C42.8199 44.642 41.5975 44.1696 40.3216 44.1358C40.2823 44.1347 40.2431 44.1343 40.204 44.1343C38.6823 44.1343 37.1725 44.9198 36.1651 46.2357C35.7167 46.8212 35.4044 47.4593 35.1843 48.1267C34.971 48.7739 34.035 48.709 33.9097 48.0391C33.8004 47.4543 33.6959 46.89 33.6111 46.4204C33.4631 45.6447 33.0651 45.0045 32.4596 44.5689C31.9032 44.1685 31.2566 43.9656 30.5378 43.9656C29.8437 43.9656 29.2065 44.154 28.6439 44.5258C28.0274 44.9333 27.6039 45.5358 27.4165 46.2805C27.2868 46.8169 27.1574 47.3483 27.0287 47.8752C26.9076 48.3702 26.1772 48.2729 26.1889 47.7634L26.2162 46.5773C26.2337 45.8182 25.9441 45.1503 25.4009 44.6968C24.9343 44.3072 24.3493 44.1001 23.7089 44.0979L20.6609 44.0872C19.8966 44.0872 19.2398 44.4896 18.8589 45.1909C18.6112 45.647 18.4814 46.1692 18.4733 46.743C18.4648 47.3422 18.5818 47.8859 18.8209 48.3583C19.171 49.0505 19.7826 49.484 20.4987 49.5477C20.5845 49.5554 20.664 49.5624 20.7392 49.5691L20.6115 56.0912C20.6115 56.0912 20.6172 56.1686 20.6175 56.1759C20.6006 56.1626 20.5854 56.1494 20.5717 56.1361C20.5274 56.0927 20.5003 56.0477 20.481 55.9865C20.3913 55.7009 20.3657 55.5692 20.3588 55.5254C20.3466 55.4487 20.3236 55.2767 20.3048 54.9864C20.2603 54.302 19.9139 53.0652 18.0937 52.4695C17.6747 52.3324 17.3097 52.2657 16.9781 52.2657C16.6118 52.2657 16.2802 52.3475 15.9919 52.5087C15.5334 52.7656 14.989 53.3393 14.9999 54.6139C15.0117 56.0084 15.5151 57.4452 16.4173 58.6596C17.1557 59.6536 18.3663 60.9784 19.941 61.6445C20.5472 61.901 21.3529 62.1952 22.2088 62.1952C22.8416 62.1952 23.4194 62.0367 23.9327 61.7273C24.0711 62.1326 24.3007 62.5312 24.6272 62.9191C25.15 63.5401 25.7305 63.9679 26.3527 64.1904C26.639 64.2928 26.9181 64.3448 27.1825 64.3448C28.0835 64.3448 28.8059 63.7492 29.024 62.8234C29.1425 62.3131 29.2602 61.8025 29.3775 61.2917C29.8742 61.4135 30.3586 61.5276 30.8353 61.635C30.9623 62.4642 31.089 63.2938 31.2157 64.1249C31.3823 65.2032 32.0728 65.9677 33.1108 66.2225C33.3328 66.2771 33.5585 66.3047 33.7815 66.3047C34.3409 66.3047 34.8788 66.1366 35.3801 65.8053C35.6129 65.6515 35.8142 65.4711 35.9824 65.2689C36.9559 66.6176 38.3718 67.5146 39.8273 67.6899C40.03 67.7143 40.2369 67.7267 40.4423 67.7267C41.9304 67.7267 43.3564 67.0799 44.2631 65.9963C44.4018 66.6586 44.7384 67.1047 45.0332 67.3808C45.5449 67.8599 46.1885 68.1272 46.895 68.154C46.9342 68.1555 46.973 68.1563 47.0116 68.1563C47.6886 68.1563 48.3135 67.9271 48.8184 67.4938C49.2226 67.1471 49.7046 66.5092 49.7065 65.4392C49.7072 65.0604 50.2286 64.9581 50.3728 65.3084C50.5559 65.7531 50.7381 66.1943 50.92 66.6328C51.5093 68.1196 52.6394 68.2804 53.0989 68.2804C53.1403 68.2804 53.1822 68.2792 53.2244 68.277C53.7134 68.2503 54.3964 68.0569 55.0535 67.3508C55.4979 67.6584 56.0202 67.8221 56.575 67.8221C56.6819 67.8221 56.7915 67.8162 56.9012 67.8043C57.5851 67.7301 58.2047 67.433 58.6929 66.9451C59.2235 66.4149 59.4984 65.7103 59.488 64.9076L59.4313 60.5582C59.4273 60.2524 59.6582 59.9943 59.9624 59.9636H59.9625C61.0689 59.8323 62.1188 59.3689 62.9636 58.6646C63.1741 58.4891 63.4941 58.6381 63.4999 58.9121C63.5279 60.6726 63.7417 62.8821 65.1571 64.3521C65.9323 65.1572 66.9115 65.5654 68.0673 65.5654C68.553 65.5654 69.0613 65.4934 69.6214 65.3454C71.078 64.9605 72.5554 63.8188 73.477 62.3657C74.5594 60.6592 74.7189 58.6578 74.7369 57.1047L74.7372 57.0807L74.5902 50.8818L74.5887 50.8575C74.5783 50.6835 74.566 50.507 74.551 50.3289C74.53 50.0802 74.7155 49.8618 74.9643 49.8425L74.9747 49.8417C75.233 49.8216 75.4549 50.023 75.4599 50.2819L75.6512 59.9701C75.6701 60.9246 76.2236 61.6451 77.0956 61.8505C77.2657 61.8907 77.443 61.911 77.6227 61.911C78.0328 61.911 78.4657 61.8044 78.9096 61.594C79.4281 61.3483 79.8827 61.0034 80.2607 60.5687C80.8531 59.8877 80.9703 59.218 80.9643 58.7762L80.8533 50.4629C80.8447 49.8239 81.3261 49.2845 81.962 49.2207L81.9734 49.2196C82.6594 49.1509 83.2374 48.7688 83.6011 48.144C83.8659 47.6894 84.0001 47.1668 84.0001 46.5904C84.0001 46.0277 83.8644 45.5178 83.597 45.0747Z" fill="url(#paint27_linear)"/>
<path d="M83.0167 45.425C82.7543 44.9903 82.3336 44.7509 81.8254 44.7509C79.3235 44.7612 76.8218 44.7704 74.3204 44.7787C73.7831 44.7803 73.3392 45.0965 73.1023 45.6462C72.9485 46.0029 72.8691 46.4146 72.8641 46.8707C72.7491 46.6956 72.6219 46.5273 72.4798 46.3681C71.6307 45.4168 70.2725 44.8286 68.8468 44.7944C68.8135 44.7935 68.7805 44.7931 68.7472 44.7931C67.3735 44.7931 66.0571 45.4603 65.226 46.5777C64.7552 47.2106 64.4726 47.9395 64.2999 48.6789C64.0766 47.8677 63.7552 47.1776 63.3312 46.5997C62.5238 45.4998 61.1976 44.8314 59.7734 44.8114C58.5739 44.8129 57.3745 44.8142 56.175 44.8153C55.6521 44.8157 55.195 45.0648 54.8885 45.5168C54.6276 45.9015 54.4975 46.3521 54.5018 46.8565L54.5021 46.8892C54.3907 46.5241 54.2159 46.1723 53.9735 45.8379C53.483 45.1609 52.9373 44.8178 52.3506 44.8178C52.0113 44.8179 51.3861 44.9566 51.0151 45.8759C50.3199 47.5397 49.6707 49.0843 49.0557 50.5373L49.0623 46.8692C49.0638 46.06 48.7211 45.5892 48.4335 45.3366C48.0415 44.9926 47.5697 44.818 47.0305 44.8178C46.494 44.8178 46.0224 44.9908 45.6291 45.3317C45.3397 45.5824 44.9936 46.0504 44.9887 46.8561L44.977 48.7803C44.7491 47.9398 44.3999 47.1934 43.9447 46.6055C43.1053 45.5212 41.744 44.851 40.3035 44.813C40.2702 44.8121 40.2371 44.8117 40.2038 44.8117C38.8917 44.8117 37.583 45.4979 36.7029 46.6473C35.5714 48.1249 35.3952 50.0482 35.3114 51.8916L35.1708 59.1261C34.4925 55.224 33.7386 50.9344 32.9453 46.547C32.8288 45.9362 32.5322 45.4557 32.0637 45.1185C31.6248 44.8029 31.1113 44.6428 30.5376 44.6428C29.9785 44.6428 29.4671 44.7935 29.0174 45.0908C28.5376 45.4079 28.2209 45.8597 28.0749 46.4394C27.113 50.415 26.1788 54.1196 25.2389 57.6861C25.262 57.4375 25.2784 57.196 25.2936 56.9696L25.3013 56.8535L25.5383 46.5613C25.5545 45.8582 25.2362 45.442 24.9663 45.2166C24.6174 44.9253 24.1935 44.7769 23.7064 44.7751L20.6607 44.7645C20.1451 44.7645 19.7166 45.0306 19.4541 45.5138C19.2593 45.8725 19.1572 46.2892 19.1507 46.7521C19.1438 47.2406 19.2362 47.678 19.4254 48.0518C19.6711 48.5377 20.0735 48.829 20.5585 48.8721C20.9116 48.9035 21.1611 48.9254 21.4289 48.9484L21.2895 56.0725L21.2918 56.1037C21.3202 56.4935 21.2081 56.8024 21.0841 56.9357C21.0285 56.9955 20.9747 57.0198 20.8983 57.0198C20.8299 57.0198 20.7447 56.9998 20.6515 56.962C20.4197 56.8683 20.2333 56.753 20.097 56.6193C19.973 56.4977 19.8869 56.3569 19.834 56.189C19.7393 55.8878 19.7029 55.7191 19.689 55.6303C19.6719 55.5226 19.6476 55.3311 19.6281 55.0296C19.5874 54.4025 19.2516 53.5609 17.8827 53.113C17.5327 52.9986 17.2367 52.9428 16.9777 52.9428C16.7288 52.9428 16.5085 52.9955 16.3229 53.0994C15.888 53.3429 15.6709 53.8504 15.6774 54.6075C15.6881 55.8594 16.1439 57.1547 16.9611 58.2548C17.6493 59.1813 18.7706 60.413 20.2047 61.0196C20.752 61.2511 21.4745 61.517 22.2084 61.517C22.8102 61.517 23.3488 61.3416 23.8091 60.9958C24.1475 60.7416 24.4029 60.43 24.5998 60.0865C24.573 60.1862 24.5462 60.2862 24.5194 60.3858L24.5125 60.4139C24.4754 60.5795 24.4585 60.691 24.4562 60.7876C24.443 61.353 24.6749 61.9233 25.1455 62.4823C25.59 63.0104 26.073 63.3704 26.581 63.5519C26.7967 63.6292 26.9934 63.6667 27.1824 63.6667C27.7751 63.6667 28.2166 63.2947 28.3638 62.6697C28.5343 61.9357 28.7032 61.2013 28.871 60.4667C29.7618 60.6924 30.6086 60.8927 31.4348 61.0736C31.5853 62.0557 31.7354 63.0378 31.8854 64.0211C32.0098 64.8271 32.5023 65.3749 33.2721 65.5639C33.4412 65.6054 33.6127 65.6264 33.7812 65.6264C34.2055 65.6264 34.6178 65.4961 35.0063 65.2392C35.5375 64.8882 35.8407 64.3748 35.8963 63.7497C36.0268 64.0487 36.1789 64.3408 36.3609 64.6217C37.2264 65.9579 38.5525 66.8531 39.9083 67.0166C40.0842 67.0377 40.2638 67.0485 40.4422 67.0485C41.7388 67.0485 42.9779 66.4867 43.7565 65.546C44.2673 64.9288 44.6455 64.1532 44.8882 63.2271L44.8752 65.3327C44.8713 65.9644 45.086 66.5014 45.4964 66.8856C45.8928 67.2568 46.3718 67.4556 46.9205 67.4764C46.951 67.4775 46.9815 67.4782 47.0115 67.4782C47.5317 67.4782 47.9912 67.3101 48.3772 66.9789C48.6736 66.7246 49.0274 66.2508 49.0289 65.4375L49.0381 60.3065C49.044 60.2941 49.0499 60.2817 49.0557 60.2697C49.9171 62.4132 50.7375 64.4236 51.5455 66.3716C51.9654 67.4426 52.6989 67.6024 53.0988 67.6024C53.128 67.6024 53.1578 67.6016 53.1876 67.5999C53.8086 67.566 54.3669 67.2075 54.8468 66.534C54.8944 66.4671 54.9384 66.3992 54.9809 66.3312C55.0961 66.505 55.2282 66.6357 55.3509 66.7311C55.7042 67.0052 56.1161 67.1441 56.575 67.1441C56.6577 67.1441 56.743 67.1395 56.8282 67.1302C57.3645 67.0722 57.8307 66.8485 58.2139 66.4655C58.6122 66.0676 58.8184 65.5318 58.8104 64.9162L58.7384 59.4006C59.0986 59.3685 59.4099 59.3383 59.8826 59.2904C61.3419 59.1174 62.6889 58.2899 63.4855 57.077C63.7328 56.7005 63.9411 56.2822 64.1126 55.8256L64.1775 58.9011C64.2036 60.5374 64.394 62.5823 65.6453 63.8818C66.2878 64.5491 67.1026 64.8874 68.0672 64.8874C68.4936 64.8874 68.9453 64.8229 69.4481 64.6899C70.7463 64.3469 72.0707 63.3171 72.9046 62.0024C73.8955 60.4402 74.0421 58.56 74.0591 57.0965L73.9131 50.9218L73.912 50.8975C73.8755 50.2851 73.8145 49.6419 73.6876 49.0115C73.9338 49.1714 74.1806 49.2062 74.3454 49.2062C74.3777 49.2062 74.4105 49.2049 74.4435 49.2025C74.9982 49.1604 75.5576 49.1165 76.1137 49.071L76.3287 59.9565C76.3414 60.5963 76.6861 61.0577 77.2511 61.1908C77.3702 61.2188 77.4952 61.2331 77.6225 61.2331C77.9357 61.2331 78.2618 61.1509 78.6193 60.9815C79.0527 60.7761 79.4329 60.4875 79.7492 60.1239C80.1122 59.7066 80.2929 59.2562 80.2866 58.7851L80.1521 48.7157C80.736 48.6607 81.3235 48.6036 81.9055 48.545C82.3696 48.4984 82.7638 48.2349 83.0152 47.8028C83.2188 47.453 83.322 47.0451 83.322 46.5901C83.3223 46.1528 83.2195 45.7609 83.0167 45.425ZM29.8033 56.2722C29.9745 55.4999 30.1463 54.7197 30.3181 53.934C30.4476 54.7543 30.5788 55.5895 30.7126 56.4447C30.4089 56.388 30.1054 56.3305 29.8033 56.2722ZM44.7852 58.6922C44.4528 58.2028 43.9154 57.9325 43.188 57.8884C43.1259 57.8846 43.0655 57.8827 43.0068 57.8827C41.8714 57.8827 41.1733 58.5709 41.0914 59.7711C41.0607 60.2219 41.0279 60.5023 41.0055 60.658C40.9777 60.8534 40.918 61.1097 40.8283 61.4202C40.7918 61.547 40.7263 61.7126 40.6221 61.7822C40.5603 61.8236 40.4755 61.8436 40.3629 61.8436C40.3255 61.8436 40.2852 61.8411 40.2432 61.8365C39.1636 61.7169 39.2704 59.635 39.2754 59.5466L39.2762 59.5326L39.3963 52.1033L39.3962 52.0743C39.3779 51.3933 39.5174 50.5442 39.8699 50.1822C39.9822 50.0668 40.101 50.0177 40.2668 50.0177C40.2793 50.0177 40.292 50.0179 40.305 50.0185C40.6278 50.0333 41.1711 50.3052 41.183 51.9593C41.1921 53.2109 41.9429 53.9856 43.1911 54.0314C43.2281 54.0328 43.2645 54.0335 43.3005 54.0335C44.1414 54.0335 44.5925 53.6568 44.8227 53.3407C44.8691 53.2772 44.9113 53.2071 44.9504 53.1317L44.9149 58.9234C44.8752 58.841 44.8329 58.7624 44.7852 58.6922ZM51.6861 54.7424C52.4751 53.084 53.3228 51.2897 54.412 48.9747L54.4233 48.9492C54.4597 48.8629 54.4911 48.775 54.5186 48.6857L54.6384 61.9785C53.6857 59.6928 52.7132 57.3097 51.6861 54.7424ZM59.6906 54.5688C59.2781 54.6001 58.9906 54.621 58.6766 54.6423L58.6164 50.021C58.9474 50.0121 59.2426 50.0033 59.6694 49.9902L59.6834 49.9901C59.8722 49.9901 60.0095 50.0434 60.1284 50.1628C60.4243 50.4601 60.6057 51.1763 60.6018 52.0318L60.6076 52.3658C60.6314 52.9968 60.5902 54.4722 59.6906 54.5688ZM68.9984 59.96C68.937 59.9784 68.8822 59.9878 68.8357 59.9878C68.7722 59.9878 68.7188 59.9731 68.6482 59.9006C68.388 59.6331 68.2471 58.9391 68.2612 58.4224L68.2618 58.4052L68.1025 51.5499L68.101 51.5202C68.0607 50.9175 68.1654 50.1463 68.4908 49.7824C68.6119 49.6469 68.7512 49.5828 68.9426 49.5743C68.9577 49.5736 68.9727 49.5733 68.9876 49.5733C69.1884 49.5733 69.4197 49.6244 69.6121 50.0025C69.7684 50.3098 69.858 50.765 69.8577 51.2518L70.0161 57.7762C70.0346 58.2113 70.0165 59.6548 68.9984 59.96Z" fill="url(#paint28_linear)"/>
<path d="M16.3556 54.6021C16.3514 54.1083 16.4549 53.8028 16.6546 53.691C16.8542 53.5793 17.1932 53.6006 17.6725 53.7574C18.4859 54.0236 18.9125 54.4584 18.9524 55.0739C18.9703 55.3499 18.9942 55.5719 19.0201 55.7363C19.0461 55.9006 19.1021 56.1189 19.1881 56.3924C19.2742 56.6661 19.4188 56.9033 19.6231 57.1037C19.8271 57.3039 20.0897 57.466 20.3975 57.5906C21.482 58.0298 22.0398 57.0404 21.9679 56.0546C22.0183 53.4787 22.0687 50.9029 22.1191 48.3271C21.5185 48.2765 21.2185 48.2507 20.6187 48.1973C20.3658 48.1748 20.1699 48.0225 20.0303 47.7462C19.8907 47.4701 19.823 47.1439 19.8285 46.7619C19.8335 46.4065 19.9071 46.1003 20.0498 45.8375C20.1924 45.5749 20.3972 45.4412 20.6638 45.4423C21.6774 45.4461 22.6909 45.4496 23.7045 45.453C24.0287 45.454 24.3051 45.5473 24.5322 45.7369C24.7594 45.9266 24.8691 46.198 24.8611 46.5457C24.7823 49.9715 24.7034 53.3973 24.6245 56.8231C24.5401 58.0785 24.4624 59.6579 23.4027 60.454C22.5036 61.1292 21.4034 60.7907 20.4692 60.3955C19.3005 59.9012 18.2742 58.8855 17.5055 57.8508C16.8161 56.9228 16.3653 55.7576 16.3556 54.6021Z" fill="url(#paint29_linear)"/>
<path d="M25.1341 60.8036C25.1352 60.7576 25.1483 60.6775 25.1742 60.5624C26.4248 55.9241 27.6042 51.2681 28.734 46.5989C28.8366 46.1917 29.0558 45.8782 29.3914 45.6563C29.7271 45.4346 30.1092 45.3208 30.5379 45.3208C30.9665 45.3208 31.3433 45.4351 31.6683 45.6689C31.9931 45.9027 32.1969 46.2389 32.2798 46.6743C33.2795 52.2023 34.2453 57.7363 35.2015 63.272C35.2221 63.4215 35.232 63.523 35.2307 63.5773C35.2214 64.0478 35.0217 64.4172 34.6329 64.6741C34.2438 64.9313 33.8437 65.0065 33.4336 64.9058C32.9295 64.7822 32.6371 64.4492 32.5552 63.9178C32.382 62.7816 32.2083 61.6455 32.034 60.5096C30.8042 60.2487 29.5814 59.9542 28.3651 59.6369C28.1469 60.5973 27.9265 61.5572 27.7038 62.5166C27.6003 62.9561 27.3016 63.0899 26.8096 62.9139C26.4089 62.7706 26.0274 62.4772 25.6644 62.0459C25.3014 61.6147 25.1248 61.2026 25.1341 60.8036ZM28.9911 56.804C29.8364 56.971 30.6817 57.1308 31.5296 57.2838C31.1646 54.9422 30.7953 52.6015 30.4202 50.2615C29.9521 52.4442 29.476 54.625 28.9911 56.804Z" fill="url(#paint30_linear)"/>
<path d="M35.8481 59.1518C35.895 56.742 35.9418 54.3323 35.9886 51.9226C36.0641 50.2609 36.2 48.4192 37.2411 47.0596C37.9503 46.1334 39.0841 45.4588 40.2858 45.4907C41.4769 45.5222 42.6775 46.0759 43.4091 47.0208C44.2959 48.1663 44.6199 49.8177 44.6048 51.2567C44.596 52.0845 44.4884 52.6491 44.2752 52.9418C44.0617 53.2347 43.7085 53.3725 43.2161 53.3544C42.3369 53.3219 41.8671 52.8343 41.8608 51.9545C41.8536 50.9521 41.6275 49.401 40.336 49.3417C38.9653 49.2788 38.6916 51.0821 38.7188 52.0927C38.6788 54.5645 38.6389 57.0362 38.5988 59.508C38.536 60.6044 38.7961 62.3582 40.1685 62.5104C40.4985 62.5471 40.7769 62.4939 40.9985 62.3461C41.2199 62.1982 41.3802 61.9521 41.4794 61.6087C41.5784 61.2657 41.6441 60.9803 41.6763 60.7543C41.7085 60.5284 41.7403 60.2148 41.7675 59.8177C41.8281 58.9292 42.2846 58.513 43.1471 58.5651C43.6549 58.5958 44.0145 58.7635 44.2247 59.0732C44.4353 59.3831 44.553 59.9697 44.5309 60.7831C44.491 62.2572 44.2089 63.9371 43.2347 65.1143C42.4598 66.0505 41.19 66.4886 39.9895 66.3441C38.7115 66.1903 37.6066 65.2986 36.93 64.2538C35.96 62.7563 35.8598 60.8964 35.8481 59.1518Z" fill="url(#paint31_linear)"/>
<path d="M45.5533 65.337C45.5911 59.1782 45.629 53.0194 45.6668 46.8606C45.6695 46.4153 45.8049 46.0767 46.0731 45.8444C46.3409 45.6121 46.6601 45.4957 47.0312 45.4959C47.4019 45.496 47.7204 45.6126 47.9865 45.8463C48.2525 46.0798 48.3856 46.4209 48.3848 46.8683C48.3806 49.2039 48.3764 51.5396 48.3722 53.8752C49.4741 51.3011 50.561 48.7209 51.6407 46.1374C51.8132 45.7099 52.0497 45.4959 52.3512 45.4957C52.7103 45.4956 53.0682 45.743 53.4252 46.2358C53.7821 46.7284 53.9633 47.2541 53.9673 47.8145C53.9695 48.124 53.9134 48.4144 53.7989 48.6862C52.8521 50.699 51.903 52.7106 50.947 54.719C52.1624 57.7607 53.4 60.7929 54.6715 63.8116C54.7688 64.0561 54.8186 64.3034 54.8208 64.5538C54.8254 65.1132 54.6506 65.6426 54.2956 66.1407C53.9403 66.6391 53.5583 66.901 53.1511 66.9233C52.7198 66.9469 52.3947 66.6797 52.1769 66.1243C51.137 63.6169 50.1166 61.1018 49.1096 58.581C48.811 59.2108 48.6612 59.5251 48.3612 60.1521C48.358 61.9135 48.3548 63.6751 48.3517 65.4365C48.3509 65.8844 48.2125 66.2279 47.9365 66.4647C47.6601 66.7019 47.3301 66.8138 46.9467 66.7993C46.5628 66.7848 46.2341 66.6476 45.9601 66.3911C45.686 66.1344 45.5506 65.7827 45.5533 65.337Z" fill="url(#paint32_linear)"/>
<path d="M55.3452 65.2073C55.29 59.0883 55.235 52.9694 55.1798 46.8506C55.1765 46.4853 55.2664 46.1672 55.4496 45.8974C55.6323 45.6281 55.8744 45.4936 56.1759 45.4933C57.3755 45.4922 58.575 45.4909 59.7745 45.4894C60.9448 45.5058 62.091 46.0553 62.7851 47.001C63.7382 48.2997 63.9788 50.1102 64.0041 51.6892C64.0051 51.7432 64.0057 51.7701 64.0068 51.8241C64.0475 53.4707 63.8364 55.3088 62.9194 56.7049C62.2278 57.7577 61.0576 58.4686 59.8032 58.6172C59.1038 58.688 58.7537 58.7205 58.053 58.7792C58.0797 60.8278 58.1065 62.8764 58.1331 64.9251C58.1388 65.3617 58.0062 65.7155 57.7353 65.9862C57.4641 66.2573 57.1376 66.4152 56.7557 66.4565C56.3735 66.4979 56.0438 66.4105 55.7668 66.1956C55.4899 65.9806 55.3493 65.6502 55.3452 65.2073ZM58.0082 55.3646C58.7058 55.3208 59.0543 55.2966 59.751 55.2438C61.1257 55.1072 61.326 53.4303 61.2845 52.34C61.2823 52.218 61.2813 52.1569 61.2792 52.0348C61.284 50.9894 61.0375 49.2926 59.6595 49.3124C58.9679 49.3336 58.6219 49.3434 57.9299 49.361C57.9561 51.3622 57.9823 53.3635 58.0082 55.3646Z" fill="url(#paint33_linear)"/>
<path d="M64.8555 58.8899C64.8055 56.5258 64.7556 54.1616 64.7056 51.7975C64.7144 50.1721 64.7685 48.3284 65.7701 46.9821C66.4737 46.0361 67.634 45.4431 68.8307 45.4718C69.9808 45.4994 71.1986 45.9501 71.9744 46.8193C72.9463 47.9085 73.1517 49.5259 73.2359 50.9377C73.2844 52.988 73.3331 55.0382 73.3817 57.0884C73.3636 58.6518 73.1786 60.3053 72.3326 61.6392C71.6376 62.7349 70.4721 63.7183 69.2754 64.0346C68.1937 64.3205 67.0336 64.346 66.1337 63.4115C65.0393 62.2747 64.8791 60.3762 64.8555 58.8899ZM67.584 58.4038C67.5593 59.3023 67.9061 60.9952 69.1934 60.6091C70.4086 60.2446 70.7424 58.8904 70.6933 57.7469C70.6407 55.5819 70.588 53.417 70.5354 51.2519C70.5359 50.2216 70.1861 48.8405 68.9127 48.8971C67.6175 48.9546 67.3568 50.5501 67.4251 51.5653C67.478 53.8449 67.5309 56.1243 67.584 58.4038Z" fill="url(#paint34_linear)"/>
<path d="M73.5418 47.0009C73.532 46.5839 73.5929 46.2202 73.7247 45.9143C73.8566 45.6083 74.0556 45.4572 74.3223 45.4562C76.8243 45.448 79.3261 45.4388 81.8281 45.4285C82.0944 45.4274 82.2976 45.5448 82.4366 45.7751C82.5755 46.0054 82.6446 46.275 82.6446 46.59C82.6446 46.9278 82.5728 47.2164 82.4299 47.4615C82.2871 47.707 82.0899 47.8452 81.8384 47.8704C81.0482 47.9498 80.2574 48.026 79.4664 48.0988C79.5141 51.6638 79.5617 55.2289 79.6093 58.7939C79.6134 59.0959 79.4896 59.3899 79.2383 59.6787C78.9868 59.9679 78.6843 60.2007 78.3296 60.3687C77.9744 60.537 77.6669 60.5922 77.4071 60.531C77.1471 60.4697 77.0133 60.2706 77.0068 59.9428C76.9304 56.0738 76.8539 52.2047 76.7775 48.3357C75.9829 48.4025 75.1878 48.4662 74.3926 48.5264C74.1388 48.5458 73.9363 48.4104 73.7849 48.1157C73.6332 47.821 73.5523 47.448 73.5418 47.0009Z" fill="url(#paint35_linear)"/>
<path d="M22.9191 40.4447H19.8361C19.0184 40.4447 18.3555 39.7818 18.3555 38.9641C18.3555 38.1463 19.0184 37.4834 19.8361 37.4834H22.9191C23.7368 37.4834 24.3997 38.1463 24.3997 38.9641C24.3997 39.7819 23.7368 40.4447 22.9191 40.4447Z" fill="url(#paint36_linear)"/>
<path d="M78.9872 40.4447H75.9042C75.0865 40.4447 74.4236 39.7818 74.4236 38.9641C74.4236 38.1463 75.0865 37.4834 75.9042 37.4834H78.9872C79.8049 37.4834 80.4678 38.1463 80.4678 38.9641C80.4678 39.7819 79.8049 40.4447 78.9872 40.4447Z" fill="url(#paint37_linear)"/>
<path d="M30.8522 21.2779L28.6722 19.0979C28.094 18.5197 28.094 17.5822 28.6722 17.004C29.2505 16.4258 30.1879 16.4258 30.7662 17.004L32.9462 19.184C33.5244 19.7622 33.5244 20.6997 32.9462 21.2779C32.368 21.8562 31.4305 21.8562 30.8522 21.2779Z" fill="url(#paint38_linear)"/>
<path d="M68.1067 21.2779L70.2867 19.0979C70.865 18.5197 70.865 17.5822 70.2867 17.004C69.7085 16.4258 68.7709 16.4258 68.1928 17.004L66.0128 19.184C65.4345 19.7622 65.4345 20.6997 66.0128 21.2779C66.591 21.8562 67.5285 21.8562 68.1067 21.2779Z" fill="url(#paint39_linear)"/>
<path d="M51.2916 81.3602V71.3324C51.2916 70.2942 50.4499 69.4525 49.4117 69.4525C48.3734 69.4525 47.5317 70.2942 47.5317 71.3324V81.3602C47.5317 82.3984 48.3734 83.2401 49.4117 83.2401C50.4499 83.2401 51.2916 82.3984 51.2916 81.3602Z" fill="url(#paint40_linear)"/>
<path d="M27.861 73.7547L32.3853 69.2303C33.1194 68.4962 33.1194 67.3059 32.3853 66.5718C31.6512 65.8377 30.4609 65.8377 29.7268 66.5718L25.2024 71.0962C24.4683 71.8303 24.4683 73.0206 25.2024 73.7547C25.9365 74.4888 27.1267 74.4888 27.861 73.7547Z" fill="url(#paint41_linear)"/>
<path d="M68.997 71.7892L70.9625 73.7547C71.6966 74.4888 72.887 74.4888 73.6211 73.7547C74.3552 73.0206 74.3552 71.8303 73.6211 71.0962L71.6555 69.1307C70.9214 68.3966 69.7311 68.3966 68.997 69.1307C68.2627 69.8648 68.2627 71.0551 68.997 71.7892Z" fill="url(#paint42_linear)"/>
<path d="M37.5743 75.0484C38.2719 75.3853 38.5486 76.2352 38.183 76.9182L36.1384 80.7379C35.7982 81.4089 34.9783 81.6773 34.3074 81.337C33.8344 81.0971 33.5605 80.6172 33.5605 80.1213C33.5605 79.9139 33.608 79.7037 33.7083 79.5059L35.7807 75.6326C36.1253 74.9885 36.9165 74.7307 37.5743 75.0484Z" fill="url(#paint43_linear)"/>
<path d="M41.6888 70.029C41.6888 70.2364 41.6413 70.4466 41.541 70.6444L41.2671 71.1559C40.9225 71.7995 40.1317 72.0571 39.474 71.74C38.7762 71.4034 38.4991 70.5534 38.8645 69.8702L39.1094 69.4124C39.4495 68.7414 40.2697 68.473 40.9418 68.8133C41.4149 69.053 41.6888 69.5329 41.6888 70.029Z" fill="url(#paint44_linear)"/>
<path d="M57.2825 70.6442L62.6847 80.7378C63.0249 81.4091 63.845 81.6775 64.5163 81.3373C65.1876 80.997 65.456 80.177 65.1158 79.5057L59.7136 69.412C59.3734 68.7407 58.5533 68.4723 57.882 68.8125C57.2107 69.1528 56.9423 69.9728 57.2825 70.6442Z" fill="url(#paint45_linear)"/>
</g>
<defs>
<filter id="filter0_d" x="0" y="0" width="99" height="99" filterUnits="userSpaceOnUse" color-interpolation-filters="sRGB">
<feFlood flood-opacity="0" result="BackgroundImageFix"/>
<feColorMatrix in="SourceAlpha" type="matrix" values="0 0 0 0 0 0 0 0 0 0 0 0 0 0 0 0 0 0 127 0"/>
<feOffset/>
<feGaussianBlur stdDeviation="7.5"/>
<feColorMatrix type="matrix" values="0 0 0 0 0 0 0 0 0 0 0 0 0 0 0 0 0 0 0.6 0"/>
<feBlend mode="normal" in2="BackgroundImageFix" result="effect1_dropShadow"/>
<feBlend mode="normal" in="SourceGraphic" in2="effect1_dropShadow" result="shape"/>
</filter>
<linearGradient id="paint0_linear" x1="49.4116" y1="25.5373" x2="49.4116" y2="34.4375" gradientUnits="userSpaceOnUse">
<stop stop-color="#FFA325"/>
<stop offset="1" stop-color="#FF7044"/>
</linearGradient>
<linearGradient id="paint1_linear" x1="48.8987" y1="25.507" x2="54.9651" y2="45.2892" gradientUnits="userSpaceOnUse">
<stop stop-color="#FFD945"/>
<stop offset="0.3043" stop-color="#FFCD3E"/>
<stop offset="0.8558" stop-color="#FFAD2B"/>
<stop offset="1" stop-color="#FFA325"/>
</linearGradient>
<linearGradient id="paint2_linear" x1="58.3545" y1="46.1713" x2="39.4576" y2="16.5623" gradientUnits="userSpaceOnUse">
<stop stop-color="#FFD945" stop-opacity="0"/>
<stop offset="1" stop-color="#FBED21"/>
</linearGradient>
<linearGradient id="paint3_linear" x1="61.8573" y1="35.7466" x2="51.3701" y2="3.02656" gradientUnits="userSpaceOnUse">
<stop stop-color="#E87264" stop-opacity="0"/>
<stop offset="1" stop-color="#FF7044"/>
</linearGradient>
<radialGradient id="paint4_radial" cx="0" cy="0" r="1" gradientUnits="userSpaceOnUse" gradientTransform="translate(48.5381 17.6284) scale(3.77958)">
<stop stop-color="#FFD945"/>
<stop offset="0.4169" stop-color="#FFD744"/>
<stop offset="0.6278" stop-color="#FFCF3F"/>
<stop offset="0.7926" stop-color="#FFC237"/>
<stop offset="0.9326" stop-color="#FFAF2C"/>
<stop offset="1" stop-color="#FFA325"/>
</radialGradient>
<linearGradient id="paint5_linear" x1="49.9387" y1="19.3204" x2="46.31" y2="15.6917" gradientUnits="userSpaceOnUse">
<stop stop-color="#FFD945" stop-opacity="0"/>
<stop offset="1" stop-color="#FBED21"/>
</linearGradient>
<linearGradient id="paint6_linear" x1="50.7002" y1="18.9072" x2="56.3509" y2="14.1243" gradientUnits="userSpaceOnUse">
<stop stop-color="#E87264" stop-opacity="0"/>
<stop offset="1" stop-color="#FF7044"/>
</linearGradient>
<linearGradient id="paint7_linear" x1="49.4117" y1="17.8605" x2="49.4117" y2="15.0001" gradientUnits="userSpaceOnUse">
<stop stop-color="white" stop-opacity="0"/>
<stop offset="1" stop-color="white"/>
</linearGradient>
<radialGradient id="paint8_radial" cx="0" cy="0" r="1" gradientUnits="userSpaceOnUse" gradientTransform="translate(24.5896 23.3695) scale(3.77958)">
<stop stop-color="#FFD945"/>
<stop offset="0.4169" stop-color="#FFD744"/>
<stop offset="0.6278" stop-color="#FFCF3F"/>
<stop offset="0.7926" stop-color="#FFC237"/>
<stop offset="0.9326" stop-color="#FFAF2C"/>
<stop offset="1" stop-color="#FFA325"/>
</radialGradient>
<linearGradient id="paint9_linear" x1="25.9902" y1="25.0613" x2="22.3616" y2="21.4327" gradientUnits="userSpaceOnUse">
<stop stop-color="#FFD945" stop-opacity="0"/>
<stop offset="1" stop-color="#FBED21"/>
</linearGradient>
<linearGradient id="paint10_linear" x1="26.7519" y1="24.6484" x2="32.4024" y2="19.8655" gradientUnits="userSpaceOnUse">
<stop stop-color="#E87264" stop-opacity="0"/>
<stop offset="1" stop-color="#FF7044"/>
</linearGradient>
<linearGradient id="paint11_linear" x1="25.4633" y1="23.6015" x2="25.4633" y2="20.7411" gradientUnits="userSpaceOnUse">
<stop stop-color="white" stop-opacity="0"/>
<stop offset="1" stop-color="white"/>
</linearGradient>
<radialGradient id="paint12_radial" cx="0" cy="0" r="1" gradientUnits="userSpaceOnUse" gradientTransform="translate(72.4863 23.3694) scale(3.77957)">
<stop stop-color="#FFD945"/>
<stop offset="0.4169" stop-color="#FFD744"/>
<stop offset="0.6278" stop-color="#FFCF3F"/>
<stop offset="0.7926" stop-color="#FFC237"/>
<stop offset="0.9326" stop-color="#FFAF2C"/>
<stop offset="1" stop-color="#FFA325"/>
</radialGradient>
<linearGradient id="paint13_linear" x1="73.887" y1="25.0613" x2="70.2584" y2="21.4327" gradientUnits="userSpaceOnUse">
<stop stop-color="#FFD945" stop-opacity="0"/>
<stop offset="1" stop-color="#FBED21"/>
</linearGradient>
<linearGradient id="paint14_linear" x1="74.6485" y1="24.6484" x2="80.299" y2="19.8655" gradientUnits="userSpaceOnUse">
<stop stop-color="#E87264" stop-opacity="0"/>
<stop offset="1" stop-color="#FF7044"/>
</linearGradient>
<linearGradient id="paint15_linear" x1="73.3599" y1="23.6015" x2="73.3599" y2="20.7411" gradientUnits="userSpaceOnUse">
<stop stop-color="white" stop-opacity="0"/>
<stop offset="1" stop-color="white"/>
</linearGradient>
<radialGradient id="paint16_radial" cx="0" cy="0" r="1" gradientUnits="userSpaceOnUse" gradientTransform="translate(35.8973 22.0713) scale(3.77958)">
<stop stop-color="#FFA325"/>
<stop offset="0.4235" stop-color="#FFA126"/>
<stop offset="0.6378" stop-color="#FF992B"/>
<stop offset="0.8052" stop-color="#FF8C33"/>
<stop offset="0.9474" stop-color="#FF793E"/>
<stop offset="1" stop-color="#FF7044"/>
</radialGradient>
<linearGradient id="paint17_linear" x1="37.2978" y1="23.7632" x2="33.6691" y2="20.1345" gradientUnits="userSpaceOnUse">
<stop stop-color="#FF7044" stop-opacity="0"/>
<stop offset="1" stop-color="#FFD945"/>
</linearGradient>
<linearGradient id="paint18_linear" x1="38.0595" y1="23.3501" x2="43.7102" y2="18.5673" gradientUnits="userSpaceOnUse">
<stop stop-color="#F35227" stop-opacity="0"/>
<stop offset="1" stop-color="#F35227"/>
</linearGradient>
<linearGradient id="paint19_linear" x1="36.7708" y1="22.3034" x2="36.7708" y2="19.443" gradientUnits="userSpaceOnUse">
<stop stop-color="white" stop-opacity="0"/>
<stop offset="1" stop-color="white"/>
</linearGradient>
<radialGradient id="paint20_radial" cx="0" cy="0" r="1" gradientUnits="userSpaceOnUse" gradientTransform="translate(61.1787 22.0713) scale(3.77958)">
<stop stop-color="#FFA325"/>
<stop offset="0.4235" stop-color="#FFA126"/>
<stop offset="0.6378" stop-color="#FF992B"/>
<stop offset="0.8052" stop-color="#FF8C33"/>
<stop offset="0.9474" stop-color="#FF793E"/>
<stop offset="1" stop-color="#FF7044"/>
</radialGradient>
<linearGradient id="paint21_linear" x1="62.5796" y1="23.7632" x2="58.9509" y2="20.1345" gradientUnits="userSpaceOnUse">
<stop stop-color="#FF7044" stop-opacity="0"/>
<stop offset="1" stop-color="#FFD945"/>
</linearGradient>
<linearGradient id="paint22_linear" x1="63.3409" y1="23.3501" x2="68.9914" y2="18.5673" gradientUnits="userSpaceOnUse">
<stop stop-color="#F35227" stop-opacity="0"/>
<stop offset="1" stop-color="#F35227"/>
</linearGradient>
<linearGradient id="paint23_linear" x1="62.0525" y1="22.3034" x2="62.0525" y2="19.443" gradientUnits="userSpaceOnUse">
<stop stop-color="white" stop-opacity="0"/>
<stop offset="1" stop-color="white"/>
</linearGradient>
<linearGradient id="paint24_linear" x1="49.4116" y1="42.7395" x2="49.4116" y2="50.4867" gradientUnits="userSpaceOnUse">
<stop stop-color="#FF7044"/>
<stop offset="1" stop-color="#F82814"/>
</linearGradient>
<linearGradient id="paint25_linear" x1="49.4118" y1="47.181" x2="49.4118" y2="50.6857" gradientUnits="userSpaceOnUse">
<stop stop-color="#FFD945"/>
<stop offset="0.3043" stop-color="#FFCD3E"/>
<stop offset="0.8558" stop-color="#FFAD2B"/>
<stop offset="1" stop-color="#FFA325"/>
</linearGradient>
<linearGradient id="paint26_linear" x1="49.4118" y1="40.6715" x2="49.4118" y2="44.176" gradientUnits="userSpaceOnUse">
<stop stop-color="#FFD945"/>
<stop offset="0.3043" stop-color="#FFCD3E"/>
<stop offset="0.8558" stop-color="#FFAD2B"/>
<stop offset="1" stop-color="#FFA325"/>
</linearGradient>
<linearGradient id="paint27_linear" x1="44.4342" y1="36.2357" x2="55.8226" y2="69.0663" gradientUnits="userSpaceOnUse">
<stop stop-color="#E4F2FF"/>
<stop offset="1" stop-color="#B2CBFF"/>
</linearGradient>
<linearGradient id="paint28_linear" x1="62.1714" y1="70.852" x2="36.7254" y2="31.1705" gradientUnits="userSpaceOnUse">
<stop stop-color="#E4F2FF"/>
<stop offset="1" stop-color="#B2CBFF"/>
</linearGradient>
<linearGradient id="paint29_linear" x1="23.8361" y1="60.1521" x2="28.9384" y2="74.8655" gradientUnits="userSpaceOnUse">
<stop stop-color="#FF7044"/>
<stop offset="1" stop-color="#F82814"/>
</linearGradient>
<linearGradient id="paint30_linear" x1="30.1391" y1="57.9665" x2="35.2413" y2="72.6798" gradientUnits="userSpaceOnUse">
<stop stop-color="#FF7044"/>
<stop offset="1" stop-color="#F82814"/>
</linearGradient>
<linearGradient id="paint31_linear" x1="39.8575" y1="54.5963" x2="44.9597" y2="69.3096" gradientUnits="userSpaceOnUse">
<stop stop-color="#FF7044"/>
<stop offset="1" stop-color="#F82814"/>
</linearGradient>
<linearGradient id="paint32_linear" x1="48.1003" y1="51.7379" x2="53.2025" y2="66.4513" gradientUnits="userSpaceOnUse">
<stop stop-color="#FF7044"/>
<stop offset="1" stop-color="#F82814"/>
</linearGradient>
<linearGradient id="paint33_linear" x1="56.5985" y1="48.791" x2="61.7007" y2="63.5043" gradientUnits="userSpaceOnUse">
<stop stop-color="#FF7044"/>
<stop offset="1" stop-color="#F82814"/>
</linearGradient>
<linearGradient id="paint34_linear" x1="65.7454" y1="45.619" x2="70.8476" y2="60.3324" gradientUnits="userSpaceOnUse">
<stop stop-color="#FF7044"/>
<stop offset="1" stop-color="#F82814"/>
</linearGradient>
<linearGradient id="paint35_linear" x1="75.9718" y1="42.0728" x2="81.074" y2="56.7861" gradientUnits="userSpaceOnUse">
<stop stop-color="#FF7044"/>
<stop offset="1" stop-color="#F82814"/>
</linearGradient>
<linearGradient id="paint36_linear" x1="21.3775" y1="38.6192" x2="21.3775" y2="41.666" gradientUnits="userSpaceOnUse">
<stop stop-color="#92F37F"/>
<stop offset="1" stop-color="#4AB272"/>
</linearGradient>
<linearGradient id="paint37_linear" x1="77.4456" y1="38.6192" x2="77.4456" y2="41.666" gradientUnits="userSpaceOnUse">
<stop stop-color="#00ADFB"/>
<stop offset="1" stop-color="#3F3CED"/>
</linearGradient>
<linearGradient id="paint38_linear" x1="31.0403" y1="18.888" x2="28.8862" y2="21.0421" gradientUnits="userSpaceOnUse">
<stop stop-color="#00ADFB"/>
<stop offset="1" stop-color="#3F3CED"/>
</linearGradient>
<linearGradient id="paint39_linear" x1="67.8903" y1="18.888" x2="70.0444" y2="21.0421" gradientUnits="userSpaceOnUse">
<stop stop-color="#92F37F"/>
<stop offset="1" stop-color="#4AB272"/>
</linearGradient>
<linearGradient id="paint40_linear" x1="48.9738" y1="76.3463" x2="52.8421" y2="76.3463" gradientUnits="userSpaceOnUse">
<stop stop-color="#92F37F"/>
<stop offset="1" stop-color="#4AB272"/>
</linearGradient>
<linearGradient id="paint41_linear" x1="28.482" y1="69.8465" x2="31.2168" y2="72.5813" gradientUnits="userSpaceOnUse">
<stop stop-color="#00ADFB"/>
<stop offset="1" stop-color="#3F3CED"/>
</linearGradient>
<linearGradient id="paint42_linear" x1="71.6195" y1="71.1246" x2="68.8847" y2="73.8594" gradientUnits="userSpaceOnUse">
<stop stop-color="#FFD945"/>
<stop offset="0.3043" stop-color="#FFCD3E"/>
<stop offset="0.8558" stop-color="#FFAD2B"/>
<stop offset="1" stop-color="#FFA325"/>
</linearGradient>
<linearGradient id="paint43_linear" x1="35.9525" y1="77.4332" x2="35.9525" y2="84.1946" gradientUnits="userSpaceOnUse">
<stop stop-color="#FFD945"/>
<stop offset="0.3043" stop-color="#FFCD3E"/>
<stop offset="0.8558" stop-color="#FFAD2B"/>
<stop offset="1" stop-color="#FFA325"/>
</linearGradient>
<linearGradient id="paint44_linear" x1="40.196" y1="69.8969" x2="40.196" y2="73.1991" gradientUnits="userSpaceOnUse">
<stop stop-color="#92F37F"/>
<stop offset="1" stop-color="#4AB272"/>
</linearGradient>
<linearGradient id="paint45_linear" x1="61.5155" y1="74.9225" x2="58.78" y2="76.3086" gradientUnits="userSpaceOnUse">
<stop stop-color="#00ADFB"/>
<stop offset="1" stop-color="#3F3CED"/>
</linearGradient>
<clipPath id="clip0">
<rect width="69" height="69" fill="white" transform="translate(15 15)"/>
</clipPath>
</defs>
</svg>
