<svg width="226" height="212" viewBox="0 0 226 212" fill="none" xmlns="http://www.w3.org/2000/svg">
<path d="M16.4509 110.031C30.1733 161.243 34.6945 190.553 118.837 182.501C172.477 177.367 192.441 177.557 207.566 158.726C222.117 140.609 213.444 118.842 206.715 93.7312C192.993 42.5185 158.446 6.24307 107.234 19.9655C56.0209 33.6879 2.72851 58.8179 16.4509 110.031Z" fill="#333653"/>
<g clip-path="url(#clip0)" filter="url(#filter0_d)">
<path d="M171.293 150.367H59.707C57.6597 150.367 56 148.707 56 146.66V63.8081C56 61.7608 57.6597 60.1011 59.707 60.1011H171.293C173.34 60.1011 175 61.7608 175 63.8081V146.659C175 148.707 173.34 150.367 171.293 150.367Z" fill="url(#paint0_linear)"/>
<path d="M171.293 150.367H59.707C57.6597 150.367 56 148.707 56 146.66V63.8081C56 61.7608 57.6597 60.1011 59.707 60.1011H171.293C173.34 60.1011 175 61.7608 175 63.8081V146.659C175 148.707 173.34 150.367 171.293 150.367Z" fill="url(#paint1_linear)"/>
<path d="M175 63.8078V146.66C175 148.706 173.341 150.368 171.292 150.368H123.748L67.7832 94.4025V60.1002H171.292C173.341 60.1002 175 61.7615 175 63.8078Z" fill="url(#paint2_linear)"/>
<path d="M56 122.5V146.66C56 148.707 57.6597 150.367 59.707 150.367H171.293C173.34 150.367 175 148.707 175 146.66V122.5H56Z" fill="url(#paint3_linear)"/>
<path d="M167.571 72.8546C164.851 72.4267 162.676 70.2518 162.247 67.5321C162.243 67.5097 162.24 67.4873 162.237 67.4649C162.01 65.9239 160.717 64.7675 159.159 64.7675H71.8411C70.2836 64.7675 68.9904 65.9239 68.7636 67.4649C68.7604 67.4873 68.7569 67.5097 68.7534 67.5321C68.3245 70.2518 66.1496 72.4265 63.4296 72.8546C63.4079 72.8581 63.3862 72.8614 63.3645 72.8647C61.8236 73.0915 60.6667 74.3844 60.6667 75.9421V134.526C60.6667 136.083 61.8236 137.376 63.3648 137.603C63.3862 137.606 63.4077 137.61 63.4294 137.613C66.1491 138.041 68.3245 140.215 68.7534 142.935C68.7569 142.958 68.7604 142.98 68.7636 143.003C68.9904 144.544 70.2836 145.7 71.8411 145.7H159.159C160.716 145.7 162.01 144.544 162.237 143.003C162.24 142.98 162.243 142.958 162.247 142.935C162.676 140.215 164.851 138.041 167.571 137.613C167.592 137.61 167.614 137.606 167.635 137.603C169.177 137.376 170.333 136.083 170.333 134.526V75.9421C170.333 74.3844 169.177 73.0915 167.635 72.8647C167.614 72.8614 167.592 72.8581 167.571 72.8546Z" fill="url(#paint4_linear)"/>
<path d="M167.635 72.8647C167.613 72.8614 167.592 72.8581 167.57 72.8546C164.85 72.4265 162.675 70.2518 162.246 67.5321C162.243 67.5097 162.239 67.4873 162.236 67.4649C162.009 65.9239 160.716 64.7675 159.159 64.7675H71.8409C70.2834 64.7675 68.9902 65.9239 68.7634 67.4649C68.7602 67.4873 68.7567 67.5097 68.7532 67.5321C68.6104 68.4388 68.2697 69.2825 67.7832 70.0234V94.4023L119.081 145.7H159.159C160.716 145.7 162.01 144.543 162.236 143.003C162.24 142.98 162.243 142.957 162.247 142.935C162.676 140.215 164.851 138.04 167.571 137.613C167.592 137.609 167.613 137.606 167.635 137.603C169.176 137.376 170.333 136.083 170.333 134.525V75.9421C170.333 74.3844 169.176 73.0915 167.635 72.8647Z" fill="url(#paint5_linear)"/>
<path d="M60.6667 122.5V134.526C60.6667 136.083 61.8236 137.376 63.3648 137.603C63.3862 137.606 63.4077 137.61 63.4294 137.613C66.1491 138.041 68.3243 140.215 68.7534 142.935C68.7569 142.958 68.7604 142.98 68.7636 143.003C68.9904 144.544 70.2836 145.7 71.8411 145.7H159.159C160.716 145.7 162.01 144.543 162.237 143.003C162.24 142.98 162.243 142.958 162.247 142.935C162.676 140.215 164.851 138.041 167.571 137.613C167.592 137.61 167.614 137.606 167.635 137.603C169.177 137.376 170.333 136.083 170.333 134.526V122.5H60.6667Z" fill="url(#paint6_linear)"/>
<path d="M145.476 92.1364H85.5243C84.7685 92.1364 84.1558 92.7491 84.1558 93.5049V99.0596C84.1558 99.8154 84.7685 100.428 85.5243 100.428H145.476C146.232 100.428 146.845 99.8154 146.845 99.0596V93.5049C146.845 92.7491 146.232 92.1364 145.476 92.1364Z" fill="#7A8C98"/>
<path d="M145.476 109.912H85.5243C84.7685 109.912 84.1558 110.525 84.1558 111.281V116.835C84.1558 117.591 84.7685 118.204 85.5243 118.204H145.476C146.232 118.204 146.845 117.591 146.845 116.835V111.281C146.845 110.525 146.232 109.912 145.476 109.912Z" fill="#7A8C98"/>
<path d="M128.672 127.688H102.328C101.572 127.688 100.96 128.301 100.96 129.056V134.611C100.96 135.367 101.572 135.98 102.328 135.98H128.672C129.428 135.98 130.041 135.367 130.041 134.611V129.056C130.041 128.301 129.428 127.688 128.672 127.688Z" fill="#7A8C98"/>
<path d="M128.672 74.488H102.328C101.572 74.488 100.96 75.1007 100.96 75.8565V81.4112C100.96 82.167 101.572 82.7797 102.328 82.7797H128.672C129.428 82.7797 130.041 82.167 130.041 81.4112V75.8565C130.041 75.1007 129.428 74.488 128.672 74.488Z" fill="url(#paint7_linear)"/>
<path d="M145.476 92.1364H85.5243C84.7685 92.1364 84.1558 92.7491 84.1558 93.5049V99.0596C84.1558 99.8154 84.7685 100.428 85.5243 100.428H145.476C146.232 100.428 146.845 99.8154 146.845 99.0596V93.5049C146.845 92.7491 146.232 92.1364 145.476 92.1364Z" fill="url(#paint8_linear)"/>
<path d="M145.477 109.912H85.5239C84.9196 109.912 84.4086 110.304 84.2266 110.846L91.5859 118.205H145.477C146.233 118.205 146.844 117.591 146.844 116.835V111.28C146.844 110.526 146.233 109.912 145.477 109.912Z" fill="url(#paint9_linear)"/>
<path d="M128.672 127.688H102.328C101.978 127.688 101.661 127.818 101.418 128.038L109.361 135.98H128.672C129.428 135.98 130.041 135.367 130.041 134.611V129.057C130.041 128.301 129.428 127.688 128.672 127.688Z" fill="url(#paint10_linear)"/>
<path d="M81.1704 86.3478L89.0006 94.178C90.2907 95.4681 92.4966 94.5544 92.4966 92.73V60.9696C92.4966 59.6788 91.4503 58.6325 90.1595 58.6325H69.2848C67.994 58.6325 66.9478 59.6788 66.9478 60.9696V92.7297C66.9478 94.5542 69.1537 95.4679 70.4438 94.1778L78.274 86.3476C79.0739 85.548 80.3705 85.548 81.1704 86.3478Z" fill="url(#paint11_linear)"/>
</g>
<defs>
<filter id="filter0_d" x="41" y="30" width="149" height="149" filterUnits="userSpaceOnUse" color-interpolation-filters="sRGB">
<feFlood flood-opacity="0" result="BackgroundImageFix"/>
<feColorMatrix in="SourceAlpha" type="matrix" values="0 0 0 0 0 0 0 0 0 0 0 0 0 0 0 0 0 0 127 0"/>
<feOffset/>
<feGaussianBlur stdDeviation="7.5"/>
<feColorMatrix type="matrix" values="0 0 0 0 1 0 0 0 0 0.823529 0 0 0 0 0 0 0 0 0.2 0"/>
<feBlend mode="normal" in2="BackgroundImageFix" result="effect1_dropShadow"/>
<feBlend mode="normal" in="SourceGraphic" in2="effect1_dropShadow" result="shape"/>
</filter>
<linearGradient id="paint0_linear" x1="85.6492" y1="67.5277" x2="178.759" y2="185.139" gradientUnits="userSpaceOnUse">
<stop stop-color="#FEF056"/>
<stop offset="1" stop-color="#FE860A"/>
</linearGradient>
<linearGradient id="paint1_linear" x1="85.6492" y1="67.5277" x2="178.759" y2="185.139" gradientUnits="userSpaceOnUse">
<stop stop-color="#FEF056"/>
<stop offset="1" stop-color="#FE860A"/>
</linearGradient>
<linearGradient id="paint2_linear" x1="156.235" y1="110.104" x2="62.6685" y2="54.5707" gradientUnits="userSpaceOnUse">
<stop stop-color="#FE860A" stop-opacity="0"/>
<stop offset="0.8425" stop-color="#FE7A03" stop-opacity="0.843"/>
<stop offset="1" stop-color="#FE7701"/>
</linearGradient>
<linearGradient id="paint3_linear" x1="115.5" y1="129.967" x2="115.5" y2="150.548" gradientUnits="userSpaceOnUse">
<stop stop-color="#FE860A" stop-opacity="0"/>
<stop offset="0.8425" stop-color="#FE7A03" stop-opacity="0.843"/>
<stop offset="1" stop-color="#FE7701"/>
</linearGradient>
<linearGradient id="paint4_linear" x1="90.4235" y1="73.5581" x2="168.641" y2="172.359" gradientUnits="userSpaceOnUse">
<stop stop-color="#EDF5FF"/>
<stop offset="1" stop-color="#C7E9FF"/>
</linearGradient>
<linearGradient id="paint5_linear" x1="150.463" y1="112.117" x2="61.7968" y2="56.1169" gradientUnits="userSpaceOnUse">
<stop stop-color="white" stop-opacity="0"/>
<stop offset="0.3432" stop-color="#CDE0F3" stop-opacity="0.343"/>
<stop offset="0.7872" stop-color="#92BAE4" stop-opacity="0.787"/>
<stop offset="1" stop-color="#7BACDF"/>
</linearGradient>
<linearGradient id="paint6_linear" x1="115.5" y1="129.267" x2="115.5" y2="150.267" gradientUnits="userSpaceOnUse">
<stop stop-color="white" stop-opacity="0"/>
<stop offset="0.3432" stop-color="#CDE0F3" stop-opacity="0.343"/>
<stop offset="0.7872" stop-color="#92BAE4" stop-opacity="0.787"/>
<stop offset="1" stop-color="#7BACDF"/>
</linearGradient>
<linearGradient id="paint7_linear" x1="115.413" y1="74.2815" x2="115.646" y2="85.9484" gradientUnits="userSpaceOnUse">
<stop stop-color="#01C0FA"/>
<stop offset="1" stop-color="#0290CF"/>
</linearGradient>
<linearGradient id="paint8_linear" x1="146.592" y1="115.838" x2="51.6249" y2="56.105" gradientUnits="userSpaceOnUse">
<stop stop-color="#444444" stop-opacity="0"/>
<stop offset="1"/>
</linearGradient>
<linearGradient id="paint9_linear" x1="139.495" y1="127.121" x2="44.5287" y2="67.3874" gradientUnits="userSpaceOnUse">
<stop stop-color="#444444" stop-opacity="0"/>
<stop offset="1"/>
</linearGradient>
<linearGradient id="paint10_linear" x1="131.622" y1="139.638" x2="36.6549" y2="79.9048" gradientUnits="userSpaceOnUse">
<stop stop-color="#444444" stop-opacity="0"/>
<stop offset="1"/>
</linearGradient>
<linearGradient id="paint11_linear" x1="64.8102" y1="61.8807" x2="96.3144" y2="93.3849" gradientUnits="userSpaceOnUse">
<stop stop-color="#FFA799"/>
<stop offset="1" stop-color="#FE0364"/>
</linearGradient>
<clipPath id="clip0">
<rect width="119" height="119" fill="white" transform="translate(56 45)"/>
</clipPath>
</defs>
</svg>
