<svg width="69" height="24" viewBox="0 0 69 24" fill="none" xmlns="http://www.w3.org/2000/svg">
<path d="M36.5187 0H35.8274V24H36.5187V19.3768H45.268V16.5779H38.536V13.3598H44.2934V10.5382H38.536V7.4221H45.268V4.60057H36.5187V0ZM9.28469 13.6657L6.80269 9.64306L3.61803 4.65722L3.58403 4.6119H0.943359V19.3768H3.87869V10.3003L6.06603 13.8357L9.57936 19.3768H12.2427V4.6119H9.29603V13.6657H9.28469ZM13.886 19.3768H23.5647V16.5779H16.8327V13.3598H22.59V10.5382H16.8327V7.4221H23.5647V4.60057H13.886V19.3768ZM24.7547 7.45609H28.1434V19.3881H31.09V7.45609H34.456V4.6119H24.7547V7.45609ZM55.094 13.6884L52.612 9.66572L49.4274 4.67989L49.3934 4.62323H46.7527V19.3881H49.6767V10.3116L51.864 13.847L55.3774 19.3881H58.0407V4.63456H55.094V13.6884ZM59.242 4.63456V7.47875H62.6307V19.4108H65.5774V7.47875H68.9434V4.63456H59.242Z" fill="white"/>
</svg>
