<svg width="28" height="28" viewBox="0 0 28 28" fill="none" xmlns="http://www.w3.org/2000/svg">
<path d="M25.2387 26.9121L25.2388 26.9121C25.4894 27.1626 25.8956 27.1626 26.1462 26.9121L26.1463 26.9121L26.9121 26.1462L26.8414 26.0755L26.9121 26.1462C27.1626 25.8956 27.1627 25.4893 26.912 25.2387L19.4226 17.7493C20.8351 15.9746 21.6834 13.7313 21.6834 11.2917C21.6834 5.56166 17.0217 0.9 11.2917 0.9C5.56161 0.9 0.9 5.56166 0.9 11.2917C0.9 17.0218 5.56166 21.6834 11.2917 21.6834C13.7313 21.6834 15.9746 20.8351 17.7493 19.4227L25.2387 26.9121ZM11.2917 19.3167C6.86655 19.3167 3.26669 15.7169 3.26669 11.2917C3.26669 6.86655 6.86655 3.26669 11.2917 3.26669C15.7169 3.26669 19.3167 6.86655 19.3167 11.2917C19.3167 15.7169 15.7169 19.3167 11.2917 19.3167Z" fill="white" stroke="white" stroke-width="0.2"/>
</svg>
