<svg width="76" height="76" viewBox="0 0 76 76" fill="none" xmlns="http://www.w3.org/2000/svg">
<path d="M42.1433 72.9758L38.8437 74.71C38.3157 74.9875 37.685 74.9875 37.1568 74.71L33.8572 72.9758C15.7392 63.4529 4.58252 45.8803 4.58252 26.8662V15.2518C4.58252 14.3334 5.26815 13.5481 6.18149 13.4517C12.4265 12.7928 17.3916 8.32203 18.183 2.66775C18.3096 1.76302 19.0678 1.08154 19.9813 1.08154H56.0195C56.933 1.08154 57.6912 1.76302 57.8178 2.66775C58.6092 8.32203 63.5742 12.793 69.8193 13.4517C70.7326 13.5481 71.4183 14.3334 71.4183 15.2518V26.8662C71.4181 45.8803 60.2613 63.4529 42.1433 72.9758Z" fill="#E1E6E9"/>
<path d="M69.8192 13.4519C63.5742 12.793 58.6091 8.32218 57.8178 2.66775C57.6912 1.76302 56.9329 1.08154 56.0195 1.08154H53.5659C53.9194 8.92083 59.5054 14.4806 65.5494 15.1182C66.4628 15.2146 67.1484 15.9998 67.1484 16.9183V28.5327C67.1484 47.5468 55.9916 65.1194 37.8736 74.6423L37.4927 74.8425C37.9393 74.973 38.4238 74.931 38.8439 74.7101L42.1435 72.9759C60.2615 63.4531 71.4184 45.8804 71.4184 26.8663V15.252C71.4182 14.3335 70.7326 13.5482 69.8192 13.4519Z" fill="#CBCBCB"/>
<path d="M36.7774 68.3188C28.5615 64.0006 21.7278 57.7943 17.0147 50.371C12.3573 43.0353 9.89551 34.6988 9.89551 26.2628V19.6704C9.89551 18.7164 10.4749 17.8553 11.3619 17.5044C16.248 15.571 20.191 11.9417 22.3473 7.4078C22.7316 6.59986 23.5528 6.09131 24.4474 6.09131H51.5527C52.4473 6.09131 53.2685 6.6 53.6528 7.4078C55.8093 11.9417 59.7521 15.571 64.6384 17.5044C65.5254 17.8554 66.1048 18.7165 66.1048 19.6704V26.2628C66.1048 34.6988 63.6431 43.0353 58.9857 50.371C54.2727 57.7943 47.4388 64.0006 39.2232 68.3188L39.0865 68.3907C38.4065 68.7481 37.5941 68.7481 36.9141 68.3907L36.7774 68.3188Z" fill="#4AD194"/>
<path d="M64.6383 17.5047C64.6 17.4895 64.5623 17.4733 64.5242 17.4581C64.4606 17.4325 64.3975 17.4065 64.3343 17.3804C64.2264 17.3357 64.1191 17.2903 64.0122 17.244C63.9504 17.2173 63.8887 17.1906 63.8272 17.1634C63.7131 17.1126 63.5997 17.0607 63.4866 17.0081C63.4354 16.9842 63.3839 16.9611 63.3328 16.9369C63.1701 16.8597 63.0085 16.7809 62.8481 16.6998C62.8361 16.6938 62.8242 16.6872 62.8122 16.6811C62.6639 16.6057 62.5167 16.5287 62.3706 16.45C62.3188 16.4221 62.2676 16.3933 62.216 16.3651C62.1097 16.3068 62.0038 16.248 61.8987 16.1879C61.8405 16.1546 61.7827 16.1208 61.7248 16.0871C61.6256 16.0292 61.527 15.9706 61.4291 15.9112C61.3721 15.8766 61.3152 15.8422 61.2587 15.8071C61.1561 15.7438 61.0546 15.679 60.9533 15.614C60.9041 15.5823 60.8543 15.5511 60.8053 15.519C60.667 15.4285 60.5298 15.3364 60.394 15.2429C60.3839 15.2359 60.3735 15.2293 60.3634 15.2223C60.2175 15.1214 60.0734 15.0185 59.9305 14.9141C59.8858 14.8816 59.842 14.8482 59.7976 14.8153C59.6995 14.7424 59.6017 14.6691 59.5049 14.5947C59.4529 14.5548 59.4014 14.5142 59.3499 14.4739C59.2606 14.4037 59.1716 14.3329 59.0835 14.2613C59.0321 14.2196 58.9809 14.1779 58.93 14.1359C58.8397 14.0611 58.7504 13.9854 58.6615 13.9092C58.6159 13.8702 58.5699 13.8313 58.5246 13.7918C58.4148 13.6961 58.3063 13.5988 58.1985 13.5009C58.1762 13.4805 58.1534 13.4608 58.1312 13.4404C58.0021 13.322 57.8749 13.2018 57.7492 13.0802C57.7129 13.0452 57.6775 13.0094 57.6416 12.9741C57.5522 12.8863 57.4633 12.7982 57.3757 12.7089C57.331 12.6634 57.2868 12.6174 57.2426 12.5713C57.164 12.49 57.0862 12.4081 57.0092 12.3254C56.9642 12.2771 56.9194 12.2286 56.8749 12.1799C56.7978 12.0956 56.7217 12.0106 56.6463 11.9249C56.6053 11.8786 56.5642 11.8324 56.5237 11.7858C56.435 11.6837 56.3481 11.5804 56.2617 11.4766C56.2366 11.4465 56.2109 11.4168 56.186 11.3865C56.0754 11.252 55.9669 11.1162 55.86 10.9789C55.8327 10.9437 55.8063 10.9081 55.7791 10.8728C55.7 10.7698 55.6216 10.6664 55.5447 10.5619C55.5078 10.5119 55.4717 10.4613 55.4352 10.4108C55.369 10.3191 55.3034 10.2271 55.2386 10.1342C55.2009 10.0801 55.1637 10.0259 55.1266 9.97147C55.063 9.87825 55.0005 9.78443 54.9388 9.69018C54.9044 9.63778 54.8698 9.58553 54.8359 9.53298C54.7671 9.42581 54.6998 9.31789 54.633 9.20939C54.6085 9.16961 54.5833 9.13012 54.5591 9.09004C54.4693 8.94175 54.3816 8.79228 54.2958 8.64161C54.2777 8.60985 54.2604 8.57749 54.2426 8.54557C54.1755 8.42593 54.1093 8.30585 54.0448 8.18472C54.0163 8.13129 53.9886 8.0774 53.9606 8.02367C53.9078 7.92229 53.8555 7.82046 53.8046 7.71804C53.7753 7.6594 53.7465 7.60062 53.718 7.54169C53.6964 7.49701 53.6737 7.45278 53.6523 7.4078C53.268 6.6 52.4468 6.09131 51.5522 6.09131H38V68.6588C38.373 68.6588 38.7462 68.5694 39.0861 68.3907L39.2228 68.3188C47.4385 64.0006 54.2725 57.7945 58.9855 50.371C63.6429 43.0353 66.1046 34.6988 66.1046 26.2628V19.6704C66.1046 18.7167 65.5254 17.8556 64.6383 17.5047Z" fill="#35B79E"/>
<path d="M64.6383 17.5047C64.6 17.4895 64.5623 17.4733 64.5242 17.4581C64.4606 17.4325 64.3975 17.4065 64.3343 17.3804C64.2264 17.3357 64.1191 17.2903 64.0122 17.244C63.9504 17.2173 63.8887 17.1906 63.8272 17.1634C63.7131 17.1126 63.5997 17.0607 63.4866 17.0081C63.4354 16.9842 63.3839 16.9611 63.3328 16.9369C63.1701 16.8597 63.0085 16.7809 62.8481 16.6998C62.8361 16.6938 62.8242 16.6872 62.8122 16.6811C62.6639 16.6057 62.5167 16.5287 62.3706 16.45C62.3188 16.4221 62.2676 16.3933 62.216 16.3651C62.1097 16.3068 62.0038 16.248 61.8987 16.1879C61.8405 16.1546 61.7827 16.1208 61.7248 16.0871C61.6256 16.0292 61.527 15.9706 61.4291 15.9112C61.3721 15.8766 61.3152 15.8422 61.2587 15.8071C61.1561 15.7438 61.0546 15.679 60.9533 15.614C60.9041 15.5823 60.8543 15.5511 60.8053 15.519C60.667 15.4285 60.5298 15.3364 60.394 15.2429C60.3839 15.2359 60.3735 15.2293 60.3634 15.2223C60.2175 15.1214 60.0734 15.0185 59.9305 14.9141C59.8858 14.8816 59.842 14.8482 59.7976 14.8153C59.6995 14.7424 59.6017 14.6691 59.5049 14.5947C59.4529 14.5548 59.4014 14.5142 59.3499 14.4739C59.2606 14.4037 59.1716 14.3329 59.0835 14.2613C59.0321 14.2196 58.9809 14.1779 58.93 14.1359C58.8397 14.0611 58.7504 13.9854 58.6615 13.9092C58.6159 13.8702 58.5699 13.8313 58.5246 13.7918C58.4148 13.6961 58.3063 13.5988 58.1985 13.5009C58.1762 13.4805 58.1534 13.4608 58.1312 13.4404C58.0021 13.322 57.8749 13.2018 57.7492 13.0802C57.7129 13.0452 57.6775 13.0094 57.6416 12.9741C57.5522 12.8863 57.4633 12.7982 57.3757 12.7089C57.331 12.6634 57.2868 12.6174 57.2426 12.5713C57.164 12.49 57.0862 12.4081 57.0092 12.3254C56.9642 12.2771 56.9194 12.2286 56.8749 12.1799C56.7978 12.0956 56.7217 12.0106 56.6463 11.9249C56.6053 11.8786 56.5642 11.8324 56.5237 11.7858C56.435 11.6837 56.3481 11.5804 56.2617 11.4766C56.2366 11.4465 56.2109 11.4168 56.186 11.3865C56.0754 11.252 55.9669 11.1162 55.86 10.9789C55.8327 10.9437 55.8063 10.9081 55.7791 10.8728C55.7 10.7698 55.6216 10.6664 55.5447 10.5619C55.5078 10.5119 55.4717 10.4613 55.4352 10.4108C55.369 10.3191 55.3034 10.2271 55.2386 10.1342C55.2009 10.0801 55.1637 10.0259 55.1266 9.97146C55.063 9.87825 55.0005 9.78443 54.9388 9.69018C54.9044 9.63778 54.8698 9.58553 54.8359 9.53298C54.7671 9.42581 54.6998 9.31775 54.633 9.20939C54.6085 9.16961 54.5833 9.13012 54.5591 9.09004C54.4693 8.94175 54.3816 8.79228 54.2958 8.64161C54.2777 8.60985 54.2604 8.57749 54.2426 8.54557C54.1755 8.42593 54.1093 8.30585 54.0448 8.18472C54.0163 8.13128 53.9886 8.0774 53.9606 8.02367C53.9078 7.92214 53.8555 7.82046 53.8046 7.71803C53.7753 7.6594 53.7465 7.60062 53.718 7.54169C53.6964 7.49701 53.6737 7.45278 53.6523 7.4078C53.268 6.6 52.4468 6.09131 51.5522 6.09131H47.8012C48.2867 6.70376 48.8325 7.51215 49.4499 8.57853C49.4748 8.62157 49.4938 8.66759 49.5156 8.71242C49.5443 8.77135 49.5731 8.83013 49.6022 8.88876C49.6532 8.99118 49.7053 9.09286 49.7582 9.19439C49.7862 9.24813 49.8138 9.30201 49.8423 9.35545C49.9069 9.47657 49.9731 9.59666 50.0402 9.7163C50.0582 9.74821 50.0752 9.78057 50.0934 9.81234C50.179 9.963 50.2669 10.1125 50.3567 10.2608C50.3809 10.3008 50.4061 10.3403 50.4306 10.3801C50.4972 10.4885 50.5646 10.5965 50.6335 10.7037C50.6674 10.7564 50.7019 10.8085 50.7364 10.8609C50.7983 10.9552 50.8606 11.049 50.9242 11.1422C50.9613 11.1967 50.9985 11.2508 51.0362 11.3049C51.1008 11.3977 51.1664 11.4898 51.2328 11.5816C51.2691 11.632 51.3053 11.6825 51.3423 11.7327C51.4192 11.8372 51.4977 11.9405 51.5767 12.0435C51.6039 12.0788 51.6303 12.1146 51.6576 12.1496C51.7645 12.2868 51.8731 12.4228 51.9836 12.5572C52.0085 12.5875 52.0342 12.6172 52.0593 12.6473C52.1457 12.7513 52.2326 12.8544 52.3212 12.9565C52.3616 13.0032 52.4029 13.0493 52.4439 13.0956C52.5194 13.1811 52.5954 13.2663 52.6725 13.3506C52.717 13.3993 52.7618 13.4479 52.8068 13.4961C52.8838 13.5788 52.9616 13.6606 53.0401 13.7421C53.0844 13.7881 53.1285 13.8341 53.1733 13.8797C53.2609 13.9689 53.3498 14.0571 53.4391 14.1448C53.4751 14.1801 53.5105 14.2159 53.5468 14.2509C53.6725 14.3725 53.7997 14.4927 53.9288 14.6112C53.9509 14.6315 53.9738 14.6514 53.9961 14.6716C54.1037 14.7696 54.2122 14.8666 54.3222 14.9625C54.3675 15.002 54.4135 15.0408 54.459 15.0799C54.548 15.1561 54.6373 15.2318 54.7276 15.3066C54.7785 15.3488 54.8297 15.3905 54.8811 15.432C54.9692 15.5036 55.058 15.5744 55.1475 15.6446C55.199 15.685 55.2505 15.7255 55.3025 15.7654C55.3993 15.8399 55.4969 15.9133 55.5952 15.986C55.6396 16.019 55.6834 16.0522 55.728 16.0849C55.871 16.1892 56.0151 16.2921 56.161 16.393C56.1711 16.4 56.1815 16.4067 56.1916 16.4137C56.3274 16.5072 56.4646 16.5992 56.6029 16.6897C56.6519 16.7218 56.7015 16.7531 56.7509 16.7847C56.8522 16.8498 56.9538 16.9143 57.0563 16.9779C57.1128 17.0129 57.1698 17.0475 57.2267 17.0819C57.3246 17.1413 57.4233 17.1999 57.5224 17.2578C57.5802 17.2917 57.638 17.3254 57.6963 17.3586C57.8014 17.4186 57.9073 17.4775 58.0135 17.5358C58.065 17.5642 58.1163 17.5928 58.1682 17.6207C58.3144 17.6994 58.4615 17.7765 58.6098 17.8519C58.6218 17.8579 58.6337 17.8645 58.6457 17.8706C58.8059 17.9516 58.9677 18.0304 59.1304 18.1076C59.1813 18.1318 59.233 18.1551 59.2842 18.1789C59.3973 18.2314 59.5107 18.2835 59.6248 18.3341C59.6863 18.3614 59.748 18.388 59.8098 18.4147C59.9167 18.461 60.024 18.5065 60.1319 18.5512C60.195 18.5773 60.2582 18.6033 60.3217 18.6288C60.3599 18.6441 60.3976 18.6603 60.4359 18.6754C61.323 19.0263 61.9023 19.8874 61.9023 20.8414V27.4338C61.9023 35.8698 59.4406 44.2063 54.7832 51.542C50.6524 58.0484 44.892 64.2556 38 68.5974V68.6589C38.373 68.6589 38.7462 68.5695 39.0861 68.3908L39.2228 68.319C47.4385 64.0008 54.2725 57.7946 58.9855 50.3711C63.6429 43.0355 66.1046 34.6989 66.1046 26.2629V19.6705C66.1046 18.7167 65.5254 17.8556 64.6383 17.5047Z" fill="#1E9690"/>
<path d="M50.3886 48.2799H25.6947C24.3923 48.2799 23.3364 47.2241 23.3364 45.9217V30.4354C23.3364 29.133 24.3923 28.0771 25.6947 28.0771H50.3886C51.6909 28.0771 52.7468 29.133 52.7468 30.4354V45.9217C52.7468 47.2241 51.6909 48.2799 50.3886 48.2799Z" fill="#636A75"/>
<path d="M50.3885 28.0771H46.1187C47.421 28.0771 48.4769 29.133 48.4769 30.4354V45.9217C48.4769 47.2241 47.421 48.2799 46.1187 48.2799H50.3885C51.6908 48.2799 52.7467 47.2241 52.7467 45.9217V30.4354C52.7467 29.133 51.6908 28.0771 50.3885 28.0771Z" fill="#515A66"/>
<path d="M36.9599 39.2973V42.3769C36.9599 42.9742 37.4441 43.4586 38.0415 43.4586C38.639 43.4586 39.1232 42.9744 39.1232 42.3769V39.2973C39.9806 38.8912 40.5751 38.0206 40.5751 37.009C40.5751 35.6098 39.4409 34.4756 38.0417 34.4756C36.6425 34.4756 35.5083 35.6098 35.5083 37.009C35.5082 38.0206 36.1026 38.8912 36.9599 39.2973Z" fill="black"/>
<path d="M36.274 69.2761L36.4106 69.348C36.9083 69.6095 37.4541 69.7403 38 69.7403C38.5457 69.7403 39.0917 69.6095 39.5891 69.3481L39.7261 69.2761C48.1089 64.8701 55.0845 58.5333 59.8986 50.9506C64.6661 43.4413 67.1861 34.9045 67.1861 26.2628V19.6704C67.1861 18.2602 66.3421 17.0153 65.036 16.4986C60.3797 14.656 56.6839 11.2625 54.6293 6.94322C54.0706 5.76863 52.8629 5.00952 51.5524 5.00952H24.4474C23.137 5.00952 21.9293 5.76848 21.3706 6.94322C19.3162 11.2625 15.6203 14.656 10.9639 16.4986C9.65783 17.0153 8.81396 18.2604 8.81396 19.6704V26.2628C8.81396 34.9047 11.334 43.4415 16.1017 50.9506C20.9156 58.5333 27.8913 64.8702 36.274 69.2761ZM10.977 26.2628V19.6704C10.977 19.1537 11.2843 18.6981 11.7597 18.5101C16.9268 16.4655 21.0336 12.6876 23.3239 7.87244C23.5259 7.44746 23.9669 7.17285 24.4473 7.17285H51.5525C52.0329 7.17285 52.4737 7.44746 52.6759 7.87244C54.9663 12.6876 59.0733 16.4655 64.2402 18.5102C64.7157 18.6983 65.0229 19.1538 65.0229 19.6705V26.263C65.0229 34.4934 62.6194 42.6292 58.0724 49.7913C53.4606 57.0553 46.7684 63.131 38.72 67.3614L38.583 67.4333C38.218 67.6254 37.7821 67.6252 37.417 67.4333L37.2804 67.3616C29.2317 63.1311 22.5395 57.0554 17.9276 49.7913C13.3805 42.6294 10.977 34.4934 10.977 26.2628Z" fill="black"/>
<path d="M70.4589 36.5275C69.8763 36.3957 69.2971 36.7613 69.1656 37.344C65.8715 51.9172 55.8389 64.5556 41.6399 72.0186L38.3403 73.7529C38.1273 73.8648 37.8729 73.8648 37.6599 73.7529L34.3603 72.0186C20.1391 64.5439 10.1014 51.8836 6.8211 37.2842C6.69032 36.7015 6.11142 36.335 5.5288 36.466C4.94604 36.597 4.57969 37.1756 4.71061 37.7583C8.13002 52.9778 18.5701 66.163 33.3539 73.9333L36.6535 75.6676C37.0752 75.8891 37.5376 76 38.0001 76C38.4625 76 38.9252 75.8891 39.3467 75.6675L42.6463 73.9331C57.4068 66.175 67.8417 53.0126 71.2756 37.8208C71.4072 37.2382 71.0415 36.6591 70.4589 36.5275Z" fill="black"/>
<path d="M69.9328 12.3763C64.1573 11.7669 59.616 7.71296 58.8891 2.51795C58.6882 1.08241 57.4546 0 56.0195 0H19.9812C18.5463 0 17.3126 1.08241 17.1118 2.51795C16.3848 7.71311 11.8435 11.7669 6.06805 12.3763C4.60461 12.5306 3.50098 13.767 3.50098 15.252V26.8663C3.50098 28.554 3.58841 30.2603 3.76089 31.938C3.81819 32.4946 4.28784 32.909 4.83558 32.909C4.87254 32.909 4.90994 32.9071 4.9475 32.9033C5.54169 32.8422 5.97394 32.311 5.91279 31.7168C5.74787 30.1123 5.66416 28.4804 5.66416 26.8663V15.252C5.66416 14.8831 5.94129 14.5647 6.29502 14.5274C13.0602 13.8137 18.3891 8.99843 19.2542 2.81764C19.3073 2.43838 19.613 2.16318 19.9812 2.16318H56.0193C56.3876 2.16318 56.6935 2.43838 56.7465 2.81764C57.6113 8.99843 62.9404 13.8136 69.7056 14.5274C70.0593 14.5647 70.3364 14.8831 70.3364 15.252V26.8663C70.3364 28.4633 70.2545 30.0783 70.093 31.6668C70.0326 32.261 70.4654 32.7918 71.0596 32.8522C71.6535 32.913 72.1846 32.4798 72.2452 31.8856C72.4141 30.2248 72.4996 28.5362 72.4996 26.8663V15.252C72.4998 13.767 71.3963 12.5306 69.9328 12.3763Z" fill="black"/>
<path d="M50.3887 49.3617C52.2854 49.3617 53.8286 47.8185 53.8286 45.9218V30.4355C53.8286 28.5387 52.2854 26.9956 50.3887 26.9956H48.6103V21.8326C48.6103 16.0051 43.8693 11.2642 38.0417 11.2642C32.2141 11.2642 27.4731 16.0051 27.4731 21.8326V26.9956H25.6948C23.798 26.9956 22.2549 28.5387 22.2549 30.4355V45.9218C22.2549 47.8185 23.798 49.3617 25.6948 49.3617H50.3887ZM29.6364 21.8328C29.6364 17.1981 33.407 13.4275 38.0418 13.4275C42.6766 13.4275 46.4472 17.1981 46.4472 21.8328V26.9957H29.6364V21.8328ZM24.4181 45.9218V30.4355C24.4181 29.7316 24.9909 29.1587 25.6948 29.1587H50.3887C51.0926 29.1587 51.6654 29.7314 51.6654 30.4355V45.9218C51.6654 46.6257 51.0926 47.1985 50.3887 47.1985H25.6948C24.9907 47.1985 24.4181 46.6257 24.4181 45.9218Z" fill="black"/>
</svg>
