<svg width="15" height="15" viewBox="0 0 15 15" fill="none" xmlns="http://www.w3.org/2000/svg">
<g clip-path="url(#clip0)">
<path d="M14.9785 5.7792C14.9268 5.62009 14.7893 5.50413 14.6238 5.48011L9.9737 4.80438L7.89407 0.590714C7.82006 0.440715 7.66728 0.345764 7.50003 0.345764C7.33274 0.345764 7.17999 0.440715 7.10595 0.590714L5.02624 4.80438L0.376254 5.48011C0.210757 5.50413 0.0732087 5.62009 0.0215293 5.77917C-0.0301795 5.93828 0.0129453 6.11292 0.13274 6.22967L3.49741 9.50956L2.70324 14.1409C2.67494 14.3058 2.74273 14.4723 2.87805 14.5707C2.9546 14.6263 3.04528 14.6546 3.13639 14.6546C3.20635 14.6546 3.27655 14.6379 3.34082 14.6041L7.5 12.4175L11.659 14.6041C11.8071 14.6819 11.9865 14.669 12.1218 14.5707C12.2571 14.4723 12.3249 14.3057 12.2967 14.1408L11.5022 9.50956L14.8673 6.22964C14.987 6.11292 15.0302 5.93828 14.9785 5.7792Z" fill="#FFCF24"/>
</g>
<defs>
<clipPath id="clip0">
<rect width="15" height="15" fill="white"/>
</clipPath>
</defs>
</svg>
