<svg width="258" height="283" viewBox="0 0 258 283" fill="none" xmlns="http://www.w3.org/2000/svg">
<path d="M210.631 202.548L116.252 202.548C108.406 202.548 100.882 199.424 95.3338 193.862C89.7861 188.301 86.6694 180.758 86.6694 172.893L86.6694 29.6553C86.6694 23.8079 84.3522 18.2 80.2277 14.0653C76.1031 9.93051 70.509 7.60764 64.676 7.60764L3.79698 7.60763C3.29837 7.60763 2.8047 7.50919 2.34405 7.31791C1.88341 7.12663 1.46486 6.84627 1.11229 6.49284C0.759735 6.1394 0.480041 5.71981 0.289245 5.25803C0.0984342 4.79625 0.000243953 4.30131 0.000243974 3.80148C0.00085437 2.79385 0.400238 1.82764 1.11076 1.11493C1.82129 0.402212 2.7849 0.00122783 3.79004 -9.0413e-06L64.669 -6.3802e-06C72.5147 -6.03725e-06 80.0391 3.12439 85.5868 8.68584C91.1346 14.2473 94.2513 21.7902 94.2513 29.6553L94.2513 172.888C94.2513 178.736 96.5684 184.344 100.693 188.478C104.818 192.613 110.412 194.936 116.245 194.936L210.629 194.936L210.631 202.548Z" fill="#2C447D"/>
<path d="M190.261 211.109L175.134 211.109C174.275 211.109 173.425 210.939 172.632 210.61C171.838 210.28 171.117 209.797 170.51 209.189C169.903 208.58 169.421 207.857 169.093 207.061C168.764 206.266 168.595 205.413 168.596 204.552L168.596 192.931C168.595 191.982 168.8 191.045 169.197 190.185C169.593 189.324 170.172 188.56 170.892 187.945C172.074 186.932 173.577 186.376 175.132 186.378L190.258 186.378L190.261 211.109Z" fill="#2C3872"/>
<path d="M225.518 224.029L195.295 224.029C194.185 224.028 193.087 223.809 192.062 223.383C191.037 222.957 190.106 222.333 189.321 221.547C188.537 220.76 187.915 219.826 187.491 218.798C187.067 217.771 186.848 216.669 186.849 215.557L186.849 181.932C186.848 180.82 187.066 179.718 187.49 178.69C187.914 177.662 188.536 176.728 189.321 175.941C190.105 175.154 191.036 174.53 192.061 174.104C193.086 173.678 194.185 173.459 195.295 173.458L225.518 173.458L225.518 224.029Z" fill="#4656A2"/>
<path d="M225.516 170.446L225.516 227.039C225.516 227.653 226.012 228.15 226.624 228.15L231.059 228.15C231.672 228.15 232.168 227.653 232.168 227.039L232.168 170.446C232.168 169.832 231.672 169.335 231.059 169.335L226.624 169.335C226.012 169.335 225.516 169.832 225.516 170.446Z" fill="#39488D"/>
<path d="M232.17 191.153L232.17 182.537L252.731 182.537C253.869 182.539 254.961 182.993 255.765 183.801C256.57 184.609 257.021 185.704 257.021 186.845C257.021 187.988 256.569 189.083 255.763 189.891C254.957 190.699 253.864 191.153 252.724 191.153L232.17 191.153Z" fill="#232851"/>
<path d="M257.021 210.642C257.021 211.784 256.569 212.88 255.763 213.688C254.957 214.496 253.864 214.95 252.724 214.95L232.163 214.95L232.163 206.331L252.724 206.331C253.288 206.331 253.847 206.443 254.369 206.659C254.891 206.876 255.364 207.194 255.764 207.594C256.163 207.994 256.479 208.469 256.695 208.992C256.911 209.515 257.022 210.076 257.021 210.642Z" fill="#232851"/>
<path d="M225.518 224.029L195.295 224.029C194.185 224.028 193.087 223.809 192.062 223.383C191.037 222.957 190.106 222.333 189.321 221.547C188.537 220.76 187.915 219.826 187.491 218.798C187.067 217.771 186.848 216.669 186.849 215.557L186.849 181.932C186.848 180.82 187.066 179.718 187.49 178.69C187.914 177.662 188.536 176.728 189.321 175.941C190.105 175.154 191.036 174.53 192.061 174.104C193.086 173.678 194.185 173.459 195.295 173.458C197.813 209.771 225.508 213.108 225.508 213.108L225.518 224.029Z" fill="#39488D"/>
<path d="M225.518 224.029L225.518 173.458L223.081 173.458L223.081 224.029L225.518 224.029Z" fill="#2C3872"/>
<path d="M212.748 224.029L195.294 224.029C194.185 224.028 193.086 223.809 192.062 223.383C191.037 222.957 190.106 222.333 189.321 221.546C188.537 220.76 187.915 219.826 187.491 218.798C187.066 217.771 186.848 216.669 186.848 215.557L186.848 191.943C186.858 215.791 212.748 224.029 212.748 224.029Z" fill="#2C3872"/>
<path d="M186.857 211.109L186.857 186.378L185.278 186.378L185.278 211.109L186.857 211.109Z" fill="#232851"/>
<path d="M235.18 191.156L235.18 182.537L232.17 182.537L232.17 191.156L235.18 191.156Z" fill="#15172D"/>
<path d="M235.18 214.95L235.18 206.331L232.17 206.331L232.17 214.95L235.18 214.95Z" fill="#15172D"/>
<path d="M186.857 211.109L175.134 211.109C174.275 211.109 173.425 210.939 172.631 210.61C171.838 210.28 171.117 209.797 170.51 209.188C169.903 208.579 169.421 207.856 169.093 207.061C168.764 206.265 168.595 205.413 168.596 204.552L168.596 192.93C168.595 191.982 168.8 191.045 169.197 190.184C169.593 189.323 170.172 188.559 170.892 187.945C168.675 206.06 186.855 208.827 186.855 208.827L186.857 211.109Z" fill="#232851"/>
<path d="M248.543 265.072L248.543 280.731C248.543 281.302 248.316 281.851 247.913 282.255C247.51 282.659 246.963 282.886 246.393 282.886C245.823 282.886 245.276 282.659 244.873 282.255C244.47 281.851 244.243 281.302 244.243 280.731L244.243 265.072C244.243 264.5 244.47 263.952 244.873 263.548C245.276 263.144 245.823 262.917 246.393 262.917C246.963 262.917 247.51 263.144 247.913 263.548C248.316 263.952 248.543 264.5 248.543 265.072Z" fill="#4656A2"/>
<path d="M228.721 245.201C228.72 245.773 228.493 246.321 228.089 246.725C227.686 247.129 227.139 247.356 226.568 247.356L210.962 247.356C210.404 247.338 209.874 247.102 209.486 246.7C209.098 246.298 208.881 245.76 208.881 245.2C208.881 244.64 209.098 244.102 209.486 243.699C209.874 243.297 210.404 243.062 210.962 243.043L226.568 243.043C227.139 243.043 227.687 243.271 228.09 243.675C228.494 244.08 228.721 244.629 228.721 245.201Z" fill="#4656A2"/>
<path d="M234.211 259.569C234.211 259.852 234.156 260.132 234.048 260.394C233.94 260.655 233.782 260.893 233.582 261.094L222.851 271.849C222.439 272.193 221.913 272.371 221.377 272.347C220.841 272.322 220.333 272.098 219.954 271.718C219.574 271.337 219.35 270.828 219.326 270.291C219.302 269.754 219.479 269.226 219.823 268.813L230.552 258.056C230.852 257.754 231.236 257.548 231.653 257.465C232.07 257.382 232.503 257.424 232.896 257.588C233.289 257.751 233.625 258.027 233.861 258.382C234.097 258.737 234.223 259.154 234.223 259.58L234.211 259.569Z" fill="#4656A2"/>
</svg>
