<svg width="337" height="283" viewBox="0 0 337 283" fill="none" xmlns="http://www.w3.org/2000/svg">
<path d="M124.426 141.769L58.3671 141.769C52.8757 141.769 47.6091 139.582 43.7261 135.69C39.8431 131.797 37.6616 126.518 37.6616 121.013L37.6616 20.7566C37.6616 16.6638 36.0398 12.7387 33.1529 9.84467C30.266 6.95065 26.3505 5.3248 22.2678 5.3248L-20.3431 5.3248C-20.6921 5.3248 -21.0376 5.25589 -21.3601 5.12201C-21.6825 4.98813 -21.9754 4.7919 -22.2222 4.54452C-22.469 4.29714 -22.6647 4.00346 -22.7983 3.68025C-22.9318 3.35703 -23.0006 3.01061 -23.0006 2.66076C-23.0001 1.9555 -22.7206 1.27922 -22.2233 0.78037C-21.726 0.28152 -21.0515 0.000859394 -20.348 -6.32826e-06L22.2629 -4.46568e-06C27.7544 -4.22564e-06 33.0209 2.18685 36.9039 6.07947C40.787 9.97209 42.9684 15.2516 42.9684 20.7566L42.9684 121.009C42.9684 125.102 44.5903 129.027 47.4772 131.921C50.3641 134.815 54.2795 136.441 58.3622 136.441L124.424 136.441L124.426 141.769Z" fill="#2C447D"/>
<path d="M110.169 147.761L99.5814 147.761C98.9803 147.761 98.3851 147.643 97.8298 147.412C97.2744 147.181 96.7698 146.843 96.3449 146.417C95.9199 145.991 95.5828 145.485 95.3529 144.928C95.123 144.371 95.0048 143.775 95.005 143.172L95.005 135.038C95.0045 134.374 95.1481 133.718 95.4257 133.116C95.7032 132.513 96.1082 131.978 96.6126 131.548C97.4393 130.839 98.4918 130.45 99.5798 130.452L110.167 130.452L110.169 147.761Z" fill="#2C3872"/>
<path d="M134.848 156.804L113.694 156.804C112.917 156.804 112.148 156.651 111.431 156.353C110.714 156.054 110.062 155.618 109.513 155.067C108.964 154.516 108.529 153.863 108.232 153.144C107.935 152.424 107.782 151.653 107.782 150.875L107.782 127.34C107.782 126.561 107.934 125.79 108.231 125.071C108.528 124.351 108.963 123.697 109.512 123.147C110.061 122.596 110.713 122.159 111.431 121.861C112.148 121.562 112.917 121.409 113.694 121.409L134.848 121.409L134.848 156.804Z" fill="#4656A2"/>
<path d="M134.846 119.3L134.846 158.911C134.846 159.341 135.193 159.689 135.622 159.689L138.726 159.689C139.155 159.689 139.502 159.341 139.502 158.911L139.502 119.3C139.502 118.871 139.155 118.522 138.726 118.522L135.622 118.522C135.193 118.522 134.846 118.871 134.846 119.3Z" fill="#39488D"/>
<path d="M139.502 133.794L139.502 127.763L153.893 127.763C154.69 127.764 155.454 128.083 156.017 128.648C156.58 129.213 156.896 129.979 156.896 130.778C156.896 131.578 156.58 132.345 156.015 132.911C155.451 133.476 154.686 133.794 153.888 133.794L139.502 133.794Z" fill="#232851"/>
<path d="M156.896 147.434C156.896 148.234 156.58 149.001 156.015 149.567C155.451 150.132 154.686 150.45 153.888 150.45L139.497 150.45L139.497 144.417L153.888 144.417C154.284 144.417 154.675 144.495 155.04 144.647C155.405 144.799 155.737 145.021 156.016 145.301C156.295 145.581 156.517 145.914 156.668 146.28C156.819 146.646 156.897 147.038 156.896 147.434Z" fill="#232851"/>
<path d="M134.846 156.804L113.692 156.804C112.915 156.804 112.146 156.651 111.429 156.353C110.712 156.054 110.06 155.618 109.511 155.067C108.962 154.516 108.527 153.863 108.23 153.144C107.933 152.424 107.78 151.653 107.78 150.875L107.78 127.34C107.78 126.561 107.932 125.79 108.229 125.071C108.526 124.351 108.961 123.697 109.51 123.147C110.059 122.596 110.711 122.159 111.429 121.861C112.146 121.562 112.915 121.409 113.692 121.409C115.454 146.825 134.839 149.16 134.839 149.16L134.846 156.804Z" fill="#39488D"/>
<path d="M134.846 156.804L134.846 121.409L133.14 121.409L133.14 156.804L134.846 156.804Z" fill="#2C3872"/>
<path d="M125.907 156.804L113.691 156.804C112.914 156.804 112.146 156.65 111.428 156.352C110.711 156.054 110.059 155.617 109.51 155.067C108.961 154.516 108.526 153.863 108.229 153.143C107.932 152.424 107.779 151.653 107.779 150.875L107.779 134.346C107.786 151.038 125.907 156.804 125.907 156.804Z" fill="#2C3872"/>
<path d="M107.786 147.761L107.786 130.452L106.681 130.452L106.681 147.761L107.786 147.761Z" fill="#232851"/>
<path d="M141.608 133.795L141.608 127.763L139.502 127.763L139.502 133.795L141.608 133.795Z" fill="#15172D"/>
<path d="M141.608 150.45L141.608 144.417L139.502 144.417L139.502 150.45L141.608 150.45Z" fill="#15172D"/>
<path d="M107.786 147.761L99.5806 147.761C98.9794 147.761 98.3842 147.642 97.8289 147.412C97.2735 147.181 96.769 146.843 96.344 146.417C95.919 145.99 95.5819 145.484 95.3521 144.928C95.1222 144.371 95.004 143.774 95.0042 143.172L95.0042 135.037C95.0037 134.374 95.1472 133.718 95.4248 133.115C95.7024 132.513 96.1074 131.978 96.6117 131.548C95.0596 144.227 107.785 146.164 107.785 146.164L107.786 147.761Z" fill="#232851"/>
<path d="M150.962 185.531L150.962 196.491C150.962 196.891 150.803 197.275 150.521 197.558C150.239 197.841 149.856 198 149.457 198C149.058 198 148.675 197.841 148.393 197.558C148.111 197.275 147.952 196.891 147.952 196.491L147.952 185.531C147.952 185.131 148.111 184.747 148.393 184.465C148.675 184.182 149.058 184.023 149.457 184.023C149.856 184.023 150.239 184.182 150.521 184.465C150.803 184.747 150.962 185.131 150.962 185.531Z" fill="#4656A2"/>
<path d="M137.088 171.623C137.087 172.023 136.929 172.407 136.646 172.69C136.364 172.973 135.981 173.132 135.581 173.132L124.658 173.132C124.267 173.119 123.897 172.954 123.625 172.673C123.353 172.391 123.201 172.014 123.201 171.622C123.201 171.23 123.353 170.854 123.625 170.572C123.897 170.291 124.267 170.126 124.658 170.113L135.581 170.113C135.981 170.113 136.364 170.272 136.647 170.555C136.929 170.839 137.088 171.223 137.088 171.623Z" fill="#4656A2"/>
<path d="M140.93 181.68C140.93 181.878 140.892 182.074 140.816 182.257C140.741 182.44 140.63 182.607 140.49 182.747L132.979 190.275C132.691 190.516 132.323 190.64 131.947 190.623C131.572 190.606 131.217 190.449 130.951 190.183C130.686 189.917 130.529 189.561 130.512 189.184C130.495 188.808 130.619 188.439 130.86 188.15L138.369 180.621C138.579 180.409 138.848 180.266 139.14 180.207C139.432 180.149 139.735 180.179 140.01 180.293C140.285 180.407 140.52 180.601 140.685 180.849C140.851 181.097 140.939 181.389 140.938 181.688L140.93 181.68Z" fill="#4656A2"/>
<g clip-path="url(#clip0)">
<path d="M334.564 283C333.917 283 333.298 282.744 332.841 282.288C332.384 281.832 332.127 281.213 332.127 280.568L332.127 151.699C332.127 147.961 330.639 144.376 327.991 141.733C325.343 139.089 321.751 137.604 318.005 137.604L253.959 137.604L253.959 132.739L318.005 132.739C323.043 132.739 327.874 134.736 331.437 138.291C334.999 141.846 337 146.668 337 151.696L337 280.568C337 281.213 336.743 281.832 336.286 282.288C335.829 282.744 335.21 283 334.564 283Z" fill="#2C447D"/>
<path d="M259.444 143.076L269.155 143.076C269.707 143.076 270.253 142.968 270.762 142.757C271.272 142.546 271.735 142.237 272.124 141.848C272.514 141.459 272.823 140.997 273.034 140.488C273.245 139.98 273.354 139.435 273.354 138.885L273.354 131.456C273.354 130.849 273.222 130.25 272.968 129.7C272.713 129.15 272.341 128.661 271.879 128.269C271.121 127.621 270.155 127.266 269.157 127.267L259.445 127.267L259.444 143.076Z" fill="#2C3872"/>
<path d="M236.804 151.335L256.204 151.335C256.917 151.335 257.622 151.195 258.28 150.923C258.939 150.651 259.537 150.252 260.041 149.749C260.544 149.246 260.944 148.649 261.216 147.992C261.489 147.335 261.629 146.631 261.629 145.92L261.629 124.425C261.629 122.989 261.057 121.612 260.04 120.597C259.023 119.582 257.643 119.011 256.204 119.011L236.804 119.011L236.804 151.335Z" fill="#4656A2"/>
<path d="M232.534 117.083L232.534 153.259C232.534 153.651 232.853 153.969 233.246 153.969L236.094 153.969C236.487 153.969 236.806 153.651 236.806 153.259L236.806 117.083C236.806 116.69 236.487 116.372 236.094 116.372L233.246 116.372C232.853 116.372 232.534 116.69 232.534 117.083Z" fill="#39488D"/>
<path d="M236.804 151.335L256.204 151.335C256.917 151.335 257.622 151.195 258.28 150.923C258.939 150.651 259.537 150.252 260.041 149.749C260.544 149.246 260.944 148.649 261.216 147.992C261.489 147.335 261.629 146.631 261.629 145.92L261.629 124.425C261.629 122.989 261.057 121.612 260.04 120.597C259.023 119.582 257.643 119.011 256.204 119.011C254.589 142.221 236.804 144.354 236.804 144.354L236.804 151.335Z" fill="#39488D"/>
<path d="M238.368 151.335L238.368 119.008L236.804 119.008L236.804 151.335L238.368 151.335Z" fill="#2C3872"/>
<path d="M245.003 151.335L256.204 151.335C256.917 151.335 257.622 151.195 258.28 150.922C258.939 150.65 259.537 150.251 260.041 149.748C260.544 149.246 260.944 148.649 261.216 147.992C261.489 147.335 261.629 146.63 261.629 145.919L261.629 130.824C261.629 146.069 245.003 151.335 245.003 151.335Z" fill="#2C3872"/>
<path d="M262.642 143.076L262.642 127.267L261.628 127.267L261.628 143.076L262.642 143.076Z" fill="#232851"/>
<path d="M261.629 143.076L269.155 143.076C269.707 143.076 270.253 142.967 270.762 142.757C271.272 142.546 271.735 142.237 272.124 141.848C272.514 141.459 272.823 140.997 273.034 140.488C273.245 139.98 273.354 139.435 273.354 138.884L273.354 131.455C273.354 130.849 273.222 130.25 272.968 129.7C272.713 129.15 272.341 128.661 271.879 128.269C273.303 139.849 261.63 141.617 261.63 141.617L261.629 143.076Z" fill="#232851"/>
<path d="M215.594 92.7699L215.594 82.7601C215.594 82.3947 215.739 82.0442 215.998 81.7859C216.257 81.5275 216.608 81.3823 216.974 81.3823C217.34 81.3823 217.691 81.5275 217.95 81.7859C218.209 82.0442 218.354 82.3947 218.354 82.7601L218.354 92.7609C218.354 93.1263 218.209 93.4768 217.95 93.7351C217.691 93.9935 217.34 94.1387 216.974 94.1387C216.608 94.1387 216.257 93.9935 215.998 93.7351C215.739 93.4768 215.594 93.1263 215.594 92.7609L215.594 92.7699Z" fill="#4656A2"/>
<path d="M228.323 105.474C228.323 105.109 228.469 104.758 228.728 104.5C228.987 104.242 229.338 104.096 229.704 104.096L239.734 104.096C240.1 104.096 240.451 104.242 240.71 104.5C240.969 104.758 241.114 105.109 241.114 105.474C241.114 105.84 240.969 106.19 240.71 106.448C240.451 106.707 240.1 106.852 239.734 106.852L229.704 106.852C229.338 106.852 228.987 106.707 228.728 106.448C228.469 106.19 228.323 105.84 228.323 105.474Z" fill="#4656A2"/>
<path d="M224.797 96.2893C224.797 95.9236 224.943 95.573 225.202 95.3146L232.091 88.4394C232.219 88.3114 232.371 88.2098 232.539 88.1405C232.706 88.0712 232.886 88.0355 233.067 88.0354C233.248 88.0353 233.428 88.0709 233.595 88.1401C233.763 88.2093 233.915 88.3107 234.043 88.4386C234.172 88.5665 234.273 88.7184 234.343 88.8855C234.412 89.0527 234.448 89.2318 234.448 89.4128C234.448 89.5937 234.413 89.7729 234.343 89.9401C234.274 90.1073 234.172 90.2593 234.044 90.3873L227.154 97.264C226.96 97.4562 226.714 97.5869 226.447 97.6397C226.179 97.6926 225.902 97.6651 225.65 97.5609C225.397 97.4567 225.182 97.2803 225.03 97.054C224.878 96.8277 224.797 96.5616 224.797 96.2893Z" fill="#4656A2"/>
</g>
<defs>
<clipPath id="clip0">
<rect width="202" height="122" fill="white" transform="translate(337 81) rotate(90)"/>
</clipPath>
</defs>
</svg>
