<svg width="190" height="316" viewBox="0 0 190 316" fill="none" xmlns="http://www.w3.org/2000/svg">
<g clip-path="url(#clip0)">
<path d="M186.206 316C185.199 316 184.234 315.599 183.522 314.886C182.811 314.173 182.411 313.205 182.411 312.196L182.411 110.598C182.411 104.751 180.094 99.1427 175.97 95.0076C171.845 90.8725 166.251 88.5491 160.418 88.5484L60.6741 88.5484L60.6741 80.9385L160.418 80.9385C168.263 80.9385 175.788 84.0629 181.336 89.6243C186.883 95.1858 190 102.729 190 110.594L190 312.196C190 313.205 189.6 314.173 188.889 314.886C188.177 315.599 187.212 316 186.206 316Z" fill="#2C447D"/>
<path d="M69.2153 97.1091L84.3395 97.1091C85.1984 97.1091 86.0488 96.9395 86.8422 96.61C87.6356 96.2804 88.3565 95.7974 88.9637 95.1885C89.5709 94.5796 90.0524 93.8568 90.3809 93.0613C90.7093 92.2658 90.8782 91.4132 90.8779 90.5522L90.8779 78.9306C90.8786 77.9824 90.6736 77.0454 90.277 76.1845C89.8804 75.3237 89.3018 74.5596 88.5812 73.9453C87.4003 72.9319 85.8964 72.376 84.3419 72.3784L69.2176 72.3784L69.2153 97.1091Z" fill="#2C3872"/>
<path d="M33.9562 110.029L64.1697 110.029C65.2794 110.029 66.3782 109.81 67.4033 109.384C68.4285 108.958 69.36 108.334 70.1445 107.547C70.929 106.761 71.5513 105.827 71.9757 104.799C72.4002 103.771 72.6185 102.67 72.6182 101.557L72.6182 67.9322C72.6182 65.686 71.7281 63.5318 70.1437 61.9435C68.5593 60.3552 66.4104 59.4629 64.1697 59.4629L33.9562 59.4629L33.9562 110.029Z" fill="#4656A2"/>
<path d="M27.3057 56.446L27.3057 113.039C27.3057 113.653 27.8021 114.15 28.4144 114.15L32.8494 114.15C33.4618 114.15 33.9582 113.653 33.9582 113.039L33.9582 56.446C33.9582 55.8321 33.4618 55.3345 32.8495 55.3345L28.4144 55.3345C27.8021 55.3345 27.3057 55.8321 27.3057 56.446Z" fill="#39488D"/>
<path d="M33.9562 110.029L64.1697 110.029C65.2794 110.029 66.3782 109.81 67.4033 109.384C68.4285 108.958 69.36 108.334 70.1445 107.547C70.929 106.761 71.5513 105.827 71.9757 104.799C72.4002 103.771 72.6185 102.67 72.6182 101.557L72.6182 67.9322C72.6182 65.686 71.7281 63.5318 70.1437 61.9435C68.5593 60.3552 66.4104 59.4629 64.1697 59.4629C61.6541 95.7708 33.9562 99.1076 33.9562 99.1076L33.9562 110.029Z" fill="#39488D"/>
<path d="M36.3926 110.029L36.3926 59.4583L33.9561 59.4583L33.9561 110.029L36.3926 110.029Z" fill="#2C3872"/>
<path d="M46.7255 110.029L64.1697 110.029C65.2794 110.029 66.3782 109.81 67.4033 109.384C68.4285 108.958 69.36 108.334 70.1445 107.547C70.929 106.761 71.5513 105.827 71.9757 104.799C72.4002 103.771 72.6185 102.67 72.6182 101.557L72.6182 77.9426C72.6182 101.791 46.7255 110.029 46.7255 110.029Z" fill="#2C3872"/>
<path d="M74.1953 97.1091L74.1953 72.3784L72.616 72.3784L72.616 97.1091L74.1953 97.1091Z" fill="#232851"/>
<path d="M72.6184 97.1087L84.3395 97.1087C85.1984 97.1087 86.0488 96.9391 86.8422 96.6095C87.6356 96.28 88.3565 95.797 88.9637 95.1881C89.5709 94.5792 90.0524 93.8563 90.3809 93.0608C90.7093 92.2653 90.8782 91.4128 90.8779 90.5518L90.8779 78.9302C90.8786 77.982 90.6736 77.0449 90.277 76.1841C89.8804 75.3232 89.3018 74.5591 88.5812 73.9448C90.7987 92.0603 72.6207 94.8273 72.6207 94.8273L72.6184 97.1087Z" fill="#232851"/>
<path d="M0.924712 18.4124L0.924713 2.75341C0.924713 2.1818 1.15122 1.6336 1.55441 1.22941C1.95761 0.825223 2.50446 0.598144 3.07466 0.598144C3.64486 0.598144 4.19172 0.825223 4.59491 1.22941C4.99811 1.6336 5.22461 2.1818 5.22461 2.75341L5.22461 18.3984C5.22461 18.97 4.9981 19.5182 4.59491 19.9224C4.19172 20.3266 3.64486 20.5536 3.07466 20.5536C2.50446 20.5536 1.9576 20.3266 1.55441 19.9224C1.15122 19.5182 0.924712 18.97 0.924712 18.3984L0.924712 18.4124Z" fill="#4656A2"/>
<path d="M20.7496 38.2864C20.7496 37.7147 20.9761 37.1666 21.3793 36.7624C21.7825 36.3582 22.3294 36.1311 22.8996 36.1311L38.52 36.1311C39.0902 36.1311 39.637 36.3582 40.0402 36.7624C40.4434 37.1666 40.6699 37.7148 40.6699 38.2864C40.6699 38.858 40.4434 39.4062 40.0402 39.8104C39.637 40.2146 39.0902 40.4416 38.52 40.4416L22.8996 40.4416C22.3294 40.4416 21.7825 40.2146 21.3793 39.8104C20.9761 39.4062 20.7496 38.858 20.7496 38.2864Z" fill="#4656A2"/>
<path d="M15.2567 23.9182C15.2572 23.3461 15.4842 22.7976 15.888 22.3933L26.6168 11.638C26.8164 11.4378 27.0534 11.2789 27.3142 11.1705C27.575 11.0621 27.8546 11.0062 28.137 11.0061C28.4194 11.006 28.699 11.0616 28.9599 11.1699C29.2209 11.2781 29.458 11.4368 29.6577 11.6369C29.8574 11.8369 30.0159 12.0745 30.1241 12.336C30.2322 12.5975 30.288 12.8778 30.2881 13.1608C30.2882 13.4439 30.2327 13.7242 30.1247 13.9858C30.0168 14.2474 29.8585 14.485 29.6589 14.6853L18.9277 25.4429C18.6266 25.7435 18.2434 25.9481 17.8266 26.0307C17.4097 26.1134 16.9777 26.0705 16.5851 25.9074C16.1925 25.7443 15.8569 25.4684 15.6205 25.1144C15.3841 24.7604 15.2575 24.3442 15.2567 23.9182Z" fill="#4656A2"/>
</g>
<defs>
<clipPath id="clip0">
<rect width="316" height="190" fill="white" transform="translate(190) rotate(90)"/>
</clipPath>
</defs>
</svg>
