<svg width="156" height="34" viewBox="0 0 156 34" fill="none" xmlns="http://www.w3.org/2000/svg">
<path d="M90.1404 10.2012C91.5282 4.62577 88.144 0.012085 79.854 0.012085H61.8861L55.1543 27.2803L59.0619 33.9878H71.8439C80.2192 33.9878 86.7075 30.0802 88.3753 23.2875C89.2153 19.8059 88.2414 17.3712 86.0502 16.1539V16.0687C88.1281 14.7227 89.5964 12.6164 90.1404 10.2012ZM79.1844 23.0684C78.8436 24.4926 77.8819 25.9534 73.9012 25.9534H65.7451L67.1694 20.1102H75.289C79.221 20.0981 79.5131 21.5954 79.1357 23.0684H79.1844ZM80.8157 10.3838C80.5235 11.4794 79.6835 12.8184 76.2507 12.8184H68.9467L70.164 8.07082H77.468C80.9374 8.04648 81.1078 9.16642 80.8157 10.3838Z" fill="#007ACC"/>
<path d="M101.449 20.8285H117.81L119.673 12.7941H103.421L104.687 8.04648H120.78L122.643 0.012085H96.2268L87.8516 33.9757H117.774L119.734 25.9413H100.244L101.449 20.8285Z" fill="#007ACC"/>
<path d="M124.929 0.012085L123.055 8.04648H132.83L126.415 33.9757H136.677L143.104 8.04648H153.573L155.582 0.012085H124.929Z" fill="#007ACC"/>
<path d="M11.0357 33.9791H0.688374L5.16816 15.8408L6.20289 13.1018L3.46389 15.8408L0.420561 18.9207L0.298828 9.86371L11.0357 0.0154877H19.3988L11.0357 33.9791Z" fill="white"/>
<path d="M48.3959 19.9033L45.0969 14.3157L61.1048 0.012085H46.1925L40.1058 5.85528L19.4599 24.7848L9.55078 33.9757H23.6597L34.2626 24.517L37.8294 30.6036C39.0467 32.1375 40.7632 34 48.0428 34H56.5642L48.408 19.8911L48.3959 19.9033Z" fill="white"/>
<path d="M38.9632 3.98054V3.9075C38.0499 2.63328 36.8311 1.60885 35.4188 0.928225C34.0065 0.247596 32.4459 -0.0674362 30.8801 0.0120372H19.8633L28.0803 13.987L38.9632 3.98054Z" fill="white"/>
</svg>
