<svg width="137" height="34" viewBox="0 0 137 34" fill="none" xmlns="http://www.w3.org/2000/svg">
<path d="M16.9223 0C7.55909 0 0 7.58193 0 16.968C0 18.6351 0.251209 20.3022 0.753626 21.878C1.07335 21.4441 1.37023 21.0102 1.64427 20.5306C2.8318 18.795 3.97366 17.0593 5.11552 15.278L5.96049 13.9306C6.23453 13.4967 6.50858 13.04 6.75979 12.5833C7.30788 11.6926 7.85597 10.7791 8.33555 9.88847C8.58676 9.43173 8.83797 8.99783 9.11201 8.51825C9.38606 8.0615 9.61443 7.6276 9.86564 7.14802C10.1168 6.66844 10.3681 6.2117 10.5736 5.77779L11.2587 4.38473L11.3272 4.29338C11.6926 3.53975 12.6061 3.24287 13.3826 3.58543C13.9306 3.90515 14.2732 4.47608 14.2504 5.13835C14.2504 5.93765 14.0905 6.78263 14.022 7.58193C13.9535 8.38123 13.9306 9.2262 13.8621 10.0712C13.7936 11.7154 13.7708 13.4054 13.7708 15.0497C13.7708 16.6939 13.8621 18.3382 14.022 19.9368C14.1133 20.7133 14.2504 21.4897 14.3874 22.2662C14.5016 22.9513 14.7299 23.6364 15.0497 24.253C15.141 24.4357 15.278 24.6184 15.4151 24.7783C15.5064 24.8468 15.4379 24.8011 15.5064 24.8011C15.5749 24.8011 15.5292 24.8011 15.5749 24.8011L15.6434 24.7783H15.6663L15.7576 24.7554C15.7805 24.7326 15.849 24.6869 15.8718 24.6641C16.123 24.4814 16.3285 24.253 16.5569 24.0018C17.0593 23.4081 17.5161 22.8143 17.9271 22.1748C18.361 21.5126 18.7721 20.8046 19.1603 20.0967C19.9596 18.6579 20.7133 17.1964 21.4212 15.7119C21.7638 14.9583 22.1292 14.2275 22.4717 13.4511C22.8143 12.6974 23.1568 11.921 23.4766 11.1902C23.7963 10.4137 24.6869 10.0483 25.4634 10.3452C25.9658 10.5279 26.3084 10.9618 26.3997 11.4871C26.3997 11.6698 26.4226 11.921 26.4682 12.1722L26.5596 12.8801C26.6281 13.3369 26.6738 13.8165 26.7879 14.2732C26.9478 15.2095 27.1305 16.1458 27.3817 17.0365C27.6329 17.9271 27.9298 18.8406 28.318 19.7084C28.6834 20.5763 29.163 21.3755 29.7568 22.1292C29.871 22.3119 29.8481 22.5631 29.6883 22.6773C29.5284 22.7915 29.3229 22.7915 29.1858 22.6773C28.4094 21.9922 27.7243 21.2157 27.1305 20.3707C26.5367 19.5257 26.0343 18.6351 25.5776 17.7216C25.2579 17.105 25.0295 16.4884 24.7326 15.849C24.5499 16.2144 24.39 16.6026 24.2073 16.9451C23.4537 18.4752 22.7229 19.9825 21.8551 21.5126C21.4212 22.3119 20.9873 23.0655 20.4849 23.8191C19.9825 24.5956 19.4344 25.3492 18.8406 26.0343C18.4981 26.4454 18.087 26.7879 17.6988 27.1305C17.5846 27.2219 17.4476 27.3132 17.2877 27.3817L17.0137 27.5416L16.8538 27.6101H16.831L16.7396 27.6329H16.6711L16.5569 27.6558C16.4656 27.6786 16.3971 27.7243 16.3057 27.7243C16.123 27.7471 15.9403 27.7928 15.7576 27.8156C15.3465 27.8385 14.9126 27.7928 14.5472 27.6558C14.1819 27.5187 13.8393 27.3132 13.5196 27.062C13.0628 26.6509 12.6518 26.1713 12.3777 25.6004C11.9438 24.7326 11.6241 23.7963 11.4414 22.8371C11.2587 21.9693 11.1217 21.0558 11.0303 20.188C10.8476 18.4524 10.7791 16.7396 10.7563 15.004C10.7563 14.2047 10.7563 13.3597 10.7563 12.5604C10.4366 13.1542 10.1397 13.7479 9.81996 14.296C9.56875 14.7528 9.31754 15.2324 9.0435 15.6891L8.26704 17.0822C7.21653 18.9548 6.12035 20.7818 4.97849 22.6088C4.27054 23.7963 3.51692 24.961 2.76329 26.1257C7.87881 33.9588 18.3839 36.1283 26.217 31.0128C34.0501 25.8973 36.2197 15.3922 31.1042 7.55909C27.9526 2.87748 22.6544 0 16.9223 0Z" fill="url(#paint0_linear)"/>
<path d="M48.5284 23.0427V11.784H48.2543L44.646 23.0883H43.7554L40.1471 11.8068H39.8731V23.0655H38.3887V10.6421H41.0378L44.235 20.5306L47.3637 10.6421H50.0356V23.1112H48.5284V23.0427Z" fill="url(#paint1_linear)"/>
<path d="M52.2051 12.2408V10.6193H53.8265V12.2408H52.2051ZM52.2279 23.0427V13.4511H53.8037V23.0427H52.2279Z" fill="url(#paint2_linear)"/>
<path d="M63.418 19.9139C63.418 21.7865 62.7101 23.2024 59.6042 23.2024C55.6991 23.2024 55.4707 20.9644 55.4707 18.2239C55.4707 15.4835 55.6991 13.2454 59.6042 13.2454C62.7101 13.2454 63.418 14.6842 63.418 16.534H61.9336C61.9336 15.0039 61.4084 14.2731 59.6042 14.2731C57.1835 14.2731 57.0465 15.5748 57.0465 18.1783C57.0465 20.7817 57.1606 22.0834 59.6042 22.0834C61.4084 22.0834 61.9336 21.3298 61.9336 19.8225L63.418 19.9139Z" fill="url(#paint3_linear)"/>
<path d="M66.5026 14.4787C67.2562 14.022 68.2154 13.3825 69.106 13.3597C69.2887 13.3369 69.4714 13.3369 69.6541 13.3369C69.9053 13.3369 70.1109 13.3369 70.4077 13.3597L70.2936 14.5015C70.0423 14.4787 69.8368 14.4787 69.6084 14.4787C69.4257 14.4787 69.243 14.4787 69.0147 14.5015C68.1697 14.5244 67.2791 15.1638 66.6168 15.5292V23.0883H65.041V13.451H66.2742L66.5026 14.4787Z" fill="url(#paint4_linear)"/>
<path d="M79.2908 18.2698C79.2908 21.0103 79.0624 23.2483 75.0888 23.2483C71.1151 23.2483 70.8867 21.0103 70.8867 18.2698C70.8867 15.5294 71.1151 13.2913 75.0888 13.2913C79.0624 13.2913 79.2908 15.5294 79.2908 18.2698ZM72.4853 18.2698C72.4853 20.8733 72.5995 22.175 75.0888 22.175C77.578 22.175 77.6922 20.8961 77.6922 18.2698C77.6922 15.6436 77.578 14.3647 75.0888 14.3647C72.5995 14.3647 72.4853 15.6207 72.4853 18.2698Z" fill="url(#paint5_linear)"/>
<path d="M82.1901 25.2807C82.7839 25.3492 83.5603 25.3721 84.4281 25.3721C86.8489 25.3721 87.1686 24.7098 87.1914 22.1749C86.4835 22.5859 85.4786 23.0427 84.451 23.0655C80.9341 23.134 80.7285 21.2385 80.7285 18.2469C80.7285 15.2552 80.9112 13.2684 84.2911 13.2684C85.433 13.2684 86.5063 13.7937 87.3284 14.3189L87.4883 13.4511H88.7215V21.9693C88.7215 25.4177 87.945 26.4683 84.7707 26.4683C83.8344 26.4683 82.898 26.3769 82.0074 26.2399L82.1901 25.2807ZM87.1914 15.2096C86.5063 14.7756 85.6385 14.3417 84.7935 14.3417C82.4641 14.3417 82.3043 15.6435 82.3043 18.2469C82.3043 20.8046 82.4641 22.015 84.7935 22.015C85.6385 22.015 86.5291 21.5583 87.1914 21.2157V15.2096Z" fill="url(#paint6_linear)"/>
<path d="M97.3543 23.0427L97.1944 22.1749C96.418 22.6773 95.3903 23.2254 94.2713 23.2254C90.7544 23.2939 90.5488 21.3071 90.5488 18.2469C90.5488 15.2095 90.7315 13.2684 94.2256 13.2684C95.3675 13.2684 96.3951 13.7936 97.1716 14.2732L97.3315 13.4283H98.5647V23.0198H97.3543V23.0427ZM97.0346 15.1639C96.3723 14.7985 95.4816 14.3646 94.6367 14.3646C92.3073 14.3646 92.1474 15.6663 92.1474 18.2697C92.1474 20.8732 92.3073 22.1749 94.6367 22.1749C95.4816 22.1749 96.3495 21.7181 97.0346 21.3071V15.1639Z" fill="url(#paint7_linear)"/>
<path d="M101.921 14.2961C102.629 13.8622 103.588 13.3369 104.616 13.2913C106.237 13.2227 107.059 13.6566 107.47 14.3418C108.224 13.885 109.206 13.3141 110.302 13.2913C113.591 13.1999 113.819 14.867 113.819 17.1964V23.0427H112.243V17.2877C112.243 15.3009 112.129 14.3418 109.983 14.3418C109.206 14.3418 108.407 14.7985 107.744 15.2096C107.904 15.8947 107.973 16.6026 107.927 17.3334V23.0884H106.557V17.3106C106.557 15.3238 106.443 14.3646 104.296 14.3646C103.542 14.3646 102.743 14.8213 102.127 15.1639V23.0655H100.551V13.4739H101.784L101.921 14.2961Z" fill="url(#paint8_linear)"/>
<path d="M115.762 12.2408V10.6193H117.383V12.2408H115.762ZM115.807 23.0427V13.4511H117.383V23.0427H115.807Z" fill="url(#paint9_linear)"/>
<path d="M120.741 14.2962C121.517 13.8623 122.545 13.337 123.664 13.2913C127.181 13.2 127.386 14.8671 127.386 17.1965V23.0428H125.811V17.2878C125.811 15.301 125.651 14.3418 123.321 14.3418C122.476 14.3418 121.586 14.7986 120.923 15.1868V23.0885H119.348V13.4512H120.581L120.741 14.2962Z" fill="url(#paint10_linear)"/>
<path d="M130.469 25.2807C131.063 25.3492 131.84 25.3721 132.707 25.3721C135.128 25.3721 135.448 24.7098 135.471 22.1749C134.763 22.5859 133.758 23.0427 132.73 23.0655C129.213 23.134 129.008 21.2385 129.008 18.2469C129.008 15.2552 129.191 13.2684 132.57 13.2684C133.712 13.2684 134.786 13.7937 135.608 14.3189L135.768 13.4511H137.001V21.9693C137.001 25.4177 136.224 26.4683 133.05 26.4683C132.114 26.4683 131.177 26.3769 130.287 26.2399L130.469 25.2807ZM135.448 15.2096C134.763 14.7756 133.895 14.3417 133.05 14.3417C130.721 14.3417 130.561 15.6435 130.561 18.2469C130.561 20.8046 130.721 22.015 133.05 22.015C133.895 22.015 134.786 21.5583 135.448 21.2157V15.2096Z" fill="url(#paint11_linear)"/>
<defs>
<linearGradient id="paint0_linear" x1="-2.63929" y1="21.6176" x2="134.073" y2="-11.3176" gradientUnits="userSpaceOnUse">
<stop stop-color="#21E418"/>
<stop offset="0.3" stop-color="#31B6E9"/>
<stop offset="0.9757" stop-color="#21E418"/>
</linearGradient>
<linearGradient id="paint1_linear" x1="-1.15579" y1="27.7776" x2="135.556" y2="-5.15755" gradientUnits="userSpaceOnUse">
<stop stop-color="#21E418"/>
<stop offset="0.3" stop-color="#31B6E9"/>
<stop offset="0.9757" stop-color="#21E418"/>
</linearGradient>
<linearGradient id="paint2_linear" x1="-0.676187" y1="29.7687" x2="136.036" y2="-3.16648" gradientUnits="userSpaceOnUse">
<stop stop-color="#21E418"/>
<stop offset="0.3" stop-color="#31B6E9"/>
<stop offset="0.9757" stop-color="#21E418"/>
</linearGradient>
<linearGradient id="paint3_linear" x1="0.00298992" y1="32.5882" x2="136.715" y2="-0.346949" gradientUnits="userSpaceOnUse">
<stop stop-color="#21E418"/>
<stop offset="0.3" stop-color="#31B6E9"/>
<stop offset="0.9757" stop-color="#21E418"/>
</linearGradient>
<linearGradient id="paint4_linear" x1="0.353717" y1="34.0378" x2="137.066" y2="1.10258" gradientUnits="userSpaceOnUse">
<stop stop-color="#21E418"/>
<stop offset="0.3" stop-color="#31B6E9"/>
<stop offset="0.9757" stop-color="#21E418"/>
</linearGradient>
<linearGradient id="paint5_linear" x1="0.861893" y1="36.1497" x2="137.574" y2="3.21455" gradientUnits="userSpaceOnUse">
<stop stop-color="#21E418"/>
<stop offset="0.3" stop-color="#31B6E9"/>
<stop offset="0.9757" stop-color="#21E418"/>
</linearGradient>
<linearGradient id="paint6_linear" x1="1.75838" y1="39.875" x2="138.47" y2="6.93985" gradientUnits="userSpaceOnUse">
<stop stop-color="#21E418"/>
<stop offset="0.3" stop-color="#31B6E9"/>
<stop offset="0.9757" stop-color="#21E418"/>
</linearGradient>
<linearGradient id="paint7_linear" x1="1.98471" y1="40.8132" x2="138.697" y2="7.87799" gradientUnits="userSpaceOnUse">
<stop stop-color="#21E418"/>
<stop offset="0.3" stop-color="#31B6E9"/>
<stop offset="0.9757" stop-color="#21E418"/>
</linearGradient>
<linearGradient id="paint8_linear" x1="2.6159" y1="43.436" x2="139.328" y2="10.5008" gradientUnits="userSpaceOnUse">
<stop stop-color="#21E418"/>
<stop offset="0.3" stop-color="#31B6E9"/>
<stop offset="0.9757" stop-color="#21E418"/>
</linearGradient>
<linearGradient id="paint9_linear" x1="2.81173" y1="44.2435" x2="139.524" y2="11.3082" gradientUnits="userSpaceOnUse">
<stop stop-color="#21E418"/>
<stop offset="0.3" stop-color="#31B6E9"/>
<stop offset="0.9757" stop-color="#21E418"/>
</linearGradient>
<linearGradient id="paint10_linear" x1="3.50671" y1="47.1255" x2="140.219" y2="14.1904" gradientUnits="userSpaceOnUse">
<stop stop-color="#21E418"/>
<stop offset="0.3" stop-color="#31B6E9"/>
<stop offset="0.9757" stop-color="#21E418"/>
</linearGradient>
<linearGradient id="paint11_linear" x1="4.40857" y1="50.8691" x2="141.121" y2="17.9339" gradientUnits="userSpaceOnUse">
<stop stop-color="#21E418"/>
<stop offset="0.3" stop-color="#31B6E9"/>
<stop offset="0.9757" stop-color="#21E418"/>
</linearGradient>
</defs>
</svg>
