<svg width="87" height="22" viewBox="0 0 87 22" fill="none" xmlns="http://www.w3.org/2000/svg">
<path d="M10.7462 0C4.80027 0 0 4.81477 0 10.7752C0 11.8339 0.159526 12.8926 0.478577 13.8932C0.68161 13.6177 0.870139 13.3421 1.04417 13.0376C1.79829 11.9354 2.5234 10.8332 3.24852 9.70205L3.78511 8.84642C3.95913 8.57087 4.13316 8.28083 4.29269 7.99078C4.64074 7.42519 4.9888 6.8451 5.29335 6.27951C5.45287 5.98946 5.6124 5.71392 5.78643 5.40937C5.96046 5.11932 6.10548 4.84378 6.265 4.53923C6.42453 4.23468 6.58406 3.94463 6.71458 3.66909L7.14965 2.78445L7.19315 2.72644C7.42519 2.24786 8.00528 2.05933 8.49836 2.27687C8.84642 2.4799 9.06395 2.84246 9.04945 3.26302C9.04945 3.7706 8.94794 4.30719 8.90443 4.81477C8.86092 5.32236 8.84642 5.85894 8.80291 6.39553C8.7594 7.43969 8.7449 8.51286 8.7449 9.55703C8.7449 10.6012 8.80291 11.6454 8.90443 12.6605C8.96244 13.1536 9.04945 13.6467 9.13647 14.1398C9.20898 14.5748 9.354 15.0099 9.55703 15.4015C9.61504 15.5175 9.70206 15.6335 9.78907 15.735C9.84708 15.7785 9.80357 15.7495 9.84708 15.7495C9.89059 15.7495 9.86158 15.7495 9.89059 15.7495L9.93409 15.735H9.9486L10.0066 15.7205C10.0211 15.706 10.0646 15.677 10.0791 15.6625C10.2386 15.5465 10.3692 15.4015 10.5142 15.2419C10.8332 14.8649 11.1233 14.4878 11.3843 14.0818C11.6599 13.6612 11.9209 13.2116 12.1675 12.762C12.675 11.8484 13.1536 10.9203 13.6032 9.9776C13.8207 9.49903 14.0528 9.03495 14.2703 8.54187C14.4878 8.06329 14.7054 7.57021 14.9084 7.10614C15.1114 6.61306 15.677 6.38102 16.1701 6.56955C16.4891 6.68557 16.7067 6.96112 16.7647 7.29467C16.7647 7.41069 16.7792 7.57021 16.8082 7.72974L16.8662 8.17931C16.9097 8.46936 16.9387 8.77391 17.0112 9.06395C17.1127 9.65855 17.2288 10.2531 17.3883 10.8187C17.5478 11.3843 17.7363 11.9644 17.9829 12.5155C18.2149 13.0666 18.5195 13.5742 18.8965 14.0528C18.969 14.1688 18.9545 14.3283 18.853 14.4008C18.7515 14.4733 18.621 14.4733 18.534 14.4008C18.0409 13.9657 17.6058 13.4727 17.2288 12.9361C16.8517 12.3995 16.5327 11.8339 16.2426 11.2538C16.0396 10.8622 15.8945 10.4707 15.706 10.0646C15.59 10.2966 15.4885 10.5432 15.3725 10.7607C14.8939 11.7324 14.4298 12.6895 13.8787 13.6612C13.6032 14.1688 13.3276 14.6474 13.0086 15.1259C12.6895 15.619 12.3415 16.0976 11.9644 16.5327C11.7469 16.7937 11.4858 17.0112 11.2393 17.2288C11.1668 17.2868 11.0798 17.3448 10.9783 17.3883L10.8042 17.4898L10.7027 17.5333H10.6882L10.6302 17.5478H10.5867L10.5142 17.5623C10.4562 17.5768 10.4127 17.6058 10.3547 17.6058C10.2386 17.6203 10.1226 17.6493 10.0066 17.6638C9.74556 17.6783 9.47002 17.6493 9.23798 17.5623C9.00594 17.4753 8.78841 17.3448 8.58538 17.1853C8.29533 16.9242 8.03429 16.6197 7.86026 16.2571C7.58472 15.706 7.38168 15.1114 7.26567 14.5023C7.14965 13.9512 7.06263 13.3711 7.00462 12.8201C6.88861 11.7179 6.8451 10.6302 6.8306 9.52803C6.8306 9.02045 6.8306 8.48386 6.8306 7.97628C6.62756 8.35334 6.43903 8.7304 6.236 9.07846C6.07647 9.3685 5.91695 9.67305 5.74292 9.9631L5.24984 10.8477C4.58273 12.0369 3.88662 13.1971 3.16151 14.3573C2.71194 15.1114 2.23336 15.851 1.75478 16.5907C5.0033 21.565 11.6744 22.9427 16.6487 19.6942C21.623 16.4456 23.0007 9.77457 19.7522 4.80027C17.7508 1.82729 14.3863 0 10.7462 0Z" fill="url(#paint0_linear)"/>
<path d="M30.8179 14.6328V7.48317H30.6439L28.3525 14.6618H27.787L25.4956 7.49768H25.3216V14.6473H24.3789V6.75806H26.0612L28.0915 13.0376L30.0783 6.75806H31.7751V14.6763H30.8179V14.6328Z" fill="url(#paint1_linear)"/>
<path d="M33.1523 7.77332V6.74365H34.182V7.77332H33.1523ZM33.1668 14.6329V8.54194H34.1675V14.6329H33.1668Z" fill="url(#paint2_linear)"/>
<path d="M40.2714 12.6461C40.2714 13.8352 39.8218 14.7344 37.8495 14.7344C35.3696 14.7344 35.2246 13.3132 35.2246 11.5729C35.2246 9.83261 35.3696 8.41138 37.8495 8.41138C39.8218 8.41138 40.2714 9.32502 40.2714 10.4997H39.3288C39.3288 9.52806 38.9952 9.06398 37.8495 9.06398C36.3123 9.06398 36.2253 9.89062 36.2253 11.5439C36.2253 13.1971 36.2978 14.0238 37.8495 14.0238C38.9952 14.0238 39.3288 13.5452 39.3288 12.588L40.2714 12.6461Z" fill="url(#paint3_linear)"/>
<path d="M42.2328 9.1946C42.7114 8.90455 43.3205 8.49849 43.8861 8.48399C44.0021 8.46948 44.1181 8.46948 44.2342 8.46948C44.3937 8.46948 44.5242 8.46948 44.7127 8.48399L44.6402 9.2091C44.4807 9.1946 44.3502 9.1946 44.2052 9.1946C44.0891 9.1946 43.9731 9.1946 43.8281 9.2091C43.2915 9.2236 42.7259 9.62967 42.3053 9.86171V14.662H41.3047V8.54199H42.0878L42.2328 9.1946Z" fill="url(#paint4_linear)"/>
<path d="M50.3505 11.6017C50.3505 13.342 50.2055 14.7632 47.6821 14.7632C45.1587 14.7632 45.0137 13.342 45.0137 11.6017C45.0137 9.86141 45.1587 8.44019 47.6821 8.44019C50.2055 8.44019 50.3505 9.86141 50.3505 11.6017ZM46.0288 11.6017C46.0288 13.255 46.1013 14.0816 47.6821 14.0816C49.2629 14.0816 49.3354 13.2695 49.3354 11.6017C49.3354 9.93392 49.2629 9.12179 47.6821 9.12179C46.1013 9.12179 46.0288 9.91942 46.0288 11.6017Z" fill="url(#paint5_linear)"/>
<path d="M52.1957 16.0543C52.5728 16.0978 53.0659 16.1123 53.617 16.1123C55.1542 16.1123 55.3572 15.6917 55.3717 14.0819C54.9222 14.343 54.2841 14.633 53.6315 14.6475C51.3981 14.691 51.2676 13.4873 51.2676 11.5875C51.2676 9.68773 51.3836 8.42603 53.5299 8.42603C54.2551 8.42603 54.9367 8.75958 55.4587 9.09313L55.5603 8.54204H56.3434V13.9514C56.3434 16.1413 55.8503 16.8084 53.8345 16.8084C53.2399 16.8084 52.6453 16.7504 52.0797 16.6633L52.1957 16.0543ZM55.3717 9.65872C54.9367 9.38318 54.3856 9.10764 53.849 9.10764C52.3698 9.10764 52.2682 9.93427 52.2682 11.5875C52.2682 13.2118 52.3698 13.9804 53.849 13.9804C54.3856 13.9804 54.9512 13.6904 55.3717 13.4728V9.65872Z" fill="url(#paint6_linear)"/>
<path d="M61.8236 14.633L61.7221 14.0819C61.2291 14.401 60.5764 14.749 59.8658 14.749C57.6325 14.7925 57.502 13.5308 57.502 11.5875C57.502 9.65872 57.618 8.42603 59.8368 8.42603C60.5619 8.42603 61.2145 8.75958 61.7076 9.06413L61.8091 8.52754H62.5923V14.6185H61.8236V14.633ZM61.6206 9.62972C61.2 9.39768 60.6345 9.12214 60.0979 9.12214C58.6186 9.12214 58.5171 9.94877 58.5171 11.602C58.5171 13.2553 58.6186 14.0819 60.0979 14.0819C60.6345 14.0819 61.1855 13.7919 61.6206 13.5308V9.62972Z" fill="url(#paint7_linear)"/>
<path d="M64.7217 9.07839C65.1713 8.80285 65.7804 8.4693 66.433 8.44029C67.4626 8.39679 67.9847 8.67233 68.2458 9.1074C68.7243 8.81735 69.3479 8.45479 70.0441 8.44029C72.1324 8.38228 72.2774 9.44095 72.2774 10.9202V14.6328H71.2768V10.9782C71.2768 9.7165 71.2042 9.1074 69.841 9.1074C69.3479 9.1074 68.8404 9.39745 68.4198 9.65849C68.5213 10.0936 68.5648 10.5431 68.5358 11.0072V14.6618H67.6657V10.9927C67.6657 9.731 67.5932 9.1219 66.2299 9.1219C65.7514 9.1219 65.2438 9.41195 64.8522 9.62948V14.6473H63.8516V8.55631H64.6347L64.7217 9.07839Z" fill="url(#paint8_linear)"/>
<path d="M73.5117 7.77332V6.74365H74.5414V7.77332H73.5117ZM73.5407 14.6329V8.54194H74.5414V14.6329H73.5407Z" fill="url(#paint9_linear)"/>
<path d="M76.6737 9.07836C77.1668 8.80282 77.8194 8.46927 78.53 8.44026C80.7634 8.38225 80.8939 9.44092 80.8939 10.9202V14.6328H79.8932V10.9782C79.8932 9.71647 79.7917 9.10737 78.3125 9.10737C77.7759 9.10737 77.2103 9.39741 76.7897 9.64395V14.6618H75.7891V8.54177H76.5722L76.6737 9.07836Z" fill="url(#paint10_linear)"/>
<path d="M82.852 16.0543C83.229 16.0978 83.7221 16.1123 84.2732 16.1123C85.8105 16.1123 86.0135 15.6917 86.028 14.0819C85.5784 14.343 84.9403 14.633 84.2877 14.6475C82.0544 14.691 81.9238 13.4873 81.9238 11.5875C81.9238 9.68773 82.0398 8.42603 84.1862 8.42603C84.9113 8.42603 85.5929 8.75958 86.115 9.09313L86.2165 8.54204H86.9996V13.9514C86.9996 16.1413 86.5066 16.8084 84.4907 16.8084C83.8961 16.8084 83.3016 16.7504 82.736 16.6633L82.852 16.0543ZM86.0135 9.65872C85.5784 9.38318 85.0273 9.10764 84.4907 9.10764C83.0115 9.10764 82.91 9.93427 82.91 11.5875C82.91 13.2118 83.0115 13.9804 84.4907 13.9804C85.0273 13.9804 85.5929 13.6904 86.0135 13.4728V9.65872Z" fill="url(#paint11_linear)"/>
<defs>
<linearGradient id="paint0_linear" x1="-1.67603" y1="13.7279" x2="85.1406" y2="-7.18706" gradientUnits="userSpaceOnUse">
<stop stop-color="#21E418"/>
<stop offset="0.3" stop-color="#31B6E9"/>
<stop offset="0.9757" stop-color="#21E418"/>
</linearGradient>
<linearGradient id="paint1_linear" x1="-0.733132" y1="17.6397" x2="86.0835" y2="-3.27524" gradientUnits="userSpaceOnUse">
<stop stop-color="#21E418"/>
<stop offset="0.3" stop-color="#31B6E9"/>
<stop offset="0.9757" stop-color="#21E418"/>
</linearGradient>
<linearGradient id="paint2_linear" x1="-0.429005" y1="18.9041" x2="86.3876" y2="-2.0108" gradientUnits="userSpaceOnUse">
<stop stop-color="#21E418"/>
<stop offset="0.3" stop-color="#31B6E9"/>
<stop offset="0.9757" stop-color="#21E418"/>
</linearGradient>
<linearGradient id="paint3_linear" x1="0.000778036" y1="20.6947" x2="86.8174" y2="-0.220246" gradientUnits="userSpaceOnUse">
<stop stop-color="#21E418"/>
<stop offset="0.3" stop-color="#31B6E9"/>
<stop offset="0.9757" stop-color="#21E418"/>
</linearGradient>
<linearGradient id="paint4_linear" x1="0.22612" y1="21.6152" x2="87.0428" y2="0.700316" gradientUnits="userSpaceOnUse">
<stop stop-color="#21E418"/>
<stop offset="0.3" stop-color="#31B6E9"/>
<stop offset="0.9757" stop-color="#21E418"/>
</linearGradient>
<linearGradient id="paint5_linear" x1="0.545596" y1="22.956" x2="87.3622" y2="2.04108" gradientUnits="userSpaceOnUse">
<stop stop-color="#21E418"/>
<stop offset="0.3" stop-color="#31B6E9"/>
<stop offset="0.9757" stop-color="#21E418"/>
</linearGradient>
<linearGradient id="paint6_linear" x1="1.11894" y1="25.3221" x2="87.9356" y2="4.40719" gradientUnits="userSpaceOnUse">
<stop stop-color="#21E418"/>
<stop offset="0.3" stop-color="#31B6E9"/>
<stop offset="0.9757" stop-color="#21E418"/>
</linearGradient>
<linearGradient id="paint7_linear" x1="1.26082" y1="25.9179" x2="88.0775" y2="5.00294" gradientUnits="userSpaceOnUse">
<stop stop-color="#21E418"/>
<stop offset="0.3" stop-color="#31B6E9"/>
<stop offset="0.9757" stop-color="#21E418"/>
</linearGradient>
<linearGradient id="paint8_linear" x1="1.65967" y1="27.5832" x2="88.4763" y2="6.66825" gradientUnits="userSpaceOnUse">
<stop stop-color="#21E418"/>
<stop offset="0.3" stop-color="#31B6E9"/>
<stop offset="0.9757" stop-color="#21E418"/>
</linearGradient>
<linearGradient id="paint9_linear" x1="1.78474" y1="28.0961" x2="88.6014" y2="7.18112" gradientUnits="userSpaceOnUse">
<stop stop-color="#21E418"/>
<stop offset="0.3" stop-color="#31B6E9"/>
<stop offset="0.9757" stop-color="#21E418"/>
</linearGradient>
<linearGradient id="paint10_linear" x1="2.22625" y1="29.9261" x2="89.0428" y2="9.01118" gradientUnits="userSpaceOnUse">
<stop stop-color="#21E418"/>
<stop offset="0.3" stop-color="#31B6E9"/>
<stop offset="0.9757" stop-color="#21E418"/>
</linearGradient>
<linearGradient id="paint11_linear" x1="2.7992" y1="32.3037" x2="89.6158" y2="11.3888" gradientUnits="userSpaceOnUse">
<stop stop-color="#21E418"/>
<stop offset="0.3" stop-color="#31B6E9"/>
<stop offset="0.9757" stop-color="#21E418"/>
</linearGradient>
</defs>
</svg>
