<svg width="72" height="87" viewBox="0 0 72 87" fill="none" xmlns="http://www.w3.org/2000/svg">
<g clip-path="url(#clip0)" filter="url(#filter0_d)">
<path d="M56.9056 25.9166C56.8942 25.9214 56.8829 25.9263 56.8715 25.9311C55.2459 26.6179 53.5014 25.2202 53.7684 23.4757L54.0015 21.9535L51.4177 24.1946C50.4025 25.0751 49.2549 25.3678 48.1656 25.1394C47.1562 24.5861 46.2678 23.9015 45.5834 23.1382C45.5834 23.1382 44.7881 22.1026 44.7054 21.9157L43.4271 19.0293L42.1488 21.9157C42.0661 22.1026 41.2709 23.1382 41.2709 23.1382C40.5863 23.9016 39.698 24.5862 38.6887 25.1394C37.5993 25.3678 36.4517 25.0751 35.4366 24.1946L32.8527 21.9535L33.0857 23.4757C33.3528 25.2202 31.6083 26.6179 29.9827 25.9311C29.9713 25.9263 29.9599 25.9215 29.9486 25.9166L25.5902 24.0497L28.8316 34.5047H34.7743H52.08H58.0226L61.2639 24.0497L56.9056 25.9166Z" fill="url(#paint0_linear)"/>
<path d="M58.3765 25.7071L63.2104 22.8096L59.6154 39.0366H27.2387L23.6436 22.8096L28.4776 25.7071C32.7717 28.2811 38.334 26.9761 41.0355 22.7609L43.427 19.0292L45.8186 22.7609C48.52 26.9761 54.0823 28.2811 58.3765 25.7071Z" fill="url(#paint1_linear)"/>
<path d="M30.3502 27.4575L26.2565 25.0037C25.9768 24.8361 25.6324 25.0843 25.7029 25.4026L28.7236 39.0365H59.6153L62.4765 26.1223L60.2492 27.4574C56.2536 29.8524 50.754 28.8876 47.8888 25.3465C46.9288 24.6737 44.9242 21.3654 44.9242 21.3654L42.9081 24.5113C40.2066 28.7265 34.6443 30.0315 30.3502 27.4575Z" fill="url(#paint2_linear)"/>
<path d="M63.2104 22.8096L58.3764 25.7071C54.0822 28.2811 48.5199 26.9761 45.8185 22.761L43.427 19.0293V39.0366H59.6153L63.2104 22.8096Z" fill="url(#paint3_linear)"/>
<path d="M43.427 20.6395C44.8109 20.6395 45.9328 19.5176 45.9328 18.1337C45.9328 16.7498 44.8109 15.6279 43.427 15.6279C42.0431 15.6279 40.9213 16.7498 40.9213 18.1337C40.9213 19.5176 42.0431 20.6395 43.427 20.6395Z" fill="url(#paint4_radial)"/>
<path d="M45.6638 18.1337C45.6638 19.3691 44.6624 20.3705 43.4271 20.3705C42.1917 20.3705 41.1903 19.3691 41.1903 18.1337C41.1903 16.8984 42.1917 15.897 43.4271 15.897C44.6624 15.897 45.6638 16.8984 45.6638 18.1337Z" fill="url(#paint5_linear)"/>
<path d="M44.548 15.8921C44.717 16.2294 44.8123 16.6101 44.8123 17.013C44.8123 18.3968 43.6904 19.5189 42.3064 19.5189C41.9035 19.5189 41.5229 19.4235 41.1855 19.2545C41.597 20.0757 42.4461 20.6394 43.4271 20.6394C44.8111 20.6394 45.933 19.5175 45.933 18.1336C45.9329 17.1527 45.3691 16.3035 44.548 15.8921Z" fill="url(#paint6_linear)"/>
<path d="M45.1214 17.0612C45.1214 17.7042 44.3628 18.2255 43.427 18.2255C42.4912 18.2255 41.7327 17.7042 41.7327 17.0612C41.7327 16.4181 42.4912 15.8969 43.427 15.8969C44.3627 15.897 45.1214 16.4182 45.1214 17.0612Z" fill="url(#paint7_linear)"/>
<path d="M23.6435 25.3819C25.0274 25.3819 26.1492 24.26 26.1492 22.8761C26.1492 21.4922 25.0274 20.3704 23.6435 20.3704C22.2596 20.3704 21.1377 21.4922 21.1377 22.8761C21.1377 24.26 22.2596 25.3819 23.6435 25.3819Z" fill="url(#paint8_radial)"/>
<path d="M23.6435 25.1129C24.8788 25.1129 25.8802 24.1115 25.8802 22.8762C25.8802 21.6408 24.8788 20.6394 23.6435 20.6394C22.4082 20.6394 21.4067 21.6408 21.4067 22.8762C21.4067 24.1115 22.4082 25.1129 23.6435 25.1129Z" fill="url(#paint9_linear)"/>
<path d="M24.7645 20.6348C24.9335 20.9721 25.0289 21.3527 25.0289 21.7557C25.0289 23.1395 23.907 24.2615 22.5231 24.2615C22.1202 24.2615 21.7395 24.1662 21.4022 23.9972C21.8136 24.8183 22.6628 25.3821 23.6438 25.3821C25.0278 25.3821 26.1497 24.2602 26.1497 22.8762C26.1494 21.8952 25.5857 21.0462 24.7645 20.6348Z" fill="url(#paint10_linear)"/>
<path d="M25.3379 21.8038C25.3379 22.4468 24.5794 22.9681 23.6436 22.9681C22.7078 22.9681 21.9492 22.4469 21.9492 21.8038C21.9492 21.1608 22.7078 20.6394 23.6436 20.6394C24.5793 20.6394 25.3379 21.1607 25.3379 21.8038Z" fill="url(#paint11_linear)"/>
<path d="M63.2103 25.3821C64.5943 25.3821 65.7162 24.2602 65.7162 22.8762C65.7162 21.4923 64.5943 20.3704 63.2103 20.3704C61.8264 20.3704 60.7045 21.4923 60.7045 22.8762C60.7045 24.2602 61.8264 25.3821 63.2103 25.3821Z" fill="url(#paint12_radial)"/>
<path d="M63.2104 25.1129C64.4457 25.1129 65.4471 24.1115 65.4471 22.8762C65.4471 21.6408 64.4457 20.6394 63.2104 20.6394C61.9751 20.6394 60.9736 21.6408 60.9736 22.8762C60.9736 24.1115 61.9751 25.1129 63.2104 25.1129Z" fill="url(#paint13_linear)"/>
<path d="M64.3313 20.6348C64.5003 20.9721 64.5956 21.3527 64.5956 21.7557C64.5956 23.1395 63.4737 24.2615 62.0898 24.2615C61.6868 24.2615 61.3062 24.1662 60.9689 23.9972C61.3803 24.8183 62.2295 25.3821 63.2104 25.3821C64.5943 25.3821 65.7162 24.2602 65.7162 22.8762C65.7162 21.8952 65.1524 21.0462 64.3313 20.6348Z" fill="url(#paint14_linear)"/>
<path d="M64.9047 21.8038C64.9047 22.4468 64.1462 22.9681 63.2103 22.9681C62.2745 22.9681 61.516 22.4469 61.516 21.8038C61.516 21.1608 62.2746 20.6394 63.2103 20.6394C64.1462 20.6394 64.9047 21.1607 64.9047 21.8038Z" fill="url(#paint15_linear)"/>
<path d="M32.9845 24.3095C34.3684 24.3095 35.4903 23.1876 35.4903 21.8037C35.4903 20.4198 34.3684 19.298 32.9845 19.298C31.6006 19.298 30.4788 20.4198 30.4788 21.8037C30.4788 23.1876 31.6006 24.3095 32.9845 24.3095Z" fill="url(#paint16_radial)"/>
<path d="M32.9846 24.0405C34.2199 24.0405 35.2213 23.0391 35.2213 21.8038C35.2213 20.5684 34.2199 19.567 32.9846 19.567C31.7492 19.567 30.7478 20.5684 30.7478 21.8038C30.7478 23.0391 31.7492 24.0405 32.9846 24.0405Z" fill="url(#paint17_linear)"/>
<path d="M34.1055 19.5623C34.2745 19.8996 34.3698 20.2802 34.3698 20.6831C34.3698 22.0671 33.2479 23.189 31.8641 23.189C31.4611 23.189 31.0805 23.0938 30.7432 22.9247C31.1546 23.7458 32.0038 24.3096 32.9847 24.3096C34.3687 24.3096 35.4905 23.1877 35.4905 21.8038C35.4904 20.8228 34.9266 19.9737 34.1055 19.5623Z" fill="url(#paint18_linear)"/>
<path d="M34.679 20.7313C34.679 21.3742 33.9204 21.8955 32.9846 21.8955C32.0488 21.8955 31.2903 21.3742 31.2903 20.7313C31.2903 20.0882 32.0489 19.5669 32.9846 19.5669C33.9204 19.567 34.679 20.0883 34.679 20.7313Z" fill="url(#paint19_linear)"/>
<path d="M53.8694 24.3095C55.2533 24.3095 56.3752 23.1876 56.3752 21.8037C56.3752 20.4198 55.2533 19.298 53.8694 19.298C52.4855 19.298 51.3636 20.4198 51.3636 21.8037C51.3636 23.1876 52.4855 24.3095 53.8694 24.3095Z" fill="url(#paint20_radial)"/>
<path d="M53.8694 24.0405C55.1048 24.0405 56.1062 23.0391 56.1062 21.8038C56.1062 20.5684 55.1048 19.567 53.8694 19.567C52.6341 19.567 51.6327 20.5684 51.6327 21.8038C51.6327 23.0391 52.6341 24.0405 53.8694 24.0405Z" fill="url(#paint21_linear)"/>
<path d="M54.9902 19.5623C55.1592 19.8996 55.2546 20.2802 55.2546 20.6831C55.2546 22.0671 54.1327 23.189 52.7488 23.189C52.3458 23.189 51.9652 23.0938 51.6278 22.9247C52.0392 23.7458 52.8884 24.3096 53.8694 24.3096C55.2533 24.3096 56.3752 23.1877 56.3752 21.8038C56.3751 20.8228 55.8114 19.9737 54.9902 19.5623Z" fill="url(#paint22_linear)"/>
<path d="M55.5638 20.7313C55.5638 21.3742 54.8052 21.8955 53.8694 21.8955C52.9336 21.8955 52.175 21.3742 52.175 20.7313C52.175 20.0882 52.9337 19.5669 53.8694 19.5669C54.8051 19.567 55.5638 20.0883 55.5638 20.7313Z" fill="url(#paint23_linear)"/>
<path d="M26.3596 37.3313H60.4946V42.048H26.3596V37.3313Z" fill="url(#paint24_linear)"/>
<path d="M60.4514 43.4538H26.4027C25.8135 43.4538 25.3359 42.9761 25.3359 42.387C25.3359 41.7978 25.8135 41.3202 26.4027 41.3202H60.4514C61.0406 41.3202 61.5182 41.7979 61.5182 42.387C61.5182 42.9762 61.0406 43.4538 60.4514 43.4538Z" fill="url(#paint25_linear)"/>
<path d="M60.4514 38.0763H26.4027C25.8135 38.0763 25.3359 37.5988 25.3359 37.0095C25.3359 36.4203 25.8135 35.9427 26.4027 35.9427H60.4514C61.0406 35.9427 61.5182 36.4204 61.5182 37.0095C61.5182 37.5987 61.0406 38.0763 60.4514 38.0763Z" fill="url(#paint26_linear)"/>
<path d="M71.6671 39.8443C71.3497 39.3186 70.8182 39.0171 70.2013 39.0171C68.1347 39.0256 66.0682 39.0332 64.002 39.04C63.7389 39.0408 63.4458 39.2085 63.1869 39.4122C62.7316 39.7704 62.1144 39.821 61.5948 39.5648C60.9607 39.2522 60.2372 39.0709 59.4955 39.0532C59.4635 39.0524 59.4318 39.052 59.3999 39.052C58.089 39.052 56.8338 39.6875 56.0418 40.752C56.0363 40.7594 56.0308 40.7667 56.0254 40.7741C55.8651 40.9927 55.5409 40.9965 55.3806 40.7778L55.377 40.773C54.607 39.7238 53.3456 39.086 52.0032 39.0672C52.0032 39.0672 50.0045 39.0695 49.0138 39.0704C48.3906 39.0709 47.849 39.3638 47.488 39.8954C47.4823 39.9038 47.4776 39.9125 47.4721 39.921C46.9965 39.3581 46.4537 39.0724 45.8548 39.0724C45.5162 39.0726 44.6818 39.1922 44.2328 40.2959L44.2274 40.309C44.0931 40.6284 43.6392 40.6406 43.496 40.3252C43.3555 40.0158 43.1629 39.7934 42.9882 39.6402C42.5654 39.269 42.0372 39.0727 41.46 39.0725C40.8864 39.0725 40.3593 39.2667 39.9358 39.6339C39.8179 39.736 39.6917 39.8695 39.5784 40.0397C39.394 40.3168 39.0063 40.3571 38.7526 40.1416C37.9816 39.4869 36.9718 39.0966 35.9178 39.0687C35.8854 39.0678 35.853 39.0675 35.8207 39.0675C34.5636 39.0675 33.3163 39.7164 32.4841 40.8034C32.1138 41.2871 31.8558 41.8142 31.674 42.3655C31.4977 42.9002 30.7245 42.8466 30.621 42.2932C30.5307 41.8101 30.4444 41.3439 30.3744 40.956C30.2521 40.3152 29.9233 39.7863 29.4231 39.4265C28.9634 39.0957 28.4293 38.9281 27.8355 38.9281C27.2622 38.9281 26.7357 39.0838 26.271 39.3909C25.7617 39.7276 25.4119 40.2252 25.2571 40.8404C25.1499 41.2835 25.0431 41.7226 24.9367 42.1578C24.8366 42.5667 24.2333 42.4864 24.2429 42.0654L24.2655 41.0856C24.2799 40.4585 24.0408 39.9068 23.592 39.5322C23.2066 39.2103 22.7233 39.0392 22.1943 39.0374L19.6764 39.0286C19.045 39.0286 18.5024 39.361 18.1878 39.9404C17.9831 40.3171 17.8759 40.7485 17.8692 41.2225C17.8622 41.7175 17.9589 42.1666 18.1563 42.5569C18.4456 43.1287 18.9508 43.4868 19.5423 43.5394C19.6132 43.5458 19.6789 43.5516 19.7411 43.5571L19.6356 48.9449C19.6356 48.9449 19.6403 49.0088 19.6405 49.0149C19.6265 49.0039 19.614 48.993 19.6027 48.982C19.566 48.9461 19.5437 48.909 19.5277 48.8584C19.4536 48.6225 19.4325 48.5137 19.4268 48.4775C19.4167 48.4141 19.3977 48.2721 19.3822 48.0322C19.3454 47.4669 19.0593 46.4452 17.5556 45.9531C17.2095 45.8399 16.9079 45.7848 16.634 45.7848C16.3315 45.7848 16.0575 45.8523 15.8193 45.9855C15.4406 46.1977 14.9908 46.6716 14.9999 47.7245C15.0096 48.8765 15.4255 50.0634 16.1707 51.0666C16.7807 51.8878 17.7808 52.9822 19.0816 53.5324C19.5825 53.7443 20.248 53.9874 20.9551 53.9874C21.4778 53.9874 21.9551 53.8564 22.3792 53.6008C22.4935 53.9356 22.6832 54.2649 22.9528 54.5853C23.3847 55.0983 23.8643 55.4517 24.3783 55.6356C24.6148 55.7202 24.8454 55.7631 25.0637 55.7631C25.8081 55.7631 26.4048 55.2711 26.585 54.5063C26.6829 54.0847 26.7801 53.6629 26.877 53.241C27.2873 53.3416 27.6875 53.4358 28.0813 53.5246C28.1862 54.2096 28.2908 54.8949 28.3956 55.5815C28.5331 56.4723 29.1036 57.1037 29.9611 57.3143C30.1445 57.3593 30.3309 57.3821 30.5151 57.3821C30.9772 57.3821 31.4216 57.2433 31.8357 56.9696C32.028 56.8425 32.1943 56.6936 32.3333 56.5265C33.1374 57.6406 34.3071 58.3816 35.5095 58.5265C35.6769 58.5466 35.8478 58.5569 36.0175 58.5569C37.2468 58.5569 38.4248 58.0225 39.1738 57.1274C39.2884 57.6745 39.5664 58.043 39.81 58.2711C40.2327 58.6669 40.7643 58.8877 41.348 58.9098C41.3804 58.9111 41.4125 58.9117 41.4443 58.9117C42.0036 58.9117 42.5198 58.7224 42.9369 58.3644C43.2708 58.0781 43.669 57.5511 43.6706 56.6672C43.6711 56.3542 44.1019 56.2697 44.221 56.5591C44.3722 56.9265 44.5228 57.2909 44.673 57.6532C45.1598 58.8815 46.0934 59.0142 46.4729 59.0142C46.5071 59.0142 46.5418 59.0132 46.5767 59.0114C46.9806 58.9894 47.5448 58.8296 48.0876 58.2463C48.4548 58.5005 48.8862 58.6357 49.3445 58.6357C49.4328 58.6357 49.5233 58.6308 49.614 58.6209C50.179 58.5597 50.6908 58.3142 51.0941 57.9112C51.5324 57.4732 51.7595 56.8911 51.7509 56.2281L51.7041 52.635C51.7007 52.3825 51.8915 52.1692 52.1428 52.1438H52.1429C53.0569 52.0354 53.9242 51.6526 54.622 51.0708C54.796 50.9258 55.0603 51.0489 55.0651 51.2752C55.0882 52.7296 55.2648 54.5548 56.4341 55.7691C57.0745 56.4343 57.8833 56.7715 58.8381 56.7715C59.2394 56.7715 59.6593 56.712 60.122 56.5897C61.3252 56.2718 62.5457 55.3286 63.3071 54.1282C64.2012 52.7185 64.3329 51.0652 64.3478 49.7821L64.348 49.7624L64.2267 44.6415L64.2254 44.6214C64.2168 44.4777 64.2067 44.3319 64.1942 44.1847C64.1769 43.9793 64.3302 43.7989 64.5357 43.7829L64.5443 43.7823C64.7577 43.7657 64.941 43.932 64.9451 44.1459L65.1031 52.1492C65.1188 52.9377 65.576 53.533 66.2963 53.7026C66.4368 53.7358 66.5833 53.7526 66.7318 53.7526C67.0705 53.7526 67.4282 53.6645 67.7949 53.4907C68.2231 53.2877 68.5987 53.0029 68.9109 52.6438C69.4004 52.0811 69.4972 51.5279 69.4922 51.163L69.4005 44.2955C69.3934 43.7676 69.7911 43.322 70.3164 43.2693L70.3258 43.2684C70.8925 43.2116 71.37 42.896 71.6704 42.3798C71.8891 42.0043 72 41.5726 72 41.0964C72 40.6316 71.8879 40.2104 71.6671 39.8443Z" fill="url(#paint27_linear)"/>
<path d="M71.1877 40.1337C70.9709 39.7746 70.6234 39.5768 70.2036 39.5768C68.1368 39.5853 66.0702 39.5929 64.0038 39.5998C63.5599 39.6011 63.1932 39.8623 62.9975 40.3164C62.8705 40.6111 62.8049 40.9512 62.8007 41.328C62.7057 41.1834 62.6007 41.0443 62.4833 40.9128C61.7819 40.127 60.6599 39.641 59.4821 39.6127C59.4546 39.6121 59.4273 39.6117 59.3998 39.6117C58.2651 39.6117 57.1776 40.1628 56.491 41.0859C56.1021 41.6087 55.8686 42.2109 55.726 42.8217C55.5415 42.1516 55.2761 41.5815 54.9258 41.1041C54.2588 40.1955 53.1633 39.6433 51.9867 39.6268C50.9958 39.628 50.005 39.6292 49.0141 39.63C48.5821 39.6304 48.2046 39.8361 47.9513 40.2095C47.7358 40.5273 47.6283 40.8996 47.6319 41.3162L47.6321 41.3433C47.5401 41.0416 47.3957 40.7511 47.1955 40.4748C46.7903 39.9155 46.3395 39.6321 45.8548 39.6321C45.5745 39.6322 45.0581 39.7467 44.7516 40.5062C44.1773 41.8807 43.641 43.1566 43.1329 44.3569L43.1384 41.3267C43.1396 40.6583 42.8565 40.2693 42.6189 40.0607C42.2951 39.7765 41.9054 39.6323 41.4599 39.6321C41.0168 39.6321 40.6272 39.775 40.3023 40.0567C40.0632 40.2638 39.7773 40.6503 39.7733 41.3159L39.7636 42.9054C39.5753 42.2111 39.2869 41.5945 38.9108 41.1089C38.2174 40.2131 37.0928 39.6596 35.9029 39.6281C35.8754 39.6274 35.848 39.627 35.8205 39.627C34.7366 39.627 33.6555 40.1939 32.9285 41.1435C31.9938 42.364 31.8482 43.9529 31.779 45.4757L31.6629 51.452C31.1025 48.2286 30.4797 44.6849 29.8243 41.0605C29.7281 40.556 29.4831 40.159 29.0961 39.8805C28.7335 39.6198 28.3094 39.4875 27.8354 39.4875C27.3735 39.4875 26.9511 39.6121 26.5796 39.8576C26.1832 40.1196 25.9216 40.4928 25.801 40.9717C25.0064 44.2559 24.2346 47.3162 23.4582 50.2625C23.4773 50.057 23.4908 49.8575 23.5034 49.6705L23.5097 49.5747L23.7055 41.0724C23.7189 40.4915 23.456 40.1477 23.233 39.9615C22.9448 39.7209 22.5946 39.5983 22.1922 39.5969L19.6762 39.588C19.2503 39.588 18.8963 39.8079 18.6795 40.2071C18.5185 40.5034 18.4342 40.8476 18.4288 41.23C18.4231 41.6335 18.4994 41.9949 18.6558 42.3037C18.8587 42.705 19.1911 42.9457 19.5918 42.9813C19.8835 43.0072 20.0896 43.0254 20.3108 43.0444L20.1957 48.9294L20.1976 48.9553C20.221 49.2772 20.1284 49.5324 20.026 49.6425C19.9801 49.6919 19.9356 49.712 19.8725 49.712C19.816 49.712 19.7456 49.6955 19.6686 49.6643C19.4771 49.5868 19.3231 49.4916 19.2106 49.3812C19.1081 49.2807 19.037 49.1644 18.9933 49.0257C18.9151 48.7769 18.885 48.6375 18.8735 48.5642C18.8594 48.4752 18.8393 48.317 18.8232 48.068C18.7896 47.5499 18.5122 46.8546 17.3813 46.4847C17.0922 46.3901 16.8477 46.3441 16.6337 46.3441C16.4281 46.3441 16.2461 46.3876 16.0928 46.4734C15.7336 46.6746 15.5542 47.0938 15.5596 47.7192C15.5684 48.7534 15.9449 49.8234 16.62 50.7322C17.1885 51.4976 18.1148 52.5151 19.2995 53.0162C19.7516 53.2075 20.3485 53.4271 20.9548 53.4271C21.4519 53.4271 21.8968 53.2822 22.2771 52.9966C22.5566 52.7865 22.7676 52.5292 22.9302 52.2454C22.9081 52.3278 22.886 52.4103 22.8638 52.4926L22.8581 52.5159C22.8275 52.6527 22.8135 52.7447 22.8116 52.8245C22.8007 53.2916 22.9923 53.7627 23.3811 54.2245C23.7482 54.6607 24.1472 54.9581 24.5669 55.1081C24.7451 55.1719 24.9076 55.2029 25.0637 55.2029C25.5533 55.2029 25.918 54.8957 26.0396 54.3793C26.1805 53.773 26.32 53.1663 26.4586 52.5594C27.1945 52.7459 27.894 52.9114 28.5766 53.0608C28.7009 53.8721 28.8249 54.6834 28.9488 55.4957C29.0516 56.1615 29.4584 56.614 30.0943 56.7702C30.234 56.8045 30.3757 56.8218 30.5149 56.8218C30.8654 56.8218 31.206 56.7142 31.5269 56.5019C31.9657 56.212 32.2162 55.7879 32.2621 55.2715C32.37 55.5185 32.4956 55.7598 32.6459 55.9918C33.3609 57.0956 34.4564 57.8352 35.5764 57.9702C35.7217 57.9876 35.8701 57.9966 36.0174 57.9966C37.0886 57.9966 38.1121 57.5325 38.7553 56.7554C39.1774 56.2456 39.4897 55.6048 39.6902 54.8398L39.6795 56.5792C39.6763 57.101 39.8536 57.5446 40.1926 57.862C40.5201 58.1687 40.9159 58.3329 41.3691 58.3501C41.3943 58.351 41.4195 58.3515 41.4443 58.3515C41.874 58.3515 42.2536 58.2127 42.5724 57.9391C42.8173 57.729 43.1096 57.3376 43.1108 56.6658L43.1184 52.4271C43.1233 52.4168 43.1281 52.4067 43.1329 52.3967C43.8445 54.1674 44.5223 55.8282 45.1897 57.4374C45.5367 58.3221 46.1425 58.4541 46.4729 58.4541C46.497 58.4541 46.5216 58.4535 46.5462 58.4521C47.0592 58.4241 47.5205 58.1279 47.9169 57.5715C47.9562 57.5163 47.9926 57.4602 48.0277 57.404C48.1229 57.5476 48.232 57.6556 48.3333 57.7344C48.6252 57.9608 48.9655 58.0756 49.3446 58.0756C49.4129 58.0756 49.4833 58.0718 49.5537 58.0641C49.9967 58.0161 50.3819 57.8314 50.6984 57.515C51.0274 57.1863 51.1978 56.7437 51.1912 56.2352L51.1317 51.6787C51.4292 51.6522 51.6864 51.6273 52.0769 51.5878C53.2824 51.4448 54.3951 50.7613 55.0532 49.7593C55.2575 49.4482 55.4296 49.1027 55.5712 48.7255L55.6249 51.2661C55.6464 52.6179 55.8037 54.3071 56.8374 55.3806C57.3682 55.9318 58.0412 56.2114 58.8381 56.2114C59.1904 56.2114 59.5635 56.158 59.9789 56.0482C61.0513 55.7649 62.1453 54.9141 62.8343 53.8281C63.6528 52.5375 63.7739 50.9843 63.7879 49.7754L63.6674 44.6746L63.6665 44.6544C63.6363 44.1486 63.5859 43.6173 63.481 43.0964C63.6845 43.2285 63.8883 43.2573 64.0244 43.2573C64.0512 43.2573 64.0782 43.2563 64.1055 43.2542C64.5637 43.2195 65.0258 43.1832 65.4852 43.1456L65.6628 52.138C65.6733 52.6665 65.9581 53.0476 66.4248 53.1576C66.5232 53.1807 66.6264 53.1926 66.7316 53.1926C66.9903 53.1926 67.2597 53.1246 67.5551 52.9847C67.9131 52.815 68.2271 52.5767 68.4884 52.2762C68.7883 51.9315 68.9376 51.5595 68.9324 51.1703L68.8213 42.8521C69.3036 42.8066 69.7889 42.7595 70.2697 42.7111C70.6531 42.6726 70.9788 42.4549 71.1864 42.0979C71.3546 41.809 71.4399 41.472 71.4399 41.0962C71.4401 40.735 71.3552 40.4112 71.1877 40.1337ZM27.2288 49.0944C27.3702 48.4564 27.5121 47.8119 27.6541 47.1629C27.761 47.8405 27.8694 48.5304 27.98 49.2369C27.7291 49.1901 27.4784 49.1426 27.2288 49.0944ZM39.6052 51.0935C39.3306 50.6893 38.8867 50.466 38.2857 50.4295C38.2344 50.4264 38.1845 50.4248 38.136 50.4248C37.1981 50.4248 36.6214 50.9934 36.5538 51.9849C36.5284 52.3573 36.5013 52.5888 36.4828 52.7175C36.4598 52.8789 36.4105 53.0907 36.3364 53.3472C36.3062 53.4519 36.2521 53.5887 36.1661 53.6461C36.115 53.6803 36.0449 53.6969 35.9519 53.6969C35.9211 53.6969 35.8878 53.6949 35.853 53.6911C34.9613 53.5923 35.0494 51.8724 35.0536 51.7993L35.0542 51.7878L35.1535 45.6506L35.1534 45.6266C35.1383 45.0641 35.2535 44.3626 35.5447 44.0635C35.6374 43.9682 35.7356 43.9276 35.8726 43.9276C35.8829 43.9276 35.8934 43.9279 35.9041 43.9283C36.1708 43.9406 36.6196 44.1651 36.6294 45.5316C36.6369 46.5655 37.2571 47.2055 38.2883 47.2434C38.3189 47.2445 38.3489 47.245 38.3787 47.245C39.0733 47.245 39.4459 46.9339 39.6361 46.6728C39.6745 46.6203 39.7094 46.5624 39.7417 46.5001L39.7123 51.2845C39.6795 51.2165 39.6445 51.1515 39.6052 51.0935ZM45.3059 47.8307C45.9577 46.4607 46.658 44.9784 47.5577 43.066L47.5671 43.045C47.5971 42.9737 47.6231 42.9011 47.6458 42.8273L47.7448 53.8083C46.9577 51.9201 46.1544 49.9515 45.3059 47.8307ZM51.9183 47.6873C51.5775 47.7131 51.34 47.7304 51.0806 47.748L51.0309 43.9304C51.3044 43.923 51.5483 43.9158 51.9008 43.9049L51.9124 43.9048C52.0683 43.9048 52.1817 43.9489 52.28 44.0475C52.5244 44.2931 52.6743 44.8848 52.671 45.5915L52.6758 45.8674C52.6955 46.3887 52.6614 47.6075 51.9183 47.6873ZM59.6074 52.1409C59.5566 52.1561 59.5114 52.1638 59.4729 52.1638C59.4205 52.1638 59.3764 52.1517 59.318 52.0918C59.1031 51.8709 58.9868 51.2975 58.9984 50.8707L58.9988 50.8565L58.8673 45.1934L58.866 45.1689C58.8327 44.671 58.9192 44.0339 59.188 43.7333C59.2881 43.6214 59.4032 43.5684 59.5612 43.5614C59.5737 43.5608 59.5861 43.5606 59.5984 43.5606C59.7643 43.5606 59.9554 43.6027 60.1143 43.9151C60.2434 44.1689 60.3174 44.545 60.3172 44.9471L60.4481 50.3369C60.4634 50.6963 60.4484 51.8887 59.6074 52.1409Z" fill="url(#paint28_linear)"/>
<path d="M16.1197 47.7148C16.1163 47.3068 16.2018 47.0545 16.3667 46.9621C16.5316 46.8698 16.8117 46.8875 17.2076 47.017C17.8796 47.2369 18.232 47.5961 18.2649 48.1045C18.2797 48.3325 18.2995 48.5159 18.3208 48.6517C18.3423 48.7875 18.3886 48.9678 18.4596 49.1937C18.5307 49.4198 18.6502 49.6158 18.819 49.7813C18.9875 49.9467 19.2044 50.0806 19.4587 50.1835C20.3546 50.5463 20.8154 49.729 20.756 48.9147C20.7976 46.7868 20.8392 44.6589 20.8809 42.5311C20.3848 42.4893 20.1369 42.468 19.6414 42.4238C19.4325 42.4053 19.2707 42.2794 19.1554 42.0512C19.04 41.8231 18.9841 41.5536 18.9886 41.2381C18.9928 40.9445 19.0536 40.6916 19.1715 40.4744C19.2893 40.2575 19.4585 40.1471 19.6787 40.148C20.516 40.1511 21.3532 40.154 22.1906 40.1568C22.4584 40.1577 22.6867 40.2347 22.8743 40.3914C23.062 40.5481 23.1526 40.7723 23.146 41.0595C23.0809 43.8895 23.0157 46.7195 22.9506 49.5495C22.8808 50.5866 22.8167 51.8913 21.9412 52.5489C21.1985 53.1067 20.2897 52.8271 19.5179 52.5006C18.5525 52.0923 17.7047 51.2532 17.0696 50.3985C16.5002 49.6319 16.1278 48.6693 16.1197 47.7148Z" fill="url(#paint29_linear)"/>
<path d="M23.3716 52.8377C23.3725 52.7997 23.3834 52.7336 23.4047 52.6385C24.4379 48.8068 25.4121 44.9606 26.3455 41.1034C26.4302 40.767 26.6112 40.5081 26.8885 40.3248C27.1658 40.1416 27.4814 40.0476 27.8356 40.0476C28.1897 40.0476 28.501 40.142 28.7694 40.3352C29.0378 40.5283 29.2061 40.806 29.2746 41.1657C30.1004 45.7323 30.8982 50.3039 31.6882 54.8769C31.7051 55.0004 31.7133 55.0842 31.7123 55.129C31.7046 55.5177 31.5396 55.8229 31.2184 56.0351C30.897 56.2476 30.5665 56.3097 30.2277 56.2266C29.8113 56.1244 29.5698 55.8494 29.502 55.4103C29.359 54.4717 29.2155 53.5333 29.0715 52.5949C28.0556 52.3794 27.0454 52.1361 26.0407 51.874C25.8604 52.6673 25.6783 53.4603 25.4944 54.2528C25.4089 54.6159 25.1621 54.7265 24.7557 54.581C24.4247 54.4627 24.1095 54.2203 23.8096 53.864C23.5098 53.5078 23.3639 53.1673 23.3716 52.8377ZM26.5578 49.5337C27.2561 49.6717 27.9544 49.8037 28.6549 49.9301C28.3533 47.9958 28.0482 46.0621 27.7384 44.129C27.3517 45.9321 26.9584 47.7337 26.5578 49.5337Z" fill="url(#paint30_linear)"/>
<path d="M32.2224 51.4732C32.2611 49.4826 32.2998 47.492 32.3384 45.5013C32.4008 44.1286 32.5131 42.6072 33.3731 41.4841C33.959 40.7189 34.8956 40.1617 35.8883 40.188C36.8723 40.2141 37.8641 40.6714 38.4684 41.452C39.201 42.3983 39.4687 43.7625 39.4562 44.9512C39.4489 45.6351 39.36 46.1015 39.1839 46.3432C39.0075 46.5852 38.7157 46.6991 38.309 46.6841C37.5826 46.6573 37.1946 46.2545 37.1894 45.5277C37.1834 44.6996 36.9967 43.4183 35.9298 43.3693C34.7975 43.3173 34.5714 44.807 34.5938 45.6418C34.5608 47.6838 34.5278 49.7256 34.4947 51.7675C34.4428 52.6733 34.6577 54.1221 35.7914 54.2478C36.064 54.2781 36.294 54.2342 36.4771 54.112C36.6599 53.9899 36.7924 53.7866 36.8743 53.5029C36.9561 53.2196 37.0104 52.9837 37.037 52.7971C37.0636 52.6105 37.0899 52.3514 37.1123 52.0234C37.1624 51.2894 37.5395 50.9456 38.252 50.9886C38.6715 51.014 38.9685 51.1525 39.1422 51.4083C39.3161 51.6644 39.4134 52.149 39.3951 52.8209C39.3622 54.0386 39.1291 55.4264 38.3243 56.3988C37.6842 57.1722 36.6352 57.5341 35.6435 57.4148C34.5878 57.2877 33.675 56.5511 33.1161 55.688C32.3148 54.4509 32.232 52.9145 32.2224 51.4732Z" fill="url(#paint31_linear)"/>
<path d="M40.2397 56.5828C40.271 51.495 40.3022 46.4074 40.3334 41.3196C40.3357 40.9518 40.4475 40.6721 40.6691 40.4802C40.8904 40.2883 41.154 40.1921 41.4606 40.1923C41.7668 40.1924 42.0299 40.2887 42.2497 40.4817C42.4695 40.6746 42.5795 40.9564 42.5788 41.326C42.5753 43.2554 42.5719 45.1849 42.5684 47.1143C43.4786 44.9879 44.3765 42.8564 45.2684 40.7222C45.4109 40.3691 45.6063 40.1923 45.8554 40.1921C46.152 40.192 46.4476 40.3964 46.7426 40.8035C47.0374 41.2104 47.1871 41.6447 47.1904 42.1077C47.1922 42.3633 47.1458 42.6032 47.0513 42.8278C46.2691 44.4905 45.4851 46.1522 44.6954 47.8114C45.6994 50.3241 46.7218 52.8289 47.7722 55.3226C47.8525 55.5246 47.8936 55.7289 47.8954 55.9358C47.8992 56.3979 47.7548 56.8352 47.4616 57.2467C47.1681 57.6584 46.8526 57.8748 46.5161 57.8932C46.1598 57.9127 45.8913 57.6919 45.7113 57.2331C44.8523 55.1618 44.0094 53.0841 43.1775 51.0017C42.9308 51.522 42.8071 51.7816 42.5592 52.2996C42.5567 53.7547 42.554 55.2099 42.5514 56.6649C42.5507 57.035 42.4364 57.3187 42.2084 57.5143C41.9801 57.7103 41.7075 57.8027 41.3907 57.7907C41.0736 57.7788 40.8021 57.6654 40.5757 57.4535C40.3493 57.2415 40.2374 56.9509 40.2397 56.5828Z" fill="url(#paint32_linear)"/>
<path d="M48.3287 56.4756C48.2831 51.4208 48.2376 46.366 48.192 41.3114C48.1893 41.0096 48.2635 40.7468 48.4148 40.524C48.5658 40.3014 48.7658 40.1904 49.0149 40.1901C50.0058 40.1892 50.9967 40.1881 51.9876 40.1869C52.9544 40.2004 53.9012 40.6544 54.4746 41.4356C55.262 42.5085 55.4607 44.0041 55.4816 45.3085C55.4825 45.3531 55.4829 45.3753 55.4838 45.4199C55.5175 46.7801 55.3431 48.2986 54.5856 49.4519C54.0142 50.3216 53.0476 50.9088 52.0113 51.0316C51.4336 51.0901 51.1443 51.1169 50.5655 51.1654C50.5875 52.8578 50.6097 54.5501 50.6317 56.2425C50.6364 56.6031 50.5268 56.8954 50.3031 57.119C50.079 57.343 49.8093 57.4734 49.4938 57.5075C49.1781 57.5417 48.9057 57.4695 48.6769 57.292C48.4481 57.1144 48.332 56.8415 48.3287 56.4756ZM50.5285 48.3447C51.1048 48.3085 51.3927 48.2885 51.9682 48.2449C53.1038 48.132 53.2693 46.7468 53.235 45.8461C53.2332 45.7453 53.2323 45.6949 53.2306 45.594C53.2346 44.7303 53.0309 43.3287 51.8926 43.345C51.3213 43.3626 51.0355 43.3706 50.4638 43.3851C50.4855 45.0384 50.5071 46.6916 50.5285 48.3447Z" fill="url(#paint33_linear)"/>
<path d="M56.1849 51.2569C56.1436 49.304 56.1024 47.351 56.061 45.398C56.0683 44.0553 56.113 42.5323 56.9404 41.4201C57.5217 40.6386 58.4802 40.1488 59.4687 40.1725C60.4189 40.1953 61.4249 40.5675 62.0657 41.2856C62.8686 42.1853 63.0383 43.5215 63.1078 44.6877C63.1479 46.3814 63.1882 48.0751 63.2283 49.7688C63.2133 51.0602 63.0605 52.4262 62.3617 53.5281C61.7875 54.4333 60.8247 55.2456 59.8361 55.5069C58.9426 55.7431 57.9842 55.7642 57.2408 54.9922C56.3368 54.0531 56.2044 52.4848 56.1849 51.2569ZM58.4388 50.8554C58.4185 51.5976 58.7049 52.9961 59.7684 52.6771C60.7723 52.376 61.048 51.2574 61.0074 50.3128C60.9639 48.5243 60.9205 46.7358 60.877 44.9473C60.8774 44.0962 60.5884 42.9553 59.5365 43.002C58.4665 43.0495 58.2512 44.3675 58.3076 45.2062C58.3513 47.0893 58.395 48.9724 58.4388 50.8554Z" fill="url(#paint34_linear)"/>
<path d="M63.3606 41.4355C63.3525 41.0911 63.4028 40.7906 63.5117 40.5379C63.6206 40.2851 63.7851 40.1603 64.0053 40.1595C66.0722 40.1527 68.139 40.1451 70.2058 40.1366C70.4258 40.1357 70.5937 40.2327 70.7084 40.4229C70.8232 40.6132 70.8803 40.8359 70.8803 41.0961C70.8803 41.3752 70.821 41.6136 70.703 41.8161C70.5849 42.0188 70.4221 42.1331 70.2143 42.1538C69.5615 42.2194 68.9082 42.2824 68.2549 42.3425C68.2942 45.2875 68.3335 48.2326 68.3729 51.1776C68.3762 51.4271 68.274 51.6699 68.0664 51.9086C67.8587 52.1474 67.6088 52.3397 67.3157 52.4786C67.0223 52.6176 66.7683 52.6632 66.5537 52.6126C66.3389 52.5619 66.2283 52.3975 66.223 52.1267C66.1598 48.9306 66.0967 45.7343 66.0335 42.5382C65.3771 42.5934 64.7203 42.6461 64.0635 42.6958C63.8538 42.7118 63.6865 42.5999 63.5614 42.3565C63.4361 42.1131 63.3693 41.8049 63.3606 41.4355Z" fill="url(#paint35_linear)"/>
<path d="M21.5418 36.0195H18.995C18.3195 36.0195 17.7719 35.4719 17.7719 34.7964C17.7719 34.1209 18.3195 33.5732 18.995 33.5732H21.5418C22.2173 33.5732 22.7649 34.1209 22.7649 34.7964C22.7649 35.472 22.2173 36.0195 21.5418 36.0195Z" fill="url(#paint36_linear)"/>
<path d="M67.8589 36.0195H65.3121C64.6366 36.0195 64.089 35.4719 64.089 34.7964C64.089 34.1209 64.6366 33.5732 65.3121 33.5732H67.8589C68.5344 33.5732 69.0821 34.1209 69.0821 34.7964C69.0821 35.472 68.5344 36.0195 67.8589 36.0195Z" fill="url(#paint37_linear)"/>
<path d="M28.0953 20.1862L26.2944 18.3853C25.8167 17.9076 25.8167 17.1332 26.2944 16.6555C26.7721 16.1778 27.5465 16.1778 28.0242 16.6555L29.8251 18.4564C30.3027 18.9341 30.3027 19.7085 29.8251 20.1862C29.3475 20.6638 28.573 20.6638 28.0953 20.1862Z" fill="url(#paint38_linear)"/>
<path d="M58.8708 20.1862L60.6716 18.3853C61.1493 17.9076 61.1493 17.1332 60.6716 16.6555C60.1939 16.1778 59.4194 16.1778 58.9418 16.6555L57.141 18.4564C56.6633 18.9341 56.6633 19.7085 57.141 20.1862C57.6187 20.6638 58.3931 20.6638 58.8708 20.1862Z" fill="url(#paint39_linear)"/>
<path d="M44.98 69.8192V61.5354C44.98 60.6777 44.2847 59.9824 43.427 59.9824C42.5693 59.9824 41.874 60.6777 41.874 61.5354V69.8192C41.874 70.6769 42.5693 71.3721 43.427 71.3721C44.2847 71.3721 44.98 70.6769 44.98 69.8192Z" fill="url(#paint40_linear)"/>
<path d="M25.6243 63.5365L29.3618 59.7989C29.9682 59.1925 29.9682 58.2092 29.3618 57.6028C28.7554 56.9963 27.7721 56.9963 27.1656 57.6028L23.4281 61.3403C22.8217 61.9467 22.8217 62.93 23.4281 63.5365C24.0345 64.1429 25.0177 64.1429 25.6243 63.5365Z" fill="url(#paint41_linear)"/>
<path d="M59.6063 61.9127L61.23 63.5364C61.8364 64.1429 62.8197 64.1429 63.4262 63.5364C64.0326 62.93 64.0326 61.9467 63.4262 61.3403L61.8025 59.7165C61.196 59.1101 60.2127 59.1101 59.6063 59.7165C58.9997 60.323 58.9997 61.3063 59.6063 61.9127Z" fill="url(#paint42_linear)"/>
<path d="M33.6482 64.6052C34.2245 64.8835 34.4531 65.5856 34.1511 66.1498L32.4621 69.3053C32.181 69.8595 31.5037 70.0813 30.9495 69.8002C30.5587 69.602 30.3325 69.2056 30.3325 68.7958C30.3325 68.6245 30.3717 68.4509 30.4546 68.2875L32.1666 65.0878C32.4512 64.5557 33.1048 64.3428 33.6482 64.6052Z" fill="url(#paint43_linear)"/>
<path d="M37.0472 60.4587C37.0472 60.63 37.008 60.8036 36.9252 60.967L36.6989 61.3896C36.4142 61.9213 35.7609 62.134 35.2176 61.8721C34.6412 61.594 34.4123 60.8919 34.7141 60.3275L34.9164 59.9493C35.1974 59.395 35.8749 59.1733 36.4302 59.4544C36.821 59.6524 37.0472 60.0489 37.0472 60.4587Z" fill="url(#paint44_linear)"/>
<path d="M49.929 60.967L54.3916 69.3052C54.6727 69.8597 55.3501 70.0815 55.9047 69.8004C56.4593 69.5193 56.681 68.8419 56.3999 68.2873L51.9373 59.9491C51.6562 59.3945 50.9788 59.1728 50.4242 59.4539C49.8696 59.735 49.6479 60.4124 49.929 60.967Z" fill="url(#paint45_linear)"/>
</g>
<defs>
<filter id="filter0_d" x="0" y="0" width="87" height="87" filterUnits="userSpaceOnUse" color-interpolation-filters="sRGB">
<feFlood flood-opacity="0" result="BackgroundImageFix"/>
<feColorMatrix in="SourceAlpha" type="matrix" values="0 0 0 0 0 0 0 0 0 0 0 0 0 0 0 0 0 0 127 0"/>
<feOffset/>
<feGaussianBlur stdDeviation="7.5"/>
<feColorMatrix type="matrix" values="0 0 0 0 0 0 0 0 0 0 0 0 0 0 0 0 0 0 0.6 0"/>
<feBlend mode="normal" in2="BackgroundImageFix" result="effect1_dropShadow"/>
<feBlend mode="normal" in="SourceGraphic" in2="effect1_dropShadow" result="shape"/>
</filter>
<linearGradient id="paint0_linear" x1="43.4271" y1="23.7049" x2="43.4271" y2="31.0572" gradientUnits="userSpaceOnUse">
<stop stop-color="#FFA325"/>
<stop offset="1" stop-color="#FF7044"/>
</linearGradient>
<linearGradient id="paint1_linear" x1="43.0033" y1="23.6798" x2="48.0147" y2="40.0216" gradientUnits="userSpaceOnUse">
<stop stop-color="#FFD945"/>
<stop offset="0.3043" stop-color="#FFCD3E"/>
<stop offset="0.8558" stop-color="#FFAD2B"/>
<stop offset="1" stop-color="#FFA325"/>
</linearGradient>
<linearGradient id="paint2_linear" x1="50.8146" y1="40.7502" x2="35.2041" y2="16.2906" gradientUnits="userSpaceOnUse">
<stop stop-color="#FFD945" stop-opacity="0"/>
<stop offset="1" stop-color="#FBED21"/>
</linearGradient>
<linearGradient id="paint3_linear" x1="53.7082" y1="32.1386" x2="45.0449" y2="5.109" gradientUnits="userSpaceOnUse">
<stop stop-color="#E87264" stop-opacity="0"/>
<stop offset="1" stop-color="#FF7044"/>
</linearGradient>
<radialGradient id="paint4_radial" cx="0" cy="0" r="1" gradientUnits="userSpaceOnUse" gradientTransform="translate(42.7054 17.1714) scale(3.12226)">
<stop stop-color="#FFD945"/>
<stop offset="0.4169" stop-color="#FFD744"/>
<stop offset="0.6278" stop-color="#FFCF3F"/>
<stop offset="0.7926" stop-color="#FFC237"/>
<stop offset="0.9326" stop-color="#FFAF2C"/>
<stop offset="1" stop-color="#FFA325"/>
</radialGradient>
<linearGradient id="paint5_linear" x1="43.8624" y1="18.569" x2="40.8647" y2="15.5714" gradientUnits="userSpaceOnUse">
<stop stop-color="#FFD945" stop-opacity="0"/>
<stop offset="1" stop-color="#FBED21"/>
</linearGradient>
<linearGradient id="paint6_linear" x1="44.4915" y1="18.2277" x2="49.1595" y2="14.2766" gradientUnits="userSpaceOnUse">
<stop stop-color="#E87264" stop-opacity="0"/>
<stop offset="1" stop-color="#FF7044"/>
</linearGradient>
<linearGradient id="paint7_linear" x1="43.427" y1="17.3631" x2="43.427" y2="15.0002" gradientUnits="userSpaceOnUse">
<stop stop-color="white" stop-opacity="0"/>
<stop offset="1" stop-color="white"/>
</linearGradient>
<radialGradient id="paint8_radial" cx="0" cy="0" r="1" gradientUnits="userSpaceOnUse" gradientTransform="translate(22.9218 21.9138) scale(3.12226)">
<stop stop-color="#FFD945"/>
<stop offset="0.4169" stop-color="#FFD744"/>
<stop offset="0.6278" stop-color="#FFCF3F"/>
<stop offset="0.7926" stop-color="#FFC237"/>
<stop offset="0.9326" stop-color="#FFAF2C"/>
<stop offset="1" stop-color="#FFA325"/>
</radialGradient>
<linearGradient id="paint9_linear" x1="24.0788" y1="23.3115" x2="21.0813" y2="20.3139" gradientUnits="userSpaceOnUse">
<stop stop-color="#FFD945" stop-opacity="0"/>
<stop offset="1" stop-color="#FBED21"/>
</linearGradient>
<linearGradient id="paint10_linear" x1="24.7081" y1="22.9704" x2="29.376" y2="19.0193" gradientUnits="userSpaceOnUse">
<stop stop-color="#E87264" stop-opacity="0"/>
<stop offset="1" stop-color="#FF7044"/>
</linearGradient>
<linearGradient id="paint11_linear" x1="23.6435" y1="22.1055" x2="23.6435" y2="19.7426" gradientUnits="userSpaceOnUse">
<stop stop-color="white" stop-opacity="0"/>
<stop offset="1" stop-color="white"/>
</linearGradient>
<radialGradient id="paint12_radial" cx="0" cy="0" r="1" gradientUnits="userSpaceOnUse" gradientTransform="translate(62.4887 21.9139) scale(3.12226)">
<stop stop-color="#FFD945"/>
<stop offset="0.4169" stop-color="#FFD744"/>
<stop offset="0.6278" stop-color="#FFCF3F"/>
<stop offset="0.7926" stop-color="#FFC237"/>
<stop offset="0.9326" stop-color="#FFAF2C"/>
<stop offset="1" stop-color="#FFA325"/>
</radialGradient>
<linearGradient id="paint13_linear" x1="63.6457" y1="23.3115" x2="60.6482" y2="20.3139" gradientUnits="userSpaceOnUse">
<stop stop-color="#FFD945" stop-opacity="0"/>
<stop offset="1" stop-color="#FBED21"/>
</linearGradient>
<linearGradient id="paint14_linear" x1="64.2749" y1="22.9704" x2="68.9427" y2="19.0193" gradientUnits="userSpaceOnUse">
<stop stop-color="#E87264" stop-opacity="0"/>
<stop offset="1" stop-color="#FF7044"/>
</linearGradient>
<linearGradient id="paint15_linear" x1="63.2103" y1="22.1055" x2="63.2103" y2="19.7426" gradientUnits="userSpaceOnUse">
<stop stop-color="white" stop-opacity="0"/>
<stop offset="1" stop-color="white"/>
</linearGradient>
<radialGradient id="paint16_radial" cx="0" cy="0" r="1" gradientUnits="userSpaceOnUse" gradientTransform="translate(32.2629 20.8414) scale(3.12226)">
<stop stop-color="#FFA325"/>
<stop offset="0.4235" stop-color="#FFA126"/>
<stop offset="0.6378" stop-color="#FF992B"/>
<stop offset="0.8052" stop-color="#FF8C33"/>
<stop offset="0.9474" stop-color="#FF793E"/>
<stop offset="1" stop-color="#FF7044"/>
</radialGradient>
<linearGradient id="paint17_linear" x1="33.4199" y1="22.2391" x2="30.4222" y2="19.2414" gradientUnits="userSpaceOnUse">
<stop stop-color="#FF7044" stop-opacity="0"/>
<stop offset="1" stop-color="#FFD945"/>
</linearGradient>
<linearGradient id="paint18_linear" x1="34.0491" y1="21.8979" x2="38.717" y2="17.9469" gradientUnits="userSpaceOnUse">
<stop stop-color="#F35227" stop-opacity="0"/>
<stop offset="1" stop-color="#F35227"/>
</linearGradient>
<linearGradient id="paint19_linear" x1="32.9846" y1="21.0331" x2="32.9846" y2="18.6702" gradientUnits="userSpaceOnUse">
<stop stop-color="white" stop-opacity="0"/>
<stop offset="1" stop-color="white"/>
</linearGradient>
<radialGradient id="paint20_radial" cx="0" cy="0" r="1" gradientUnits="userSpaceOnUse" gradientTransform="translate(53.1477 20.8414) scale(3.12226)">
<stop stop-color="#FFA325"/>
<stop offset="0.4235" stop-color="#FFA126"/>
<stop offset="0.6378" stop-color="#FF992B"/>
<stop offset="0.8052" stop-color="#FF8C33"/>
<stop offset="0.9474" stop-color="#FF793E"/>
<stop offset="1" stop-color="#FF7044"/>
</radialGradient>
<linearGradient id="paint21_linear" x1="54.3048" y1="22.2391" x2="51.3071" y2="19.2415" gradientUnits="userSpaceOnUse">
<stop stop-color="#FF7044" stop-opacity="0"/>
<stop offset="1" stop-color="#FFD945"/>
</linearGradient>
<linearGradient id="paint22_linear" x1="54.9338" y1="21.8979" x2="59.6017" y2="17.9469" gradientUnits="userSpaceOnUse">
<stop stop-color="#F35227" stop-opacity="0"/>
<stop offset="1" stop-color="#F35227"/>
</linearGradient>
<linearGradient id="paint23_linear" x1="53.8694" y1="21.0331" x2="53.8694" y2="18.6702" gradientUnits="userSpaceOnUse">
<stop stop-color="white" stop-opacity="0"/>
<stop offset="1" stop-color="white"/>
</linearGradient>
<linearGradient id="paint24_linear" x1="43.4271" y1="37.9153" x2="43.4271" y2="44.3151" gradientUnits="userSpaceOnUse">
<stop stop-color="#FF7044"/>
<stop offset="1" stop-color="#F82814"/>
</linearGradient>
<linearGradient id="paint25_linear" x1="43.4271" y1="41.5843" x2="43.4271" y2="44.4794" gradientUnits="userSpaceOnUse">
<stop stop-color="#FFD945"/>
<stop offset="0.3043" stop-color="#FFCD3E"/>
<stop offset="0.8558" stop-color="#FFAD2B"/>
<stop offset="1" stop-color="#FFA325"/>
</linearGradient>
<linearGradient id="paint26_linear" x1="43.4271" y1="36.2068" x2="43.4271" y2="39.1019" gradientUnits="userSpaceOnUse">
<stop stop-color="#FFD945"/>
<stop offset="0.3043" stop-color="#FFCD3E"/>
<stop offset="0.8558" stop-color="#FFAD2B"/>
<stop offset="1" stop-color="#FFA325"/>
</linearGradient>
<linearGradient id="paint27_linear" x1="39.3152" y1="32.5425" x2="48.723" y2="59.6635" gradientUnits="userSpaceOnUse">
<stop stop-color="#E4F2FF"/>
<stop offset="1" stop-color="#B2CBFF"/>
</linearGradient>
<linearGradient id="paint28_linear" x1="53.9676" y1="61.1386" x2="32.947" y2="28.3582" gradientUnits="userSpaceOnUse">
<stop stop-color="#E4F2FF"/>
<stop offset="1" stop-color="#B2CBFF"/>
</linearGradient>
<linearGradient id="paint29_linear" x1="22.2993" y1="52.2996" x2="26.5142" y2="64.4541" gradientUnits="userSpaceOnUse">
<stop stop-color="#FF7044"/>
<stop offset="1" stop-color="#F82814"/>
</linearGradient>
<linearGradient id="paint30_linear" x1="27.5061" y1="50.494" x2="31.721" y2="62.6486" gradientUnits="userSpaceOnUse">
<stop stop-color="#FF7044"/>
<stop offset="1" stop-color="#F82814"/>
</linearGradient>
<linearGradient id="paint31_linear" x1="35.5344" y1="47.71" x2="39.7493" y2="59.8645" gradientUnits="userSpaceOnUse">
<stop stop-color="#FF7044"/>
<stop offset="1" stop-color="#F82814"/>
</linearGradient>
<linearGradient id="paint32_linear" x1="42.3437" y1="45.3487" x2="46.5586" y2="57.5033" gradientUnits="userSpaceOnUse">
<stop stop-color="#FF7044"/>
<stop offset="1" stop-color="#F82814"/>
</linearGradient>
<linearGradient id="paint33_linear" x1="49.3639" y1="42.9143" x2="53.5788" y2="55.0688" gradientUnits="userSpaceOnUse">
<stop stop-color="#FF7044"/>
<stop offset="1" stop-color="#F82814"/>
</linearGradient>
<linearGradient id="paint34_linear" x1="56.9201" y1="40.2941" x2="61.1349" y2="52.4486" gradientUnits="userSpaceOnUse">
<stop stop-color="#FF7044"/>
<stop offset="1" stop-color="#F82814"/>
</linearGradient>
<linearGradient id="paint35_linear" x1="65.368" y1="37.3645" x2="69.5829" y2="49.519" gradientUnits="userSpaceOnUse">
<stop stop-color="#FF7044"/>
<stop offset="1" stop-color="#F82814"/>
</linearGradient>
<linearGradient id="paint36_linear" x1="20.2683" y1="34.5115" x2="20.2683" y2="37.0284" gradientUnits="userSpaceOnUse">
<stop stop-color="#92F37F"/>
<stop offset="1" stop-color="#4AB272"/>
</linearGradient>
<linearGradient id="paint37_linear" x1="66.5855" y1="34.5115" x2="66.5855" y2="37.0284" gradientUnits="userSpaceOnUse">
<stop stop-color="#00ADFB"/>
<stop offset="1" stop-color="#3F3CED"/>
</linearGradient>
<linearGradient id="paint38_linear" x1="28.2507" y1="18.2118" x2="26.4712" y2="19.9913" gradientUnits="userSpaceOnUse">
<stop stop-color="#00ADFB"/>
<stop offset="1" stop-color="#3F3CED"/>
</linearGradient>
<linearGradient id="paint39_linear" x1="58.6919" y1="18.2118" x2="60.4714" y2="19.9913" gradientUnits="userSpaceOnUse">
<stop stop-color="#92F37F"/>
<stop offset="1" stop-color="#4AB272"/>
</linearGradient>
<linearGradient id="paint40_linear" x1="43.0653" y1="65.6773" x2="46.2608" y2="65.6773" gradientUnits="userSpaceOnUse">
<stop stop-color="#92F37F"/>
<stop offset="1" stop-color="#4AB272"/>
</linearGradient>
<linearGradient id="paint41_linear" x1="26.1373" y1="60.308" x2="28.3965" y2="62.5672" gradientUnits="userSpaceOnUse">
<stop stop-color="#00ADFB"/>
<stop offset="1" stop-color="#3F3CED"/>
</linearGradient>
<linearGradient id="paint42_linear" x1="61.7727" y1="61.3637" x2="59.5135" y2="63.6229" gradientUnits="userSpaceOnUse">
<stop stop-color="#FFD945"/>
<stop offset="0.3043" stop-color="#FFCD3E"/>
<stop offset="0.8558" stop-color="#FFAD2B"/>
<stop offset="1" stop-color="#FFA325"/>
</linearGradient>
<linearGradient id="paint43_linear" x1="32.3085" y1="66.5753" x2="32.3085" y2="72.1607" gradientUnits="userSpaceOnUse">
<stop stop-color="#FFD945"/>
<stop offset="0.3043" stop-color="#FFCD3E"/>
<stop offset="0.8558" stop-color="#FFAD2B"/>
<stop offset="1" stop-color="#FFA325"/>
</linearGradient>
<linearGradient id="paint44_linear" x1="35.814" y1="60.3495" x2="35.814" y2="63.0775" gradientUnits="userSpaceOnUse">
<stop stop-color="#92F37F"/>
<stop offset="1" stop-color="#4AB272"/>
</linearGradient>
<linearGradient id="paint45_linear" x1="53.4258" y1="64.5012" x2="51.1661" y2="65.6463" gradientUnits="userSpaceOnUse">
<stop stop-color="#00ADFB"/>
<stop offset="1" stop-color="#3F3CED"/>
</linearGradient>
<clipPath id="clip0">
<rect width="57" height="57" fill="white" transform="translate(15 15)"/>
</clipPath>
</defs>
</svg>
