<svg width="26" height="26" viewBox="0 0 26 26" fill="none" xmlns="http://www.w3.org/2000/svg">
<mask id="mask0" mask-type="alpha" maskUnits="userSpaceOnUse" x="0" y="0" width="26" height="26">
<circle cx="13" cy="13" r="13" fill="#C4C4C4"/>
</mask>
<g mask="url(#mask0)">
<g clip-path="url(#clip0)">
<path d="M26 -0.00012207H0V25.9999H26V-0.00012207Z" fill="#F0F0F0"/>
<path d="M0 15.4374H10.5625V25.9999H15.4375V15.4374H26V10.5624H15.4375V-0.00012207H10.5625V10.5624H0V15.4374Z" fill="#D80027"/>
<path d="M20.6641 16.9564L26.0002 22.2925V16.9564H20.6641Z" fill="#0052B4"/>
<path d="M16.9565 16.9564L26 25.9999V23.4426L19.5139 16.9564H16.9565Z" fill="#0052B4"/>
<path d="M23.5912 25.9999L16.9565 19.3646V25.9999H23.5912Z" fill="#0052B4"/>
<path d="M16.9565 16.9564L26 25.9999V23.4426L19.5139 16.9564H16.9565Z" fill="#F0F0F0"/>
<path d="M16.9565 16.9564L26 25.9999V23.4426L19.5139 16.9564H16.9565Z" fill="#D80027"/>
<path d="M4.07784 16.9564L0 21.0343V16.9564H4.07784Z" fill="#0052B4"/>
<path d="M9.04507 18.1063V25.9997H1.15234L9.04507 18.1063Z" fill="#0052B4"/>
<path d="M6.48598 16.9566L0 23.4426V25.9999L9.04333 16.9566H6.48598Z" fill="#D80027"/>
<path d="M5.33609 9.04331L0 3.70721V9.04331H5.33609Z" fill="#0052B4"/>
<path d="M9.04348 9.04336L0 -0.00012207V2.55722L6.48614 9.04336H9.04348Z" fill="#0052B4"/>
<path d="M2.41016 -0.00012207L9.04478 6.63511V-0.00012207H2.41016Z" fill="#0052B4"/>
<path d="M9.04348 9.04336L0 -0.00012207V2.55722L6.48614 9.04336H9.04348Z" fill="#F0F0F0"/>
<path d="M9.04348 9.04336L0 -0.00012207V2.55722L6.48614 9.04336H9.04348Z" fill="#D80027"/>
<path d="M21.9219 9.04329L25.9997 4.96545V9.04329H21.9219Z" fill="#0052B4"/>
<path d="M16.9565 7.89333V0H24.8493L16.9565 7.89333Z" fill="#0052B4"/>
<path d="M19.5139 9.04321L25.9999 2.55717V-0.00012207L16.9565 9.04321H19.5139Z" fill="#D80027"/>
</g>
</g>
<defs>
<clipPath id="clip0">
<rect width="26" height="26" fill="white" transform="translate(0 -0.00012207)"/>
</clipPath>
</defs>
</svg>
