<svg width="89" height="35" viewBox="0 0 89 35" fill="none" xmlns="http://www.w3.org/2000/svg">
<path d="M0 1.52562V25.6086H6.39704V11.5915H6.58519L11.9474 25.4204H15.8045L21.1667 11.6856H21.3548V25.6086H27.7519V1.52562H19.6145L14.017 15.1664H13.7348L8.13741 1.52562H0Z" fill="white"/>
<path d="M37.1064 25.6086L38.494 20.999H46.4432L47.8308 25.6086H54.8864L46.9371 1.52562H38.0001L30.0508 25.6086H37.1064ZM39.9756 16.1071L42.3745 8.15785H42.5627L44.9615 16.1071H39.9756Z" fill="white"/>
<path d="M64.2144 1.52562H56.8766L64.0263 13.5671L56.6414 25.6086H64.0733L68.1655 18.459H68.3537L72.4459 25.6086H79.9248L71.9197 14.2256L68.1655 8.53414L64.2144 1.52562Z" fill="white"/>
<path d="M89 1.52562H82.4618V25.6086H89V1.52562Z" fill="white"/>
<path d="M80.9987 0.907692L75.025 12.156L70.8857 5.94707L73.8491 0.772995L80.9987 0.907692Z" fill="#55B56B"/>
<path d="M4.56929 31.5068C4.56929 29.8407 3.60893 28.802 2.28465 28.802C0.96036 28.802 0 29.8407 0 31.5068C0 33.1729 0.96036 34.2116 2.28465 34.2116C3.60893 34.2116 4.56929 33.1729 4.56929 31.5068ZM3.96275 31.5068C3.96275 32.8746 3.22479 33.6151 2.28465 33.6151C1.3445 33.6151 0.606543 32.8746 0.606543 31.5068C0.606543 30.139 1.3445 29.3985 2.28465 29.3985C3.22479 29.3985 3.96275 30.139 3.96275 31.5068Z" fill="white"/>
<path d="M12.5386 28.874H11.9219V33.0186H11.8714L9.04083 28.874H8.43428V34.1396H9.06104V30.0053H9.11159L11.932 34.1396H12.5386V28.874Z" fill="white"/>
<path d="M16.6038 34.1396H19.6366V33.574H17.2306V28.874H16.6038V34.1396Z" fill="white"/>
<path d="M24.0449 28.874H23.4181V34.1396H24.0449V28.874Z" fill="white"/>
<path d="M32.217 28.874H31.6003V33.0186H31.5498L28.7193 28.874H28.1127V34.1396H28.7395V30.0053H28.79L31.6104 34.1396H32.217V28.874Z" fill="white"/>
<path d="M36.2823 34.1396H39.4464V33.574H36.909V31.7845H39.2442V31.2188H36.909V29.4397H39.406V28.874H36.2823V34.1396Z" fill="white"/>
<path d="M52.4002 30.5864C52.2233 29.4602 51.3565 28.802 50.2622 28.802C48.9227 28.802 47.9346 29.8228 47.9346 31.5068C47.9346 33.1909 48.9177 34.2116 50.2622 34.2116C51.3994 34.2116 52.2309 33.4865 52.4002 32.4453L51.6117 32.4427C51.4778 33.1163 50.9218 33.4865 50.2672 33.4865C49.3802 33.4865 48.7104 32.7949 48.7104 31.5068C48.7104 30.229 49.3776 29.5271 50.2698 29.5271C50.9294 29.5271 51.4828 29.905 51.6117 30.5864H52.4002Z" fill="white"/>
<path d="M56.5483 34.1396L57.0234 32.7461H59.0452L59.5178 34.1396H60.3468L58.4842 28.874H57.5819L55.7193 34.1396H56.5483ZM57.2509 32.0776L58.0141 29.8305H58.0545L58.8178 32.0776H57.2509Z" fill="white"/>
<path d="M66.6866 30.2573H67.4397C67.4169 29.4139 66.684 28.802 65.6327 28.802C64.594 28.802 63.7979 29.4062 63.7979 30.3138C63.7979 31.0466 64.3135 31.476 65.1449 31.7048L65.7565 31.8745C66.31 32.0236 66.7371 32.2087 66.7371 32.6766C66.7371 33.1909 66.2544 33.5302 65.5897 33.5302C64.9883 33.5302 64.4879 33.2577 64.4424 32.6844H63.6589C63.7095 33.6382 64.4348 34.227 65.5948 34.227C66.8104 34.227 67.5105 33.5765 67.5105 32.6844C67.5105 31.7356 66.679 31.368 66.0219 31.2034L65.5164 31.0697C65.1121 30.9643 64.5738 30.7715 64.5763 30.2675C64.5763 29.8202 64.9781 29.4885 65.615 29.4885C66.2089 29.4885 66.631 29.7713 66.6866 30.2573Z" fill="white"/>
<path d="M72.0357 28.874H71.2548V34.1396H72.0357V28.874Z" fill="white"/>
<path d="M80.1617 28.874H79.3883V32.7409H79.3403L76.7069 28.874H75.9841V34.1396H76.765V30.2778H76.813L79.4439 34.1396H80.1617V28.874Z" fill="white"/>
<path d="M88.6079 31.5068C88.6079 29.8228 87.6172 28.802 86.2778 28.802C84.9333 28.802 83.9451 29.8228 83.9451 31.5068C83.9451 33.1883 84.9333 34.2116 86.2778 34.2116C87.6172 34.2116 88.6079 33.1909 88.6079 31.5068ZM87.8346 31.5068C87.8346 32.7898 87.1674 33.4865 86.2778 33.4865C85.3857 33.4865 84.721 32.7898 84.721 31.5068C84.721 30.2238 85.3857 29.5271 86.2778 29.5271C87.1674 29.5271 87.8346 30.2238 87.8346 31.5068Z" fill="white"/>
</svg>
