<svg width="24" height="24" viewBox="0 0 24 24" fill="none" xmlns="http://www.w3.org/2000/svg">
<path d="M21.4988 22.9365L21.4988 22.9365C21.7169 23.1545 22.0703 23.1545 22.2884 22.9365L22.2885 22.9365L22.9365 22.2884L22.8658 22.2177L22.9365 22.2884C23.1545 22.0704 23.1545 21.7168 22.9364 21.4988L16.6089 15.1713C17.8011 13.6688 18.5167 11.7713 18.5167 9.70836C18.5167 4.85137 14.5653 0.9 9.70832 0.9C4.85133 0.9 0.9 4.85137 0.9 9.70836C0.9 14.5654 4.85137 18.5167 9.70837 18.5167C11.7713 18.5167 13.6688 17.8011 15.1713 16.609L21.4988 22.9365ZM9.70837 16.4834C5.9725 16.4834 2.93335 13.4442 2.93335 9.70836C2.93335 5.9725 5.9725 2.93335 9.70837 2.93335C13.4442 2.93335 16.4834 5.9725 16.4834 9.70836C16.4834 13.4442 13.4442 16.4834 9.70837 16.4834Z" fill="white" stroke="white" stroke-width="0.2"/>
</svg>
