<svg width="67" height="63" viewBox="0 0 67 63" fill="none" xmlns="http://www.w3.org/2000/svg">
<g clip-path="url(#clip0)" filter="url(#filter0_d)">
<path d="M25.5508 41.4844L28.4311 40.6104C29.149 40.3922 29.9074 40.797 30.1255 41.5148C30.3154 42.1428 30.0293 42.8019 29.4738 43.1027C30.8991 43.6301 32.4182 43.8933 33.9728 43.8733C36.6352 43.8401 39.1703 42.9731 41.3038 41.3656C42.6184 40.3753 43.7057 39.1613 44.5255 37.7789C44.6763 37.5248 45.0058 37.4435 45.2577 37.5979L46.6691 38.4631C46.9169 38.615 46.9958 38.9379 46.8472 39.1877C45.8509 40.8627 44.5318 42.3341 42.9377 43.535C40.3392 45.4921 37.2507 46.5488 34.0065 46.5893C31.9822 46.615 30.0076 46.2458 28.1676 45.5096C28.2418 46.1501 27.8517 46.7704 27.2148 46.9641C26.4967 47.1816 25.7383 46.777 25.5202 46.0591L24.6455 43.1783C24.6174 43.1083 24.4376 42.6371 24.6908 42.1407C24.9569 41.6192 25.4823 41.4988 25.5508 41.4844Z" fill="url(#paint0_linear)"/>
<path d="M25.682 41.8884L28.5543 41.0164C28.9283 40.9028 29.3371 41.036 29.5716 41.348C29.6371 41.435 29.6869 41.5326 29.7189 41.6381C29.8466 42.0608 29.6587 42.5194 29.2716 42.7291L28.447 43.1753L29.3265 43.5009C30.8095 44.0498 32.3747 44.3185 33.9782 44.2984C36.7313 44.2636 39.3528 43.3667 41.5596 41.7049C43.045 40.5857 44.2421 39.2034 45.1186 37.594L45.1782 37.5491L46.7454 38.5098C45.7505 40.33 44.3763 41.9199 42.6825 43.1956C40.1561 45.0987 37.1547 46.1252 34.0014 46.1649C32.0368 46.1896 30.1273 45.8366 28.3258 45.1156L27.6639 44.8505L27.7457 45.5588C27.798 46.0063 27.5226 46.4266 27.0909 46.5577C26.7175 46.6712 26.3086 46.538 26.0737 46.2267C26.0081 46.1397 25.9589 46.0414 25.9269 45.9359L25.0562 43.0695C25.0305 43.0027 24.9336 42.7276 25.0564 42.4211C25.2211 42.0095 25.6384 41.8992 25.682 41.8884Z" fill="url(#paint1_linear)"/>
<path d="M24.6761 42.3041C24.7956 42.3941 24.9164 42.4819 25.0385 42.5676C30.107 46.1404 37.1 46.2221 42.3202 42.2901C43.8819 41.114 45.142 39.686 46.0861 38.1057L46.669 38.463C46.9169 38.6149 46.9957 38.9378 46.8472 39.1876C45.8509 40.8626 44.5317 42.3339 42.9376 43.5349C40.3392 45.492 37.2507 46.5487 34.0065 46.5892C31.9822 46.6148 30.0076 46.2456 28.1676 45.5095C28.2417 46.15 27.8516 46.7702 27.2147 46.964C26.4967 47.1815 25.7383 46.7768 25.5202 46.059L24.6455 43.1782C24.6103 43.0737 24.5661 42.8974 24.5843 42.6788C24.5975 42.5201 24.6392 42.3921 24.6761 42.3041Z" fill="url(#paint2_linear)"/>
<path d="M41.4492 21.5155L38.5688 22.3895C37.8509 22.6077 37.0925 22.2029 36.8744 21.4851C36.6846 20.8571 36.9706 20.1981 37.5261 19.8972C36.1008 19.3698 34.5817 19.1066 33.0272 19.1266C30.3648 19.1598 27.8297 20.0268 25.6962 21.6343C24.3815 22.6246 23.2943 23.8386 22.4744 25.221C22.3236 25.4751 21.9941 25.5564 21.7422 25.402L20.3307 24.5368C20.0829 24.3849 20.004 24.0621 20.1526 23.8123C21.1489 22.1373 22.468 20.6659 24.0621 19.4649C26.6606 17.5079 29.7491 16.4512 32.9933 16.4106C35.0175 16.385 36.9922 16.7542 38.8322 17.4904C38.758 16.8499 39.1481 16.2296 39.785 16.0358C40.5031 15.8183 41.2615 16.223 41.4796 16.9409L42.3543 19.8217C42.3773 19.9038 42.529 20.482 42.1663 20.9992C41.9187 21.3522 41.5712 21.4777 41.4492 21.5155Z" fill="url(#paint3_linear)"/>
<path d="M41.318 21.1117L38.4458 21.9837C38.0717 22.0973 37.6629 21.9641 37.4284 21.6522C37.3629 21.5651 37.3132 21.4675 37.2812 21.3621C37.1535 20.9394 37.3413 20.4807 37.7284 20.2711L38.5531 19.8248L37.6736 19.4993C36.1905 18.9503 34.6254 18.6817 33.0219 18.7018C30.2687 18.7365 27.6472 19.6334 25.4404 21.2952C23.9551 22.4145 22.7579 23.7967 21.8814 25.4062L21.8218 25.4511L20.2546 24.4902C21.2495 22.6701 22.6237 21.0802 24.3175 19.8045C26.8439 17.9014 29.8454 16.8748 32.9987 16.8352C34.9632 16.8105 36.8728 17.1635 38.6743 17.8844L39.3362 18.1496L39.2544 17.4412C39.202 16.9937 39.4774 16.5735 39.9091 16.4424C40.2826 16.3289 40.6914 16.4621 40.9263 16.7733C40.9919 16.8604 41.0412 16.9587 41.0732 17.0642L41.9438 19.9306C41.9752 20.008 42.0599 20.2465 41.9725 20.5214C41.8283 20.9745 41.3509 21.1034 41.318 21.1117Z" fill="url(#paint4_linear)"/>
<path d="M42.3236 20.6958C42.2041 20.6058 42.0833 20.5179 41.9612 20.4322C36.8926 16.8595 29.8996 16.7779 24.6795 20.7098C23.1178 21.8859 21.8577 23.3139 20.9136 24.8942L20.3307 24.5368C20.0829 24.3849 20.004 24.0621 20.1526 23.8123C21.1489 22.1373 22.468 20.6659 24.0621 19.4649C26.6605 17.5079 29.7491 16.4512 32.9933 16.4106C35.0175 16.385 36.9922 16.7542 38.8322 17.4904C38.758 16.8499 39.1481 16.2296 39.785 16.0358C40.503 15.8183 41.2615 16.223 41.4796 16.9409L42.3543 19.8217C42.3889 19.9508 42.4235 20.1468 42.3961 20.3812C42.3817 20.5045 42.3534 20.6104 42.3236 20.6958Z" fill="url(#paint5_linear)"/>
<path d="M31.3193 30.6375C31.3193 26.6075 27.666 23.3405 23.1597 23.3405C18.6533 23.3405 15 26.6075 15 30.6375V32.3626C15 36.3927 18.6532 39.6596 23.1596 39.6596C27.666 39.6596 31.3192 36.3926 31.3192 32.3626C31.3193 32.3569 31.3193 30.6432 31.3193 30.6375Z" fill="url(#paint6_linear)"/>
<path d="M29.8799 26.4984C28.408 24.5908 25.9473 23.3405 23.1597 23.3405C20.372 23.3405 17.9114 24.5909 16.4395 26.4984V36.5016C17.9113 38.4092 20.372 39.6596 23.1597 39.6596C25.9473 39.6596 28.408 38.4092 29.8799 36.5016V26.4984Z" fill="url(#paint7_linear)"/>
<path d="M28.6853 37.7312C29.6678 36.922 30.4276 35.8999 30.8732 34.7467V33.0216L28.6853 36.0061V37.7312Z" fill="url(#paint8_linear)"/>
<path d="M18.3735 38.2727C19.718 39.145 21.3714 39.6597 23.1594 39.6597C24.9475 39.6597 26.6009 39.145 27.9454 38.2727V24.7274C26.6009 23.8552 24.9475 23.3405 23.1594 23.3405C21.3714 23.3405 19.718 23.8552 18.3735 24.7274V38.2727Z" fill="url(#paint9_linear)"/>
<path d="M21.3057 39.4704C21.9012 39.5942 22.5218 39.6597 23.1595 39.6597C23.7972 39.6597 24.4177 39.5942 25.0134 39.4704V23.5297C24.4178 23.406 23.7972 23.3405 23.1595 23.3405C22.5218 23.3405 21.9013 23.406 21.3057 23.5297V39.4704Z" fill="url(#paint10_linear)"/>
<path d="M23.1596 37.9346C27.666 37.9346 31.3192 34.6676 31.3192 30.6375C31.3192 26.6075 27.666 23.3405 23.1596 23.3405C18.6532 23.3405 15 26.6075 15 30.6375C15 34.6676 18.6532 37.9346 23.1596 37.9346Z" fill="url(#paint11_linear)"/>
<path d="M21.306 23.5296L21.3059 27.1348L17.5204 25.3639C16.5409 26.2018 15.7947 27.2558 15.377 28.4401L19.4246 30.3302L15.446 33.0215C15.8916 34.1748 16.6513 35.1968 17.6339 36.006L21.3059 33.5254V37.7453C21.9014 37.869 22.522 37.9345 23.1597 37.9345C23.7974 37.9345 24.4179 37.869 25.0136 37.7453V33.5254L28.6856 36.006C29.6681 35.1968 30.4278 34.1748 30.8734 33.0215L26.8948 30.3302L30.9425 28.4401C30.5248 27.2558 29.7785 26.2018 28.799 25.3639L25.0135 27.135V23.5298H25.0134C24.5281 23.4225 23.9071 23.3293 23.184 23.3273C22.439 23.3251 21.8009 23.4202 21.306 23.5296Z" fill="url(#paint12_linear)"/>
<path d="M23.1596 35.9324C26.4296 35.9324 29.0805 33.5617 29.0805 30.6374C29.0805 27.7131 26.4296 25.3424 23.1596 25.3424C19.8896 25.3424 17.2388 27.7131 17.2388 30.6374C17.2388 33.5617 19.8896 35.9324 23.1596 35.9324Z" fill="url(#paint13_linear)"/>
<path d="M28.1657 25.6601L25.0135 27.1349V24.1498C24.4206 24.0147 23.7995 23.9427 23.1596 23.9427C22.5197 23.9427 21.8986 24.0147 21.3058 24.1498V27.1349L18.1535 25.6601C17.1434 26.4731 16.3824 27.5285 15.9844 28.7238L19.4245 30.3302L16.0135 32.6376C16.4226 33.8081 17.1817 34.8401 18.1809 35.6365L21.3058 33.5254V37.1252C21.8987 37.2603 22.5197 37.3323 23.1597 37.3323C23.7996 37.3323 24.4207 37.2603 25.0135 37.1252V33.5254L28.1385 35.6365C29.1377 34.8401 29.8967 33.808 30.3059 32.6376L26.8949 30.3302L30.3349 28.7238C29.9368 27.5285 29.1757 26.4731 28.1657 25.6601Z" fill="url(#paint14_linear)"/>
<path d="M23.1596 35.3374C26.0621 35.3374 28.4151 33.2332 28.4151 30.6374C28.4151 28.0417 26.0621 25.9375 23.1596 25.9375C20.257 25.9375 17.9041 28.0417 17.9041 30.6374C17.9041 33.2332 20.257 35.3374 23.1596 35.3374Z" fill="url(#paint15_linear)"/>
<path d="M15.446 34.7467C15.8916 35.8999 16.6514 36.922 17.6339 37.7312V36.0061L15.446 33.0216V34.7467Z" fill="url(#paint16_linear)"/>
<path d="M20.2126 29.0405C20.2126 28.8735 20.2798 28.7506 20.4145 28.6717L21.333 28.115C21.384 28.0825 21.4513 28.0663 21.5349 28.0663C21.6554 28.0663 21.7656 28.0988 21.8654 28.1637C21.9651 28.2287 22.015 28.3098 22.015 28.4073V32.8331C22.015 32.9399 21.9616 33.0222 21.8549 33.0801C21.7481 33.1382 21.6206 33.1671 21.4722 33.1671C21.3237 33.1671 21.1961 33.1382 21.0895 33.0801C20.9827 33.0222 20.9294 32.9399 20.9294 32.8331V29.2911L20.7276 29.4163C20.672 29.4535 20.6138 29.4719 20.5536 29.4719C20.4562 29.4719 20.3749 29.4279 20.3101 29.3397C20.2451 29.2517 20.2126 29.1518 20.2126 29.0405Z" fill="url(#paint17_linear)"/>
<path d="M22.6899 31.5665V29.7224C22.6899 29.1564 22.8453 28.7411 23.1562 28.4767C23.467 28.2123 23.88 28.0801 24.3949 28.0801C24.9144 28.0801 25.3297 28.2123 25.6405 28.4767C25.9513 28.7411 26.1068 29.1564 26.1068 29.7224V31.5665C26.1068 32.1326 25.9513 32.5477 25.6405 32.8122C25.3296 33.0766 24.9144 33.2088 24.3949 33.2088C23.88 33.2088 23.467 33.0766 23.1562 32.8122C22.8453 32.5477 22.6899 32.1326 22.6899 31.5665ZM23.7755 31.5665C23.7755 32.0304 23.9819 32.2624 24.3948 32.2624C24.8124 32.2624 25.0212 32.0304 25.0212 31.5665V29.7224C25.0212 29.2585 24.8124 29.0265 24.3948 29.0265C23.9819 29.0265 23.7755 29.2585 23.7755 29.7224V31.5665Z" fill="url(#paint18_linear)"/>
<path d="M23.1597 37.3323C27.2942 37.3323 30.6458 34.3349 30.6458 30.6375C30.6458 26.9401 27.2942 23.9427 23.1597 23.9427C19.0252 23.9427 15.6736 26.9401 15.6736 30.6375C15.6736 34.3349 19.0252 37.3323 23.1597 37.3323Z" fill="url(#paint19_linear)"/>
<path d="M51.9998 30.6375C51.9998 26.6075 48.3466 23.3405 43.8403 23.3405C39.3338 23.3405 35.6807 26.6075 35.6807 30.6375V32.3626C35.6807 36.3926 39.3339 39.6596 43.8403 39.6596C48.3466 39.6596 51.9998 36.3926 51.9998 32.3626C51.9998 32.3569 51.9998 30.6432 51.9998 30.6375Z" fill="url(#paint20_linear)"/>
<path d="M50.5605 26.4984C49.0886 24.5908 46.628 23.3405 43.8403 23.3405C41.0527 23.3405 38.592 24.5909 37.1201 26.4984V36.5016C38.592 38.4092 41.0526 39.6596 43.8403 39.6596C46.628 39.6596 49.0886 38.4092 50.5605 36.5016V26.4984Z" fill="url(#paint21_linear)"/>
<path d="M39.0547 38.2727C40.3992 39.145 42.0526 39.6597 43.8406 39.6597C45.6286 39.6597 47.282 39.145 48.6265 38.2727V24.7274C47.282 23.8552 45.6286 23.3405 43.8406 23.3405C42.0526 23.3405 40.3992 23.8552 39.0547 24.7274V38.2727Z" fill="url(#paint22_linear)"/>
<path d="M41.9866 39.4703C42.5821 39.5941 43.2027 39.6596 43.8404 39.6596C44.4781 39.6596 45.0986 39.5941 45.6943 39.4703V23.5297C45.0987 23.406 44.4781 23.3405 43.8404 23.3405C43.2027 23.3405 42.5822 23.406 41.9866 23.5297V39.4703Z" fill="url(#paint23_linear)"/>
<path d="M43.8403 37.9346C48.3467 37.9346 51.9998 34.6676 51.9998 30.6375C51.9998 26.6075 48.3467 23.3405 43.8403 23.3405C39.3338 23.3405 35.6807 26.6075 35.6807 30.6375C35.6807 34.6676 39.3338 37.9346 43.8403 37.9346Z" fill="url(#paint24_radial)"/>
<path d="M43.8404 36.77C47.6277 36.77 50.6979 34.0244 50.6979 30.6375C50.6979 27.2505 47.6277 24.5049 43.8404 24.5049C40.0531 24.5049 36.9829 27.2505 36.9829 30.6375C36.9829 34.0244 40.0531 36.77 43.8404 36.77Z" fill="url(#paint25_radial)"/>
<path d="M43.8403 36.1892C47.2689 36.1892 50.0484 33.7036 50.0484 30.6374C50.0484 27.5713 47.2689 25.0857 43.8403 25.0857C40.4117 25.0857 37.6323 27.5713 37.6323 30.6374C37.6323 33.7036 40.4117 36.1892 43.8403 36.1892Z" fill="url(#paint26_radial)"/>
<path d="M51.5985 32.9024L45.9618 27.2657C45.8365 27.1402 45.6726 27.0461 45.4695 26.9833C45.2665 26.9205 45.0736 26.8753 44.8909 26.8474C44.8027 26.8339 44.7137 26.823 44.624 26.8144C44.6232 26.814 44.6225 26.8136 44.6218 26.8132L44.2107 26.3874C44.1295 26.3344 44.0415 26.3077 43.9468 26.3077C43.8385 26.3077 43.7471 26.333 43.6727 26.3831C43.5982 26.4334 43.561 26.493 43.561 26.5619V26.8254C42.9723 26.9082 42.4867 27.1257 42.1044 27.4777C41.722 27.8296 41.5309 28.3126 41.5309 28.9268C41.5309 29.1772 41.5749 29.4056 41.6628 29.612C41.7506 29.8185 41.8522 29.9876 41.9674 30.1195L43.561 31.7147V32.6624C43.2971 32.6152 43.0094 32.4814 42.6982 32.2614C42.3868 32.0416 42.1669 31.9314 42.0384 31.9314C41.8557 31.9314 41.6949 32.0263 41.5562 32.2157C41.4174 32.4053 41.3481 32.5948 41.3481 32.7842C41.3481 33.031 41.4692 33.259 41.711 33.4683L45.9342 37.6915C48.6097 37.0581 50.7459 35.2398 51.5985 32.9024Z" fill="url(#paint27_linear)"/>
<path d="M46.2056 31.1296C46.1209 30.9132 46.0194 30.7337 45.901 30.5916C45.7825 30.4495 45.6252 30.3142 45.429 30.1856C45.2326 30.0571 45.0567 29.9589 44.9011 29.8912C44.7454 29.8236 44.556 29.7457 44.3327 29.6577V28.1757C44.5763 28.196 44.8113 28.2637 45.0381 28.3787C45.2648 28.4938 45.4255 28.5512 45.5203 28.5512C45.7165 28.5512 45.8705 28.455 45.9822 28.2624C46.0939 28.0699 46.1497 27.8839 46.1497 27.705C46.1497 27.5377 46.087 27.3913 45.9618 27.2657C45.8365 27.1402 45.6726 27.0461 45.4695 26.9833C45.2665 26.9205 45.0736 26.8753 44.8909 26.8474C44.7082 26.8194 44.5219 26.8019 44.3326 26.795V26.5607C44.3326 26.4983 44.292 26.4405 44.2107 26.3874C44.1295 26.3344 44.0415 26.3077 43.9468 26.3077C43.8385 26.3077 43.747 26.333 43.6727 26.3831C43.5982 26.4334 43.561 26.493 43.561 26.5619V26.8254C42.9723 26.9082 42.4867 27.1257 42.1044 27.4777C41.722 27.8296 41.5309 28.3126 41.5309 28.9268C41.5309 29.1772 41.5749 29.4056 41.6628 29.612C41.7506 29.8185 41.8522 29.9876 41.9674 30.1195C42.0823 30.2515 42.2448 30.3801 42.4546 30.5053C42.6643 30.6306 42.8403 30.7235 42.9825 30.7845C43.1246 30.8454 43.3174 30.9232 43.561 31.0179V32.6624C43.2971 32.6152 43.0094 32.4814 42.6982 32.2614C42.3868 32.0416 42.1669 31.9315 42.0384 31.9315C41.8557 31.9315 41.6949 32.0263 41.5562 32.2157C41.4174 32.4053 41.3481 32.5948 41.3481 32.7842C41.3481 33.1159 41.5664 33.4136 42.0029 33.6775C42.4394 33.9414 42.9587 34.0835 43.561 34.1038V34.3576C43.561 34.4319 43.5982 34.4962 43.6727 34.5504C43.7471 34.6044 43.8385 34.6316 43.9468 34.6316C44.0415 34.6316 44.1295 34.6027 44.2107 34.5453C44.292 34.4878 44.3326 34.4251 44.3326 34.3576V34.0632C44.9416 33.9617 45.4271 33.7215 45.7892 33.3425C46.1512 32.9635 46.3323 32.4661 46.3323 31.8503C46.3324 31.5864 46.2901 31.3463 46.2056 31.1296ZM43.6627 29.4141C43.2296 29.2314 43.0131 29.0182 43.0131 28.7746C43.0131 28.4837 43.2296 28.2942 43.6627 28.2061V29.4141ZM44.2312 32.6523V31.2921C44.6439 31.4884 44.8504 31.7286 44.8504 32.0128C44.8504 32.3444 44.6438 32.5576 44.2312 32.6523Z" fill="url(#paint28_linear)"/>
<path d="M43.8405 37.4767C48.0641 37.4767 51.4881 34.4147 51.4881 30.6375C51.4881 26.8604 48.0641 23.7983 43.8405 23.7983C39.6168 23.7983 36.1929 26.8604 36.1929 30.6375C36.1929 34.4147 39.6168 37.4767 43.8405 37.4767Z" fill="url(#paint29_linear)"/>
</g>
<defs>
<filter id="filter0_d" x="0" y="-2" width="67" height="67" filterUnits="userSpaceOnUse" color-interpolation-filters="sRGB">
<feFlood flood-opacity="0" result="BackgroundImageFix"/>
<feColorMatrix in="SourceAlpha" type="matrix" values="0 0 0 0 0 0 0 0 0 0 0 0 0 0 0 0 0 0 127 0" result="hardAlpha"/>
<feOffset/>
<feGaussianBlur stdDeviation="7.5"/>
<feColorMatrix type="matrix" values="0 0 0 0 1 0 0 0 0 0.823529 0 0 0 0 0 0 0 0 0.2 0"/>
<feBlend mode="normal" in2="BackgroundImageFix" result="effect1_dropShadow"/>
<feBlend mode="normal" in="SourceGraphic" in2="effect1_dropShadow" result="shape"/>
</filter>
<linearGradient id="paint0_linear" x1="34.9746" y1="39.3355" x2="38.5988" y2="48.3884" gradientUnits="userSpaceOnUse">
<stop stop-color="#91F27F"/>
<stop offset="1" stop-color="#00B302"/>
</linearGradient>
<linearGradient id="paint1_linear" x1="37.3488" y1="45.5774" x2="34.0481" y2="34.6861" gradientUnits="userSpaceOnUse">
<stop stop-color="#91F27F" stop-opacity="0"/>
<stop offset="1" stop-color="#FFED82"/>
</linearGradient>
<linearGradient id="paint2_linear" x1="35.3341" y1="39.388" x2="39.7026" y2="55.2465" gradientUnits="userSpaceOnUse">
<stop stop-color="#005A01" stop-opacity="0"/>
<stop offset="1" stop-color="#005A01"/>
</linearGradient>
<linearGradient id="paint3_linear" x1="30.1402" y1="16.8106" x2="31.5382" y2="23.5209" gradientUnits="userSpaceOnUse">
<stop stop-color="#91F27F"/>
<stop offset="1" stop-color="#00B302"/>
</linearGradient>
<linearGradient id="paint4_linear" x1="31.395" y1="19.9191" x2="32.0464" y2="13.7508" gradientUnits="userSpaceOnUse">
<stop stop-color="#91F27F" stop-opacity="0"/>
<stop offset="1" stop-color="#FFED82"/>
</linearGradient>
<linearGradient id="paint5_linear" x1="29.3208" y1="15.7435" x2="35.3553" y2="35.6409" gradientUnits="userSpaceOnUse">
<stop stop-color="#005A01" stop-opacity="0"/>
<stop offset="1" stop-color="#005A01"/>
</linearGradient>
<linearGradient id="paint6_linear" x1="15" y1="31.5" x2="31.3193" y2="31.5" gradientUnits="userSpaceOnUse">
<stop stop-color="#E4F2FF"/>
<stop offset="1" stop-color="#B2CBFF"/>
</linearGradient>
<linearGradient id="paint7_linear" x1="23.1597" y1="36.0148" x2="23.1597" y2="42.137" gradientUnits="userSpaceOnUse">
<stop stop-color="#3F3CED" stop-opacity="0"/>
<stop offset="0.2796" stop-color="#3C3DE4" stop-opacity="0.28"/>
<stop offset="0.7305" stop-color="#3541CC" stop-opacity="0.731"/>
<stop offset="1" stop-color="#2F43BB"/>
</linearGradient>
<linearGradient id="paint8_linear" x1="29.0536" y1="34.7536" x2="30.5312" y2="36.0219" gradientUnits="userSpaceOnUse">
<stop stop-color="#FF7044"/>
<stop offset="1" stop-color="#F82814"/>
</linearGradient>
<linearGradient id="paint9_linear" x1="23.1594" y1="36.8119" x2="23.1594" y2="41.596" gradientUnits="userSpaceOnUse">
<stop stop-color="#3F3CED" stop-opacity="0"/>
<stop offset="0.2796" stop-color="#3C3DE4" stop-opacity="0.28"/>
<stop offset="0.7305" stop-color="#3541CC" stop-opacity="0.731"/>
<stop offset="1" stop-color="#2F43BB"/>
</linearGradient>
<linearGradient id="paint10_linear" x1="24.3009" y1="36.8643" x2="24.8432" y2="39.4135" gradientUnits="userSpaceOnUse">
<stop stop-color="#FF7044"/>
<stop offset="1" stop-color="#F82814"/>
</linearGradient>
<linearGradient id="paint11_linear" x1="19.5108" y1="26.8328" x2="31.74" y2="39.5845" gradientUnits="userSpaceOnUse">
<stop stop-color="#E4F2FF"/>
<stop offset="1" stop-color="#B2CBFF"/>
</linearGradient>
<linearGradient id="paint12_linear" x1="21.2594" y1="26.9085" x2="26.2967" y2="36.7929" gradientUnits="userSpaceOnUse">
<stop stop-color="#FF7044"/>
<stop offset="1" stop-color="#F82814"/>
</linearGradient>
<linearGradient id="paint13_linear" x1="20.1107" y1="26.7092" x2="27.0009" y2="35.5863" gradientUnits="userSpaceOnUse">
<stop stop-color="#FF7044"/>
<stop offset="1" stop-color="#F82814"/>
</linearGradient>
<linearGradient id="paint14_linear" x1="25.4194" y1="32.96" x2="15.9516" y2="23.2292" gradientUnits="userSpaceOnUse">
<stop stop-color="#FF7044" stop-opacity="0"/>
<stop offset="1" stop-color="#FFA325"/>
</linearGradient>
<linearGradient id="paint15_linear" x1="20.4235" y1="27.5688" x2="26.5103" y2="34.3955" gradientUnits="userSpaceOnUse">
<stop stop-color="#E4F2FF"/>
<stop offset="1" stop-color="#B2CBFF"/>
</linearGradient>
<linearGradient id="paint16_linear" x1="15.714" y1="34.2132" x2="17.5546" y2="37.0892" gradientUnits="userSpaceOnUse">
<stop stop-color="#FF7044"/>
<stop offset="1" stop-color="#F82814"/>
</linearGradient>
<linearGradient id="paint17_linear" x1="20.7679" y1="29.0773" x2="23.7484" y2="35.615" gradientUnits="userSpaceOnUse">
<stop stop-color="#FF7044"/>
<stop offset="1" stop-color="#F82814"/>
</linearGradient>
<linearGradient id="paint18_linear" x1="23.1821" y1="27.9766" x2="26.1626" y2="34.5143" gradientUnits="userSpaceOnUse">
<stop stop-color="#FF7044"/>
<stop offset="1" stop-color="#F82814"/>
</linearGradient>
<linearGradient id="paint19_linear" x1="23.1385" y1="30.6067" x2="16.4295" y2="20.848" gradientUnits="userSpaceOnUse">
<stop stop-color="white" stop-opacity="0"/>
<stop offset="1" stop-color="white"/>
</linearGradient>
<linearGradient id="paint20_linear" x1="35.6807" y1="31.5" x2="51.9998" y2="31.5" gradientUnits="userSpaceOnUse">
<stop stop-color="#FFC738"/>
<stop offset="0.2344" stop-color="#FEC33A"/>
<stop offset="0.4454" stop-color="#FBB840"/>
<stop offset="0.6474" stop-color="#F6A649"/>
<stop offset="0.8426" stop-color="#F08D56"/>
<stop offset="1" stop-color="#E97264"/>
</linearGradient>
<linearGradient id="paint21_linear" x1="43.0636" y1="30.0063" x2="49.7703" y2="42.9039" gradientUnits="userSpaceOnUse">
<stop stop-color="#FCA17A" stop-opacity="0"/>
<stop offset="0.152" stop-color="#F69373" stop-opacity="0.152"/>
<stop offset="0.416" stop-color="#EF816B" stop-opacity="0.416"/>
<stop offset="0.6926" stop-color="#EA7666" stop-opacity="0.693"/>
<stop offset="1" stop-color="#E97264"/>
</linearGradient>
<linearGradient id="paint22_linear" x1="43.5896" y1="34.0464" x2="42.7974" y2="42.081" gradientUnits="userSpaceOnUse">
<stop stop-color="#E97264" stop-opacity="0"/>
<stop offset="1" stop-color="#B53759"/>
</linearGradient>
<linearGradient id="paint23_linear" x1="42.2243" y1="34.4558" x2="39.7756" y2="38.9344" gradientUnits="userSpaceOnUse">
<stop stop-color="#E97264" stop-opacity="0"/>
<stop offset="1" stop-color="#B53759"/>
</linearGradient>
<radialGradient id="paint24_radial" cx="0" cy="0" r="1" gradientUnits="userSpaceOnUse" gradientTransform="translate(41.5619 25.3592) scale(15.3845 13.7537)">
<stop stop-color="#FFC738"/>
<stop offset="0.2344" stop-color="#FEC33A"/>
<stop offset="0.4454" stop-color="#FBB840"/>
<stop offset="0.6474" stop-color="#F6A649"/>
<stop offset="0.8426" stop-color="#F08D56"/>
<stop offset="1" stop-color="#E97264"/>
</radialGradient>
<radialGradient id="paint25_radial" cx="0" cy="0" r="1" gradientUnits="userSpaceOnUse" gradientTransform="translate(44.3714 32.3296) rotate(180) scale(10.7325 9.59489)">
<stop stop-color="#FFC738"/>
<stop offset="0.2344" stop-color="#FEC33A"/>
<stop offset="0.4454" stop-color="#FBB840"/>
<stop offset="0.6474" stop-color="#F6A649"/>
<stop offset="0.8426" stop-color="#F08D56"/>
<stop offset="1" stop-color="#E97264"/>
</radialGradient>
<radialGradient id="paint26_radial" cx="0" cy="0" r="1" gradientUnits="userSpaceOnUse" gradientTransform="translate(42.7843 27.2433) scale(12.0829 10.8021)">
<stop stop-color="#FFC738"/>
<stop offset="0.2344" stop-color="#FEC33A"/>
<stop offset="0.4454" stop-color="#FBB840"/>
<stop offset="0.6474" stop-color="#F6A649"/>
<stop offset="0.8426" stop-color="#F08D56"/>
<stop offset="1" stop-color="#E97264"/>
</radialGradient>
<linearGradient id="paint27_linear" x1="47.5047" y1="33.2999" x2="37.5316" y2="27.886" gradientUnits="userSpaceOnUse">
<stop stop-color="#E97264" stop-opacity="0"/>
<stop offset="1" stop-color="#B53759"/>
</linearGradient>
<linearGradient id="paint28_linear" x1="38.4759" y1="26.1568" x2="46.5892" y2="32.5243" gradientUnits="userSpaceOnUse">
<stop stop-color="#FFC738"/>
<stop offset="0.1876" stop-color="#FDBF3C"/>
<stop offset="0.4837" stop-color="#F7A848"/>
<stop offset="0.8493" stop-color="#ED835B"/>
<stop offset="1" stop-color="#E97264"/>
</linearGradient>
<linearGradient id="paint29_linear" x1="47.4544" y1="34.4269" x2="35.8815" y2="22.2922" gradientUnits="userSpaceOnUse">
<stop stop-color="#FFD945" stop-opacity="0"/>
<stop offset="1" stop-color="#FBED21"/>
</linearGradient>
<clipPath id="clip0">
<rect width="37" height="37" fill="white" transform="translate(15 13)"/>
</clipPath>
</defs>
</svg>
