<svg width="30" height="30" viewBox="0 0 30 30" fill="none" xmlns="http://www.w3.org/2000/svg">
<g clip-path="url(#clip0)">
<path d="M26.2211 5.42592C23.9566 2.81508 20.8562 1.07498 17.4696 0.507338C17.3196 0.287193 17.0815 0.140546 16.8141 0.10846C16.2141 0.0364856 15.6036 0 14.9995 0C14.458 0 13.9113 0.0291533 13.3746 0.0866387C13.1039 0.115616 12.8621 0.259916 12.7084 0.479475C9.28089 1.01098 6.13709 2.73807 3.83474 5.36134C1.45883 8.06837 0.150391 11.5451 0.150391 15.1509C0.150391 19.1172 1.69499 22.8462 4.49963 25.6508C7.30428 28.4555 11.0332 30.0001 14.9995 30.0001C17.5429 30.0001 20.0526 29.3459 22.2573 28.1082C24.3941 26.9087 26.2195 25.1807 27.5362 23.1112C27.6667 22.9062 27.6062 22.6342 27.4012 22.5038C27.1961 22.3733 26.9242 22.4339 26.7938 22.6389C25.5548 24.5863 23.8371 26.2123 21.8265 27.341C19.753 28.505 17.3923 29.1202 14.9994 29.1202C11.2681 29.1202 7.76005 27.6671 5.12165 25.0287C2.48324 22.3902 1.03027 18.8821 1.03027 15.1509C1.03027 11.7587 2.2611 8.48819 4.49605 5.94176C6.61158 3.53131 9.4818 1.92535 12.6178 1.38593C12.6274 1.40787 12.6375 1.42957 12.6488 1.45092V1.45098L13.5805 3.20252C10.731 3.53811 8.11224 4.87336 6.14759 7.00794C4.02368 9.31551 2.89503 12.309 2.96941 15.4371C3.0388 18.3532 4.16716 21.1431 6.14677 23.293C6.23352 23.3872 6.35184 23.435 6.4705 23.435C6.57703 23.435 6.68384 23.3966 6.76837 23.3187C6.9471 23.1541 6.9586 22.8758 6.794 22.6971C6.50793 22.3864 6.24109 22.0613 5.99408 21.7236L11.709 17.8887C11.8137 18.014 11.9253 18.1347 12.0452 18.2491C12.2111 18.4072 12.3877 18.5497 12.5724 18.6775L9.27409 24.7177C8.87427 24.4782 8.4883 24.2133 8.11928 23.9234C7.92829 23.7734 7.65165 23.8065 7.50154 23.9975C7.35144 24.1886 7.38464 24.4652 7.57569 24.6153C9.69127 26.2776 12.3184 27.1844 15.0025 27.1844C15.0968 27.1844 15.1912 27.1833 15.2856 27.181C18.494 27.1047 21.4839 25.7802 23.7045 23.4514C25.925 21.1227 27.1059 18.0732 27.0296 14.8648C26.9583 11.8685 25.7773 9.0221 23.7041 6.84998C21.7995 4.85453 19.2939 3.58222 16.5903 3.22294L17.5223 1.47069C17.5321 1.45233 17.5411 1.43367 17.5495 1.41485C20.6467 1.987 23.4762 3.60416 25.5564 6.00242C27.7569 8.53928 28.9687 11.7883 28.9687 15.1509C28.9687 17.2076 28.5312 19.1897 27.6684 21.0419C27.5658 21.2622 27.6612 21.5239 27.8814 21.6265C27.9415 21.6545 28.0047 21.6677 28.0669 21.6677C28.2327 21.6677 28.3914 21.5736 28.466 21.4134C29.3834 19.444 29.8485 17.337 29.8485 15.1509C29.8486 11.5765 28.5604 8.12281 26.2211 5.42592ZM6.795 7.60374C6.96112 7.42325 7.1327 7.24944 7.30856 7.08138L11.8561 12.2464C11.5864 12.538 11.3612 12.8598 11.1845 13.2042L4.76231 10.7213C5.25392 9.58957 5.93671 8.53623 6.795 7.60374ZM14.9186 11.749C15.8265 11.7261 16.6879 12.0614 17.3466 12.6895C18.0052 13.3175 18.3798 14.1629 18.4014 15.07C18.423 15.977 18.089 16.8392 17.4609 17.4979C16.8328 18.1566 15.9874 18.5312 15.0804 18.5527C14.1726 18.5744 13.3111 18.2402 12.6524 17.6122C11.9937 16.9842 11.6191 16.1388 11.5976 15.2318C11.576 14.3247 11.91 13.4625 12.5381 12.8038C13.1661 12.1452 14.0116 11.7706 14.9186 11.749ZM17.47 11.6539C17.1482 11.4253 16.7989 11.2452 16.4314 11.1148L18.0548 4.42356C19.488 4.83253 20.8279 5.52775 21.9965 6.47192L17.47 11.6539ZM24.5209 20.9574L18.7895 17.1441C18.9728 16.7975 19.107 16.428 19.1884 16.0438L26.0354 16.7801C25.8185 18.2648 25.3043 19.6807 24.5209 20.9574ZM15.5406 19.3993C15.933 19.3499 16.3123 19.2466 16.6708 19.0944L19.9953 25.126C18.6706 25.7921 17.2173 26.1869 15.7044 26.2815L15.5406 19.3993ZM3.87474 15.9486C3.86201 15.7717 3.85327 15.5942 3.84905 15.416C3.81732 14.0815 4.02244 12.7736 4.44455 11.5417L10.8665 14.0246C10.7648 14.3986 10.7146 14.7884 10.718 15.1855L3.87474 15.9486ZM5.50369 20.993C4.71937 19.7211 4.19789 18.3035 3.97288 16.8231L10.8141 16.0603C10.8971 16.445 11.033 16.8139 11.2172 17.1592L5.50369 20.993ZM13.3438 19.1009C13.7603 19.276 14.2037 19.3839 14.6609 19.4195L14.8247 26.3029C13.1619 26.2771 11.527 25.8746 10.0463 25.1395L13.3438 19.1009ZM23.0677 22.8441C22.3745 23.5711 21.6001 24.192 20.7647 24.6993L17.441 18.6689C17.6755 18.5051 17.8957 18.317 18.0978 18.1051C18.1686 18.0308 18.2354 17.9537 18.3003 17.8754L24.0314 21.6885C23.7384 22.0912 23.4173 22.4775 23.0677 22.8441ZM26.1277 15.905L19.281 15.1688C19.2811 15.1289 19.282 15.0891 19.281 15.049C19.2725 14.6926 19.2207 14.3437 19.1283 14.0083L25.5382 11.5011C25.913 12.5811 26.1222 13.7211 26.1499 14.8857C26.1581 15.2277 26.1501 15.5677 26.1277 15.905ZM25.2175 10.6818L18.8068 13.1893C18.6286 12.8447 18.4024 12.5234 18.1318 12.2337L22.6588 7.05112C22.798 7.18286 22.9346 7.31801 23.0676 7.45744C23.9765 8.40959 24.7 9.50158 25.2175 10.6818ZM17.1998 4.21597L15.5763 10.9077C15.3534 10.8778 15.1268 10.8642 14.8977 10.8694C14.7319 10.8733 14.568 10.8877 14.4061 10.9101L13.8337 8.59085C13.7755 8.35498 13.5369 8.21062 13.3012 8.26916C13.0653 8.32735 12.9212 8.5658 12.9794 8.80166L13.5516 11.1201C13.1837 11.2521 12.8354 11.4341 12.5152 11.6636L7.96753 6.49849C9.13272 5.54764 10.4682 4.8486 11.9018 4.43506L12.5301 6.9809C12.5796 7.1814 12.7592 7.31555 12.9569 7.31555C12.9918 7.31555 13.0273 7.31138 13.0627 7.30258C13.2985 7.2444 13.4426 7.00595 13.3844 6.77008L12.7563 4.225C13.1734 4.13983 13.5972 4.07789 14.0263 4.04064L14.2683 4.49583C14.4305 4.80062 14.7456 4.98997 15.0908 4.98997C15.4361 4.98997 15.7512 4.80062 15.9133 4.49583L16.1472 4.05618C16.5018 4.09255 16.8529 4.14617 17.1998 4.21597ZM16.7456 1.05756L15.5061 3.38783C15.5056 3.38882 15.505 3.38976 15.5046 3.3907L15.1365 4.08264C15.1321 4.09085 15.1219 4.11003 15.0909 4.11003C15.0598 4.11003 15.0496 4.09085 15.0452 4.08258L13.4257 1.03773C13.4221 1.03116 13.4129 1.01374 13.4255 0.989981C13.439 0.964582 13.461 0.962236 13.4683 0.961473C13.9739 0.907331 14.4891 0.879879 14.9995 0.879879C15.5687 0.879879 16.144 0.914253 16.7093 0.982062C16.716 0.982884 16.7337 0.984995 16.7456 1.00775C16.7542 1.02441 16.7542 1.04119 16.7456 1.05756Z" fill="#fff"/>
<path d="M12.9732 15.2342L13.5622 15.6622L13.3371 16.3547C13.2436 16.6428 13.3454 16.956 13.5905 17.1341C13.8356 17.3121 14.1649 17.312 14.4099 17.134L14.9989 16.7061L15.588 17.134C15.7105 17.223 15.8541 17.2676 15.9977 17.2675C16.1413 17.2675 16.2849 17.223 16.4074 17.1341C16.6525 16.956 16.7543 16.6428 16.6607 16.3546L16.4357 15.6622L17.0247 15.2343C17.2698 15.0562 17.3716 14.743 17.2779 14.4549C17.1843 14.1668 16.9179 13.9732 16.6149 13.9732H15.8869L15.6619 13.2808C15.5683 12.9926 15.3019 12.7991 14.9989 12.7991C14.696 12.7991 14.4296 12.9926 14.336 13.2808L14.111 13.9732H13.383C13.08 13.9732 12.8136 14.1668 12.7199 14.4549C12.6263 14.743 12.7281 15.0562 12.9732 15.2342ZM14.2438 14.8531C14.5467 14.8531 14.8131 14.6595 14.9067 14.3714L14.9989 14.0876L15.0912 14.3714C15.1848 14.6595 15.4513 14.8531 15.7541 14.8531H16.0524L15.8111 15.0283C15.566 15.2064 15.4642 15.5197 15.5578 15.8077L15.6501 16.0915L15.4088 15.9162C15.1637 15.738 14.8342 15.738 14.5892 15.9162L14.3478 16.0915L14.44 15.8078C14.5337 15.5197 14.4318 15.2064 14.1868 15.0284L13.9454 14.8531H14.2438Z" fill="#fff"/>
</g>
<defs>
<clipPath id="clip0">
<rect width="30" height="30" fill="#fff"/>
</clipPath>
</defs>
</svg>
