<svg width="30" height="30" viewBox="0 0 30 30" fill="none" xmlns="http://www.w3.org/2000/svg">
<g clip-path="url(#clip0)">
<path d="M28.1548 26.464L23.7486 18.8323C23.9068 18.6479 24.1219 18.5115 24.3729 18.4523C25.067 18.2888 25.6425 17.8265 25.9519 17.184C26.2613 16.5416 26.2638 15.8034 25.959 15.1588C25.7256 14.6654 25.859 14.0811 26.2833 13.7379C26.8377 13.2894 27.1557 12.6232 27.1557 11.9101C27.1557 11.197 26.8377 10.5308 26.2833 10.0823C25.859 9.7391 25.7256 9.15476 25.959 8.66142C26.2639 8.01679 26.2613 7.27859 25.9519 6.63613C25.6425 5.99367 25.067 5.53138 24.3728 5.36785C23.8417 5.24269 23.468 4.77413 23.4641 4.22835C23.4592 3.51529 23.1366 2.85132 22.5791 2.40673C22.0216 1.96213 21.3023 1.79532 20.6061 1.94918C20.0731 2.06684 19.5332 1.80686 19.293 1.3168C18.9791 0.676509 18.4004 0.218261 17.7051 0.0595943C17.0098 -0.0991312 16.2896 0.0626997 15.729 0.50337C15.3 0.840683 14.7007 0.840683 14.2716 0.50337C13.711 0.0626997 12.9908 -0.099014 12.2955 0.0595943C11.6003 0.218261 11.0216 0.676509 10.7077 1.3168C10.4675 1.80686 9.9273 2.06701 9.39458 1.94918C8.69828 1.79544 7.97912 1.96213 7.42168 2.40673C6.86417 2.85132 6.54157 3.51529 6.53659 4.22835C6.53278 4.77408 6.15908 5.24269 5.62783 5.36785C4.93375 5.53138 4.3582 5.99367 4.04883 6.63613C3.73941 7.27859 3.73689 8.01679 4.04174 8.66136C4.27511 9.1547 4.14176 9.73904 3.71744 10.0823C3.16304 10.5308 2.84506 11.197 2.84506 11.91C2.84506 12.6231 3.16304 13.2894 3.71744 13.7378C4.14176 14.0811 4.27511 14.6654 4.04174 15.1587C3.73683 15.8034 3.73941 16.5416 4.04883 17.184C4.3582 17.8265 4.93375 18.2888 5.62788 18.4523C5.87889 18.5114 6.09398 18.6479 6.25224 18.8323L1.84607 26.464C1.72742 26.6696 1.74447 26.9264 1.88919 27.1144C2.03397 27.3024 2.27783 27.3845 2.50687 27.3225L5.57574 26.4899L6.38917 29.5639C6.44987 29.7934 6.64299 29.9634 6.87824 29.9948C6.90419 29.9983 6.93009 30 6.95581 30C7.16305 30 7.35746 29.8898 7.46304 29.707L11.2228 23.195C11.5205 23.4706 11.8877 23.6675 12.2956 23.7606C12.9908 23.9192 13.7111 23.7575 14.2718 23.3168C14.7008 22.9795 15.3001 22.9795 15.7292 23.3168C16.1487 23.6466 16.6575 23.8202 17.1785 23.8202C17.3537 23.8202 17.5303 23.8006 17.7053 23.7606C18.1132 23.6675 18.4804 23.4706 18.7781 23.195L22.5379 29.707C22.6434 29.8899 22.8379 30 23.0451 30C23.0708 30 23.0967 29.9983 23.1227 29.9948C23.3579 29.9634 23.551 29.7933 23.6117 29.5639L24.4252 26.4899L27.494 27.3225C27.7231 27.3847 27.967 27.3024 28.1117 27.1144C28.2564 26.9264 28.2735 26.6696 28.1548 26.464ZM7.1586 27.8906L6.5578 25.6202C6.51784 25.4694 6.41946 25.3407 6.28435 25.2627C6.14918 25.1846 5.98858 25.1638 5.83799 25.2046L3.57131 25.8195L6.69156 20.4151C6.83921 20.8021 7.088 21.1472 7.42179 21.4135C7.9793 21.8581 8.69851 22.0249 9.3947 21.871C9.78791 21.7842 10.1846 21.9035 10.4623 22.1686L7.1586 27.8906ZM17.4445 22.6182C17.0956 22.6977 16.7345 22.6166 16.4534 22.3957C16.0256 22.0593 15.5131 21.8912 15.0004 21.8912C14.4879 21.8912 13.9751 22.0594 13.5475 22.3957C13.2663 22.6167 12.9052 22.6978 12.5564 22.6182C12.2077 22.5386 11.9174 22.3088 11.76 21.9876C11.2811 21.0105 10.2043 20.4921 9.14188 20.7268C8.79261 20.8039 8.43198 20.7203 8.15238 20.4973C7.87277 20.2743 7.71094 19.9413 7.70842 19.5837C7.70087 18.4955 6.95581 17.5613 5.89665 17.3118C5.54849 17.2297 5.25987 16.9979 5.10466 16.6756C4.94951 16.3534 4.94822 15.9832 5.10114 15.6598C5.56636 14.6762 5.30047 13.5112 4.45446 12.8268C4.17639 12.6019 4.01696 12.2677 4.01696 11.9101C4.01696 11.5525 4.17644 11.2183 4.45452 10.9934C5.30047 10.309 5.56642 9.14404 5.10114 8.16034C4.94822 7.83703 4.94951 7.46678 5.10472 7.14459C5.25987 6.82233 5.54855 6.59048 5.89665 6.50846C6.95581 6.25891 7.70087 5.32466 7.70842 4.23655C7.71094 3.87891 7.87272 3.54587 8.15238 3.32293C8.43198 3.09993 8.79255 3.0162 9.14193 3.09343C10.2043 3.32797 11.2811 2.80966 11.76 1.83259C11.9174 1.51144 12.2077 1.28159 12.5564 1.20202C12.9052 1.12251 13.2663 1.20354 13.5475 1.42455C14.403 2.09713 15.5979 2.09713 16.4534 1.42455C16.7346 1.20354 17.0957 1.12251 17.4445 1.20202C17.7931 1.28159 18.0834 1.51144 18.2409 1.83259C18.7198 2.80966 19.7965 3.32797 20.859 3.09343C21.2081 3.01614 21.5689 3.09993 21.8485 3.32293C22.1281 3.54593 22.2899 3.87891 22.2924 4.23655C22.3 5.32466 23.045 6.25891 24.1042 6.50846C24.4524 6.59048 24.741 6.82233 24.8962 7.14459C25.0513 7.46684 25.0526 7.83703 24.8997 8.1604C24.4345 9.14404 24.7004 10.309 25.5464 10.9934C25.8245 11.2183 25.9839 11.5525 25.9839 11.9101C25.9839 12.2677 25.8244 12.6019 25.5463 12.8268C24.7004 13.5112 24.4344 14.6762 24.8997 15.6599C25.0526 15.9832 25.0513 16.3534 24.8961 16.6756C24.741 16.9979 24.4523 17.2297 24.1042 17.3118C23.045 17.5613 22.3 18.4955 22.2924 19.5837C22.2899 19.9413 22.1281 20.2743 21.8485 20.4973C21.5689 20.7203 21.2082 20.8039 20.8589 20.7268C19.7965 20.492 18.7198 21.0105 18.2409 21.9876C18.0834 22.3088 17.7931 22.5386 17.4445 22.6182ZM24.1629 25.2046C24.0122 25.1638 23.8516 25.1847 23.7165 25.2627C23.5814 25.3407 23.483 25.4694 23.4431 25.6202L22.8423 27.8906L19.5386 22.1686C19.8163 21.9034 20.2131 21.7841 20.6061 21.871C21.3025 22.0248 22.0216 21.8581 22.5791 21.4135C22.9129 21.1473 23.1616 20.8021 23.3093 20.4151L26.4295 25.8195L24.1629 25.2046Z" fill="#fff"/>
<path d="M17.7883 16.3409C17.9092 16.3409 18.0301 16.3036 18.1327 16.229C18.3376 16.0802 18.4236 15.8166 18.3461 15.5756L17.4225 12.7041L19.8581 10.9146C20.0622 10.7646 20.1469 10.5005 20.068 10.2599C19.9891 10.0192 19.7645 9.85651 19.5113 9.85651H16.4973L15.5574 6.99283C15.4785 6.75225 15.2539 6.5896 15.0008 6.5896C14.7476 6.5896 14.523 6.75225 14.4441 6.99283L13.5042 9.85651H10.4902C10.237 9.85651 10.0124 10.0192 9.93351 10.2599C9.85458 10.5005 9.93925 10.7646 10.1434 10.9146L12.579 12.7041L11.6554 15.5756C11.5779 15.8167 11.664 16.0802 11.8688 16.229C12.0737 16.3779 12.3509 16.3782 12.5562 16.23L15.0009 14.4649L17.4456 16.23C17.5478 16.304 17.668 16.3409 17.7883 16.3409ZM15.3436 13.2672C15.2412 13.1933 15.1209 13.1563 15.0006 13.1563C14.8804 13.1563 14.7601 13.1933 14.6577 13.2672L13.3174 14.2349L13.8236 12.6612C13.9008 12.4213 13.8159 12.1588 13.6127 12.0096L12.2771 11.0282H13.9285C14.1817 11.0282 14.4062 10.8656 14.4852 10.625L15.0006 9.05433L15.5161 10.625C15.5951 10.8656 15.8196 11.0282 16.0728 11.0282H17.7242L16.3886 12.0096C16.1854 12.1588 16.1005 12.4212 16.1777 12.6612L16.6839 14.2349L15.3436 13.2672Z" fill="#fff"/>
<path d="M23.2036 11.9101C23.2036 7.38708 19.5238 3.70728 15.0007 3.70728C10.4777 3.70728 6.79785 7.38708 6.79785 11.9101C6.79785 15.3511 8.97026 18.4509 12.2037 19.6236C12.5078 19.7339 12.8439 19.5768 12.9543 19.2726C13.0646 18.9684 12.9075 18.6323 12.6033 18.5219C9.8318 17.5168 7.96975 14.8597 7.96975 11.9101C7.96975 8.03323 11.1239 4.87911 15.0008 4.87911C18.8777 4.87911 22.0318 8.03323 22.0318 11.9101C22.0318 14.8599 20.1696 17.517 17.398 18.5221C17.0937 18.6325 16.9365 18.9685 17.0469 19.2727C17.1333 19.5109 17.3581 19.659 17.5977 19.659C17.664 19.659 17.7315 19.6477 17.7974 19.6238C21.031 18.4512 23.2036 15.3513 23.2036 11.9101Z" fill="#fff"/>
<path d="M15 18.9409C14.8459 18.9409 14.6947 19.0036 14.5857 19.1126C14.4768 19.2216 14.4141 19.3728 14.4141 19.5269C14.4141 19.681 14.4768 19.8321 14.5857 19.9411C14.6947 20.0501 14.8459 20.1128 15 20.1128C15.1541 20.1128 15.3053 20.0501 15.4143 19.9411C15.5232 19.8321 15.5859 19.681 15.5859 19.5269C15.5859 19.3728 15.5232 19.2216 15.4143 19.1126C15.3053 19.0036 15.1541 18.9409 15 18.9409Z" fill="#fff"/>
</g>
<defs>
<clipPath id="clip0">
<rect width="30" height="30" fill="#fff"/>
</clipPath>
</defs>
</svg>
