<svg width="30" height="30" viewBox="0 0 30 30" fill="none" xmlns="http://www.w3.org/2000/svg">
<g clip-path="url(#clip0)">
<path d="M26.4791 3.9554H19.3855C19.1578 1.73655 17.2778 0 14.9998 0C12.7218 0 10.8418 1.73655 10.6141 3.9554H3.52051V7.71472H4.12535V14.9626H5.0326V7.71472H11.0892L11.4847 9.23589H18.5148L18.9104 7.71472H24.9669V22.2204H25.8742V7.71472H26.479V3.9554H26.4791ZM14.9998 0.907258C16.7769 0.907258 18.2479 2.23815 18.4712 3.9554H11.5284C11.7517 2.23815 13.2227 0.907258 14.9998 0.907258ZM18.2089 6.80746L17.8133 8.32863H12.1863L11.7907 6.80746H4.42777V4.86266H25.5718V6.80746H18.2089Z" fill="#fff"/>
<path d="M24.9667 29.0928H5.03226V17.688H4.125V30.0001H25.8739V23.1317H24.9667V29.0928Z" fill="#fff"/>
<path d="M4.125 15.8735H5.03226V16.7766H4.125V15.8735Z" fill="#fff"/>
<path d="M9.49208 11.105C8.2192 11.105 7.18359 12.1406 7.18359 13.4135C7.18359 14.6864 8.2192 15.7219 9.49208 15.7219C10.765 15.7219 11.8006 14.6864 11.8006 13.4135C11.8006 12.1406 10.765 11.105 9.49208 11.105ZM9.49208 14.8147C8.71946 14.8147 8.09085 14.1861 8.09085 13.4135C8.09085 12.6409 8.71946 12.0123 9.49208 12.0123C10.2647 12.0123 10.8933 12.6409 10.8933 13.4135C10.8932 14.1861 10.2647 14.8147 9.49208 14.8147Z" fill="#fff"/>
<path d="M20.2147 10.9666C18.9419 10.9666 17.9062 12.0022 17.9062 13.275C17.9062 14.5479 18.9419 15.5835 20.2147 15.5835C21.4876 15.5835 22.5232 14.5479 22.5232 13.275C22.5232 12.0022 21.4876 10.9666 20.2147 10.9666ZM20.2147 14.6763C19.4421 14.6763 18.8135 14.0477 18.8135 13.2751C18.8135 12.5025 19.4421 11.8739 20.2147 11.8739C20.9873 11.8739 21.616 12.5025 21.616 13.2751C21.616 14.0477 20.9873 14.6763 20.2147 14.6763Z" fill="#fff"/>
<path d="M21.3966 21.2783L20.1851 22.4898L18.9736 21.2783L18.332 21.9199L19.5435 23.1314L18.3925 24.2823L19.0341 24.9239L20.1851 23.7729L21.3361 24.9239L21.9776 24.2823L20.8266 23.1314L22.0381 21.9199L21.3966 21.2783Z" fill="#fff"/>
<path d="M10.7032 21.2783L9.49171 22.4898L8.28022 21.2783L7.63867 21.9199L8.85016 23.1314L7.69916 24.2823L8.34071 24.9239L9.49171 23.7729L10.6427 24.9239L11.2843 24.2823L10.1333 23.1314L11.3448 21.9199L10.7032 21.2783Z" fill="#fff"/>
<path d="M12.2988 15.2986L13.0011 17.9201L13.64 17.2812L17.4216 21.0629L18.0632 20.4213L14.2816 16.6397L14.9204 16.0008L12.2988 15.2986Z" fill="#fff"/>
<path d="M14.5459 6.14209H15.4532V7.04935H14.5459V6.14209Z" fill="#fff"/>
</g>
<defs>
<clipPath id="clip0">
<rect width="30" height="30" fill="#fff"/>
</clipPath>
</defs>
</svg>
