<svg width="28" height="27" viewBox="0 0 28 27" fill="none" xmlns="http://www.w3.org/2000/svg">
<path d="M14.005 1.44392e-07C8.40321 -0.000787356 3.34046 3.21969 1.13563 8.1864L0.961132 8.2422L1.02878 8.43795C-1.87421 15.3435 1.5766 23.2114 8.73645 26.0113C10.4087 26.6653 12.1963 27.001 14.0008 27C21.7312 27.0011 27.9988 20.9578 28 13.502C28.0012 6.0462 21.7354 0.00106889 14.005 1.44392e-07ZM24.9841 20.3065L24.2653 19.6137V18C24.2662 17.9304 24.2502 17.8615 24.2187 17.7988L22.3991 14.2938V12.6C22.3991 12.4496 22.3212 12.3091 22.1914 12.2256L20.7917 11.3256C20.682 11.2549 20.5464 11.2324 20.4185 11.2635L18.7043 11.6766L15.8251 10.485L15.429 7.8084L16.5268 6.75H18.8835L19.6766 7.89975C19.7483 8.00314 19.8611 8.07339 19.9883 8.0937L22.7877 8.5437C22.8627 8.55585 22.9396 8.54994 23.0117 8.5266L25.5899 7.6977C27.7524 11.7002 27.5211 16.5141 24.9841 20.3065ZM23.0597 4.4343L22.3011 4.9221L20.1861 4.51395L18.8139 4.0734C18.73 4.04589 18.6396 4.04241 18.5536 4.0635L16.8189 4.48155L16.0584 4.2372L16.622 3.15H18.1999C18.2723 3.15006 18.3437 3.13391 18.4085 3.10275L20.0228 2.32425C21.1345 2.88394 22.1573 3.59449 23.0597 4.4343ZM8.89048 1.90485L10.0102 2.62485C10.0653 2.66017 10.1275 2.6838 10.1927 2.69415L12.4537 3.05775L12.233 3.6945L11.0549 4.07385C10.9494 4.10771 10.8599 4.17679 10.8025 4.2687L9.46249 6.4224L7.31021 7.668L4.13754 8.10495C3.90758 8.13628 3.73658 8.32601 3.73629 8.55V9.9C3.73629 10.0194 3.78551 10.1338 3.87299 10.2181L4.66943 10.9863V11.7594L2.7285 10.5111L2.02444 8.47395C3.36397 5.52195 5.81911 3.17295 8.89048 1.90485ZM7.56216 16.659L5.45326 16.2517L4.66943 14.7438V13.6863L6.40786 12.0096L7.05126 13.2511C7.13029 13.4037 7.29201 13.5001 7.46884 13.5H10.4708L11.7347 15.5317C11.819 15.6671 11.9708 15.7499 12.1345 15.75H13.4316L13.105 17.3281L11.3386 19.0318C11.2509 19.1162 11.2016 19.2306 11.2014 19.35V20.475L9.52175 21.69C9.40429 21.775 9.33512 21.9084 9.33512 22.05V23.6754L8.75471 23.49L7.93541 21.5136V17.1C7.93547 16.8861 7.7794 16.7017 7.56216 16.659ZM6.15965 23.5767C1.76054 20.3935 -0.0998467 14.8936 1.50655 9.8208L1.89427 10.9422C1.92693 11.0371 1.99143 11.1188 2.07763 11.1744L4.40348 12.6697L3.87299 13.1818C3.78551 13.2662 3.73629 13.3806 3.73629 13.5V14.85C3.73623 14.9198 3.75297 14.9887 3.78528 15.0511L4.71842 16.8511C4.78304 16.9755 4.90359 17.064 5.04501 17.091L7.00461 17.4685V21.6C7.00455 21.6571 7.0158 21.7138 7.03773 21.7669L7.97087 24.0169C8.02196 24.1399 8.12659 24.2349 8.25688 24.2766L9.65659 24.7266C9.70336 24.7419 9.75235 24.7498 9.80169 24.75C10.0594 24.75 10.2683 24.5485 10.2683 24.3V22.275L11.9479 21.06C12.0654 20.975 12.1345 20.8416 12.1345 20.7V19.5363L13.8641 17.8681C13.9291 17.8053 13.9735 17.7253 13.9915 17.6382L14.4581 15.3882C14.5086 15.1445 14.3447 14.9074 14.092 14.8587C14.0619 14.8529 14.0314 14.85 14.0008 14.85H12.3986L11.1347 12.8182C11.0503 12.6829 10.8986 12.6001 10.7348 12.6H7.75718L6.95562 11.0488C6.88849 10.9194 6.76088 10.8289 6.61269 10.8058C6.46455 10.7812 6.31333 10.8283 6.20817 10.9318L5.60257 11.5137V10.8C5.60257 10.6806 5.55334 10.5662 5.46586 10.4818L4.66943 9.7137V8.94015L7.5351 8.5455C7.59662 8.53689 7.65582 8.51653 7.70913 8.48565L10.042 7.13565C10.1074 7.09774 10.1622 7.04486 10.2015 6.98175L11.5126 4.8744L12.7485 4.4766C12.8881 4.43244 12.9976 4.32686 13.0434 4.1922L13.51 2.8422C13.5908 2.60623 13.458 2.3517 13.2134 2.27374C13.1908 2.26654 13.1676 2.26102 13.1442 2.2572L10.4437 1.82295L9.96919 1.51785C12.9053 0.596138 16.0853 0.710213 18.9423 1.8396L18.0898 2.25H16.3337C16.156 2.24904 15.9932 2.34557 15.9137 2.49885L14.9806 4.29885C14.8657 4.52126 14.9594 4.79149 15.19 4.90236C15.2096 4.91181 15.2299 4.91991 15.2508 4.9266L16.6505 5.3766C16.7344 5.40411 16.8248 5.40759 16.9108 5.3865L18.6455 4.96845L19.9164 5.3766C19.9346 5.3829 19.9534 5.38774 19.9724 5.391L22.3053 5.841C22.4266 5.86485 22.5528 5.84089 22.6557 5.7744L23.7176 5.0913C24.2402 5.65273 24.7099 6.25798 25.121 6.89985L22.8255 7.63785L20.3401 7.23825L19.5189 6.05025C19.4328 5.92577 19.2882 5.85073 19.1331 5.85H16.3337C16.2099 5.85 16.0913 5.89747 16.0038 5.98185L14.6041 7.33185C14.5002 7.43203 14.4512 7.57361 14.4721 7.7139L14.9386 10.8639C14.9621 11.0197 15.0683 11.1522 15.2186 11.2135L18.4845 12.5635C18.5781 12.6026 18.6825 12.6107 18.7813 12.5865L20.4474 12.1846L21.4659 12.8407V14.4C21.4651 14.4696 21.4811 14.5385 21.5126 14.6011L23.3322 18.1062V19.8C23.3322 19.9194 23.3814 20.0338 23.4689 20.1181L24.445 21.06C20.1162 26.625 11.9295 27.7518 6.15965 23.5767Z" fill="#fff"/>
</svg>
