<svg width="72" height="72" viewBox="0 0 72 72" fill="none" xmlns="http://www.w3.org/2000/svg">
<g clip-path="url(#clip0)">
<path d="M36 72C55.8823 72 72 55.8823 72 36C72 16.1178 55.8823 0 36 0C16.1178 0 0 16.1178 0 36C0 55.8823 16.1178 72 36 72Z" fill="url(#paint0_linear)"/>
<path d="M57.7452 7.30957V7.42068H54.7959C52.7145 7.42068 51.0273 9.10788 51.0273 11.1892C51.0273 12.3268 51.5322 13.346 52.3291 14.0369L71.9206 33.6284C71.2219 22.8901 65.8164 13.4363 57.7452 7.30957Z" fill="url(#paint1_linear)"/>
<path d="M71.3584 42.787L51.3992 22.8279C49.7223 20.8572 46.9987 20.8163 43.5135 20.8163C37.8863 20.8163 34.5461 22.3366 34.5461 27.7893C34.5461 30.3224 34.5869 32.0944 35.9814 33.2631C36.2007 33.5251 37.1336 34.4577 37.3771 34.6654C34.5232 35.8821 32.6416 38.436 32.6416 42.6086V43.1321C32.6416 46.1147 33.6358 48.2501 35.2911 49.6901L53.2215 67.6205C62.5066 62.5527 69.3115 53.5142 71.3584 42.787Z" fill="url(#paint2_linear)"/>
<path d="M65.0582 57.2515L29.0039 21.1973C28.5069 20.3738 27.1623 20.1644 26.0875 20.1644C25.6078 20.1644 18.2231 25.073 18.2231 25.9891C18.2231 26.9803 18.4109 27.9694 19.1594 28.4279C19.1594 28.4279 22.5638 31.6432 22.7161 31.7821V49.7626C22.7161 50.4053 22.7949 50.8995 23.35 51.2464L43.3514 71.2479C52.2194 69.4076 59.891 64.3048 65.0582 57.2515Z" fill="url(#paint3_linear)"/>
<path d="M68.5974 25.7844H64.5768C62.9228 25.7844 61.7252 27.3544 62.1545 28.9517C62.7594 31.2019 63.0819 33.5682 63.0812 36.0097C63.0764 50.8513 50.8415 63.0818 35.9999 63.0817C21.0438 63.0815 8.91911 50.9569 8.91897 36.0009C8.91883 21.1593 21.1494 8.92439 35.991 8.91959C38.4325 8.91875 40.7986 9.24133 43.0489 9.84628C44.6462 10.2756 46.2162 9.07799 46.2162 7.42397V3.40326C46.2162 2.23418 45.4087 1.22336 44.2707 0.955827C41.6805 0.346792 38.9821 0.0171445 36.2104 0.00133272C16.2949 -0.112879 0 16.085 0 36.0008C0 55.8834 16.1173 72.0006 35.9999 72.0006C55.9156 72.0006 72.1135 55.7058 71.9994 35.7903C71.9836 33.0186 71.654 30.3201 71.045 27.7299C70.7773 26.5919 69.7665 25.7844 68.5974 25.7844Z" fill="url(#paint4_linear)"/>
<path d="M66.4494 25.7838H64.577C62.923 25.7838 61.7254 27.3538 62.1547 28.9511C62.7596 31.2013 63.0821 33.5676 63.0814 36.0091C63.0766 50.8507 50.8416 63.0812 36 63.0811C21.0439 63.0809 8.91928 50.9563 8.91914 36.0003C8.919 21.1587 21.1495 8.92381 35.9911 8.91901C38.4326 8.91816 40.7988 9.24075 43.0491 9.84569C44.6464 10.275 46.2164 9.07741 46.2164 7.42338V5.55082C43.02 4.48 39.6 3.89651 36.043 3.892C18.4337 3.86898 4.12126 17.9697 3.89481 35.5774C3.66229 53.6446 18.3557 68.3379 36.4229 68.1054C54.0305 67.8788 68.1312 53.5664 68.1082 35.9573C68.1036 32.4002 67.5202 28.9802 66.4494 25.7838Z" fill="url(#paint5_linear)"/>
<path d="M22.4335 27.5593L21.1684 28.3445C20.7758 28.6062 20.3831 28.6935 20.078 28.6935C18.8129 28.6935 17.9404 27.3412 17.9404 25.989C17.9404 25.0729 18.333 24.2004 19.2055 23.6771L24.9635 20.1873C25.3124 19.9692 25.7486 19.882 26.2283 19.882C27.6241 19.882 29.2384 20.7108 29.2384 22.0195V49.7625C29.2384 51.1583 27.537 51.8563 25.8359 51.8563C24.1345 51.8563 22.4335 51.1583 22.4335 49.7625V27.5593Z" fill="url(#paint6_linear)"/>
<path d="M53.0127 27.7339C53.0127 31.3545 51.2677 33.5354 48.6942 34.4079C51.9222 35.4983 54.0595 38.1158 54.0595 42.6087V43.1322C54.0595 49.6318 49.3922 52.1181 43.3724 52.1181C37.3527 52.1181 32.6416 49.6317 32.6416 43.1322V42.6087C32.6416 38.1158 34.8226 35.4985 38.0506 34.4079C35.4768 33.5354 33.7322 31.3544 33.7322 27.7339C33.7322 22.2813 37.7453 19.9694 43.3724 19.9694C48.9996 19.9694 53.0127 22.2813 53.0127 27.7339ZM47.2545 41.3438C47.2545 38.5084 45.8149 37.1997 43.3723 37.1997C40.9294 37.1997 39.4463 38.5082 39.4463 41.3438V42.3033C39.4463 45.3132 40.973 46.6654 43.3723 46.6654C45.8587 46.6654 47.2545 45.226 47.2545 42.3033V41.3438ZM40.2752 28.6063C40.2752 30.8747 41.4094 31.747 43.3723 31.747C45.3352 31.747 46.4694 30.8747 46.4694 28.6063C46.4694 26.3816 45.3352 25.4219 43.3723 25.4219C41.4094 25.4219 40.2752 26.3816 40.2752 28.6063Z" fill="url(#paint7_linear)"/>
<path d="M68.2322 7.42064H65.2828V4.47132C65.2828 2.38996 63.5956 0.702759 61.5143 0.702759C59.4329 0.702759 57.7457 2.38996 57.7457 4.47132V7.42064H54.7964C52.715 7.42064 51.0278 9.10784 51.0278 11.1892C51.0278 13.2706 52.715 14.9578 54.7964 14.9578H57.7457V17.9071C57.7457 19.9885 59.4329 21.6757 61.5143 21.6757C63.5956 21.6757 65.2828 19.9885 65.2828 17.9071V14.9578H68.2322C70.3135 14.9578 72.0007 13.2706 72.0007 11.1892C72.0007 9.10784 70.3135 7.42064 68.2322 7.42064Z" fill="url(#paint8_linear)"/>
<path d="M65.2822 17.9071V14.9578H68.2316C70.3129 14.9578 72.0001 13.2706 72.0001 11.1892C72.0001 9.10784 70.3129 7.42064 68.2316 7.42064H65.2822V4.47132C65.2822 2.38996 63.595 0.702759 61.5137 0.702759V21.6758C63.5949 21.6757 65.2822 19.9885 65.2822 17.9071Z" fill="url(#paint9_linear)"/>
<path d="M54.7954 14.9578H57.7447V17.9071C57.7447 19.9885 59.4319 21.6757 61.5133 21.6757C63.5947 21.6757 65.2819 19.9885 65.2819 17.9071V14.9578H68.2312C70.3127 14.9578 71.9999 13.2706 71.9999 11.1892H51.0269C51.0269 13.2706 52.7142 14.9578 54.7954 14.9578Z" fill="url(#paint10_linear)"/>
</g>
<defs>
<linearGradient id="paint0_linear" x1="8.18188" y1="8.18188" x2="65.4127" y2="65.4127" gradientUnits="userSpaceOnUse">
<stop stop-color="#F8F6FB"/>
<stop offset="1" stop-color="#EFDCFB"/>
</linearGradient>
<linearGradient id="paint1_linear" x1="63.9285" y1="29.7572" x2="58.1717" y2="9.64901" gradientUnits="userSpaceOnUse">
<stop stop-color="#EFDCFB" stop-opacity="0"/>
<stop offset="0.4856" stop-color="#BAAAD6" stop-opacity="0.486"/>
<stop offset="1" stop-color="#8679B2"/>
</linearGradient>
<linearGradient id="paint2_linear" x1="66.507" y1="54.501" x2="26.9132" y2="28.318" gradientUnits="userSpaceOnUse">
<stop stop-color="#EFDCFB" stop-opacity="0"/>
<stop offset="0.4856" stop-color="#BAAAD6" stop-opacity="0.486"/>
<stop offset="1" stop-color="#8679B2"/>
</linearGradient>
<linearGradient id="paint3_linear" x1="45.9293" y1="49.5108" x2="12.1397" y2="37.4432" gradientUnits="userSpaceOnUse">
<stop stop-color="#EFDCFB" stop-opacity="0"/>
<stop offset="0.4856" stop-color="#BAAAD6" stop-opacity="0.486"/>
<stop offset="1" stop-color="#8679B2"/>
</linearGradient>
<linearGradient id="paint4_linear" x1="6.43737" y1="9.96783" x2="63.6261" y2="67.1566" gradientUnits="userSpaceOnUse">
<stop stop-color="#FF7044"/>
<stop offset="1" stop-color="#F82814"/>
</linearGradient>
<linearGradient id="paint5_linear" x1="64.0168" y1="66.3877" x2="-5.70165" y2="-3.33074" gradientUnits="userSpaceOnUse">
<stop stop-color="#FF7044"/>
<stop offset="1" stop-color="#F82814"/>
</linearGradient>
<linearGradient id="paint6_linear" x1="22.6485" y1="35.8691" x2="30.0126" y2="35.8691" gradientUnits="userSpaceOnUse">
<stop stop-color="#FFD945"/>
<stop offset="0.3043" stop-color="#FFCD3E"/>
<stop offset="0.8558" stop-color="#FFAD2B"/>
<stop offset="1" stop-color="#FFA325"/>
</linearGradient>
<linearGradient id="paint7_linear" x1="30.8135" y1="33.0842" x2="51.7866" y2="38.0572" gradientUnits="userSpaceOnUse">
<stop stop-color="#FFD945"/>
<stop offset="0.3043" stop-color="#FFCD3E"/>
<stop offset="0.8558" stop-color="#FFAD2B"/>
<stop offset="1" stop-color="#FFA325"/>
</linearGradient>
<linearGradient id="paint8_linear" x1="55.9737" y1="5.64859" x2="68.6526" y2="18.3275" gradientUnits="userSpaceOnUse">
<stop stop-color="#FFD945"/>
<stop offset="0.3043" stop-color="#FFCD3E"/>
<stop offset="0.8558" stop-color="#FFAD2B"/>
<stop offset="1" stop-color="#FFA325"/>
</linearGradient>
<linearGradient id="paint9_linear" x1="66.3413" y1="12.2809" x2="55.3954" y2="9.68624" gradientUnits="userSpaceOnUse">
<stop stop-color="#E87264" stop-opacity="0"/>
<stop offset="0.3529" stop-color="#ED725D" stop-opacity="0.353"/>
<stop offset="0.8514" stop-color="#FA704B" stop-opacity="0.851"/>
<stop offset="1" stop-color="#FF7044"/>
</linearGradient>
<linearGradient id="paint10_linear" x1="60.7612" y1="16.5439" x2="63.3559" y2="-1.45612" gradientUnits="userSpaceOnUse">
<stop stop-color="#E87264" stop-opacity="0"/>
<stop offset="0.3529" stop-color="#ED725D" stop-opacity="0.353"/>
<stop offset="0.8514" stop-color="#FA704B" stop-opacity="0.851"/>
<stop offset="1" stop-color="#FF7044"/>
</linearGradient>
<clipPath id="clip0">
<rect width="72" height="72" fill="white"/>
</clipPath>
</defs>
</svg>
